<svg xmlns="http://www.w3.org/2000/svg" xml:space="preserve" width="816" height="1056.001" viewBox="0 0 215.9 279.4"><path d="M0-215.9h279.4V0H0z" style="font-variation-settings:normal;vector-effect:none;fill:#fff;fill-opacity:1;fill-rule:evenodd;stroke:none;stroke-width:.352777;stroke-linecap:butt;stroke-linejoin:miter;stroke-miterlimit:4;stroke-dasharray:none;stroke-dashoffset:0;stroke-opacity:1;-inkscape-stroke:none;stop-color:#000" transform="rotate(90)"/><path d="M13.45 7.7v88h63v-88h-61zm3.86 2h32.65l1.858 1.86v2.63l-1.859 1.86H17.31l-1.859-1.86v-2.63zm38.368 0H72.59l1.86 1.86v2.63l-1.86 1.86H55.678l-1.86-1.86v-2.63zM25.22 17.05h5.323l1.859 1.86v-1.86 4.49l-1.86 1.86h-5.321l-1.86-1.86v-2.63zm11.042 0h5.322l1.86 1.86v2.63l-1.86 1.86h-5.322l-1.86-1.86v-2.63zm11.042 0H64.82l1.719 1.72v2.911l-1.72 1.72H47.305l-1.86-1.86v-2.63zM17.31 24.4h55.28l1.86 1.86v65.58l-1.86 1.86H17.31l-1.86-1.86V26.26zM76.45 7.7v88h63v-88h-61zm3.86 2h32.649l1.86 1.86v2.63l-1.86 1.86h-32.65l-1.86-1.86v-2.63zm38.368 0h16.912l1.86 1.86v2.63l-1.86 1.86h-16.912l-1.86-1.86v-2.63zM88.22 17.05h5.323l1.859 1.86v-1.86 4.49l-1.86 1.86H88.22l-1.86-1.86v-2.63zm11.042 0h5.322l1.86 1.86v2.63l-1.86 1.86h-5.322l-1.86-1.86v-2.63zm11.042 0h17.516l1.72 1.72v2.911l-1.72 1.72h-17.516l-1.86-1.86v-2.63zM80.31 24.4h55.28l1.86 1.86v65.58l-1.86 1.86H80.31l-1.86-1.86V26.26Zm59.14-16.7v88h63v-88h-61zm3.86 2h32.649l1.859 1.86v2.63l-1.86 1.86H143.31l-1.86-1.86v-2.63zm38.368 0h16.912l1.86 1.86v2.63l-1.86 1.86h-16.912l-1.86-1.86v-2.63zm-30.458 7.35h5.322l1.86 1.86v-1.86 4.49l-1.86 1.86h-5.322l-1.86-1.86v-2.63zm11.042 0h5.322l1.86 1.86v2.63l-1.86 1.86h-5.322l-1.86-1.86v-2.63zm11.042 0h17.516l1.72 1.72v2.911l-1.72 1.72h-17.516l-1.86-1.86v-2.63zM143.31 24.4h55.28l1.86 1.86v65.58l-1.86 1.86h-55.28l-1.86-1.86V26.26Z" style="color:#000;font-style:normal;font-variant:normal;font-weight:400;font-stretch:normal;font-size:medium;line-height:normal;font-family:sans-serif;font-variant-ligatures:normal;font-variant-position:normal;font-variant-caps:normal;font-variant-numeric:normal;font-variant-alternates:normal;font-variant-east-asian:normal;font-feature-settings:normal;font-variation-settings:normal;text-indent:0;text-align:start;text-decoration-line:none;text-decoration-style:solid;text-decoration-color:#000;letter-spacing:normal;word-spacing:normal;text-transform:none;writing-mode:lr-tb;direction:ltr;text-orientation:mixed;dominant-baseline:auto;baseline-shift:baseline;text-anchor:start;white-space:normal;shape-padding:0;shape-margin:0;inline-size:0;clip-rule:nonzero;display:inline;overflow:visible;visibility:visible;isolation:auto;mix-blend-mode:normal;color-interpolation:sRGB;color-interpolation-filters:linearRGB;solid-color:#000;solid-opacity:1;vector-effect:none;fill:#000;fill-opacity:1;fill-rule:evenodd;stroke:none;stroke-linecap:butt;stroke-linejoin:miter;stroke-miterlimit:4;stroke-dasharray:none;stroke-dashoffset:0;stroke-opacity:1;-inkscape-stroke:none;color-rendering:auto;image-rendering:auto;shape-rendering:auto;text-rendering:auto;stop-color:#000"/><path d="M13.45 95.7v88h63v-88h-61zm3.86 2h32.65l1.858 1.86v2.63l-1.859 1.86H17.31l-1.859-1.86v-2.63zm38.368 0H72.59l1.86 1.86v2.63l-1.86 1.86H55.678l-1.86-1.86v-2.63zm-30.458 7.35h5.323l1.859 1.86v-1.86 4.49l-1.86 1.86h-5.321l-1.86-1.86v-2.63zm11.042 0h5.322l1.86 1.86v2.63l-1.86 1.86h-5.322l-1.86-1.86v-2.63zm11.042 0H64.82l1.719 1.72v2.91l-1.72 1.72H47.305l-1.86-1.86v-2.63zM17.31 112.4h55.28l1.86 1.86v65.58l-1.86 1.86H17.31l-1.86-1.86v-65.58zm122.14-16.7v88h63v-88h-61zm3.86 2h32.649l1.859 1.86v2.63l-1.86 1.86H143.31l-1.86-1.86v-2.63zm38.368 0h16.912l1.86 1.86v2.63l-1.86 1.86h-16.912l-1.86-1.86v-2.63zm-30.458 7.35h5.322l1.86 1.86v-1.86 4.49l-1.86 1.86h-5.322l-1.86-1.86v-2.63zm11.042 0h5.322l1.86 1.86v2.63l-1.86 1.86h-5.322l-1.86-1.86v-2.63zm11.042 0h17.516l1.72 1.72v2.91l-1.72 1.72h-17.516l-1.86-1.86v-2.63zm-29.994 7.35h55.28l1.86 1.86v65.58l-1.86 1.86h-55.28l-1.86-1.86v-65.58zM76.45 95.7v88h63v-88h-61zm3.86 2h32.649l1.86 1.86v2.63l-1.86 1.86h-32.65l-1.86-1.86v-2.63zm38.368 0h16.912l1.86 1.86v2.63l-1.86 1.86h-16.912l-1.86-1.86v-2.63zm-30.458 7.35h5.323l1.859 1.86v-1.86 4.49l-1.86 1.86H88.22l-1.86-1.86v-2.63zm11.042 0h5.322l1.86 1.86v2.63l-1.86 1.86h-5.322l-1.86-1.86v-2.63zm11.042 0h17.516l1.72 1.72v2.91l-1.72 1.72h-17.516l-1.86-1.86v-2.63zM80.31 112.4h55.28l1.86 1.86v65.58l-1.86 1.86H80.31l-1.86-1.86v-65.58zm59.14 71.3v88h63v-88h-61zm3.86 2h32.649l1.859 1.86v2.63l-1.86 1.86H143.31l-1.86-1.86v-2.63zm38.368 0h16.912l1.86 1.86v2.63l-1.86 1.86h-16.912l-1.86-1.86v-2.63zm-30.458 7.35h5.322l1.86 1.86v-1.86 4.49l-1.86 1.86h-5.322l-1.86-1.86v-2.63zm11.042 0h5.322l1.86 1.86v2.63l-1.86 1.86h-5.322l-1.86-1.86v-2.63zm11.042 0h17.516l1.72 1.72v2.91l-1.72 1.72h-17.516l-1.86-1.86v-2.63zm-29.994 7.35h55.28l1.86 1.86v65.58l-1.86 1.86h-55.28l-1.86-1.86v-65.58zm-66.86-16.7v88h63v-88h-61zm3.86 2h32.649l1.86 1.86v2.63l-1.86 1.86h-32.65l-1.86-1.86v-2.63zm38.368 0h16.912l1.86 1.86v2.63l-1.86 1.86h-16.912l-1.86-1.86v-2.63zm-30.458 7.35h5.323l1.859 1.86v-1.86 4.49l-1.86 1.86H88.22l-1.86-1.86v-2.63zm11.042 0h5.322l1.86 1.86v2.63l-1.86 1.86h-5.322l-1.86-1.86v-2.63zm11.042 0h17.516l1.72 1.72v2.91l-1.72 1.72h-17.516l-1.86-1.86v-2.63zM80.31 200.4h55.28l1.86 1.86v65.58l-1.86 1.86H80.31l-1.86-1.86v-65.58zm-66.86-16.7v88h63v-88h-61zm3.86 2h32.65l1.858 1.86v2.63l-1.859 1.86H17.31l-1.859-1.86v-2.63zm38.368 0H72.59l1.86 1.86v2.63l-1.86 1.86H55.678l-1.86-1.86v-2.63zm-30.458 7.35h5.323l1.859 1.86v-1.86 4.49l-1.86 1.86h-5.321l-1.86-1.86v-2.63zm11.042 0h5.322l1.86 1.86v2.63l-1.86 1.86h-5.322l-1.86-1.86v-2.63zm11.042 0H64.82l1.719 1.72v2.91l-1.72 1.72H47.305l-1.86-1.86v-2.63zM17.31 200.4h55.28l1.86 1.86v65.58l-1.86 1.86H17.31l-1.86-1.86v-65.58z" style="color:#000;font-style:normal;font-variant:normal;font-weight:400;font-stretch:normal;font-size:medium;line-height:normal;font-family:sans-serif;font-variant-ligatures:normal;font-variant-position:normal;font-variant-caps:normal;font-variant-numeric:normal;font-variant-alternates:normal;font-variant-east-asian:normal;font-feature-settings:normal;font-variation-settings:normal;text-indent:0;text-align:start;text-decoration-line:none;text-decoration-style:solid;text-decoration-color:#000;letter-spacing:normal;word-spacing:normal;text-transform:none;writing-mode:lr-tb;direction:ltr;text-orientation:mixed;dominant-baseline:auto;baseline-shift:baseline;text-anchor:start;white-space:normal;shape-padding:0;shape-margin:0;inline-size:0;clip-rule:nonzero;display:inline;overflow:visible;visibility:visible;isolation:auto;mix-blend-mode:normal;color-interpolation:sRGB;color-interpolation-filters:linearRGB;solid-color:#000;solid-opacity:1;vector-effect:none;fill:#000;fill-opacity:1;fill-rule:evenodd;stroke:none;stroke-linecap:butt;stroke-linejoin:miter;stroke-miterlimit:4;stroke-dasharray:none;stroke-dashoffset:0;stroke-opacity:1;-inkscape-stroke:none;color-rendering:auto;image-rendering:auto;shape-rendering:auto;text-rendering:auto;stop-color:#000"/><path d="M202.45 95.7h-189m189 88h-189m63 88V7.7m63 264V7.7" style="font-variation-settings:normal;fill:none;fill-opacity:1;stroke:#fff;stroke-width:.352778;stroke-linecap:butt;stroke-linejoin:miter;stroke-miterlimit:4;stroke-dasharray:2.82222,1.41111;stroke-dashoffset:0;stroke-opacity:1;stop-color:#000"/></svg>