<svg xmlns="http://www.w3.org/2000/svg" width="11in" height="816" viewBox="0 0 279.4 215.9"><path d="M857.28 0h279.4v215.9h-279.4z" style="font-variation-settings:normal;vector-effect:none;fill:#fff;fill-opacity:1;fill-rule:evenodd;stroke:none;stroke-width:.352776;stroke-linecap:butt;stroke-linejoin:miter;stroke-miterlimit:4;stroke-dasharray:none;stroke-dashoffset:0;stroke-opacity:1;-inkscape-stroke:none;stop-color:#000" transform="translate(-857.28)"/><path d="M933.613-138.279h60v85h-60z" style="font-variation-settings:normal;vector-effect:none;fill:#fff;fill-opacity:1;fill-rule:evenodd;stroke:none;stroke-width:.352777;stroke-linecap:butt;stroke-linejoin:miter;stroke-miterlimit:4;stroke-dasharray:none;stroke-dashoffset:0;stroke-opacity:1;-inkscape-stroke:none;stop-color:#000" transform="translate(-855.412 159.73)"/><path d="M933.613-62.804h60v9.525h-60zm0-75.475v19.05h60v-19.05zm-1.5-1.5v88h63v-88zm1.5 1.5h60v85h-60z" style="vector-effect:none;fill-rule:evenodd;stroke:none;stroke-width:.352777;stop-color:#000" transform="translate(-855.412 159.73)"/><path d="m962.937-127.196-1.587 1.587 1.315.273-1.315 1.315 1.315 1.315-1.315.272 1.587 1.588h22.493l1.588-1.588-1.315-.272 1.315-1.315-1.315-1.315 1.315-.273-1.588-1.587zM944.655-130.341l-1.86-1.86v-2.63l1.86-1.86h37.915l1.86 1.86v2.63l-1.86 1.86z" style="font-variation-settings:normal;vector-effect:none;fill:#fff;fill-opacity:1;stroke:none;stroke-width:.352777;stroke-linecap:butt;stroke-linejoin:miter;stroke-miterlimit:4;stroke-dasharray:none;stroke-dashoffset:0;stroke-opacity:1;-inkscape-stroke:none;stop-color:#000" transform="translate(-855.412 159.73)"/><path d="M933.613-119.229h60v56.425h-60z" style="font-variation-settings:normal;vector-effect:none;fill:none;fill-opacity:1;fill-rule:evenodd;stroke:none;stroke-width:.352777;stroke-linecap:butt;stroke-linejoin:miter;stroke-miterlimit:4;stroke-dasharray:none;stroke-dashoffset:0;stroke-opacity:1;-inkscape-stroke:none;stop-color:#000" transform="translate(-855.412 159.73)"/><path d="M943.384-127.137a3.183 3.183 0 0 0-3.175 3.175c-.027 1.925 1.645 3.202 3.175 3.175h2.63c1.53.027 3.201-1.25 3.174-3.175a3.183 3.183 0 0 0-3.175-3.175zM950.78-127.196v6.35h8.98v-6.35h-5.805z" style="font-variation-settings:normal;fill:#fff;fill-opacity:1;stroke:none;stroke-width:.352778;stroke-linecap:butt;stroke-linejoin:miter;stroke-miterlimit:4;stroke-dasharray:none;stroke-dashoffset:0;stroke-opacity:1;stop-color:#000" transform="translate(-855.412 159.73)"/><path d="m952.938-54.866-1.86-1.86v-2.63l1.86-1.86h21.35l1.86 1.86v2.63l-1.86 1.86z" style="font-variation-settings:normal;vector-effect:none;fill:#fff;fill-opacity:1;stroke:none;stroke-width:.352777;stroke-linecap:butt;stroke-linejoin:miter;stroke-miterlimit:4;stroke-dasharray:none;stroke-dashoffset:0;stroke-opacity:1;-inkscape-stroke:none;stop-color:#000" transform="translate(-855.412 159.73)"/><path d="M933.613-138.279h60v85h-60z" style="font-variation-settings:normal;vector-effect:none;fill:#fff;fill-opacity:1;fill-rule:evenodd;stroke:none;stroke-width:.352777;stroke-linecap:butt;stroke-linejoin:miter;stroke-miterlimit:4;stroke-dasharray:none;stroke-dashoffset:0;stroke-opacity:1;-inkscape-stroke:none;stop-color:#000" transform="translate(-918.412 159.73)"/><path d="M933.613-62.804h60v9.525h-60zm0-75.475v19.05h60v-19.05zm-1.5-1.5v88h63v-88zm1.5 1.5h60v85h-60z" style="vector-effect:none;fill-rule:evenodd;stroke:none;stroke-width:.352777;stop-color:#000" transform="translate(-918.412 159.73)"/><path d="m962.937-127.196-1.587 1.587 1.315.273-1.315 1.315 1.315 1.315-1.315.272 1.587 1.588h22.493l1.588-1.588-1.315-.272 1.315-1.315-1.315-1.315 1.315-.273-1.588-1.587zM944.655-130.341l-1.86-1.86v-2.63l1.86-1.86h37.915l1.86 1.86v2.63l-1.86 1.86z" style="font-variation-settings:normal;vector-effect:none;fill:#fff;fill-opacity:1;stroke:none;stroke-width:.352777;stroke-linecap:butt;stroke-linejoin:miter;stroke-miterlimit:4;stroke-dasharray:none;stroke-dashoffset:0;stroke-opacity:1;-inkscape-stroke:none;stop-color:#000" transform="translate(-918.412 159.73)"/><path d="M933.613-119.229h60v56.425h-60z" style="font-variation-settings:normal;vector-effect:none;fill:none;fill-opacity:1;fill-rule:evenodd;stroke:none;stroke-width:.352777;stroke-linecap:butt;stroke-linejoin:miter;stroke-miterlimit:4;stroke-dasharray:none;stroke-dashoffset:0;stroke-opacity:1;-inkscape-stroke:none;stop-color:#000" transform="translate(-918.412 159.73)"/><path d="M943.384-127.137a3.183 3.183 0 0 0-3.175 3.175c-.027 1.925 1.645 3.202 3.175 3.175h2.63c1.53.027 3.201-1.25 3.174-3.175a3.183 3.183 0 0 0-3.175-3.175zM950.78-127.196v6.35h8.98v-6.35h-5.805z" style="font-variation-settings:normal;fill:#fff;fill-opacity:1;stroke:none;stroke-width:.352778;stroke-linecap:butt;stroke-linejoin:miter;stroke-miterlimit:4;stroke-dasharray:none;stroke-dashoffset:0;stroke-opacity:1;stop-color:#000" transform="translate(-918.412 159.73)"/><path d="m952.938-54.866-1.86-1.86v-2.63l1.86-1.86h21.35l1.86 1.86v2.63l-1.86 1.86z" style="font-variation-settings:normal;vector-effect:none;fill:#fff;fill-opacity:1;stroke:none;stroke-width:.352777;stroke-linecap:butt;stroke-linejoin:miter;stroke-miterlimit:4;stroke-dasharray:none;stroke-dashoffset:0;stroke-opacity:1;-inkscape-stroke:none;stop-color:#000" transform="translate(-918.412 159.73)"/><path d="M933.613-138.279h60v85h-60z" style="font-variation-settings:normal;vector-effect:none;fill:#fff;fill-opacity:1;fill-rule:evenodd;stroke:none;stroke-width:.352777;stroke-linecap:butt;stroke-linejoin:miter;stroke-miterlimit:4;stroke-dasharray:none;stroke-dashoffset:0;stroke-opacity:1;-inkscape-stroke:none;stop-color:#000" transform="translate(-729.413 159.73)"/><path d="M933.613-62.804h60v9.525h-60zm0-75.475v19.05h60v-19.05zm-1.5-1.5v88h63v-88zm1.5 1.5h60v85h-60z" style="vector-effect:none;fill-rule:evenodd;stroke:none;stroke-width:.352777;stop-color:#000" transform="translate(-729.413 159.73)"/><path d="m962.937-127.196-1.587 1.587 1.315.273-1.315 1.315 1.315 1.315-1.315.272 1.587 1.588h22.493l1.588-1.588-1.315-.272 1.315-1.315-1.315-1.315 1.315-.273-1.588-1.587zM944.655-130.341l-1.86-1.86v-2.63l1.86-1.86h37.915l1.86 1.86v2.63l-1.86 1.86z" style="font-variation-settings:normal;vector-effect:none;fill:#fff;fill-opacity:1;stroke:none;stroke-width:.352777;stroke-linecap:butt;stroke-linejoin:miter;stroke-miterlimit:4;stroke-dasharray:none;stroke-dashoffset:0;stroke-opacity:1;-inkscape-stroke:none;stop-color:#000" transform="translate(-729.413 159.73)"/><path d="M933.613-119.229h60v56.425h-60z" style="font-variation-settings:normal;vector-effect:none;fill:none;fill-opacity:1;fill-rule:evenodd;stroke:none;stroke-width:.352777;stroke-linecap:butt;stroke-linejoin:miter;stroke-miterlimit:4;stroke-dasharray:none;stroke-dashoffset:0;stroke-opacity:1;-inkscape-stroke:none;stop-color:#000" transform="translate(-729.413 159.73)"/><path d="M943.384-127.137a3.183 3.183 0 0 0-3.175 3.175c-.027 1.925 1.645 3.202 3.175 3.175h2.63c1.53.027 3.201-1.25 3.174-3.175a3.183 3.183 0 0 0-3.175-3.175zM950.78-127.196v6.35h8.98v-6.35h-5.805z" style="font-variation-settings:normal;fill:#fff;fill-opacity:1;stroke:none;stroke-width:.352778;stroke-linecap:butt;stroke-linejoin:miter;stroke-miterlimit:4;stroke-dasharray:none;stroke-dashoffset:0;stroke-opacity:1;stop-color:#000" transform="translate(-729.413 159.73)"/><path d="m952.938-54.866-1.86-1.86v-2.63l1.86-1.86h21.35l1.86 1.86v2.63l-1.86 1.86z" style="font-variation-settings:normal;vector-effect:none;fill:#fff;fill-opacity:1;stroke:none;stroke-width:.352777;stroke-linecap:butt;stroke-linejoin:miter;stroke-miterlimit:4;stroke-dasharray:none;stroke-dashoffset:0;stroke-opacity:1;-inkscape-stroke:none;stop-color:#000" transform="translate(-729.413 159.73)"/><path d="M933.613-138.279h60v85h-60z" style="font-variation-settings:normal;vector-effect:none;fill:#fff;fill-opacity:1;fill-rule:evenodd;stroke:none;stroke-width:.352777;stroke-linecap:butt;stroke-linejoin:miter;stroke-miterlimit:4;stroke-dasharray:none;stroke-dashoffset:0;stroke-opacity:1;-inkscape-stroke:none;stop-color:#000" transform="translate(-792.413 159.73)"/><path d="M933.613-62.804h60v9.525h-60zm0-75.475v19.05h60v-19.05zm-1.5-1.5v88h63v-88zm1.5 1.5h60v85h-60z" style="vector-effect:none;fill-rule:evenodd;stroke:none;stroke-width:.352777;stop-color:#000" transform="translate(-792.413 159.73)"/><path d="m962.937-127.196-1.587 1.587 1.315.273-1.315 1.315 1.315 1.315-1.315.272 1.587 1.588h22.493l1.588-1.588-1.315-.272 1.315-1.315-1.315-1.315 1.315-.273-1.588-1.587zM944.655-130.341l-1.86-1.86v-2.63l1.86-1.86h37.915l1.86 1.86v2.63l-1.86 1.86z" style="font-variation-settings:normal;vector-effect:none;fill:#fff;fill-opacity:1;stroke:none;stroke-width:.352777;stroke-linecap:butt;stroke-linejoin:miter;stroke-miterlimit:4;stroke-dasharray:none;stroke-dashoffset:0;stroke-opacity:1;-inkscape-stroke:none;stop-color:#000" transform="translate(-792.413 159.73)"/><path d="M933.613-119.229h60v56.425h-60z" style="font-variation-settings:normal;vector-effect:none;fill:none;fill-opacity:1;fill-rule:evenodd;stroke:none;stroke-width:.352777;stroke-linecap:butt;stroke-linejoin:miter;stroke-miterlimit:4;stroke-dasharray:none;stroke-dashoffset:0;stroke-opacity:1;-inkscape-stroke:none;stop-color:#000" transform="translate(-792.413 159.73)"/><path d="M943.384-127.137a3.183 3.183 0 0 0-3.175 3.175c-.027 1.925 1.645 3.202 3.175 3.175h2.63c1.53.027 3.201-1.25 3.174-3.175a3.183 3.183 0 0 0-3.175-3.175zM950.78-127.196v6.35h8.98v-6.35h-5.805z" style="font-variation-settings:normal;fill:#fff;fill-opacity:1;stroke:none;stroke-width:.352778;stroke-linecap:butt;stroke-linejoin:miter;stroke-miterlimit:4;stroke-dasharray:none;stroke-dashoffset:0;stroke-opacity:1;stop-color:#000" transform="translate(-792.413 159.73)"/><path d="m952.938-54.866-1.86-1.86v-2.63l1.86-1.86h21.35l1.86 1.86v2.63l-1.86 1.86z" style="font-variation-settings:normal;vector-effect:none;fill:#fff;fill-opacity:1;stroke:none;stroke-width:.352777;stroke-linecap:butt;stroke-linejoin:miter;stroke-miterlimit:4;stroke-dasharray:none;stroke-dashoffset:0;stroke-opacity:1;-inkscape-stroke:none;stop-color:#000" transform="translate(-792.413 159.73)"/><path d="M933.613-138.279h60v85h-60z" style="font-variation-settings:normal;vector-effect:none;fill:#fff;fill-opacity:1;fill-rule:evenodd;stroke:none;stroke-width:.352777;stroke-linecap:butt;stroke-linejoin:miter;stroke-miterlimit:4;stroke-dasharray:none;stroke-dashoffset:0;stroke-opacity:1;-inkscape-stroke:none;stop-color:#000" transform="translate(-855.412 247.73)"/><path d="M933.613-62.804h60v9.525h-60zm0-75.475v19.05h60v-19.05zm-1.5-1.5v88h63v-88zm1.5 1.5h60v85h-60z" style="vector-effect:none;fill-rule:evenodd;stroke:none;stroke-width:.352777;stop-color:#000" transform="translate(-855.412 247.73)"/><path d="m962.937-127.196-1.587 1.587 1.315.273-1.315 1.315 1.315 1.315-1.315.272 1.587 1.588h22.493l1.588-1.588-1.315-.272 1.315-1.315-1.315-1.315 1.315-.273-1.588-1.587zM944.655-130.341l-1.86-1.86v-2.63l1.86-1.86h37.915l1.86 1.86v2.63l-1.86 1.86z" style="font-variation-settings:normal;vector-effect:none;fill:#fff;fill-opacity:1;stroke:none;stroke-width:.352777;stroke-linecap:butt;stroke-linejoin:miter;stroke-miterlimit:4;stroke-dasharray:none;stroke-dashoffset:0;stroke-opacity:1;-inkscape-stroke:none;stop-color:#000" transform="translate(-855.412 247.73)"/><path d="M933.613-119.229h60v56.425h-60z" style="font-variation-settings:normal;vector-effect:none;fill:none;fill-opacity:1;fill-rule:evenodd;stroke:none;stroke-width:.352777;stroke-linecap:butt;stroke-linejoin:miter;stroke-miterlimit:4;stroke-dasharray:none;stroke-dashoffset:0;stroke-opacity:1;-inkscape-stroke:none;stop-color:#000" transform="translate(-855.412 247.73)"/><path d="M943.384-127.137a3.183 3.183 0 0 0-3.175 3.175c-.027 1.925 1.645 3.202 3.175 3.175h2.63c1.53.027 3.201-1.25 3.174-3.175a3.183 3.183 0 0 0-3.175-3.175zM950.78-127.196v6.35h8.98v-6.35h-5.805z" style="font-variation-settings:normal;fill:#fff;fill-opacity:1;stroke:none;stroke-width:.352778;stroke-linecap:butt;stroke-linejoin:miter;stroke-miterlimit:4;stroke-dasharray:none;stroke-dashoffset:0;stroke-opacity:1;stop-color:#000" transform="translate(-855.412 247.73)"/><path d="m952.938-54.866-1.86-1.86v-2.63l1.86-1.86h21.35l1.86 1.86v2.63l-1.86 1.86z" style="font-variation-settings:normal;vector-effect:none;fill:#fff;fill-opacity:1;stroke:none;stroke-width:.352777;stroke-linecap:butt;stroke-linejoin:miter;stroke-miterlimit:4;stroke-dasharray:none;stroke-dashoffset:0;stroke-opacity:1;-inkscape-stroke:none;stop-color:#000" transform="translate(-855.412 247.73)"/><path d="M933.613-138.279h60v85h-60z" style="font-variation-settings:normal;vector-effect:none;fill:#fff;fill-opacity:1;fill-rule:evenodd;stroke:none;stroke-width:.352777;stroke-linecap:butt;stroke-linejoin:miter;stroke-miterlimit:4;stroke-dasharray:none;stroke-dashoffset:0;stroke-opacity:1;-inkscape-stroke:none;stop-color:#000" transform="translate(-918.412 247.73)"/><path d="M933.613-62.804h60v9.525h-60zm0-75.475v19.05h60v-19.05zm-1.5-1.5v88h63v-88zm1.5 1.5h60v85h-60z" style="vector-effect:none;fill-rule:evenodd;stroke:none;stroke-width:.352777;stop-color:#000" transform="translate(-918.412 247.73)"/><path d="m962.937-127.196-1.587 1.587 1.315.273-1.315 1.315 1.315 1.315-1.315.272 1.587 1.588h22.493l1.588-1.588-1.315-.272 1.315-1.315-1.315-1.315 1.315-.273-1.588-1.587zM944.655-130.341l-1.86-1.86v-2.63l1.86-1.86h37.915l1.86 1.86v2.63l-1.86 1.86z" style="font-variation-settings:normal;vector-effect:none;fill:#fff;fill-opacity:1;stroke:none;stroke-width:.352777;stroke-linecap:butt;stroke-linejoin:miter;stroke-miterlimit:4;stroke-dasharray:none;stroke-dashoffset:0;stroke-opacity:1;-inkscape-stroke:none;stop-color:#000" transform="translate(-918.412 247.73)"/><path d="M933.613-119.229h60v56.425h-60z" style="font-variation-settings:normal;vector-effect:none;fill:none;fill-opacity:1;fill-rule:evenodd;stroke:none;stroke-width:.352777;stroke-linecap:butt;stroke-linejoin:miter;stroke-miterlimit:4;stroke-dasharray:none;stroke-dashoffset:0;stroke-opacity:1;-inkscape-stroke:none;stop-color:#000" transform="translate(-918.412 247.73)"/><path d="M943.384-127.137a3.183 3.183 0 0 0-3.175 3.175c-.027 1.925 1.645 3.202 3.175 3.175h2.63c1.53.027 3.201-1.25 3.174-3.175a3.183 3.183 0 0 0-3.175-3.175zM950.78-127.196v6.35h8.98v-6.35h-5.805z" style="font-variation-settings:normal;fill:#fff;fill-opacity:1;stroke:none;stroke-width:.352778;stroke-linecap:butt;stroke-linejoin:miter;stroke-miterlimit:4;stroke-dasharray:none;stroke-dashoffset:0;stroke-opacity:1;stop-color:#000" transform="translate(-918.412 247.73)"/><path d="m952.938-54.866-1.86-1.86v-2.63l1.86-1.86h21.35l1.86 1.86v2.63l-1.86 1.86z" style="font-variation-settings:normal;vector-effect:none;fill:#fff;fill-opacity:1;stroke:none;stroke-width:.352777;stroke-linecap:butt;stroke-linejoin:miter;stroke-miterlimit:4;stroke-dasharray:none;stroke-dashoffset:0;stroke-opacity:1;-inkscape-stroke:none;stop-color:#000" transform="translate(-918.412 247.73)"/><path d="M933.613-138.279h60v85h-60z" style="font-variation-settings:normal;vector-effect:none;fill:#fff;fill-opacity:1;fill-rule:evenodd;stroke:none;stroke-width:.352777;stroke-linecap:butt;stroke-linejoin:miter;stroke-miterlimit:4;stroke-dasharray:none;stroke-dashoffset:0;stroke-opacity:1;-inkscape-stroke:none;stop-color:#000" transform="translate(-729.413 247.73)"/><path d="M933.613-62.804h60v9.525h-60zm0-75.475v19.05h60v-19.05zm-1.5-1.5v88h63v-88zm1.5 1.5h60v85h-60z" style="vector-effect:none;fill-rule:evenodd;stroke:none;stroke-width:.352777;stop-color:#000" transform="translate(-729.413 247.73)"/><path d="m962.937-127.196-1.587 1.587 1.315.273-1.315 1.315 1.315 1.315-1.315.272 1.587 1.588h22.493l1.588-1.588-1.315-.272 1.315-1.315-1.315-1.315 1.315-.273-1.588-1.587zM944.655-130.341l-1.86-1.86v-2.63l1.86-1.86h37.915l1.86 1.86v2.63l-1.86 1.86z" style="font-variation-settings:normal;vector-effect:none;fill:#fff;fill-opacity:1;stroke:none;stroke-width:.352777;stroke-linecap:butt;stroke-linejoin:miter;stroke-miterlimit:4;stroke-dasharray:none;stroke-dashoffset:0;stroke-opacity:1;-inkscape-stroke:none;stop-color:#000" transform="translate(-729.413 247.73)"/><path d="M933.613-119.229h60v56.425h-60z" style="font-variation-settings:normal;vector-effect:none;fill:none;fill-opacity:1;fill-rule:evenodd;stroke:none;stroke-width:.352777;stroke-linecap:butt;stroke-linejoin:miter;stroke-miterlimit:4;stroke-dasharray:none;stroke-dashoffset:0;stroke-opacity:1;-inkscape-stroke:none;stop-color:#000" transform="translate(-729.413 247.73)"/><path d="M943.384-127.137a3.183 3.183 0 0 0-3.175 3.175c-.027 1.925 1.645 3.202 3.175 3.175h2.63c1.53.027 3.201-1.25 3.174-3.175a3.183 3.183 0 0 0-3.175-3.175zM950.78-127.196v6.35h8.98v-6.35h-5.805z" style="font-variation-settings:normal;fill:#fff;fill-opacity:1;stroke:none;stroke-width:.352778;stroke-linecap:butt;stroke-linejoin:miter;stroke-miterlimit:4;stroke-dasharray:none;stroke-dashoffset:0;stroke-opacity:1;stop-color:#000" transform="translate(-729.413 247.73)"/><path d="m952.938-54.866-1.86-1.86v-2.63l1.86-1.86h21.35l1.86 1.86v2.63l-1.86 1.86z" style="font-variation-settings:normal;vector-effect:none;fill:#fff;fill-opacity:1;stroke:none;stroke-width:.352777;stroke-linecap:butt;stroke-linejoin:miter;stroke-miterlimit:4;stroke-dasharray:none;stroke-dashoffset:0;stroke-opacity:1;-inkscape-stroke:none;stop-color:#000" transform="translate(-729.413 247.73)"/><path d="M933.613-138.279h60v85h-60z" style="font-variation-settings:normal;vector-effect:none;fill:#fff;fill-opacity:1;fill-rule:evenodd;stroke:none;stroke-width:.352777;stroke-linecap:butt;stroke-linejoin:miter;stroke-miterlimit:4;stroke-dasharray:none;stroke-dashoffset:0;stroke-opacity:1;-inkscape-stroke:none;stop-color:#000" transform="translate(-792.413 247.73)"/><path d="M933.613-62.804h60v9.525h-60zm0-75.475v19.05h60v-19.05zm-1.5-1.5v88h63v-88zm1.5 1.5h60v85h-60z" style="vector-effect:none;fill-rule:evenodd;stroke:none;stroke-width:.352777;stop-color:#000" transform="translate(-792.413 247.73)"/><path d="m962.937-127.196-1.587 1.587 1.315.273-1.315 1.315 1.315 1.315-1.315.272 1.587 1.588h22.493l1.588-1.588-1.315-.272 1.315-1.315-1.315-1.315 1.315-.273-1.588-1.587zM944.655-130.341l-1.86-1.86v-2.63l1.86-1.86h37.915l1.86 1.86v2.63l-1.86 1.86z" style="font-variation-settings:normal;vector-effect:none;fill:#fff;fill-opacity:1;stroke:none;stroke-width:.352777;stroke-linecap:butt;stroke-linejoin:miter;stroke-miterlimit:4;stroke-dasharray:none;stroke-dashoffset:0;stroke-opacity:1;-inkscape-stroke:none;stop-color:#000" transform="translate(-792.413 247.73)"/><path d="M933.613-119.229h60v56.425h-60z" style="font-variation-settings:normal;vector-effect:none;fill:none;fill-opacity:1;fill-rule:evenodd;stroke:none;stroke-width:.352777;stroke-linecap:butt;stroke-linejoin:miter;stroke-miterlimit:4;stroke-dasharray:none;stroke-dashoffset:0;stroke-opacity:1;-inkscape-stroke:none;stop-color:#000" transform="translate(-792.413 247.73)"/><path d="M943.384-127.137a3.183 3.183 0 0 0-3.175 3.175c-.027 1.925 1.645 3.202 3.175 3.175h2.63c1.53.027 3.201-1.25 3.174-3.175a3.183 3.183 0 0 0-3.175-3.175zM950.78-127.196v6.35h8.98v-6.35h-5.805z" style="font-variation-settings:normal;fill:#fff;fill-opacity:1;stroke:none;stroke-width:.352778;stroke-linecap:butt;stroke-linejoin:miter;stroke-miterlimit:4;stroke-dasharray:none;stroke-dashoffset:0;stroke-opacity:1;stop-color:#000" transform="translate(-792.413 247.73)"/><path d="m952.938-54.866-1.86-1.86v-2.63l1.86-1.86h21.35l1.86 1.86v2.63l-1.86 1.86z" style="font-variation-settings:normal;vector-effect:none;fill:#fff;fill-opacity:1;stroke:none;stroke-width:.352777;stroke-linecap:butt;stroke-linejoin:miter;stroke-miterlimit:4;stroke-dasharray:none;stroke-dashoffset:0;stroke-opacity:1;-inkscape-stroke:none;stop-color:#000" transform="translate(-792.413 247.73)"/><path d="M932.788 19.553v176M995.787 19.553v176M1058.787 19.553v176" style="font-variation-settings:normal;vector-effect:none;fill:none;fill-opacity:1;stroke:#fff;stroke-width:.352777;stroke-linecap:butt;stroke-linejoin:miter;stroke-miterlimit:4;stroke-dasharray:.705554,.352777;stroke-dashoffset:0;stroke-opacity:1;-inkscape-stroke:none;stop-color:#000" transform="translate(-856.087 .397)"/><path d="M1121.787 107.553h-252" style="font-variation-settings:normal;vector-effect:none;fill:none;fill-opacity:1;stroke:#fff;stroke-width:.352777;stroke-linecap:butt;stroke-linejoin:miter;stroke-miterlimit:4;stroke-dasharray:.705553,.352777;stroke-dashoffset:0;stroke-opacity:1;-inkscape-stroke:none;stop-color:#000" transform="translate(-856.087 .397)"/></svg>