<svg xmlns="http://www.w3.org/2000/svg" width="11in" height="816" viewBox="0 0 279.4 215.9"><path d="M371.406 182.755h215.9v139.7h-215.9z" style="font-variation-settings:normal;display:inline;fill:#fff;fill-opacity:1;fill-rule:evenodd;stroke:none;stroke-width:.352778;stroke-linecap:butt;stroke-linejoin:miter;stroke-miterlimit:4;stroke-dasharray:none;stroke-dashoffset:0;stroke-opacity:1;stop-color:#000" transform="rotate(90 346.93 -24.476)"/><path d="M371.406 252.605h215.9M371.406 182.755h215.9M479.356 322.455v-139.7" style="font-variation-settings:normal;vector-effect:none;fill:none;fill-opacity:1;stroke:#000;stroke-width:.352777;stroke-linecap:butt;stroke-linejoin:miter;stroke-miterlimit:4;stroke-dasharray:1.41111,.352777;stroke-dashoffset:0;stroke-opacity:1;-inkscape-stroke:none;stop-color:#000" transform="rotate(90 346.93 -24.476)"/><path d="M-316.105 492.06h57.15v80.955h-57.15z" style="font-variation-settings:normal;vector-effect:none;fill:none;fill-opacity:1;fill-rule:evenodd;stroke:#000;stroke-width:.352777;stroke-linecap:butt;stroke-linejoin:miter;stroke-miterlimit:4;stroke-dasharray:none;stroke-dashoffset:0;stroke-opacity:1;-inkscape-stroke:none;stop-color:#000" transform="translate(322.455 -371.406)"/><path d="M-316.105 485.71h57.15v15.89h-57.15z" style="font-variation-settings:normal;vector-effect:none;fill:#000;fill-opacity:1;fill-rule:evenodd;stroke:#000;stroke-width:.352777;stroke-linecap:butt;stroke-linejoin:miter;stroke-miterlimit:4;stroke-dasharray:none;stroke-dashoffset:0;stroke-opacity:1;-inkscape-stroke:none;stop-color:#000" transform="translate(322.455 -371.406)"/><path d="M-275.72 119.888v-2.63l1.86-1.86h32.78l1.86 1.86v2.63l-1.86 1.86h-32.78z" style="font-variation-settings:normal;vector-effect:none;fill:#fff;fill-opacity:1;stroke:#000;stroke-width:.352777;stroke-linecap:butt;stroke-linejoin:miter;stroke-miterlimit:4;stroke-dasharray:none;stroke-dashoffset:0;stroke-opacity:1;-inkscape-stroke:none;stop-color:#000" transform="translate(292.396 -.294)"/><path d="M-270.337 127.828v-2.63l1.86-1.86h2.63l1.86 1.86v2.63l-1.86 1.86h-2.63z" style="font-variation-settings:normal;fill:#fff;fill-opacity:1;stroke:#000;stroke-width:.352778;stroke-linecap:butt;stroke-linejoin:miter;stroke-miterlimit:4;stroke-dasharray:none;stroke-dashoffset:0;stroke-opacity:1;stop-color:#000" transform="translate(292.396 -.294)"/><path d="M-275.617 129.688h1.03l.96-.245.728-.727.727-.728.245-.96v-1.03l-.245-.96-.728-.727-.727-.728-.96-.245h-1.03l-.96.245-.727.728-.728.727-.245.96v1.03l.245.96.727.728.728.727z" style="font-variation-settings:normal;vector-effect:none;fill:#fff;fill-opacity:1;stroke:#000;stroke-width:.352777;stroke-linecap:butt;stroke-linejoin:miter;stroke-miterlimit:4;stroke-dasharray:none;stroke-dashoffset:0;stroke-opacity:1;-inkscape-stroke:none;stop-color:#000" transform="translate(292.396 -.294)"/><path d="m-261.17 123.338-1.226 1.226.638.64v2.62l-.639.638 1.226 1.226h23.28l1.227-1.226-.639-.639v-2.62l.639-.639-1.226-1.226h-11.64z" style="font-variation-settings:normal;fill:#fff;fill-opacity:1;stroke:#000;stroke-width:.352778;stroke-linecap:butt;stroke-linejoin:miter;stroke-miterlimit:4;stroke-dasharray:none;stroke-dashoffset:0;stroke-opacity:1;stop-color:#000" transform="translate(292.396 -.294)"/><path d="M-316.105 573.015h57.15v7.945h-57.15z" style="font-variation-settings:normal;vector-effect:none;fill:#000;fill-opacity:1;fill-rule:evenodd;stroke:#000;stroke-width:.352777;stroke-linecap:butt;stroke-linejoin:miter;stroke-miterlimit:4;stroke-dasharray:none;stroke-dashoffset:0;stroke-opacity:1;-inkscape-stroke:none;stop-color:#000" transform="translate(322.455 -371.406)"/><path d="m580.163 297.964-1.86 1.86h-2.63l-1.86-1.86v-20.867l1.86-1.86h2.63l1.86 1.86z" style="font-variation-settings:normal;fill:#fff;fill-opacity:1;stroke:#000;stroke-width:.352778;stroke-linecap:butt;stroke-linejoin:miter;stroke-miterlimit:4;stroke-dasharray:none;stroke-dashoffset:0;stroke-opacity:1;stop-color:#000" transform="rotate(90 346.93 -24.476)"/><path d="M-246.255 492.06h57.15v80.955h-57.15z" style="font-variation-settings:normal;vector-effect:none;fill:none;fill-opacity:1;fill-rule:evenodd;stroke:#000;stroke-width:.352777;stroke-linecap:butt;stroke-linejoin:miter;stroke-miterlimit:4;stroke-dasharray:none;stroke-dashoffset:0;stroke-opacity:1;-inkscape-stroke:none;stop-color:#000" transform="translate(322.455 -371.406)"/><path d="M-246.255 485.71h57.15v15.89h-57.15z" style="font-variation-settings:normal;vector-effect:none;fill:#000;fill-opacity:1;fill-rule:evenodd;stroke:#000;stroke-width:.352777;stroke-linecap:butt;stroke-linejoin:miter;stroke-miterlimit:4;stroke-dasharray:none;stroke-dashoffset:0;stroke-opacity:1;-inkscape-stroke:none;stop-color:#000" transform="translate(322.455 -371.406)"/><path d="M491 235.93h-2.63l-1.86-1.86v-32.78l1.86-1.86H491l1.86 1.86v32.78z" style="font-variation-settings:normal;vector-effect:none;fill:#fff;fill-opacity:1;stroke:#000;stroke-width:.352777;stroke-linecap:butt;stroke-linejoin:miter;stroke-miterlimit:4;stroke-dasharray:none;stroke-dashoffset:0;stroke-opacity:1;-inkscape-stroke:none;stop-color:#000" transform="rotate(90 346.93 -24.476)"/><path d="M498.94 230.546h-2.63l-1.86-1.86v-2.63l1.86-1.86h2.63l1.86 1.86v2.63z" style="font-variation-settings:normal;fill:#fff;fill-opacity:1;stroke:#000;stroke-width:.352778;stroke-linecap:butt;stroke-linejoin:miter;stroke-miterlimit:4;stroke-dasharray:none;stroke-dashoffset:0;stroke-opacity:1;stop-color:#000" transform="rotate(90 346.93 -24.476)"/><path d="M500.8 235.826v-1.03l-.244-.96-.728-.727-.728-.728-.96-.245h-1.03l-.96.245-.727.728-.728.727-.245.96v1.03l.245.96.728.728.728.727.96.245h1.029l.96-.245.728-.727.728-.728z" style="font-variation-settings:normal;vector-effect:none;fill:#fff;fill-opacity:1;stroke:#000;stroke-width:.352777;stroke-linecap:butt;stroke-linejoin:miter;stroke-miterlimit:4;stroke-dasharray:none;stroke-dashoffset:0;stroke-opacity:1;-inkscape-stroke:none;stop-color:#000" transform="rotate(90 346.93 -24.476)"/><path d="m494.45 221.38 1.227 1.225.638-.638h2.62l.64.639 1.225-1.226V198.1l-1.226-1.227-.639.639h-2.62l-.638-.639-1.227 1.226v11.64z" style="font-variation-settings:normal;fill:#fff;fill-opacity:1;stroke:#000;stroke-width:.352778;stroke-linecap:butt;stroke-linejoin:miter;stroke-miterlimit:4;stroke-dasharray:none;stroke-dashoffset:0;stroke-opacity:1;stop-color:#000" transform="rotate(90 346.93 -24.476)"/><path d="M-246.255 573.015h57.15v7.945h-57.15z" style="font-variation-settings:normal;vector-effect:none;fill:#000;fill-opacity:1;fill-rule:evenodd;stroke:#000;stroke-width:.352777;stroke-linecap:butt;stroke-linejoin:miter;stroke-miterlimit:4;stroke-dasharray:none;stroke-dashoffset:0;stroke-opacity:1;-inkscape-stroke:none;stop-color:#000" transform="translate(322.455 -371.406)"/><path d="m580.163 228.113-1.86 1.86h-2.63l-1.86-1.86v-20.867l1.86-1.86h2.63l1.86 1.86z" style="font-variation-settings:normal;fill:#fff;fill-opacity:1;stroke:#000;stroke-width:.352778;stroke-linecap:butt;stroke-linejoin:miter;stroke-miterlimit:4;stroke-dasharray:none;stroke-dashoffset:0;stroke-opacity:1;stop-color:#000" transform="rotate(90 346.93 -24.476)"/><path d="M-316.106 384.11h57.15v80.955h-57.15z" style="font-variation-settings:normal;vector-effect:none;fill:none;fill-opacity:1;fill-rule:evenodd;stroke:#000;stroke-width:.352777;stroke-linecap:butt;stroke-linejoin:miter;stroke-miterlimit:4;stroke-dasharray:none;stroke-dashoffset:0;stroke-opacity:1;-inkscape-stroke:none;stop-color:#000" transform="translate(322.455 -371.406)"/><path d="M-316.106 377.76h57.15v15.89h-57.15z" style="font-variation-settings:normal;vector-effect:none;fill:#000;fill-opacity:1;fill-rule:evenodd;stroke:#000;stroke-width:.352777;stroke-linecap:butt;stroke-linejoin:miter;stroke-miterlimit:4;stroke-dasharray:none;stroke-dashoffset:0;stroke-opacity:1;-inkscape-stroke:none;stop-color:#000" transform="translate(322.455 -371.406)"/><path d="M-275.72 119.888v-2.63l1.86-1.86h32.78l1.86 1.86v2.63l-1.86 1.86h-32.78z" style="font-variation-settings:normal;vector-effect:none;fill:#fff;fill-opacity:1;stroke:#000;stroke-width:.352777;stroke-linecap:butt;stroke-linejoin:miter;stroke-miterlimit:4;stroke-dasharray:none;stroke-dashoffset:0;stroke-opacity:1;-inkscape-stroke:none;stop-color:#000" transform="translate(292.395 -108.244)"/><path d="M-270.337 127.828v-2.63l1.86-1.86h2.63l1.86 1.86v2.63l-1.86 1.86h-2.63z" style="font-variation-settings:normal;fill:#fff;fill-opacity:1;stroke:#000;stroke-width:.352778;stroke-linecap:butt;stroke-linejoin:miter;stroke-miterlimit:4;stroke-dasharray:none;stroke-dashoffset:0;stroke-opacity:1;stop-color:#000" transform="translate(292.395 -108.244)"/><path d="M-275.617 129.688h1.03l.96-.245.728-.727.727-.728.245-.96v-1.03l-.245-.96-.728-.727-.727-.728-.96-.245h-1.03l-.96.245-.727.728-.728.727-.245.96v1.03l.245.96.727.728.728.727z" style="font-variation-settings:normal;vector-effect:none;fill:#fff;fill-opacity:1;stroke:#000;stroke-width:.352777;stroke-linecap:butt;stroke-linejoin:miter;stroke-miterlimit:4;stroke-dasharray:none;stroke-dashoffset:0;stroke-opacity:1;-inkscape-stroke:none;stop-color:#000" transform="translate(292.395 -108.244)"/><path d="m-261.17 123.338-1.226 1.226.638.64v2.62l-.639.638 1.226 1.226h23.28l1.227-1.226-.639-.639v-2.62l.639-.639-1.226-1.226h-11.64z" style="font-variation-settings:normal;fill:#fff;fill-opacity:1;stroke:#000;stroke-width:.352778;stroke-linecap:butt;stroke-linejoin:miter;stroke-miterlimit:4;stroke-dasharray:none;stroke-dashoffset:0;stroke-opacity:1;stop-color:#000" transform="translate(292.395 -108.244)"/><path d="M-316.106 465.065h57.15v7.945h-57.15z" style="font-variation-settings:normal;vector-effect:none;fill:#000;fill-opacity:1;fill-rule:evenodd;stroke:#000;stroke-width:.352777;stroke-linecap:butt;stroke-linejoin:miter;stroke-miterlimit:4;stroke-dasharray:none;stroke-dashoffset:0;stroke-opacity:1;-inkscape-stroke:none;stop-color:#000" transform="translate(322.455 -371.406)"/><path d="m472.213 297.964-1.86 1.86h-2.63l-1.86-1.86v-20.867l1.86-1.86h2.63l1.86 1.86z" style="font-variation-settings:normal;fill:#fff;fill-opacity:1;stroke:#000;stroke-width:.352778;stroke-linecap:butt;stroke-linejoin:miter;stroke-miterlimit:4;stroke-dasharray:none;stroke-dashoffset:0;stroke-opacity:1;stop-color:#000" transform="rotate(90 346.93 -24.476)"/><path d="M-246.255 384.11h57.15v80.955h-57.15z" style="font-variation-settings:normal;vector-effect:none;fill:none;fill-opacity:1;fill-rule:evenodd;stroke:#000;stroke-width:.352777;stroke-linecap:butt;stroke-linejoin:miter;stroke-miterlimit:4;stroke-dasharray:none;stroke-dashoffset:0;stroke-opacity:1;-inkscape-stroke:none;stop-color:#000" transform="translate(322.455 -371.406)"/><path d="M-246.255 377.76h57.15v15.89h-57.15z" style="font-variation-settings:normal;vector-effect:none;fill:#000;fill-opacity:1;fill-rule:evenodd;stroke:#000;stroke-width:.352777;stroke-linecap:butt;stroke-linejoin:miter;stroke-miterlimit:4;stroke-dasharray:none;stroke-dashoffset:0;stroke-opacity:1;-inkscape-stroke:none;stop-color:#000" transform="translate(322.455 -371.406)"/><path d="M-275.72 119.888v-2.63l1.86-1.86h32.78l1.86 1.86v2.63l-1.86 1.86h-32.78z" style="font-variation-settings:normal;vector-effect:none;fill:#fff;fill-opacity:1;stroke:#000;stroke-width:.352777;stroke-linecap:butt;stroke-linejoin:miter;stroke-miterlimit:4;stroke-dasharray:none;stroke-dashoffset:0;stroke-opacity:1;-inkscape-stroke:none;stop-color:#000" transform="translate(362.246 -108.244)"/><path d="M-270.337 127.828v-2.63l1.86-1.86h2.63l1.86 1.86v2.63l-1.86 1.86h-2.63z" style="font-variation-settings:normal;fill:#fff;fill-opacity:1;stroke:#000;stroke-width:.352778;stroke-linecap:butt;stroke-linejoin:miter;stroke-miterlimit:4;stroke-dasharray:none;stroke-dashoffset:0;stroke-opacity:1;stop-color:#000" transform="translate(362.246 -108.244)"/><path d="M-275.617 129.688h1.03l.96-.245.728-.727.727-.728.245-.96v-1.03l-.245-.96-.728-.727-.727-.728-.96-.245h-1.03l-.96.245-.727.728-.728.727-.245.96v1.03l.245.96.727.728.728.727z" style="font-variation-settings:normal;vector-effect:none;fill:#fff;fill-opacity:1;stroke:#000;stroke-width:.352777;stroke-linecap:butt;stroke-linejoin:miter;stroke-miterlimit:4;stroke-dasharray:none;stroke-dashoffset:0;stroke-opacity:1;-inkscape-stroke:none;stop-color:#000" transform="translate(362.246 -108.244)"/><path d="m-261.17 123.338-1.226 1.226.638.64v2.62l-.639.638 1.226 1.226h23.28l1.227-1.226-.639-.639v-2.62l.639-.639-1.226-1.226h-11.64z" style="font-variation-settings:normal;fill:#fff;fill-opacity:1;stroke:#000;stroke-width:.352778;stroke-linecap:butt;stroke-linejoin:miter;stroke-miterlimit:4;stroke-dasharray:none;stroke-dashoffset:0;stroke-opacity:1;stop-color:#000" transform="translate(362.246 -108.244)"/><path d="M-246.255 465.065h57.15v7.945h-57.15z" style="font-variation-settings:normal;vector-effect:none;fill:#000;fill-opacity:1;fill-rule:evenodd;stroke:#000;stroke-width:.352777;stroke-linecap:butt;stroke-linejoin:miter;stroke-miterlimit:4;stroke-dasharray:none;stroke-dashoffset:0;stroke-opacity:1;-inkscape-stroke:none;stop-color:#000" transform="translate(322.455 -371.406)"/><path d="m472.213 228.114-1.86 1.86h-2.63l-1.86-1.86v-20.868l1.86-1.86h2.63l1.86 1.86z" style="font-variation-settings:normal;fill:#fff;fill-opacity:1;stroke:#000;stroke-width:.352778;stroke-linecap:butt;stroke-linejoin:miter;stroke-miterlimit:4;stroke-dasharray:none;stroke-dashoffset:0;stroke-opacity:1;stop-color:#000" transform="rotate(90 346.93 -24.476)"/><path d="M371.406 43.055h215.9v139.7h-215.9z" style="font-variation-settings:normal;display:inline;fill:#fff;fill-opacity:1;fill-rule:evenodd;stroke:none;stroke-width:.352778;stroke-linecap:butt;stroke-linejoin:miter;stroke-miterlimit:4;stroke-dasharray:none;stroke-dashoffset:0;stroke-opacity:1;stop-color:#000" transform="rotate(90 346.93 -24.476)"/><path d="M371.406 112.905h215.9M479.356 182.755v-139.7" style="font-variation-settings:normal;vector-effect:none;fill:none;fill-opacity:1;stroke:#000;stroke-width:.352777;stroke-linecap:butt;stroke-linejoin:miter;stroke-miterlimit:4;stroke-dasharray:1.41111,.352777;stroke-dashoffset:0;stroke-opacity:1;-inkscape-stroke:none;stop-color:#000" transform="rotate(90 346.93 -24.476)"/><path d="M-176.405 492.06h57.15v80.955h-57.15z" style="font-variation-settings:normal;vector-effect:none;fill:none;fill-opacity:1;fill-rule:evenodd;stroke:#000;stroke-width:.352777;stroke-linecap:butt;stroke-linejoin:miter;stroke-miterlimit:4;stroke-dasharray:none;stroke-dashoffset:0;stroke-opacity:1;-inkscape-stroke:none;stop-color:#000" transform="translate(322.455 -371.406)"/><path d="M-176.405 485.71h57.15v15.89h-57.15z" style="font-variation-settings:normal;vector-effect:none;fill:#000;fill-opacity:1;fill-rule:evenodd;stroke:#000;stroke-width:.352777;stroke-linecap:butt;stroke-linejoin:miter;stroke-miterlimit:4;stroke-dasharray:none;stroke-dashoffset:0;stroke-opacity:1;-inkscape-stroke:none;stop-color:#000" transform="translate(322.455 -371.406)"/><path d="M-275.72 119.888v-2.63l1.86-1.86h32.78l1.86 1.86v2.63l-1.86 1.86h-32.78z" style="font-variation-settings:normal;vector-effect:none;fill:#fff;fill-opacity:1;stroke:#000;stroke-width:.352777;stroke-linecap:butt;stroke-linejoin:miter;stroke-miterlimit:4;stroke-dasharray:none;stroke-dashoffset:0;stroke-opacity:1;-inkscape-stroke:none;stop-color:#000" transform="translate(432.096 -.294)"/><path d="M-270.337 127.828v-2.63l1.86-1.86h2.63l1.86 1.86v2.63l-1.86 1.86h-2.63z" style="font-variation-settings:normal;fill:#fff;fill-opacity:1;stroke:#000;stroke-width:.352778;stroke-linecap:butt;stroke-linejoin:miter;stroke-miterlimit:4;stroke-dasharray:none;stroke-dashoffset:0;stroke-opacity:1;stop-color:#000" transform="translate(432.096 -.294)"/><path d="M-275.617 129.688h1.03l.96-.245.728-.727.727-.728.245-.96v-1.03l-.245-.96-.728-.727-.727-.728-.96-.245h-1.03l-.96.245-.727.728-.728.727-.245.96v1.03l.245.96.727.728.728.727z" style="font-variation-settings:normal;vector-effect:none;fill:#fff;fill-opacity:1;stroke:#000;stroke-width:.352777;stroke-linecap:butt;stroke-linejoin:miter;stroke-miterlimit:4;stroke-dasharray:none;stroke-dashoffset:0;stroke-opacity:1;-inkscape-stroke:none;stop-color:#000" transform="translate(432.096 -.294)"/><path d="m-261.17 123.338-1.226 1.226.638.64v2.62l-.639.638 1.226 1.226h23.28l1.227-1.226-.639-.639v-2.62l.639-.639-1.226-1.226h-11.64z" style="font-variation-settings:normal;fill:#fff;fill-opacity:1;stroke:#000;stroke-width:.352778;stroke-linecap:butt;stroke-linejoin:miter;stroke-miterlimit:4;stroke-dasharray:none;stroke-dashoffset:0;stroke-opacity:1;stop-color:#000" transform="translate(432.096 -.294)"/><path d="M-176.405 573.015h57.15v7.945h-57.15z" style="font-variation-settings:normal;vector-effect:none;fill:#000;fill-opacity:1;fill-rule:evenodd;stroke:#000;stroke-width:.352777;stroke-linecap:butt;stroke-linejoin:miter;stroke-miterlimit:4;stroke-dasharray:none;stroke-dashoffset:0;stroke-opacity:1;-inkscape-stroke:none;stop-color:#000" transform="translate(322.455 -371.406)"/><path d="m580.163 158.264-1.86 1.86h-2.63l-1.86-1.86v-20.867l1.86-1.86h2.63l1.86 1.86z" style="font-variation-settings:normal;fill:#fff;fill-opacity:1;stroke:#000;stroke-width:.352778;stroke-linecap:butt;stroke-linejoin:miter;stroke-miterlimit:4;stroke-dasharray:none;stroke-dashoffset:0;stroke-opacity:1;stop-color:#000" transform="rotate(90 346.93 -24.476)"/><path d="M-106.555 492.06h57.15v80.955h-57.15z" style="font-variation-settings:normal;vector-effect:none;fill:none;fill-opacity:1;fill-rule:evenodd;stroke:#000;stroke-width:.352777;stroke-linecap:butt;stroke-linejoin:miter;stroke-miterlimit:4;stroke-dasharray:none;stroke-dashoffset:0;stroke-opacity:1;-inkscape-stroke:none;stop-color:#000" transform="translate(322.455 -371.406)"/><path d="M-106.555 485.71h57.15v15.89h-57.15z" style="font-variation-settings:normal;vector-effect:none;fill:#000;fill-opacity:1;fill-rule:evenodd;stroke:#000;stroke-width:.352777;stroke-linecap:butt;stroke-linejoin:miter;stroke-miterlimit:4;stroke-dasharray:none;stroke-dashoffset:0;stroke-opacity:1;-inkscape-stroke:none;stop-color:#000" transform="translate(322.455 -371.406)"/><path d="M491 96.23h-2.63l-1.86-1.86V61.59l1.86-1.86H491l1.86 1.86v32.78z" style="font-variation-settings:normal;vector-effect:none;fill:#fff;fill-opacity:1;stroke:#000;stroke-width:.352777;stroke-linecap:butt;stroke-linejoin:miter;stroke-miterlimit:4;stroke-dasharray:none;stroke-dashoffset:0;stroke-opacity:1;-inkscape-stroke:none;stop-color:#000" transform="rotate(90 346.93 -24.476)"/><path d="M498.94 90.846h-2.63l-1.86-1.86v-2.63l1.86-1.86h2.63l1.86 1.86v2.63z" style="font-variation-settings:normal;fill:#fff;fill-opacity:1;stroke:#000;stroke-width:.352778;stroke-linecap:butt;stroke-linejoin:miter;stroke-miterlimit:4;stroke-dasharray:none;stroke-dashoffset:0;stroke-opacity:1;stop-color:#000" transform="rotate(90 346.93 -24.476)"/><path d="M500.8 96.126v-1.03l-.244-.96-.728-.727-.728-.728-.96-.245h-1.03l-.96.245-.727.728-.728.727-.245.96v1.03l.245.96.728.728.728.727.96.245h1.029l.96-.245.728-.727.728-.728z" style="font-variation-settings:normal;vector-effect:none;fill:#fff;fill-opacity:1;stroke:#000;stroke-width:.352777;stroke-linecap:butt;stroke-linejoin:miter;stroke-miterlimit:4;stroke-dasharray:none;stroke-dashoffset:0;stroke-opacity:1;-inkscape-stroke:none;stop-color:#000" transform="rotate(90 346.93 -24.476)"/><path d="m494.45 81.68 1.227 1.225.638-.638h2.62l.64.639 1.225-1.226V58.4l-1.226-1.227-.639.639h-2.62l-.638-.639-1.227 1.226v11.64z" style="font-variation-settings:normal;fill:#fff;fill-opacity:1;stroke:#000;stroke-width:.352778;stroke-linecap:butt;stroke-linejoin:miter;stroke-miterlimit:4;stroke-dasharray:none;stroke-dashoffset:0;stroke-opacity:1;stop-color:#000" transform="rotate(90 346.93 -24.476)"/><path d="M-106.555 573.015h57.15v7.945h-57.15z" style="font-variation-settings:normal;vector-effect:none;fill:#000;fill-opacity:1;fill-rule:evenodd;stroke:#000;stroke-width:.352777;stroke-linecap:butt;stroke-linejoin:miter;stroke-miterlimit:4;stroke-dasharray:none;stroke-dashoffset:0;stroke-opacity:1;-inkscape-stroke:none;stop-color:#000" transform="translate(322.455 -371.406)"/><path d="m580.163 88.413-1.86 1.86h-2.63l-1.86-1.86V67.546l1.86-1.86h2.63l1.86 1.86z" style="font-variation-settings:normal;fill:#fff;fill-opacity:1;stroke:#000;stroke-width:.352778;stroke-linecap:butt;stroke-linejoin:miter;stroke-miterlimit:4;stroke-dasharray:none;stroke-dashoffset:0;stroke-opacity:1;stop-color:#000" transform="rotate(90 346.93 -24.476)"/><path d="M-176.406 384.11h57.15v80.955h-57.15z" style="font-variation-settings:normal;vector-effect:none;fill:none;fill-opacity:1;fill-rule:evenodd;stroke:#000;stroke-width:.352777;stroke-linecap:butt;stroke-linejoin:miter;stroke-miterlimit:4;stroke-dasharray:none;stroke-dashoffset:0;stroke-opacity:1;-inkscape-stroke:none;stop-color:#000" transform="translate(322.455 -371.406)"/><path d="M-176.406 377.76h57.15v15.89h-57.15z" style="font-variation-settings:normal;vector-effect:none;fill:#000;fill-opacity:1;fill-rule:evenodd;stroke:#000;stroke-width:.352777;stroke-linecap:butt;stroke-linejoin:miter;stroke-miterlimit:4;stroke-dasharray:none;stroke-dashoffset:0;stroke-opacity:1;-inkscape-stroke:none;stop-color:#000" transform="translate(322.455 -371.406)"/><path d="M-275.72 119.888v-2.63l1.86-1.86h32.78l1.86 1.86v2.63l-1.86 1.86h-32.78z" style="font-variation-settings:normal;vector-effect:none;fill:#fff;fill-opacity:1;stroke:#000;stroke-width:.352777;stroke-linecap:butt;stroke-linejoin:miter;stroke-miterlimit:4;stroke-dasharray:none;stroke-dashoffset:0;stroke-opacity:1;-inkscape-stroke:none;stop-color:#000" transform="translate(432.095 -108.244)"/><path d="M-270.337 127.828v-2.63l1.86-1.86h2.63l1.86 1.86v2.63l-1.86 1.86h-2.63z" style="font-variation-settings:normal;fill:#fff;fill-opacity:1;stroke:#000;stroke-width:.352778;stroke-linecap:butt;stroke-linejoin:miter;stroke-miterlimit:4;stroke-dasharray:none;stroke-dashoffset:0;stroke-opacity:1;stop-color:#000" transform="translate(432.095 -108.244)"/><path d="M-275.617 129.688h1.03l.96-.245.728-.727.727-.728.245-.96v-1.03l-.245-.96-.728-.727-.727-.728-.96-.245h-1.03l-.96.245-.727.728-.728.727-.245.96v1.03l.245.96.727.728.728.727z" style="font-variation-settings:normal;vector-effect:none;fill:#fff;fill-opacity:1;stroke:#000;stroke-width:.352777;stroke-linecap:butt;stroke-linejoin:miter;stroke-miterlimit:4;stroke-dasharray:none;stroke-dashoffset:0;stroke-opacity:1;-inkscape-stroke:none;stop-color:#000" transform="translate(432.095 -108.244)"/><path d="m-261.17 123.338-1.226 1.226.638.64v2.62l-.639.638 1.226 1.226h23.28l1.227-1.226-.639-.639v-2.62l.639-.639-1.226-1.226h-11.64z" style="font-variation-settings:normal;fill:#fff;fill-opacity:1;stroke:#000;stroke-width:.352778;stroke-linecap:butt;stroke-linejoin:miter;stroke-miterlimit:4;stroke-dasharray:none;stroke-dashoffset:0;stroke-opacity:1;stop-color:#000" transform="translate(432.095 -108.244)"/><path d="M-176.406 465.065h57.15v7.945h-57.15z" style="font-variation-settings:normal;vector-effect:none;fill:#000;fill-opacity:1;fill-rule:evenodd;stroke:#000;stroke-width:.352777;stroke-linecap:butt;stroke-linejoin:miter;stroke-miterlimit:4;stroke-dasharray:none;stroke-dashoffset:0;stroke-opacity:1;-inkscape-stroke:none;stop-color:#000" transform="translate(322.455 -371.406)"/><path d="m472.213 158.264-1.86 1.86h-2.63l-1.86-1.86v-20.867l1.86-1.86h2.63l1.86 1.86z" style="font-variation-settings:normal;fill:#fff;fill-opacity:1;stroke:#000;stroke-width:.352778;stroke-linecap:butt;stroke-linejoin:miter;stroke-miterlimit:4;stroke-dasharray:none;stroke-dashoffset:0;stroke-opacity:1;stop-color:#000" transform="rotate(90 346.93 -24.476)"/><path d="M-106.555 384.11h57.15v80.955h-57.15z" style="font-variation-settings:normal;vector-effect:none;fill:none;fill-opacity:1;fill-rule:evenodd;stroke:#000;stroke-width:.352777;stroke-linecap:butt;stroke-linejoin:miter;stroke-miterlimit:4;stroke-dasharray:none;stroke-dashoffset:0;stroke-opacity:1;-inkscape-stroke:none;stop-color:#000" transform="translate(322.455 -371.406)"/><path d="M-106.555 377.76h57.15v15.89h-57.15z" style="font-variation-settings:normal;vector-effect:none;fill:#000;fill-opacity:1;fill-rule:evenodd;stroke:#000;stroke-width:.352777;stroke-linecap:butt;stroke-linejoin:miter;stroke-miterlimit:4;stroke-dasharray:none;stroke-dashoffset:0;stroke-opacity:1;-inkscape-stroke:none;stop-color:#000" transform="translate(322.455 -371.406)"/><path d="M-275.72 119.888v-2.63l1.86-1.86h32.78l1.86 1.86v2.63l-1.86 1.86h-32.78z" style="font-variation-settings:normal;vector-effect:none;fill:#fff;fill-opacity:1;stroke:#000;stroke-width:.352777;stroke-linecap:butt;stroke-linejoin:miter;stroke-miterlimit:4;stroke-dasharray:none;stroke-dashoffset:0;stroke-opacity:1;-inkscape-stroke:none;stop-color:#000" transform="translate(501.946 -108.244)"/><path d="M-270.337 127.828v-2.63l1.86-1.86h2.63l1.86 1.86v2.63l-1.86 1.86h-2.63z" style="font-variation-settings:normal;fill:#fff;fill-opacity:1;stroke:#000;stroke-width:.352778;stroke-linecap:butt;stroke-linejoin:miter;stroke-miterlimit:4;stroke-dasharray:none;stroke-dashoffset:0;stroke-opacity:1;stop-color:#000" transform="translate(501.946 -108.244)"/><path d="M-275.617 129.688h1.03l.96-.245.728-.727.727-.728.245-.96v-1.03l-.245-.96-.728-.727-.727-.728-.96-.245h-1.03l-.96.245-.727.728-.728.727-.245.96v1.03l.245.96.727.728.728.727z" style="font-variation-settings:normal;vector-effect:none;fill:#fff;fill-opacity:1;stroke:#000;stroke-width:.352777;stroke-linecap:butt;stroke-linejoin:miter;stroke-miterlimit:4;stroke-dasharray:none;stroke-dashoffset:0;stroke-opacity:1;-inkscape-stroke:none;stop-color:#000" transform="translate(501.946 -108.244)"/><path d="m-261.17 123.338-1.226 1.226.638.64v2.62l-.639.638 1.226 1.226h23.28l1.227-1.226-.639-.639v-2.62l.639-.639-1.226-1.226h-11.64z" style="font-variation-settings:normal;fill:#fff;fill-opacity:1;stroke:#000;stroke-width:.352778;stroke-linecap:butt;stroke-linejoin:miter;stroke-miterlimit:4;stroke-dasharray:none;stroke-dashoffset:0;stroke-opacity:1;stop-color:#000" transform="translate(501.946 -108.244)"/><path d="M-106.555 465.065h57.15v7.945h-57.15z" style="font-variation-settings:normal;vector-effect:none;fill:#000;fill-opacity:1;fill-rule:evenodd;stroke:#000;stroke-width:.352777;stroke-linecap:butt;stroke-linejoin:miter;stroke-miterlimit:4;stroke-dasharray:none;stroke-dashoffset:0;stroke-opacity:1;-inkscape-stroke:none;stop-color:#000" transform="translate(322.455 -371.406)"/><path d="m472.213 88.414-1.86 1.86h-2.63l-1.86-1.86V67.546l1.86-1.86h2.63l1.86 1.86z" style="font-variation-settings:normal;fill:#fff;fill-opacity:1;stroke:#000;stroke-width:.352778;stroke-linecap:butt;stroke-linejoin:miter;stroke-miterlimit:4;stroke-dasharray:none;stroke-dashoffset:0;stroke-opacity:1;stop-color:#000" transform="rotate(90 346.93 -24.476)"/></svg>