<?xml version="1.0" encoding="UTF-8" standalone="no"?>
<svg
   xml:space="preserve"
   width="11.00001in"
   height="8.499999in"
   viewBox="0 0 279.40027 215.89998"
   version="1.1"
   id="svg261"
   sodipodi:docname="character-sheet-master.svg"
   inkscape:version="1.2.2 (732a01da63, 2022-12-09)"
   inkscape:export-filename="cheat-sheet-cards.svg"
   inkscape:export-xdpi="96"
   inkscape:export-ydpi="96"
   xmlns:inkscape="http://www.inkscape.org/namespaces/inkscape"
   xmlns:sodipodi="http://sodipodi.sourceforge.net/DTD/sodipodi-0.dtd"
   xmlns="http://www.w3.org/2000/svg"
   xmlns:svg="http://www.w3.org/2000/svg"><sodipodi:namedview
     id="namedview263"
     pagecolor="#505050"
     bordercolor="#eeeeee"
     borderopacity="1"
     inkscape:showpageshadow="0"
     inkscape:pageopacity="0"
     inkscape:pagecheckerboard="0"
     inkscape:deskcolor="#505050"
     inkscape:document-units="in"
     showgrid="false"
     inkscape:zoom="0.50000001"
     inkscape:cx="5309.9999"
     inkscape:cy="255.99999"
     inkscape:window-width="1920"
     inkscape:window-height="1009"
     inkscape:window-x="1912"
     inkscape:window-y="-8"
     inkscape:window-maximized="1"
     inkscape:current-layer="svg261"
     showguides="true"
     inkscape:lockguides="true" /><defs
     id="defs3" /><g
     id="g4615"
     transform="translate(-1502.1899,60.055298)"><rect
       style="font-variation-settings:normal;vector-effect:none;fill:#ffffff;fill-opacity:1;fill-rule:evenodd;stroke:none;stroke-width:0.352777;stroke-linecap:butt;stroke-linejoin:miter;stroke-miterlimit:4;stroke-dasharray:none;stroke-dashoffset:0;stroke-opacity:1;-inkscape-stroke:none;stop-color:#000000"
       id="rect61103-4"
       width="279.4003"
       height="215.89999"
       x="1502.1899"
       y="-60.055298" /><g
       id="g4528"
       transform="translate(1.4094238e-4)"><rect
         style="font-variation-settings:normal;vector-effect:none;fill:#ffffff;fill-opacity:1;fill-rule:evenodd;stroke:none;stroke-width:0.352777;stroke-linecap:butt;stroke-linejoin:miter;stroke-miterlimit:4;stroke-dasharray:none;stroke-dashoffset:0;stroke-opacity:1;-inkscape-stroke:none;stop-color:#000000"
         id="rect95821-9-1"
         width="59.999958"
         height="84.999969"
         x="1517.3906"
         y="49.394894" /><path
         id="path95823-3-4"
         style="vector-effect:none;fill-rule:evenodd;stroke:none;stroke-width:0.352777;stop-color:#000000"
         d="m 1517.3905,124.86985 h 59.9999 v 9.525 h -59.9999 z m 0,-75.47498 v 9.525 9.525 h 59.9999 v -9.525 -9.525 z m -1.5002,-1.50017 v 87.9998 h 62.9998 V 47.8947 Z m 1.5002,1.50017 h 59.9999 v 84.99998 h -59.9999 z" /><path
         id="path95825-1-8"
         style="font-variation-settings:normal;vector-effect:none;fill:#ffffff;fill-opacity:1;stroke:none;stroke-width:0.352777;stroke-linecap:butt;stroke-linejoin:miter;stroke-miterlimit:4;stroke-dasharray:none;stroke-dashoffset:0;stroke-opacity:1;-inkscape-stroke:none;stop-color:#000000"
         d="m 1546.7148,60.47767 -1.5875,1.5875 1.3151,0.27233 -1.3151,1.31517 1.3151,1.31516 -1.3151,0.27234 1.5875,1.5875 h 22.4932 l 1.5875,-1.5875 -1.3152,-0.27234 1.3152,-1.31516 -1.3152,-1.31517 1.3152,-0.27233 -1.5875,-1.5875 z" /><path
         style="font-variation-settings:normal;vector-effect:none;fill:#ffffff;fill-opacity:1;stroke:none;stroke-width:0.352777;stroke-linecap:butt;stroke-linejoin:miter;stroke-miterlimit:4;stroke-dasharray:none;stroke-dashoffset:0;stroke-opacity:1;-inkscape-stroke:none;stop-color:#000000"
         d="m 1528.4329,57.33237 -1.8599,-1.85987 v -2.63025 l 1.8599,-1.85986 h 37.9152 l 1.8598,1.85986 v 2.63025 l -1.8598,1.85987 z"
         id="path95827-9-9" /><rect
         style="font-variation-settings:normal;vector-effect:none;fill:none;fill-opacity:1;fill-rule:evenodd;stroke:none;stroke-width:0.352777;stroke-linecap:butt;stroke-linejoin:miter;stroke-miterlimit:4;stroke-dasharray:none;stroke-dashoffset:0;stroke-opacity:1;-inkscape-stroke:none;stop-color:#000000"
         id="rect95829-3-6"
         width="59.999962"
         height="56.424984"
         x="1517.3906"
         y="68.444878" /><path
         id="path95831-5-1"
         style="font-variation-settings:normal;fill:#ffffff;fill-opacity:1;stroke:none;stroke-width:0.352778;stroke-linecap:butt;stroke-linejoin:miter;stroke-miterlimit:4;stroke-dasharray:none;stroke-dashoffset:0;stroke-opacity:1;stop-color:#000000"
         d="m 1527.1613,60.53664 c -2.1278,0.043 -3.2073,1.82858 -3.175,3.175 -0.027,1.9255 1.6453,3.2026 3.175,3.175 h 2.6299 c 1.5297,0.0276 3.2016,-1.2495 3.175,-3.175 0.032,-1.34642 -1.0472,-3.13196 -3.175,-3.175 z" /><path
         id="path95833-0-2"
         style="font-variation-settings:normal;fill:#ffffff;fill-opacity:1;stroke:none;stroke-width:0.352778;stroke-linecap:butt;stroke-linejoin:miter;stroke-miterlimit:4;stroke-dasharray:none;stroke-dashoffset:0;stroke-opacity:1;stop-color:#000000"
         d="m 1534.5569,60.47767 v 6.35 h 3.175 2.6303 3.175 v -6.35 h -3.175 -2.6303 z" /><path
         style="font-variation-settings:normal;vector-effect:none;fill:#ffffff;fill-opacity:1;stroke:none;stroke-width:0.352777;stroke-linecap:butt;stroke-linejoin:miter;stroke-miterlimit:4;stroke-dasharray:none;stroke-dashoffset:0;stroke-opacity:1;-inkscape-stroke:none;stop-color:#000000"
         d="m 1536.7155,132.80734 -1.8599,-1.85987 v -2.63025 l 1.8599,-1.85986 h 21.35 l 1.8598,1.85986 v 2.63025 l -1.8598,1.85987 z"
         id="path95835-9-4" /><rect
         style="font-variation-settings:normal;vector-effect:none;fill:#ffffff;fill-opacity:1;fill-rule:evenodd;stroke:none;stroke-width:0.352777;stroke-linecap:butt;stroke-linejoin:miter;stroke-miterlimit:4;stroke-dasharray:none;stroke-dashoffset:0;stroke-opacity:1;-inkscape-stroke:none;stop-color:#000000"
         id="rect95821-6-9-5"
         width="59.999958"
         height="84.999969"
         x="1580.3904"
         y="49.394894" /><path
         id="path95823-0-2-3"
         style="vector-effect:none;fill-rule:evenodd;stroke:none;stroke-width:0.352777;stop-color:#000000"
         d="m 1580.3902,124.86985 h 60 v 9.525 h -60 z m 0,-75.47498 v 9.525 9.525 h 60 v -9.525 -9.525 z m -1.5001,-1.50017 v 87.9998 h 62.9998 V 47.8947 Z m 1.5001,1.50017 h 60 v 84.99998 h -60 z" /><path
         id="path95825-3-4-3"
         style="font-variation-settings:normal;vector-effect:none;fill:#ffffff;fill-opacity:1;stroke:none;stroke-width:0.352777;stroke-linecap:butt;stroke-linejoin:miter;stroke-miterlimit:4;stroke-dasharray:none;stroke-dashoffset:0;stroke-opacity:1;-inkscape-stroke:none;stop-color:#000000"
         d="m 1609.7145,60.47767 -1.5875,1.5875 1.3152,0.27233 -1.3152,1.31517 1.3152,1.31516 -1.3152,0.27234 1.5875,1.5875 h 22.4933 l 1.5875,-1.5875 -1.3152,-0.27234 1.3152,-1.31516 -1.3152,-1.31517 1.3152,-0.27233 -1.5875,-1.5875 z" /><path
         style="font-variation-settings:normal;vector-effect:none;fill:#ffffff;fill-opacity:1;stroke:none;stroke-width:0.352777;stroke-linecap:butt;stroke-linejoin:miter;stroke-miterlimit:4;stroke-dasharray:none;stroke-dashoffset:0;stroke-opacity:1;-inkscape-stroke:none;stop-color:#000000"
         d="m 1591.4326,57.33237 -1.8599,-1.85987 v -2.63025 l 1.8599,-1.85986 h 37.9153 l 1.8598,1.85986 v 2.63025 l -1.8598,1.85987 z"
         id="path95827-2-3-6" /><rect
         style="font-variation-settings:normal;vector-effect:none;fill:none;fill-opacity:1;fill-rule:evenodd;stroke:none;stroke-width:0.352777;stroke-linecap:butt;stroke-linejoin:miter;stroke-miterlimit:4;stroke-dasharray:none;stroke-dashoffset:0;stroke-opacity:1;-inkscape-stroke:none;stop-color:#000000"
         id="rect95829-8-4-9"
         width="59.999962"
         height="56.424984"
         x="1580.3904"
         y="68.444878" /><path
         id="path95831-2-5-6"
         style="font-variation-settings:normal;fill:#ffffff;fill-opacity:1;stroke:none;stroke-width:0.352778;stroke-linecap:butt;stroke-linejoin:miter;stroke-miterlimit:4;stroke-dasharray:none;stroke-dashoffset:0;stroke-opacity:1;stop-color:#000000"
         d="m 1590.1611,60.53664 c -2.1279,0.043 -3.2073,1.82858 -3.175,3.175 -0.027,1.9255 1.6453,3.2026 3.175,3.175 h 2.6298 c 1.5297,0.0276 3.2016,-1.2495 3.175,-3.175 0.032,-1.34642 -1.0471,-3.13196 -3.175,-3.175 z" /><path
         id="path95833-7-9-2"
         style="font-variation-settings:normal;fill:#ffffff;fill-opacity:1;stroke:none;stroke-width:0.352778;stroke-linecap:butt;stroke-linejoin:miter;stroke-miterlimit:4;stroke-dasharray:none;stroke-dashoffset:0;stroke-opacity:1;stop-color:#000000"
         d="m 1597.5567,60.47767 v 6.35 h 3.175 2.6303 3.175 v -6.35 h -3.175 -2.6303 z" /><path
         style="font-variation-settings:normal;vector-effect:none;fill:#ffffff;fill-opacity:1;stroke:none;stroke-width:0.352777;stroke-linecap:butt;stroke-linejoin:miter;stroke-miterlimit:4;stroke-dasharray:none;stroke-dashoffset:0;stroke-opacity:1;-inkscape-stroke:none;stop-color:#000000"
         d="m 1599.7152,132.80734 -1.8598,-1.85987 v -2.63025 l 1.8598,-1.85986 h 21.3501 l 1.8598,1.85986 v 2.63025 l -1.8598,1.85987 z"
         id="path95835-8-9-8" /><rect
         style="font-variation-settings:normal;vector-effect:none;fill:#ffffff;fill-opacity:1;fill-rule:evenodd;stroke:none;stroke-width:0.352777;stroke-linecap:butt;stroke-linejoin:miter;stroke-miterlimit:4;stroke-dasharray:none;stroke-dashoffset:0;stroke-opacity:1;-inkscape-stroke:none;stop-color:#000000"
         id="rect95821-4-7-0"
         width="59.999958"
         height="84.999969"
         x="1643.3901"
         y="49.394894" /><path
         id="path95823-4-9-4"
         style="vector-effect:none;fill-rule:evenodd;stroke:none;stroke-width:0.352777;stop-color:#000000"
         d="m 1643.3901,124.86985 h 60 v 9.525 h -60 z m 0,-75.47498 v 9.525 9.525 h 60 v -9.525 -9.525 z m -1.5002,-1.50017 v 87.9998 h 62.9998 V 47.8947 Z m 1.5002,1.50017 h 60 v 84.99998 h -60 z" /><path
         id="path95825-2-2-4"
         style="font-variation-settings:normal;vector-effect:none;fill:#ffffff;fill-opacity:1;stroke:none;stroke-width:0.352777;stroke-linecap:butt;stroke-linejoin:miter;stroke-miterlimit:4;stroke-dasharray:none;stroke-dashoffset:0;stroke-opacity:1;-inkscape-stroke:none;stop-color:#000000"
         d="m 1672.7144,60.47767 -1.5875,1.5875 1.3152,0.27233 -1.3152,1.31517 1.3152,1.31516 -1.3152,0.27234 1.5875,1.5875 h 22.4931 l 1.5876,-1.5875 -1.3152,-0.27234 1.3152,-1.31516 -1.3152,-1.31517 1.3152,-0.27233 -1.5876,-1.5875 z" /><path
         style="font-variation-settings:normal;vector-effect:none;fill:#ffffff;fill-opacity:1;stroke:none;stroke-width:0.352777;stroke-linecap:butt;stroke-linejoin:miter;stroke-miterlimit:4;stroke-dasharray:none;stroke-dashoffset:0;stroke-opacity:1;-inkscape-stroke:none;stop-color:#000000"
         d="m 1654.4325,57.33237 -1.8599,-1.85987 v -2.63025 l 1.8599,-1.85986 h 37.9152 l 1.8598,1.85986 v 2.63025 l -1.8598,1.85987 z"
         id="path95827-7-5-5" /><rect
         style="font-variation-settings:normal;vector-effect:none;fill:none;fill-opacity:1;fill-rule:evenodd;stroke:none;stroke-width:0.352777;stroke-linecap:butt;stroke-linejoin:miter;stroke-miterlimit:4;stroke-dasharray:none;stroke-dashoffset:0;stroke-opacity:1;-inkscape-stroke:none;stop-color:#000000"
         id="rect95829-1-2-9"
         width="59.999962"
         height="56.424984"
         x="1643.3901"
         y="68.444878" /><path
         id="path95831-6-4-0"
         style="font-variation-settings:normal;fill:#ffffff;fill-opacity:1;stroke:none;stroke-width:0.352778;stroke-linecap:butt;stroke-linejoin:miter;stroke-miterlimit:4;stroke-dasharray:none;stroke-dashoffset:0;stroke-opacity:1;stop-color:#000000"
         d="m 1653.161,60.53664 c -2.1279,0.043 -3.2073,1.82858 -3.175,3.175 -0.027,1.9255 1.6453,3.2026 3.175,3.175 h 2.6298 c 1.5297,0.0276 3.2017,-1.2495 3.1751,-3.175 0.032,-1.34642 -1.0472,-3.13196 -3.1751,-3.175 z" /><path
         id="path95833-3-4-6"
         style="font-variation-settings:normal;fill:#ffffff;fill-opacity:1;stroke:none;stroke-width:0.352778;stroke-linecap:butt;stroke-linejoin:miter;stroke-miterlimit:4;stroke-dasharray:none;stroke-dashoffset:0;stroke-opacity:1;stop-color:#000000"
         d="m 1660.5565,60.47767 v 6.35 h 3.175 2.6303 3.1751 v -6.35 h -3.1751 -2.6303 z" /><path
         style="font-variation-settings:normal;vector-effect:none;fill:#ffffff;fill-opacity:1;stroke:none;stroke-width:0.352777;stroke-linecap:butt;stroke-linejoin:miter;stroke-miterlimit:4;stroke-dasharray:none;stroke-dashoffset:0;stroke-opacity:1;-inkscape-stroke:none;stop-color:#000000"
         d="m 1662.7151,132.80734 -1.86,-1.85987 v -2.63025 l 1.86,-1.85986 h 21.35 l 1.8598,1.85986 v 2.63025 l -1.8598,1.85987 z"
         id="path95835-3-7-0" /><rect
         style="font-variation-settings:normal;vector-effect:none;fill:#ffffff;fill-opacity:1;fill-rule:evenodd;stroke:none;stroke-width:0.352777;stroke-linecap:butt;stroke-linejoin:miter;stroke-miterlimit:4;stroke-dasharray:none;stroke-dashoffset:0;stroke-opacity:1;-inkscape-stroke:none;stop-color:#000000"
         id="rect95821-6-7-2-6"
         width="59.999958"
         height="84.999969"
         x="1706.39"
         y="49.394894" /><path
         id="path95823-0-5-2-9"
         style="vector-effect:none;fill-rule:evenodd;stroke:none;stroke-width:0.352777;stop-color:#000000"
         d="m 1706.3899,124.86985 h 60 v 9.525 h -60 z m 0,-75.47498 v 9.525 9.525 h 59.9999 v -9.525 -9.525 z m -1.5002,-1.50017 v 87.9998 h 62.9998 V 47.8947 Z m 1.5002,1.50017 h 59.9999 v 84.99998 h -59.9999 z" /><path
         id="path95825-3-8-2-0"
         style="font-variation-settings:normal;vector-effect:none;fill:#ffffff;fill-opacity:1;stroke:none;stroke-width:0.352777;stroke-linecap:butt;stroke-linejoin:miter;stroke-miterlimit:4;stroke-dasharray:none;stroke-dashoffset:0;stroke-opacity:1;-inkscape-stroke:none;stop-color:#000000"
         d="m 1735.7142,60.47767 -1.5875,1.5875 1.3152,0.27233 -1.3152,1.31517 1.3152,1.31516 -1.3152,0.27234 1.5875,1.5875 h 22.4932 l 1.5875,-1.5875 -1.3152,-0.27234 1.3152,-1.31516 -1.3152,-1.31517 1.3152,-0.27233 -1.5875,-1.5875 z" /><path
         style="font-variation-settings:normal;vector-effect:none;fill:#ffffff;fill-opacity:1;stroke:none;stroke-width:0.352777;stroke-linecap:butt;stroke-linejoin:miter;stroke-miterlimit:4;stroke-dasharray:none;stroke-dashoffset:0;stroke-opacity:1;-inkscape-stroke:none;stop-color:#000000"
         d="m 1717.4323,57.33237 -1.8599,-1.85987 v -2.63025 l 1.8599,-1.85986 h 37.9152 l 1.8598,1.85986 v 2.63025 l -1.8598,1.85987 z"
         id="path95827-2-7-7-6" /><rect
         style="font-variation-settings:normal;vector-effect:none;fill:none;fill-opacity:1;fill-rule:evenodd;stroke:none;stroke-width:0.352777;stroke-linecap:butt;stroke-linejoin:miter;stroke-miterlimit:4;stroke-dasharray:none;stroke-dashoffset:0;stroke-opacity:1;-inkscape-stroke:none;stop-color:#000000"
         id="rect95829-8-5-2-1"
         width="59.999962"
         height="56.424984"
         x="1706.3899"
         y="68.444878" /><path
         id="path95831-2-7-8-2"
         style="font-variation-settings:normal;fill:#ffffff;fill-opacity:1;stroke:none;stroke-width:0.352778;stroke-linecap:butt;stroke-linejoin:miter;stroke-miterlimit:4;stroke-dasharray:none;stroke-dashoffset:0;stroke-opacity:1;stop-color:#000000"
         d="m 1716.1608,60.53664 c -2.1279,0.043 -3.2073,1.82858 -3.175,3.175 -0.027,1.9255 1.6452,3.2026 3.175,3.175 h 2.6298 c 1.5297,0.0276 3.2016,-1.2495 3.1749,-3.175 0.032,-1.34642 -1.0471,-3.13196 -3.1749,-3.175 z" /><path
         id="path95833-7-8-7-8"
         style="font-variation-settings:normal;fill:#ffffff;fill-opacity:1;stroke:none;stroke-width:0.352778;stroke-linecap:butt;stroke-linejoin:miter;stroke-miterlimit:4;stroke-dasharray:none;stroke-dashoffset:0;stroke-opacity:1;stop-color:#000000"
         d="m 1723.5563,60.47767 v 6.35 h 3.175 2.6303 3.175 v -6.35 h -3.175 -2.6303 z" /><path
         style="font-variation-settings:normal;vector-effect:none;fill:#ffffff;fill-opacity:1;stroke:none;stroke-width:0.352777;stroke-linecap:butt;stroke-linejoin:miter;stroke-miterlimit:4;stroke-dasharray:none;stroke-dashoffset:0;stroke-opacity:1;-inkscape-stroke:none;stop-color:#000000"
         d="m 1725.7149,132.80734 -1.8599,-1.85987 v -2.63025 l 1.8599,-1.85986 h 21.35 l 1.8599,1.85986 v 2.63025 l -1.8599,1.85987 z"
         id="path95835-8-5-0-6" /><path
         style="font-variation-settings:normal;vector-effect:none;fill:none;fill-opacity:1;stroke:#ffffff;stroke-width:0.352777;stroke-linecap:butt;stroke-linejoin:miter;stroke-miterlimit:4;stroke-dasharray:0.705554, 0.352777;stroke-dashoffset:0;stroke-opacity:1;-inkscape-stroke:none;stop-color:#000000"
         d="M 1704.8896,135.8945 V 47.894698"
         id="path167810-1" /><path
         style="font-variation-settings:normal;vector-effect:none;fill:none;fill-opacity:1;stroke:#ffffff;stroke-width:0.352777;stroke-linecap:butt;stroke-linejoin:miter;stroke-miterlimit:4;stroke-dasharray:0.705554, 0.352777;stroke-dashoffset:0;stroke-opacity:1;-inkscape-stroke:none;stop-color:#000000"
         d="M 1641.8899,135.8945 V 47.894698"
         id="path167824-1" /><path
         style="font-variation-settings:normal;vector-effect:none;fill:none;fill-opacity:1;stroke:#ffffff;stroke-width:0.352777;stroke-linecap:butt;stroke-linejoin:miter;stroke-miterlimit:4;stroke-dasharray:0.705554, 0.352777;stroke-dashoffset:0;stroke-opacity:1;-inkscape-stroke:none;stop-color:#000000"
         d="M 1578.89,135.8945 V 47.894698"
         id="path167838-5" /><rect
         style="font-variation-settings:normal;vector-effect:none;fill:#ffffff;fill-opacity:1;fill-rule:evenodd;stroke:none;stroke-width:0.352777;stroke-linecap:butt;stroke-linejoin:miter;stroke-miterlimit:4;stroke-dasharray:none;stroke-dashoffset:0;stroke-opacity:1;-inkscape-stroke:none;stop-color:#000000"
         id="rect95821-9-1-0"
         width="59.999958"
         height="84.999969"
         x="1517.3906"
         y="-38.604908" /><path
         id="path95823-3-4-3"
         style="vector-effect:none;fill-rule:evenodd;stroke:none;stroke-width:0.352777;stop-color:#000000"
         d="m 1517.3906,36.87005 h 59.9999 v 9.525 h -59.9999 z m 0,-75.47498 v 9.525 9.525 h 59.9999 v -9.525 -9.525 z m -1.5002,-1.50017 v 87.9998 h 62.9998 v -87.9998 z m 1.5002,1.50017 h 59.9999 v 84.99998 h -59.9999 z" /><path
         id="path95825-1-8-9"
         style="font-variation-settings:normal;vector-effect:none;fill:#ffffff;fill-opacity:1;stroke:none;stroke-width:0.352777;stroke-linecap:butt;stroke-linejoin:miter;stroke-miterlimit:4;stroke-dasharray:none;stroke-dashoffset:0;stroke-opacity:1;-inkscape-stroke:none;stop-color:#000000"
         d="m 1546.7149,-27.52213 -1.5875,1.5875 1.3151,0.27233 -1.3151,1.31517 1.3151,1.31516 -1.3151,0.27234 1.5875,1.5875 h 22.4932 l 1.5875,-1.5875 -1.3152,-0.27234 1.3152,-1.31516 -1.3152,-1.31517 1.3152,-0.27233 -1.5875,-1.5875 z" /><path
         style="font-variation-settings:normal;vector-effect:none;fill:#ffffff;fill-opacity:1;stroke:none;stroke-width:0.352777;stroke-linecap:butt;stroke-linejoin:miter;stroke-miterlimit:4;stroke-dasharray:none;stroke-dashoffset:0;stroke-opacity:1;-inkscape-stroke:none;stop-color:#000000"
         d="m 1528.433,-30.66743 -1.8599,-1.85987 v -2.63025 l 1.8599,-1.85986 h 37.9152 l 1.8598,1.85986 v 2.63025 l -1.8598,1.85987 z"
         id="path95827-9-9-3" /><rect
         style="font-variation-settings:normal;vector-effect:none;fill:none;fill-opacity:1;fill-rule:evenodd;stroke:none;stroke-width:0.352777;stroke-linecap:butt;stroke-linejoin:miter;stroke-miterlimit:4;stroke-dasharray:none;stroke-dashoffset:0;stroke-opacity:1;-inkscape-stroke:none;stop-color:#000000"
         id="rect95829-3-6-7"
         width="59.999962"
         height="56.424984"
         x="1517.3906"
         y="-19.554924" /><path
         id="path95831-5-1-3"
         style="font-variation-settings:normal;fill:#ffffff;fill-opacity:1;stroke:none;stroke-width:0.352778;stroke-linecap:butt;stroke-linejoin:miter;stroke-miterlimit:4;stroke-dasharray:none;stroke-dashoffset:0;stroke-opacity:1;stop-color:#000000"
         d="m 1527.1614,-27.46316 c -2.1278,0.043 -3.2073,1.82858 -3.175,3.175 -0.027,1.9255 1.6453,3.2026 3.175,3.175 h 2.6299 c 1.5297,0.0276 3.2016,-1.2495 3.175,-3.175 0.032,-1.34642 -1.0472,-3.13196 -3.175,-3.175 z" /><path
         id="path95833-0-2-4"
         style="font-variation-settings:normal;fill:#ffffff;fill-opacity:1;stroke:none;stroke-width:0.352778;stroke-linecap:butt;stroke-linejoin:miter;stroke-miterlimit:4;stroke-dasharray:none;stroke-dashoffset:0;stroke-opacity:1;stop-color:#000000"
         d="m 1534.557,-27.52213 v 6.35 h 3.175 2.6303 3.175 v -6.35 h -3.175 -2.6303 z" /><path
         style="font-variation-settings:normal;vector-effect:none;fill:#ffffff;fill-opacity:1;stroke:none;stroke-width:0.352777;stroke-linecap:butt;stroke-linejoin:miter;stroke-miterlimit:4;stroke-dasharray:none;stroke-dashoffset:0;stroke-opacity:1;-inkscape-stroke:none;stop-color:#000000"
         d="m 1536.7156,44.80754 -1.8599,-1.85987 v -2.63025 l 1.8599,-1.85986 h 21.35 l 1.8598,1.85986 v 2.63025 l -1.8598,1.85987 z"
         id="path95835-9-4-2" /><rect
         style="font-variation-settings:normal;vector-effect:none;fill:#ffffff;fill-opacity:1;fill-rule:evenodd;stroke:none;stroke-width:0.352777;stroke-linecap:butt;stroke-linejoin:miter;stroke-miterlimit:4;stroke-dasharray:none;stroke-dashoffset:0;stroke-opacity:1;-inkscape-stroke:none;stop-color:#000000"
         id="rect95821-6-9-5-2"
         width="59.999958"
         height="84.999969"
         x="1580.3904"
         y="-38.604908" /><path
         id="path95823-0-2-3-8"
         style="vector-effect:none;fill-rule:evenodd;stroke:none;stroke-width:0.352777;stop-color:#000000"
         d="m 1580.3903,36.87005 h 60 v 9.525 h -60 z m 0,-75.47498 v 9.525 9.525 h 60 v -9.525 -9.525 z m -1.5001,-1.50017 v 87.9998 h 62.9998 v -87.9998 z m 1.5001,1.50017 h 60 v 84.99998 h -60 z" /><path
         id="path95825-3-4-3-2"
         style="font-variation-settings:normal;vector-effect:none;fill:#ffffff;fill-opacity:1;stroke:none;stroke-width:0.352777;stroke-linecap:butt;stroke-linejoin:miter;stroke-miterlimit:4;stroke-dasharray:none;stroke-dashoffset:0;stroke-opacity:1;-inkscape-stroke:none;stop-color:#000000"
         d="m 1609.7146,-27.52213 -1.5875,1.5875 1.3152,0.27233 -1.3152,1.31517 1.3152,1.31516 -1.3152,0.27234 1.5875,1.5875 h 22.4933 l 1.5875,-1.5875 -1.3152,-0.27234 1.3152,-1.31516 -1.3152,-1.31517 1.3152,-0.27233 -1.5875,-1.5875 z" /><path
         style="font-variation-settings:normal;vector-effect:none;fill:#ffffff;fill-opacity:1;stroke:none;stroke-width:0.352777;stroke-linecap:butt;stroke-linejoin:miter;stroke-miterlimit:4;stroke-dasharray:none;stroke-dashoffset:0;stroke-opacity:1;-inkscape-stroke:none;stop-color:#000000"
         d="m 1591.4327,-30.66743 -1.8599,-1.85987 v -2.63025 l 1.8599,-1.85986 h 37.9153 l 1.8598,1.85986 v 2.63025 l -1.8598,1.85987 z"
         id="path95827-2-3-6-9" /><rect
         style="font-variation-settings:normal;vector-effect:none;fill:none;fill-opacity:1;fill-rule:evenodd;stroke:none;stroke-width:0.352777;stroke-linecap:butt;stroke-linejoin:miter;stroke-miterlimit:4;stroke-dasharray:none;stroke-dashoffset:0;stroke-opacity:1;-inkscape-stroke:none;stop-color:#000000"
         id="rect95829-8-4-9-3"
         width="59.999962"
         height="56.424984"
         x="1580.3904"
         y="-19.554924" /><path
         id="path95831-2-5-6-2"
         style="font-variation-settings:normal;fill:#ffffff;fill-opacity:1;stroke:none;stroke-width:0.352778;stroke-linecap:butt;stroke-linejoin:miter;stroke-miterlimit:4;stroke-dasharray:none;stroke-dashoffset:0;stroke-opacity:1;stop-color:#000000"
         d="m 1590.1612,-27.46316 c -2.1279,0.043 -3.2073,1.82858 -3.175,3.175 -0.027,1.9255 1.6453,3.2026 3.175,3.175 h 2.6298 c 1.5297,0.0276 3.2016,-1.2495 3.175,-3.175 0.032,-1.34642 -1.0471,-3.13196 -3.175,-3.175 z" /><path
         id="path95833-7-9-2-4"
         style="font-variation-settings:normal;fill:#ffffff;fill-opacity:1;stroke:none;stroke-width:0.352778;stroke-linecap:butt;stroke-linejoin:miter;stroke-miterlimit:4;stroke-dasharray:none;stroke-dashoffset:0;stroke-opacity:1;stop-color:#000000"
         d="m 1597.5568,-27.52213 v 6.35 h 3.175 2.6303 3.175 v -6.35 h -3.175 -2.6303 z" /><path
         style="font-variation-settings:normal;vector-effect:none;fill:#ffffff;fill-opacity:1;stroke:none;stroke-width:0.352777;stroke-linecap:butt;stroke-linejoin:miter;stroke-miterlimit:4;stroke-dasharray:none;stroke-dashoffset:0;stroke-opacity:1;-inkscape-stroke:none;stop-color:#000000"
         d="m 1599.7153,44.80754 -1.8598,-1.85987 v -2.63025 l 1.8598,-1.85986 h 21.3501 l 1.8598,1.85986 v 2.63025 l -1.8598,1.85987 z"
         id="path95835-8-9-8-7" /><rect
         style="font-variation-settings:normal;vector-effect:none;fill:#ffffff;fill-opacity:1;fill-rule:evenodd;stroke:none;stroke-width:0.352777;stroke-linecap:butt;stroke-linejoin:miter;stroke-miterlimit:4;stroke-dasharray:none;stroke-dashoffset:0;stroke-opacity:1;-inkscape-stroke:none;stop-color:#000000"
         id="rect95821-4-7-0-6"
         width="59.999958"
         height="84.999969"
         x="1643.3901"
         y="-38.604908" /><path
         id="path95823-4-9-4-4"
         style="vector-effect:none;fill-rule:evenodd;stroke:none;stroke-width:0.352777;stop-color:#000000"
         d="m 1643.3902,36.87005 h 60 v 9.525 h -60 z m 0,-75.47498 v 9.525 9.525 h 60 v -9.525 -9.525 z m -1.5002,-1.50017 v 87.9998 h 62.9998 v -87.9998 z m 1.5002,1.50017 h 60 v 84.99998 h -60 z" /><path
         id="path95825-2-2-4-0"
         style="font-variation-settings:normal;vector-effect:none;fill:#ffffff;fill-opacity:1;stroke:none;stroke-width:0.352777;stroke-linecap:butt;stroke-linejoin:miter;stroke-miterlimit:4;stroke-dasharray:none;stroke-dashoffset:0;stroke-opacity:1;-inkscape-stroke:none;stop-color:#000000"
         d="m 1672.7145,-27.52213 -1.5875,1.5875 1.3152,0.27233 -1.3152,1.31517 1.3152,1.31516 -1.3152,0.27234 1.5875,1.5875 h 22.4931 l 1.5876,-1.5875 -1.3152,-0.27234 1.3152,-1.31516 -1.3152,-1.31517 1.3152,-0.27233 -1.5876,-1.5875 z" /><path
         style="font-variation-settings:normal;vector-effect:none;fill:#ffffff;fill-opacity:1;stroke:none;stroke-width:0.352777;stroke-linecap:butt;stroke-linejoin:miter;stroke-miterlimit:4;stroke-dasharray:none;stroke-dashoffset:0;stroke-opacity:1;-inkscape-stroke:none;stop-color:#000000"
         d="m 1654.4326,-30.66743 -1.8599,-1.85987 v -2.63025 l 1.8599,-1.85986 h 37.9152 l 1.8598,1.85986 v 2.63025 l -1.8598,1.85987 z"
         id="path95827-7-5-5-2" /><rect
         style="font-variation-settings:normal;vector-effect:none;fill:none;fill-opacity:1;fill-rule:evenodd;stroke:none;stroke-width:0.352777;stroke-linecap:butt;stroke-linejoin:miter;stroke-miterlimit:4;stroke-dasharray:none;stroke-dashoffset:0;stroke-opacity:1;-inkscape-stroke:none;stop-color:#000000"
         id="rect95829-1-2-9-8"
         width="59.999962"
         height="56.424984"
         x="1643.3901"
         y="-19.554924" /><path
         id="path95831-6-4-0-8"
         style="font-variation-settings:normal;fill:#ffffff;fill-opacity:1;stroke:none;stroke-width:0.352778;stroke-linecap:butt;stroke-linejoin:miter;stroke-miterlimit:4;stroke-dasharray:none;stroke-dashoffset:0;stroke-opacity:1;stop-color:#000000"
         d="m 1653.1611,-27.46316 c -2.1279,0.043 -3.2073,1.82858 -3.175,3.175 -0.027,1.9255 1.6453,3.2026 3.175,3.175 h 2.6298 c 1.5297,0.0276 3.2017,-1.2495 3.1751,-3.175 0.032,-1.34642 -1.0472,-3.13196 -3.1751,-3.175 z" /><path
         id="path95833-3-4-6-8"
         style="font-variation-settings:normal;fill:#ffffff;fill-opacity:1;stroke:none;stroke-width:0.352778;stroke-linecap:butt;stroke-linejoin:miter;stroke-miterlimit:4;stroke-dasharray:none;stroke-dashoffset:0;stroke-opacity:1;stop-color:#000000"
         d="m 1660.5566,-27.52213 v 6.35 h 3.175 2.6303 3.1751 v -6.35 h -3.1751 -2.6303 z" /><path
         style="font-variation-settings:normal;vector-effect:none;fill:#ffffff;fill-opacity:1;stroke:none;stroke-width:0.352777;stroke-linecap:butt;stroke-linejoin:miter;stroke-miterlimit:4;stroke-dasharray:none;stroke-dashoffset:0;stroke-opacity:1;-inkscape-stroke:none;stop-color:#000000"
         d="m 1662.7152,44.80754 -1.86,-1.85987 v -2.63025 l 1.86,-1.85986 h 21.35 l 1.8598,1.85986 v 2.63025 l -1.8598,1.85987 z"
         id="path95835-3-7-0-9" /><rect
         style="font-variation-settings:normal;vector-effect:none;fill:#ffffff;fill-opacity:1;fill-rule:evenodd;stroke:none;stroke-width:0.352777;stroke-linecap:butt;stroke-linejoin:miter;stroke-miterlimit:4;stroke-dasharray:none;stroke-dashoffset:0;stroke-opacity:1;-inkscape-stroke:none;stop-color:#000000"
         id="rect95821-6-7-2-6-3"
         width="59.999958"
         height="84.999969"
         x="1706.39"
         y="-38.604908" /><path
         id="path95823-0-5-2-9-3"
         style="vector-effect:none;fill-rule:evenodd;stroke:none;stroke-width:0.352777;stop-color:#000000"
         d="m 1706.39,36.87005 h 60 v 9.525 h -60 z m 0,-75.47498 v 9.525 9.525 h 59.9999 v -9.525 -9.525 z m -1.5002,-1.50017 v 87.9998 h 62.9998 v -87.9998 z m 1.5002,1.50017 h 59.9999 V 46.39505 H 1706.39 Z" /><path
         id="path95825-3-8-2-0-6"
         style="font-variation-settings:normal;vector-effect:none;fill:#ffffff;fill-opacity:1;stroke:none;stroke-width:0.352777;stroke-linecap:butt;stroke-linejoin:miter;stroke-miterlimit:4;stroke-dasharray:none;stroke-dashoffset:0;stroke-opacity:1;-inkscape-stroke:none;stop-color:#000000"
         d="m 1735.7143,-27.52213 -1.5875,1.5875 1.3152,0.27233 -1.3152,1.31517 1.3152,1.31516 -1.3152,0.27234 1.5875,1.5875 h 22.4932 l 1.5875,-1.5875 -1.3152,-0.27234 1.3152,-1.31516 -1.3152,-1.31517 1.3152,-0.27233 -1.5875,-1.5875 z" /><path
         style="font-variation-settings:normal;vector-effect:none;fill:#ffffff;fill-opacity:1;stroke:none;stroke-width:0.352777;stroke-linecap:butt;stroke-linejoin:miter;stroke-miterlimit:4;stroke-dasharray:none;stroke-dashoffset:0;stroke-opacity:1;-inkscape-stroke:none;stop-color:#000000"
         d="m 1717.4324,-30.66743 -1.8599,-1.85987 v -2.63025 l 1.8599,-1.85986 h 37.9152 l 1.8598,1.85986 v 2.63025 l -1.8598,1.85987 z"
         id="path95827-2-7-7-6-7" /><rect
         style="font-variation-settings:normal;vector-effect:none;fill:none;fill-opacity:1;fill-rule:evenodd;stroke:none;stroke-width:0.352777;stroke-linecap:butt;stroke-linejoin:miter;stroke-miterlimit:4;stroke-dasharray:none;stroke-dashoffset:0;stroke-opacity:1;-inkscape-stroke:none;stop-color:#000000"
         id="rect95829-8-5-2-1-7"
         width="59.999962"
         height="56.424984"
         x="1706.3899"
         y="-19.554924" /><path
         id="path95831-2-7-8-2-4"
         style="font-variation-settings:normal;fill:#ffffff;fill-opacity:1;stroke:none;stroke-width:0.352778;stroke-linecap:butt;stroke-linejoin:miter;stroke-miterlimit:4;stroke-dasharray:none;stroke-dashoffset:0;stroke-opacity:1;stop-color:#000000"
         d="m 1716.1609,-27.46316 c -2.1279,0.043 -3.2073,1.82858 -3.175,3.175 -0.027,1.9255 1.6452,3.2026 3.175,3.175 h 2.6298 c 1.5297,0.0276 3.2016,-1.2495 3.1749,-3.175 0.032,-1.34642 -1.0471,-3.13196 -3.1749,-3.175 z" /><path
         id="path95833-7-8-7-8-5"
         style="font-variation-settings:normal;fill:#ffffff;fill-opacity:1;stroke:none;stroke-width:0.352778;stroke-linecap:butt;stroke-linejoin:miter;stroke-miterlimit:4;stroke-dasharray:none;stroke-dashoffset:0;stroke-opacity:1;stop-color:#000000"
         d="m 1723.5564,-27.52213 v 6.35 h 3.175 2.6303 3.175 v -6.35 h -3.175 -2.6303 z" /><path
         style="font-variation-settings:normal;vector-effect:none;fill:#ffffff;fill-opacity:1;stroke:none;stroke-width:0.352777;stroke-linecap:butt;stroke-linejoin:miter;stroke-miterlimit:4;stroke-dasharray:none;stroke-dashoffset:0;stroke-opacity:1;-inkscape-stroke:none;stop-color:#000000"
         d="m 1725.715,44.80754 -1.8599,-1.85987 v -2.63025 l 1.8599,-1.85986 h 21.35 l 1.8599,1.85986 v 2.63025 l -1.8599,1.85987 z"
         id="path95835-8-5-0-6-3" /><path
         style="font-variation-settings:normal;vector-effect:none;fill:none;fill-opacity:1;stroke:#ffffff;stroke-width:0.352777;stroke-linecap:butt;stroke-linejoin:miter;stroke-miterlimit:4;stroke-dasharray:0.705554, 0.352777;stroke-dashoffset:0;stroke-opacity:1;-inkscape-stroke:none;stop-color:#000000"
         d="M 1704.8897,47.8947 V -40.105102"
         id="path167810-1-1" /><path
         style="font-variation-settings:normal;vector-effect:none;fill:none;fill-opacity:1;stroke:#ffffff;stroke-width:0.352777;stroke-linecap:butt;stroke-linejoin:miter;stroke-miterlimit:4;stroke-dasharray:0.705554, 0.352777;stroke-dashoffset:0;stroke-opacity:1;-inkscape-stroke:none;stop-color:#000000"
         d="M 1641.89,47.8947 V -40.105102"
         id="path167824-1-8" /><path
         style="font-variation-settings:normal;vector-effect:none;fill:none;fill-opacity:1;stroke:#ffffff;stroke-width:0.352777;stroke-linecap:butt;stroke-linejoin:miter;stroke-miterlimit:4;stroke-dasharray:0.705554, 0.352777;stroke-dashoffset:0;stroke-opacity:1;-inkscape-stroke:none;stop-color:#000000"
         d="M 1578.8901,47.8947 V -40.105102"
         id="path167838-5-4" /><path
         style="font-variation-settings:normal;opacity:1;vector-effect:none;fill:none;fill-opacity:1;stroke:#ffffff;stroke-width:0.352777;stroke-linecap:butt;stroke-linejoin:miter;stroke-miterlimit:4;stroke-dasharray:0.705554, 0.352777;stroke-dashoffset:0;stroke-opacity:1;-inkscape-stroke:none;stop-color:#000000;stop-opacity:1"
         d="m 1515.8903,47.8947 h 251.9992"
         id="path3877" /></g></g></svg>
