<svg xmlns="http://www.w3.org/2000/svg" width="20in" height="12in" viewBox="0 0 508 304.8"><path d="M355.056 50.736v215.9h-139.7v-215.9Z" style="font-variation-settings:normal;display:inline;fill:#fff;fill-opacity:1;fill-rule:evenodd;stroke:none;stroke-width:.352778;stroke-linecap:butt;stroke-linejoin:miter;stroke-miterlimit:4;stroke-dasharray:none;stroke-dashoffset:0;stroke-opacity:1;stop-color:#000" transform="translate(0 -6.286)"/><path d="m-103.957 231.607-1.86-1.86v-2.63l1.86-1.86h41.847l1.86 1.86v2.63l-1.86 1.86z" style="font-variation-settings:normal;vector-effect:none;fill:#000;fill-opacity:1;stroke:#000;stroke-width:.352777;stroke-linecap:butt;stroke-linejoin:miter;stroke-miterlimit:4;stroke-dasharray:none;stroke-dashoffset:0;stroke-opacity:1;-inkscape-stroke:none;stop-color:#000" transform="translate(408.948 -44.51)"/><text xml:space="preserve" x="-97.607" y="233.093" style="font-style:normal;font-variant:normal;font-weight:700;font-stretch:normal;font-size:4.29903px;line-height:1.25;font-family:Arial;-inkscape-font-specification:&quot;Arial Bold&quot;;white-space:pre;display:inline;fill:#fff;stroke:none;stroke-width:.352778;stroke-dasharray:none" transform="matrix(1.01553 0 0 .9847 408.948 -44.51)"><tspan style="stroke-width:.352778;stroke-dasharray:none">Casting Talents</tspan></text><path d="M221.706 63.436v-4.49l1.86-1.86h123.28l1.86 1.86v4.49z" style="font-variation-settings:normal;vector-effect:none;fill:#000;fill-opacity:1;stroke:#000;stroke-width:.352777;stroke-linecap:butt;stroke-linejoin:miter;stroke-miterlimit:4;stroke-dasharray:none;stroke-dashoffset:0;stroke-opacity:1;-inkscape-stroke:none;stop-color:#000" transform="translate(0 -6.286)"/><text xml:space="preserve" x="271.017" y="61.356" style="font-style:normal;font-variant:normal;font-weight:700;font-stretch:normal;font-size:4.23333px;line-height:1.25;font-family:Arial;-inkscape-font-specification:&quot;Arial Bold&quot;;white-space:pre;display:inline;fill:#fff;stroke:none;stroke-width:.352778;stroke-dasharray:none" transform="translate(0 -6.286)"><tspan style="fill:#fff;stroke-width:.352778;stroke-dasharray:none">Casting Sheet</tspan></text><path d="m299.795 260.568-.234-.234.234-.096zM301.82 258.543h-.33l.096-.234zM223.449 260.568l.233-.234-.233-.096zM221.424 258.543h.33l-.097-.234zM348.988 58.829l-.234.234-.097-.234zM346.963 56.804v.33l-.234-.097z" style="font-variation-settings:normal;vector-effect:none;fill:none;fill-opacity:1;stroke:#000;stroke-width:.352777;stroke-linecap:butt;stroke-linejoin:miter;stroke-miterlimit:4;stroke-dasharray:none;stroke-dashoffset:0;stroke-opacity:1;-inkscape-stroke:none;stop-color:#000" transform="translate(0 -6.286)"/><text xml:space="preserve" x="-49.248" y="149.184" style="font-style:normal;font-variant:normal;font-weight:400;font-stretch:normal;font-size:4.23333px;line-height:1.25;font-family:Arial;-inkscape-font-specification:Arial;white-space:pre;display:inline;fill:#000;fill-opacity:1;stroke:none;stroke-width:.352778;stroke-dasharray:none" transform="translate(360.774 44.45)"><tspan style="stroke-width:.352778;stroke-dasharray:none">Prevention</tspan></text><text xml:space="preserve" x="-46.588" y="157.268" style="font-style:normal;font-variant:normal;font-weight:400;font-stretch:normal;font-size:4.23333px;line-height:1.25;font-family:Arial;-inkscape-font-specification:Arial;white-space:pre;display:inline;fill:#000;fill-opacity:1;stroke:none;stroke-width:.352778;stroke-dasharray:none" transform="translate(360.774 44.45)"><tspan style="stroke-width:.352778;stroke-dasharray:none">Trickery</tspan></text><text xml:space="preserve" x="-47.244" y="165.771" style="font-style:normal;font-variant:normal;font-weight:400;font-stretch:normal;font-size:4.23333px;line-height:1.25;font-family:Arial;-inkscape-font-specification:Arial;white-space:pre;display:inline;fill:#000;fill-opacity:1;stroke:none;stroke-width:.352778;stroke-dasharray:none" transform="translate(360.774 44.45)"><tspan style="stroke-width:.352778;stroke-dasharray:none">Knowing</tspan></text><text xml:space="preserve" x="-46.143" y="174.275" style="font-style:normal;font-variant:normal;font-weight:400;font-stretch:normal;font-size:4.23333px;line-height:1.25;font-family:Arial;-inkscape-font-specification:Arial;white-space:pre;display:inline;fill:#000;fill-opacity:1;stroke:none;stroke-width:.352778;stroke-dasharray:none" transform="translate(360.774 44.45)"><tspan style="stroke-width:.352778;stroke-dasharray:none">Altering</tspan></text><text xml:space="preserve" x="-52.324" y="183.2" style="font-style:normal;font-variant:normal;font-weight:400;font-stretch:normal;font-size:4.23333px;line-height:1.25;font-family:Arial;-inkscape-font-specification:Arial;white-space:pre;display:inline;fill:#000;fill-opacity:1;stroke:none;stroke-width:.352778;stroke-dasharray:none" transform="translate(360.774 44.45)"><tspan style="stroke-width:.352778;stroke-dasharray:none">Enhancement</tspan></text><text xml:space="preserve" x="-49.046" y="191.703" style="font-style:normal;font-variant:normal;font-weight:400;font-stretch:normal;font-size:4.23333px;line-height:1.25;font-family:Arial;-inkscape-font-specification:Arial;white-space:pre;display:inline;fill:#000;fill-opacity:1;stroke:none;stroke-width:.352778;stroke-dasharray:none" transform="translate(360.774 44.45)"><tspan style="stroke-width:.352778;stroke-dasharray:none">Interaction</tspan></text><path d="m-97.882 250.031-1.86-1.86v-2.63l1.86-1.86h32.78l1.86 1.86v2.63l-1.86 1.86z" style="font-variation-settings:normal;fill:none;fill-opacity:1;stroke:#000;stroke-width:.352778;stroke-linecap:butt;stroke-linejoin:miter;stroke-miterlimit:4;stroke-dasharray:none;stroke-dashoffset:0;stroke-opacity:1;stop-color:#000" transform="translate(403.155 -12.193)"/><path d="m-100.023 248.288.233-.233.097.233zM-100.023 245.424l.233.234.097-.234zM-97.998 250.313v-.33l.233.097zM-97.998 243.4v.33l.233-.097zM-62.96 248.288l-.233-.233-.097.233zM-62.96 245.424l-.233.234-.097-.234zM-64.985 250.313v-.33l-.233.097zM-64.985 243.4v.33l-.233-.097z" style="font-variation-settings:normal;vector-effect:none;fill:none;fill-opacity:1;stroke:#000;stroke-width:.352777;stroke-linecap:butt;stroke-linejoin:miter;stroke-miterlimit:4;stroke-dasharray:none;stroke-dashoffset:0;stroke-opacity:1;-inkscape-stroke:none;stop-color:#000" transform="translate(403.155 -12.193)"/><path d="m-97.882 250.031-1.86-1.86v-2.63l1.86-1.86h32.78l1.86 1.86v2.63l-1.86 1.86z" style="font-variation-settings:normal;fill:none;fill-opacity:1;stroke:#000;stroke-width:.352778;stroke-linecap:butt;stroke-linejoin:miter;stroke-miterlimit:4;stroke-dasharray:none;stroke-dashoffset:0;stroke-opacity:1;stop-color:#000" transform="translate(403.155 -20.697)"/><path d="m-100.023 248.288.233-.233.097.233zM-100.023 245.424l.233.234.097-.234zM-97.998 250.313v-.33l.233.097zM-97.998 243.4v.33l.233-.097zM-62.96 248.288l-.233-.233-.097.233zM-62.96 245.424l-.233.234-.097-.234zM-64.985 250.313v-.33l-.233.097zM-64.985 243.4v.33l-.233-.097z" style="font-variation-settings:normal;vector-effect:none;fill:none;fill-opacity:1;stroke:#000;stroke-width:.352777;stroke-linecap:butt;stroke-linejoin:miter;stroke-miterlimit:4;stroke-dasharray:none;stroke-dashoffset:0;stroke-opacity:1;-inkscape-stroke:none;stop-color:#000" transform="translate(403.155 -20.697)"/><path d="m-97.882 250.031-1.86-1.86v-2.63l1.86-1.86h32.78l1.86 1.86v2.63l-1.86 1.86z" style="font-variation-settings:normal;fill:none;fill-opacity:1;stroke:#000;stroke-width:.352778;stroke-linecap:butt;stroke-linejoin:miter;stroke-miterlimit:4;stroke-dasharray:none;stroke-dashoffset:0;stroke-opacity:1;stop-color:#000" transform="translate(403.155 -29.2)"/><path d="m-100.023 248.288.233-.233.097.233zM-100.023 245.424l.233.234.097-.234zM-97.998 250.313v-.33l.233.097zM-97.998 243.4v.33l.233-.097zM-62.96 248.288l-.233-.233-.097.233zM-62.96 245.424l-.233.234-.097-.234zM-64.985 250.313v-.33l-.233.097zM-64.985 243.4v.33l-.233-.097z" style="font-variation-settings:normal;vector-effect:none;fill:none;fill-opacity:1;stroke:#000;stroke-width:.352777;stroke-linecap:butt;stroke-linejoin:miter;stroke-miterlimit:4;stroke-dasharray:none;stroke-dashoffset:0;stroke-opacity:1;-inkscape-stroke:none;stop-color:#000" transform="translate(403.155 -29.2)"/><path d="M-56.092 268.015v-2.63l1.86-1.86h2.63l1.86 1.86v2.63l-1.86 1.86h-2.63z" style="font-variation-settings:normal;fill:none;fill-opacity:1;stroke:#000;stroke-width:.352778;stroke-linecap:butt;stroke-linejoin:miter;stroke-miterlimit:4;stroke-dasharray:none;stroke-dashoffset:0;stroke-opacity:1;stop-color:#000" transform="translate(398.158 -32.037)"/><path d="m-49.46 268.132-.233-.234-.097.234zM-49.46 265.268l-.233.234-.097-.234zM-51.485 270.157v-.33l-.233.096zM-51.485 263.243v.33l-.233-.096zM-56.374 268.132l.234-.234.097.234zM-56.374 265.268l.234.234.097-.234zM-54.349 270.157v-.33l.234.096zM-54.349 263.243v.33l.234-.096z" style="font-variation-settings:normal;vector-effect:none;fill:none;fill-opacity:1;stroke:#000;stroke-width:.352777;stroke-linecap:butt;stroke-linejoin:miter;stroke-miterlimit:4;stroke-dasharray:none;stroke-dashoffset:0;stroke-opacity:1;-inkscape-stroke:none;stop-color:#000" transform="translate(398.158 -32.037)"/><path d="M-56.092 268.015v-2.63l1.86-1.86h2.63l1.86 1.86v2.63l-1.86 1.86h-2.63z" style="font-variation-settings:normal;fill:none;fill-opacity:1;stroke:#000;stroke-width:.352778;stroke-linecap:butt;stroke-linejoin:miter;stroke-miterlimit:4;stroke-dasharray:none;stroke-dashoffset:0;stroke-opacity:1;stop-color:#000" transform="translate(398.158 -40.54)"/><path d="m-49.46 268.132-.233-.234-.097.234zM-49.46 265.268l-.233.234-.097-.234zM-51.485 270.157v-.33l-.233.096zM-51.485 263.243v.33l-.233-.096zM-56.374 268.132l.234-.234.097.234zM-56.374 265.268l.234.234.097-.234zM-54.349 270.157v-.33l.234.096zM-54.349 263.243v.33l.234-.096z" style="font-variation-settings:normal;vector-effect:none;fill:none;fill-opacity:1;stroke:#000;stroke-width:.352777;stroke-linecap:butt;stroke-linejoin:miter;stroke-miterlimit:4;stroke-dasharray:none;stroke-dashoffset:0;stroke-opacity:1;-inkscape-stroke:none;stop-color:#000" transform="translate(398.158 -40.54)"/><path d="m-97.882 250.031-1.86-1.86v-2.63l1.86-1.86h32.78l1.86 1.86v2.63l-1.86 1.86z" style="font-variation-settings:normal;fill:none;fill-opacity:1;stroke:#000;stroke-width:.352778;stroke-linecap:butt;stroke-linejoin:miter;stroke-miterlimit:4;stroke-dasharray:none;stroke-dashoffset:0;stroke-opacity:1;stop-color:#000" transform="translate(403.155 -37.705)"/><path d="m-100.023 248.288.233-.233.097.233zM-100.023 245.424l.233.234.097-.234zM-97.998 250.313v-.33l.233.097zM-97.998 243.4v.33l.233-.097zM-62.96 248.288l-.233-.233-.097.233zM-62.96 245.424l-.233.234-.097-.234zM-64.985 250.313v-.33l-.233.097zM-64.985 243.4v.33l-.233-.097z" style="font-variation-settings:normal;vector-effect:none;fill:none;fill-opacity:1;stroke:#000;stroke-width:.352777;stroke-linecap:butt;stroke-linejoin:miter;stroke-miterlimit:4;stroke-dasharray:none;stroke-dashoffset:0;stroke-opacity:1;-inkscape-stroke:none;stop-color:#000" transform="translate(403.155 -37.705)"/><path d="m-97.882 250.031-1.86-1.86v-2.63l1.86-1.86h32.78l1.86 1.86v2.63l-1.86 1.86z" style="font-variation-settings:normal;fill:none;fill-opacity:1;stroke:#000;stroke-width:.352778;stroke-linecap:butt;stroke-linejoin:miter;stroke-miterlimit:4;stroke-dasharray:none;stroke-dashoffset:0;stroke-opacity:1;stop-color:#000" transform="translate(403.155 -46.208)"/><path d="m-100.023 248.288.233-.233.097.233zM-100.023 245.424l.233.234.097-.234zM-97.998 250.313v-.33l.233.097zM-97.998 243.4v.33l.233-.097zM-62.96 248.288l-.233-.233-.097.233zM-62.96 245.424l-.233.234-.097-.234zM-64.985 250.313v-.33l-.233.097zM-64.985 243.4v.33l-.233-.097z" style="font-variation-settings:normal;vector-effect:none;fill:none;fill-opacity:1;stroke:#000;stroke-width:.352777;stroke-linecap:butt;stroke-linejoin:miter;stroke-miterlimit:4;stroke-dasharray:none;stroke-dashoffset:0;stroke-opacity:1;-inkscape-stroke:none;stop-color:#000" transform="translate(403.155 -46.208)"/><path d="m-97.882 250.031-1.86-1.86v-2.63l1.86-1.86h32.78l1.86 1.86v2.63l-1.86 1.86z" style="font-variation-settings:normal;fill:none;fill-opacity:1;stroke:#000;stroke-width:.352778;stroke-linecap:butt;stroke-linejoin:miter;stroke-miterlimit:4;stroke-dasharray:none;stroke-dashoffset:0;stroke-opacity:1;stop-color:#000" transform="translate(403.155 -54.712)"/><path d="m-100.023 248.288.233-.233.097.233zM-100.023 245.424l.233.234.097-.234zM-97.998 250.313v-.33l.233.097zM-97.998 243.4v.33l.233-.097zM-62.96 248.288l-.233-.233-.097.233zM-62.96 245.424l-.233.234-.097-.234zM-64.985 250.313v-.33l-.233.097zM-64.985 243.4v.33l-.233-.097z" style="font-variation-settings:normal;vector-effect:none;fill:none;fill-opacity:1;stroke:#000;stroke-width:.352777;stroke-linecap:butt;stroke-linejoin:miter;stroke-miterlimit:4;stroke-dasharray:none;stroke-dashoffset:0;stroke-opacity:1;-inkscape-stroke:none;stop-color:#000" transform="translate(403.155 -54.712)"/><path d="M-56.092 268.015v-2.63l1.86-1.86h2.63l1.86 1.86v2.63l-1.86 1.86h-2.63z" style="font-variation-settings:normal;fill:none;fill-opacity:1;stroke:#000;stroke-width:.352778;stroke-linecap:butt;stroke-linejoin:miter;stroke-miterlimit:4;stroke-dasharray:none;stroke-dashoffset:0;stroke-opacity:1;stop-color:#000" transform="translate(398.158 -49.044)"/><path d="m-49.46 268.132-.233-.234-.097.234zM-49.46 265.268l-.233.234-.097-.234zM-51.485 270.157v-.33l-.233.096zM-51.485 263.243v.33l-.233-.096zM-56.374 268.132l.234-.234.097.234zM-56.374 265.268l.234.234.097-.234zM-54.349 270.157v-.33l.234.096zM-54.349 263.243v.33l.234-.096z" style="font-variation-settings:normal;vector-effect:none;fill:none;fill-opacity:1;stroke:#000;stroke-width:.352777;stroke-linecap:butt;stroke-linejoin:miter;stroke-miterlimit:4;stroke-dasharray:none;stroke-dashoffset:0;stroke-opacity:1;-inkscape-stroke:none;stop-color:#000" transform="translate(398.158 -49.044)"/><path d="M-56.092 268.015v-2.63l1.86-1.86h2.63l1.86 1.86v2.63l-1.86 1.86h-2.63z" style="font-variation-settings:normal;fill:none;fill-opacity:1;stroke:#000;stroke-width:.352778;stroke-linecap:butt;stroke-linejoin:miter;stroke-miterlimit:4;stroke-dasharray:none;stroke-dashoffset:0;stroke-opacity:1;stop-color:#000" transform="translate(398.158 -57.548)"/><path d="m-49.46 268.132-.233-.234-.097.234zM-49.46 265.268l-.233.234-.097-.234zM-51.485 270.157v-.33l-.233.096zM-51.485 263.243v.33l-.233-.096zM-56.374 268.132l.234-.234.097.234zM-56.374 265.268l.234.234.097-.234zM-54.349 270.157v-.33l.234.096zM-54.349 263.243v.33l.234-.096z" style="font-variation-settings:normal;vector-effect:none;fill:none;fill-opacity:1;stroke:#000;stroke-width:.352777;stroke-linecap:butt;stroke-linejoin:miter;stroke-miterlimit:4;stroke-dasharray:none;stroke-dashoffset:0;stroke-opacity:1;-inkscape-stroke:none;stop-color:#000" transform="translate(398.158 -57.548)"/><path d="M-56.092 268.015v-2.63l1.86-1.86h2.63l1.86 1.86v2.63l-1.86 1.86h-2.63z" style="font-variation-settings:normal;fill:none;fill-opacity:1;stroke:#000;stroke-width:.352778;stroke-linecap:butt;stroke-linejoin:miter;stroke-miterlimit:4;stroke-dasharray:none;stroke-dashoffset:0;stroke-opacity:1;stop-color:#000" transform="translate(398.158 -66.052)"/><path d="m-49.46 268.132-.233-.234-.097.234zM-49.46 265.268l-.233.234-.097-.234zM-51.485 270.157v-.33l-.233.096zM-51.485 263.243v.33l-.233-.096zM-56.374 268.132l.234-.234.097.234zM-56.374 265.268l.234.234.097-.234zM-54.349 270.157v-.33l.234.096zM-54.349 263.243v.33l.234-.096z" style="font-variation-settings:normal;vector-effect:none;fill:none;fill-opacity:1;stroke:#000;stroke-width:.352777;stroke-linecap:butt;stroke-linejoin:miter;stroke-miterlimit:4;stroke-dasharray:none;stroke-dashoffset:0;stroke-opacity:1;-inkscape-stroke:none;stop-color:#000" transform="translate(398.158 -66.052)"/><path d="M-56.092 268.015v-2.63l1.86-1.86h2.63l1.86 1.86v2.63l-1.86 1.86h-2.63z" style="font-variation-settings:normal;fill:none;fill-opacity:1;stroke:#000;stroke-width:.352778;stroke-linecap:butt;stroke-linejoin:miter;stroke-miterlimit:4;stroke-dasharray:none;stroke-dashoffset:0;stroke-opacity:1;stop-color:#000" transform="translate(398.158 -74.556)"/><path d="m-49.46 268.132-.233-.234-.097.234zM-49.46 265.268l-.233.234-.097-.234zM-51.485 270.157v-.33l-.233.096zM-51.485 263.243v.33l-.233-.096zM-56.374 268.132l.234-.234.097.234zM-56.374 265.268l.234.234.097-.234zM-54.349 270.157v-.33l.234.096zM-54.349 263.243v.33l.234-.096z" style="font-variation-settings:normal;vector-effect:none;fill:none;fill-opacity:1;stroke:#000;stroke-width:.352777;stroke-linecap:butt;stroke-linejoin:miter;stroke-miterlimit:4;stroke-dasharray:none;stroke-dashoffset:0;stroke-opacity:1;-inkscape-stroke:none;stop-color:#000" transform="translate(398.158 -74.556)"/><path d="m-56.425 203.2-1.86-1.86v-2.63l1.86-1.86h41.848l1.86 1.86v2.63l-1.86 1.86Z" style="font-variation-settings:normal;vector-effect:none;fill:#000;fill-opacity:1;stroke:#000;stroke-width:.352777;stroke-linecap:butt;stroke-linejoin:miter;stroke-miterlimit:4;stroke-dasharray:none;stroke-dashoffset:0;stroke-opacity:1;-inkscape-stroke:none;stop-color:#000" transform="translate(361.416 42.86)"/><text xml:space="preserve" x="-52.329" y="204.245" style="font-style:normal;font-variant:normal;font-weight:700;font-stretch:normal;font-size:4.29903px;line-height:1.25;font-family:Arial;-inkscape-font-specification:&quot;Arial Bold&quot;;white-space:pre;display:inline;fill:#fff;stroke:none;stroke-width:.352778;stroke-dasharray:none" transform="matrix(1.01553 0 0 .9847 361.416 42.86)"><tspan style="stroke-width:.352778;stroke-dasharray:none">Casting Attribute</tspan></text><path d="m304.35 260.286-1.226-1.226.64-.64v-2.62l-.64-.638 1.226-1.226h43.13l1.225 1.226-.638.639v2.62l.639.639-1.227 1.226z" style="font-variation-settings:normal;vector-effect:none;fill:none;fill-opacity:1;stroke:#000;stroke-width:.352777;stroke-linecap:butt;stroke-linejoin:miter;stroke-miterlimit:4;stroke-dasharray:none;stroke-dashoffset:0;stroke-opacity:1;-inkscape-stroke:none;stop-color:#000" transform="translate(0 -6.286)"/><path d="M299.678 260.286h-76.112l-1.86-1.86V63.436h127v120.136l-1.86 1.86h-43.448l-1.86 1.86v71.134zM221.424 58.829l.233.234.097-.234zM223.449 56.804v.33l.233-.097zM348.98 247.739l-.233.234-.097-.234zM346.956 245.714v.33l-.234-.097zM348.98 250.603l-.233-.234-.097.234zM346.956 252.628v-.33l-.234.096z" style="font-variation-settings:normal;vector-effect:none;fill:none;fill-opacity:1;stroke:#000;stroke-width:.352777;stroke-linecap:butt;stroke-linejoin:miter;stroke-miterlimit:4;stroke-dasharray:none;stroke-dashoffset:0;stroke-opacity:1;-inkscape-stroke:none;stop-color:#000" transform="translate(0 -6.286)"/><path d="m302.85 247.739.233.234.096-.234zM304.874 245.714v.33l.234-.097zM302.85 250.603l.233-.234.096.234zM304.874 252.628v-.33l.234.096zM348.98 188.776l-.233.234-.097-.234zM346.956 186.751v.33l-.234-.096zM348.98 191.64l-.233-.234-.097.234zM346.956 193.665v-.33l-.234.097zM302.85 188.776l.233.234.096-.234zM304.874 186.751v.33l.234-.096zM302.85 191.64l.233-.234.096.234zM304.874 193.665v-.33l.234.097zM347.713 253.702v.33l-.234-.096zM347.713 260.616v-.33l-.234.097zM304.234 253.654v.33l.233-.097zM304.234 260.568v-.33l.233.096zM346.963 185.714l-.234-.234.234-.096zM348.988 183.689h-.33l.096-.233z" style="font-variation-settings:normal;vector-effect:none;fill:none;fill-opacity:1;stroke:#000;stroke-width:.352777;stroke-linecap:butt;stroke-linejoin:miter;stroke-miterlimit:4;stroke-dasharray:none;stroke-dashoffset:0;stroke-opacity:1;-inkscape-stroke:none;stop-color:#000" transform="translate(0 -6.286)"/></svg>