<svg xmlns="http://www.w3.org/2000/svg" xml:space="preserve" width="1056" height="816" viewBox="0 0 279.4 215.9"><defs><path id="b" d="M-528.038 635.232h26.185v24h-26.185z"/><path id="c" d="M-528.038 635.232h26.185v24h-26.185z"/><path id="d" d="M-528.038 635.232h34.683v18.74h-34.683z"/><path id="e" d="M-528.038 648h66.486v15.567h-66.486z"/><path id="f" d="M-528.038 648h79.188v16.274h-79.188z"/><path id="g" d="M-528.038 648h91.206v16.274h-91.206z"/><path id="h" d="M-528.038 648h114.383v15.702h-114.383z"/><path id="i" d="M-528.038 635.232h43.99v18.942h-43.99z"/><path id="j" d="M-528.038 635.232h43.99v18.942h-43.99z"/><path id="k" d="M-528.038 648h114.383v15.702h-114.383z"/><path id="l" d="M-392.088 452.336h344.05v20.336h-344.05z"/><path id="m" d="M-392.088 472.672h320.493v17.016h-320.493z"/><path id="n" d="M-392.088 493.008h344.049v20.336h-344.049z"/><path id="o" d="M-392.088 513.344h344.049v20.336h-344.049z"/><path id="p" d="M-392.088 533.68h344.05v20.336h-344.05z"/><path id="q" d="M-528.038 648h48v24h-48z"/><path id="r" d="M-528.038 648h48v24h-48z"/><path id="s" d="M-528.038 648h85.769v14.844h-85.769z"/><path id="t" d="M-520.568 23.817h472.529V48h-472.529z"/><path id="a" d="M5366.233-2793.777h305.973v64.373h-305.973z"/><path id="u" d="M5366.233-2793.777h304.973v57.123h-304.973z"/><path id="v" d="M5366.233-2793.777h305.973v85.373h-305.973z"/><path id="w" d="M5366.233-2793.777h306.473v65.873h-306.473z"/><path id="x" d="M5366.233-2793.777h305.973v64.373h-305.973z"/><path id="y" d="M-528.038 635.232h26.185v24h-26.185z"/><path id="z" d="M-528.038 635.232h26.185v24h-26.185z"/><path id="A" d="M-528.038 635.232h34.683v18.74h-34.683z"/><path id="B" d="M-528.038 648h66.486v15.567h-66.486z"/><path id="C" d="M-528.038 648h79.188v16.274h-79.188z"/><path id="D" d="M-528.038 648h91.206v16.274h-91.206z"/><path id="E" d="M-528.038 648h114.383v15.702h-114.383z"/><path id="F" d="M-528.038 635.232h43.99v18.942h-43.99z"/><path id="G" d="M-528.038 635.232h43.99v18.942h-43.99z"/><path id="H" d="M-528.038 648h114.383v15.702h-114.383z"/><path id="I" d="M-392.088 452.336h344.05v20.336h-344.05z"/><path id="J" d="M-392.088 472.672h320.493v17.016h-320.493z"/><path id="K" d="M-392.088 493.008h344.049v20.336h-344.049z"/><path id="L" d="M-392.088 513.344h344.049v20.336h-344.049z"/><path id="M" d="M-392.088 533.68h344.05v20.336h-344.05z"/><path id="N" d="M-528.038 648h48v24h-48z"/><path id="O" d="M-528.038 648h48v24h-48z"/><path id="P" d="M-528.038 648h85.769v14.844h-85.769z"/><path id="Q" d="M-520.568 23.817h472.529V48h-472.529z"/><path id="R" d="M5366.233-2793.777h304.973v57.123h-304.973z"/><path id="S" d="M5366.233-2793.777h305.973v85.373h-305.973z"/><path id="T" d="M5366.233-2793.777h306.473v65.873h-306.473z"/></defs><path d="M0 0v215.9h279.4V0H139.7z" style="font-variation-settings:normal;display:inline;fill:#fff;fill-opacity:1;fill-rule:evenodd;stroke:none;stroke-width:.352778;stroke-linecap:butt;stroke-linejoin:miter;stroke-miterlimit:4;stroke-dasharray:none;stroke-dashoffset:0;stroke-opacity:1;stop-color:#000"/><path d="M139.7 6.35v203.2" style="font-variation-settings:normal;fill:none;fill-opacity:1;stroke:#000;stroke-width:.352778;stroke-linecap:butt;stroke-linejoin:miter;stroke-miterlimit:4;stroke-dasharray:2.82223,.352778;stroke-dashoffset:0;stroke-opacity:1;stop-color:#000"/><text xml:space="preserve" x="-183.261" style="font-style:normal;font-variant:normal;font-weight:400;font-stretch:normal;font-size:10px;font-family:Arial;-inkscape-font-specification:Arial;text-align:start;writing-mode:lr-tb;direction:ltr;white-space:pre;shape-inside:url(#a);display:inline;fill:#000;stroke:none;stroke-width:1.33333;stroke-dasharray:10.6667,5.33334;stroke-dashoffset:0" transform="translate(-1272.014 883.743)scale(.26458)"><tspan x="5366.234" y="-2784.77"><tspan style="font-style:italic;font-weight:700;-inkscape-font-specification:&quot;Arial Bold Italic&quot;">Casting Checks</tspan> recieve a bonus to your Roll determined by your </tspan><tspan x="5366.234" y="-2772.27">Talent Proficiency Tier with that Talent. Additionally, each instance of </tspan><tspan x="5366.234" y="-2759.77">Casting Exhaustion Inflicts a -1 penalty to Casting Checks. At the </tspan><tspan x="5366.234" y="-2747.27">end of a Full Rest remove all Casting Exhaustion you have.</tspan></text><path d="m231.706 150.558-.353.004.012 1.852 1.961 1.963h37.816l1.955-1.955v-1.862h-.351v1.715l-1.748 1.748h-37.526l-1.755-1.757zm1.61-7.558-1.963 1.963v6.023l2.125-2.125h37.494l2.125 2.125v-6.023L271.134 143h-34.271zm.144.353h37.528l1.755 1.756v3.406l-1.683-.008h-37.672l-1.682.008v-3.406zm-1.754 5.516 1.26.006-1.26 1.26zm41.04 0v1.266l-1.262-1.26zm-39.357-5.693-1.86 1.86v3.656h.001l1.859-.008h37.671l1.86.008v-3.655l-1.86-1.86h-34.197zm-1.859 5.516v1.868l1.86-1.86zm41.391 0-1.86.009 1.86 1.86z"/><text xml:space="preserve" x="235.625" y="149.38" style="font-style:normal;font-variant:normal;font-weight:700;font-stretch:normal;font-size:3.175px;line-height:1.25;font-family:Arial;-inkscape-font-specification:&quot;Arial Bold&quot;;white-space:pre;display:inline;fill:#fff;stroke:none;stroke-width:.352778;stroke-dasharray:none" transform="scale(1.01553 .9847)">Casting Attribute</text><text xml:space="preserve" x="242.422" y="179.487" style="font-style:normal;font-variant:normal;font-weight:400;font-stretch:normal;font-size:3.175px;line-height:1.25;font-family:Arial;-inkscape-font-specification:Arial;white-space:pre;display:inline;fill:#000;fill-opacity:1;stroke:none;stroke-width:.352778;stroke-dasharray:none">The Tree</text><text xml:space="preserve" x="241.401" y="193.712" style="font-style:normal;font-variant:normal;font-weight:400;font-stretch:normal;font-size:3.175px;line-height:1.25;font-family:Arial;-inkscape-font-specification:Arial;white-space:pre;display:inline;fill:#000;fill-opacity:1;stroke:none;stroke-width:.352778;stroke-dasharray:none">The Storm</text><text xml:space="preserve" x="240.353" y="186.601" style="font-style:normal;font-variant:normal;font-weight:400;font-stretch:normal;font-size:3.175px;line-height:1.25;font-family:Arial;-inkscape-font-specification:Arial;white-space:pre;display:inline;fill:#000;fill-opacity:1;stroke:none;stroke-width:.352778;stroke-dasharray:none">The Grafted</text><text xml:space="preserve" style="font-size:10.6667px;line-height:1.25;font-family:Arial;-inkscape-font-specification:Arial;white-space:pre;shape-inside:url(#b);display:inline;stroke-width:1.33333;stroke-dasharray:none" transform="translate(289.146 -52.659)scale(.26458)"><tspan x="-528.039" y="644.841">≤3</tspan></text><text xml:space="preserve" style="font-size:10.6667px;line-height:1.25;font-family:Arial;-inkscape-font-specification:Arial;white-space:pre;shape-inside:url(#c);display:inline;stroke-width:1.33333;stroke-dasharray:none" transform="translate(288.7 -47.175)scale(.26458)"><tspan x="-528.039" y="644.841">4-7</tspan></text><text xml:space="preserve" style="font-size:10.6667px;line-height:1.25;font-family:Arial;-inkscape-font-specification:Arial;white-space:pre;shape-inside:url(#d);display:inline;stroke-width:1.33333;stroke-dasharray:none" transform="translate(288.176 -41.719)scale(.26458)"><tspan x="-528.039" y="644.841">8-11</tspan></text><text xml:space="preserve" style="font-size:10.6667px;line-height:1.25;font-family:Arial;-inkscape-font-specification:Arial;white-space:pre;shape-inside:url(#e);display:inline;stroke-width:1.33333;stroke-dasharray:none" transform="translate(300.401 -56.201)scale(.26458)"><tspan x="-528.039" y="657.608">Major Failure</tspan></text><text xml:space="preserve" style="font-size:10.6667px;line-height:1.25;font-family:Arial;-inkscape-font-specification:Arial;white-space:pre;shape-inside:url(#f);display:inline;stroke-width:1.33333;stroke-dasharray:none" transform="translate(300.398 -50.732)scale(.26458)"><tspan x="-528.039" y="657.608">Minor Failure</tspan></text><text xml:space="preserve" style="font-size:10.6667px;line-height:1.25;font-family:Arial;-inkscape-font-specification:Arial;white-space:pre;shape-inside:url(#g);display:inline;stroke-width:1.33333;stroke-dasharray:none" transform="translate(299.375 -45.262)scale(.26458)"><tspan x="-528.039" y="657.608">Minor Success</tspan></text><text xml:space="preserve" style="font-size:10.6667px;line-height:1.25;font-family:Arial;-inkscape-font-specification:Arial;white-space:pre;shape-inside:url(#h);display:inline;stroke-width:1.33333;stroke-dasharray:none" transform="translate(299.375 -34.328)scale(.26458)"><tspan x="-528.039" y="657.608">Major Success</tspan></text><text xml:space="preserve" style="font-size:10.6667px;line-height:1.25;font-family:Arial;-inkscape-font-specification:Arial;white-space:pre;shape-inside:url(#i);display:inline;stroke-width:1.33333;stroke-dasharray:none" transform="translate(287 -36.232)scale(.26458)"><tspan x="-528.039" y="644.841">12-14</tspan></text><text xml:space="preserve" style="font-size:10.6667px;line-height:1.25;font-family:Arial;-inkscape-font-specification:Arial;white-space:pre;shape-inside:url(#j);display:inline;stroke-width:1.33333;stroke-dasharray:none" transform="translate(288.225 -30.78)scale(.26458)"><tspan x="-528.039" y="644.841">15+</tspan></text><text xml:space="preserve" style="font-size:10.6667px;line-height:1.25;font-family:Arial;-inkscape-font-specification:Arial;white-space:pre;shape-inside:url(#k);display:inline;stroke-width:1.33333;stroke-dasharray:none" transform="translate(296.942 -39.793)scale(.26458)"><tspan x="-528.039" y="657.608">Moderate Success</tspan></text><text xml:space="preserve" style="font-size:10.6667px;line-height:1.25;font-family:Arial;-inkscape-font-specification:Arial;white-space:pre;shape-inside:url(#l);display:inline;stroke-width:1.33333;stroke-dasharray:none" transform="translate(293.476 -4.432)scale(.26458)"><tspan x="-392.088" y="461.944">Invocation Fails. Suffer 1 Casting Exhaustion, Complications</tspan></text><text xml:space="preserve" style="font-size:10.6667px;line-height:1.25;font-family:Arial;-inkscape-font-specification:Arial;white-space:pre;shape-inside:url(#m);display:inline;stroke-width:1.33333;stroke-dasharray:none" transform="translate(290.73 -4.343)scale(.26458)"><tspan x="-392.088" y="482.28">Success. Effects are Weakened and Suffer 1 Casting Exhaustion</tspan></text><text xml:space="preserve" style="font-size:10.6667px;line-height:1.25;font-family:Arial;-inkscape-font-specification:Arial;white-space:pre;shape-inside:url(#n);display:inline;stroke-width:1.33333;stroke-dasharray:none" transform="translate(297.952 -4.183)scale(.26458)"><tspan x="-392.088" y="502.616">Suffer 1 Casting Exhaustion or Effects are Weakened</tspan></text><text xml:space="preserve" style="font-size:10.6667px;line-height:1.25;font-family:Arial;-inkscape-font-specification:Arial;white-space:pre;shape-inside:url(#o);display:inline;stroke-width:1.33333;stroke-dasharray:none" transform="translate(287.728 -4.165)scale(.26458)"><tspan x="-392.088" y="522.952">You may choose Strengthened, if you do, Suffer 1 Casting Exhaustion</tspan></text><text xml:space="preserve" style="font-size:10.6667px;line-height:1.25;font-family:Arial;-inkscape-font-specification:Arial;white-space:pre;shape-inside:url(#p);display:inline;stroke-width:1.33333;stroke-dasharray:none" transform="translate(315.66 -4.08)scale(.26458)"><tspan x="-392.088" y="543.288">Effects are Strengthened</tspan></text><path d="M155.788 114.226v5.292h-9.433v-3.43h-.351v23.694l1.962 1.963h123.117l2.014-2.013v-23.647l-.353.002.01 3.431h-90.601v-5.292h-.354v5.292h-25.656v-5.292zm-9.433 5.646h9.433v5.115h-9.433Zm9.785 0h25.656v5.115H156.14zm26.01 0h90.602l.01 5.115H182.15zm-35.795 5.469h9.433v5.117h-9.433zm9.785 0h25.656v5.117H156.14zm26.01 0h90.614l.01 5.117H182.15zm-35.795 5.469h9.433v5.117h-9.433zm9.785 0h25.656v5.117H156.14zm26.01 0h90.625l.011 5.117H182.15zm-35.795 5.47h9.433v5.111h-7.675l-1.758-1.756zm9.785 0h25.656v5.111H156.14zm26.01 0h90.637l-.04 3.305-1.807 1.806h-88.788zm-34.184-27.702-1.963 1.965v5.97l2.116-2.113h122.869l2.109 2.11v-5.967l-1.963-1.965h-115.17zm.147.353h122.875l1.755 1.758v4.967l-1.609-1.607h-124.78v-3.362zm-1.758 5.475h1.258l-1.258 1.258zm1.685-5.65-1.86 1.859v3.61h124.88l1.86 1.86v-5.47l-1.86-1.86H155.965zm-1.86 5.473v1.86l1.86-1.86z"/><text xml:space="preserve" style="font-style:normal;font-variant:normal;font-weight:700;font-stretch:normal;font-size:12px;line-height:1.25;font-family:Arial;-inkscape-font-specification:&quot;Arial Bold&quot;;white-space:pre;shape-inside:url(#q);display:inline;fill:#fff;stroke-width:1.33333;stroke-dasharray:none" transform="translate(287.689 -61.637)scale(.26458)"><tspan x="-528.039" y="658.809">Roll</tspan></text><text xml:space="preserve" style="font-style:normal;font-variant:normal;font-weight:700;font-stretch:normal;font-size:12px;line-height:1.25;font-family:Arial;-inkscape-font-specification:&quot;Arial Bold&quot;;white-space:pre;shape-inside:url(#r);display:inline;fill:#fff;stroke-width:1.33333;stroke-dasharray:none" transform="translate(303.73 -61.637)scale(.26458)"><tspan x="-528.039" y="658.809">Result</tspan></text><text xml:space="preserve" style="font-style:normal;font-variant:normal;font-weight:700;font-stretch:normal;font-size:12px;line-height:1.25;font-family:Arial;-inkscape-font-specification:&quot;Arial Bold&quot;;white-space:pre;shape-inside:url(#s);display:inline;fill:#fff;stroke-width:1.33333;stroke-dasharray:none" transform="translate(359.465 -61.637)scale(.26458)"><tspan x="-528.039" y="658.809">Outcomes</tspan></text><path d="m233.316 196.72-1.963 1.963v1.934l1.963 1.965h37.819l1.962-1.963v-1.936l-1.963-1.962h-34.271z" style="color:#000;font-style:normal;font-variant:normal;font-weight:400;font-stretch:normal;font-size:medium;line-height:normal;font-family:sans-serif;font-variant-ligatures:normal;font-variant-position:normal;font-variant-caps:normal;font-variant-numeric:normal;font-variant-alternates:normal;font-variant-east-asian:normal;font-feature-settings:normal;font-variation-settings:normal;text-indent:0;text-align:start;text-decoration-line:none;text-decoration-style:solid;text-decoration-color:#000;letter-spacing:normal;word-spacing:normal;text-transform:none;writing-mode:lr-tb;direction:ltr;text-orientation:mixed;dominant-baseline:auto;baseline-shift:baseline;text-anchor:start;white-space:normal;shape-padding:0;shape-margin:0;inline-size:0;clip-rule:nonzero;display:inline;overflow:visible;visibility:visible;isolation:auto;mix-blend-mode:normal;color-interpolation:sRGB;color-interpolation-filters:linearRGB;solid-color:#000;solid-opacity:1;vector-effect:none;fill:#000;fill-opacity:1;fill-rule:nonzero;stroke:none;stroke-linecap:butt;stroke-linejoin:miter;stroke-miterlimit:4;stroke-dasharray:none;stroke-dashoffset:0;stroke-opacity:1;-inkscape-stroke:none;color-rendering:auto;image-rendering:auto;shape-rendering:auto;text-rendering:auto;stop-color:#000"/><text xml:space="preserve" x="233.667" y="203.935" style="font-style:normal;font-variant:normal;font-weight:700;font-stretch:normal;font-size:3.175px;line-height:1.25;font-family:Arial;-inkscape-font-specification:&quot;Arial Bold&quot;;white-space:pre;display:inline;fill:#fff;stroke:none;stroke-width:.352778;stroke-dasharray:none" transform="scale(1.01553 .9847)">Casting Exhaustion</text><path d="M272.743 13.81v91.41l-1.755 1.758H148.113l-1.758-1.757V13.813h-.351v91.554l1.962 1.965h123.168l1.963-1.965V13.809zM147.966 6.302l-1.963 1.965v5.971l2.116-2.113h122.869l2.109 2.11V8.267l-1.963-1.965H156.14zm.147.354h122.875l1.755 1.758v4.967l-1.609-1.608H146.355v-3.36Zm-1.758 5.475h1.258l-1.258 1.257zm1.685-5.651-1.86 1.86v3.61h124.88l1.86 1.859V8.341l-1.86-1.86H156.14zm-1.86 5.473v1.86l1.86-1.86z"/><text xml:space="preserve" style="font-style:normal;font-variant:normal;font-weight:700;font-stretch:normal;font-size:12px;line-height:1.25;font-family:Arial;-inkscape-font-specification:&quot;Arial Bold&quot;;white-space:pre;shape-inside:url(#t);display:inline;fill:#fff;stroke-width:1.33333;stroke-dasharray:none" transform="translate(338.332 1.06)scale(.26458)"><tspan x="-520.568" y="34.625">Invocations</tspan></text><text xml:space="preserve" x="-183.261" style="font-style:normal;font-variant:normal;font-weight:400;font-stretch:normal;font-size:10px;font-family:Arial;-inkscape-font-specification:Arial;text-align:start;writing-mode:lr-tb;direction:ltr;white-space:pre;shape-inside:url(#u);display:inline;fill:#000;stroke:none;stroke-width:1.33333;stroke-dasharray:10.6667,5.33334;stroke-dashoffset:0" transform="translate(-1272.083 898.316)scale(.26458)"><tspan x="5366.234" y="-2784.77"><tspan style="font-style:italic;font-weight:700;-inkscape-font-specification:&quot;Arial Bold Italic&quot;">Channel Invocation (1R) [NA] {1 Casting Attribute}</tspan> Select an </tspan><tspan x="5366.234" y="-2772.27">Invocation, perform your Casting Aspect, and make a Casting </tspan><tspan x="5366.234" y="-2759.77">Check. Alternatively, you may forgo performing your Casting Aspect </tspan><tspan x="5366.234" y="-2747.27">but suffer 1 Casting Exhaustion. Gain the Channeling Condition.</tspan></text><text xml:space="preserve" x="-183.261" style="font-style:normal;font-variant:normal;font-weight:400;font-stretch:normal;font-size:10px;font-family:Arial;-inkscape-font-specification:Arial;text-align:start;writing-mode:lr-tb;direction:ltr;white-space:pre;shape-inside:url(#v);display:inline;fill:#000;stroke:none;stroke-width:1.33333;stroke-dasharray:10.6667,5.33334;stroke-dashoffset:0" transform="translate(-1271.963 927.462)scale(.26458)"><tspan x="5366.234" y="-2784.77"><tspan style="font-style:italic;font-weight:700;-inkscape-font-specification:&quot;Arial Bold Italic&quot;">Channeling</tspan> The Character can not Cast another Invocation. </tspan><tspan x="5366.234" y="-2772.27">Additionally, any time that Character Suffers Damage they must </tspan><tspan x="5366.234" y="-2759.77">make a Simplified Casting Check. On any Failure the Effects of the </tspan><tspan x="5366.234" y="-2747.27">Invocation end and the Channeling Condition is removed from the </tspan><tspan x="5366.234" y="-2734.77">Character. Additionally, as a Reaction the Character can choose to </tspan><tspan x="5366.234" y="-2722.27">end the Invocation and remove the Channeling Condition.</tspan></text><path d="m231.706 163.195-.353.002.012 1.852 1.961 1.963h37.816l1.955-1.954v-1.863h-.351v1.717l-1.749 1.748h-37.525l-1.755-1.758zm1.61-7.558-1.963 1.962v6.024l2.127-2.127h37.49l2.127 2.127v-6.024l-1.963-1.962h-34.271zm.144.353h37.528l1.755 1.756v3.406l-1.683-.008h-37.672l-1.682.008v-3.406zm-1.754 5.516 1.258.006-1.258 1.26zm41.04 0v1.265l-1.262-1.26zm-39.357-5.693-1.86 1.86v3.656h.001l1.859-.008h37.671l1.86.008v-3.656l-1.86-1.86h-34.197zm-1.859 5.516v1.868l1.86-1.86zm41.391 0-1.86.008 1.86 1.86z"/><path d="m233.316 168.273-1.963 1.963v1.934l1.963 1.963h37.819l1.962-1.963v-1.934l-1.963-1.963h-34.271z" style="color:#000;font-style:normal;font-variant:normal;font-weight:400;font-stretch:normal;font-size:medium;line-height:normal;font-family:sans-serif;font-variant-ligatures:normal;font-variant-position:normal;font-variant-caps:normal;font-variant-numeric:normal;font-variant-alternates:normal;font-variant-east-asian:normal;font-feature-settings:normal;font-variation-settings:normal;text-indent:0;text-align:start;text-decoration-line:none;text-decoration-style:solid;text-decoration-color:#000;letter-spacing:normal;word-spacing:normal;text-transform:none;writing-mode:lr-tb;direction:ltr;text-orientation:mixed;dominant-baseline:auto;baseline-shift:baseline;text-anchor:start;white-space:normal;shape-padding:0;shape-margin:0;inline-size:0;clip-rule:nonzero;display:inline;overflow:visible;visibility:visible;isolation:auto;mix-blend-mode:normal;color-interpolation:sRGB;color-interpolation-filters:linearRGB;solid-color:#000;solid-opacity:1;vector-effect:none;fill:#000;fill-opacity:1;fill-rule:nonzero;stroke:none;stroke-linecap:butt;stroke-linejoin:miter;stroke-miterlimit:4;stroke-dasharray:none;stroke-dashoffset:0;stroke-opacity:1;-inkscape-stroke:none;color-rendering:auto;image-rendering:auto;shape-rendering:auto;text-rendering:auto;stop-color:#000"/><text xml:space="preserve" x="236.753" y="175.046" style="font-style:normal;font-variant:normal;font-weight:700;font-stretch:normal;font-size:3.175px;line-height:1.25;font-family:Arial;-inkscape-font-specification:&quot;Arial Bold&quot;;white-space:pre;display:inline;fill:#fff;stroke:none;stroke-width:.352778;stroke-dasharray:none" transform="scale(1.01553 .9847)">Casting Talents</text><path d="m147.966 142.992-1.962 1.963v62.679l1.962 1.963h80.176l1.963-1.963v-62.68l-1.963-1.962zm.147.352h79.883l1.757 1.757v62.386l-1.757 1.756h-79.883l-1.758-1.756v-62.386z" style="fill-rule:evenodd"/><text xml:space="preserve" x="-183.261" style="font-style:normal;font-variant:normal;font-weight:400;font-stretch:normal;font-size:10px;font-family:Arial;-inkscape-font-specification:Arial;text-align:start;writing-mode:lr-tb;direction:ltr;white-space:pre;shape-inside:url(#w);display:inline;fill:#000;stroke:none;stroke-width:1.33333;stroke-dasharray:10.6667,5.33334;stroke-dashoffset:0" transform="translate(-1272.11 912.89)scale(.26458)"><tspan x="5366.234" y="-2784.77"><tspan style="font-style:italic;font-weight:700;-inkscape-font-specification:&quot;Arial Bold Italic&quot;">Charm (1R) [NA] {1 Casting Attribute}</tspan> Specify a minor effect, </tspan><tspan x="5366.234" y="-2772.27">perform your Casting Aspect, and make a Simplified Casting Check. </tspan><tspan x="5366.234" y="-2759.77">On any result, the effect happens. On any Failure, you gain 1 </tspan><tspan x="5366.234" y="-2747.27">Casting Exhaustion.</tspan></text><text xml:space="preserve" x="236.901" y="162.213" style="font-style:normal;font-variant:normal;font-weight:700;font-stretch:normal;font-size:3.175px;line-height:1.25;font-family:Arial;-inkscape-font-specification:&quot;Arial Bold&quot;;white-space:pre;display:inline;fill:#fff;stroke:none;stroke-width:.352778;stroke-dasharray:none" transform="scale(1.01553 .9847)">Casting Aspect</text><path d="m233.308 175.392-1.955 1.955v1.934l1.963 1.965h30.877l1.955-1.955v-1.936l-1.963-1.963h-3.547zm.145.354h30.585l1.758 1.756v1.642l-1.75 1.748h-30.583l-1.757-1.755v-1.643zm-.145 6.76-1.955 1.955v1.933l1.963 1.963h30.877l1.955-1.955v-1.933l-1.963-1.963h-3.547zm.147.351h30.583l1.758 1.758v1.64l-1.75 1.749h-30.583l-1.757-1.756v-1.643zm-.147 6.76-1.955 1.955v1.934l1.963 1.963h30.877l1.955-1.956v-1.933l-1.963-1.963h-3.547zm.145.354h30.585l1.758 1.755v1.643l-1.75 1.748h-30.583l-1.757-1.758v-1.64zm.859 13.779v.753l-.395.394-.984.266.637.367 1.978 1.979.385.89.348-.877 1.996-1.994.633-.365-.983-.266-.394-.394v-.752l-.532.531h-2.154zm.367.884h2.483l.753.754-1.996 1.996-1.994-1.996zm5.936.314-.383.889-1.983 1.98-.634.367.982.262.399.399v.752l.53-.532h2.155l.531.532v-.752l.395-.395.982-.266-.633-.365-1.996-1.996zm-.012 1.016 1.996 1.996-.754.752h-2.485l-.751-.752zm3.077-2.214v.753l-.395.394-.985.266.637.367 1.982 1.983.381.886.348-.877 1.996-1.994.633-.365-.983-.266-.394-.394v-.752l-.531.531h-2.155zm.366.884h2.483l.754.754-1.994 1.996-1.997-1.996zm5.936.314-.38.887-1.983 1.982-.637.367.982.262.399.399v.752l.531-.532h2.154l.532.532v-.752l.394-.395.982-.266-.632-.365-1.998-2zm-.01 1.016 1.994 1.996-.754.752h-2.484l-.752-.752zm3.074-2.214v.753l-.394.394-.985.266.637.367 1.98 1.979.383.89.348-.875 1.996-1.996.633-.365-.982-.266-.395-.394v-.752l-.531.531h-2.155zm.368.884h2.484l.752.754-1.994 1.996-1.996-1.996zm5.936.314-.384.889-1.976 1.978-.64.37.983.263.395.397v.752l.531-.532h2.155l.53.532v-.752l.395-.395.983-.266-.633-.365-1.998-2zm-.01 1.016 1.993 1.996-.752.752h-2.486l-.752-.752zm3.074-2.214v.753l-.395.394-.984.266.638.37 1.977 1.976.385.89.345-.875 1.996-1.996.633-.365-.982-.266-.395-.394v-.752l-.531.531h-2.154zm.367.884h2.484l.752.754-1.994 1.996-1.996-1.996zm5.937.314-.383.889-1.98 1.98-.637.367.983.264.394.397v.752l.531-.532h2.155l.531.532v-.75l.4-.4.98-.263-.636-.367-1.996-1.996zm-.012 1.016 1.996 1.996-.754.752h-2.486l-.752-.752z"/><path d="m271.84 180.42 1.256-1.257-1.256-1.256-1.256 1.256zm0-.375-.883-.884.881-.881.884.883zm-1.687-1.312 1.258-1.257-1.258-1.256-1.256 1.256zm0-.375-.881-.882.881-.883.883.883zm-1.685 2.062 1.256-1.257-1.256-1.256-1.256 1.256zm0-.375-.882-.882.882-.883.882.881zm3.372 7.482 1.256-1.256-1.256-1.257-1.256 1.257zm0-.375-.883-.883.881-.882.884.884zm-1.687-1.312 1.258-1.256-1.258-1.257-1.256 1.257zm0-.375-.881-.881.881-.884.883.884zm-1.685 2.062 1.256-1.256-1.256-1.257-1.256 1.257zm0-.375-.882-.881.882-.884.882.882zm3.372 7.488 1.256-1.257-1.256-1.256-1.256 1.256zm0-.376-.883-.883.881-.881.884.883zm-1.687-1.312 1.258-1.256-1.258-1.256-1.256 1.256zm0-.374-.881-.882.881-.883.883.883zm-1.685 2.062 1.256-1.257-1.256-1.256-1.256 1.256zm0-.376-.882-.881.882-.883.882.881z" style="stroke-width:.999997"/><text xml:space="preserve" x="-183.261" style="font-style:normal;font-variant:normal;font-weight:400;font-stretch:normal;font-size:10px;font-family:Arial;-inkscape-font-specification:Arial;text-align:start;writing-mode:lr-tb;direction:ltr;white-space:pre;shape-inside:url(#x);display:inline;fill:#000;stroke:none;stroke-width:1.33333;stroke-dasharray:10.6667,5.33334;stroke-dashoffset:0" transform="translate(-1411.714 883.743)scale(.26458)"><tspan x="5366.234" y="-2784.77"><tspan style="font-style:italic;font-weight:700;-inkscape-font-specification:&quot;Arial Bold Italic&quot;">Casting Checks</tspan> recieve a bonus to your Roll determined by your </tspan><tspan x="5366.234" y="-2772.27">Talent Proficiency Tier with that Talent. Additionally, each instance of </tspan><tspan x="5366.234" y="-2759.77">Casting Exhaustion Inflicts a -1 penalty to Casting Checks. At the </tspan><tspan x="5366.234" y="-2747.27">end of a Full Rest remove all Casting Exhaustion you have.</tspan></text><path d="m92.006 150.558-.354.004.012 1.852 1.961 1.963h37.817l1.955-1.955v-1.862h-.352v1.715l-1.748 1.748H93.772l-1.756-1.757zm1.61-7.558-1.964 1.963v6.023l2.125-2.125h37.494l2.125 2.125v-6.023L131.434 143H97.162zm.144.353h37.527l1.756 1.756v3.406l-1.684-.008H93.688l-1.682.008v-3.406zm-1.754 5.516 1.26.006-1.26 1.26zm41.039 0v1.266l-1.262-1.26zm-39.357-5.693-1.859 1.86v3.656l1.86-.008h37.671l1.86.008v-3.655l-1.86-1.86H97.163zm-1.858 5.516v1.868l1.86-1.86Zm41.39 0-1.86.009 1.86 1.86z"/><text xml:space="preserve" x="98.061" y="149.38" style="font-style:normal;font-variant:normal;font-weight:700;font-stretch:normal;font-size:3.175px;line-height:1.25;font-family:Arial;-inkscape-font-specification:&quot;Arial Bold&quot;;white-space:pre;display:inline;fill:#fff;stroke:none;stroke-width:.352778;stroke-dasharray:none" transform="scale(1.01553 .9847)">Casting Attribute</text><text xml:space="preserve" x="102.722" y="179.487" style="font-style:normal;font-variant:normal;font-weight:400;font-stretch:normal;font-size:3.175px;line-height:1.25;font-family:Arial;-inkscape-font-specification:Arial;white-space:pre;display:inline;fill:#000;fill-opacity:1;stroke:none;stroke-width:.352778;stroke-dasharray:none">The Tree</text><text xml:space="preserve" x="101.701" y="193.712" style="font-style:normal;font-variant:normal;font-weight:400;font-stretch:normal;font-size:3.175px;line-height:1.25;font-family:Arial;-inkscape-font-specification:Arial;white-space:pre;display:inline;fill:#000;fill-opacity:1;stroke:none;stroke-width:.352778;stroke-dasharray:none">The Storm</text><text xml:space="preserve" x="100.653" y="186.601" style="font-style:normal;font-variant:normal;font-weight:400;font-stretch:normal;font-size:3.175px;line-height:1.25;font-family:Arial;-inkscape-font-specification:Arial;white-space:pre;display:inline;fill:#000;fill-opacity:1;stroke:none;stroke-width:.352778;stroke-dasharray:none">The Grafted</text><text xml:space="preserve" style="font-size:10.6667px;line-height:1.25;font-family:Arial;-inkscape-font-specification:Arial;white-space:pre;shape-inside:url(#y);display:inline;stroke-width:1.33333;stroke-dasharray:none" transform="translate(149.445 -52.659)scale(.26458)"><tspan x="-528.039" y="644.841">≤3</tspan></text><text xml:space="preserve" style="font-size:10.6667px;line-height:1.25;font-family:Arial;-inkscape-font-specification:Arial;white-space:pre;shape-inside:url(#z);display:inline;stroke-width:1.33333;stroke-dasharray:none" transform="translate(149 -47.175)scale(.26458)"><tspan x="-528.039" y="644.841">4-7</tspan></text><text xml:space="preserve" style="font-size:10.6667px;line-height:1.25;font-family:Arial;-inkscape-font-specification:Arial;white-space:pre;shape-inside:url(#A);display:inline;stroke-width:1.33333;stroke-dasharray:none" transform="translate(148.476 -41.719)scale(.26458)"><tspan x="-528.039" y="644.841">8-11</tspan></text><text xml:space="preserve" style="font-size:10.6667px;line-height:1.25;font-family:Arial;-inkscape-font-specification:Arial;white-space:pre;shape-inside:url(#B);display:inline;stroke-width:1.33333;stroke-dasharray:none" transform="translate(160.7 -56.201)scale(.26458)"><tspan x="-528.039" y="657.608">Major Failure</tspan></text><text xml:space="preserve" style="font-size:10.6667px;line-height:1.25;font-family:Arial;-inkscape-font-specification:Arial;white-space:pre;shape-inside:url(#C);display:inline;stroke-width:1.33333;stroke-dasharray:none" transform="translate(160.698 -50.732)scale(.26458)"><tspan x="-528.039" y="657.608">Minor Failure</tspan></text><text xml:space="preserve" style="font-size:10.6667px;line-height:1.25;font-family:Arial;-inkscape-font-specification:Arial;white-space:pre;shape-inside:url(#D);display:inline;stroke-width:1.33333;stroke-dasharray:none" transform="translate(159.674 -45.262)scale(.26458)"><tspan x="-528.039" y="657.608">Minor Success</tspan></text><text xml:space="preserve" style="font-size:10.6667px;line-height:1.25;font-family:Arial;-inkscape-font-specification:Arial;white-space:pre;shape-inside:url(#E);display:inline;stroke-width:1.33333;stroke-dasharray:none" transform="translate(159.674 -34.328)scale(.26458)"><tspan x="-528.039" y="657.608">Major Success</tspan></text><text xml:space="preserve" style="font-size:10.6667px;line-height:1.25;font-family:Arial;-inkscape-font-specification:Arial;white-space:pre;shape-inside:url(#F);display:inline;stroke-width:1.33333;stroke-dasharray:none" transform="translate(147.3 -36.232)scale(.26458)"><tspan x="-528.039" y="644.841">12-14</tspan></text><text xml:space="preserve" style="font-size:10.6667px;line-height:1.25;font-family:Arial;-inkscape-font-specification:Arial;white-space:pre;shape-inside:url(#G);display:inline;stroke-width:1.33333;stroke-dasharray:none" transform="translate(148.525 -30.78)scale(.26458)"><tspan x="-528.039" y="644.841">15+</tspan></text><text xml:space="preserve" style="font-size:10.6667px;line-height:1.25;font-family:Arial;-inkscape-font-specification:Arial;white-space:pre;shape-inside:url(#H);display:inline;stroke-width:1.33333;stroke-dasharray:none" transform="translate(157.241 -39.793)scale(.26458)"><tspan x="-528.039" y="657.608">Moderate Success</tspan></text><text xml:space="preserve" style="font-size:10.6667px;line-height:1.25;font-family:Arial;-inkscape-font-specification:Arial;white-space:pre;shape-inside:url(#I);display:inline;stroke-width:1.33333;stroke-dasharray:none" transform="translate(153.776 -4.432)scale(.26458)"><tspan x="-392.088" y="461.944">Invocation Fails. Suffer 1 Casting Exhaustion, Complications</tspan></text><text xml:space="preserve" style="font-size:10.6667px;line-height:1.25;font-family:Arial;-inkscape-font-specification:Arial;white-space:pre;shape-inside:url(#J);display:inline;stroke-width:1.33333;stroke-dasharray:none" transform="translate(151.03 -4.343)scale(.26458)"><tspan x="-392.088" y="482.28">Success. Effects are Weakened and Suffer 1 Casting Exhaustion</tspan></text><text xml:space="preserve" style="font-size:10.6667px;line-height:1.25;font-family:Arial;-inkscape-font-specification:Arial;white-space:pre;shape-inside:url(#K);display:inline;stroke-width:1.33333;stroke-dasharray:none" transform="translate(158.252 -4.183)scale(.26458)"><tspan x="-392.088" y="502.616">Suffer 1 Casting Exhaustion or Effects are Weakened</tspan></text><text xml:space="preserve" style="font-size:10.6667px;line-height:1.25;font-family:Arial;-inkscape-font-specification:Arial;white-space:pre;shape-inside:url(#L);display:inline;stroke-width:1.33333;stroke-dasharray:none" transform="translate(148.027 -4.165)scale(.26458)"><tspan x="-392.088" y="522.952">You may choose Strengthened, if you do, Suffer 1 Casting Exhaustion</tspan></text><text xml:space="preserve" style="font-size:10.6667px;line-height:1.25;font-family:Arial;-inkscape-font-specification:Arial;white-space:pre;shape-inside:url(#M);display:inline;stroke-width:1.33333;stroke-dasharray:none" transform="translate(175.96 -4.08)scale(.26458)"><tspan x="-392.088" y="543.288">Effects are Strengthened</tspan></text><path d="M16.088 114.226v5.292H6.655v-3.43h-.352v23.694l1.963 1.963h123.117l2.013-2.013v-23.647l-.353.002.01 3.431h-90.6v-5.292h-.354v5.292H16.442v-5.292zm-9.433 5.646h9.433v5.115H6.655Zm9.784 0h25.657v5.115H16.439zm26.01 0h90.602l.011 5.115H42.45ZM6.655 125.34h9.433v5.117H6.655Zm9.784 0h25.657v5.117H16.439zm26.01 0h90.614l.011 5.117H42.449Zm-35.794 5.47h9.433v5.117H6.655Zm9.784 0h25.657v5.117H16.439zm26.01 0h90.626l.01 5.117H42.45Zm-35.794 5.47h9.433v5.111H8.413l-1.758-1.756zm9.784 0h25.657v5.111H16.439zm26.01 0h90.638l-.041 3.305-1.807 1.806H42.452ZM8.266 108.578l-1.963 1.965v5.97l2.115-2.113h122.869l2.11 2.11v-5.967l-1.963-1.965H16.264zm.146.353h122.875l1.756 1.758v4.967l-1.61-1.607H6.655v-3.362zm-1.758 5.475h1.258l-1.258 1.258zm1.685-5.65-1.86 1.859v3.61H131.36l1.86 1.86v-5.47l-1.86-1.86H16.263zm-1.86 5.473v1.86l1.86-1.86z"/><text xml:space="preserve" style="font-style:normal;font-variant:normal;font-weight:700;font-stretch:normal;font-size:12px;line-height:1.25;font-family:Arial;-inkscape-font-specification:&quot;Arial Bold&quot;;white-space:pre;shape-inside:url(#N);display:inline;fill:#fff;stroke-width:1.33333;stroke-dasharray:none" transform="translate(147.988 -61.637)scale(.26458)"><tspan x="-528.039" y="658.809">Roll</tspan></text><text xml:space="preserve" style="font-style:normal;font-variant:normal;font-weight:700;font-stretch:normal;font-size:12px;line-height:1.25;font-family:Arial;-inkscape-font-specification:&quot;Arial Bold&quot;;white-space:pre;shape-inside:url(#O);display:inline;fill:#fff;stroke-width:1.33333;stroke-dasharray:none" transform="translate(164.03 -61.637)scale(.26458)"><tspan x="-528.039" y="658.809">Result</tspan></text><text xml:space="preserve" style="font-style:normal;font-variant:normal;font-weight:700;font-stretch:normal;font-size:12px;line-height:1.25;font-family:Arial;-inkscape-font-specification:&quot;Arial Bold&quot;;white-space:pre;shape-inside:url(#P);display:inline;fill:#fff;stroke-width:1.33333;stroke-dasharray:none" transform="translate(219.764 -61.637)scale(.26458)"><tspan x="-528.039" y="658.809">Outcomes</tspan></text><path d="m93.616 196.72-1.964 1.963v1.934l1.964 1.965h37.818l1.962-1.963v-1.936l-1.962-1.962H97.162z" style="color:#000;font-style:normal;font-variant:normal;font-weight:400;font-stretch:normal;font-size:medium;line-height:normal;font-family:sans-serif;font-variant-ligatures:normal;font-variant-position:normal;font-variant-caps:normal;font-variant-numeric:normal;font-variant-alternates:normal;font-variant-east-asian:normal;font-feature-settings:normal;font-variation-settings:normal;text-indent:0;text-align:start;text-decoration-line:none;text-decoration-style:solid;text-decoration-color:#000;letter-spacing:normal;word-spacing:normal;text-transform:none;writing-mode:lr-tb;direction:ltr;text-orientation:mixed;dominant-baseline:auto;baseline-shift:baseline;text-anchor:start;white-space:normal;shape-padding:0;shape-margin:0;inline-size:0;clip-rule:nonzero;display:inline;overflow:visible;visibility:visible;isolation:auto;mix-blend-mode:normal;color-interpolation:sRGB;color-interpolation-filters:linearRGB;solid-color:#000;solid-opacity:1;vector-effect:none;fill:#000;fill-opacity:1;fill-rule:nonzero;stroke:none;stroke-linecap:butt;stroke-linejoin:miter;stroke-miterlimit:4;stroke-dasharray:none;stroke-dashoffset:0;stroke-opacity:1;-inkscape-stroke:none;color-rendering:auto;image-rendering:auto;shape-rendering:auto;text-rendering:auto;stop-color:#000"/><text xml:space="preserve" x="96.103" y="203.935" style="font-style:normal;font-variant:normal;font-weight:700;font-stretch:normal;font-size:3.175px;line-height:1.25;font-family:Arial;-inkscape-font-specification:&quot;Arial Bold&quot;;white-space:pre;display:inline;fill:#fff;stroke:none;stroke-width:.352778;stroke-dasharray:none" transform="scale(1.01553 .9847)">Casting Exhaustion</text><path d="M133.043 13.81v91.41l-1.756 1.758H8.413l-1.758-1.757V13.813h-.352v91.554l1.963 1.965h123.168l1.962-1.965V13.809zM8.266 6.302 6.303 8.268v5.971l2.115-2.113h122.869l2.11 2.11V8.267l-1.963-1.965H16.44Zm.146.354h122.875l1.756 1.758v4.967l-1.61-1.608H6.656v-3.36Zm-1.757 5.475h1.257l-1.257 1.257zM8.339 6.48l-1.86 1.86v3.61H131.36l1.86 1.859V8.341l-1.86-1.86H16.44Zm-1.86 5.473v1.86l1.86-1.86z"/><text xml:space="preserve" style="font-style:normal;font-variant:normal;font-weight:700;font-stretch:normal;font-size:12px;line-height:1.25;font-family:Arial;-inkscape-font-specification:&quot;Arial Bold&quot;;white-space:pre;shape-inside:url(#Q);display:inline;fill:#fff;stroke-width:1.33333;stroke-dasharray:none" transform="translate(198.632 1.06)scale(.26458)"><tspan x="-520.568" y="34.625">Invocations</tspan></text><text xml:space="preserve" x="-183.261" style="font-style:normal;font-variant:normal;font-weight:400;font-stretch:normal;font-size:10px;font-family:Arial;-inkscape-font-specification:Arial;text-align:start;writing-mode:lr-tb;direction:ltr;white-space:pre;shape-inside:url(#R);display:inline;fill:#000;stroke:none;stroke-width:1.33333;stroke-dasharray:10.6667,5.33334;stroke-dashoffset:0" transform="translate(-1411.784 898.316)scale(.26458)"><tspan x="5366.234" y="-2784.77"><tspan style="font-style:italic;font-weight:700;-inkscape-font-specification:&quot;Arial Bold Italic&quot;">Channel Invocation (1R) [NA] {1 Casting Attribute}</tspan> Select an </tspan><tspan x="5366.234" y="-2772.27">Invocation, perform your Casting Aspect, and make a Casting </tspan><tspan x="5366.234" y="-2759.77">Check. Alternatively, you may forgo performing your Casting Aspect </tspan><tspan x="5366.234" y="-2747.27">but suffer 1 Casting Exhaustion. Gain the Channeling Condition.</tspan></text><text xml:space="preserve" x="-183.261" style="font-style:normal;font-variant:normal;font-weight:400;font-stretch:normal;font-size:10px;font-family:Arial;-inkscape-font-specification:Arial;text-align:start;writing-mode:lr-tb;direction:ltr;white-space:pre;shape-inside:url(#S);display:inline;fill:#000;stroke:none;stroke-width:1.33333;stroke-dasharray:10.6667,5.33334;stroke-dashoffset:0" transform="translate(-1411.664 927.462)scale(.26458)"><tspan x="5366.234" y="-2784.77"><tspan style="font-style:italic;font-weight:700;-inkscape-font-specification:&quot;Arial Bold Italic&quot;">Channeling</tspan> The Character can not Cast another Invocation. </tspan><tspan x="5366.234" y="-2772.27">Additionally, any time that Character Suffers Damage they must </tspan><tspan x="5366.234" y="-2759.77">make a Simplified Casting Check. On any Failure the Effects of the </tspan><tspan x="5366.234" y="-2747.27">Invocation end and the Channeling Condition is removed from the </tspan><tspan x="5366.234" y="-2734.77">Character. Additionally, as a Reaction the Character can choose to </tspan><tspan x="5366.234" y="-2722.27">end the Invocation and remove the Channeling Condition.</tspan></text><path d="m92.006 163.195-.354.002.012 1.852 1.961 1.963h37.816l1.955-1.954v-1.863h-.35l-.001 1.717-1.748 1.748H93.772l-1.756-1.758zm1.61-7.558-1.964 1.962v6.024l2.127-2.127h37.491l2.126 2.127v-6.024l-1.962-1.962H97.162zm.144.353h37.527l1.756 1.756v3.406l-1.684-.008H93.688l-1.682.008v-3.406zm-1.754 5.516 1.258.006-1.258 1.26zm41.039 0v1.265l-1.262-1.26zm-39.357-5.693-1.859 1.86v3.656l1.86-.008h37.671l1.86.008v-3.656l-1.86-1.86H97.163zm-1.858 5.516v1.868l1.86-1.86zm41.39 0-1.86.008 1.86 1.86z"/><path d="m93.616 168.273-1.964 1.963v1.934l1.964 1.963h37.818l1.962-1.963v-1.934l-1.962-1.963H97.162z" style="color:#000;font-style:normal;font-variant:normal;font-weight:400;font-stretch:normal;font-size:medium;line-height:normal;font-family:sans-serif;font-variant-ligatures:normal;font-variant-position:normal;font-variant-caps:normal;font-variant-numeric:normal;font-variant-alternates:normal;font-variant-east-asian:normal;font-feature-settings:normal;font-variation-settings:normal;text-indent:0;text-align:start;text-decoration-line:none;text-decoration-style:solid;text-decoration-color:#000;letter-spacing:normal;word-spacing:normal;text-transform:none;writing-mode:lr-tb;direction:ltr;text-orientation:mixed;dominant-baseline:auto;baseline-shift:baseline;text-anchor:start;white-space:normal;shape-padding:0;shape-margin:0;inline-size:0;clip-rule:nonzero;display:inline;overflow:visible;visibility:visible;isolation:auto;mix-blend-mode:normal;color-interpolation:sRGB;color-interpolation-filters:linearRGB;solid-color:#000;solid-opacity:1;vector-effect:none;fill:#000;fill-opacity:1;fill-rule:nonzero;stroke:none;stroke-linecap:butt;stroke-linejoin:miter;stroke-miterlimit:4;stroke-dasharray:none;stroke-dashoffset:0;stroke-opacity:1;-inkscape-stroke:none;color-rendering:auto;image-rendering:auto;shape-rendering:auto;text-rendering:auto;stop-color:#000"/><text xml:space="preserve" x="99.189" y="175.046" style="font-style:normal;font-variant:normal;font-weight:700;font-stretch:normal;font-size:3.175px;line-height:1.25;font-family:Arial;-inkscape-font-specification:&quot;Arial Bold&quot;;white-space:pre;display:inline;fill:#fff;stroke:none;stroke-width:.352778;stroke-dasharray:none" transform="scale(1.01553 .9847)">Casting Talents</text><path d="m8.266 142.992-1.963 1.963v62.679l1.963 1.963h80.176l1.962-1.963v-62.68l-1.962-1.962zm.147.352h79.882l1.758 1.757v62.386l-1.758 1.756H8.413l-1.758-1.756v-62.386z" style="fill-rule:evenodd"/><text xml:space="preserve" x="-183.261" style="font-style:normal;font-variant:normal;font-weight:400;font-stretch:normal;font-size:10px;font-family:Arial;-inkscape-font-specification:Arial;text-align:start;writing-mode:lr-tb;direction:ltr;white-space:pre;shape-inside:url(#T);display:inline;fill:#000;stroke:none;stroke-width:1.33333;stroke-dasharray:10.6667,5.33334;stroke-dashoffset:0" transform="translate(-1411.81 912.89)scale(.26458)"><tspan x="5366.234" y="-2784.77"><tspan style="font-style:italic;font-weight:700;-inkscape-font-specification:&quot;Arial Bold Italic&quot;">Charm (1R) [NA] {1 Casting Attribute}</tspan> Specify a minor effect, </tspan><tspan x="5366.234" y="-2772.27">perform your Casting Aspect, and make a Simplified Casting Check. </tspan><tspan x="5366.234" y="-2759.77">On any result, the effect happens. On any Failure, you gain 1 </tspan><tspan x="5366.234" y="-2747.27">Casting Exhaustion.</tspan></text><text xml:space="preserve" x="99.337" y="162.213" style="font-style:normal;font-variant:normal;font-weight:700;font-stretch:normal;font-size:3.175px;line-height:1.25;font-family:Arial;-inkscape-font-specification:&quot;Arial Bold&quot;;white-space:pre;display:inline;fill:#fff;stroke:none;stroke-width:.352778;stroke-dasharray:none" transform="scale(1.01553 .9847)">Casting Aspect</text><path d="m93.608 175.392-1.956 1.955v1.934l1.963 1.965h30.877l1.955-1.955v-1.936l-1.963-1.963h-3.546zm.144.354h30.586l1.758 1.756v1.642l-1.75 1.748H93.762l-1.756-1.755v-1.643zm-.144 6.76-1.956 1.955v1.933l1.963 1.963h30.877l1.955-1.955v-1.933l-1.963-1.963h-3.546zm.146.351h30.584l1.758 1.758v1.64l-1.75 1.749H93.762l-1.756-1.756v-1.643zm-.146 6.76-1.956 1.955v1.934l1.963 1.963h30.877l1.955-1.956v-1.933l-1.963-1.963h-3.546zm.144.354h30.586l1.758 1.755v1.643l-1.75 1.748H93.762l-1.756-1.758v-1.64zm.859 13.779v.753l-.394.394-.984.266.636.367 1.979 1.979.385.89.347-.877 1.996-1.994.633-.365-.982-.266-.395-.394v-.752l-.531.531h-2.154zm.368.884h2.482l.754.754-1.996 1.996-1.994-1.996zm5.935.314-.383.889-1.982 1.98-.635.367.983.262.398.399v.752l.531-.532h2.155l.53.532v-.752l.395-.395.983-.266-.633-.365-1.996-1.996zm-.012 1.016 1.996 1.996-.754.752H99.66l-.752-.752zm3.077-2.214v.753l-.395.394-.984.266.636.367 1.983 1.983.38.886.348-.877 1.997-1.994.632-.365-.982-.266-.395-.394v-.752l-.53.531h-2.155zm.367.884h2.482l.754.754-1.994 1.996-1.996-1.996zm5.935.314-.38.887-1.983 1.982-.637.367.983.262.398.399v.752l.531-.532h2.155l.531.532v-.752l.395-.395.982-.266-.633-.365-1.998-2zm-.01 1.016 1.994 1.996-.753.752h-2.485l-.752-.752zm3.075-2.214v.753l-.395.394-.984.266.637.367 1.98 1.979.383.89.348-.875 1.996-1.996.632-.365-.982-.266-.394-.394v-.752l-.532.531h-2.154zm.367.884h2.484l.752.754-1.994 1.996-1.996-1.996zm5.936.314-.383.889-1.977 1.978-.64.37.984.263.395.397v.752l.53-.532h2.155l.531.532v-.752l.395-.395.982-.266-.633-.365-1.998-2zm-.01 1.016 1.994 1.996-.752.752h-2.487l-.751-.752zm3.074-2.214v.753l-.395.394-.984.266.639.37 1.976 1.976.385.89.346-.875 1.996-1.996.633-.365-.983-.266-.394-.394v-.752l-.532.531h-2.154zm.367.884h2.485l.752.754-1.995 1.996-1.996-1.996zm5.938.314-.383.889-1.98 1.98-.637.367.982.264.395.397v.752l.531-.532h2.154l.532.532v-.75l.4-.4.98-.263-.636-.367-1.996-1.996zm-.012 1.016 1.996 1.996-.754.752h-2.486l-.752-.752z"/><path d="m132.14 180.42 1.256-1.257-1.257-1.256-1.256 1.256zm0-.375-.884-.884.882-.881.883.883zm-1.687-1.312 1.258-1.257-1.258-1.256-1.257 1.256zm0-.375-.882-.882.882-.883.883.883zm-1.685 2.062 1.256-1.257-1.256-1.256-1.257 1.256zm0-.375-.882-.882.882-.883.881.881zm3.372 7.482 1.256-1.256-1.257-1.257-1.256 1.257zm0-.375-.884-.883.882-.882.883.884zm-1.687-1.312 1.258-1.256-1.258-1.257-1.257 1.257zm0-.375-.882-.881.882-.884.883.884zm-1.685 2.062 1.256-1.256-1.256-1.257-1.257 1.257zm0-.375-.882-.881.882-.884.881.882zm3.372 7.488 1.256-1.257-1.257-1.256-1.256 1.256zm0-.376-.884-.883.882-.881.883.883zm-1.687-1.312 1.258-1.256-1.258-1.256-1.257 1.256zm0-.374-.882-.882.882-.883.883.883zm-1.685 2.062 1.256-1.257-1.256-1.256-1.257 1.256zm0-.376-.882-.881.882-.883.881.881z" style="stroke-width:.999997"/></svg>