<svg xmlns="http://www.w3.org/2000/svg" xml:space="preserve" width="1056" height="816" viewBox="0 0 279.4 215.9"><defs><path id="ah" d="M2223.664 370.193h338.437v26.129h-338.437z"/><path id="ag" d="M2227.118 347.578h338.885v41.714h-338.885z"/><path id="H" d="M-2915.514 1244.725h233.952v154.56h-233.952z"/><path id="G" d="M-3299.514 1244.725h161.952v154.56h-161.952z"/><path id="F" d="M-3131.514 1244.725h209.952v154.56h-209.952z"/><path id="E" d="M-2675.472 1244.773h310.944v154.464h-310.944z"/><path id="u" d="M-3756.151 1102.38h239.709v42.426h-239.709z"/><path id="p" d="M-3302.538 1081.071h941.076v26.768h-941.076z"/><path id="ac" d="M1404.61 1847.533h339.456v156.576H1404.61z"/><path id="ab" d="M1756.085 1847.439h336.541v155.37h-336.541z"/><path id="aa" d="M1756.104 1931.804h333.661v68.495h-333.661z"/><path id="Z" d="M1395.596 1691.866h708.997v36h-708.997z"/><path id="af" d="M1153.605 1016.771h190.945v25.92h-190.945z"/><path id="ae" d="M1153.164 965.961h191.387v24.873h-191.387z"/><path id="ad" d="M1153.168 915.168h191.382v24.869h-191.382z"/><path id="Y" d="M-392.088 533.68h344.05v20.336h-344.05z"/><path id="X" d="M-392.088 513.344h515.169v44.378h-515.169z"/><path id="W" d="M-392.088 493.008h344.049v20.336h-344.049z"/><path id="V" d="M-392.088 472.672H16.405v17.516h-408.493z"/><path id="U" d="M-392.088 452.336h469.05v16.836h-469.05z"/><path id="K" d="M-528.038 635.232h26.185v24h-26.185z"/><path id="L" d="M-528.038 635.232h26.185v24h-26.185z"/><path id="M" d="M-528.038 635.232h34.683v18.74h-34.683z"/><path id="O" d="M-528.038 648h79.188v16.274h-79.188z"/><path id="P" d="M-528.038 648h91.206v16.274h-91.206z"/><path id="Q" d="M-528.038 648h114.383v15.702h-114.383z"/><path id="N" d="M-528.038 648h94.064v20.517h-94.064z"/><path id="R" d="M-528.038 635.232h43.99v18.942h-43.99z"/><path id="T" d="M-528.038 635.232h43.99v18.942h-43.99z"/><path id="S" d="M-528.038 648h114.383v15.702h-114.383z"/><path id="e" d="M-528.038 635.232h26.185v24h-26.185z"/><path id="h" d="M-528.038 635.232h26.185v24h-26.185z"/><path id="k" d="M-528.038 635.232h34.683v18.74h-34.683z"/><path id="d" d="M-528.038 635.232h43.99v18.942h-43.99z"/><path id="c" d="M-528.038 635.232h43.99v18.942h-43.99z"/><path id="b" d="M-528.038 648h94.064v20.517h-94.064z"/><path id="g" d="M-528.038 648h79.188v16.274h-79.188z"/><path id="j" d="M-528.038 648h91.206v16.274h-91.206z"/><path id="m" d="M-528.038 648h114.383v15.702h-114.383z"/><path id="o" d="M-528.038 648h114.383v15.702h-114.383z"/><path id="f" d="M216.435 36.631h574.65v19.296h-574.65z"/><path id="a" d="M88.755 36.631h127.68v19.296H88.755Z"/><path id="i" d="M88.755 36.631h550.963v18.231H88.755Z"/><path id="l" d="M88.755 36.631h550.963v18.231H88.755Z"/><path id="n" d="M88.755 36.631h550.963v18.231H88.755Z"/><path id="A" d="M-3756.151 1102.38h239.709v42.426h-239.709z"/><path id="B" d="M-3756.151 1102.38h239.709v42.426h-239.709z"/><path id="C" d="M-3756.151 1102.38h239.709v42.426h-239.709z"/><path id="D" d="M-3756.151 1102.38h239.709v42.426h-239.709z"/><path id="r" d="M-3302.538 1081.071h941.076v26.768h-941.076z"/><path id="q" d="M-3302.538 1081.071h941.076v26.768h-941.076z"/><path id="v" d="M-3756.151 1102.38h239.709v42.426h-239.709z"/><path id="w" d="M-3756.151 1102.38h239.709v42.426h-239.709z"/><path id="x" d="M-3756.151 1102.38h239.709v42.426h-239.709z"/><path id="y" d="M-3756.151 1102.38h239.709v42.426h-239.709z"/><path id="z" d="M-3756.151 1102.38h265.872v26.87h-265.872z"/><path id="s" d="M-3302.538 1081.071h941.076v26.768h-941.076z"/><path id="t" d="M-3302.538 1081.071h941.076v26.768h-941.076z"/><path id="ai" d="M2223.664 370.193h338.437v26.129h-338.437z"/><path id="J" d="M2223.664 370.193h338.437v26.129h-338.437z"/><path id="I" d="M2223.664 370.193h338.437v26.129h-338.437z"/></defs><path d="M571.52 0h279.4v215.9h-279.4z" style="font-variation-settings:normal;vector-effect:none;fill:#fff;fill-opacity:1;fill-rule:evenodd;stroke:none;stroke-width:.352777;stroke-linecap:butt;stroke-linejoin:miter;stroke-miterlimit:4;stroke-dasharray:none;stroke-dashoffset:0;stroke-opacity:1;-inkscape-stroke:none;stop-color:#000" transform="translate(-571.52)"/><path d="M1158.728 19.616v88h252v-88Z" style="font-variation-settings:normal;vector-effect:none;fill:#000;fill-opacity:1;fill-rule:evenodd;stroke:none;stroke-width:.352777;stroke-linecap:butt;stroke-linejoin:miter;stroke-miterlimit:4;stroke-dasharray:none;stroke-dashoffset:0;stroke-opacity:1;-inkscape-stroke:none;stop-color:#000" transform="translate(-1145.029 88.334)"/><path d="M1160.231 28.198h248.993v77.918h-248.993z" style="font-variation-settings:normal;vector-effect:none;fill:#fff;fill-opacity:1;fill-rule:evenodd;stroke:none;stroke-width:.352777;stroke-linecap:butt;stroke-linejoin:miter;stroke-miterlimit:4;stroke-dasharray:none;stroke-dashoffset:0;stroke-opacity:1;-inkscape-stroke:none;stop-color:#000" transform="translate(-1145.029 88.334)"/><text xml:space="preserve" style="font-style:normal;font-variant:normal;font-weight:400;font-stretch:normal;font-size:13.3333px;line-height:1.25;font-family:Arial;-inkscape-font-specification:Arial;white-space:pre;shape-inside:url(#a);display:inline" transform="translate(53.936 115.528) scale(.26458)"><tspan x="88.756" y="48.641">Attack Misses</tspan></text><text xml:space="preserve" style="font-size:13.3333px;line-height:1.25;font-family:Arial;-inkscape-font-specification:Arial;white-space:pre;shape-inside:url(#b);display:inline" transform="matrix(.26458 0 0 .26458 173.138 -53.663)"><tspan x="-528.039" y="660.01">Major Failure</tspan></text><text xml:space="preserve" style="font-size:13.3333px;line-height:1.25;font-family:Arial;-inkscape-font-specification:Arial;white-space:pre;shape-inside:url(#c);display:inline" transform="matrix(.26458 0 0 .26458 158.177 -21.6)"><tspan x="-528.039" y="647.242">15+</tspan></text><text xml:space="preserve" style="font-size:13.3333px;line-height:1.25;font-family:Arial;-inkscape-font-specification:Arial;white-space:pre;shape-inside:url(#d);display:inline" transform="matrix(.26458 0 0 .26458 156.645 -28.661)"><tspan x="-528.039" y="647.242">12-14</tspan></text><text xml:space="preserve" style="font-size:13.3333px;line-height:1.25;font-family:Arial;-inkscape-font-specification:Arial;white-space:pre;shape-inside:url(#e);display:inline" transform="matrix(.26458 0 0 .26458 159.24 -49.913)"><tspan x="-528.039" y="647.242">&lt;4</tspan></text><text xml:space="preserve" style="font-style:normal;font-variant:normal;font-weight:400;font-stretch:normal;font-size:13.3333px;line-height:1.25;font-family:Arial;-inkscape-font-specification:Arial;white-space:pre;shape-inside:url(#f);display:inline" transform="translate(8.097 108.138) scale(.26458)"><tspan x="216.436" y="48.641">Attack Misses, Complications</tspan></text><text xml:space="preserve" style="font-size:13.3333px;line-height:1.25;font-family:Arial;-inkscape-font-specification:Arial;white-space:pre;shape-inside:url(#g);display:inline" transform="matrix(.26458 0 0 .26458 173.138 -46.23)"><tspan x="-528.039" y="660.01">Minor Failure</tspan></text><text xml:space="preserve" style="font-size:13.3333px;line-height:1.25;font-family:Arial;-inkscape-font-specification:Arial;white-space:pre;shape-inside:url(#h);display:inline" transform="matrix(.26458 0 0 .26458 158.771 -42.831)"><tspan x="-528.039" y="647.242">4-7</tspan></text><text xml:space="preserve" style="font-style:normal;font-variant:normal;font-weight:400;font-stretch:normal;font-size:13.3333px;line-height:1.25;font-family:Arial;-inkscape-font-specification:Arial;white-space:pre;shape-inside:url(#i);display:inline" transform="translate(54.41 122.26) scale(.26458)"><tspan x="88.756" y="48.641">Roll Damage </tspan></text><text xml:space="preserve" style="font-size:13.3333px;line-height:1.25;font-family:Arial;-inkscape-font-specification:Arial;white-space:pre;shape-inside:url(#j);display:inline" transform="matrix(.26458 0 0 .26458 171.858 -39.127)"><tspan x="-528.039" y="660.01">Minor Success</tspan></text><text xml:space="preserve" style="font-size:13.3333px;line-height:1.25;font-family:Arial;-inkscape-font-specification:Arial;white-space:pre;shape-inside:url(#k);display:inline" transform="matrix(.26458 0 0 .26458 158.116 -35.765)"><tspan x="-528.039" y="647.242">8-11</tspan></text><text xml:space="preserve" style="font-style:normal;font-variant:normal;font-weight:400;font-stretch:normal;font-size:13.3333px;line-height:1.25;font-family:Arial;-inkscape-font-specification:Arial;white-space:pre;shape-inside:url(#l);display:inline" transform="translate(38.362 129.364) scale(.26458)"><tspan x="88.756" y="48.641">Roll Damage, gain 1 Attack Effect </tspan></text><text xml:space="preserve" style="font-size:13.3333px;line-height:1.25;font-family:Arial;-inkscape-font-specification:Arial;white-space:pre;shape-inside:url(#m);display:inline" transform="matrix(.26458 0 0 .26458 168.817 -32.044)"><tspan x="-528.039" y="660.01">Moderate Success</tspan></text><text xml:space="preserve" style="font-style:normal;font-variant:normal;font-weight:400;font-stretch:normal;font-size:13.3333px;line-height:1.25;font-family:Arial;-inkscape-font-specification:Arial;white-space:pre;shape-inside:url(#n);display:inline" transform="translate(37.549 136.447) scale(.26458)"><tspan x="88.756" y="48.641">Roll Damage, gain 2 Attack Effects</tspan></text><text xml:space="preserve" style="font-size:13.3333px;line-height:1.25;font-family:Arial;-inkscape-font-specification:Arial;white-space:pre;shape-inside:url(#o);display:inline" transform="matrix(.26458 0 0 .26458 171.858 -25.312)"><tspan x="-528.039" y="660.01">Major Success</tspan></text><text xml:space="preserve" style="font-style:normal;font-variant:normal;font-weight:700;font-stretch:normal;font-size:16px;line-height:1.25;font-family:Arial;-inkscape-font-specification:&quot;Arial Bold&quot;;white-space:pre;shape-inside:url(#p);display:inline;fill:#fff" transform="matrix(.26458 0 0 .26458 1009.904 -175.341)"><tspan x="-3302.539" y="1095.482">Skill Checks</tspan></text><text xml:space="preserve" style="font-style:normal;font-variant:normal;font-weight:700;font-stretch:normal;font-size:16px;line-height:1.25;font-family:Arial;-inkscape-font-specification:&quot;Arial Bold&quot;;white-space:pre;shape-inside:url(#q);display:inline;fill:#fff" transform="matrix(.26458 0 0 .26458 1081.996 -175.34)"><tspan x="-3302.539" y="1095.482">Death Checks</tspan></text><text xml:space="preserve" style="font-style:normal;font-variant:normal;font-weight:700;font-stretch:normal;font-size:16px;line-height:1.25;font-family:Arial;-inkscape-font-specification:&quot;Arial Bold&quot;;white-space:pre;shape-inside:url(#r);display:inline;fill:#fff" transform="matrix(.26458 0 0 .26458 947.538 -175.34)"><tspan x="-3302.539" y="1095.482">Attack Checks</tspan></text><text xml:space="preserve" style="font-style:normal;font-variant:normal;font-weight:700;font-stretch:normal;font-size:16px;line-height:1.25;font-family:Arial;-inkscape-font-specification:&quot;Arial Bold&quot;;white-space:pre;shape-inside:url(#s);display:inline;fill:#fff" transform="matrix(.26458 0 0 .26458 891.342 -175.365)"><tspan x="-3302.539" y="1095.482">Roll</tspan></text><text xml:space="preserve" style="font-style:normal;font-variant:normal;font-weight:700;font-stretch:normal;font-size:16px;line-height:1.25;font-family:Arial;-inkscape-font-specification:&quot;Arial Bold&quot;;white-space:pre;shape-inside:url(#t);display:inline;fill:#fff" transform="matrix(.26458 0 0 .26458 910.976 -175.365)"><tspan x="-3302.539" y="1095.482">Result</tspan></text><text xml:space="preserve" style="font-size:13.3333px;line-height:1.25;font-family:Arial;-inkscape-font-specification:Arial;white-space:pre;shape-inside:url(#u);display:inline" transform="matrix(.26458 0 0 .26458 1127.39 -173.842)"><tspan x="-3756.15" y="1114.389">Fail, Complications</tspan></text><text xml:space="preserve" style="font-size:13.3333px;line-height:1.25;font-family:Arial;-inkscape-font-specification:Arial;white-space:pre;shape-inside:url(#v);display:inline" transform="matrix(.26458 0 0 .26458 1204.28 -173.513)"><tspan x="-3756.15" y="1114.389">Character Dies</tspan></text><text xml:space="preserve" style="font-size:13.3333px;line-height:1.25;font-family:Arial;-inkscape-font-specification:Arial;white-space:pre;shape-inside:url(#w);display:inline" transform="matrix(.26458 0 0 .26458 1200.487 -166.43)"><tspan x="-3756.15" y="1114.389">-1 on Death Checks</tspan></text><text xml:space="preserve" style="font-size:13.3333px;line-height:1.25;font-family:Arial;-inkscape-font-specification:Arial;white-space:pre;shape-inside:url(#x);display:inline" transform="matrix(.26458 0 0 .26458 1208.72 -159.347)"><tspan x="-3756.15" y="1114.389">No Effect</tspan></text><text xml:space="preserve" style="font-size:13.3333px;line-height:1.25;font-family:Arial;-inkscape-font-specification:Arial;white-space:pre;shape-inside:url(#y);display:inline" transform="matrix(.26458 0 0 .26458 1200.002 -152.265)"><tspan x="-3756.15" y="1114.389">+1 on Death Checks</tspan></text><text xml:space="preserve" style="font-size:13.3333px;line-height:1.25;font-family:Arial;-inkscape-font-specification:Arial;white-space:pre;shape-inside:url(#z);display:inline" transform="matrix(.26458 0 0 .26458 1182.757 -145.533)"><tspan x="-3756.15" y="1114.389">Lose Dying, Gain 1 Health, Gain Wounded</tspan></text><text xml:space="preserve" style="font-size:13.3333px;line-height:1.25;font-family:Arial;-inkscape-font-specification:Arial;white-space:pre;shape-inside:url(#A);display:inline" transform="matrix(.26458 0 0 .26458 1113.143 -166.76)"><tspan x="-3756.15" y="1114.389">Succeed or Fail, Minor Complications</tspan></text><text xml:space="preserve" style="font-size:13.3333px;line-height:1.25;font-family:Arial;-inkscape-font-specification:Arial;white-space:pre;shape-inside:url(#B);display:inline" transform="matrix(.26458 0 0 .26458 1118.533 -159.677)"><tspan x="-3756.15" y="1114.389">Succeed, Minor Complications</tspan></text><text xml:space="preserve" style="font-size:13.3333px;line-height:1.25;font-family:Arial;-inkscape-font-specification:Arial;white-space:pre;shape-inside:url(#C);display:inline" transform="matrix(.26458 0 0 .26458 1135.551 -152.494)"><tspan x="-3756.15" y="1114.389">Succeed</tspan></text><text xml:space="preserve" style="font-size:13.3333px;line-height:1.25;font-family:Arial;-inkscape-font-specification:Arial;white-space:pre;shape-inside:url(#D);display:inline" transform="matrix(.26458 0 0 .26458 1128.138 -145.411)"><tspan x="-3756.15" y="1114.389">Succeed, Benefits</tspan></text><text xml:space="preserve" x="152.669" style="font-size:13.3333px;line-height:1.25;font-family:Arial;-inkscape-font-specification:Arial;text-align:center;white-space:pre;shape-inside:url(#E);display:inline" transform="matrix(.26458 0 0 .26458 888.988 -176.421)"><tspan x="-2672.907" y="1256.784"><tspan style="font-style:italic;font-weight:700;-inkscape-font-specification:&quot;Arial Bold Italic&quot;">Dying - </tspan>Can only make Death Checks. They cannot </tspan><tspan x="-2670.065" y="1273.45">perform Normal Actions, Reactions, or gain Health. </tspan><tspan x="-2672.864" y="1290.117">Attack Checks against them gain a +1 bonus. Dying </tspan><tspan x="-2593.362" y="1306.783">Characters are Helpless.
</tspan><tspan x="-2612.243" y="1323.45"><tspan style="font-style:italic;font-weight:700;-inkscape-font-specification:&quot;Arial Bold Italic&quot;">Stabilizing a Dying Character</tspan>
</tspan><tspan x="-2661.92" y="1340.117">A Character can attempt to assist in stabilizing a </tspan><tspan x="-2660.81" y="1356.783">Character with the Dying Condition by making a </tspan><tspan x="-2670.875" y="1373.45">relevant Skill Check. The Dying Character gains +3 </tspan><tspan x="-2598.932" y="1390.117">on their next Death Check.</tspan></text><text xml:space="preserve" x="104.905" style="font-size:13.3333px;line-height:1.25;font-family:Arial;-inkscape-font-specification:Arial;text-align:center;white-space:pre;shape-inside:url(#F);display:inline" transform="matrix(.26458 0 0 .26458 889.034 -176.408)"><tspan x="-3131.369" y="1256.735"><tspan style="font-style:italic;font-weight:700;-inkscape-font-specification:&quot;Arial Bold Italic&quot;">Attack! (AW) [NA] {SP}  - </tspan>Make an </tspan><tspan x="-3110.275" y="1273.401">Attack Check with a Combat </tspan><tspan x="-3113.631" y="1290.068">Technique, Resolve using the </tspan><tspan x="-3127.322" y="1306.735">Attack Check Results table. Strain </tspan><tspan x="-3115.483" y="1323.401">an Attribute determined by the </tspan><tspan x="-3118.331" y="1340.068">Combat Technique being used. </tspan><tspan x="-3116.59" y="1356.734">Each additional <tspan style="font-style:italic;font-weight:700;-inkscape-font-specification:&quot;Arial Bold Italic&quot;">Attack!</tspan> Action </tspan><tspan x="-3115.115" y="1373.401">during that round increase the </tspan><tspan x="-3091.762" y="1390.068">Strain amount by one.</tspan></text><text xml:space="preserve" x="79.993" style="font-size:13.3333px;line-height:1.25;font-family:Arial;-inkscape-font-specification:Arial;text-align:center;white-space:pre;shape-inside:url(#G);display:inline" transform="matrix(.26458 0 0 .26458 889.034 -176.408)"><tspan x="-3289.69" y="1256.735"><tspan style="font-style:italic;font-weight:700;-inkscape-font-specification:&quot;Arial Bold Italic&quot;">All Checks</tspan> are done by </tspan><tspan x="-3297.112" y="1273.401">rolling <tspan style="font-style:italic;font-weight:700;-inkscape-font-specification:&quot;Arial Bold Italic&quot;">2d8</tspan> and adding any </tspan><tspan x="-3273.004" y="1290.068">relevant modifiers.
</tspan><tspan x="-3298.456" y="1306.735"><tspan style="font-style:italic;font-weight:700;-inkscape-font-specification:&quot;Arial Bold Italic&quot;">Exert - </tspan>put in extra effort to </tspan><tspan x="-3283.766" y="1323.401">increase the chance a </tspan><tspan x="-3288.57" y="1340.068">Check succeeds. Strain </tspan><tspan x="-3291.178" y="1356.734">the Attribute used for the </tspan><tspan x="-3280.794" y="1373.401">Check and Roll <tspan style="font-style:italic;font-weight:700;-inkscape-font-specification:&quot;Arial Bold Italic&quot;">2d10</tspan> </tspan><tspan x="-3266.715" y="1390.068">(instead of 2d8).</tspan></text><text xml:space="preserve" x="116.341" style="font-size:13.3333px;line-height:1.25;font-family:Arial;-inkscape-font-specification:Arial;text-align:center;white-space:pre;shape-inside:url(#H);display:inline" transform="matrix(.26458 0 0 .26458 888.984 -176.408)"><tspan x="-2904.524" y="1256.735"><tspan style="font-style:italic;font-weight:700;-inkscape-font-specification:&quot;Arial Bold Italic&quot;">Skill Checks </tspan>are used to determine </tspan><tspan x="-2914.898" y="1273.401">the outcome of many actions where the </tspan><tspan x="-2908.089" y="1290.068">result is uncertain. The Game Master </tspan><tspan x="-2911.552" y="1306.735">will determine which Skill and Attribute </tspan><tspan x="-2887.112" y="1323.401">should be used for the Check.
</tspan><tspan x="-2914.876" y="1340.068"><tspan style="font-style:italic;font-weight:700;-inkscape-font-specification:&quot;Arial Bold Italic&quot;">Simplified Skill Checks</tspan> - Not resolved </tspan><tspan x="-2907.353" y="1356.734">normally, the source of the Simplified </tspan><tspan x="-2910.058" y="1373.401">Skill Check will specify how to resolve </tspan><tspan x="-2830.407" y="1390.068">the Check.</tspan></text><path d="M1204.681 28.198v77.918M1172.931 28.198V63.61M1261.831 28.198v77.918M1325.331 28.198v77.918M1409.224 63.61h-248.993M1160.231 56.528h248.993M1409.224 49.445h-248.993M1160.231 42.363h248.993M1409.224 35.28h-248.993" style="font-variation-settings:normal;vector-effect:none;fill:none;fill-opacity:1;stroke:#000;stroke-width:.352777;stroke-linecap:butt;stroke-linejoin:miter;stroke-miterlimit:4;stroke-dasharray:none;stroke-dashoffset:0;stroke-opacity:1;-inkscape-stroke:none;stop-color:#000" transform="translate(-1145.029 88.334)"/><path d="M1158.728 107.616h252" style="font-variation-settings:normal;vector-effect:none;fill:none;fill-opacity:1;stroke:#fff;stroke-width:.352777;stroke-linecap:butt;stroke-linejoin:miter;stroke-miterlimit:4;stroke-dasharray:.705554,.352777;stroke-dashoffset:0;stroke-opacity:1;-inkscape-stroke:none;stop-color:#000" transform="translate(-1145.029 88.334)"/><path d="M585.22 19.95h189.001v88H585.22z" style="font-variation-settings:normal;vector-effect:none;fill:#000;fill-opacity:1;fill-rule:evenodd;stroke:none;stroke-width:.352777;stroke-linecap:butt;stroke-linejoin:miter;stroke-miterlimit:4;stroke-dasharray:.705554,.352777;stroke-dashoffset:0;stroke-opacity:1;-inkscape-stroke:none;stop-color:#000" transform="translate(-571.52)"/><path d="M586.742 30.975h185.979v75.475H586.742z" style="font-variation-settings:normal;vector-effect:none;fill:#fff;fill-opacity:1;fill-rule:evenodd;stroke:none;stroke-width:.352777;stroke-linecap:butt;stroke-linejoin:miter;stroke-miterlimit:4;stroke-dasharray:none;stroke-dashoffset:0;stroke-opacity:1;-inkscape-stroke:none;stop-color:#000" transform="translate(-571.52)"/><text xml:space="preserve" style="font-style:italic;font-variant:normal;font-weight:700;font-stretch:normal;font-size:16px;line-height:1.25;font-family:Arial;-inkscape-font-specification:&quot;Arial Bold Italic&quot;;white-space:pre;shape-inside:url(#I);display:inline" transform="matrix(.26458 0 0 .26458 -497.73 1.414)"><tspan x="2223.664" y="384.605">Mark</tspan></text><text xml:space="preserve" style="font-style:italic;font-variant:normal;font-weight:700;font-stretch:normal;font-size:16px;line-height:1.25;font-family:Arial;-inkscape-font-specification:&quot;Arial Bold Italic&quot;;white-space:pre;shape-inside:url(#J);display:inline" transform="matrix(.26458 0 0 .26458 -518.538 1.02)"><tspan x="2223.664" y="384.605">Object</tspan></text><text xml:space="preserve" style="font-size:13.3333px;line-height:1.25;font-family:Arial;-inkscape-font-specification:Arial;white-space:pre;shape-inside:url(#K);display:inline" transform="matrix(.26458 0 0 .26458 160.427 -134.653)"><tspan x="-528.039" y="647.242">&lt;4</tspan></text><text xml:space="preserve" style="font-size:13.3333px;line-height:1.25;font-family:Arial;-inkscape-font-specification:Arial;white-space:pre;shape-inside:url(#L);display:inline" transform="matrix(.26458 0 0 .26458 159.958 -129.116)"><tspan x="-528.039" y="647.242">4-7</tspan></text><text xml:space="preserve" style="font-size:13.3333px;line-height:1.25;font-family:Arial;-inkscape-font-specification:Arial;white-space:pre;shape-inside:url(#M);display:inline" transform="matrix(.26458 0 0 .26458 159.302 -123.595)"><tspan x="-528.039" y="647.242">8-11</tspan></text><text xml:space="preserve" style="font-size:13.3333px;line-height:1.25;font-family:Arial;-inkscape-font-specification:Arial;white-space:pre;shape-inside:url(#N);display:inline" transform="matrix(.26458 0 0 .26458 174.207 -138.402)"><tspan x="-528.039" y="660.01">Major Failure</tspan></text><text xml:space="preserve" style="font-size:13.3333px;line-height:1.25;font-family:Arial;-inkscape-font-specification:Arial;white-space:pre;shape-inside:url(#O);display:inline" transform="matrix(.26458 0 0 .26458 174.207 -132.515)"><tspan x="-528.039" y="660.01">Minor Failure</tspan></text><text xml:space="preserve" style="font-size:13.3333px;line-height:1.25;font-family:Arial;-inkscape-font-specification:Arial;white-space:pre;shape-inside:url(#P);display:inline" transform="matrix(.26458 0 0 .26458 172.927 -126.957)"><tspan x="-528.039" y="660.01">Minor Success</tspan></text><text xml:space="preserve" style="font-size:13.3333px;line-height:1.25;font-family:Arial;-inkscape-font-specification:Arial;white-space:pre;shape-inside:url(#Q);display:inline" transform="matrix(.26458 0 0 .26458 172.927 -116.232)"><tspan x="-528.039" y="660.01">Major Success</tspan></text><text xml:space="preserve" style="font-size:13.3333px;line-height:1.25;font-family:Arial;-inkscape-font-specification:Arial;white-space:pre;shape-inside:url(#R);display:inline" transform="matrix(.26458 0 0 .26458 159.363 -112.52)"><tspan x="-528.039" y="647.242">15+</tspan></text><text xml:space="preserve" style="font-size:13.3333px;line-height:1.25;font-family:Arial;-inkscape-font-specification:Arial;white-space:pre;shape-inside:url(#S);display:inline" transform="matrix(.26458 0 0 .26458 169.886 -121.42)"><tspan x="-528.039" y="660.01">Moderate Success</tspan></text><text xml:space="preserve" style="font-size:13.3333px;line-height:1.25;font-family:Arial;-inkscape-font-specification:Arial;white-space:pre;shape-inside:url(#T);display:inline" transform="matrix(.26458 0 0 .26458 157.708 -118.036)"><tspan x="-528.039" y="647.242">12-14</tspan></text><text xml:space="preserve" style="font-size:13.3333px;line-height:1.25;font-family:Arial;-inkscape-font-specification:Arial;white-space:pre;shape-inside:url(#U);display:inline" transform="matrix(.26458 0 0 .26458 189.786 -86.611)"><tspan x="-392.088" y="464.346">Invocation Fails.Suffer 1 Casting Exhaustion, Complications</tspan></text><text xml:space="preserve" style="font-size:13.3333px;line-height:1.25;font-family:Arial;-inkscape-font-specification:Arial;white-space:pre;shape-inside:url(#V);display:inline" transform="matrix(.26458 0 0 .26458 185.815 -86.455)"><tspan x="-392.088" y="484.682">Success. Effects are Weakened and Suffer 1 Casting Exhaustion</tspan></text><text xml:space="preserve" style="font-size:13.3333px;line-height:1.25;font-family:Arial;-inkscape-font-specification:Arial;white-space:pre;shape-inside:url(#W);display:inline" transform="matrix(.26458 0 0 .26458 194.81 -86.298)"><tspan x="-392.088" y="505.018">Suffer 1 Casting Exhaustion or Effects are Weakened</tspan></text><text xml:space="preserve" style="font-size:13.3333px;line-height:1.25;font-family:Arial;-inkscape-font-specification:Arial;white-space:pre;shape-inside:url(#X);display:inline" transform="matrix(.26458 0 0 .26458 181.571 -86.142)"><tspan x="-392.088" y="525.354">You may choose Strengthened, if you do, Suffer 1 Casting Exhaustion</tspan></text><text xml:space="preserve" style="font-size:13.3333px;line-height:1.25;font-family:Arial;-inkscape-font-specification:Arial;white-space:pre;shape-inside:url(#Y);display:inline" transform="matrix(.26458 0 0 .26458 216.476 -85.985)"><tspan x="-392.088" y="545.69">Effects are Strengthened</tspan></text><text xml:space="preserve" style="font-style:normal;font-variant:normal;font-weight:700;font-stretch:normal;font-size:16px;line-height:1.25;font-family:Arial;-inkscape-font-specification:&quot;Arial Bold&quot;;white-space:pre;shape-inside:url(#Z);display:inline;fill:#fff" transform="matrix(.26458 0 0 .26458 -268.778 -424.894)"><tspan x="1395.596" y="1706.277">Casting</tspan></text><path d="M632.526 49.177h138.608v5.537H632.526zM588.312 49.177h11.895v5.537h-11.895z" style="font-variation-settings:normal;vector-effect:none;fill:none;fill-opacity:1;fill-rule:evenodd;stroke:#000;stroke-width:.352777;stroke-linecap:butt;stroke-linejoin:miter;stroke-miterlimit:4;stroke-dasharray:none;stroke-dashoffset:0;stroke-opacity:1;-inkscape-stroke:none;stop-color:#000" transform="translate(-571.52)"/><path d="M600.207 49.177h32.32v5.537h-32.32z" style="font-variation-settings:normal;vector-effect:none;fill:none;fill-opacity:1;fill-rule:evenodd;stroke:#000;stroke-width:.352776;stroke-linecap:butt;stroke-linejoin:miter;stroke-miterlimit:4;stroke-dasharray:none;stroke-dashoffset:0;stroke-opacity:1;-inkscape-stroke:none;stop-color:#000" transform="translate(-571.52)"/><path d="M632.526 43.64h138.608v5.537H632.526zM588.312 43.64h11.895v5.537h-11.895z" style="font-variation-settings:normal;vector-effect:none;fill:none;fill-opacity:1;fill-rule:evenodd;stroke:#000;stroke-width:.352777;stroke-linecap:butt;stroke-linejoin:miter;stroke-miterlimit:4;stroke-dasharray:none;stroke-dashoffset:0;stroke-opacity:1;-inkscape-stroke:none;stop-color:#000" transform="translate(-571.52)"/><path d="M600.207 43.64h32.32v5.537h-32.32z" style="font-variation-settings:normal;vector-effect:none;fill:none;fill-opacity:1;fill-rule:evenodd;stroke:#000;stroke-width:.352776;stroke-linecap:butt;stroke-linejoin:miter;stroke-miterlimit:4;stroke-dasharray:none;stroke-dashoffset:0;stroke-opacity:1;-inkscape-stroke:none;stop-color:#000" transform="translate(-571.52)"/><path d="M632.526 38.102h138.608v5.537H632.526zM588.312 38.102h11.895v5.537h-11.895z" style="font-variation-settings:normal;vector-effect:none;fill:none;fill-opacity:1;fill-rule:evenodd;stroke:#000;stroke-width:.352777;stroke-linecap:butt;stroke-linejoin:miter;stroke-miterlimit:4;stroke-dasharray:none;stroke-dashoffset:0;stroke-opacity:1;-inkscape-stroke:none;stop-color:#000" transform="translate(-571.52)"/><path d="M600.207 38.102h32.32v5.537h-32.32zM600.207 32.565h32.32v5.537h-32.32zM600.207 54.714h32.32v5.537h-32.32z" style="font-variation-settings:normal;vector-effect:none;fill:none;fill-opacity:1;fill-rule:evenodd;stroke:#000;stroke-width:.352776;stroke-linecap:butt;stroke-linejoin:miter;stroke-miterlimit:4;stroke-dasharray:none;stroke-dashoffset:0;stroke-opacity:1;-inkscape-stroke:none;stop-color:#000" transform="translate(-571.52)"/><text xml:space="preserve" style="font-size:13.3333px;line-height:1.25;font-family:Arial;-inkscape-font-specification:Arial;white-space:pre;shape-inside:url(#aa);display:inline" transform="matrix(.26458 0 0 .26458 -353.306 -424.207)"><tspan x="1756.103" y="1943.815"><tspan style="font-style:italic;font-weight:700;-inkscape-font-specification:&quot;Arial Bold Italic&quot;">Casting Exhaustion - </tspan>Each instance of Casting </tspan><tspan x="1756.103" y="1960.481">Exhaustion Inflicts a -1 penalty to Casting Checks. At </tspan><tspan x="1756.103" y="1977.148">the end of a Full Rest remove all Casting Exhaustion </tspan><tspan x="1756.103" y="1993.815">you have.</tspan></text><text xml:space="preserve" style="font-size:13.3333px;line-height:1.25;font-family:Arial;-inkscape-font-specification:Arial;white-space:pre;shape-inside:url(#ab);display:inline" transform="matrix(.26458 0 0 .26458 -446.408 -425.98)"><tspan x="1756.086" y="1859.449"><tspan style="font-style:italic;font-weight:700;-inkscape-font-specification:&quot;Arial Bold Italic&quot;">Cast Invocation (1R) [NA] {1 Casting Attribute} - </tspan></tspan><tspan x="1756.086" y="1876.116">Select an Invocation, perform your Casting Aspect, and </tspan><tspan x="1756.086" y="1892.783">make a Casting Check. Alternatively, You may forgo </tspan><tspan x="1756.086" y="1909.449">performing your Casting Aspect but suffer 1 Casting </tspan><tspan x="1756.086" y="1926.116">Exhaustion. Outside of Combat Encounters you do not </tspan><tspan x="1756.086" y="1942.783">need to Strain to perform this Action.</tspan></text><text xml:space="preserve" style="font-size:10.6667px;line-height:1.25;font-family:Arial;-inkscape-font-specification:Arial;white-space:pre;shape-inside:url(#ac);display:inline" transform="matrix(.26458 0 0 .26458 -261.173 -426.352)"><tspan x="1404.609" y="1857.141"><tspan style="font-style:italic;font-weight:700;-inkscape-font-specification:&quot;Arial Bold Italic&quot;">Channeling -</tspan> The Character can not Cast another Invocation with a </tspan><tspan x="1404.609" y="1870.475">duration. Additionally, any time that Character Suffers Damage they </tspan><tspan x="1404.609" y="1883.808">must make a Simplified Casting Check. On Any Failure the Effects of </tspan><tspan x="1404.609" y="1897.141">the Invocation end and the Channeling Condition is removed from the </tspan><tspan x="1404.609" y="1910.475">Character. Additionally, as a Reaction the Character can choose to end </tspan><tspan x="1404.609" y="1923.808">the Invocation and remove the Channeling Condition.</tspan></text><path d="m590.172 89.443-1.86-1.86V63.702l1.86-1.86h87.685l1.86 1.86v23.883l-1.86 1.86zM683.144 84.393l-1.828-1.86V63.678l1.828-1.86h86.16l1.827 1.86v18.857l-1.827 1.86zM683.144 104.86l-1.828-1.86V87.853l1.828-1.86h86.16l1.827 1.86V103l-1.827 1.86zM590.172 104.86l-1.827-1.86V92.893l1.827-1.86h87.717l1.827 1.86V103l-1.827 1.86zM771.134 58.391V34.425l-1.844-1.86H590.156l-1.844 1.86v23.966l1.844 1.86H769.29z" style="font-variation-settings:normal;vector-effect:none;fill:none;fill-opacity:1;stroke:#000;stroke-width:.352777;stroke-linecap:butt;stroke-linejoin:miter;stroke-miterlimit:4;stroke-dasharray:none;stroke-dashoffset:0;stroke-opacity:1;-inkscape-stroke:none;stop-color:#000" transform="translate(-571.52)"/><path d="M775.721 21.45h60v85h-60z" style="font-variation-settings:normal;vector-effect:none;fill:#fff;fill-opacity:1;fill-rule:evenodd;stroke:none;stroke-width:.352777;stroke-linecap:butt;stroke-linejoin:miter;stroke-miterlimit:4;stroke-dasharray:none;stroke-dashoffset:0;stroke-opacity:1;-inkscape-stroke:none;stop-color:#000" transform="translate(-571.52)"/><text xml:space="preserve" x="794.299" y="103.54" style="font-style:normal;font-variant:normal;font-weight:400;font-stretch:normal;font-size:4.23333px;line-height:1.25;font-family:Arial;-inkscape-font-specification:Arial;white-space:pre;display:inline;fill:#000;fill-opacity:1;stroke:none;stroke-width:.352778;stroke-dasharray:none" transform="translate(-571.52)"><tspan style="font-size:4.23333px;stroke-width:.352778;stroke-dasharray:none">Trickery</tspan></text><text xml:space="preserve" x="793.643" y="87.572" style="font-style:normal;font-variant:normal;font-weight:400;font-stretch:normal;font-size:4.23333px;line-height:1.25;font-family:Arial;-inkscape-font-specification:Arial;white-space:pre;display:inline;fill:#000;fill-opacity:1;stroke:none;stroke-width:.352778;stroke-dasharray:none" transform="translate(-571.52)"><tspan style="font-size:4.23333px;stroke-width:.352778;stroke-dasharray:none">Knowing</tspan></text><text xml:space="preserve" x="794.744" y="63.619" style="font-style:normal;font-variant:normal;font-weight:400;font-stretch:normal;font-size:4.23333px;line-height:1.25;font-family:Arial;-inkscape-font-specification:Arial;white-space:pre;display:inline;fill:#000;fill-opacity:1;stroke:none;stroke-width:.352778;stroke-dasharray:none" transform="translate(-571.52)"><tspan style="font-size:4.23333px;stroke-width:.352778;stroke-dasharray:none">Altering</tspan></text><text xml:space="preserve" x="791.841" y="80.008" style="font-style:normal;font-variant:normal;font-weight:400;font-stretch:normal;font-size:4.23333px;line-height:1.25;font-family:Arial;-inkscape-font-specification:Arial;white-space:pre;display:inline;fill:#000;fill-opacity:1;stroke:none;stroke-width:.352778;stroke-dasharray:none" transform="translate(-571.52)"><tspan style="font-size:4.23333px;stroke-width:.352778;stroke-dasharray:none">Interaction</tspan></text><path d="M781.627 32.052h2.63l.93.93-2.245 2.245-2.245-2.245zm-1.216.765.319-.085-.033.25zm5.062 0-.32-.085.034.25zm-1.1-1.047-.233.234.234.097zm-2.863 0 .234.234-.234.097zm1.436 3.763-.13-.304.252-.004zM786.689 35.25h2.63l.93-.93-2.245-2.244-2.245 2.245zm-1.216-.764.319.085-.033-.25zm5.062 0-.32.085.034-.25zm-1.1 1.047-.233-.234.234-.097zm-2.863 0 .234-.234-.234-.097zm1.437-3.763-.131.304.252.004zM791.75 32.052h2.631l.93.93-2.245 2.245-2.245-2.245zm-1.215.765.319-.085-.033.25zm5.062 0-.32-.085.034.25zm-1.1-1.047-.233.234.234.097zm-2.863 0 .234.234-.234.097zm1.436 3.763-.13-.304.252-.004zM796.813 35.25h2.63l.93-.93-2.245-2.244-2.245 2.245zm-1.216-.764.32.085-.034-.25zm5.062 0-.319.085.033-.25zm-1.1 1.047-.233-.234.234-.097zm-2.863 0 .234-.234-.234-.097zm1.437-3.763-.131.304.252.004zM801.875 32.052h2.63l.93.93-2.245 2.245-2.245-2.245zm-1.216.765.32-.085-.034.25zm5.062 0-.319-.085.033.25zm-1.099-1.047-.234.234.234.097zm-2.864 0 .234.234-.234.097zm1.437 3.763-.131-.304.252-.004zM806.937 35.25h2.63l.93-.93-2.245-2.244-2.245 2.245zm-1.216-.764.32.085-.034-.25zm5.062 0-.319.085.033-.25zm-1.099 1.047-.234-.234.234-.097zm-2.864 0 .234-.234-.234-.097zm1.437-3.763-.131.304.253.004zM812 32.052h2.63l.93.93-2.246 2.245-2.245-2.245zm-1.217.765.32-.085-.034.25zm5.062 0-.319-.085.033.25zm-1.099-1.047-.234.234.234.097zm-2.864 0 .234.234-.234.097zm1.437 3.763-.131-.304.253-.004zM817.061 35.25h2.63l.93-.93-2.245-2.244-2.245 2.245zm-1.216-.764.32.085-.034-.25zm5.062 0-.319.085.033-.25zm-1.099 1.047-.233-.234.233-.097zm-2.864 0 .234-.234-.234-.097zm1.437-3.763-.131.304.253.004zM822.123 32.052h2.63l.93.93-2.245 2.245-2.245-2.245zm-1.216.765.32-.085-.034.25zm5.062 0-.319-.085.033.25zm-1.099-1.047-.233.234.233.097zm-2.864 0 .234.234-.234.097zm1.437 3.763-.131-.304.253-.004zM827.185 35.25h2.63l.93-.93-2.245-2.244-2.245 2.245zm-1.216-.764.32.085-.034-.25zm5.062 0-.319.085.033-.25zm-1.099 1.047-.233-.234.233-.097zm-2.864 0 .234-.234-.234-.097zm1.437-3.763-.131.304.253.004z" style="font-variation-settings:normal;vector-effect:none;fill:none;fill-opacity:1;stroke:#000;stroke-width:.352777;stroke-linecap:butt;stroke-linejoin:miter;stroke-miterlimit:4;stroke-dasharray:none;stroke-dashoffset:0;stroke-opacity:1;-inkscape-stroke:none;stop-color:#000" transform="translate(-571.52)"/><path d="M775.721 52.208h60v6.35h-60zm0-15.88h60v6.35h-60zm0-14.878h60v9.525h-60zm-1.5-1.5v88h63v-88zm1.5 1.5h60v85h-60z" style="vector-effect:none;fill-rule:evenodd;stroke-width:.352777;stop-color:#000" transform="translate(-571.52)"/><text xml:space="preserve" style="font-style:normal;font-variant:normal;font-weight:700;font-stretch:normal;font-size:16px;line-height:1.25;font-family:Arial;-inkscape-font-specification:&quot;Arial Bold&quot;;white-space:pre;shape-inside:url(#ad);display:inline;fill:#fff" transform="matrix(.26458 0 0 .26458 -90.624 -218.643)"><tspan x="1153.168" y="929.58">Casting Exhaustion</tspan></text><text xml:space="preserve" x="791.639" y="95.976" style="font-style:normal;font-variant:normal;font-weight:400;font-stretch:normal;font-size:4.23333px;line-height:1.25;font-family:Arial;-inkscape-font-specification:Arial;white-space:pre;display:inline;fill:#000;fill-opacity:1;stroke:none;stroke-width:.352778;stroke-dasharray:none" transform="translate(-571.52)"><tspan style="font-size:4.23333px;stroke-width:.352778;stroke-dasharray:none">Prevention</tspan></text><text xml:space="preserve" style="font-style:normal;font-variant:normal;font-weight:700;font-stretch:normal;font-size:16px;line-height:1.25;font-family:Arial;-inkscape-font-specification:&quot;Arial Bold&quot;;white-space:pre;shape-inside:url(#ae);display:inline;fill:#fff" transform="matrix(.26458 0 0 .26458 -88.012 -218.818)"><tspan x="1153.164" y="980.373">Casting Attribute</tspan></text><text xml:space="preserve" style="font-style:normal;font-variant:normal;font-weight:700;font-stretch:normal;font-size:16px;line-height:1.25;font-family:Arial;-inkscape-font-specification:&quot;Arial Bold&quot;;white-space:pre;shape-inside:url(#af);display:inline;fill:#fff" transform="matrix(.26458 0 0 .26458 -86.625 -216.381)"><tspan x="1153.605" y="1031.184">Casting Talents</tspan></text><path d="M805.721 44.268h26.55l1.86 1.86v2.63l-1.86 1.86h-26.55m26.66-.064-.22.127-.017-.283zm0-6.223-.22-.127-.017.284zm1.813 4.317-.127.22-.156-.237zm0-2.41-.127-.22-.156.236zm-28.473-1.97h-26.55l-1.86 1.86v2.63l1.86 1.86h26.55m-26.66-.064.22.127.017-.283zm0-6.223.22-.127.017.284zm-1.813 4.317.127.22.156-.237zm0-2.41.127-.22.156.236zM832.423 65.64l-.22.126-.017-.283zm-2.856-.005.22.127.017-.283zm2.829-6.172-.22-.127-.017.284zm-2.857.004.22-.127.017.284zm-1.648 4.525-.126-.22.283-.017zm0-2.857-.126.22.283.017zm6.173 2.83.127-.22-.284-.018zm0-2.857.127.22-.284.017zm-6.232 2.746v-2.609l1.845-1.845h2.609l1.845 1.845v2.61l-1.845 1.844h-2.61zM797.832 59.375h26.55l1.86 1.86v2.63l-1.86 1.86h-26.55m26.66-.064-.22.127-.017-.283zm0-6.223-.22-.127-.017.284zm1.813 4.317-.127.22-.156-.237zm0-2.41-.127-.22-.156.236zm-20.584-1.97h-26.55l-1.86 1.86v2.63l1.86 1.86h26.55m-26.66-.064.22.127.017-.283zm0-6.223.22-.127.017.284zm-1.814 4.317.127.22.157-.237zm0-2.41.127-.22.157.236zM832.423 73.623l-.22.127-.017-.283zm-2.856-.004.22.127.017-.283zm2.829-6.172-.22-.127-.017.284zm-2.857.004.22-.127.017.284zm-1.648 4.525-.126-.22.283-.017zm0-2.857-.126.22.283.017zm6.173 2.83.127-.22-.284-.018zm0-2.857.127.22-.284.017zm-6.232 2.746V69.23l1.845-1.845h2.609l1.845 1.845v2.61l-1.845 1.844h-2.61zM797.832 67.359h26.55l1.86 1.86v2.63l-1.86 1.86h-26.55m26.66-.064-.22.127-.017-.283zm0-6.223-.22-.127-.017.284zm1.813 4.317-.127.22-.156-.237zm0-2.41-.127-.22-.156.237zm-20.584-1.97h-26.55l-1.86 1.86v2.63l1.86 1.86h26.55m-26.66-.064.22.127.017-.283zm0-6.223.22-.127.017.284zm-1.814 4.317.127.22.157-.237zm0-2.41.127-.22.157.237z" style="font-variation-settings:normal;vector-effect:none;fill:none;fill-opacity:1;stroke:#000;stroke-width:.352777;stroke-linecap:butt;stroke-linejoin:miter;stroke-miterlimit:4;stroke-dasharray:none;stroke-dashoffset:0;stroke-opacity:1;-inkscape-stroke:none;stop-color:#000" transform="translate(-571.52)"/><text xml:space="preserve" x="788.563" y="72.024" style="font-style:normal;font-variant:normal;font-weight:400;font-stretch:normal;font-size:4.23333px;line-height:1.25;font-family:Arial;-inkscape-font-specification:Arial;white-space:pre;display:inline;fill:#000;fill-opacity:1;stroke:none;stroke-width:.352778;stroke-dasharray:none" transform="translate(-571.52)"><tspan style="font-size:4.23333px;stroke-width:.352778;stroke-dasharray:none">Enhancement</tspan></text><path d="m832.423 81.608-.22.127-.017-.284zm-2.856-.004.22.127.017-.284zm2.829-6.173-.22-.127-.017.284zm-2.857.004.22-.127.017.284zm-1.648 4.525-.126-.22.283-.017zm0-2.857-.126.22.283.017zm6.173 2.83.127-.22-.284-.018zm0-2.857.127.22-.284.017zm-6.232 2.746v-2.609l1.845-1.845h2.609l1.845 1.845v2.61l-1.845 1.844h-2.61zM797.832 75.343h26.55l1.86 1.86v2.63l-1.86 1.86h-26.55m26.66-.064-.22.127-.017-.283zm0-6.223-.22-.127-.017.284zm1.813 4.317-.127.22-.156-.237zm0-2.41-.127-.22-.156.237zm-20.584-1.97h-26.55l-1.86 1.86v2.63l1.86 1.86h26.55m-26.66-.064.22.127.017-.283zm0-6.223.22-.127.017.284zm-1.814 4.317.127.22.157-.237zm0-2.41.127-.22.157.237zM832.423 89.592l-.22.127-.017-.284zm-2.856-.004.22.127.017-.284zm2.829-6.173-.22-.127-.017.284zm-2.857.004.22-.127.017.284zm-1.648 4.525-.126-.22.283-.017zm0-2.857-.126.22.283.017zm6.173 2.83.127-.22-.284-.018zm0-2.857.127.22-.284.017zm-6.232 2.746v-2.609l1.845-1.845h2.609l1.845 1.845v2.61l-1.845 1.844h-2.61zM797.832 83.327h26.55l1.86 1.86v2.63l-1.86 1.86h-26.55m26.66-.064-.22.127-.017-.283zm0-6.223-.22-.127-.017.284zm1.813 4.317-.127.22-.156-.237zm0-2.41-.127-.22-.156.237zm-20.584-1.97h-26.55l-1.86 1.86v2.63l1.86 1.86h26.55m-26.66-.064.22.127.017-.283zm0-6.223.22-.127.017.284zm-1.814 4.317.127.22.157-.237zm0-2.41.127-.22.157.237zM832.423 97.576l-.22.127-.017-.284zm-2.856-.004.22.127.017-.284zm2.829-6.173-.22-.127-.017.284zm-2.857.004.22-.127.017.284zm-1.648 4.525-.126-.22.283-.017zm0-2.857-.126.22.283.017zm6.173 2.83.127-.22-.284-.017zm0-2.857.127.22-.284.017zm-6.232 2.747v-2.61l1.845-1.845h2.609l1.845 1.845v2.61l-1.845 1.845h-2.61zM797.832 91.31h26.55l1.86 1.86v2.631l-1.86 1.86h-26.55m26.66-.064-.22.127-.017-.283zm0-6.223-.22-.127-.017.284zm1.813 4.317-.127.22-.156-.237zm0-2.41-.127-.22-.156.237zm-20.584-1.97h-26.55l-1.86 1.86v2.63l1.86 1.86h26.55m-26.66-.064.22.127.017-.283zm0-6.223.22-.127.017.284zm-1.814 4.317.127.22.157-.237zm0-2.41.127-.22.157.237zM832.423 105.56l-.22.127-.017-.284zm-2.856-.004.22.127.017-.284zm2.829-6.172-.22-.127-.017.283zm-2.857.004.22-.127.017.283zm-1.648 4.524-.126-.22.283-.017zm0-2.857-.126.22.283.017zm6.173 2.83.127-.22-.284-.017zm0-2.857.127.22-.284.017zm-6.232 2.747v-2.61l1.845-1.845h2.609l1.845 1.845v2.61l-1.845 1.845h-2.61zM797.832 99.295h26.55l1.86 1.86v2.63l-1.86 1.86h-26.55m26.66-.063-.22.126-.017-.283zm0-6.224-.22-.126-.017.283zm1.813 4.317-.127.22-.156-.237zm0-2.41-.127-.22-.156.237zm-20.584-1.97h-26.55l-1.86 1.86v2.63l1.86 1.86h26.55m-26.66-.063.22.126.017-.283zm0-6.224.22-.126.017.283zm-1.814 4.317.127.22.157-.237zm0-2.41.127-.22.157.237z" style="font-variation-settings:normal;vector-effect:none;fill:none;fill-opacity:1;stroke:#000;stroke-width:.352777;stroke-linecap:butt;stroke-linejoin:miter;stroke-miterlimit:4;stroke-dasharray:none;stroke-dashoffset:0;stroke-opacity:1;-inkscape-stroke:none;stop-color:#000" transform="translate(-571.52)"/><path d="m774.221 19.95-.003 88" style="font-variation-settings:normal;vector-effect:none;fill:none;fill-opacity:1;stroke:#fff;stroke-width:.352777;stroke-linecap:butt;stroke-linejoin:miter;stroke-miterlimit:4;stroke-dasharray:.705554,.352777;stroke-dashoffset:0;stroke-opacity:1;-inkscape-stroke:none;stop-color:#000" transform="translate(-571.52)"/><path d="m837.22 107.95-252-.003" style="font-variation-settings:normal;vector-effect:none;fill:none;fill-opacity:1;stroke:#fff;stroke-width:.352777;stroke-linecap:butt;stroke-linejoin:miter;stroke-miterlimit:4;stroke-dasharray:.705553,.352777;stroke-dashoffset:0;stroke-opacity:1;-inkscape-stroke:none;stop-color:#000" transform="translate(-571.52)"/><text xml:space="preserve" style="font-size:10.6667px;line-height:1.25;font-family:Arial;-inkscape-font-specification:Arial;white-space:pre;shape-inside:url(#ag);display:inline" transform="matrix(.26458 0 0 .26458 -570.725 0)"><tspan x="2227.117" y="357.186"><tspan style="font-style:italic;font-weight:700;-inkscape-font-specification:&quot;Arial Bold Italic&quot;">Casting Aspect</tspan> - When Casting, you must perform the criteria of your </tspan><tspan x="2227.117" y="370.52">Casting Aspect.
</tspan></text><text xml:space="preserve" style="font-style:italic;font-variant:normal;font-weight:700;font-stretch:normal;font-size:16px;line-height:1.25;font-family:Arial;-inkscape-font-specification:&quot;Arial Bold Italic&quot;;white-space:pre;shape-inside:url(#ah);display:inline" transform="matrix(.26458 0 0 .26458 -566.769 1.414)"><tspan x="2223.664" y="384.605">Verbal</tspan></text><text xml:space="preserve" style="font-style:italic;font-variant:normal;font-weight:700;font-stretch:normal;font-size:16px;line-height:1.25;font-family:Arial;-inkscape-font-specification:&quot;Arial Bold Italic&quot;;white-space:pre;shape-inside:url(#ai);display:inline" transform="matrix(.26458 0 0 .26458 -546.721 1.414)"><tspan x="2223.664" y="384.605">Movement</tspan></text></svg>