<svg xmlns="http://www.w3.org/2000/svg" width="11in" height="816" viewBox="0 0 279.4 215.9"><defs><path id="a" d="M-528.038 635.232h26.185v24h-26.185z"/><path id="b" d="M-528.038 635.232h26.185v24h-26.185z"/><path id="c" d="M-528.038 635.232h34.683v18.74h-34.683z"/><path id="d" d="M-528.038 635.232h43.99v18.942h-43.99z"/><path id="e" d="M-528.038 635.232h43.99v18.942h-43.99z"/><path id="f" d="M-528.038 648h48v24h-48z"/><path id="g" d="M-528.038 648h48v24h-48z"/><path id="h" d="M-528.038 648h85.769v14.844h-85.769z"/><path id="i" d="M-528.038 648h66.486v15.567h-66.486z"/><path id="j" d="M-528.038 648h79.188v16.274h-79.188z"/><path id="k" d="M-528.038 648h91.206v16.274h-91.206z"/><path id="l" d="M-528.038 648h114.383v15.702h-114.383z"/><path id="m" d="M-528.038 648h114.383v15.702h-114.383z"/><path id="n" d="M-437.209 834.933h141.759v13.58h-141.759z"/><path id="o" d="M-437.209 834.933h141.759v13.58h-141.759z"/><path id="p" d="M-437.209 834.933H-274.5v15.411h-162.709z"/><path id="q" d="M-400.166 756h174.144v18h-174.144z"/><path id="r" d="M-400.166 774h174.144v18h-174.144z"/><path id="s" d="M-528.038 635.232h302.016V684h-302.016z"/></defs><path d="M10.515 21.948h279.4v215.9h-279.4z" style="font-variation-settings:normal;opacity:1;vector-effect:none;fill:#fff;fill-opacity:1;fill-rule:evenodd;stroke:none;stroke-width:.352777;stroke-linecap:butt;stroke-linejoin:miter;stroke-miterlimit:4;stroke-dasharray:none;stroke-dashoffset:0;stroke-opacity:1;-inkscape-stroke:none;stop-color:#000;stop-opacity:1" transform="translate(-10.515 -21.948)"/><path d="M16.865 34.648v-4.49l1.86-1.86h123.28l1.86 1.86v4.49z" style="font-variation-settings:normal;vector-effect:none;fill:#000;fill-opacity:1;stroke:#000;stroke-width:.352777;stroke-linecap:butt;stroke-linejoin:miter;stroke-miterlimit:4;stroke-dasharray:none;stroke-dashoffset:0;stroke-opacity:1;-inkscape-stroke:none;stop-color:#000" transform="translate(-10.515 -21.948)"/><text xml:space="preserve" x="64.491" y="32.569" style="font-style:normal;font-variant:normal;font-weight:700;font-stretch:normal;font-size:4.23333px;line-height:1.25;font-family:Arial;-inkscape-font-specification:&quot;Arial Bold&quot;;white-space:pre;display:inline;fill:#fff;stroke:none;stroke-width:.352778;stroke-dasharray:none" transform="translate(-10.515 -21.948)"><tspan style="fill:#fff;stroke-width:.352778;stroke-dasharray:none">Sturdy Pancake</tspan></text><g style="stroke-width:1.33668"><path d="m-409.565 8.742.007.007a.614.614 0 0 1 .035.037l3.386 3.68.037.04c.209.21.503.253.659.098.155-.155.11-.45-.098-.658l-.04-.038-3.68-3.386a.605.605 0 0 1-.038-.034l-.007-.007a.427.427 0 0 1-.129-.35c.001-.014.006-.028.01-.042a.444.444 0 0 0 .007-.037c.061-.368-.112-.838-.483-1.21-.369-.368-.834-.54-1.2-.484l.225.226c.039.039.041.1.005.137-.036.036-.097.032-.136-.007l-.316-.287a.579.579 0 0 0-.09.051l.274.3c.04.04.042.1.006.136-.035.036-.096.034-.136-.006l-.3-.274a.58.58 0 0 0-.051.09l.287.316c.039.04.043.1.007.136-.036.036-.098.034-.137-.005l-.226-.226c-.052.334.087.749.39 1.099.03.034.062.068.095.101.384.384.873.557 1.246.477a.292.292 0 0 1 .042-.01.428.428 0 0 1 .35.13z" style="fill:#fff;stroke:#000;stroke-width:.0471552;stroke-dasharray:none" transform="translate(344.287 2.402) scale(.74812)"/><path d="m-407.481 8.742-.007.007a.614.614 0 0 0-.035.037l-3.386 3.68-.037.04c-.209.21-.503.253-.659.098-.155-.155-.11-.45.098-.658l.04-.038 3.68-3.386a.605.605 0 0 0 .038-.034l.007-.007a.427.427 0 0 0 .129-.35c-.001-.014-.006-.028-.01-.042a.444.444 0 0 1-.007-.037c-.061-.368.112-.838.483-1.21.369-.368.834-.54 1.2-.484l-.225.226a.098.098 0 0 0-.005.137c.036.036.097.032.136-.007l.316-.287a.579.579 0 0 1 .09.051l-.274.3c-.04.04-.042.1-.006.136.035.036.096.034.136-.006l.3-.274a.58.58 0 0 1 .051.09l-.287.316c-.039.04-.043.1-.007.136.036.036.098.034.137-.005l.226-.226c.052.334-.087.749-.39 1.099-.03.034-.062.068-.095.101-.384.384-.873.557-1.246.477a.292.292 0 0 0-.042-.01.428.428 0 0 0-.35.13z" style="fill:#fff;stroke:#000;stroke-width:.0471552;stroke-dasharray:none" transform="translate(344.287 2.402) scale(.74812)"/></g><g style="stroke-width:1.33668"><path d="m-409.565 8.742.007.007a.614.614 0 0 1 .035.037l3.386 3.68.037.04c.209.21.503.253.659.098.155-.155.11-.45-.098-.658l-.04-.038-3.68-3.386a.605.605 0 0 1-.038-.034l-.007-.007a.427.427 0 0 1-.129-.35c.001-.014.006-.028.01-.042a.444.444 0 0 0 .007-.037c.061-.368-.112-.838-.483-1.21-.369-.368-.834-.54-1.2-.484l.225.226c.039.039.041.1.005.137-.036.036-.097.032-.136-.007l-.316-.287a.579.579 0 0 0-.09.051l.274.3c.04.04.042.1.006.136-.035.036-.096.034-.136-.006l-.3-.274a.58.58 0 0 0-.051.09l.287.316c.039.04.043.1.007.136-.036.036-.098.034-.137-.005l-.226-.226c-.052.334.087.749.39 1.099.03.034.062.068.095.101.384.384.873.557 1.246.477a.292.292 0 0 1 .042-.01.428.428 0 0 1 .35.13z" style="fill:#fff;stroke:#000;stroke-width:.0471552;stroke-dasharray:none" transform="translate(406.663 2.402) scale(.74812)"/><path d="m-407.481 8.742-.007.007a.614.614 0 0 0-.035.037l-3.386 3.68-.037.04c-.209.21-.503.253-.659.098-.155-.155-.11-.45.098-.658l.04-.038 3.68-3.386a.605.605 0 0 0 .038-.034l.007-.007a.427.427 0 0 0 .129-.35c-.001-.014-.006-.028-.01-.042a.444.444 0 0 1-.007-.037c-.061-.368.112-.838.483-1.21.369-.368.834-.54 1.2-.484l-.225.226a.098.098 0 0 0-.005.137c.036.036.097.032.136-.007l.316-.287a.579.579 0 0 1 .09.051l-.274.3c-.04.04-.042.1-.006.136.035.036.096.034.136-.006l.3-.274a.58.58 0 0 1 .051.09l-.287.316c-.039.04-.043.1-.007.136.036.036.098.034.137-.005l.226-.226c.052.334-.087.749-.39 1.099-.03.034-.062.068-.095.101-.384.384-.873.557-1.246.477a.292.292 0 0 0-.042-.01.428.428 0 0 0-.35.13z" style="fill:#fff;stroke:#000;stroke-width:.0471552;stroke-dasharray:none" transform="translate(406.663 2.402) scale(.74812)"/></g><g style="stroke-width:1.3369"><path d="M186.8 86.315a.434.434 0 0 0 .086-.858v-.114a.26.26 0 0 1 .26-.26.087.087 0 0 0 0-.173.434.434 0 0 0-.433.433v.114a.434.434 0 0 0 .087.858zm-2.677 4.217c.43.435 1.445.728 2.637.728s2.207-.293 2.638-.728c-.693.269-1.668.406-2.638.406s-1.945-.137-2.637-.406z" style="fill:#fff;stroke-width:.471627" transform="matrix(.748 0 0 .748 -47.579 -56.362)"/><path d="M189.79 88.99c.04.832-1.555 1.173-3.03 1.18-1.475-.007-3.07-.348-3.03-1.18-.266.173-.407.37-.407.577 0 .672 1.51 1.198 3.437 1.198 1.927 0 3.437-.526 3.437-1.198 0-.208-.14-.404-.406-.577z" style="fill:#fff;stroke-width:.471627" transform="matrix(.748 0 0 .748 -47.579 -56.362)"/><path d="M186.76 89.997c1.386 0 2.86-.34 2.86-.968a.422.422 0 0 0-.092-.254c-.508.433-1.67.635-2.768.635-1.098 0-2.26-.202-2.768-.635a.422.422 0 0 0-.091.254c0 .628 1.473.968 2.86.968z" style="fill:#fff;stroke-width:.471627" transform="matrix(.748 0 0 .748 -47.579 -56.362)"/><path d="M186.76 89.237c1.386 0 2.86-.34 2.86-.968a.422.422 0 0 0-.092-.254c-.508.434-1.67.635-2.768.635-1.098 0-2.26-.202-2.768-.635a.422.422 0 0 0-.091.254c0 .629 1.473.968 2.86.968z" style="fill:#fff;stroke-width:.471627" transform="matrix(.748 0 0 .748 -47.579 -56.362)"/><path d="M186.76 88.477c1.386 0 2.86-.34 2.86-.968a.422.422 0 0 0-.092-.254c-.508.434-1.67.636-2.768.636-1.098 0-2.26-.202-2.768-.636a.422.422 0 0 0-.091.254c0 .629 1.473.968 2.86.968z" style="fill:#fff;stroke-width:.471627" transform="matrix(.748 0 0 .748 -47.579 -56.362)"/><path d="M186.76 87.717c1.386 0 2.86-.345 2.86-.985a.37.37 0 0 0-.01-.081 9.683 9.683 0 0 1-.711.158c-.364.071-.777.153-1.21.281a3.13 3.13 0 0 1-.884.145c-.46 0-.762-.145-1.039-.278-.259-.124-.503-.24-.853-.224-.483.024-.79-.056-.982-.147a.412.412 0 0 0-.03.146c0 .64 1.473.985 2.86.985z" style="fill:#fff;stroke-width:.471627" transform="matrix(.748 0 0 .748 -47.579 -56.362)"/><path d="M184.904 86.56c.392-.02.67.113.937.24.415.2.845.406 1.798.124.441-.13.858-.213 1.226-.286.252-.05.483-.095.675-.148-.262-.398-1.162-.644-2.142-.719.003.026.008.052.008.078 0 .34-.272.618-.606.618a.613.613 0 0 1-.607-.618c0-.028.005-.056.008-.083-.965.064-1.87.293-2.183.67.166.076.443.146.886.124z" style="fill:#fff;stroke-width:.471627" transform="matrix(.748 0 0 .748 -47.579 -56.362)"/></g><g style="stroke-width:1.3369"><path d="M186.8 86.315a.434.434 0 0 0 .086-.858v-.114a.26.26 0 0 1 .26-.26.087.087 0 0 0 0-.173.434.434 0 0 0-.433.433v.114a.434.434 0 0 0 .087.858zm-2.677 4.217c.43.435 1.445.728 2.637.728s2.207-.293 2.638-.728c-.693.269-1.668.406-2.638.406s-1.945-.137-2.637-.406z" style="fill:#fff;stroke-width:.471627" transform="matrix(.748 0 0 .748 -92.114 -56.362)"/><path d="M189.79 88.99c.04.832-1.555 1.173-3.03 1.18-1.475-.007-3.07-.348-3.03-1.18-.266.173-.407.37-.407.577 0 .672 1.51 1.198 3.437 1.198 1.927 0 3.437-.526 3.437-1.198 0-.208-.14-.404-.406-.577z" style="fill:#fff;stroke-width:.471627" transform="matrix(.748 0 0 .748 -92.114 -56.362)"/><path d="M186.76 89.997c1.386 0 2.86-.34 2.86-.968a.422.422 0 0 0-.092-.254c-.508.433-1.67.635-2.768.635-1.098 0-2.26-.202-2.768-.635a.422.422 0 0 0-.091.254c0 .628 1.473.968 2.86.968z" style="fill:#fff;stroke-width:.471627" transform="matrix(.748 0 0 .748 -92.114 -56.362)"/><path d="M186.76 89.237c1.386 0 2.86-.34 2.86-.968a.422.422 0 0 0-.092-.254c-.508.434-1.67.635-2.768.635-1.098 0-2.26-.202-2.768-.635a.422.422 0 0 0-.091.254c0 .629 1.473.968 2.86.968z" style="fill:#fff;stroke-width:.471627" transform="matrix(.748 0 0 .748 -92.114 -56.362)"/><path d="M186.76 88.477c1.386 0 2.86-.34 2.86-.968a.422.422 0 0 0-.092-.254c-.508.434-1.67.636-2.768.636-1.098 0-2.26-.202-2.768-.636a.422.422 0 0 0-.091.254c0 .629 1.473.968 2.86.968z" style="fill:#fff;stroke-width:.471627" transform="matrix(.748 0 0 .748 -92.114 -56.362)"/><path d="M186.76 87.717c1.386 0 2.86-.345 2.86-.985a.37.37 0 0 0-.01-.081 9.683 9.683 0 0 1-.711.158c-.364.071-.777.153-1.21.281a3.13 3.13 0 0 1-.884.145c-.46 0-.762-.145-1.039-.278-.259-.124-.503-.24-.853-.224-.483.024-.79-.056-.982-.147a.412.412 0 0 0-.03.146c0 .64 1.473.985 2.86.985z" style="fill:#fff;stroke-width:.471627" transform="matrix(.748 0 0 .748 -92.114 -56.362)"/><path d="M184.904 86.56c.392-.02.67.113.937.24.415.2.845.406 1.798.124.441-.13.858-.213 1.226-.286.252-.05.483-.095.675-.148-.262-.398-1.162-.644-2.142-.719.003.026.008.052.008.078 0 .34-.272.618-.606.618a.613.613 0 0 1-.607-.618c0-.028.005-.056.008-.083-.965.064-1.87.293-2.183.67.166.076.443.146.886.124z" style="fill:#fff;stroke-width:.471627" transform="matrix(.748 0 0 .748 -92.114 -56.362)"/></g><path d="M16.865 34.648v194.99l1.86 1.86h123.28l1.86-1.86V34.648Z" style="font-variation-settings:normal;vector-effect:none;fill:none;fill-opacity:1;stroke:#000;stroke-width:.352777;stroke-linecap:butt;stroke-linejoin:miter;stroke-miterlimit:4;stroke-dasharray:none;stroke-dashoffset:0;stroke-opacity:1;-inkscape-stroke:none;stop-color:#000" transform="translate(-10.515 -21.948)"/><path d="M150.215 21.948v215.9" style="font-variation-settings:normal;opacity:1;fill:none;fill-opacity:1;stroke:#000;stroke-width:.3556;stroke-linecap:butt;stroke-linejoin:miter;stroke-miterlimit:4;stroke-dasharray:4.2672,.3556;stroke-dashoffset:0;stroke-opacity:1;paint-order:normal;stop-color:#000;stop-opacity:1" transform="translate(-10.515 -21.948)"/><path d="M146.504 12.84V8.35l1.856-1.858h123.01l1.855 1.86v4.49z" style="font-variation-settings:normal;vector-effect:none;fill:#000;fill-opacity:1;stroke:#000;stroke-width:.352777;stroke-linecap:butt;stroke-linejoin:miter;stroke-miterlimit:4;stroke-dasharray:none;stroke-dashoffset:0;stroke-opacity:1;-inkscape-stroke:none;stop-color:#000"/><text xml:space="preserve" x="198.061" y="11.156" style="font-style:normal;font-variant:normal;font-weight:700;font-stretch:normal;font-size:4.23333px;line-height:1.25;font-family:Arial;-inkscape-font-specification:&quot;Arial Bold&quot;;white-space:pre;display:inline;fill:#fff;stroke:none;stroke-width:.352778;stroke-dasharray:none"><tspan style="fill:#fff;stroke-width:.352778;stroke-dasharray:none">Invocations</tspan></text><path d="m273.507 8.234-.234.234-.096-.234zm-2.021-2.024v.33l-.234-.097zM146.223 8.234l.233.234.097-.234zm2.021-2.024v.33l.233-.097z" style="font-variation-settings:normal;vector-effect:none;fill:none;fill-opacity:1;stroke:#000;stroke-width:.352777;stroke-linecap:butt;stroke-linejoin:miter;stroke-miterlimit:4;stroke-dasharray:none;stroke-dashoffset:0;stroke-opacity:1;-inkscape-stroke:none;stop-color:#000"/><path d="m229.515 158.668-1.86-1.86v-2.63l1.86-1.86h41.848l1.86 1.86v2.63l-1.86 1.86z" style="font-variation-settings:normal;vector-effect:none;fill:#000;fill-opacity:1;stroke:#000;stroke-width:.352777;stroke-linecap:butt;stroke-linejoin:miter;stroke-miterlimit:4;stroke-dasharray:none;stroke-dashoffset:0;stroke-opacity:1;-inkscape-stroke:none;stop-color:#000"/><text xml:space="preserve" x="230.765" y="159.02" style="font-style:normal;font-variant:normal;font-weight:700;font-stretch:normal;font-size:4.29901px;line-height:1.25;font-family:Arial;-inkscape-font-specification:&quot;Arial Bold&quot;;white-space:pre;display:inline;fill:#fff;stroke:none;stroke-width:.352777;stroke-dasharray:none" transform="scale(1.01553 .9847)"><tspan style="stroke-width:.352777;stroke-dasharray:none">Casting Talents</tspan></text><path d="m178.062 154.061-.234.234-.096-.234zm-2.025-2.025v.33l-.234-.096zm2.025 4.889-.234-.233-.096.233zm-2.025 2.025v-.33l-.234.097zm-29.804-4.889.233.234.097-.234zm2.025-2.025v.33l.233-.096zm-2.025 4.889.233-.233.097.233zm2.025 2.025v-.33l.233.097z" style="font-variation-settings:normal;vector-effect:none;fill:#000;fill-opacity:1;stroke:#000;stroke-width:.352777;stroke-linecap:butt;stroke-linejoin:miter;stroke-miterlimit:4;stroke-dasharray:none;stroke-dashoffset:0;stroke-opacity:1;-inkscape-stroke:none;stop-color:#000"/><path d="m148.375 158.668-1.86-1.86v-2.63l1.86-1.86h27.545l1.86 1.86v2.63l-1.86 1.86z" style="font-variation-settings:normal;vector-effect:none;fill:#000;fill-opacity:1;stroke:#000;stroke-width:.352777;stroke-linecap:butt;stroke-linejoin:miter;stroke-miterlimit:4;stroke-dasharray:none;stroke-dashoffset:0;stroke-opacity:1;-inkscape-stroke:none;stop-color:#000"/><text xml:space="preserve" x="148.07" y="159.421" style="font-style:normal;font-variant:normal;font-weight:700;font-stretch:normal;font-size:4.29901px;line-height:1.25;font-family:Arial;-inkscape-font-specification:&quot;Arial Bold&quot;;white-space:pre;display:inline;fill:#fff;stroke:none;stroke-width:.352777;stroke-dasharray:none" transform="scale(1.01553 .9847)"><tspan style="stroke-width:.352777;stroke-dasharray:none">Exhaustion</tspan></text><text xml:space="preserve" x="238.71" y="173.289" style="font-style:normal;font-variant:normal;font-weight:400;font-stretch:normal;font-size:4.23333px;line-height:1.25;font-family:Arial;-inkscape-font-specification:Arial;white-space:pre;display:inline;fill:#000;fill-opacity:1;stroke:none;stroke-width:.352778;stroke-dasharray:none"><tspan style="stroke-width:.352778;stroke-dasharray:none">Trickery</tspan></text><text xml:space="preserve" x="238.054" y="181.792" style="font-style:normal;font-variant:normal;font-weight:400;font-stretch:normal;font-size:4.23333px;line-height:1.25;font-family:Arial;-inkscape-font-specification:Arial;white-space:pre;display:inline;fill:#000;fill-opacity:1;stroke:none;stroke-width:.352778;stroke-dasharray:none"><tspan style="stroke-width:.352778;stroke-dasharray:none">Knowing</tspan></text><text xml:space="preserve" x="239.155" y="190.296" style="font-style:normal;font-variant:normal;font-weight:400;font-stretch:normal;font-size:4.23333px;line-height:1.25;font-family:Arial;-inkscape-font-specification:Arial;white-space:pre;display:inline;fill:#000;fill-opacity:1;stroke:none;stroke-width:.352778;stroke-dasharray:none"><tspan style="stroke-width:.352778;stroke-dasharray:none">Altering</tspan></text><text xml:space="preserve" x="232.973" y="199.221" style="font-style:normal;font-variant:normal;font-weight:400;font-stretch:normal;font-size:4.23333px;line-height:1.25;font-family:Arial;-inkscape-font-specification:Arial;white-space:pre;display:inline;fill:#000;fill-opacity:1;stroke:none;stroke-width:.352778;stroke-dasharray:none"><tspan style="stroke-width:.352778;stroke-dasharray:none">Enhancement</tspan></text><text xml:space="preserve" x="236.252" y="207.724" style="font-style:normal;font-variant:normal;font-weight:400;font-stretch:normal;font-size:4.23333px;line-height:1.25;font-family:Arial;-inkscape-font-specification:Arial;white-space:pre;display:inline;fill:#000;fill-opacity:1;stroke:none;stroke-width:.352778;stroke-dasharray:none"><tspan style="stroke-width:.352778;stroke-dasharray:none">Interaction</tspan></text><path d="m229.797 209.409-1.86-1.86v-2.63l1.86-1.86h32.78l1.86 1.86v2.63l-1.86 1.86z" style="font-variation-settings:normal;fill:none;fill-opacity:1;stroke:#000;stroke-width:.352778;stroke-linecap:butt;stroke-linejoin:miter;stroke-miterlimit:4;stroke-dasharray:none;stroke-dashoffset:0;stroke-opacity:1;stop-color:#000"/><path d="m227.655 207.666.234-.234.097.234zm0-2.864.234.234.097-.234zm2.025 4.888v-.33l.234.097zm0-6.913v.33l.234-.096zm35.039 4.889-.234-.234-.096.234zm0-2.864-.234.234-.096-.234zm-2.025 4.888v-.33l-.234.097zm0-6.913v.33l-.234-.096z" style="font-variation-settings:normal;vector-effect:none;fill:none;fill-opacity:1;stroke:#000;stroke-width:.352777;stroke-linecap:butt;stroke-linejoin:miter;stroke-miterlimit:4;stroke-dasharray:none;stroke-dashoffset:0;stroke-opacity:1;-inkscape-stroke:none;stop-color:#000"/><path d="m229.797 200.905-1.86-1.86v-2.63l1.86-1.86h32.78l1.86 1.86v2.63l-1.86 1.86z" style="font-variation-settings:normal;fill:none;fill-opacity:1;stroke:#000;stroke-width:.352778;stroke-linecap:butt;stroke-linejoin:miter;stroke-miterlimit:4;stroke-dasharray:none;stroke-dashoffset:0;stroke-opacity:1;stop-color:#000"/><path d="m227.655 199.162.234-.233.097.233zm0-2.864.234.234.097-.234zm2.025 4.889v-.33l.234.097zm0-6.914v.33l.234-.096zm35.039 4.889-.234-.233-.096.233zm0-2.864-.234.234-.096-.234zm-2.025 4.889v-.33l-.234.097zm0-6.914v.33l-.234-.096z" style="font-variation-settings:normal;vector-effect:none;fill:none;fill-opacity:1;stroke:#000;stroke-width:.352777;stroke-linecap:butt;stroke-linejoin:miter;stroke-miterlimit:4;stroke-dasharray:none;stroke-dashoffset:0;stroke-opacity:1;-inkscape-stroke:none;stop-color:#000"/><path d="m229.797 192.401-1.86-1.86v-2.63l1.86-1.86h32.78l1.86 1.86v2.63l-1.86 1.86z" style="font-variation-settings:normal;fill:none;fill-opacity:1;stroke:#000;stroke-width:.352778;stroke-linecap:butt;stroke-linejoin:miter;stroke-miterlimit:4;stroke-dasharray:none;stroke-dashoffset:0;stroke-opacity:1;stop-color:#000"/><path d="m227.655 190.658.234-.233.097.233zm0-2.863.234.233.097-.233zm2.025 4.888v-.33l.234.097zm0-6.913v.33l.234-.097zm35.039 4.888-.234-.233-.096.233zm0-2.863-.234.233-.096-.233zm-2.025 4.888v-.33l-.234.097zm0-6.913v.33l-.234-.097z" style="font-variation-settings:normal;vector-effect:none;fill:none;fill-opacity:1;stroke:#000;stroke-width:.352777;stroke-linecap:butt;stroke-linejoin:miter;stroke-miterlimit:4;stroke-dasharray:none;stroke-dashoffset:0;stroke-opacity:1;-inkscape-stroke:none;stop-color:#000"/><path d="M266.59 207.55v-2.631l1.86-1.86h2.63l1.86 1.86v2.63l-1.86 1.86h-2.63z" style="font-variation-settings:normal;fill:none;fill-opacity:1;stroke:#000;stroke-width:.352778;stroke-linecap:butt;stroke-linejoin:miter;stroke-miterlimit:4;stroke-dasharray:none;stroke-dashoffset:0;stroke-opacity:1;stop-color:#000"/><path d="m273.223 207.666-.234-.234-.096.234zm0-2.864-.234.234-.097-.234zm-2.025 4.888v-.33l-.234.097zm0-6.913v.33l-.234-.096zm-4.889 4.889.233-.234.097.234zm0-2.864.233.234.097-.234zm2.025 4.888v-.33l.233.097zm0-6.913v.33l.233-.096z" style="font-variation-settings:normal;vector-effect:none;fill:none;fill-opacity:1;stroke:#000;stroke-width:.352777;stroke-linecap:butt;stroke-linejoin:miter;stroke-miterlimit:4;stroke-dasharray:none;stroke-dashoffset:0;stroke-opacity:1;-inkscape-stroke:none;stop-color:#000"/><path d="M266.59 199.045v-2.63l1.86-1.86h2.63l1.86 1.86v2.63l-1.86 1.86h-2.63z" style="font-variation-settings:normal;fill:none;fill-opacity:1;stroke:#000;stroke-width:.352778;stroke-linecap:butt;stroke-linejoin:miter;stroke-miterlimit:4;stroke-dasharray:none;stroke-dashoffset:0;stroke-opacity:1;stop-color:#000"/><path d="m273.223 199.162-.234-.233-.096.233zm0-2.864-.234.234-.097-.234zm-2.025 4.889v-.33l-.234.097zm0-6.914v.33l-.234-.096zm-4.889 4.889.233-.233.097.233zm0-2.864.233.234.097-.234zm2.025 4.889v-.33l.233.097zm0-6.914v.33l.233-.096z" style="font-variation-settings:normal;vector-effect:none;fill:none;fill-opacity:1;stroke:#000;stroke-width:.352777;stroke-linecap:butt;stroke-linejoin:miter;stroke-miterlimit:4;stroke-dasharray:none;stroke-dashoffset:0;stroke-opacity:1;-inkscape-stroke:none;stop-color:#000"/><path d="m229.797 183.898-1.86-1.86v-2.63l1.86-1.86h32.78l1.86 1.86v2.63l-1.86 1.86z" style="font-variation-settings:normal;fill:none;fill-opacity:1;stroke:#000;stroke-width:.352778;stroke-linecap:butt;stroke-linejoin:miter;stroke-miterlimit:4;stroke-dasharray:none;stroke-dashoffset:0;stroke-opacity:1;stop-color:#000"/><path d="m227.655 182.155.234-.234.097.234zm0-2.865.234.234.097-.233zm2.025 4.89v-.33l.234.096zm0-6.914v.33l.234-.097zm35.039 4.889-.234-.234-.096.234zm0-2.865-.234.234-.096-.233zm-2.025 4.89v-.33l-.234.096zm0-6.914v.33l-.234-.097z" style="font-variation-settings:normal;vector-effect:none;fill:none;fill-opacity:1;stroke:#000;stroke-width:.352777;stroke-linecap:butt;stroke-linejoin:miter;stroke-miterlimit:4;stroke-dasharray:none;stroke-dashoffset:0;stroke-opacity:1;-inkscape-stroke:none;stop-color:#000"/><path d="m229.797 175.394-1.86-1.86v-2.63l1.86-1.86h32.78l1.86 1.86v2.63l-1.86 1.86z" style="font-variation-settings:normal;fill:none;fill-opacity:1;stroke:#000;stroke-width:.352778;stroke-linecap:butt;stroke-linejoin:miter;stroke-miterlimit:4;stroke-dasharray:none;stroke-dashoffset:0;stroke-opacity:1;stop-color:#000"/><path d="m227.655 173.65.234-.233.097.234zm0-2.863.234.234.097-.234zm2.025 4.889v-.33l.234.096zm0-6.914v.33l.234-.097zm35.039 4.888-.234-.233-.096.234zm0-2.863-.234.234-.096-.234zm-2.025 4.889v-.33l-.234.096zm0-6.914v.33l-.234-.097z" style="font-variation-settings:normal;vector-effect:none;fill:none;fill-opacity:1;stroke:#000;stroke-width:.352777;stroke-linecap:butt;stroke-linejoin:miter;stroke-miterlimit:4;stroke-dasharray:none;stroke-dashoffset:0;stroke-opacity:1;-inkscape-stroke:none;stop-color:#000"/><text xml:space="preserve" x="236.05" y="165.205" style="font-style:normal;font-variant:normal;font-weight:400;font-stretch:normal;font-size:4.23333px;line-height:1.25;font-family:Arial;-inkscape-font-specification:Arial;white-space:pre;display:inline;fill:#000;fill-opacity:1;stroke:none;stroke-width:.352778;stroke-dasharray:none"><tspan style="stroke-width:.352778;stroke-dasharray:none">Prevention</tspan></text><path d="m229.797 166.89-1.86-1.86v-2.63l1.86-1.86h32.78l1.86 1.86v2.63l-1.86 1.86z" style="font-variation-settings:normal;fill:none;fill-opacity:1;stroke:#000;stroke-width:.352778;stroke-linecap:butt;stroke-linejoin:miter;stroke-miterlimit:4;stroke-dasharray:none;stroke-dashoffset:0;stroke-opacity:1;stop-color:#000"/><path d="m227.655 165.147.234-.234.097.234zm0-2.864.234.234.097-.234zm2.025 4.889v-.33l.234.097zm0-6.914v.33l.234-.096zm35.039 4.889-.234-.234-.096.234zm0-2.864-.234.234-.096-.234zm-2.025 4.889v-.33l-.234.097zm0-6.914v.33l-.234-.096z" style="font-variation-settings:normal;vector-effect:none;fill:none;fill-opacity:1;stroke:#000;stroke-width:.352777;stroke-linecap:butt;stroke-linejoin:miter;stroke-miterlimit:4;stroke-dasharray:none;stroke-dashoffset:0;stroke-opacity:1;-inkscape-stroke:none;stop-color:#000"/><path d="M266.59 190.542v-2.63l1.86-1.86h2.63l1.86 1.86v2.63l-1.86 1.86h-2.63z" style="font-variation-settings:normal;fill:none;fill-opacity:1;stroke:#000;stroke-width:.352778;stroke-linecap:butt;stroke-linejoin:miter;stroke-miterlimit:4;stroke-dasharray:none;stroke-dashoffset:0;stroke-opacity:1;stop-color:#000"/><path d="m273.223 190.658-.234-.233-.096.233zm0-2.863-.234.233-.097-.233zm-2.025 4.888v-.33l-.234.097zm0-6.913v.33l-.234-.097zm-4.889 4.888.233-.233.097.233zm0-2.863.233.233.097-.233zm2.025 4.888v-.33l.233.097zm0-6.913v.33l.233-.097z" style="font-variation-settings:normal;vector-effect:none;fill:none;fill-opacity:1;stroke:#000;stroke-width:.352777;stroke-linecap:butt;stroke-linejoin:miter;stroke-miterlimit:4;stroke-dasharray:none;stroke-dashoffset:0;stroke-opacity:1;-inkscape-stroke:none;stop-color:#000"/><path d="M266.59 182.038v-2.63l1.86-1.86h2.63l1.86 1.86v2.63l-1.86 1.86h-2.63z" style="font-variation-settings:normal;fill:none;fill-opacity:1;stroke:#000;stroke-width:.352778;stroke-linecap:butt;stroke-linejoin:miter;stroke-miterlimit:4;stroke-dasharray:none;stroke-dashoffset:0;stroke-opacity:1;stop-color:#000"/><path d="m273.223 182.155-.234-.234-.096.234zm0-2.865-.234.234-.097-.233zm-2.025 4.89v-.33l-.234.096zm0-6.914v.33l-.234-.097zm-4.889 4.889.233-.234.097.234zm0-2.865.233.234.097-.233zm2.025 4.89v-.33l.233.096zm0-6.914v.33l.233-.097z" style="font-variation-settings:normal;vector-effect:none;fill:none;fill-opacity:1;stroke:#000;stroke-width:.352777;stroke-linecap:butt;stroke-linejoin:miter;stroke-miterlimit:4;stroke-dasharray:none;stroke-dashoffset:0;stroke-opacity:1;-inkscape-stroke:none;stop-color:#000"/><path d="M266.59 173.534v-2.63l1.86-1.86h2.63l1.86 1.86v2.63l-1.86 1.86h-2.63z" style="font-variation-settings:normal;fill:none;fill-opacity:1;stroke:#000;stroke-width:.352778;stroke-linecap:butt;stroke-linejoin:miter;stroke-miterlimit:4;stroke-dasharray:none;stroke-dashoffset:0;stroke-opacity:1;stop-color:#000"/><path d="m273.223 173.65-.234-.233-.096.234zm0-2.863-.234.234-.097-.234zm-2.025 4.889v-.33l-.234.096zm0-6.914v.33l-.234-.097zm-4.889 4.888.233-.233.097.234zm0-2.863.233.234.097-.234zm2.025 4.889v-.33l.233.096zm0-6.914v.33l.233-.097z" style="font-variation-settings:normal;vector-effect:none;fill:none;fill-opacity:1;stroke:#000;stroke-width:.352777;stroke-linecap:butt;stroke-linejoin:miter;stroke-miterlimit:4;stroke-dasharray:none;stroke-dashoffset:0;stroke-opacity:1;-inkscape-stroke:none;stop-color:#000"/><path d="M266.59 165.03v-2.63l1.86-1.86h2.63l1.86 1.86v2.63l-1.86 1.86h-2.63z" style="font-variation-settings:normal;fill:none;fill-opacity:1;stroke:#000;stroke-width:.352778;stroke-linecap:butt;stroke-linejoin:miter;stroke-miterlimit:4;stroke-dasharray:none;stroke-dashoffset:0;stroke-opacity:1;stop-color:#000"/><path d="m273.223 165.147-.234-.234-.096.234zm0-2.864-.234.234-.097-.234zm-2.025 4.889v-.33l-.234.097zm0-6.914v.33l-.234-.096zm-4.889 4.889.233-.234.097.234zm0-2.864.233.234.097-.234zm2.025 4.889v-.33l.233.097zm0-6.914v.33l.233-.096z" style="font-variation-settings:normal;vector-effect:none;fill:none;fill-opacity:1;stroke:#000;stroke-width:.352777;stroke-linecap:butt;stroke-linejoin:miter;stroke-miterlimit:4;stroke-dasharray:none;stroke-dashoffset:0;stroke-opacity:1;-inkscape-stroke:none;stop-color:#000"/><path d="m181.794 158.668-1.86-1.86v-2.63l1.86-1.86h41.846l1.86 1.86v2.63l-1.86 1.86z" style="font-variation-settings:normal;vector-effect:none;fill:#000;fill-opacity:1;stroke:#000;stroke-width:.352777;stroke-linecap:butt;stroke-linejoin:miter;stroke-miterlimit:4;stroke-dasharray:none;stroke-dashoffset:0;stroke-opacity:1;-inkscape-stroke:none;stop-color:#000"/><text xml:space="preserve" x="182.246" y="159.02" style="font-style:normal;font-variant:normal;font-weight:700;font-stretch:normal;font-size:4.29901px;line-height:1.25;font-family:Arial;-inkscape-font-specification:&quot;Arial Bold&quot;;white-space:pre;display:inline;fill:#fff;stroke:none;stroke-width:.352777;stroke-dasharray:none" transform="scale(1.01553 .9847)"><tspan style="stroke-width:.352777;stroke-dasharray:none">Casting Attribute</tspan></text><path d="m225.783 154.061-.233.234-.097-.234zm-2.025-2.025v.33l-.233-.096zm2.025 4.889-.233-.233-.097.233zm-2.025 2.025v-.33l-.233.097zm-44.106-4.889.234.234.096-.234zm2.025-2.025v.33l.233-.096zm-2.025 4.889.234-.233.096.233zm2.025 2.025v-.33l.233.097zm91.828-4.889-.234.234-.097-.234zm-2.025-2.025v.33l-.234-.096zm2.025 4.889-.234-.233-.097.233zm-2.025 2.025v-.33l-.234.097zm-44.107-4.889.234.234.096-.234zm2.025-2.025v.33l.234-.096zm-2.025 4.889.234-.233.096.233zm2.025 2.025v-.33l.234.097z" style="font-variation-settings:normal;vector-effect:none;fill:none;fill-opacity:1;stroke:#000;stroke-width:.352777;stroke-linecap:butt;stroke-linejoin:miter;stroke-miterlimit:4;stroke-dasharray:none;stroke-dashoffset:0;stroke-opacity:1;-inkscape-stroke:none;stop-color:#000"/><text xml:space="preserve" style="font-size:10.6667px;line-height:1.25;font-family:Arial;-inkscape-font-specification:Arial;white-space:pre;shape-inside:url(#a);display:inline" transform="translate(287.902 18.656) scale(.26458)"><tspan x="-528.037" y="644.841">&lt;4</tspan></text><text xml:space="preserve" style="font-size:10.6667px;line-height:1.25;font-family:Arial;-inkscape-font-specification:Arial;white-space:pre;shape-inside:url(#b);display:inline" transform="translate(287.527 23.418) scale(.26458)"><tspan x="-528.037" y="644.841">4-7</tspan></text><text xml:space="preserve" style="font-size:10.6667px;line-height:1.25;font-family:Arial;-inkscape-font-specification:Arial;white-space:pre;shape-inside:url(#c);display:inline" transform="translate(287.002 28.168) scale(.26458)"><tspan x="-528.037" y="644.841">8-11</tspan></text><text xml:space="preserve" style="font-size:10.6667px;line-height:1.25;font-family:Arial;-inkscape-font-specification:Arial;white-space:pre;shape-inside:url(#d);display:inline" transform="translate(285.825 32.947) scale(.26458)"><tspan x="-528.037" y="644.841">12-14</tspan></text><text xml:space="preserve" style="font-size:10.6667px;line-height:1.25;font-family:Arial;-inkscape-font-specification:Arial;white-space:pre;shape-inside:url(#e);display:inline" transform="translate(287.051 37.693) scale(.26458)"><tspan x="-528.037" y="644.841">15+</tspan></text><text xml:space="preserve" style="font-style:normal;font-variant:normal;font-weight:700;font-stretch:normal;font-size:10.6667px;line-height:1.25;font-family:Arial;-inkscape-font-specification:&quot;Arial Bold&quot;;white-space:pre;shape-inside:url(#f);display:inline" transform="translate(286.892 10.482) scale(.26458)"><tspan x="-528.037" y="657.608">Roll</tspan></text><text xml:space="preserve" style="font-style:normal;font-variant:normal;font-weight:700;font-stretch:normal;font-size:10.6667px;line-height:1.25;font-family:Arial;-inkscape-font-specification:&quot;Arial Bold&quot;;white-space:pre;shape-inside:url(#g);display:inline" transform="translate(301.54 10.499) scale(.26458)"><tspan x="-528.037" y="657.608">Result</tspan></text><text xml:space="preserve" style="font-style:normal;font-variant:normal;font-weight:700;font-stretch:normal;font-size:10.6667px;line-height:1.25;font-family:Arial;-inkscape-font-specification:&quot;Arial Bold&quot;;white-space:pre;shape-inside:url(#h);display:inline" transform="translate(336.462 10.204) scale(.26458)"><tspan x="-528.037" y="657.608">Outcomes</tspan></text><text xml:space="preserve" style="font-size:10.6667px;line-height:1.25;font-family:Arial;-inkscape-font-specification:Arial;white-space:pre;shape-inside:url(#i);display:inline" transform="translate(298.156 14.98) scale(.26458)"><tspan x="-528.037" y="657.608">Major Failure</tspan></text><text xml:space="preserve" style="font-size:10.6667px;line-height:1.25;font-family:Arial;-inkscape-font-specification:Arial;white-space:pre;shape-inside:url(#j);display:inline" transform="translate(298.156 20.024) scale(.26458)"><tspan x="-528.037" y="657.608">Minor Failure</tspan></text><text xml:space="preserve" style="font-size:10.6667px;line-height:1.25;font-family:Arial;-inkscape-font-specification:Arial;white-space:pre;shape-inside:url(#k);display:inline" transform="translate(297.132 24.803) scale(.26458)"><tspan x="-528.037" y="657.608">Minor Success</tspan></text><text xml:space="preserve" style="font-size:10.6667px;line-height:1.25;font-family:Arial;-inkscape-font-specification:Arial;white-space:pre;shape-inside:url(#l);display:inline" transform="translate(294.7 29.565) scale(.26458)"><tspan x="-528.037" y="657.608">Moderate Success</tspan></text><text xml:space="preserve" style="font-size:10.6667px;line-height:1.25;font-family:Arial;-inkscape-font-specification:Arial;white-space:pre;shape-inside:url(#m);display:inline" transform="translate(297.132 34.048) scale(.26458)"><tspan x="-528.037" y="657.608">Major Success</tspan></text><text xml:space="preserve" style="font-size:10.6667px;line-height:1.25;font-family:Arial;-inkscape-font-specification:Arial;white-space:pre;shape-inside:url(#n);display:inline" transform="translate(305.094 -29.42) scale(.26458)"><tspan x="-437.209" y="844.542">1 CE and Weakened</tspan></text><text xml:space="preserve" style="font-size:10.6667px;line-height:1.25;font-family:Arial;-inkscape-font-specification:Arial;white-space:pre;shape-inside:url(#o);display:inline" transform="translate(301.021 -24.657) scale(.26458)"><tspan x="-437.209" y="844.542">Choose 1 CE or Weakened</tspan></text><text xml:space="preserve" style="font-size:10.6667px;line-height:1.25;font-family:Arial;-inkscape-font-specification:Arial;white-space:pre;shape-inside:url(#p);display:inline" transform="translate(297.3 -34.445) scale(.26458)"><tspan x="-437.209" y="844.542">1 CE and a random Complication</tspan></text><text xml:space="preserve" style="font-size:10.6667px;line-height:1.25;font-family:Arial;-inkscape-font-specification:Arial;white-space:pre;shape-inside:url(#q);display:inline" transform="translate(286.742 .71) scale(.26458)"><tspan x="-400.166" y="765.608">May choose Stenthened with 1 CE </tspan></text><text xml:space="preserve" style="font-size:10.6667px;line-height:1.25;font-family:Arial;-inkscape-font-specification:Arial;white-space:pre;shape-inside:url(#r);display:inline" transform="translate(300.69 .99) scale(.26458)"><tspan x="-400.166" y="783.608">Strenthened</tspan></text><text xml:space="preserve" style="font-size:10.6667px;line-height:1.25;font-family:Arial;-inkscape-font-specification:Arial;white-space:pre;shape-inside:url(#s);display:inline" transform="translate(287.218 1.827) scale(.26458)"><tspan x="-528.037" y="644.841"><tspan style="font-style:italic;font-weight:700;-inkscape-font-specification:&quot;Arial Bold Italic&quot;">Cast Invocation (1R) [NA] {1 Casting Attribute} - </tspan>Select an </tspan><tspan x="-528.037" y="658.174">Invocation and make a Casting Check. Outside of Combat </tspan><tspan x="-528.037" y="671.507">Encounters you do not need to strain to perform this Action.</tspan></text><path d="m148.922 160.54.234.234-.234.096zm2.864 0-.234.234.234.096zm1.099 1.047-.32-.086.034.25zm-5.062 0 .319-.086-.033.25zm2.535 2.715-.13-.303.252-.004z" style="font-variation-settings:normal;vector-effect:none;fill:none;fill-opacity:1;stroke:#000;stroke-width:.352777;stroke-linecap:butt;stroke-linejoin:miter;stroke-miterlimit:4;stroke-dasharray:none;stroke-dashoffset:0;stroke-opacity:1;-inkscape-stroke:none;stop-color:#000"/><path d="M149.039 160.822h2.63l.93.93-2.245 2.245-2.245-2.245zm3.335 5.801.233-.234-.233-.096zm2.864 0-.234-.234.234-.096zm1.099-1.047-.32.085.034-.25zm-5.062 0 .319.085-.033-.25zm2.535-2.716-.13.304.252.004zM152.49 166.34h2.63l.93-.93-2.244-2.244-2.245 2.245zm3.084-5.8.234.234-.234.096zm2.864 0-.234.234.234.096zm1.099 1.047-.32-.086.034.251zm-5.062 0 .319-.086-.033.251zm2.535 2.715-.13-.303.252-.004z" style="font-variation-settings:normal;vector-effect:none;fill:none;fill-opacity:1;stroke:#000;stroke-width:.352777;stroke-linecap:butt;stroke-linejoin:miter;stroke-miterlimit:4;stroke-dasharray:none;stroke-dashoffset:0;stroke-opacity:1;-inkscape-stroke:none;stop-color:#000"/><path d="M155.69 160.822h2.631l.93.93-2.245 2.245-2.245-2.245zm3.336 5.801.233-.234-.233-.096zm2.864 0-.234-.234.234-.096zm1.099-1.047-.32.085.034-.25zm-5.062 0 .319.085-.033-.25zm2.535-2.716-.13.304.252.004zM159.143 166.34h2.63l.93-.93-2.245-2.244-2.245 2.245zm3.047-5.863.234.234-.234.097zm2.864 0-.233.234.233.097zm1.099 1.047-.319-.085.033.25zm-5.062 0 .32-.085-.034.25zm2.536 2.716-.131-.304.253-.004zM162.307 160.76h2.63l.93.93-2.245 2.244-2.245-2.245zm3.335 5.8.234-.234-.234-.096zm2.864 0-.234-.234.234-.096zm1.099-1.047-.319.086.033-.25zm-5.062 0 .32.086-.034-.25zm2.536-2.715-.131.303.252.004z" style="font-variation-settings:normal;vector-effect:none;fill:none;fill-opacity:1;stroke:#000;stroke-width:.352777;stroke-linecap:butt;stroke-linejoin:miter;stroke-miterlimit:4;stroke-dasharray:none;stroke-dashoffset:0;stroke-opacity:1;-inkscape-stroke:none;stop-color:#000"/><path d="M165.759 166.278h2.63l.93-.93-2.245-2.245-2.245 2.245zm3.084-5.801.233.234-.233.097zm2.863 0-.233.234.233.097zm1.099 1.047-.319-.085.033.25zm-5.062 0 .32-.085-.034.25zm2.536 2.716-.131-.304.253-.004z" style="font-variation-settings:normal;vector-effect:none;fill:none;fill-opacity:1;stroke:#000;stroke-width:.352777;stroke-linecap:butt;stroke-linejoin:miter;stroke-miterlimit:4;stroke-dasharray:none;stroke-dashoffset:0;stroke-opacity:1;-inkscape-stroke:none;stop-color:#000"/><path d="M168.96 160.76h2.63l.93.93-2.246 2.244-2.245-2.245zm3.334 5.8.234-.234-.234-.096zm2.864 0-.233-.234.233-.096zm1.099-1.047-.319.086.033-.25zm-5.062 0 .32.086-.034-.25zm2.535-2.715-.13.303.253.004z" style="font-variation-settings:normal;vector-effect:none;fill:none;fill-opacity:1;stroke:#000;stroke-width:.352777;stroke-linecap:butt;stroke-linejoin:miter;stroke-miterlimit:4;stroke-dasharray:none;stroke-dashoffset:0;stroke-opacity:1;-inkscape-stroke:none;stop-color:#000"/><path d="M172.411 166.278h2.63l.93-.93-2.245-2.245-2.245 2.245zm-18.385 14.838v28.293m25.4-28.293v28.293m-33.551-23.531h79.908m-79.908-4.762h79.908m-79.908 9.525h79.908m-79.908 4.762h79.908m-79.908 4.763h79.908m-79.908 4.762h79.908" style="font-variation-settings:normal;vector-effect:none;fill:none;fill-opacity:1;stroke:#000;stroke-width:.352777;stroke-linecap:butt;stroke-linejoin:miter;stroke-miterlimit:4;stroke-dasharray:none;stroke-dashoffset:0;stroke-opacity:1;-inkscape-stroke:none;stop-color:#000"/><path d="m145.593 207.721.234-.227.096.227zm2.025 1.969v-.32l.234.094zm78.447-1.969-.233-.227-.097.227zm-2.025 1.969v-.32l-.233.094zm-78.447-38.924.234.227.096-.227zm2.025-1.97v.322l.234-.095zm78.447 1.97-.233.227-.097-.227zm-2.025-1.97v.322l-.233-.095z" style="font-variation-settings:normal;vector-effect:none;fill:none;fill-opacity:1;stroke:#000;stroke-width:.352776;stroke-linecap:butt;stroke-linejoin:miter;stroke-miterlimit:4;stroke-dasharray:none;stroke-dashoffset:0;stroke-opacity:1;-inkscape-stroke:none;stop-color:#000"/><path d="m147.735 209.417-1.86-1.81V170.88l1.86-1.81h76.189l1.86 1.81v36.728l-1.86 1.809z" style="font-variation-settings:normal;vector-effect:none;fill:none;fill-opacity:1;stroke:#000;stroke-width:.352776;stroke-linecap:butt;stroke-linejoin:miter;stroke-miterlimit:4;stroke-dasharray:none;stroke-dashoffset:0;stroke-opacity:1;-inkscape-stroke:none;stop-color:#000"/><path d="M203.485 166.89h-21.844l-1.226-1.226.639-.639v-2.62l-.639-.639 1.226-1.226h21.844m-23.375 1.218.302.135.007-.253zm0 3.914.301-.135.007.253zm1.414-5.414v.33l.234-.096zm0 6.914v-.33l.234.097zm20.371-.282h21.844l1.226-1.226-.639-.639v-2.62l.639-.639-1.226-1.226h-21.844m23.375 1.218-.302.135-.007-.253zm0 3.914-.301-.135-.007.253zm-1.414-5.414v.33l-.234-.096zm0 6.914v-.33l-.234.097zm47.626-16.973-.234-.232.234-.096zm2.025-2.013h-.33l.096-.233zm-127.284 0 .233-.233.097.233zm2.024 2.013v-.328l.234.096z" style="font-variation-settings:normal;vector-effect:none;fill:none;fill-opacity:1;stroke:#000;stroke-width:.352777;stroke-linecap:butt;stroke-linejoin:miter;stroke-miterlimit:4;stroke-dasharray:none;stroke-dashoffset:0;stroke-opacity:1;-inkscape-stroke:none;stop-color:#000"/><path d="M146.504 12.84h126.721l-.049 135.346-1.694 1.685H148.247l-1.743-1.801z" style="font-variation-settings:normal;vector-effect:none;fill:none;fill-opacity:1;stroke:#000;stroke-width:.352777;stroke-linecap:butt;stroke-linejoin:miter;stroke-miterlimit:4;stroke-dasharray:none;stroke-dashoffset:0;stroke-opacity:1;-inkscape-stroke:none;stop-color:#000"/></svg>