<svg xmlns="http://www.w3.org/2000/svg" xml:space="preserve" width="1056" height="816" viewBox="0 0 279.4 215.9"><defs><path id="b" d="M-528.038 635.232h26.185v24h-26.185z"/><path id="c" d="M-528.038 635.232h26.185v24h-26.185z"/><path id="d" d="M-528.038 635.232h34.683v18.74h-34.683z"/><path id="e" d="M-528.038 648h66.486v15.567h-66.486z"/><path id="f" d="M-528.038 648h79.188v16.274h-79.188z"/><path id="g" d="M-528.038 648h91.206v16.274h-91.206z"/><path id="h" d="M-528.038 648h114.383v15.702h-114.383z"/><path id="i" d="M-528.038 635.232h43.99v18.942h-43.99z"/><path id="j" d="M-528.038 635.232h43.99v18.942h-43.99z"/><path id="k" d="M-528.038 648h114.383v15.702h-114.383z"/><path id="l" d="M-392.088 452.336h344.05v20.336h-344.05z"/><path id="m" d="M-392.088 472.672h320.493v17.016h-320.493z"/><path id="n" d="M-392.088 493.008h344.049v20.336h-344.049z"/><path id="o" d="M-392.088 513.344h344.049v20.336h-344.049z"/><path id="p" d="M-392.088 533.68h344.05v20.336h-344.05z"/><path id="q" d="M-528.038 648h48v24h-48z"/><path id="r" d="M-528.038 648h48v24h-48z"/><path id="s" d="M-528.038 648h85.769v14.844h-85.769z"/><path id="t" d="M-520.568 23.817h472.529V48h-472.529z"/><path id="a" d="M5366.233-2793.777h305.973v64.373h-305.973z"/><path id="u" d="M5366.233-2793.777h304.973v57.123h-304.973z"/><path id="v" d="M5366.233-2793.777h305.973v85.373h-305.973z"/><path id="w" d="M5366.233-2793.777h306.473v65.873h-306.473z"/><path id="x" d="M5366.233-2793.777h305.973v64.373h-305.973z"/><path id="y" d="M-528.038 635.232h26.185v24h-26.185z"/><path id="z" d="M-528.038 635.232h26.185v24h-26.185z"/><path id="A" d="M-528.038 635.232h34.683v18.74h-34.683z"/><path id="B" d="M-528.038 648h66.486v15.567h-66.486z"/><path id="C" d="M-528.038 648h79.188v16.274h-79.188z"/><path id="D" d="M-528.038 648h91.206v16.274h-91.206z"/><path id="E" d="M-528.038 648h114.383v15.702h-114.383z"/><path id="F" d="M-528.038 635.232h43.99v18.942h-43.99z"/><path id="G" d="M-528.038 635.232h43.99v18.942h-43.99z"/><path id="H" d="M-528.038 648h114.383v15.702h-114.383z"/><path id="I" d="M-392.088 452.336h344.05v20.336h-344.05z"/><path id="J" d="M-392.088 472.672h320.493v17.016h-320.493z"/><path id="K" d="M-392.088 493.008h344.049v20.336h-344.049z"/><path id="L" d="M-392.088 513.344h344.049v20.336h-344.049z"/><path id="M" d="M-392.088 533.68h344.05v20.336h-344.05z"/><path id="N" d="M-528.038 648h48v24h-48z"/><path id="O" d="M-528.038 648h48v24h-48z"/><path id="P" d="M-528.038 648h85.769v14.844h-85.769z"/><path id="Q" d="M-520.568 23.817h472.529V48h-472.529z"/><path id="R" d="M5366.233-2793.777h304.973v57.123h-304.973z"/><path id="S" d="M5366.233-2793.777h305.973v85.373h-305.973z"/><path id="T" d="M5366.233-2793.777h306.473v65.873h-306.473z"/></defs><path d="M0 0v215.9h279.4V0H139.7z" style="font-variation-settings:normal;display:inline;fill:#fff;fill-opacity:1;fill-rule:evenodd;stroke:none;stroke-width:.352778;stroke-linecap:butt;stroke-linejoin:miter;stroke-miterlimit:4;stroke-dasharray:none;stroke-dashoffset:0;stroke-opacity:1;stop-color:#000"/><path d="M139.7 6.35v203.2" style="font-variation-settings:normal;fill:none;fill-opacity:1;stroke:#000;stroke-width:.352778;stroke-linecap:butt;stroke-linejoin:miter;stroke-miterlimit:4;stroke-dasharray:2.82223,.352778;stroke-dashoffset:0;stroke-opacity:1;stop-color:#000"/><text xml:space="preserve" x="-183.261" style="font-style:normal;font-variant:normal;font-weight:400;font-stretch:normal;font-size:10px;font-family:Arial;-inkscape-font-specification:Arial;text-align:start;writing-mode:lr-tb;direction:ltr;white-space:pre;shape-inside:url(#a);display:inline;fill:#000;stroke:none;stroke-width:1.33333;stroke-dasharray:10.6667,5.33334;stroke-dashoffset:0" transform="translate(-1272.014 883.743)scale(.26458)"><tspan x="5366.234" y="-2784.77"><tspan style="font-style:italic;font-weight:700;-inkscape-font-specification:&quot;Arial Bold Italic&quot;">Casting Checks</tspan> recieve a bonus to your Roll determined by your </tspan><tspan x="5366.234" y="-2772.27">Talent Proficiency Tier with that Talent. Additionally, each instance of </tspan><tspan x="5366.234" y="-2759.77">Casting Exhaustion Inflicts a -1 penalty to Casting Checks. At the </tspan><tspan x="5366.234" y="-2747.27">end of a Full Rest remove all Casting Exhaustion you have.</tspan></text><path d="m231.706 150.558-.353.004.012 1.852 1.96 1.963h37.993l1.955-1.956v-1.86h-.351v1.714l-1.749 1.748h-37.7l-1.757-1.758zm1.61-7.558-1.963 1.962v6.024l2.125-2.125h37.67l2.125 2.125v-6.024L271.31 143h-34.447zm.144.353h37.703l1.756 1.756v3.406l-1.683-.008h-37.848l-1.682.008v-3.406zm-1.754 5.516 1.26.006-1.26 1.26zm41.215 0v1.265l-1.261-1.26zm-39.532-5.693-1.86 1.86v3.656l1.86-.008h37.847l1.86.008v-3.656l-1.86-1.86h-34.374zm-1.86 5.516v1.868l1.861-1.86zm41.568 0-1.86.008 1.86 1.86z"/><text xml:space="preserve" x="235.624" y="149.018" style="font-style:normal;font-variant:normal;font-weight:700;font-stretch:normal;font-size:3.175px;line-height:1.25;font-family:Arial;-inkscape-font-specification:&quot;Arial Bold&quot;;white-space:pre;display:inline;fill:#fff;stroke:none;stroke-width:.352778;stroke-dasharray:none" transform="scale(1.01553 .9847)">Casting Attribute</text><text xml:space="preserve" x="242.426" y="179.437" style="font-style:normal;font-variant:normal;font-weight:400;font-stretch:normal;font-size:3.175px;line-height:1.25;font-family:Arial;-inkscape-font-specification:Arial;white-space:pre;display:inline;fill:#000;fill-opacity:1;stroke:none;stroke-width:.352778;stroke-dasharray:none">The Tree</text><text xml:space="preserve" x="241.405" y="193.679" style="font-style:normal;font-variant:normal;font-weight:400;font-stretch:normal;font-size:3.175px;line-height:1.25;font-family:Arial;-inkscape-font-specification:Arial;white-space:pre;display:inline;fill:#000;fill-opacity:1;stroke:none;stroke-width:.352778;stroke-dasharray:none">The Storm</text><text xml:space="preserve" x="240.357" y="186.567" style="font-style:normal;font-variant:normal;font-weight:400;font-stretch:normal;font-size:3.175px;line-height:1.25;font-family:Arial;-inkscape-font-specification:Arial;white-space:pre;display:inline;fill:#000;fill-opacity:1;stroke:none;stroke-width:.352778;stroke-dasharray:none">The Grafted</text><text xml:space="preserve" style="font-size:10.6667px;line-height:1.25;font-family:Arial;-inkscape-font-specification:Arial;white-space:pre;shape-inside:url(#b);display:inline;stroke-width:1.33333;stroke-dasharray:none" transform="translate(289.146 -52.659)scale(.26458)"><tspan x="-528.039" y="644.841">≤3</tspan></text><text xml:space="preserve" style="font-size:10.6667px;line-height:1.25;font-family:Arial;-inkscape-font-specification:Arial;white-space:pre;shape-inside:url(#c);display:inline;stroke-width:1.33333;stroke-dasharray:none" transform="translate(288.7 -47.176)scale(.26458)"><tspan x="-528.039" y="644.841">4-7</tspan></text><text xml:space="preserve" style="font-size:10.6667px;line-height:1.25;font-family:Arial;-inkscape-font-specification:Arial;white-space:pre;shape-inside:url(#d);display:inline;stroke-width:1.33333;stroke-dasharray:none" transform="translate(288.176 -41.72)scale(.26458)"><tspan x="-528.039" y="644.841">8-11</tspan></text><text xml:space="preserve" style="font-size:10.6667px;line-height:1.25;font-family:Arial;-inkscape-font-specification:Arial;white-space:pre;shape-inside:url(#e);display:inline;stroke-width:1.33333;stroke-dasharray:none" transform="translate(300.4 -56.32)scale(.26458)"><tspan x="-528.039" y="657.608">Major Failure</tspan></text><text xml:space="preserve" style="font-size:10.6667px;line-height:1.25;font-family:Arial;-inkscape-font-specification:Arial;white-space:pre;shape-inside:url(#f);display:inline;stroke-width:1.33333;stroke-dasharray:none" transform="translate(300.4 -50.57)scale(.26458)"><tspan x="-528.039" y="657.608">Minor Failure</tspan></text><text xml:space="preserve" style="font-size:10.6667px;line-height:1.25;font-family:Arial;-inkscape-font-specification:Arial;white-space:pre;shape-inside:url(#g);display:inline;stroke-width:1.33333;stroke-dasharray:none" transform="translate(299.375 -45.084)scale(.26458)"><tspan x="-528.039" y="657.608">Minor Success</tspan></text><text xml:space="preserve" style="font-size:10.6667px;line-height:1.25;font-family:Arial;-inkscape-font-specification:Arial;white-space:pre;shape-inside:url(#h);display:inline;stroke-width:1.33333;stroke-dasharray:none" transform="translate(299.375 -34.425)scale(.26458)"><tspan x="-528.039" y="657.608">Major Success</tspan></text><text xml:space="preserve" style="font-size:10.6667px;line-height:1.25;font-family:Arial;-inkscape-font-specification:Arial;white-space:pre;shape-inside:url(#i);display:inline;stroke-width:1.33333;stroke-dasharray:none" transform="translate(287 -36.232)scale(.26458)"><tspan x="-528.039" y="644.841">12-14</tspan></text><text xml:space="preserve" style="font-size:10.6667px;line-height:1.25;font-family:Arial;-inkscape-font-specification:Arial;white-space:pre;shape-inside:url(#j);display:inline;stroke-width:1.33333;stroke-dasharray:none" transform="translate(288.225 -30.78)scale(.26458)"><tspan x="-528.039" y="644.841">15+</tspan></text><text xml:space="preserve" style="font-size:10.6667px;line-height:1.25;font-family:Arial;-inkscape-font-specification:Arial;white-space:pre;shape-inside:url(#k);display:inline;stroke-width:1.33333;stroke-dasharray:none" transform="translate(296.942 -39.615)scale(.26458)"><tspan x="-528.039" y="657.608">Moderate Success</tspan></text><text xml:space="preserve" style="font-size:10.6667px;line-height:1.25;font-family:Arial;-inkscape-font-specification:Arial;white-space:pre;shape-inside:url(#l);display:inline;stroke-width:1.33333;stroke-dasharray:none" transform="translate(293.471 -4.533)scale(.26458)"><tspan x="-392.088" y="461.944">Invocation Fails. Suffer 1 Casting Exhaustion, Complications</tspan></text><text xml:space="preserve" style="font-size:10.6667px;line-height:1.25;font-family:Arial;-inkscape-font-specification:Arial;white-space:pre;shape-inside:url(#m);display:inline;stroke-width:1.33333;stroke-dasharray:none" transform="translate(290.738 -4.444)scale(.26458)"><tspan x="-392.088" y="482.28">Success. Effects are Weakened and Suffer 1 Casting Exhaustion</tspan></text><text xml:space="preserve" style="font-size:10.6667px;line-height:1.25;font-family:Arial;-inkscape-font-specification:Arial;white-space:pre;shape-inside:url(#n);display:inline;stroke-width:1.33333;stroke-dasharray:none" transform="translate(297.95 -4.356)scale(.26458)"><tspan x="-392.088" y="502.616">Suffer 1 Casting Exhaustion or Effects are Weakened</tspan></text><text xml:space="preserve" style="font-size:10.6667px;line-height:1.25;font-family:Arial;-inkscape-font-specification:Arial;white-space:pre;shape-inside:url(#o);display:inline;stroke-width:1.33333;stroke-dasharray:none" transform="translate(287.726 -4.267)scale(.26458)"><tspan x="-392.088" y="522.952">You may choose Strengthened, if you do, Suffer 1 Casting Exhaustion</tspan></text><text xml:space="preserve" style="font-size:10.6667px;line-height:1.25;font-family:Arial;-inkscape-font-specification:Arial;white-space:pre;shape-inside:url(#p);display:inline;stroke-width:1.33333;stroke-dasharray:none" transform="translate(315.655 -4.178)scale(.26458)"><tspan x="-392.088" y="543.288">Effects are Strengthened</tspan></text><path d="M155.788 114.225v5.293h-9.609v-3.43h-.351v23.694l1.962 1.963h123.47l2.013-2.014-.05-23.646-.354.002.01 3.431h-90.726v-5.293h-.354v5.293h-25.656v-5.293zm-9.609 5.647h9.61v5.115h-9.61zm9.96 0h25.657v5.115H156.14zm26.01 0h90.728l.01 5.115H182.15zm-35.97 5.468h9.61v5.117h-9.61zm9.96 0h25.657v5.117H156.14zm26.01 0h90.74l.01 5.117h-90.75zm-35.97 5.47h9.61v5.116h-9.61zm9.96 0h25.657v5.116H156.14zm26.01 0h90.752l.01 5.116H182.15zm-35.97 5.47h9.61v5.111h-7.852l-1.758-1.756zm9.96 0h25.657v5.111H156.14zm26.01 0h90.763l.01 3.305-1.806 1.806h-88.964zm-34.359-27.702-1.963 1.964v5.971l2.116-2.113h123.17l2.109 2.11v-5.968l-1.963-1.964H155.964zm.147.353h123.176l1.755 1.758v4.967l-1.609-1.608H146.18v-3.361zm-1.758 5.475h1.258l-1.258 1.258zm1.685-5.651-1.86 1.86v3.61h125.181l1.86 1.86v-5.47l-1.86-1.86h-115.22zm-1.86 5.473v1.86l1.86-1.86z"/><text xml:space="preserve" style="font-style:normal;font-variant:normal;font-weight:700;font-stretch:normal;font-size:10.6667px;line-height:1.25;font-family:Arial;-inkscape-font-specification:&quot;Arial Bold&quot;;white-space:pre;shape-inside:url(#q);display:inline;fill:#fff;stroke-width:1.33333;stroke-dasharray:none" transform="translate(288.023 -61.51)scale(.26458)"><tspan x="-528.039" y="657.608">Roll</tspan></text><text xml:space="preserve" style="font-style:normal;font-variant:normal;font-weight:700;font-stretch:normal;font-size:10.6667px;line-height:1.25;font-family:Arial;-inkscape-font-specification:&quot;Arial Bold&quot;;white-space:pre;shape-inside:url(#r);display:inline;fill:#fff;stroke-width:1.33333;stroke-dasharray:none" transform="translate(304.28 -61.51)scale(.26458)"><tspan x="-528.039" y="657.608">Result</tspan></text><text xml:space="preserve" style="font-style:normal;font-variant:normal;font-weight:700;font-stretch:normal;font-size:10.6667px;line-height:1.25;font-family:Arial;-inkscape-font-specification:&quot;Arial Bold&quot;;white-space:pre;shape-inside:url(#s);display:inline;fill:#fff;stroke-width:1.33333;stroke-dasharray:none" transform="translate(360.326 -61.493)scale(.26458)"><tspan x="-528.039" y="657.608">Outcomes</tspan></text><path d="m233.389 196.897-1.86 1.86v1.788l1.86 1.86h37.847l1.86-1.86v-1.788l-1.86-1.86h-34.374z"/><path d="m233.316 196.72-1.963 1.963v1.934l1.963 1.965h37.994l1.963-1.963v-1.936l-1.963-1.963h-34.447zm.144.354h37.703l1.756 1.756v1.642l-1.756 1.756h-37.7l-1.757-1.756v-1.642z"/><text xml:space="preserve" x="233.667" y="203.574" style="font-style:normal;font-variant:normal;font-weight:700;font-stretch:normal;font-size:3.175px;line-height:1.25;font-family:Arial;-inkscape-font-specification:&quot;Arial Bold&quot;;white-space:pre;display:inline;fill:#fff;stroke:none;stroke-width:.352778;stroke-dasharray:none" transform="scale(1.01553 .9847)">Casting Exhaustion</text><path d="M234.312 203.656v.752l-.395.394-.984.266.637.367 1.978 1.979.385.89.348-.877 1.996-1.994.633-.365-.983-.266-.394-.394v-.752l-.532.531h-2.154zm.367.883h2.482l.754.754-1.996 1.996-1.994-1.996zm38.189-190.907.051 91.588-1.755 1.758H147.937l-1.758-1.758V13.636h-.351v91.73l1.963 1.966H271.31l1.963-1.965-.051-91.735zM147.79 6.126l-1.963 1.965v5.971l2.116-2.113h123.17l2.109 2.11V8.09l-1.963-1.965H155.964zm.147.354h123.176l1.755 1.758v4.967l-1.609-1.608H146.18V8.236Zm-1.758 5.475h1.258l-1.258 1.257zm1.685-5.651-1.86 1.86v3.61h125.181l1.86 1.859V8.164l-1.86-1.86H155.964zm-1.86 5.473v1.86l1.86-1.86z"/><text xml:space="preserve" style="font-style:normal;font-variant:normal;font-weight:700;font-stretch:normal;font-size:12px;line-height:1.25;font-family:Arial;-inkscape-font-specification:&quot;Arial Bold&quot;;white-space:pre;shape-inside:url(#t);display:inline;fill:#fff;stroke-width:1.33333;stroke-dasharray:none" transform="translate(338.405 .995)scale(.26458)"><tspan x="-520.568" y="34.625">Invocations</tspan></text><text xml:space="preserve" x="-183.261" style="font-style:normal;font-variant:normal;font-weight:400;font-stretch:normal;font-size:10px;font-family:Arial;-inkscape-font-specification:Arial;text-align:start;writing-mode:lr-tb;direction:ltr;white-space:pre;shape-inside:url(#u);display:inline;fill:#000;stroke:none;stroke-width:1.33333;stroke-dasharray:10.6667,5.33334;stroke-dashoffset:0" transform="translate(-1272.083 898.316)scale(.26458)"><tspan x="5366.234" y="-2784.77"><tspan style="font-style:italic;font-weight:700;-inkscape-font-specification:&quot;Arial Bold Italic&quot;">Channel Invocation (1R) [NA] {1 Casting Attribute}</tspan> Select an </tspan><tspan x="5366.234" y="-2772.27">Invocation, perform your Casting Aspect, and make a Casting </tspan><tspan x="5366.234" y="-2759.77">Check. Alternatively, you may forgo performing your Casting Aspect </tspan><tspan x="5366.234" y="-2747.27">but suffer 1 Casting Exhaustion. Gain the Channeling Condition.</tspan></text><text xml:space="preserve" x="-183.261" style="font-style:normal;font-variant:normal;font-weight:400;font-stretch:normal;font-size:10px;font-family:Arial;-inkscape-font-specification:Arial;text-align:start;writing-mode:lr-tb;direction:ltr;white-space:pre;shape-inside:url(#v);display:inline;fill:#000;stroke:none;stroke-width:1.33333;stroke-dasharray:10.6667,5.33334;stroke-dashoffset:0" transform="translate(-1271.963 927.462)scale(.26458)"><tspan x="5366.234" y="-2784.77"><tspan style="font-style:italic;font-weight:700;-inkscape-font-specification:&quot;Arial Bold Italic&quot;">Channeling</tspan> The Character can not Cast another Invocation. </tspan><tspan x="5366.234" y="-2772.27">Additionally, any time that Character Suffers Damage they must </tspan><tspan x="5366.234" y="-2759.77">make a Simplified Casting Check. On any Failure the Effects of the </tspan><tspan x="5366.234" y="-2747.27">Invocation end and the Channeling Condition is removed from the </tspan><tspan x="5366.234" y="-2734.77">Character. Additionally, as a Reaction the Character can choose to </tspan><tspan x="5366.234" y="-2722.27">end the Invocation and remove the Channeling Condition.</tspan></text><path d="m231.706 163.195-.353.002.012 1.851 1.96 1.963h37.993l1.955-1.953v-1.863h-.351v1.717l-1.749 1.748h-37.7l-1.757-1.758zm1.61-7.559-1.963 1.963v6.024l2.127-2.127h37.666l2.127 2.127V157.6l-1.963-1.964h-34.447zm.144.354h37.703l1.756 1.756v3.406l-1.683-.008h-37.848l-1.682.008v-3.406zm-1.754 5.515 1.258.006-1.258 1.26zm41.215 0v1.266l-1.261-1.26zm-39.532-5.693-1.86 1.86v3.656l1.86-.008h37.847l1.86.008v-3.655l-1.86-1.86h-34.374zm-1.86 5.516v1.869l1.861-1.86zm41.568 0-1.86.009 1.86 1.86zm-39.708 7.121-1.86 1.86v1.788l1.86 1.86h37.847l1.86-1.86v-1.788l-1.86-1.86h-34.374z"/><path d="m233.316 168.273-1.963 1.963v1.933l1.963 1.963h37.994l1.963-1.963v-1.933l-1.963-1.963h-34.447zm.146.352h37.701l1.756 1.757v1.641l-1.756 1.758h-37.7l-1.757-1.758v-1.64z"/><text xml:space="preserve" x="236.753" y="174.684" style="font-style:normal;font-variant:normal;font-weight:700;font-stretch:normal;font-size:3.175px;line-height:1.25;font-family:Arial;-inkscape-font-specification:&quot;Arial Bold&quot;;white-space:pre;display:inline;fill:#fff;stroke:none;stroke-width:.352778;stroke-dasharray:none" transform="scale(1.01553 .9847)">Casting Talents</text><path d="m147.79 142.992-1.963 1.963v62.855l1.963 1.963h80.352l1.963-1.963v-62.855l-1.963-1.963zm.147.351h80.058l1.758 1.758v62.563l-1.758 1.755h-80.058l-1.758-1.755V145.1z" style="fill-rule:evenodd"/><text xml:space="preserve" x="-183.261" style="font-style:normal;font-variant:normal;font-weight:400;font-stretch:normal;font-size:10px;font-family:Arial;-inkscape-font-specification:Arial;text-align:start;writing-mode:lr-tb;direction:ltr;white-space:pre;shape-inside:url(#w);display:inline;fill:#000;stroke:none;stroke-width:1.33333;stroke-dasharray:10.6667,5.33334;stroke-dashoffset:0" transform="translate(-1272.11 912.889)scale(.26458)"><tspan x="5366.234" y="-2784.77"><tspan style="font-style:italic;font-weight:700;-inkscape-font-specification:&quot;Arial Bold Italic&quot;">Charm (1R) [NA] {1 Casting Attribute}</tspan> Specify a minor effect, </tspan><tspan x="5366.234" y="-2772.27">perform your Casting Aspect, and make a Simplified Casting Check. </tspan><tspan x="5366.234" y="-2759.77">On any result, the effect happens. On any Failure, you gain 1 </tspan><tspan x="5366.234" y="-2747.27">Casting Exhaustion.</tspan></text><text xml:space="preserve" x="236.9" y="161.851" style="font-style:normal;font-variant:normal;font-weight:700;font-stretch:normal;font-size:3.175px;line-height:1.25;font-family:Arial;-inkscape-font-specification:&quot;Arial Bold&quot;;white-space:pre;display:inline;fill:#fff;stroke:none;stroke-width:.352778;stroke-dasharray:none" transform="scale(1.01553 .9847)">Casting Aspect</text><path d="m233.308 175.392-1.955 1.955v1.934l1.963 1.965h30.877l1.955-1.955v-1.936l-1.963-1.963h-3.547zm.144.354h30.586l1.758 1.755v1.643l-1.75 1.748h-30.583l-1.757-1.756v-1.642zm-.144 6.759-1.955 1.955v1.934l1.963 1.963h30.877l1.955-1.955v-1.934l-1.963-1.963h-3.547zm.146.352h30.584l1.758 1.758v1.64l-1.75 1.748h-30.583l-1.757-1.755v-1.643Zm-.146 6.76-1.955 1.955v1.933l1.963 1.963h30.877l1.955-1.955v-1.933l-1.963-1.963h-3.547zm.144.353h30.586l1.758 1.756v1.643l-1.75 1.748h-30.583l-1.757-1.758v-1.64zm7.163 14.883-.383.889-1.983 1.98-.634.367.982.262.398.399v.751l.532-.53h2.154l.531.53v-.751l.395-.395.982-.266-.633-.365-1.996-1.996zm-.012 1.016 1.996 1.996-.754.752h-2.485l-.752-.752zm3.076-2.213v.752l-.394.394-.985.266.637.367 1.982 1.982.381.887.348-.877 1.996-1.994.633-.365-.983-.266-.394-.394v-.752l-.531.531h-2.155zm.367.883h2.483l.754.754-1.995 1.996-1.996-1.996zm5.936.314-.381.887-1.983 1.982-.636.367.982.262.399.399v.751l.53-.53h2.155l.531.53v-.751l.395-.395.982-.266-.632-.365-1.999-2zm-.01 1.016 1.994 1.996-.754.752h-2.484l-.752-.752zm3.074-2.213v.752l-.394.394-.985.266.637.367 1.98 1.979.383.89.348-.875 1.996-1.996.633-.365-.983-.266-.394-.394v-.752l-.531.531h-2.155zm.367.883h2.485l.752.754-1.994 1.996-1.996-1.996zm5.936.314-.383.889-1.976 1.978-.641.37.984.263.395.397v.751l.531-.53h2.154l.532.53v-.751l.394-.395.983-.266-.633-.365-1.998-2zm-.01 1.016 1.994 1.996-.752.752h-2.486l-.752-.752zm3.074-2.213v.752l-.394.394-.984.266.638.369 1.977 1.977.385.89.345-.875 1.996-1.996.633-.365-.982-.266-.395-.394v-.752l-.531.531h-2.154zm.368.883h2.484l.752.754-1.994 1.996-1.996-1.996zm5.937.314-.383.889-1.98 1.98-.637.367.983.264.394.397v.751l.531-.53h2.155l.53.53v-.75l.401-.4.98-.262-.636-.367-1.996-1.996zm-.012 1.016 1.996 1.996-.754.752h-2.486l-.752-.752z"/><path d="m271.84 180.42 1.256-1.257-1.256-1.256-1.256 1.256zm0-.376-.883-.883.881-.881.883.883zm-1.687-1.312 1.258-1.256-1.258-1.256-1.256 1.256zm0-.374-.882-.882.882-.883.883.883zm-1.685 2.062 1.256-1.257-1.256-1.256-1.256 1.256zm0-.376-.882-.881.882-.883.881.881zm3.372 7.482 1.256-1.256-1.256-1.256-1.256 1.256zm0-.374-.883-.883.881-.882.883.883zm-1.687-1.312 1.258-1.257-1.258-1.256-1.256 1.256zm0-.375-.882-.882.882-.883.883.883zm-1.685 2.061 1.256-1.256-1.256-1.256-1.256 1.256zm0-.374-.882-.882.882-.883.881.882zm3.372 7.487 1.256-1.256-1.256-1.257-1.256 1.257zm0-.375-.883-.883.881-.882.883.884zm-1.687-1.312 1.258-1.256-1.258-1.257-1.256 1.257zm0-.375-.882-.881.882-.884.883.884zm-1.685 2.062 1.256-1.256-1.256-1.257-1.256 1.257zm0-.375-.882-.881.882-.884.881.882z" style="stroke-width:.999997"/><text xml:space="preserve" x="-183.261" style="font-style:normal;font-variant:normal;font-weight:400;font-stretch:normal;font-size:10px;font-family:Arial;-inkscape-font-specification:Arial;text-align:start;writing-mode:lr-tb;direction:ltr;white-space:pre;shape-inside:url(#x);display:inline;fill:#000;stroke:none;stroke-width:1.33333;stroke-dasharray:10.6667,5.33334;stroke-dashoffset:0" transform="translate(-1411.714 883.744)scale(.26458)"><tspan x="5366.234" y="-2784.77"><tspan style="font-style:italic;font-weight:700;-inkscape-font-specification:&quot;Arial Bold Italic&quot;">Casting Checks</tspan> recieve a bonus to your Roll determined by your </tspan><tspan x="5366.234" y="-2772.27">Talent Proficiency Tier with that Talent. Additionally, each instance of </tspan><tspan x="5366.234" y="-2759.77">Casting Exhaustion Inflicts a -1 penalty to Casting Checks. At the </tspan><tspan x="5366.234" y="-2747.27">end of a Full Rest remove all Casting Exhaustion you have.</tspan></text><path d="m92.006 150.559-.354.004.012 1.851 1.961 1.963h37.993l1.955-1.955v-1.861h-.352v1.715l-1.748 1.748H93.772l-1.756-1.758zm1.61-7.559-1.964 1.963v6.023l2.125-2.125h37.67l2.125 2.125v-6.023L131.61 143H97.162zm.144.354h37.703l1.756 1.755v3.407l-1.684-.008H93.688l-1.682.008v-3.407zm-1.754 5.515 1.26.006-1.26 1.26zm41.215 0v1.266l-1.262-1.26zm-39.533-5.692-1.86 1.86v3.656h.001l1.86-.008h37.847l1.86.008v-3.656l-1.86-1.86H97.162zm-1.859 5.516v1.868l1.86-1.86zm41.567 0-1.86.008 1.86 1.86z"/><text xml:space="preserve" x="98.06" y="149.019" style="font-style:normal;font-variant:normal;font-weight:700;font-stretch:normal;font-size:3.175px;line-height:1.25;font-family:Arial;-inkscape-font-specification:&quot;Arial Bold&quot;;white-space:pre;display:inline;fill:#fff;stroke:none;stroke-width:.352778;stroke-dasharray:none" transform="scale(1.01553 .9847)">Casting Attribute</text><text xml:space="preserve" x="102.725" y="179.437" style="font-style:normal;font-variant:normal;font-weight:400;font-stretch:normal;font-size:3.175px;line-height:1.25;font-family:Arial;-inkscape-font-specification:Arial;white-space:pre;display:inline;fill:#000;fill-opacity:1;stroke:none;stroke-width:.352778;stroke-dasharray:none">The Tree</text><text xml:space="preserve" x="101.705" y="193.68" style="font-style:normal;font-variant:normal;font-weight:400;font-stretch:normal;font-size:3.175px;line-height:1.25;font-family:Arial;-inkscape-font-specification:Arial;white-space:pre;display:inline;fill:#000;fill-opacity:1;stroke:none;stroke-width:.352778;stroke-dasharray:none">The Storm</text><text xml:space="preserve" x="100.657" y="186.568" style="font-style:normal;font-variant:normal;font-weight:400;font-stretch:normal;font-size:3.175px;line-height:1.25;font-family:Arial;-inkscape-font-specification:Arial;white-space:pre;display:inline;fill:#000;fill-opacity:1;stroke:none;stroke-width:.352778;stroke-dasharray:none">The Grafted</text><text xml:space="preserve" style="font-size:10.6667px;line-height:1.25;font-family:Arial;-inkscape-font-specification:Arial;white-space:pre;shape-inside:url(#y);display:inline;stroke-width:1.33333;stroke-dasharray:none" transform="translate(149.445 -52.658)scale(.26458)"><tspan x="-528.039" y="644.841">≤3</tspan></text><text xml:space="preserve" style="font-size:10.6667px;line-height:1.25;font-family:Arial;-inkscape-font-specification:Arial;white-space:pre;shape-inside:url(#z);display:inline;stroke-width:1.33333;stroke-dasharray:none" transform="translate(149 -47.175)scale(.26458)"><tspan x="-528.039" y="644.841">4-7</tspan></text><text xml:space="preserve" style="font-size:10.6667px;line-height:1.25;font-family:Arial;-inkscape-font-specification:Arial;white-space:pre;shape-inside:url(#A);display:inline;stroke-width:1.33333;stroke-dasharray:none" transform="translate(148.476 -41.719)scale(.26458)"><tspan x="-528.039" y="644.841">8-11</tspan></text><text xml:space="preserve" style="font-size:10.6667px;line-height:1.25;font-family:Arial;-inkscape-font-specification:Arial;white-space:pre;shape-inside:url(#B);display:inline;stroke-width:1.33333;stroke-dasharray:none" transform="translate(160.699 -56.32)scale(.26458)"><tspan x="-528.039" y="657.608">Major Failure</tspan></text><text xml:space="preserve" style="font-size:10.6667px;line-height:1.25;font-family:Arial;-inkscape-font-specification:Arial;white-space:pre;shape-inside:url(#C);display:inline;stroke-width:1.33333;stroke-dasharray:none" transform="translate(160.699 -50.57)scale(.26458)"><tspan x="-528.039" y="657.608">Minor Failure</tspan></text><text xml:space="preserve" style="font-size:10.6667px;line-height:1.25;font-family:Arial;-inkscape-font-specification:Arial;white-space:pre;shape-inside:url(#D);display:inline;stroke-width:1.33333;stroke-dasharray:none" transform="translate(159.675 -45.084)scale(.26458)"><tspan x="-528.039" y="657.608">Minor Success</tspan></text><text xml:space="preserve" style="font-size:10.6667px;line-height:1.25;font-family:Arial;-inkscape-font-specification:Arial;white-space:pre;shape-inside:url(#E);display:inline;stroke-width:1.33333;stroke-dasharray:none" transform="translate(159.675 -34.424)scale(.26458)"><tspan x="-528.039" y="657.608">Major Success</tspan></text><text xml:space="preserve" style="font-size:10.6667px;line-height:1.25;font-family:Arial;-inkscape-font-specification:Arial;white-space:pre;shape-inside:url(#F);display:inline;stroke-width:1.33333;stroke-dasharray:none" transform="translate(147.299 -36.232)scale(.26458)"><tspan x="-528.039" y="644.841">12-14</tspan></text><text xml:space="preserve" style="font-size:10.6667px;line-height:1.25;font-family:Arial;-inkscape-font-specification:Arial;white-space:pre;shape-inside:url(#G);display:inline;stroke-width:1.33333;stroke-dasharray:none" transform="translate(148.525 -30.78)scale(.26458)"><tspan x="-528.039" y="644.841">15+</tspan></text><text xml:space="preserve" style="font-size:10.6667px;line-height:1.25;font-family:Arial;-inkscape-font-specification:Arial;white-space:pre;shape-inside:url(#H);display:inline;stroke-width:1.33333;stroke-dasharray:none" transform="translate(157.242 -39.614)scale(.26458)"><tspan x="-528.039" y="657.608">Moderate Success</tspan></text><text xml:space="preserve" style="font-size:10.6667px;line-height:1.25;font-family:Arial;-inkscape-font-specification:Arial;white-space:pre;shape-inside:url(#I);display:inline;stroke-width:1.33333;stroke-dasharray:none" transform="translate(153.77 -4.533)scale(.26458)"><tspan x="-392.088" y="461.944">Invocation Fails. Suffer 1 Casting Exhaustion, Complications</tspan></text><text xml:space="preserve" style="font-size:10.6667px;line-height:1.25;font-family:Arial;-inkscape-font-specification:Arial;white-space:pre;shape-inside:url(#J);display:inline;stroke-width:1.33333;stroke-dasharray:none" transform="translate(151.037 -4.444)scale(.26458)"><tspan x="-392.088" y="482.28">Success. Effects are Weakened and Suffer 1 Casting Exhaustion</tspan></text><text xml:space="preserve" style="font-size:10.6667px;line-height:1.25;font-family:Arial;-inkscape-font-specification:Arial;white-space:pre;shape-inside:url(#K);display:inline;stroke-width:1.33333;stroke-dasharray:none" transform="translate(158.25 -4.355)scale(.26458)"><tspan x="-392.088" y="502.616">Suffer 1 Casting Exhaustion or Effects are Weakened</tspan></text><text xml:space="preserve" style="font-size:10.6667px;line-height:1.25;font-family:Arial;-inkscape-font-specification:Arial;white-space:pre;shape-inside:url(#L);display:inline;stroke-width:1.33333;stroke-dasharray:none" transform="translate(148.025 -4.266)scale(.26458)"><tspan x="-392.088" y="522.952">You may choose Strengthened, if you do, Suffer 1 Casting Exhaustion</tspan></text><text xml:space="preserve" style="font-size:10.6667px;line-height:1.25;font-family:Arial;-inkscape-font-specification:Arial;white-space:pre;shape-inside:url(#M);display:inline;stroke-width:1.33333;stroke-dasharray:none" transform="translate(175.954 -4.177)scale(.26458)"><tspan x="-392.088" y="543.288">Effects are Strengthened</tspan></text><path d="M16.088 114.226v5.293h-9.61v-3.43h-.35v23.693l1.962 1.963h123.469l2.014-2.013-.051-23.647-.354.002.01 3.432H42.452v-5.293h-.353v5.293H16.442v-5.293zm-9.61 5.646h9.61v5.116h-9.61Zm9.961 0h25.657v5.116H16.439zm26.01 0h90.727l.011 5.116H42.45Zm-35.97 5.469h9.609v5.117h-9.61Zm9.96 0h25.657v5.117H16.439zm26.01 0h90.74l.01 5.117H42.45Zm-35.97 5.469h9.609v5.117h-9.61Zm9.96 0h25.657v5.117H16.439zm26.01 0H133.2l.011 5.117H42.449Zm-35.97 5.47h9.609v5.112H8.237l-1.758-1.756zm9.96 0h25.657v5.112H16.439zm26.01 0h90.763l.01 3.305-1.807 1.807H42.452Zm-34.36-27.702-1.962 1.965v5.971l2.115-2.114h123.17l2.11 2.11v-5.967l-1.963-1.965H16.263zm.147.354h123.176l1.756 1.758v4.966l-1.61-1.607H6.48v-3.361zm-1.757 5.474h1.257l-1.257 1.258zm1.684-5.65-1.86 1.86v3.609h125.182l1.86 1.86v-5.47l-1.86-1.86H16.263zm-1.86 5.473v1.86l1.86-1.86z"/><text xml:space="preserve" style="font-style:normal;font-variant:normal;font-weight:700;font-stretch:normal;font-size:10.6667px;line-height:1.25;font-family:Arial;-inkscape-font-specification:&quot;Arial Bold&quot;;white-space:pre;shape-inside:url(#N);display:inline;fill:#fff;stroke-width:1.33333;stroke-dasharray:none" transform="translate(148.322 -61.509)scale(.26458)"><tspan x="-528.039" y="657.608">Roll</tspan></text><text xml:space="preserve" style="font-style:normal;font-variant:normal;font-weight:700;font-stretch:normal;font-size:10.6667px;line-height:1.25;font-family:Arial;-inkscape-font-specification:&quot;Arial Bold&quot;;white-space:pre;shape-inside:url(#O);display:inline;fill:#fff;stroke-width:1.33333;stroke-dasharray:none" transform="translate(164.58 -61.509)scale(.26458)"><tspan x="-528.039" y="657.608">Result</tspan></text><text xml:space="preserve" style="font-style:normal;font-variant:normal;font-weight:700;font-stretch:normal;font-size:10.6667px;line-height:1.25;font-family:Arial;-inkscape-font-specification:&quot;Arial Bold&quot;;white-space:pre;shape-inside:url(#P);display:inline;fill:#fff;stroke-width:1.33333;stroke-dasharray:none" transform="translate(220.626 -61.492)scale(.26458)"><tspan x="-528.039" y="657.608">Outcomes</tspan></text><path d="m93.688 196.897-1.86 1.86v1.788l1.86 1.86h37.847l1.86-1.86v-1.788l-1.86-1.86H97.162z"/><path d="m93.615 196.72-1.963 1.964v1.933l1.963 1.965h37.994l1.963-1.963v-1.935l-1.963-1.963H97.162zm.145.354h37.703l1.756 1.756v1.643l-1.756 1.756H93.762l-1.756-1.756v-1.643z"/><text xml:space="preserve" x="96.103" y="203.574" style="font-style:normal;font-variant:normal;font-weight:700;font-stretch:normal;font-size:3.175px;line-height:1.25;font-family:Arial;-inkscape-font-specification:&quot;Arial Bold&quot;;white-space:pre;display:inline;fill:#fff;stroke:none;stroke-width:.352778;stroke-dasharray:none" transform="scale(1.01553 .9847)">Casting Exhaustion</text><path d="M94.611 203.656v.752l-.394.395-.985.265.637.368 1.979 1.978.384.89.348-.876 1.996-1.994.633-.366-.982-.265-.395-.395v-.752l-.531.532h-2.154zm.368.883h2.482l.754.754-1.996 1.996-1.994-1.996zm38.189-190.906.05 91.588-1.755 1.758H8.237l-1.758-1.758V13.637h-.352v91.73l1.963 1.965h123.52l1.962-1.965-.05-91.734zM8.09 6.127 6.127 8.092v5.971l2.115-2.114h123.17l2.11 2.11V8.092l-1.963-1.965H16.263zm.146.354h123.176l1.756 1.757v4.967l-1.61-1.607H6.48V8.236ZM6.48 11.955h1.257L6.48 13.213zm1.684-5.65-1.86 1.86v3.609h125.182l1.86 1.86v-5.47l-1.86-1.86H16.263zm-1.86 5.473v1.86l1.86-1.86z"/><text xml:space="preserve" style="font-style:normal;font-variant:normal;font-weight:700;font-stretch:normal;font-size:12px;line-height:1.25;font-family:Arial;-inkscape-font-specification:&quot;Arial Bold&quot;;white-space:pre;shape-inside:url(#Q);display:inline;fill:#fff;stroke-width:1.33333;stroke-dasharray:none" transform="translate(198.705 .995)scale(.26458)"><tspan x="-520.568" y="34.625">Invocations</tspan></text><text xml:space="preserve" x="-183.261" style="font-style:normal;font-variant:normal;font-weight:400;font-stretch:normal;font-size:10px;font-family:Arial;-inkscape-font-specification:Arial;text-align:start;writing-mode:lr-tb;direction:ltr;white-space:pre;shape-inside:url(#R);display:inline;fill:#000;stroke:none;stroke-width:1.33333;stroke-dasharray:10.6667,5.33334;stroke-dashoffset:0" transform="translate(-1411.784 898.317)scale(.26458)"><tspan x="5366.234" y="-2784.77"><tspan style="font-style:italic;font-weight:700;-inkscape-font-specification:&quot;Arial Bold Italic&quot;">Channel Invocation (1R) [NA] {1 Casting Attribute}</tspan> Select an </tspan><tspan x="5366.234" y="-2772.27">Invocation, perform your Casting Aspect, and make a Casting </tspan><tspan x="5366.234" y="-2759.77">Check. Alternatively, you may forgo performing your Casting Aspect </tspan><tspan x="5366.234" y="-2747.27">but suffer 1 Casting Exhaustion. Gain the Channeling Condition.</tspan></text><text xml:space="preserve" x="-183.261" style="font-style:normal;font-variant:normal;font-weight:400;font-stretch:normal;font-size:10px;font-family:Arial;-inkscape-font-specification:Arial;text-align:start;writing-mode:lr-tb;direction:ltr;white-space:pre;shape-inside:url(#S);display:inline;fill:#000;stroke:none;stroke-width:1.33333;stroke-dasharray:10.6667,5.33334;stroke-dashoffset:0" transform="translate(-1411.664 927.462)scale(.26458)"><tspan x="5366.234" y="-2784.77"><tspan style="font-style:italic;font-weight:700;-inkscape-font-specification:&quot;Arial Bold Italic&quot;">Channeling</tspan> The Character can not Cast another Invocation. </tspan><tspan x="5366.234" y="-2772.27">Additionally, any time that Character Suffers Damage they must </tspan><tspan x="5366.234" y="-2759.77">make a Simplified Casting Check. On any Failure the Effects of the </tspan><tspan x="5366.234" y="-2747.27">Invocation end and the Channeling Condition is removed from the </tspan><tspan x="5366.234" y="-2734.77">Character. Additionally, as a Reaction the Character can choose to </tspan><tspan x="5366.234" y="-2722.27">end the Invocation and remove the Channeling Condition.</tspan></text><path d="m92.006 163.195-.354.002.012 1.852 1.961 1.963h37.993l1.955-1.953v-1.864h-.352v1.717l-1.748 1.748H93.772l-1.756-1.758zm1.61-7.558-1.964 1.963v6.023l2.127-2.127h37.666l2.127 2.127V157.6l-1.963-1.963H97.162zm.144.353h37.703l1.756 1.756v3.406l-1.684-.008H93.688l-1.682.008v-3.406zm-1.754 5.516 1.258.006-1.258 1.26zm41.215 0v1.266l-1.262-1.26zm-39.533-5.693-1.86 1.86v3.656h.001l1.86-.008h37.847l1.86.008v-3.656l-1.86-1.86H97.162zm-1.859 5.516v1.868l1.86-1.86zm41.567 0-1.86.008 1.86 1.86zm-39.708 7.121-1.86 1.86v1.787l1.86 1.86h37.847l1.86-1.86v-1.788l-1.86-1.86H97.162z"/><path d="m93.615 168.274-1.963 1.962v1.934l1.963 1.963h37.994l1.963-1.963v-1.934l-1.963-1.962H97.162zm.147.351h37.701l1.756 1.758v1.64l-1.756 1.758H93.762l-1.756-1.757v-1.641z"/><text xml:space="preserve" x="99.189" y="174.684" style="font-style:normal;font-variant:normal;font-weight:700;font-stretch:normal;font-size:3.175px;line-height:1.25;font-family:Arial;-inkscape-font-specification:&quot;Arial Bold&quot;;white-space:pre;display:inline;fill:#fff;stroke:none;stroke-width:.352778;stroke-dasharray:none" transform="scale(1.01553 .9847)">Casting Talents</text><path d="m8.09 142.992-1.963 1.963v62.856l1.963 1.963h80.35l1.963-1.963v-62.856l-1.963-1.963zm.146.352h80.059l1.758 1.758v62.562l-1.758 1.756H8.236l-1.757-1.756v-62.562z" style="fill-rule:evenodd"/><text xml:space="preserve" x="-183.261" style="font-style:normal;font-variant:normal;font-weight:400;font-stretch:normal;font-size:10px;font-family:Arial;-inkscape-font-specification:Arial;text-align:start;writing-mode:lr-tb;direction:ltr;white-space:pre;shape-inside:url(#T);display:inline;fill:#000;stroke:none;stroke-width:1.33333;stroke-dasharray:10.6667,5.33334;stroke-dashoffset:0" transform="translate(-1411.81 912.89)scale(.26458)"><tspan x="5366.234" y="-2784.77"><tspan style="font-style:italic;font-weight:700;-inkscape-font-specification:&quot;Arial Bold Italic&quot;">Charm (1R) [NA] {1 Casting Attribute}</tspan> Specify a minor effect, </tspan><tspan x="5366.234" y="-2772.27">perform your Casting Aspect, and make a Simplified Casting Check. </tspan><tspan x="5366.234" y="-2759.77">On any result, the effect happens. On any Failure, you gain 1 </tspan><tspan x="5366.234" y="-2747.27">Casting Exhaustion.</tspan></text><text xml:space="preserve" x="99.336" y="161.852" style="font-style:normal;font-variant:normal;font-weight:700;font-stretch:normal;font-size:3.175px;line-height:1.25;font-family:Arial;-inkscape-font-specification:&quot;Arial Bold&quot;;white-space:pre;display:inline;fill:#fff;stroke:none;stroke-width:.352778;stroke-dasharray:none" transform="scale(1.01553 .9847)">Casting Aspect</text><path d="m93.607 175.393-1.955 1.955v1.933l1.963 1.965h30.877l1.955-1.955v-1.935l-1.963-1.963h-3.546zm.145.353h30.586l1.758 1.756v1.643l-1.75 1.748H93.762l-1.756-1.756v-1.643zm-.145 6.76-1.955 1.955v1.934l1.963 1.963h30.877l1.955-1.956v-1.933l-1.963-1.963h-3.546zm.147.352h30.584l1.758 1.757v1.641l-1.75 1.748H93.762l-1.756-1.756v-1.642zm-.147 6.759-1.955 1.955v1.934l1.963 1.963h30.877l1.955-1.955v-1.934l-1.963-1.963h-3.546zm.145.354h30.586l1.758 1.756v1.642l-1.75 1.748H93.762l-1.756-1.758v-1.64zm7.162 14.883-.383.888-1.982 1.98-.635.368.983.262.398.398v.752l.531-.531h2.154l.532.531v-.752l.394-.394.983-.266-.633-.365-1.996-1.996zm-.012 1.015 1.996 1.996-.754.752H99.66l-.752-.752zm3.077-2.213v.752l-.395.395-.984.265.636.368 1.983 1.982.38.887.348-.877 1.996-1.994.633-.366-.982-.265-.395-.395v-.752l-.531.532h-2.154zm.367.883h2.482l.754.754-1.994 1.996-1.996-1.996zm5.935.315-.38.886-1.983 1.983-.637.367.983.262.398.398v.752l.531-.531h2.155l.53.531v-.752l.395-.394.983-.266-.633-.365-1.998-2zm-.01 1.015 1.994 1.996-.754.752h-2.484l-.752-.752zm3.075-2.213v.752l-.395.395-.984.265.636.368 1.98 1.978.384.89.347-.874 1.997-1.996.632-.366-.982-.265-.395-.395v-.752l-.53.532h-2.155zm.367.883h2.484l.752.754-1.994 1.996-1.996-1.996zm5.935.315-.382.888-1.977 1.979-.64.369.984.264.394.396v.752l.532-.531h2.154l.531.531v-.752l.395-.394.982-.266-.633-.365-1.998-2zm-.01 1.015 1.995 1.996-.752.752h-2.487l-.752-.752zm3.075-2.213v.752l-.395.395-.984.265.639.37 1.976 1.976.385.89.346-.874 1.996-1.996.633-.366-.983-.265-.394-.395v-.752l-.532.532h-2.154zm.367.883h2.484l.752.754-1.994 1.996-1.996-1.996zm5.938.315-.383.888-1.98 1.98-.637.368.982.264.395.396v.752l.53-.531h2.155l.531.531v-.75l.4-.4.981-.262-.636-.367-1.997-1.996zm-.012 1.015 1.996 1.996-.754.752h-2.486l-.752-.752z"/><path d="m132.14 180.42 1.256-1.257-1.257-1.256-1.256 1.256zm0-.375-.884-.883.882-.882.883.883zm-1.687-1.312 1.257-1.256-1.257-1.257-1.257 1.257zm0-.375-.882-.881.882-.884.883.884zm-1.686 2.062 1.257-1.257-1.257-1.256-1.256 1.256zm0-.375-.881-.882.881-.883.882.882zm3.373 7.482 1.256-1.256-1.257-1.256-1.256 1.256zm0-.375-.884-.883.882-.881.883.883zm-1.687-1.312 1.257-1.256-1.257-1.256-1.257 1.256zm0-.374-.882-.882.882-.883.883.883zm-1.686 2.061 1.257-1.256-1.257-1.256-1.256 1.256zm0-.375-.881-.881.881-.883.882.881zm3.373 7.488 1.256-1.257-1.257-1.256-1.256 1.256zm0-.375-.884-.884.882-.881.883.883zm-1.687-1.312 1.257-1.257-1.257-1.256-1.257 1.256zm0-.375-.882-.882.882-.883.883.883zm-1.686 2.062 1.257-1.257-1.257-1.256-1.256 1.256zm0-.375-.881-.882.881-.883.882.881z" style="stroke-width:.999997"/></svg>