<svg xmlns="http://www.w3.org/2000/svg" width="11in" height="816" viewBox="0 0 279.4 215.9"><path d="M10.515 21.948h279.4v215.9h-279.4z" style="font-variation-settings:normal;opacity:1;vector-effect:none;fill:#fff;fill-opacity:1;fill-rule:evenodd;stroke:none;stroke-width:.352777;stroke-linecap:butt;stroke-linejoin:miter;stroke-miterlimit:4;stroke-dasharray:none;stroke-dashoffset:0;stroke-opacity:1;-inkscape-stroke:none;stop-color:#000;stop-opacity:1" transform="translate(-10.515 -21.948)"/><path d="m239.85 164.596-1.86-1.86v-2.63l1.86-1.86h41.848l1.86 1.86v2.63l-1.86 1.86z" style="font-variation-settings:normal;vector-effect:none;fill:#000;fill-opacity:1;stroke:#000;stroke-width:.352777;stroke-linecap:butt;stroke-linejoin:miter;stroke-miterlimit:4;stroke-dasharray:none;stroke-dashoffset:0;stroke-opacity:1;-inkscape-stroke:none;stop-color:#000" transform="translate(-10.515 -21.948)"/><text xml:space="preserve" x="240.942" y="165.041" style="font-style:normal;font-variant:normal;font-weight:700;font-stretch:normal;font-size:4.29903px;line-height:1.25;font-family:Arial;-inkscape-font-specification:&quot;Arial Bold&quot;;white-space:pre;display:inline;fill:#fff;stroke:none;stroke-width:.352778;stroke-dasharray:none" transform="matrix(1.01553 0 0 .9847 -10.515 -21.948)"><tspan style="stroke-width:.352778;stroke-dasharray:none">Casting Talents</tspan></text><path d="M156.565 34.648v-4.49l1.86-1.86h123.28l1.86 1.86v4.49z" style="font-variation-settings:normal;vector-effect:none;fill:#000;fill-opacity:1;stroke:#000;stroke-width:.352777;stroke-linecap:butt;stroke-linejoin:miter;stroke-miterlimit:4;stroke-dasharray:none;stroke-dashoffset:0;stroke-opacity:1;-inkscape-stroke:none;stop-color:#000" transform="translate(-10.515 -21.948)"/><text xml:space="preserve" x="205.877" y="32.569" style="font-style:normal;font-variant:normal;font-weight:700;font-stretch:normal;font-size:4.23333px;line-height:1.25;font-family:Arial;-inkscape-font-specification:&quot;Arial Bold&quot;;white-space:pre;display:inline;fill:#fff;stroke:none;stroke-width:.352778;stroke-dasharray:none" transform="translate(-10.515 -21.948)"><tspan style="fill:#fff;stroke-width:.352778;stroke-dasharray:none">Casting Sheet</tspan></text><path d="m234.654 231.78-.234-.233.234-.097zm2.025-2.025h-.33l.097-.233zm-78.371 2.025.234-.233-.234-.097zm-2.025-2.025h.33l-.096-.233zM283.847 30.041l-.234.234-.096-.234zm-2.025-2.025v.33l-.234-.096z" style="font-variation-settings:normal;vector-effect:none;fill:none;fill-opacity:1;stroke:#000;stroke-width:.352777;stroke-linecap:butt;stroke-linejoin:miter;stroke-miterlimit:4;stroke-dasharray:none;stroke-dashoffset:0;stroke-opacity:1;-inkscape-stroke:none;stop-color:#000" transform="translate(-10.515 -21.948)"/><text xml:space="preserve" x="246.386" y="171.133" style="font-style:normal;font-variant:normal;font-weight:400;font-stretch:normal;font-size:4.23333px;line-height:1.25;font-family:Arial;-inkscape-font-specification:Arial;white-space:pre;display:inline;fill:#000;fill-opacity:1;stroke:none;stroke-width:.352778;stroke-dasharray:none" transform="translate(-10.515 -21.948)"><tspan style="stroke-width:.352778;stroke-dasharray:none">Prevention</tspan></text><text xml:space="preserve" x="249.045" y="179.216" style="font-style:normal;font-variant:normal;font-weight:400;font-stretch:normal;font-size:4.23333px;line-height:1.25;font-family:Arial;-inkscape-font-specification:Arial;white-space:pre;display:inline;fill:#000;fill-opacity:1;stroke:none;stroke-width:.352778;stroke-dasharray:none" transform="translate(-10.515 -21.948)"><tspan style="stroke-width:.352778;stroke-dasharray:none">Trickery</tspan></text><text xml:space="preserve" x="248.39" y="187.72" style="font-style:normal;font-variant:normal;font-weight:400;font-stretch:normal;font-size:4.23333px;line-height:1.25;font-family:Arial;-inkscape-font-specification:Arial;white-space:pre;display:inline;fill:#000;fill-opacity:1;stroke:none;stroke-width:.352778;stroke-dasharray:none" transform="translate(-10.515 -21.948)"><tspan style="stroke-width:.352778;stroke-dasharray:none">Knowing</tspan></text><text xml:space="preserve" x="249.49" y="196.224" style="font-style:normal;font-variant:normal;font-weight:400;font-stretch:normal;font-size:4.23333px;line-height:1.25;font-family:Arial;-inkscape-font-specification:Arial;white-space:pre;display:inline;fill:#000;fill-opacity:1;stroke:none;stroke-width:.352778;stroke-dasharray:none" transform="translate(-10.515 -21.948)"><tspan style="stroke-width:.352778;stroke-dasharray:none">Altering</tspan></text><text xml:space="preserve" x="243.309" y="205.148" style="font-style:normal;font-variant:normal;font-weight:400;font-stretch:normal;font-size:4.23333px;line-height:1.25;font-family:Arial;-inkscape-font-specification:Arial;white-space:pre;display:inline;fill:#000;fill-opacity:1;stroke:none;stroke-width:.352778;stroke-dasharray:none" transform="translate(-10.515 -21.948)"><tspan style="stroke-width:.352778;stroke-dasharray:none">Enhancement</tspan></text><text xml:space="preserve" x="246.587" y="213.652" style="font-style:normal;font-variant:normal;font-weight:400;font-stretch:normal;font-size:4.23333px;line-height:1.25;font-family:Arial;-inkscape-font-specification:Arial;white-space:pre;display:inline;fill:#000;fill-opacity:1;stroke:none;stroke-width:.352778;stroke-dasharray:none" transform="translate(-10.515 -21.948)"><tspan style="stroke-width:.352778;stroke-dasharray:none">Interaction</tspan></text><path d="m240.132 215.336-1.86-1.86v-2.63l1.86-1.86h32.78l1.86 1.86v2.63l-1.86 1.86z" style="font-variation-settings:normal;fill:none;fill-opacity:1;stroke:#000;stroke-width:.352778;stroke-linecap:butt;stroke-linejoin:miter;stroke-miterlimit:4;stroke-dasharray:none;stroke-dashoffset:0;stroke-opacity:1;stop-color:#000" transform="translate(-10.515 -21.948)"/><path d="m237.99 213.593.234-.233.097.233zm0-2.863.234.233.097-.234zm2.026 4.888v-.33l.233.097zm0-6.913v.33l.233-.097zm35.038 4.888-.233-.233-.097.233zm0-2.863-.233.233-.097-.234zm-2.024 4.888v-.33l-.234.097zm0-6.913v.33l-.234-.097z" style="font-variation-settings:normal;vector-effect:none;fill:none;fill-opacity:1;stroke:#000;stroke-width:.352777;stroke-linecap:butt;stroke-linejoin:miter;stroke-miterlimit:4;stroke-dasharray:none;stroke-dashoffset:0;stroke-opacity:1;-inkscape-stroke:none;stop-color:#000" transform="translate(-10.515 -21.948)"/><path d="m240.132 206.833-1.86-1.86v-2.63l1.86-1.86h32.78l1.86 1.86v2.63l-1.86 1.86z" style="font-variation-settings:normal;fill:none;fill-opacity:1;stroke:#000;stroke-width:.352778;stroke-linecap:butt;stroke-linejoin:miter;stroke-miterlimit:4;stroke-dasharray:none;stroke-dashoffset:0;stroke-opacity:1;stop-color:#000" transform="translate(-10.515 -21.948)"/><path d="m237.99 205.09.234-.234.097.234zm0-2.864.234.233.097-.233zm2.026 4.888v-.33l.233.097zm0-6.914v.331l.233-.097zm35.038 4.89-.233-.234-.097.234zm0-2.864-.233.233-.097-.233zm-2.024 4.888v-.33l-.234.097zm0-6.914v.331l-.234-.097z" style="font-variation-settings:normal;vector-effect:none;fill:none;fill-opacity:1;stroke:#000;stroke-width:.352777;stroke-linecap:butt;stroke-linejoin:miter;stroke-miterlimit:4;stroke-dasharray:none;stroke-dashoffset:0;stroke-opacity:1;-inkscape-stroke:none;stop-color:#000" transform="translate(-10.515 -21.948)"/><path d="m240.132 198.329-1.86-1.86v-2.63l1.86-1.86h32.78l1.86 1.86v2.63l-1.86 1.86z" style="font-variation-settings:normal;fill:none;fill-opacity:1;stroke:#000;stroke-width:.352778;stroke-linecap:butt;stroke-linejoin:miter;stroke-miterlimit:4;stroke-dasharray:none;stroke-dashoffset:0;stroke-opacity:1;stop-color:#000" transform="translate(-10.515 -21.948)"/><path d="m237.99 196.586.234-.234.097.234zm0-2.864.234.233.097-.233zm2.026 4.888v-.33l.233.097zm0-6.913v.33l.233-.097zm35.038 4.889-.233-.234-.097.234zm0-2.864-.233.233-.097-.233zm-2.024 4.888v-.33l-.234.097zm0-6.913v.33l-.234-.097z" style="font-variation-settings:normal;vector-effect:none;fill:none;fill-opacity:1;stroke:#000;stroke-width:.352777;stroke-linecap:butt;stroke-linejoin:miter;stroke-miterlimit:4;stroke-dasharray:none;stroke-dashoffset:0;stroke-opacity:1;-inkscape-stroke:none;stop-color:#000" transform="translate(-10.515 -21.948)"/><path d="M276.926 213.477v-2.63l1.86-1.86h2.63l1.86 1.86v2.63l-1.86 1.86h-2.63z" style="font-variation-settings:normal;fill:none;fill-opacity:1;stroke:#000;stroke-width:.352778;stroke-linecap:butt;stroke-linejoin:miter;stroke-miterlimit:4;stroke-dasharray:none;stroke-dashoffset:0;stroke-opacity:1;stop-color:#000" transform="translate(-10.515 -21.948)"/><path d="m283.558 213.593-.234-.233-.096.233zm0-2.863-.234.233-.096-.234zm-2.025 4.888v-.33l-.233.097zm0-6.913v.33l-.233-.097zm-4.889 4.888.234-.233.096.233zm0-2.863.234.233.096-.234zm2.026 4.888v-.33l.233.097zm0-6.913v.33l.233-.097z" style="font-variation-settings:normal;vector-effect:none;fill:none;fill-opacity:1;stroke:#000;stroke-width:.352777;stroke-linecap:butt;stroke-linejoin:miter;stroke-miterlimit:4;stroke-dasharray:none;stroke-dashoffset:0;stroke-opacity:1;-inkscape-stroke:none;stop-color:#000" transform="translate(-10.515 -21.948)"/><path d="M276.926 204.973v-2.63l1.86-1.86h2.63l1.86 1.86v2.63l-1.86 1.86h-2.63z" style="font-variation-settings:normal;fill:none;fill-opacity:1;stroke:#000;stroke-width:.352778;stroke-linecap:butt;stroke-linejoin:miter;stroke-miterlimit:4;stroke-dasharray:none;stroke-dashoffset:0;stroke-opacity:1;stop-color:#000" transform="translate(-10.515 -21.948)"/><path d="m283.558 205.09-.234-.234-.096.234zm0-2.864-.234.233-.096-.233zm-2.025 4.888v-.33l-.233.097zm0-6.914v.331l-.233-.097zm-4.889 4.89.234-.234.096.234zm0-2.864.234.233.096-.233zm2.026 4.888v-.33l.233.097zm0-6.914v.331l.233-.097z" style="font-variation-settings:normal;vector-effect:none;fill:none;fill-opacity:1;stroke:#000;stroke-width:.352777;stroke-linecap:butt;stroke-linejoin:miter;stroke-miterlimit:4;stroke-dasharray:none;stroke-dashoffset:0;stroke-opacity:1;-inkscape-stroke:none;stop-color:#000" transform="translate(-10.515 -21.948)"/><path d="m240.132 189.825-1.86-1.86v-2.63l1.86-1.86h32.78l1.86 1.86v2.63l-1.86 1.86z" style="font-variation-settings:normal;fill:none;fill-opacity:1;stroke:#000;stroke-width:.352778;stroke-linecap:butt;stroke-linejoin:miter;stroke-miterlimit:4;stroke-dasharray:none;stroke-dashoffset:0;stroke-opacity:1;stop-color:#000" transform="translate(-10.515 -21.948)"/><path d="m237.99 188.082.234-.234.097.234zm0-2.864.234.234.097-.234zm2.026 4.889v-.33l.233.096zm0-6.914v.33l.233-.096zm35.038 4.889-.233-.234-.097.234zm0-2.864-.233.234-.097-.234zm-2.024 4.889v-.33l-.234.096zm0-6.914v.33l-.234-.096z" style="font-variation-settings:normal;vector-effect:none;fill:none;fill-opacity:1;stroke:#000;stroke-width:.352777;stroke-linecap:butt;stroke-linejoin:miter;stroke-miterlimit:4;stroke-dasharray:none;stroke-dashoffset:0;stroke-opacity:1;-inkscape-stroke:none;stop-color:#000" transform="translate(-10.515 -21.948)"/><path d="m240.132 181.321-1.86-1.86v-2.63l1.86-1.86h32.78l1.86 1.86v2.63l-1.86 1.86z" style="font-variation-settings:normal;fill:none;fill-opacity:1;stroke:#000;stroke-width:.352778;stroke-linecap:butt;stroke-linejoin:miter;stroke-miterlimit:4;stroke-dasharray:none;stroke-dashoffset:0;stroke-opacity:1;stop-color:#000" transform="translate(-10.515 -21.948)"/><path d="m237.99 179.578.234-.233.097.233zm0-2.864.234.234.097-.234zm2.026 4.889v-.33l.233.097zm0-6.913v.33l.233-.097zm35.038 4.888-.233-.233-.097.233zm0-2.864-.233.234-.097-.234zm-2.024 4.889v-.33l-.234.097zm0-6.913v.33l-.234-.097z" style="font-variation-settings:normal;vector-effect:none;fill:none;fill-opacity:1;stroke:#000;stroke-width:.352777;stroke-linecap:butt;stroke-linejoin:miter;stroke-miterlimit:4;stroke-dasharray:none;stroke-dashoffset:0;stroke-opacity:1;-inkscape-stroke:none;stop-color:#000" transform="translate(-10.515 -21.948)"/><path d="m240.132 172.817-1.86-1.86v-2.63l1.86-1.86h32.78l1.86 1.86v2.63l-1.86 1.86z" style="font-variation-settings:normal;fill:none;fill-opacity:1;stroke:#000;stroke-width:.352778;stroke-linecap:butt;stroke-linejoin:miter;stroke-miterlimit:4;stroke-dasharray:none;stroke-dashoffset:0;stroke-opacity:1;stop-color:#000" transform="translate(-10.515 -21.948)"/><path d="m237.99 171.074.234-.233.097.233zm0-2.864.234.234.097-.233zm2.026 4.89v-.331l.233.097zm0-6.914v.33l.233-.097zm35.038 4.888-.233-.233-.097.233zm0-2.864-.233.234-.097-.233zm-2.024 4.89v-.331l-.234.097zm0-6.914v.33l-.234-.097z" style="font-variation-settings:normal;vector-effect:none;fill:none;fill-opacity:1;stroke:#000;stroke-width:.352777;stroke-linecap:butt;stroke-linejoin:miter;stroke-miterlimit:4;stroke-dasharray:none;stroke-dashoffset:0;stroke-opacity:1;-inkscape-stroke:none;stop-color:#000" transform="translate(-10.515 -21.948)"/><path d="M276.926 196.469v-2.63l1.86-1.86h2.63l1.86 1.86v2.63l-1.86 1.86h-2.63z" style="font-variation-settings:normal;fill:none;fill-opacity:1;stroke:#000;stroke-width:.352778;stroke-linecap:butt;stroke-linejoin:miter;stroke-miterlimit:4;stroke-dasharray:none;stroke-dashoffset:0;stroke-opacity:1;stop-color:#000" transform="translate(-10.515 -21.948)"/><path d="m283.558 196.586-.234-.234-.096.234zm0-2.864-.234.233-.096-.233zm-2.025 4.888v-.33l-.233.097zm0-6.913v.33l-.233-.097Zm-4.889 4.889.234-.234.096.234zm0-2.864.234.233.096-.233zm2.026 4.888v-.33l.233.097zm0-6.913v.33l.233-.097z" style="font-variation-settings:normal;vector-effect:none;fill:none;fill-opacity:1;stroke:#000;stroke-width:.352777;stroke-linecap:butt;stroke-linejoin:miter;stroke-miterlimit:4;stroke-dasharray:none;stroke-dashoffset:0;stroke-opacity:1;-inkscape-stroke:none;stop-color:#000" transform="translate(-10.515 -21.948)"/><path d="M276.926 187.965v-2.63l1.86-1.86h2.63l1.86 1.86v2.63l-1.86 1.86h-2.63z" style="font-variation-settings:normal;fill:none;fill-opacity:1;stroke:#000;stroke-width:.352778;stroke-linecap:butt;stroke-linejoin:miter;stroke-miterlimit:4;stroke-dasharray:none;stroke-dashoffset:0;stroke-opacity:1;stop-color:#000" transform="translate(-10.515 -21.948)"/><path d="m283.558 188.082-.234-.234-.096.234zm0-2.864-.234.234-.096-.234zm-2.025 4.889v-.33l-.233.096zm0-6.914v.33l-.233-.096zm-4.889 4.889.234-.234.096.234zm0-2.864.234.234.096-.234zm2.026 4.889v-.33l.233.096zm0-6.914v.33l.233-.096z" style="font-variation-settings:normal;vector-effect:none;fill:none;fill-opacity:1;stroke:#000;stroke-width:.352777;stroke-linecap:butt;stroke-linejoin:miter;stroke-miterlimit:4;stroke-dasharray:none;stroke-dashoffset:0;stroke-opacity:1;-inkscape-stroke:none;stop-color:#000" transform="translate(-10.515 -21.948)"/><path d="M276.926 179.461v-2.63l1.86-1.86h2.63l1.86 1.86v2.63l-1.86 1.86h-2.63z" style="font-variation-settings:normal;fill:none;fill-opacity:1;stroke:#000;stroke-width:.352778;stroke-linecap:butt;stroke-linejoin:miter;stroke-miterlimit:4;stroke-dasharray:none;stroke-dashoffset:0;stroke-opacity:1;stop-color:#000" transform="translate(-10.515 -21.948)"/><path d="m283.558 179.578-.234-.233-.096.233zm0-2.864-.234.234-.096-.234zm-2.025 4.889v-.33l-.233.097zm0-6.913v.33l-.233-.097zm-4.889 4.888.234-.233.096.233zm0-2.864.234.234.096-.234zm2.026 4.889v-.33l.233.097zm0-6.913v.33l.233-.097z" style="font-variation-settings:normal;vector-effect:none;fill:none;fill-opacity:1;stroke:#000;stroke-width:.352777;stroke-linecap:butt;stroke-linejoin:miter;stroke-miterlimit:4;stroke-dasharray:none;stroke-dashoffset:0;stroke-opacity:1;-inkscape-stroke:none;stop-color:#000" transform="translate(-10.515 -21.948)"/><path d="M276.926 170.958v-2.63l1.86-1.86h2.63l1.86 1.86v2.63l-1.86 1.86h-2.63z" style="font-variation-settings:normal;fill:none;fill-opacity:1;stroke:#000;stroke-width:.352778;stroke-linecap:butt;stroke-linejoin:miter;stroke-miterlimit:4;stroke-dasharray:none;stroke-dashoffset:0;stroke-opacity:1;stop-color:#000" transform="translate(-10.515 -21.948)"/><path d="m283.558 171.074-.234-.233-.096.233zm0-2.864-.234.234-.096-.233zm-2.025 4.89v-.331l-.233.097zm0-6.914v.33l-.233-.097zm-4.889 4.888.234-.233.096.233zm0-2.864.234.234.096-.233zm2.026 4.89v-.331l.233.097zm0-6.914v.33l.233-.097z" style="font-variation-settings:normal;vector-effect:none;fill:none;fill-opacity:1;stroke:#000;stroke-width:.352777;stroke-linecap:butt;stroke-linejoin:miter;stroke-miterlimit:4;stroke-dasharray:none;stroke-dashoffset:0;stroke-opacity:1;-inkscape-stroke:none;stop-color:#000" transform="translate(-10.515 -21.948)"/><path d="m239.85 223.558-1.86-1.86v-2.63l1.86-1.86h41.848l1.86 1.86v2.63l-1.86 1.86z" style="font-variation-settings:normal;vector-effect:none;fill:#000;fill-opacity:1;stroke:#000;stroke-width:.352777;stroke-linecap:butt;stroke-linejoin:miter;stroke-miterlimit:4;stroke-dasharray:none;stroke-dashoffset:0;stroke-opacity:1;-inkscape-stroke:none;stop-color:#000" transform="translate(-10.515 -21.948)"/><text xml:space="preserve" x="239.415" y="224.919" style="font-style:normal;font-variant:normal;font-weight:700;font-stretch:normal;font-size:4.29903px;line-height:1.25;font-family:Arial;-inkscape-font-specification:&quot;Arial Bold&quot;;white-space:pre;display:inline;fill:#fff;stroke:none;stroke-width:.352778;stroke-dasharray:none" transform="matrix(1.01553 0 0 .9847 -10.515 -21.948)"><tspan style="stroke-width:.352778;stroke-dasharray:none">Casting Attribute</tspan></text><path d="m239.21 231.498-1.227-1.226.64-.639v-2.62l-.64-.638 1.227-1.227h43.129l1.226 1.227-.64.638v2.62l.64.639-1.226 1.226z" style="font-variation-settings:normal;vector-effect:none;fill:none;fill-opacity:1;stroke:#000;stroke-width:.352777;stroke-linecap:butt;stroke-linejoin:miter;stroke-miterlimit:4;stroke-dasharray:none;stroke-dashoffset:0;stroke-opacity:1;-inkscape-stroke:none;stop-color:#000" transform="translate(-10.515 -21.948)"/><path d="M234.537 231.498h-76.112l-1.86-1.86V34.648h127v120.137l-1.86 1.86h-43.448l-1.86 1.86v71.133zM156.283 30.041l.234.234.096-.234zm2.025-2.025v.33l.234-.096zM283.84 218.951l-.234.234-.096-.234zm-2.025-2.025v.33l-.234-.096zm2.025 4.889-.234-.233-.096.233zm-2.025 2.025v-.33l-.234.097z" style="font-variation-settings:normal;vector-effect:none;fill:none;fill-opacity:1;stroke:#000;stroke-width:.352777;stroke-linecap:butt;stroke-linejoin:miter;stroke-miterlimit:4;stroke-dasharray:none;stroke-dashoffset:0;stroke-opacity:1;-inkscape-stroke:none;stop-color:#000" transform="translate(-10.515 -21.948)"/><path d="m237.709 218.951.233.234.097-.234zm2.025-2.025v.33l.233-.096zm-2.025 4.889.233-.233.097.233zm2.025 2.025v-.33l.233.097zm44.106-63.851-.234.233-.096-.233zm-2.025-2.025v.33l-.234-.097zm2.025 4.888-.234-.233-.096.233zm-2.025 2.025v-.33l-.234.097zm-44.106-4.888.233.233.097-.233zm2.025-2.025v.33l.233-.097zm-2.025 4.888.233-.233.097.233zm2.025 2.025v-.33l.233.097zm42.838 60.038v.33l-.233-.097zm0 6.914v-.33l-.233.096zm-43.479-6.963v.33l.233-.096zm0 6.914v-.33l.233.097zm42.729-74.854-.234-.233.234-.097zm2.025-2.025h-.33l.097-.233z" style="font-variation-settings:normal;vector-effect:none;fill:none;fill-opacity:1;stroke:#000;stroke-width:.352777;stroke-linecap:butt;stroke-linejoin:miter;stroke-miterlimit:4;stroke-dasharray:none;stroke-dashoffset:0;stroke-opacity:1;-inkscape-stroke:none;stop-color:#000" transform="translate(-10.515 -21.948)"/><path d="M16.865 34.648v-4.49l1.86-1.86h123.28l1.86 1.86v4.49z" style="font-variation-settings:normal;vector-effect:none;fill:#000;fill-opacity:1;stroke:#000;stroke-width:.352777;stroke-linecap:butt;stroke-linejoin:miter;stroke-miterlimit:4;stroke-dasharray:none;stroke-dashoffset:0;stroke-opacity:1;-inkscape-stroke:none;stop-color:#000" transform="translate(-10.515 -21.948)"/><text xml:space="preserve" x="64.491" y="32.569" style="font-style:normal;font-variant:normal;font-weight:700;font-stretch:normal;font-size:4.23333px;line-height:1.25;font-family:Arial;-inkscape-font-specification:&quot;Arial Bold&quot;;white-space:pre;display:inline;fill:#fff;stroke:none;stroke-width:.352778;stroke-dasharray:none" transform="translate(-10.515 -21.948)"><tspan style="fill:#fff;stroke-width:.352778;stroke-dasharray:none">Sturdy Pancake</tspan></text><g style="stroke-width:1.33668"><path d="m-409.565 8.742.007.007a.614.614 0 0 1 .035.037l3.386 3.68.037.04c.209.21.503.253.659.098.155-.155.11-.45-.098-.658l-.04-.038-3.68-3.386a.605.605 0 0 1-.038-.034l-.007-.007a.427.427 0 0 1-.129-.35c.001-.014.006-.028.01-.042a.444.444 0 0 0 .007-.037c.061-.368-.112-.838-.483-1.21-.369-.368-.834-.54-1.2-.484l.225.226c.039.039.041.1.005.137-.036.036-.097.032-.136-.007l-.316-.287a.579.579 0 0 0-.09.051l.274.3c.04.04.042.1.006.136-.035.036-.096.034-.136-.006l-.3-.274a.58.58 0 0 0-.051.09l.287.316c.039.04.043.1.007.136-.036.036-.098.034-.137-.005l-.226-.226c-.052.334.087.749.39 1.099.03.034.062.068.095.101.384.384.873.557 1.246.477a.292.292 0 0 1 .042-.01.428.428 0 0 1 .35.13z" style="fill:#fff;stroke:#000;stroke-width:.0471552;stroke-dasharray:none" transform="translate(344.287 2.402) scale(.74812)"/><path d="m-407.481 8.742-.007.007a.614.614 0 0 0-.035.037l-3.386 3.68-.037.04c-.209.21-.503.253-.659.098-.155-.155-.11-.45.098-.658l.04-.038 3.68-3.386a.605.605 0 0 0 .038-.034l.007-.007a.427.427 0 0 0 .129-.35c-.001-.014-.006-.028-.01-.042a.444.444 0 0 1-.007-.037c-.061-.368.112-.838.483-1.21.369-.368.834-.54 1.2-.484l-.225.226a.098.098 0 0 0-.005.137c.036.036.097.032.136-.007l.316-.287a.579.579 0 0 1 .09.051l-.274.3c-.04.04-.042.1-.006.136.035.036.096.034.136-.006l.3-.274a.58.58 0 0 1 .051.09l-.287.316c-.039.04-.043.1-.007.136.036.036.098.034.137-.005l.226-.226c.052.334-.087.749-.39 1.099-.03.034-.062.068-.095.101-.384.384-.873.557-1.246.477a.292.292 0 0 0-.042-.01.428.428 0 0 0-.35.13z" style="fill:#fff;stroke:#000;stroke-width:.0471552;stroke-dasharray:none" transform="translate(344.287 2.402) scale(.74812)"/></g><g style="stroke-width:1.33668"><path d="m-409.565 8.742.007.007a.614.614 0 0 1 .035.037l3.386 3.68.037.04c.209.21.503.253.659.098.155-.155.11-.45-.098-.658l-.04-.038-3.68-3.386a.605.605 0 0 1-.038-.034l-.007-.007a.427.427 0 0 1-.129-.35c.001-.014.006-.028.01-.042a.444.444 0 0 0 .007-.037c.061-.368-.112-.838-.483-1.21-.369-.368-.834-.54-1.2-.484l.225.226c.039.039.041.1.005.137-.036.036-.097.032-.136-.007l-.316-.287a.579.579 0 0 0-.09.051l.274.3c.04.04.042.1.006.136-.035.036-.096.034-.136-.006l-.3-.274a.58.58 0 0 0-.051.09l.287.316c.039.04.043.1.007.136-.036.036-.098.034-.137-.005l-.226-.226c-.052.334.087.749.39 1.099.03.034.062.068.095.101.384.384.873.557 1.246.477a.292.292 0 0 1 .042-.01.428.428 0 0 1 .35.13z" style="fill:#fff;stroke:#000;stroke-width:.0471552;stroke-dasharray:none" transform="translate(406.663 2.402) scale(.74812)"/><path d="m-407.481 8.742-.007.007a.614.614 0 0 0-.035.037l-3.386 3.68-.037.04c-.209.21-.503.253-.659.098-.155-.155-.11-.45.098-.658l.04-.038 3.68-3.386a.605.605 0 0 0 .038-.034l.007-.007a.427.427 0 0 0 .129-.35c-.001-.014-.006-.028-.01-.042a.444.444 0 0 1-.007-.037c-.061-.368.112-.838.483-1.21.369-.368.834-.54 1.2-.484l-.225.226a.098.098 0 0 0-.005.137c.036.036.097.032.136-.007l.316-.287a.579.579 0 0 1 .09.051l-.274.3c-.04.04-.042.1-.006.136.035.036.096.034.136-.006l.3-.274a.58.58 0 0 1 .051.09l-.287.316c-.039.04-.043.1-.007.136.036.036.098.034.137-.005l.226-.226c.052.334-.087.749-.39 1.099-.03.034-.062.068-.095.101-.384.384-.873.557-1.246.477a.292.292 0 0 0-.042-.01.428.428 0 0 0-.35.13z" style="fill:#fff;stroke:#000;stroke-width:.0471552;stroke-dasharray:none" transform="translate(406.663 2.402) scale(.74812)"/></g><g style="stroke-width:1.3369"><path d="M186.8 86.315a.434.434 0 0 0 .086-.858v-.114a.26.26 0 0 1 .26-.26.087.087 0 0 0 0-.173.434.434 0 0 0-.433.433v.114a.434.434 0 0 0 .087.858zm-2.677 4.217c.43.435 1.445.728 2.637.728s2.207-.293 2.638-.728c-.693.269-1.668.406-2.638.406s-1.945-.137-2.637-.406z" style="fill:#fff;stroke-width:.471627" transform="matrix(.748 0 0 .748 -47.579 -56.362)"/><path d="M189.79 88.99c.04.832-1.555 1.173-3.03 1.18-1.475-.007-3.07-.348-3.03-1.18-.266.173-.407.37-.407.577 0 .672 1.51 1.198 3.437 1.198 1.927 0 3.437-.526 3.437-1.198 0-.208-.14-.404-.406-.577z" style="fill:#fff;stroke-width:.471627" transform="matrix(.748 0 0 .748 -47.579 -56.362)"/><path d="M186.76 89.997c1.386 0 2.86-.34 2.86-.968a.422.422 0 0 0-.092-.254c-.508.433-1.67.635-2.768.635-1.098 0-2.26-.202-2.768-.635a.422.422 0 0 0-.091.254c0 .628 1.473.968 2.86.968z" style="fill:#fff;stroke-width:.471627" transform="matrix(.748 0 0 .748 -47.579 -56.362)"/><path d="M186.76 89.237c1.386 0 2.86-.34 2.86-.968a.422.422 0 0 0-.092-.254c-.508.434-1.67.635-2.768.635-1.098 0-2.26-.202-2.768-.635a.422.422 0 0 0-.091.254c0 .629 1.473.968 2.86.968z" style="fill:#fff;stroke-width:.471627" transform="matrix(.748 0 0 .748 -47.579 -56.362)"/><path d="M186.76 88.477c1.386 0 2.86-.34 2.86-.968a.422.422 0 0 0-.092-.254c-.508.434-1.67.636-2.768.636-1.098 0-2.26-.202-2.768-.636a.422.422 0 0 0-.091.254c0 .629 1.473.968 2.86.968z" style="fill:#fff;stroke-width:.471627" transform="matrix(.748 0 0 .748 -47.579 -56.362)"/><path d="M186.76 87.717c1.386 0 2.86-.345 2.86-.985a.37.37 0 0 0-.01-.081 9.683 9.683 0 0 1-.711.158c-.364.071-.777.153-1.21.281a3.13 3.13 0 0 1-.884.145c-.46 0-.762-.145-1.039-.278-.259-.124-.503-.24-.853-.224-.483.024-.79-.056-.982-.147a.412.412 0 0 0-.03.146c0 .64 1.473.985 2.86.985z" style="fill:#fff;stroke-width:.471627" transform="matrix(.748 0 0 .748 -47.579 -56.362)"/><path d="M184.904 86.56c.392-.02.67.113.937.24.415.2.845.406 1.798.124.441-.13.858-.213 1.226-.286.252-.05.483-.095.675-.148-.262-.398-1.162-.644-2.142-.719.003.026.008.052.008.078 0 .34-.272.618-.606.618a.613.613 0 0 1-.607-.618c0-.028.005-.056.008-.083-.965.064-1.87.293-2.183.67.166.076.443.146.886.124z" style="fill:#fff;stroke-width:.471627" transform="matrix(.748 0 0 .748 -47.579 -56.362)"/></g><g style="stroke-width:1.3369"><path d="M186.8 86.315a.434.434 0 0 0 .086-.858v-.114a.26.26 0 0 1 .26-.26.087.087 0 0 0 0-.173.434.434 0 0 0-.433.433v.114a.434.434 0 0 0 .087.858zm-2.677 4.217c.43.435 1.445.728 2.637.728s2.207-.293 2.638-.728c-.693.269-1.668.406-2.638.406s-1.945-.137-2.637-.406z" style="fill:#fff;stroke-width:.471627" transform="matrix(.748 0 0 .748 -92.114 -56.362)"/><path d="M189.79 88.99c.04.832-1.555 1.173-3.03 1.18-1.475-.007-3.07-.348-3.03-1.18-.266.173-.407.37-.407.577 0 .672 1.51 1.198 3.437 1.198 1.927 0 3.437-.526 3.437-1.198 0-.208-.14-.404-.406-.577z" style="fill:#fff;stroke-width:.471627" transform="matrix(.748 0 0 .748 -92.114 -56.362)"/><path d="M186.76 89.997c1.386 0 2.86-.34 2.86-.968a.422.422 0 0 0-.092-.254c-.508.433-1.67.635-2.768.635-1.098 0-2.26-.202-2.768-.635a.422.422 0 0 0-.091.254c0 .628 1.473.968 2.86.968z" style="fill:#fff;stroke-width:.471627" transform="matrix(.748 0 0 .748 -92.114 -56.362)"/><path d="M186.76 89.237c1.386 0 2.86-.34 2.86-.968a.422.422 0 0 0-.092-.254c-.508.434-1.67.635-2.768.635-1.098 0-2.26-.202-2.768-.635a.422.422 0 0 0-.091.254c0 .629 1.473.968 2.86.968z" style="fill:#fff;stroke-width:.471627" transform="matrix(.748 0 0 .748 -92.114 -56.362)"/><path d="M186.76 88.477c1.386 0 2.86-.34 2.86-.968a.422.422 0 0 0-.092-.254c-.508.434-1.67.636-2.768.636-1.098 0-2.26-.202-2.768-.636a.422.422 0 0 0-.091.254c0 .629 1.473.968 2.86.968z" style="fill:#fff;stroke-width:.471627" transform="matrix(.748 0 0 .748 -92.114 -56.362)"/><path d="M186.76 87.717c1.386 0 2.86-.345 2.86-.985a.37.37 0 0 0-.01-.081 9.683 9.683 0 0 1-.711.158c-.364.071-.777.153-1.21.281a3.13 3.13 0 0 1-.884.145c-.46 0-.762-.145-1.039-.278-.259-.124-.503-.24-.853-.224-.483.024-.79-.056-.982-.147a.412.412 0 0 0-.03.146c0 .64 1.473.985 2.86.985z" style="fill:#fff;stroke-width:.471627" transform="matrix(.748 0 0 .748 -92.114 -56.362)"/><path d="M184.904 86.56c.392-.02.67.113.937.24.415.2.845.406 1.798.124.441-.13.858-.213 1.226-.286.252-.05.483-.095.675-.148-.262-.398-1.162-.644-2.142-.719.003.026.008.052.008.078 0 .34-.272.618-.606.618a.613.613 0 0 1-.607-.618c0-.028.005-.056.008-.083-.965.064-1.87.293-2.183.67.166.076.443.146.886.124z" style="fill:#fff;stroke-width:.471627" transform="matrix(.748 0 0 .748 -92.114 -56.362)"/></g><path d="M16.865 34.648v194.99l1.86 1.86h123.28l1.86-1.86V34.648Z" style="font-variation-settings:normal;vector-effect:none;fill:none;fill-opacity:1;stroke:#000;stroke-width:.352777;stroke-linecap:butt;stroke-linejoin:miter;stroke-miterlimit:4;stroke-dasharray:none;stroke-dashoffset:0;stroke-opacity:1;-inkscape-stroke:none;stop-color:#000" transform="translate(-10.515 -21.948)"/><path d="M150.215 21.948v215.9" style="font-variation-settings:normal;opacity:1;fill:none;fill-opacity:1;stroke:#000;stroke-width:.3556;stroke-linecap:butt;stroke-linejoin:miter;stroke-miterlimit:4;stroke-dasharray:4.2672,.3556;stroke-dashoffset:0;stroke-opacity:1;paint-order:normal;stop-color:#000;stop-opacity:1" transform="translate(-10.515 -21.948)"/></svg>