<svg xmlns="http://www.w3.org/2000/svg" width="11in" height="816" viewBox="0 0 279.4 215.9"><defs><path id="a" d="M-528.038 635.232h26.185v24h-26.185z"/><path id="b" d="M-528.038 635.232h26.185v24h-26.185z"/><path id="c" d="M-528.038 635.232h34.683v18.74h-34.683z"/><path id="d" d="M-528.038 648h94.064v20.517h-94.064z"/><path id="e" d="M-528.038 648h79.188v16.274h-79.188z"/><path id="f" d="M-528.038 648h91.206v16.274h-91.206z"/><path id="g" d="M-528.038 648h114.383v15.702h-114.383z"/><path id="h" d="M-528.038 635.232h43.99v18.942h-43.99z"/><path id="i" d="M-528.038 648h114.383v15.702h-114.383z"/><path id="j" d="M-528.038 635.232h43.99v18.942h-43.99z"/><path id="k" d="M-392.088 452.336h469.05v16.836h-469.05z"/><path id="l" d="M-392.088 472.672H16.405v17.516h-408.493z"/><path id="m" d="M-392.088 493.008h344.049v20.336h-344.049z"/><path id="n" d="M-392.088 513.344h515.169v44.378h-515.169z"/><path id="o" d="M-392.088 533.68h344.05v20.336h-344.05z"/><path id="p" d="M1395.596 1691.866h708.997v36h-708.997z"/><path id="q" d="M1756.104 1931.804h332.243v72.899h-332.243z"/><path id="r" d="M1756.085 1847.439h331.911v67.907h-331.911z"/><path id="s" d="M1404.61 1847.533h339.456v156.576H1404.61z"/><path id="t" d="M1153.168 915.168h191.382v24.869h-191.382z"/><path id="u" d="M1153.164 965.961h191.387v24.873h-191.387z"/><path id="v" d="M1153.605 1016.771h190.945v25.92h-190.945z"/></defs><path d="M571.52 0h279.4v215.9h-279.4z" style="font-variation-settings:normal;vector-effect:none;fill:#fff;fill-opacity:1;fill-rule:evenodd;stroke:none;stroke-width:.352777;stroke-linecap:butt;stroke-linejoin:miter;stroke-miterlimit:4;stroke-dasharray:none;stroke-dashoffset:0;stroke-opacity:1;-inkscape-stroke:none;stop-color:#000" transform="translate(-571.52)"/><path d="M766.352 278.315h189.001v88H766.352z" style="font-variation-settings:normal;vector-effect:none;fill:#000;fill-opacity:1;fill-rule:evenodd;stroke:none;stroke-width:.352777;stroke-linecap:butt;stroke-linejoin:miter;stroke-miterlimit:4;stroke-dasharray:.705554,.352777;stroke-dashoffset:0;stroke-opacity:1;-inkscape-stroke:none;stop-color:#000" transform="translate(-691.639 -258.762)"/><path d="M767.874 289.34h185.979v75.475H767.874z" style="font-variation-settings:normal;vector-effect:none;fill:#fff;fill-opacity:1;fill-rule:evenodd;stroke:none;stroke-width:.352777;stroke-linecap:butt;stroke-linejoin:miter;stroke-miterlimit:4;stroke-dasharray:none;stroke-dashoffset:0;stroke-opacity:1;-inkscape-stroke:none;stop-color:#000" transform="translate(-691.639 -258.762)"/><text xml:space="preserve" style="font-size:13.3333px;line-height:1.25;font-family:Arial;-inkscape-font-specification:Arial;white-space:pre;shape-inside:url(#a);display:inline" transform="matrix(.26458 0 0 .26458 221.44 -135.05)"><tspan x="-528.039" y="647.242">&lt;4</tspan></text><text xml:space="preserve" style="font-size:13.3333px;line-height:1.25;font-family:Arial;-inkscape-font-specification:Arial;white-space:pre;shape-inside:url(#b);display:inline" transform="matrix(.26458 0 0 .26458 220.971 -129.513)"><tspan x="-528.039" y="647.242">4-7</tspan></text><text xml:space="preserve" style="font-size:13.3333px;line-height:1.25;font-family:Arial;-inkscape-font-specification:Arial;white-space:pre;shape-inside:url(#c);display:inline" transform="matrix(.26458 0 0 .26458 220.316 -123.993)"><tspan x="-528.039" y="647.242">8-11</tspan></text><text xml:space="preserve" style="font-size:13.3333px;line-height:1.25;font-family:Arial;-inkscape-font-specification:Arial;white-space:pre;shape-inside:url(#d);display:inline" transform="matrix(.26458 0 0 .26458 232.39 -138.8)"><tspan x="-528.039" y="660.01">Major Failure</tspan></text><text xml:space="preserve" style="font-size:13.3333px;line-height:1.25;font-family:Arial;-inkscape-font-specification:Arial;white-space:pre;shape-inside:url(#e);display:inline" transform="matrix(.26458 0 0 .26458 232.39 -132.912)"><tspan x="-528.039" y="660.01">Minor Failure</tspan></text><text xml:space="preserve" style="font-size:13.3333px;line-height:1.25;font-family:Arial;-inkscape-font-specification:Arial;white-space:pre;shape-inside:url(#f);display:inline" transform="matrix(.26458 0 0 .26458 231.11 -127.354)"><tspan x="-528.039" y="660.01">Minor Success</tspan></text><text xml:space="preserve" style="font-size:13.3333px;line-height:1.25;font-family:Arial;-inkscape-font-specification:Arial;white-space:pre;shape-inside:url(#g);display:inline" transform="matrix(.26458 0 0 .26458 231.11 -116.63)"><tspan x="-528.039" y="660.01">Major Success</tspan></text><text xml:space="preserve" style="font-size:13.3333px;line-height:1.25;font-family:Arial;-inkscape-font-specification:Arial;white-space:pre;shape-inside:url(#h);display:inline" transform="matrix(.26458 0 0 .26458 220.377 -112.918)"><tspan x="-528.039" y="647.242">15+</tspan></text><text xml:space="preserve" style="font-size:13.3333px;line-height:1.25;font-family:Arial;-inkscape-font-specification:Arial;white-space:pre;shape-inside:url(#i);display:inline" transform="matrix(.26458 0 0 .26458 230.738 -121.817)"><tspan x="-528.039" y="660.01">Moderate Success</tspan></text><text xml:space="preserve" style="font-size:13.3333px;line-height:1.25;font-family:Arial;-inkscape-font-specification:Arial;white-space:pre;shape-inside:url(#j);display:inline" transform="matrix(.26458 0 0 .26458 218.721 -118.434)"><tspan x="-528.039" y="647.242">12-14</tspan></text><text xml:space="preserve" style="font-size:13.3333px;line-height:1.25;font-family:Arial;-inkscape-font-specification:Arial;white-space:pre;shape-inside:url(#k);display:inline" transform="matrix(.26458 0 0 .26458 247.223 -87.009)"><tspan x="-392.088" y="464.346">Suffer 1 Casting Exhaustion and randomly select a Complication.</tspan></text><text xml:space="preserve" style="font-size:13.3333px;line-height:1.25;font-family:Arial;-inkscape-font-specification:Arial;white-space:pre;shape-inside:url(#l);display:inline" transform="matrix(.26458 0 0 .26458 246.828 -86.852)"><tspan x="-392.088" y="484.682">Success.Effects are Weakened and Suffer 1 Casting Exhaustion.</tspan></text><text xml:space="preserve" style="font-size:13.3333px;line-height:1.25;font-family:Arial;-inkscape-font-specification:Arial;white-space:pre;shape-inside:url(#m);display:inline" transform="matrix(.26458 0 0 .26458 255.823 -86.696)"><tspan x="-392.088" y="505.018">Suffer 1 Casting Exhaustion or Effects are Weakened.</tspan></text><text xml:space="preserve" style="font-size:13.3333px;line-height:1.25;font-family:Arial;-inkscape-font-specification:Arial;white-space:pre;shape-inside:url(#n);display:inline" transform="matrix(.26458 0 0 .26458 242.584 -86.539)"><tspan x="-392.088" y="525.354">You may choose Strengthened, if you do, Suffer 1 Casting Exhaustion.</tspan></text><text xml:space="preserve" style="font-size:13.3333px;line-height:1.25;font-family:Arial;-inkscape-font-specification:Arial;white-space:pre;shape-inside:url(#o);display:inline" transform="matrix(.26458 0 0 .26458 277.49 -86.382)"><tspan x="-392.088" y="545.69">Effects are Strengthened.</tspan></text><text xml:space="preserve" style="font-style:normal;font-variant:normal;font-weight:700;font-stretch:normal;font-size:16px;line-height:1.25;font-family:Arial;-inkscape-font-specification:&quot;Arial Bold&quot;;white-space:pre;shape-inside:url(#p);display:inline;fill:#fff" transform="matrix(.26458 0 0 .26458 -220.695 -424.542)"><tspan x="1395.596" y="1706.277">Casting Cheat Sheet</tspan></text><path d="M813.658 307.542h138.608v5.537H813.658zM769.444 307.542h11.895v5.537h-11.895z" style="font-variation-settings:normal;vector-effect:none;fill:none;fill-opacity:1;fill-rule:evenodd;stroke:#000;stroke-width:.352777;stroke-linecap:butt;stroke-linejoin:miter;stroke-miterlimit:4;stroke-dasharray:none;stroke-dashoffset:0;stroke-opacity:1;-inkscape-stroke:none;stop-color:#000" transform="translate(-691.639 -258.762)"/><path d="M781.339 307.542h32.32v5.537h-32.32z" style="font-variation-settings:normal;vector-effect:none;fill:none;fill-opacity:1;fill-rule:evenodd;stroke:#000;stroke-width:.352776;stroke-linecap:butt;stroke-linejoin:miter;stroke-miterlimit:4;stroke-dasharray:none;stroke-dashoffset:0;stroke-opacity:1;-inkscape-stroke:none;stop-color:#000" transform="translate(-691.639 -258.762)"/><path d="M813.658 302.005h138.608v5.537H813.658zM769.444 302.005h11.895v5.537h-11.895z" style="font-variation-settings:normal;vector-effect:none;fill:none;fill-opacity:1;fill-rule:evenodd;stroke:#000;stroke-width:.352777;stroke-linecap:butt;stroke-linejoin:miter;stroke-miterlimit:4;stroke-dasharray:none;stroke-dashoffset:0;stroke-opacity:1;-inkscape-stroke:none;stop-color:#000" transform="translate(-691.639 -258.762)"/><path d="M781.339 302.005h32.32v5.537h-32.32z" style="font-variation-settings:normal;vector-effect:none;fill:none;fill-opacity:1;fill-rule:evenodd;stroke:#000;stroke-width:.352776;stroke-linecap:butt;stroke-linejoin:miter;stroke-miterlimit:4;stroke-dasharray:none;stroke-dashoffset:0;stroke-opacity:1;-inkscape-stroke:none;stop-color:#000" transform="translate(-691.639 -258.762)"/><path d="M813.658 296.467h138.608v5.537H813.658zM769.444 296.467h11.895v5.537h-11.895z" style="font-variation-settings:normal;vector-effect:none;fill:none;fill-opacity:1;fill-rule:evenodd;stroke:#000;stroke-width:.352777;stroke-linecap:butt;stroke-linejoin:miter;stroke-miterlimit:4;stroke-dasharray:none;stroke-dashoffset:0;stroke-opacity:1;-inkscape-stroke:none;stop-color:#000" transform="translate(-691.639 -258.762)"/><path d="M781.339 296.467h32.32v5.537h-32.32zM781.339 290.93h32.32v5.537h-32.32zM781.339 313.079h32.32v5.537h-32.32z" style="font-variation-settings:normal;vector-effect:none;fill:none;fill-opacity:1;fill-rule:evenodd;stroke:#000;stroke-width:.352776;stroke-linecap:butt;stroke-linejoin:miter;stroke-miterlimit:4;stroke-dasharray:none;stroke-dashoffset:0;stroke-opacity:1;-inkscape-stroke:none;stop-color:#000" transform="translate(-691.639 -258.762)"/><text xml:space="preserve" style="font-size:13.3333px;line-height:1.25;font-family:Arial;-inkscape-font-specification:Arial;white-space:pre;shape-inside:url(#q);display:inline" transform="matrix(.26458 0 0 .26458 -292.827 -423.698)"><tspan x="1756.103" y="1943.815"><tspan style="font-style:italic;font-weight:700;-inkscape-font-specification:&quot;Arial Bold Italic&quot;">Casting Exhaustion - </tspan>Each level of Casting Exhaustion </tspan><tspan x="1756.103" y="1960.481">Inflicts a -1 penalty to Casting Checks. Remove all </tspan><tspan x="1756.103" y="1977.148">Casting Exhaustion at the end of a Full Rest.</tspan></text><text xml:space="preserve" style="font-size:13.3333px;line-height:1.25;font-family:Arial;-inkscape-font-specification:Arial;white-space:pre;shape-inside:url(#r);display:inline" transform="matrix(.26458 0 0 .26458 -292.577 -425.547)"><tspan x="1756.086" y="1859.449"><tspan style="font-style:italic;font-weight:700;-inkscape-font-specification:&quot;Arial Bold Italic&quot;">Cast Invocation (1R) [NA] {1 Casting Attribute} - </tspan></tspan><tspan x="1756.086" y="1876.116">Select an Invocation and make a Casting Check. </tspan><tspan x="1756.086" y="1892.783">Outside of Combat  you do not need to strain to perform </tspan><tspan x="1756.086" y="1909.449">this Action.</tspan></text><text xml:space="preserve" style="font-size:13.3333px;line-height:1.25;font-family:Arial;-inkscape-font-specification:Arial;white-space:pre;shape-inside:url(#s);display:inline" transform="matrix(.26458 0 0 .26458 -291.659 -423.572)"><tspan x="1404.609" y="1859.543"><tspan style="font-style:italic;font-weight:700;-inkscape-font-specification:&quot;Arial Bold Italic&quot;">Channeling - </tspan>The Character can not Cast another </tspan><tspan x="1404.609" y="1876.21">Invocation with a duration. Additionally, any time that </tspan><tspan x="1404.609" y="1892.877">Character Suffers Damage they must make a Simplified </tspan><tspan x="1404.609" y="1909.543">Casting Check. On Any Failure the Effects of the </tspan><tspan x="1404.609" y="1926.21">Invocation ends and the Channeling Condition is </tspan><tspan x="1404.609" y="1942.876">removed from the Character. Additionally, as a Reaction </tspan><tspan x="1404.609" y="1959.543">the Character can choose to end the Invocation and </tspan><tspan x="1404.609" y="1976.21">remove the Channeling Condition.</tspan></text><path d="m771.304 363.225-1.86-1.86v-39.299l1.86-1.86h87.685l1.86 1.86v39.3l-1.86 1.86zM864.276 340.909l-1.828-1.86v-17.007l1.828-1.86h86.16l1.827 1.86v17.007l-1.828 1.86zM864.276 363.225l-1.828-1.86V344.36l1.828-1.86h86.16l1.827 1.86v17.006l-1.828 1.86zM952.266 316.756V292.79l-1.844-1.86H771.288l-1.844 1.86v23.966l1.844 1.86h179.134z" style="font-variation-settings:normal;vector-effect:none;fill:none;fill-opacity:1;stroke:#000;stroke-width:.352777;stroke-linecap:butt;stroke-linejoin:miter;stroke-miterlimit:4;stroke-dasharray:none;stroke-dashoffset:0;stroke-opacity:1;-inkscape-stroke:none;stop-color:#000" transform="translate(-691.639 -258.762)"/><path d="M818.745 334.613h60v85h-60z" style="font-variation-settings:normal;vector-effect:none;fill:#fff;fill-opacity:1;fill-rule:evenodd;stroke:none;stroke-width:.352777;stroke-linecap:butt;stroke-linejoin:miter;stroke-miterlimit:4;stroke-dasharray:none;stroke-dashoffset:0;stroke-opacity:1;-inkscape-stroke:none;stop-color:#000" transform="translate(-805.532 -313.56)"/><text xml:space="preserve" x="837.322" y="416.703" style="font-style:normal;font-variant:normal;font-weight:400;font-stretch:normal;font-size:4.23333px;line-height:1.25;font-family:Arial;-inkscape-font-specification:Arial;white-space:pre;display:inline;fill:#000;fill-opacity:1;stroke:none;stroke-width:.352778;stroke-dasharray:none" transform="translate(-805.532 -313.56)"><tspan style="font-size:4.23333px;stroke-width:.352778;stroke-dasharray:none">Trickery</tspan></text><text xml:space="preserve" x="836.667" y="400.735" style="font-style:normal;font-variant:normal;font-weight:400;font-stretch:normal;font-size:4.23333px;line-height:1.25;font-family:Arial;-inkscape-font-specification:Arial;white-space:pre;display:inline;fill:#000;fill-opacity:1;stroke:none;stroke-width:.352778;stroke-dasharray:none" transform="translate(-805.532 -313.56)"><tspan style="font-size:4.23333px;stroke-width:.352778;stroke-dasharray:none">Knowing</tspan></text><text xml:space="preserve" x="837.768" y="376.782" style="font-style:normal;font-variant:normal;font-weight:400;font-stretch:normal;font-size:4.23333px;line-height:1.25;font-family:Arial;-inkscape-font-specification:Arial;white-space:pre;display:inline;fill:#000;fill-opacity:1;stroke:none;stroke-width:.352778;stroke-dasharray:none" transform="translate(-805.532 -313.56)"><tspan style="font-size:4.23333px;stroke-width:.352778;stroke-dasharray:none">Altering</tspan></text><text xml:space="preserve" x="834.865" y="393.171" style="font-style:normal;font-variant:normal;font-weight:400;font-stretch:normal;font-size:4.23333px;line-height:1.25;font-family:Arial;-inkscape-font-specification:Arial;white-space:pre;display:inline;fill:#000;fill-opacity:1;stroke:none;stroke-width:.352778;stroke-dasharray:none" transform="translate(-805.532 -313.56)"><tspan style="font-size:4.23333px;stroke-width:.352778;stroke-dasharray:none">Interaction</tspan></text><path d="M824.65 345.215h2.63l.93.93-2.245 2.245-2.245-2.245zm-1.216.765.32-.085-.034.25zm5.062 0-.319-.085.033.25zm-1.099-1.047-.233.234.233.097zm-2.863 0 .233.234-.233.097zm1.436 3.763-.13-.304.252-.004zM829.712 348.414h2.63l.93-.93-2.245-2.245-2.245 2.245zm-1.216-.765.32.085-.034-.25zm5.062 0-.319.085.034-.25zm-1.099 1.047-.233-.234.233-.097zm-2.863 0 .233-.234-.233-.097zm1.436-3.763-.13.304.252.004zM834.774 345.215h2.63l.93.93-2.244 2.245-2.246-2.245zm-1.216.765.32-.085-.034.25zm5.063 0-.32-.085.034.25zm-1.1-1.047-.233.234.233.097zm-2.863 0 .233.234-.233.097zm1.436 3.763-.13-.304.252-.004zM839.836 348.414h2.63l.93-.93-2.244-2.245-2.245 2.245zm-1.215-.765.319.085-.033-.25zm5.062 0-.32.085.034-.25zm-1.1 1.047-.233-.234.233-.097zm-2.863 0 .233-.234-.233-.097zm1.436-3.763-.13.304.252.004zM844.899 345.215h2.63l.93.93-2.245 2.245-2.245-2.245zm-1.216.765.319-.085-.033.25zm5.062 0-.32-.085.034.25zm-1.1-1.047-.233.234.234.097zm-2.863 0 .233.234-.233.097zm1.436 3.763-.13-.304.252-.004zM849.96 348.414h2.63l.93-.93-2.244-2.245-2.245 2.245zm-1.215-.765.319.085-.033-.25zm5.062 0-.32.085.034-.25zm-1.1 1.047-.233-.234.234-.097zm-2.863 0 .233-.234-.233-.097zm1.436-3.763-.13.304.252.004zM855.023 345.215h2.63l.93.93-2.245 2.245-2.245-2.245zm-1.216.765.319-.085-.033.25zm5.062 0-.32-.085.034.25zm-1.1-1.047-.233.234.234.097zm-2.863 0 .233.234-.233.097zm1.436 3.763-.13-.304.252-.004zM860.085 348.414h2.63l.93-.93-2.245-2.245-2.245 2.245zm-1.216-.765.319.085-.033-.25zm5.062 0-.32.085.034-.25zm-1.1 1.047-.233-.234.234-.097zm-2.863 0 .233-.234-.233-.097zm1.436-3.763-.13.304.252.004zM865.147 345.215h2.63l.93.93-2.245 2.245-2.245-2.245zm-1.216.765.319-.085-.033.25zm5.062 0-.32-.085.034.25zm-1.1-1.047-.233.234.234.097zm-2.863 0 .234.234-.234.097zm1.436 3.763-.13-.304.252-.004zM870.209 348.414h2.63l.93-.93-2.245-2.245-2.245 2.245zm-1.216-.765.319.085-.033-.25zm5.062 0-.32.085.034-.25zm-1.1 1.047-.233-.234.234-.097zm-2.863 0 .234-.234-.234-.097zm1.436-3.763-.13.304.252.004z" style="font-variation-settings:normal;vector-effect:none;fill:none;fill-opacity:1;stroke:#000;stroke-width:.352777;stroke-linecap:butt;stroke-linejoin:miter;stroke-miterlimit:4;stroke-dasharray:none;stroke-dashoffset:0;stroke-opacity:1;-inkscape-stroke:none;stop-color:#000" transform="translate(-805.532 -313.56)"/><path d="M818.745 365.37h60v6.35h-60zm0-15.88h60v6.35h-60zm0-14.877h60v9.525h-60zm-1.5-1.5v88h63v-88zm1.5 1.5h60v85h-60z" style="vector-effect:none;fill-rule:evenodd;stroke-width:.352777;stop-color:#000" transform="translate(-805.532 -313.56)"/><text xml:space="preserve" style="font-style:normal;font-variant:normal;font-weight:700;font-stretch:normal;font-size:16px;line-height:1.25;font-family:Arial;-inkscape-font-specification:&quot;Arial Bold&quot;;white-space:pre;shape-inside:url(#t);display:inline;fill:#fff" transform="matrix(.26458 0 0 .26458 -281.612 -219.04)"><tspan x="1153.168" y="929.58">Casting Exhaustion</tspan></text><text xml:space="preserve" x="834.663" y="409.139" style="font-style:normal;font-variant:normal;font-weight:400;font-stretch:normal;font-size:4.23333px;line-height:1.25;font-family:Arial;-inkscape-font-specification:Arial;white-space:pre;display:inline;fill:#000;fill-opacity:1;stroke:none;stroke-width:.352778;stroke-dasharray:none" transform="translate(-805.532 -313.56)"><tspan style="font-size:4.23333px;stroke-width:.352778;stroke-dasharray:none">Prevention</tspan></text><text xml:space="preserve" style="font-style:normal;font-variant:normal;font-weight:700;font-stretch:normal;font-size:16px;line-height:1.25;font-family:Arial;-inkscape-font-specification:&quot;Arial Bold&quot;;white-space:pre;shape-inside:url(#u);display:inline;fill:#fff" transform="matrix(.26458 0 0 .26458 -279 -219.215)"><tspan x="1153.164" y="980.373">Casting Attribute</tspan></text><text xml:space="preserve" style="font-style:normal;font-variant:normal;font-weight:700;font-stretch:normal;font-size:16px;line-height:1.25;font-family:Arial;-inkscape-font-specification:&quot;Arial Bold&quot;;white-space:pre;shape-inside:url(#v);display:inline;fill:#fff" transform="matrix(.26458 0 0 .26458 -277.613 -216.779)"><tspan x="1153.605" y="1031.184">Casting Talents</tspan></text><path d="M848.745 357.43h26.55l1.86 1.86v2.63l-1.86 1.86h-26.55m26.66-.063-.22.127-.017-.283zm0-6.223-.22-.127-.017.284zm1.813 4.317-.127.22-.156-.237zm0-2.41-.127-.22-.156.237zm-28.473-1.97h-26.55l-1.86 1.86v2.63l1.86 1.86h26.55m-26.66-.064.22.127.017-.283zm0-6.223.22-.127.017.284zm-1.814 4.317.127.22.157-.237zm0-2.41.127-.22.157.237zM875.447 378.803l-.22.126-.017-.283zm-2.857-.004.22.126.017-.283zm2.83-6.173-.22-.127-.018.284zm-2.857.004.22-.127.017.284zm-1.648 4.525-.127-.22.284-.017zm.004-2.857-.127.22.284.017zm6.172 2.83.127-.22-.283-.018zm-.004-2.857.127.22-.283.017zm-6.232 2.746v-2.609l1.845-1.845h2.61l1.844 1.845v2.61l-1.845 1.844H872.7zM840.855 372.538h26.55l1.86 1.86v2.63l-1.86 1.86h-26.55m26.66-.064-.22.127-.017-.283zm0-6.223-.22-.127-.017.284zm1.814 4.317-.127.22-.157-.237zm0-2.41-.127-.22-.157.237zm-20.585-1.97h-26.55l-1.86 1.86v2.63l1.86 1.86h26.55m-26.66-.064.22.127.017-.283zm0-6.223.22-.127.017.284zm-1.813 4.317.127.22.156-.237zm0-2.41.127-.22.156.237zM875.447 386.787l-.22.127-.017-.284zm-2.857-.004.22.127.017-.284zm2.83-6.173-.22-.127-.018.284zm-2.857.004.22-.127.017.284zm-1.648 4.525-.127-.22.284-.017zm.004-2.857-.127.22.284.017zm6.172 2.83.127-.22-.283-.018zm-.004-2.857.127.22-.283.017zM870.855 385v-2.609l1.845-1.845h2.61l1.844 1.845v2.61l-1.845 1.844H872.7zM840.855 380.522h26.55l1.86 1.86v2.63l-1.86 1.86h-26.55m26.66-.064-.22.127-.017-.283zm0-6.223-.22-.127-.017.284zm1.814 4.317-.127.22-.157-.237zm0-2.41-.127-.22-.157.237zm-20.585-1.97h-26.55l-1.86 1.86v2.63l1.86 1.86h26.55m-26.66-.064.22.127.017-.283zm0-6.223.22-.127.017.284zm-1.813 4.317.127.22.156-.237zm0-2.41.127-.22.156.237z" style="font-variation-settings:normal;vector-effect:none;fill:none;fill-opacity:1;stroke:#000;stroke-width:.352777;stroke-linecap:butt;stroke-linejoin:miter;stroke-miterlimit:4;stroke-dasharray:none;stroke-dashoffset:0;stroke-opacity:1;-inkscape-stroke:none;stop-color:#000" transform="translate(-805.532 -313.56)"/><text xml:space="preserve" x="831.586" y="385.187" style="font-style:normal;font-variant:normal;font-weight:400;font-stretch:normal;font-size:4.23333px;line-height:1.25;font-family:Arial;-inkscape-font-specification:Arial;white-space:pre;display:inline;fill:#000;fill-opacity:1;stroke:none;stroke-width:.352778;stroke-dasharray:none" transform="translate(-805.532 -313.56)"><tspan style="font-size:4.23333px;stroke-width:.352778;stroke-dasharray:none">Enhancement</tspan></text><path d="m875.447 394.77-.22.128-.017-.284zm-2.857-.003.22.127.017-.284zm2.83-6.173-.22-.127-.018.284zm-2.857.004.22-.127.017.284zm-1.648 4.525-.127-.22.284-.017zm.004-2.857-.127.22.284.017zm6.172 2.83.127-.22-.283-.018zm-.004-2.857.127.22-.283.017zm-6.232 2.746v-2.609l1.845-1.845h2.61l1.844 1.845v2.61l-1.845 1.844H872.7zM840.855 388.506h26.55l1.86 1.86v2.63l-1.86 1.86h-26.55m26.66-.064-.22.127-.017-.283zm0-6.223-.22-.127-.017.284zm1.814 4.317-.127.22-.157-.237zm0-2.41-.127-.22-.157.237zm-20.585-1.97h-26.55l-1.86 1.86v2.63l1.86 1.86h26.55m-26.66-.064.22.127.017-.283zm0-6.223.22-.127.017.284zm-1.813 4.317.127.22.156-.237zm0-2.41.127-.22.156.237zM875.447 402.755l-.22.127-.017-.284zm-2.857-.004.22.127.017-.284zm2.83-6.173-.22-.126-.018.283zm-2.857.004.22-.126.017.283zm-1.648 4.525-.127-.22.284-.017zm.004-2.857-.127.22.284.017zm6.172 2.83.127-.22-.283-.017zm-.004-2.857.127.22-.283.017zm-6.232 2.747v-2.61l1.845-1.845h2.61l1.844 1.845v2.61l-1.845 1.845H872.7zM840.855 396.49h26.55l1.86 1.86v2.63l-1.86 1.86h-26.55m26.66-.064-.22.127-.017-.283zm0-6.223-.22-.127-.017.284zm1.814 4.317-.127.22-.157-.237zm0-2.41-.127-.22-.157.237zm-20.585-1.97h-26.55l-1.86 1.86v2.63l1.86 1.86h26.55m-26.66-.064.22.127.017-.283zm0-6.223.22-.127.017.284zm-1.813 4.317.127.22.156-.237zm0-2.41.127-.22.156.237zM875.447 410.739l-.22.127-.017-.284zm-2.857-.004.22.127.017-.284zm2.83-6.172-.22-.127-.018.283zm-2.857.004.22-.127.017.283zm-1.648 4.524-.127-.22.284-.017zm.004-2.857-.127.22.284.017zm6.172 2.83.127-.22-.283-.017zm-.004-2.857.127.22-.283.017zm-6.232 2.747v-2.61l1.845-1.845h2.61l1.844 1.845v2.61l-1.845 1.845H872.7zM840.855 404.474h26.55l1.86 1.86v2.63l-1.86 1.86h-26.55m26.66-.063-.22.126-.017-.283zm0-6.223-.22-.127-.017.283zm1.814 4.316-.127.22-.157-.237zm0-2.41-.127-.22-.157.237zm-20.585-1.97h-26.55l-1.86 1.86v2.63l1.86 1.86h26.55m-26.66-.063.22.126.017-.283zm0-6.223.22-.127.017.283zm-1.813 4.316.127.22.156-.237zm0-2.41.127-.22.156.237zM875.447 418.723l-.22.127-.017-.284zm-2.857-.004.22.127.017-.284zm2.83-6.172-.22-.127-.018.283zm-2.857.004.22-.127.017.283zm-1.648 4.524-.127-.22.284-.017zm.004-2.857-.127.22.284.017zm6.172 2.83.127-.22-.283-.017zm-.004-2.857.127.22-.283.017zm-6.232 2.747v-2.61l1.845-1.845h2.61l1.844 1.845v2.61l-1.845 1.845H872.7zM840.855 412.458h26.55l1.86 1.86v2.63l-1.86 1.86h-26.55m26.66-.063-.22.127-.017-.284zm0-6.223-.22-.127-.017.283zm1.814 4.316-.127.22-.157-.237zm0-2.41-.127-.22-.157.237zm-20.585-1.97h-26.55l-1.86 1.86v2.63l1.86 1.86h26.55m-26.66-.063.22.127.017-.284zm0-6.223.22-.127.017.283zm-1.813 4.316.127.22.156-.237zm0-2.41.127-.22.156.237z" style="font-variation-settings:normal;vector-effect:none;fill:none;fill-opacity:1;stroke:#000;stroke-width:.352777;stroke-linecap:butt;stroke-linejoin:miter;stroke-miterlimit:4;stroke-dasharray:none;stroke-dashoffset:0;stroke-opacity:1;-inkscape-stroke:none;stop-color:#000" transform="translate(-805.532 -313.56)"/><path d="M933.613-138.279h60v85h-60z" style="font-variation-settings:normal;vector-effect:none;fill:#fff;fill-opacity:1;fill-rule:evenodd;stroke:none;stroke-width:.352777;stroke-linecap:butt;stroke-linejoin:miter;stroke-miterlimit:4;stroke-dasharray:none;stroke-dashoffset:0;stroke-opacity:1;-inkscape-stroke:none;stop-color:#000" transform="translate(-857.4 247.332)"/><path d="M933.613-62.804h60v9.525h-60zm0-75.475v19.05h60v-19.05zm-1.5-1.5v88h63v-88zm1.5 1.5h60v85h-60z" style="vector-effect:none;fill-rule:evenodd;stroke:none;stroke-width:.352777;stop-color:#000" transform="translate(-857.4 247.332)"/><path d="m962.937-127.196-1.587 1.587 1.315.273-1.315 1.315 1.315 1.315-1.315.272 1.587 1.588h22.493l1.588-1.588-1.315-.272 1.315-1.315-1.315-1.315 1.315-.273-1.588-1.587zM944.655-130.341l-1.86-1.86v-2.63l1.86-1.86h37.915l1.86 1.86v2.63l-1.86 1.86z" style="font-variation-settings:normal;vector-effect:none;fill:#fff;fill-opacity:1;stroke:none;stroke-width:.352777;stroke-linecap:butt;stroke-linejoin:miter;stroke-miterlimit:4;stroke-dasharray:none;stroke-dashoffset:0;stroke-opacity:1;-inkscape-stroke:none;stop-color:#000" transform="translate(-857.4 247.332)"/><path d="M933.613-119.229h60v56.425h-60z" style="font-variation-settings:normal;vector-effect:none;fill:none;fill-opacity:1;fill-rule:evenodd;stroke:none;stroke-width:.352777;stroke-linecap:butt;stroke-linejoin:miter;stroke-miterlimit:4;stroke-dasharray:none;stroke-dashoffset:0;stroke-opacity:1;-inkscape-stroke:none;stop-color:#000" transform="translate(-857.4 247.332)"/><path d="M943.384-127.137a3.183 3.183 0 0 0-3.175 3.175c-.027 1.925 1.645 3.202 3.175 3.175h2.63c1.53.027 3.201-1.25 3.174-3.175a3.183 3.183 0 0 0-3.175-3.175zM950.78-127.196v6.35h8.98v-6.35h-5.805z" style="font-variation-settings:normal;fill:#fff;fill-opacity:1;stroke:none;stroke-width:.352778;stroke-linecap:butt;stroke-linejoin:miter;stroke-miterlimit:4;stroke-dasharray:none;stroke-dashoffset:0;stroke-opacity:1;stop-color:#000" transform="translate(-857.4 247.332)"/><path d="m952.938-54.866-1.86-1.86v-2.63l1.86-1.86h21.35l1.86 1.86v2.63l-1.86 1.86z" style="font-variation-settings:normal;vector-effect:none;fill:#fff;fill-opacity:1;stroke:none;stroke-width:.352777;stroke-linecap:butt;stroke-linejoin:miter;stroke-miterlimit:4;stroke-dasharray:none;stroke-dashoffset:0;stroke-opacity:1;-inkscape-stroke:none;stop-color:#000" transform="translate(-857.4 247.332)"/><path d="M933.613-138.279h60v85h-60z" style="font-variation-settings:normal;vector-effect:none;fill:#fff;fill-opacity:1;fill-rule:evenodd;stroke:none;stroke-width:.352777;stroke-linecap:butt;stroke-linejoin:miter;stroke-miterlimit:4;stroke-dasharray:none;stroke-dashoffset:0;stroke-opacity:1;-inkscape-stroke:none;stop-color:#000" transform="translate(-920.4 247.332)"/><path d="M933.613-62.804h60v9.525h-60zm0-75.475v19.05h60v-19.05zm-1.5-1.5v88h63v-88zm1.5 1.5h60v85h-60z" style="vector-effect:none;fill-rule:evenodd;stroke:none;stroke-width:.352777;stop-color:#000" transform="translate(-920.4 247.332)"/><path d="m962.937-127.196-1.587 1.587 1.315.273-1.315 1.315 1.315 1.315-1.315.272 1.587 1.588h22.493l1.588-1.588-1.315-.272 1.315-1.315-1.315-1.315 1.315-.273-1.588-1.587zM944.655-130.341l-1.86-1.86v-2.63l1.86-1.86h37.915l1.86 1.86v2.63l-1.86 1.86z" style="font-variation-settings:normal;vector-effect:none;fill:#fff;fill-opacity:1;stroke:none;stroke-width:.352777;stroke-linecap:butt;stroke-linejoin:miter;stroke-miterlimit:4;stroke-dasharray:none;stroke-dashoffset:0;stroke-opacity:1;-inkscape-stroke:none;stop-color:#000" transform="translate(-920.4 247.332)"/><path d="M933.613-119.229h60v56.425h-60z" style="font-variation-settings:normal;vector-effect:none;fill:none;fill-opacity:1;fill-rule:evenodd;stroke:none;stroke-width:.352777;stroke-linecap:butt;stroke-linejoin:miter;stroke-miterlimit:4;stroke-dasharray:none;stroke-dashoffset:0;stroke-opacity:1;-inkscape-stroke:none;stop-color:#000" transform="translate(-920.4 247.332)"/><path d="M943.384-127.137a3.183 3.183 0 0 0-3.175 3.175c-.027 1.925 1.645 3.202 3.175 3.175h2.63c1.53.027 3.201-1.25 3.174-3.175a3.183 3.183 0 0 0-3.175-3.175zM950.78-127.196v6.35h8.98v-6.35h-5.805z" style="font-variation-settings:normal;fill:#fff;fill-opacity:1;stroke:none;stroke-width:.352778;stroke-linecap:butt;stroke-linejoin:miter;stroke-miterlimit:4;stroke-dasharray:none;stroke-dashoffset:0;stroke-opacity:1;stop-color:#000" transform="translate(-920.4 247.332)"/><path d="m952.938-54.866-1.86-1.86v-2.63l1.86-1.86h21.35l1.86 1.86v2.63l-1.86 1.86z" style="font-variation-settings:normal;vector-effect:none;fill:#fff;fill-opacity:1;stroke:none;stroke-width:.352777;stroke-linecap:butt;stroke-linejoin:miter;stroke-miterlimit:4;stroke-dasharray:none;stroke-dashoffset:0;stroke-opacity:1;-inkscape-stroke:none;stop-color:#000" transform="translate(-920.4 247.332)"/><path d="M933.613-138.279h60v85h-60z" style="font-variation-settings:normal;vector-effect:none;fill:#fff;fill-opacity:1;fill-rule:evenodd;stroke:none;stroke-width:.352777;stroke-linecap:butt;stroke-linejoin:miter;stroke-miterlimit:4;stroke-dasharray:none;stroke-dashoffset:0;stroke-opacity:1;-inkscape-stroke:none;stop-color:#000" transform="translate(-731.4 247.332)"/><path d="M933.613-62.804h60v9.525h-60zm0-75.475v19.05h60v-19.05zm-1.5-1.5v88h63v-88zm1.5 1.5h60v85h-60z" style="vector-effect:none;fill-rule:evenodd;stroke:none;stroke-width:.352777;stop-color:#000" transform="translate(-731.4 247.332)"/><path d="m962.937-127.196-1.587 1.587 1.315.273-1.315 1.315 1.315 1.315-1.315.272 1.587 1.588h22.493l1.588-1.588-1.315-.272 1.315-1.315-1.315-1.315 1.315-.273-1.588-1.587zM944.655-130.341l-1.86-1.86v-2.63l1.86-1.86h37.915l1.86 1.86v2.63l-1.86 1.86z" style="font-variation-settings:normal;vector-effect:none;fill:#fff;fill-opacity:1;stroke:none;stroke-width:.352777;stroke-linecap:butt;stroke-linejoin:miter;stroke-miterlimit:4;stroke-dasharray:none;stroke-dashoffset:0;stroke-opacity:1;-inkscape-stroke:none;stop-color:#000" transform="translate(-731.4 247.332)"/><path d="M933.613-119.229h60v56.425h-60z" style="font-variation-settings:normal;vector-effect:none;fill:none;fill-opacity:1;fill-rule:evenodd;stroke:none;stroke-width:.352777;stroke-linecap:butt;stroke-linejoin:miter;stroke-miterlimit:4;stroke-dasharray:none;stroke-dashoffset:0;stroke-opacity:1;-inkscape-stroke:none;stop-color:#000" transform="translate(-731.4 247.332)"/><path d="M943.384-127.137a3.183 3.183 0 0 0-3.175 3.175c-.027 1.925 1.645 3.202 3.175 3.175h2.63c1.53.027 3.201-1.25 3.174-3.175a3.183 3.183 0 0 0-3.175-3.175zM950.78-127.196v6.35h8.98v-6.35h-5.805z" style="font-variation-settings:normal;fill:#fff;fill-opacity:1;stroke:none;stroke-width:.352778;stroke-linecap:butt;stroke-linejoin:miter;stroke-miterlimit:4;stroke-dasharray:none;stroke-dashoffset:0;stroke-opacity:1;stop-color:#000" transform="translate(-731.4 247.332)"/><path d="m952.938-54.866-1.86-1.86v-2.63l1.86-1.86h21.35l1.86 1.86v2.63l-1.86 1.86z" style="font-variation-settings:normal;vector-effect:none;fill:#fff;fill-opacity:1;stroke:none;stroke-width:.352777;stroke-linecap:butt;stroke-linejoin:miter;stroke-miterlimit:4;stroke-dasharray:none;stroke-dashoffset:0;stroke-opacity:1;-inkscape-stroke:none;stop-color:#000" transform="translate(-731.4 247.332)"/><path d="M933.613-138.279h60v85h-60z" style="font-variation-settings:normal;vector-effect:none;fill:#fff;fill-opacity:1;fill-rule:evenodd;stroke:none;stroke-width:.352777;stroke-linecap:butt;stroke-linejoin:miter;stroke-miterlimit:4;stroke-dasharray:none;stroke-dashoffset:0;stroke-opacity:1;-inkscape-stroke:none;stop-color:#000" transform="translate(-794.4 247.332)"/><path d="M933.613-62.804h60v9.525h-60zm0-75.475v19.05h60v-19.05zm-1.5-1.5v88h63v-88zm1.5 1.5h60v85h-60z" style="vector-effect:none;fill-rule:evenodd;stroke:none;stroke-width:.352777;stop-color:#000" transform="translate(-794.4 247.332)"/><path d="m962.937-127.196-1.587 1.587 1.315.273-1.315 1.315 1.315 1.315-1.315.272 1.587 1.588h22.493l1.588-1.588-1.315-.272 1.315-1.315-1.315-1.315 1.315-.273-1.588-1.587zM944.655-130.341l-1.86-1.86v-2.63l1.86-1.86h37.915l1.86 1.86v2.63l-1.86 1.86z" style="font-variation-settings:normal;vector-effect:none;fill:#fff;fill-opacity:1;stroke:none;stroke-width:.352777;stroke-linecap:butt;stroke-linejoin:miter;stroke-miterlimit:4;stroke-dasharray:none;stroke-dashoffset:0;stroke-opacity:1;-inkscape-stroke:none;stop-color:#000" transform="translate(-794.4 247.332)"/><path d="M933.613-119.229h60v56.425h-60z" style="font-variation-settings:normal;vector-effect:none;fill:none;fill-opacity:1;fill-rule:evenodd;stroke:none;stroke-width:.352777;stroke-linecap:butt;stroke-linejoin:miter;stroke-miterlimit:4;stroke-dasharray:none;stroke-dashoffset:0;stroke-opacity:1;-inkscape-stroke:none;stop-color:#000" transform="translate(-794.4 247.332)"/><path d="M943.384-127.137a3.183 3.183 0 0 0-3.175 3.175c-.027 1.925 1.645 3.202 3.175 3.175h2.63c1.53.027 3.201-1.25 3.174-3.175a3.183 3.183 0 0 0-3.175-3.175zM950.78-127.196v6.35h8.98v-6.35h-5.805z" style="font-variation-settings:normal;fill:#fff;fill-opacity:1;stroke:none;stroke-width:.352778;stroke-linecap:butt;stroke-linejoin:miter;stroke-miterlimit:4;stroke-dasharray:none;stroke-dashoffset:0;stroke-opacity:1;stop-color:#000" transform="translate(-794.4 247.332)"/><path d="m952.938-54.866-1.86-1.86v-2.63l1.86-1.86h21.35l1.86 1.86v2.63l-1.86 1.86z" style="font-variation-settings:normal;vector-effect:none;fill:#fff;fill-opacity:1;stroke:none;stroke-width:.352777;stroke-linecap:butt;stroke-linejoin:miter;stroke-miterlimit:4;stroke-dasharray:none;stroke-dashoffset:0;stroke-opacity:1;-inkscape-stroke:none;stop-color:#000" transform="translate(-794.4 247.332)"/><path d="M583.233 107.552h252.001M646.233 19.553v176M709.233 195.552v-88" style="font-variation-settings:normal;opacity:1;vector-effect:none;fill:none;fill-opacity:1;stroke:#fff;stroke-width:.352777;stroke-linecap:butt;stroke-linejoin:miter;stroke-miterlimit:4;stroke-dasharray:.705554,.352777;stroke-dashoffset:0;stroke-opacity:1;-inkscape-stroke:none;stop-color:#000;stop-opacity:1" transform="translate(-571.52)"/><path d="M772.232 195.552v-88" style="font-variation-settings:normal;vector-effect:none;fill:none;fill-opacity:1;stroke:#fff;stroke-width:.352777;stroke-linecap:butt;stroke-linejoin:miter;stroke-miterlimit:4;stroke-dasharray:.705554,.352777;stroke-dashoffset:0;stroke-opacity:1;-inkscape-stroke:none;stop-color:#000" transform="translate(-571.52)"/></svg>