<svg xmlns="http://www.w3.org/2000/svg" xml:space="preserve" width="1056" height="816" viewBox="0 0 279.4 215.9"><defs><path id="c" d="M-528.038 730.636h167.235v66.678h-167.235z"/><path id="d" d="M-522.019 514.906h319.2V786.01h-319.2z"/><path id="e" d="M-522.019 514.906h316.441v40.797h-316.441z"/><path id="f" d="M-528.038 635.232h26.185v24h-26.185z"/><path id="g" d="M-528.038 635.232h26.185v24h-26.185z"/><path id="h" d="M-528.038 635.232h34.683v18.74h-34.683z"/><path id="i" d="M-528.038 648h66.486v15.567h-66.486z"/><path id="j" d="M-528.038 648h79.188v16.274h-79.188z"/><path id="k" d="M-528.038 648h91.206v16.274h-91.206z"/><path id="l" d="M-528.038 648h114.383v15.702h-114.383z"/><path id="m" d="M-528.038 635.232h43.99v18.942h-43.99z"/><path id="n" d="M-528.038 635.232h43.99v18.942h-43.99z"/><path id="o" d="M-528.038 648h114.383v15.702h-114.383z"/><path id="p" d="M-392.088 452.336h344.05v20.336h-344.05z"/><path id="q" d="M-392.088 472.672h320.493v17.016h-320.493z"/><path id="r" d="M-392.088 493.008h344.049v20.336h-344.049z"/><path id="s" d="M-392.088 513.344h344.049v20.336h-344.049z"/><path id="t" d="M-392.088 533.68h344.05v20.336h-344.05z"/><path id="u" d="M-528.038 648h48v24h-48z"/><path id="v" d="M-528.038 648h48v24h-48z"/><path id="w" d="M-528.038 648h85.769v14.844h-85.769z"/><path id="x" d="M-520.568 23.817h472.529V48h-472.529z"/><path id="a" d="M-520.568 23.817h472.529V48h-472.529z"/><marker id="b" markerHeight="9.086" markerWidth="15.249" orient="auto" preserveAspectRatio="xMidYMid" refX="-10" refY="0" style="overflow:visible" viewBox="0 0 15.249 9.086"><path d="M6.363-2.524c-.68-.82-1.904-.791-2.82-.439L-2.204-.808c-1.672-.915-3.324-.653-3.324-1.099 0-.348.32-.271.272-1.178-.046-.87-.955-1.514-1.813-1.457-.86-.005-1.75.653-1.758 1.561-.064.915.706 1.764 1.615 1.824 1.066.158 2.953-.487 3.838 1.1-.66 1.216-1.83 1.22-2.888 1.159-.878-.051-1.933.2-2.352 1.064-.405.828-.008 2.005.922 2.259.938.344 2.226-.091 2.45-1.17.171-.831-.418-1.222-.192-1.524.171-.228 1.254-.096 3.183-.962l6.225 2.194c.787.22 1.748.212 2.445-.561L-.036-.038zm-12.816-1.33c.907.505.833 1.878-.109 2.144-.852.296-1.94-.532-1.668-1.455.159-.757 1.157-1.036 1.777-.69zm.04 5.612c.945.349.785 1.949-.177 2.164-.637.221-1.55-.098-1.614-.849-.124-.913.95-1.739 1.79-1.315z" style="fill:context-stroke;stroke-width:.7"/></marker></defs><path d="M-285.76 0v215.9h279.4V0h-139.7Z" style="font-variation-settings:normal;display:inline;fill:#fff;fill-opacity:1;fill-rule:evenodd;stroke:none;stroke-width:.352778;stroke-linecap:butt;stroke-linejoin:miter;stroke-miterlimit:4;stroke-dasharray:none;stroke-dashoffset:0;stroke-opacity:1;stop-color:#000" transform="translate(285.76)"/><path d="m-277.597 6.303-1.86 1.86v4.49H-152.364v-4.49l-1.86-1.86H-271.153z" style="font-variation-settings:normal;vector-effect:none;fill:#000;fill-opacity:1;stroke:#000;stroke-width:.352777;stroke-linecap:butt;stroke-linejoin:miter;stroke-miterlimit:4;stroke-dasharray:none;stroke-dashoffset:0;stroke-opacity:1;-inkscape-stroke:none;stop-color:#000" transform="translate(285.76)"/><text xml:space="preserve" style="font-style:normal;font-variant:normal;font-weight:700;font-stretch:normal;font-size:16px;line-height:1.25;font-family:Arial;-inkscape-font-specification:&quot;Arial Bold&quot;;white-space:pre;shape-inside:url(#a);display:inline;fill:#fff" transform="matrix(.26458 0 0 .26458 191.71 .46)"><tspan x="-520.568" y="38.228">Sturdy Pancake</tspan></text><path d="M-279.457 12.653V207.737l1.86 1.86h123.374l1.86-1.86V12.653Z" style="font-variation-settings:normal;vector-effect:none;fill:none;fill-opacity:1;stroke:#000;stroke-width:.352777;stroke-linecap:butt;stroke-linejoin:miter;stroke-miterlimit:4;stroke-dasharray:none;stroke-dashoffset:0;stroke-opacity:1;-inkscape-stroke:none;stop-color:#000" transform="translate(285.76)"/><path d="M-279.457 19.003h127.093M-279.457 26.147h127.093M-279.457 33.291h127.093M-279.457 40.435h127.093M-279.457 47.579h127.093M-279.457 54.722h127.093M-279.457 61.866h127.093M-279.457 69.01h127.093M-279.457 76.154h127.093M-279.457 83.297h127.093M-279.457 90.441h127.093M-279.457 97.585h127.093M-279.457 104.729h127.093M-279.457 111.872h127.093M-279.457 119.016h127.093M-279.457 126.16h127.093M-279.457 133.304h127.093M-279.457 140.447h127.093M-279.457 147.591h127.093M-279.457 154.735h127.093M-279.457 161.879h127.093M-279.457 169.022h127.093M-279.457 176.166h127.093M-279.456 183.31h127.092M-279.456 190.454h127.092M-279.456 197.597h127.092M-279.457 203.947h127.094" style="font-variation-settings:normal;fill:none;fill-opacity:1;stroke:#000;stroke-width:.176388;stroke-linecap:butt;stroke-linejoin:miter;stroke-miterlimit:4;stroke-dasharray:none;stroke-dashoffset:0;stroke-opacity:.346642;stop-color:#000" transform="translate(285.76)"/><path d="M-146.06 6.35v203.2" style="font-variation-settings:normal;vector-effect:none;fill:none;fill-opacity:1;stroke:#000;stroke-width:.352777;stroke-linecap:butt;stroke-linejoin:miter;stroke-miterlimit:4;stroke-dasharray:2.82222,.352777;stroke-dashoffset:0;stroke-opacity:1;-inkscape-stroke:none;marker-start:url(#b);stop-color:#000" transform="translate(285.76)"/><path d="M-137.967 112.056v-.33l.234.097zM-14.453 112.008v-.33l-.234.096zM-14.453 6.21v.33l-.234-.097zM-137.967 6.21v.33l.234-.097z" style="font-variation-settings:normal;vector-effect:none;fill:none;fill-opacity:1;stroke:#000;stroke-width:.352777;stroke-linecap:butt;stroke-linejoin:miter;stroke-miterlimit:4;stroke-dasharray:none;stroke-dashoffset:0;stroke-opacity:1;-inkscape-stroke:none;stop-color:#000" transform="translate(285.76)"/><path d="M-54.063 198.474v-.33l-.234.097zM-54.063 193.16v.33l-.234-.096zM-88.347 198.474v-.33l.234.097zM-88.347 193.16v.33l.234-.096z" style="font-variation-settings:normal;vector-effect:none;fill:#000;fill-opacity:1;stroke:#000;stroke-width:.352777;stroke-linecap:butt;stroke-linejoin:miter;stroke-miterlimit:4;stroke-dasharray:none;stroke-dashoffset:0;stroke-opacity:1;-inkscape-stroke:none;stop-color:#000" transform="translate(285.76)"/><path d="m-88.23 198.192-1.86-2.375 1.86-2.375h34.05l1.86 2.375-1.86 2.375z" style="font-variation-settings:normal;vector-effect:none;fill:#000;fill-opacity:1;stroke:#000;stroke-width:.352777;stroke-linecap:butt;stroke-linejoin:miter;stroke-miterlimit:4;stroke-dasharray:none;stroke-dashoffset:0;stroke-opacity:1;-inkscape-stroke:none;stop-color:#000" transform="translate(285.76)"/><text xml:space="preserve" x="-86.545" y="199.772" style="font-style:normal;font-variant:normal;font-weight:700;font-stretch:normal;font-size:3.52778px;line-height:1.25;font-family:Arial;-inkscape-font-specification:&quot;Arial Bold&quot;;white-space:pre;display:inline;fill:#fff;stroke:none;stroke-width:.352778;stroke-dasharray:none" transform="matrix(1.01553 0 0 .9847 285.76 0)"><tspan style="font-size:3.52778px;fill:#fff;stroke-width:.352778;stroke-dasharray:none">Casting Exhaustion</tspan></text><path d="m-84.323 200.127.234.233-.234.097zM-81.46 200.127l-.233.233.234.097zM-80.36 201.174l-.32-.086.034.25zM-85.422 201.174l.319-.086-.033.25zM-82.886 203.889l-.131-.303.252-.004zM-84.206 200.409h2.63l.93.93-2.245 2.245-2.245-2.245zM-80.871 206.21l.233-.234-.233-.097zM-78.007 206.21l-.234-.234.234-.097zM-76.908 205.163l-.32.085.034-.25zM-81.97 205.163l.319.085-.033-.25zM-79.435 202.447l-.13.304.252.004z" style="font-variation-settings:normal;vector-effect:none;fill:none;fill-opacity:1;stroke:#000;stroke-width:.352777;stroke-linecap:butt;stroke-linejoin:miter;stroke-miterlimit:4;stroke-dasharray:none;stroke-dashoffset:0;stroke-opacity:1;-inkscape-stroke:none;stop-color:#000" transform="translate(285.76)"/><path d="M-80.754 205.928h2.63l.93-.93-2.245-2.245-2.245 2.245zM-77.67 200.127l.233.233-.234.097zM-74.807 200.127l-.234.233.234.097zM-73.708 201.174l-.319-.086.033.25zM-78.77 201.174l.32-.086-.034.25zM-76.234 203.889l-.131-.303.252-.004zM-77.554 200.409h2.63l.93.93-2.245 2.245-2.245-2.245zM-74.22 206.21l.235-.234-.234-.097zM-71.355 206.21l-.234-.234.234-.097zM-70.256 205.163l-.32.085.034-.25zM-75.318 205.163l.319.085-.033-.25zM-72.783 202.447l-.13.304.252.004z" style="font-variation-settings:normal;vector-effect:none;fill:none;fill-opacity:1;stroke:#000;stroke-width:.352777;stroke-linecap:butt;stroke-linejoin:miter;stroke-miterlimit:4;stroke-dasharray:none;stroke-dashoffset:0;stroke-opacity:1;-inkscape-stroke:none;stop-color:#000" transform="translate(285.76)"/><path d="M-74.102 205.928h2.63l.93-.93-2.245-2.245-2.245 2.245zM-71.055 200.064l.234.234-.234.096zM-68.19 200.064l-.234.234.233.096zM-67.092 201.11l-.319-.085.033.251zM-72.154 201.11l.32-.085-.034.251zM-69.618 203.826l-.131-.303.253-.004zM-70.938 200.346h2.63l.93.93-2.245 2.245-2.245-2.245zM-67.603 206.147l.234-.234-.234-.096zM-64.739 206.147l-.234-.234.234-.096zM-63.64 205.1l-.319.085.033-.25zM-68.702 205.1l.32.085-.034-.25zM-66.166 202.385l-.131.303.253.004z" style="font-variation-settings:normal;vector-effect:none;fill:none;fill-opacity:1;stroke:#000;stroke-width:.352777;stroke-linecap:butt;stroke-linejoin:miter;stroke-miterlimit:4;stroke-dasharray:none;stroke-dashoffset:0;stroke-opacity:1;-inkscape-stroke:none;stop-color:#000" transform="translate(285.76)"/><path d="M-67.486 205.865h2.63l.93-.93-2.245-2.245-2.245 2.245zM-64.402 200.064l.233.234-.233.096zM-61.539 200.064l-.233.234.233.096zM-60.44 201.11l-.319-.085.034.251zM-65.502 201.11l.32-.085-.034.251zM-62.966 203.826l-.13-.303.252-.004z" style="font-variation-settings:normal;vector-effect:none;fill:none;fill-opacity:1;stroke:#000;stroke-width:.352777;stroke-linecap:butt;stroke-linejoin:miter;stroke-miterlimit:4;stroke-dasharray:none;stroke-dashoffset:0;stroke-opacity:1;-inkscape-stroke:none;stop-color:#000" transform="translate(285.76)"/><path d="M-64.286 200.346h2.63l.93.93-2.245 2.245-2.245-2.245zM-60.95 206.147l.233-.234-.234-.096zM-58.087 206.147l-.233-.234.233-.096zM-56.988 205.1l-.319.085.033-.25zM-62.05 205.1l.32.085-.034-.25zM-59.514 202.385l-.131.303.253.004z" style="font-variation-settings:normal;vector-effect:none;fill:none;fill-opacity:1;stroke:#000;stroke-width:.352777;stroke-linecap:butt;stroke-linejoin:miter;stroke-miterlimit:4;stroke-dasharray:none;stroke-dashoffset:0;stroke-opacity:1;-inkscape-stroke:none;stop-color:#000" transform="translate(285.76)"/><path d="M-60.834 205.865h2.63l.93-.93-2.245-2.245-2.245 2.245z" style="font-variation-settings:normal;vector-effect:none;fill:none;fill-opacity:1;stroke:#000;stroke-width:.352777;stroke-linecap:butt;stroke-linejoin:miter;stroke-miterlimit:4;stroke-dasharray:none;stroke-dashoffset:0;stroke-opacity:1;-inkscape-stroke:none;stop-color:#000" transform="translate(285.76)"/><text xml:space="preserve" x="-41.331" y="206.812" style="font-style:normal;font-variant:normal;font-weight:400;font-stretch:normal;font-size:3.52778px;line-height:1.25;font-family:Arial;-inkscape-font-specification:Arial;white-space:pre;display:inline;fill:#000;fill-opacity:1;stroke:none;stroke-width:.352778;stroke-dasharray:none" transform="translate(285.76)"><tspan style="font-size:3.52778px;stroke-width:.352778;stroke-dasharray:none">Trickery</tspan></text><text xml:space="preserve" x="-41.877" y="193.005" style="font-style:normal;font-variant:normal;font-weight:400;font-stretch:normal;font-size:3.52778px;line-height:1.25;font-family:Arial;-inkscape-font-specification:Arial;white-space:pre;display:inline;fill:#000;fill-opacity:1;stroke:none;stroke-width:.352778;stroke-dasharray:none" transform="translate(285.76)"><tspan style="font-size:3.52778px;stroke-width:.352778;stroke-dasharray:none">Knowing</tspan></text><text xml:space="preserve" x="-40.96" y="172.294" style="font-style:normal;font-variant:normal;font-weight:400;font-stretch:normal;font-size:3.52778px;line-height:1.25;font-family:Arial;-inkscape-font-specification:Arial;white-space:pre;display:inline;fill:#000;fill-opacity:1;stroke:none;stroke-width:.352778;stroke-dasharray:none" transform="translate(285.76)"><tspan style="font-size:3.52778px;stroke-width:.352778;stroke-dasharray:none">Altering</tspan></text><text xml:space="preserve" x="-43.38" y="186.452" style="font-style:normal;font-variant:normal;font-weight:400;font-stretch:normal;font-size:3.52778px;line-height:1.25;font-family:Arial;-inkscape-font-specification:Arial;white-space:pre;display:inline;fill:#000;fill-opacity:1;stroke:none;stroke-width:.352778;stroke-dasharray:none" transform="translate(285.76)"><tspan style="font-size:3.52778px;stroke-width:.352778;stroke-dasharray:none">Interaction</tspan></text><text xml:space="preserve" x="-46.111" y="179.548" style="font-style:normal;font-variant:normal;font-weight:400;font-stretch:normal;font-size:3.52778px;line-height:1.25;font-family:Arial;-inkscape-font-specification:Arial;white-space:pre;display:inline;fill:#000;fill-opacity:1;stroke:none;stroke-width:.352778;stroke-dasharray:none" transform="translate(285.76)"><tspan style="font-size:3.52778px;stroke-width:.352778;stroke-dasharray:none">Enhancement</tspan></text><text xml:space="preserve" x="-43.547" y="200.259" style="font-style:normal;font-variant:normal;font-weight:400;font-stretch:normal;font-size:3.52778px;line-height:1.25;font-family:Arial;-inkscape-font-specification:Arial;white-space:pre;display:inline;fill:#000;fill-opacity:1;stroke:none;stroke-width:.352778;stroke-dasharray:none" transform="translate(285.76)"><tspan style="font-size:3.52778px;stroke-width:.352778;stroke-dasharray:none">Prevention</tspan></text><path d="M-14.453 167.156v-.33l-.234.096zM-14.453 161.842v.33l-.234-.096zM-48.737 167.156v-.33l.234.096zM-48.737 161.842v.33l.234-.096z" style="font-variation-settings:normal;vector-effect:none;fill:#000;fill-opacity:1;stroke:#000;stroke-width:.352777;stroke-linecap:butt;stroke-linejoin:miter;stroke-miterlimit:4;stroke-dasharray:none;stroke-dashoffset:0;stroke-opacity:1;-inkscape-stroke:none;stop-color:#000" transform="translate(285.76)"/><path d="m-48.62 166.874-1.86-2.375 1.86-2.375h34.05l1.86 2.375-1.86 2.375zM-14.453 153.348v-.33l-.234.097zM-14.453 148.035v.33l-.234-.097zM-48.737 153.348v-.33l.234.097zM-48.737 148.035v.33l.234-.097z" style="font-variation-settings:normal;vector-effect:none;fill:#000;fill-opacity:1;stroke:#000;stroke-width:.352777;stroke-linecap:butt;stroke-linejoin:miter;stroke-miterlimit:4;stroke-dasharray:none;stroke-dashoffset:0;stroke-opacity:1;-inkscape-stroke:none;stop-color:#000" transform="translate(285.76)"/><path d="m-48.62 153.067-1.86-2.375 1.86-2.375h34.05l1.86 2.375-1.86 2.375z" style="font-variation-settings:normal;vector-effect:none;fill:#000;fill-opacity:1;stroke:#000;stroke-width:.352777;stroke-linecap:butt;stroke-linejoin:miter;stroke-miterlimit:4;stroke-dasharray:none;stroke-dashoffset:0;stroke-opacity:1;-inkscape-stroke:none;stop-color:#000" transform="translate(285.76)"/><path d="M-14.453 160.252v-.33l-.234.097zM-14.453 154.938v.33l-.234-.096zM-48.737 160.252v-.33l.234.097zM-48.737 154.938v.33l.234-.096zM-48.62 159.97l-1.86-2.375 1.86-2.375h34.05l1.86 2.375-1.86 2.375z" style="font-variation-settings:normal;vector-effect:none;fill:none;fill-opacity:1;stroke:#000;stroke-width:.352777;stroke-linecap:butt;stroke-linejoin:miter;stroke-miterlimit:4;stroke-dasharray:none;stroke-dashoffset:0;stroke-opacity:1;-inkscape-stroke:none;stop-color:#000" transform="translate(285.76)"/><text xml:space="preserve" x="-45.366" y="153.945" style="font-style:normal;font-variant:normal;font-weight:700;font-stretch:normal;font-size:3.52778px;line-height:1.25;font-family:Arial;-inkscape-font-specification:&quot;Arial Bold&quot;;white-space:pre;display:inline;fill:#fff;stroke:none;stroke-width:.352778;stroke-dasharray:none" transform="matrix(1.01553 0 0 .9847 285.76 0)"><tspan style="font-size:3.52778px;fill:#fff;stroke-width:.352778;stroke-dasharray:none">Casting Attribute</tspan></text><text xml:space="preserve" x="-44.113" y="167.967" style="font-style:normal;font-variant:normal;font-weight:700;font-stretch:normal;font-size:3.52778px;line-height:1.25;font-family:Arial;-inkscape-font-specification:&quot;Arial Bold&quot;;white-space:pre;display:inline;fill:#fff;stroke:none;stroke-width:.352778;stroke-dasharray:none" transform="matrix(1.01553 0 0 .9847 285.76 0)"><tspan style="font-size:3.52778px;fill:#fff;stroke-width:.352778;stroke-dasharray:none">Casting Talents</tspan></text><path d="M-16.808 174.06v-.331l.233.097zM-13.956 174.06v-.331l-.233.097zM-16.808 168.746v.33l.233-.097zM-13.92 168.746v.33l-.234-.097z" style="font-variation-settings:normal;vector-effect:none;fill:none;fill-opacity:1;stroke:#000;stroke-width:.352777;stroke-linecap:butt;stroke-linejoin:miter;stroke-miterlimit:4;stroke-dasharray:none;stroke-dashoffset:0;stroke-opacity:1;-inkscape-stroke:none;stop-color:#000" transform="translate(285.76)"/><path d="m-16.691 169.028-1.328 2.374 1.328 2.375h2.654l1.327-2.375-1.327-2.374zM-21.464 174.06v-.331l-.233.097zM-21.464 168.746v.33l-.233-.097zM-48.737 174.06v-.331l.234.097zM-48.737 168.746v.33l.234-.097zM-48.62 173.777l-1.86-2.375 1.86-2.374h27.04l1.86 2.374-1.86 2.375zM-16.808 180.963v-.33l.233.096zM-13.956 180.963v-.33l-.233.096zM-16.808 175.65v.33l.233-.097zM-13.92 175.65v.33l-.234-.097z" style="font-variation-settings:normal;vector-effect:none;fill:none;fill-opacity:1;stroke:#000;stroke-width:.352777;stroke-linecap:butt;stroke-linejoin:miter;stroke-miterlimit:4;stroke-dasharray:none;stroke-dashoffset:0;stroke-opacity:1;-inkscape-stroke:none;stop-color:#000" transform="translate(285.76)"/><path d="m-16.691 175.931-1.328 2.375 1.328 2.375h2.654l1.327-2.375-1.327-2.375zM-21.464 180.963v-.33l-.233.096zM-21.464 175.65v.33l-.233-.097zM-48.737 180.963v-.33l.234.096zM-48.737 175.65v.33l.234-.097z" style="font-variation-settings:normal;vector-effect:none;fill:none;fill-opacity:1;stroke:#000;stroke-width:.352777;stroke-linecap:butt;stroke-linejoin:miter;stroke-miterlimit:4;stroke-dasharray:none;stroke-dashoffset:0;stroke-opacity:1;-inkscape-stroke:none;stop-color:#000" transform="translate(285.76)"/><path d="m-48.62 180.681-1.86-2.375 1.86-2.375h27.04l1.86 2.375-1.86 2.375zM-16.808 187.866v-.33l.233.097zM-13.956 187.866v-.33l-.233.097zM-16.808 182.553v.33l.233-.097zM-13.92 182.553v.33l-.234-.097z" style="font-variation-settings:normal;vector-effect:none;fill:none;fill-opacity:1;stroke:#000;stroke-width:.352777;stroke-linecap:butt;stroke-linejoin:miter;stroke-miterlimit:4;stroke-dasharray:none;stroke-dashoffset:0;stroke-opacity:1;-inkscape-stroke:none;stop-color:#000" transform="translate(285.76)"/><path d="m-16.691 182.835-1.328 2.375 1.328 2.375h2.654l1.327-2.375-1.327-2.375zM-21.464 187.866v-.33l-.233.097zM-21.464 182.553v.33l-.233-.097zM-48.737 187.866v-.33l.234.097zM-48.737 182.553v.33l.234-.097z" style="font-variation-settings:normal;vector-effect:none;fill:none;fill-opacity:1;stroke:#000;stroke-width:.352777;stroke-linecap:butt;stroke-linejoin:miter;stroke-miterlimit:4;stroke-dasharray:none;stroke-dashoffset:0;stroke-opacity:1;-inkscape-stroke:none;stop-color:#000" transform="translate(285.76)"/><path d="m-48.62 187.585-1.86-2.375 1.86-2.375h27.04l1.86 2.375-1.86 2.375zM-16.808 194.77v-.33l.233.097zM-13.956 194.77v-.33l-.233.097zM-16.808 189.457v.33l.233-.097zM-13.92 189.457v.33l-.234-.097z" style="font-variation-settings:normal;vector-effect:none;fill:none;fill-opacity:1;stroke:#000;stroke-width:.352777;stroke-linecap:butt;stroke-linejoin:miter;stroke-miterlimit:4;stroke-dasharray:none;stroke-dashoffset:0;stroke-opacity:1;-inkscape-stroke:none;stop-color:#000" transform="translate(285.76)"/><path d="m-16.691 189.738-1.328 2.375 1.328 2.375h2.654l1.327-2.375-1.327-2.375zM-21.464 194.77v-.33l-.233.097zM-21.464 189.457v.33l-.233-.097zM-48.737 194.77v-.33l.234.097zM-48.737 189.457v.33l.234-.097z" style="font-variation-settings:normal;vector-effect:none;fill:none;fill-opacity:1;stroke:#000;stroke-width:.352777;stroke-linecap:butt;stroke-linejoin:miter;stroke-miterlimit:4;stroke-dasharray:none;stroke-dashoffset:0;stroke-opacity:1;-inkscape-stroke:none;stop-color:#000" transform="translate(285.76)"/><path d="m-48.62 194.488-1.86-2.375 1.86-2.375h27.04l1.86 2.375-1.86 2.375zM-16.808 201.674v-.33l.233.096zM-13.956 201.674v-.33l-.233.096zM-16.808 196.36v.33l.233-.096zM-13.92 196.36v.33l-.234-.096z" style="font-variation-settings:normal;vector-effect:none;fill:none;fill-opacity:1;stroke:#000;stroke-width:.352777;stroke-linecap:butt;stroke-linejoin:miter;stroke-miterlimit:4;stroke-dasharray:none;stroke-dashoffset:0;stroke-opacity:1;-inkscape-stroke:none;stop-color:#000" transform="translate(285.76)"/><path d="m-16.691 196.642-1.328 2.375 1.328 2.375h2.654l1.327-2.375-1.327-2.375zM-21.464 201.674v-.33l-.233.096zM-21.464 196.36v.33l-.233-.096zM-48.737 201.674v-.33l.234.096zM-48.737 196.36v.33l.234-.096z" style="font-variation-settings:normal;vector-effect:none;fill:none;fill-opacity:1;stroke:#000;stroke-width:.352777;stroke-linecap:butt;stroke-linejoin:miter;stroke-miterlimit:4;stroke-dasharray:none;stroke-dashoffset:0;stroke-opacity:1;-inkscape-stroke:none;stop-color:#000" transform="translate(285.76)"/><path d="m-48.62 201.392-1.86-2.375 1.86-2.375h27.04l1.86 2.375-1.86 2.375zM-16.808 208.577v-.33l.233.097zM-13.956 208.577v-.33l-.233.097zM-16.808 203.264v.33l.233-.097zM-13.92 203.264v.33l-.234-.097z" style="font-variation-settings:normal;vector-effect:none;fill:none;fill-opacity:1;stroke:#000;stroke-width:.352777;stroke-linecap:butt;stroke-linejoin:miter;stroke-miterlimit:4;stroke-dasharray:none;stroke-dashoffset:0;stroke-opacity:1;-inkscape-stroke:none;stop-color:#000" transform="translate(285.76)"/><path d="m-16.691 203.546-1.328 2.375 1.328 2.374h2.654l1.327-2.374-1.327-2.375zM-21.464 208.577v-.33l-.233.097zM-21.464 203.264v.33l-.233-.097zM-48.737 208.577v-.33l.234.097zM-48.737 203.264v.33l.234-.097zM-48.62 208.295l-1.86-2.374 1.86-2.375h27.04l1.86 2.375-1.86 2.374zM-94.028 209.691v-.33l-.233.097zM-137.967 209.691v-.33l.234.097z" style="font-variation-settings:normal;vector-effect:none;fill:none;fill-opacity:1;stroke:#000;stroke-width:.352777;stroke-linecap:butt;stroke-linejoin:miter;stroke-miterlimit:4;stroke-dasharray:none;stroke-dashoffset:0;stroke-opacity:1;-inkscape-stroke:none;stop-color:#000" transform="translate(285.76)"/><text xml:space="preserve" style="font-size:10.6667px;line-height:1.25;font-family:Arial;-inkscape-font-specification:Arial;white-space:pre;shape-inside:url(#c);display:inline" transform="matrix(.26458 0 0 .26458 287.3 -2.25)"><tspan x="-528.039" y="740.245"><tspan style="font-style:italic;font-weight:700;-inkscape-font-specification:&quot;Arial Bold Italic&quot;">Casting Exhaustion - </tspan>Each level </tspan><tspan x="-528.039" y="753.578">of Casting Exhaustion Inflicts a -1 </tspan><tspan x="-528.039" y="766.912">penalty to Casting Checks. </tspan><tspan x="-528.039" y="780.245">Remove all Casting Exhaustion at </tspan><tspan x="-528.039" y="793.578">the end of a Full Rest.</tspan></text><path d="m-137.85 209.41-1.86-2.376v-14.698l1.86-2.375h43.705l1.86 2.375v14.698l-1.86 2.375zM-137.967 189.679v.33l.234-.097zM-94.028 189.679v.33l-.233-.097z" style="font-variation-settings:normal;vector-effect:none;fill:none;fill-opacity:1;stroke:#000;stroke-width:.352777;stroke-linecap:butt;stroke-linejoin:miter;stroke-miterlimit:4;stroke-dasharray:none;stroke-dashoffset:0;stroke-opacity:1;-inkscape-stroke:none;stop-color:#000" transform="translate(285.76)"/><text xml:space="preserve" style="font-size:10.6667px;line-height:1.25;font-family:Arial;-inkscape-font-specification:Arial;white-space:pre;shape-inside:url(#d);display:inline" transform="matrix(.26458 0 0 .26458 286.789 26.083)"><tspan x="-522.02" y="524.514"><tspan style="font-style:italic;font-weight:700;-inkscape-font-specification:&quot;Arial Bold Italic&quot;">Channeling - </tspan>The Character can not Cast another Invocation with </tspan><tspan x="-522.02" y="537.848">a duration. Additionally, any time that Character Suffers Damage </tspan><tspan x="-522.02" y="551.181">they must make a Simplified Casting Check. On Any Failure the </tspan><tspan x="-522.02" y="564.514">Effects of the Invocation ends and the Channeling Condition is </tspan><tspan x="-522.02" y="577.848">removed from the Character. Additionally, as a Reaction the </tspan><tspan x="-522.02" y="591.181">Character can choose to end the Invocation and remove the </tspan><tspan x="-522.02" y="604.515">Channeling Condition.</tspan></text><path d="M-137.967 188.089v-.33l.234.097zM-137.85 187.807l-1.86-2.375v-21.437l1.86-2.375h83.92l1.86 2.375v21.437l-1.86 2.375z" style="font-variation-settings:normal;vector-effect:none;fill:none;fill-opacity:1;stroke:#000;stroke-width:.352777;stroke-linecap:butt;stroke-linejoin:miter;stroke-miterlimit:4;stroke-dasharray:none;stroke-dashoffset:0;stroke-opacity:1;-inkscape-stroke:none;stop-color:#000" transform="translate(285.76)"/><path d="M-53.813 161.339v.33l-.233-.097zM-53.813 188.089v-.33l-.233.097zM-137.967 161.339v.33l.234-.097zM-137.967 159.749v-.33l.234.096zM-137.967 148.035v.33l.234-.097zM-53.823 159.749v-.33l-.234.096zM-53.823 148.035v.33l-.234-.097z" style="font-variation-settings:normal;vector-effect:none;fill:none;fill-opacity:1;stroke:#000;stroke-width:.352777;stroke-linecap:butt;stroke-linejoin:miter;stroke-miterlimit:4;stroke-dasharray:none;stroke-dashoffset:0;stroke-opacity:1;-inkscape-stroke:none;stop-color:#000" transform="translate(285.76)"/><text xml:space="preserve" style="font-size:10.6667px;line-height:1.25;font-family:Arial;-inkscape-font-specification:Arial;white-space:pre;shape-inside:url(#e);display:inline" transform="matrix(.26458 0 0 .26458 286.33 12.389)"><tspan x="-522.02" y="524.514"><tspan style="font-style:italic;font-weight:700;-inkscape-font-specification:&quot;Arial Bold Italic&quot;">Cast Invocation (1R) [NA] {1 Casting Attribute} - </tspan>Select an </tspan><tspan x="-522.02" y="537.848">Invocation and make a Casting Check. Outside of Combat  you do </tspan><tspan x="-522.02" y="551.181">not need to strain to perform this Action.</tspan></text><path d="m-137.85 159.467-1.86-2.273v-6.605l1.86-2.272h83.91l1.86 2.272v6.605l-1.86 2.273zM-137.967 146.445v-.33l.234.096zM-14.453 146.445v-.33l-.234.096z" style="font-variation-settings:normal;vector-effect:none;fill:none;fill-opacity:1;stroke:#000;stroke-width:.352777;stroke-linecap:butt;stroke-linejoin:miter;stroke-miterlimit:4;stroke-dasharray:none;stroke-dashoffset:0;stroke-opacity:1;-inkscape-stroke:none;stop-color:#000" transform="translate(285.76)"/><text xml:space="preserve" style="font-size:10.6667px;line-height:1.25;font-family:Arial;-inkscape-font-specification:Arial;white-space:pre;shape-inside:url(#f);display:inline" transform="matrix(.26458 0 0 .26458 289.123 -47.654)"><tspan x="-528.039" y="644.841">&lt;4</tspan></text><text xml:space="preserve" style="font-size:10.6667px;line-height:1.25;font-family:Arial;-inkscape-font-specification:Arial;white-space:pre;shape-inside:url(#g);display:inline" transform="matrix(.26458 0 0 .26458 288.748 -42.273)"><tspan x="-528.039" y="644.841">4-7</tspan></text><text xml:space="preserve" style="font-size:10.6667px;line-height:1.25;font-family:Arial;-inkscape-font-specification:Arial;white-space:pre;shape-inside:url(#h);display:inline" transform="matrix(.26458 0 0 .26458 288.223 -36.906)"><tspan x="-528.039" y="644.841">8-11</tspan></text><text xml:space="preserve" style="font-size:10.6667px;line-height:1.25;font-family:Arial;-inkscape-font-specification:Arial;white-space:pre;shape-inside:url(#i);display:inline" transform="matrix(.26458 0 0 .26458 300.446 -51.329)"><tspan x="-528.039" y="657.608">Major Failure</tspan></text><text xml:space="preserve" style="font-size:10.6667px;line-height:1.25;font-family:Arial;-inkscape-font-specification:Arial;white-space:pre;shape-inside:url(#j);display:inline" transform="matrix(.26458 0 0 .26458 300.446 -45.668)"><tspan x="-528.039" y="657.608">Minor Failure</tspan></text><text xml:space="preserve" style="font-size:10.6667px;line-height:1.25;font-family:Arial;-inkscape-font-specification:Arial;white-space:pre;shape-inside:url(#k);display:inline" transform="matrix(.26458 0 0 .26458 299.422 -40.27)"><tspan x="-528.039" y="657.608">Minor Success</tspan></text><text xml:space="preserve" style="font-size:10.6667px;line-height:1.25;font-family:Arial;-inkscape-font-specification:Arial;white-space:pre;shape-inside:url(#l);display:inline" transform="matrix(.26458 0 0 .26458 299.422 -29.79)"><tspan x="-528.039" y="657.608">Major Success</tspan></text><text xml:space="preserve" style="font-size:10.6667px;line-height:1.25;font-family:Arial;-inkscape-font-specification:Arial;white-space:pre;shape-inside:url(#m);display:inline" transform="matrix(.26458 0 0 .26458 287.043 -31.508)"><tspan x="-528.039" y="644.841">12-14</tspan></text><text xml:space="preserve" style="font-size:10.6667px;line-height:1.25;font-family:Arial;-inkscape-font-specification:Arial;white-space:pre;shape-inside:url(#n);display:inline" transform="matrix(.26458 0 0 .26458 288.272 -26.144)"><tspan x="-528.039" y="644.841">15+</tspan></text><text xml:space="preserve" style="font-size:10.6667px;line-height:1.25;font-family:Arial;-inkscape-font-specification:Arial;white-space:pre;shape-inside:url(#o);display:inline" transform="matrix(.26458 0 0 .26458 297.102 -34.89)"><tspan x="-528.039" y="657.608">Moderate Success</tspan></text><path d="M-129.749 140.782h26.009v5.381h-26.009zM-103.74 135.402h91.03v5.381h-91.03zM-139.71 135.402h9.961v5.381h-9.961zM-103.74 130.021h91.03v5.381h-91.03zM-139.71 130.021h9.961v5.381h-9.961zM-129.749 130.021h26.009v5.381h-26.009z" style="font-variation-settings:normal;vector-effect:none;fill:none;fill-opacity:1;fill-rule:evenodd;stroke:#000;stroke-width:.352777;stroke-linecap:butt;stroke-linejoin:miter;stroke-miterlimit:4;stroke-dasharray:none;stroke-dashoffset:0;stroke-opacity:1;-inkscape-stroke:none;stop-color:#000" transform="translate(285.76)"/><path d="M-103.74 124.641h91.03v5.381h-91.03zM-139.71 124.641h9.961v5.381h-9.961zM-129.749 124.641h26.009v5.381h-26.009zM-103.74 119.26h91.03v5.381h-91.03zM-139.71 119.26h9.961v5.381h-9.961z" style="font-variation-settings:normal;vector-effect:none;fill:none;fill-opacity:1;fill-rule:evenodd;stroke:#000;stroke-width:.352777;stroke-linecap:butt;stroke-linejoin:miter;stroke-miterlimit:4;stroke-dasharray:none;stroke-dashoffset:0;stroke-opacity:1;-inkscape-stroke:none;stop-color:#000" transform="translate(285.76)"/><text xml:space="preserve" style="font-size:10.6667px;line-height:1.25;font-family:Arial;-inkscape-font-specification:Arial;white-space:pre;shape-inside:url(#p);display:inline" transform="matrix(.26458 0 0 .26458 291.096 .458)"><tspan x="-392.088" y="461.944">Suffer 1 Casting Exhaustion and randomly select a Complication</tspan></text><text xml:space="preserve" style="font-size:10.6667px;line-height:1.25;font-family:Arial;-inkscape-font-specification:Arial;white-space:pre;shape-inside:url(#q);display:inline" transform="matrix(.26458 0 0 .26458 290.78 .458)"><tspan x="-392.088" y="482.28">Success.Effects are Weakened and Suffer 1 Casting Exhaustion.</tspan></text><text xml:space="preserve" style="font-size:10.6667px;line-height:1.25;font-family:Arial;-inkscape-font-specification:Arial;white-space:pre;shape-inside:url(#r);display:inline" transform="matrix(.26458 0 0 .26458 297.976 .458)"><tspan x="-392.088" y="502.616">Suffer 1 Casting Exhaustion or Effects are Weakened</tspan></text><text xml:space="preserve" style="font-size:10.6667px;line-height:1.25;font-family:Arial;-inkscape-font-specification:Arial;white-space:pre;shape-inside:url(#s);display:inline" transform="matrix(.26458 0 0 .26458 287.385 .458)"><tspan x="-392.088" y="522.952">You may choose Strengthened, if you do, Suffer 1 Casting Exhaustion.</tspan></text><text xml:space="preserve" style="font-size:10.6667px;line-height:1.25;font-family:Arial;-inkscape-font-specification:Arial;white-space:pre;shape-inside:url(#t);display:inline" transform="matrix(.26458 0 0 .26458 315.31 .458)"><tspan x="-392.088" y="543.288">Effects are Strengthened.</tspan></text><path d="m-137.85 146.163-1.86-2.375v-27.534l1.86-2.375h123.28l1.86 2.375v27.534l-1.86 2.375z" style="font-variation-settings:normal;vector-effect:none;fill:none;fill-opacity:1;stroke:#000;stroke-width:.352777;stroke-linecap:butt;stroke-linejoin:miter;stroke-miterlimit:4;stroke-dasharray:none;stroke-dashoffset:0;stroke-opacity:1;-inkscape-stroke:none;stop-color:#000" transform="translate(285.76)"/><path d="m-129.749 113.88-8.218.048-1.743 2.326v3.006h127v-3.006l-1.743-2.326-89.287-.049z" style="font-variation-settings:normal;vector-effect:none;fill:#000;fill-opacity:1;stroke:#000;stroke-width:.352777;stroke-linecap:butt;stroke-linejoin:miter;stroke-miterlimit:4;stroke-dasharray:none;stroke-dashoffset:0;stroke-opacity:1;-inkscape-stroke:none;stop-color:#000" transform="translate(285.76)"/><text xml:space="preserve" style="font-style:normal;font-variant:normal;font-weight:700;font-stretch:normal;font-size:10.6667px;line-height:1.25;font-family:Arial;-inkscape-font-specification:&quot;Arial Bold&quot;;white-space:pre;shape-inside:url(#u);display:inline;fill:#fff" transform="matrix(.26458 0 0 .26458 288.07 -56.429)"><tspan x="-528.039" y="657.608">Roll</tspan></text><text xml:space="preserve" style="font-style:normal;font-variant:normal;font-weight:700;font-stretch:normal;font-size:10.6667px;line-height:1.25;font-family:Arial;-inkscape-font-specification:&quot;Arial Bold&quot;;white-space:pre;shape-inside:url(#v);display:inline;fill:#fff" transform="matrix(.26458 0 0 .26458 304.327 -56.429)"><tspan x="-528.039" y="657.608">Result</tspan></text><text xml:space="preserve" style="font-style:normal;font-variant:normal;font-weight:700;font-stretch:normal;font-size:10.6667px;line-height:1.25;font-family:Arial;-inkscape-font-specification:&quot;Arial Bold&quot;;white-space:pre;shape-inside:url(#w);display:inline;fill:#fff" transform="matrix(.26458 0 0 .26458 360.352 -56.412)"><tspan x="-528.039" y="657.608">Outcomes</tspan></text><path d="M-129.749 113.879h26.009v5.381h-26.009z" style="font-variation-settings:normal;vector-effect:none;fill:none;fill-opacity:1;fill-rule:evenodd;stroke:#000;stroke-width:.352777;stroke-linecap:butt;stroke-linejoin:miter;stroke-miterlimit:4;stroke-dasharray:none;stroke-dashoffset:0;stroke-opacity:1;-inkscape-stroke:none;stop-color:#000" transform="translate(285.76)"/><path d="M-14.453 113.598v.33l-.234-.097zM-137.967 113.598v.33l.234-.097z" style="font-variation-settings:normal;vector-effect:none;fill:none;fill-opacity:1;stroke:#000;stroke-width:.352777;stroke-linecap:butt;stroke-linejoin:miter;stroke-miterlimit:4;stroke-dasharray:none;stroke-dashoffset:0;stroke-opacity:1;-inkscape-stroke:none;stop-color:#000" transform="translate(285.76)"/><path d="M-139.71 11.84V8.865l1.86-2.375h123.28l1.86 2.375v2.973z" style="font-variation-settings:normal;vector-effect:none;fill:#000;fill-opacity:1;stroke:#000;stroke-width:.352777;stroke-linecap:butt;stroke-linejoin:miter;stroke-miterlimit:4;stroke-dasharray:none;stroke-dashoffset:0;stroke-opacity:1;-inkscape-stroke:none;stop-color:#000" transform="translate(285.76)"/><text xml:space="preserve" style="font-style:normal;font-variant:normal;font-weight:700;font-stretch:normal;font-size:16px;line-height:1.25;font-family:Arial;-inkscape-font-specification:&quot;Arial Bold&quot;;white-space:pre;shape-inside:url(#x);display:inline;fill:#fff" transform="matrix(.26458 0 0 .26458 335.48 .54)"><tspan x="-520.568" y="38.228">Invocations</tspan></text><path d="M-12.71 18.19h-127M-12.71 24.54h-127M-12.71 30.89h-127M-12.71 37.24h-127M-12.71 43.59h-127M-12.71 49.94h-127M-12.71 56.29h-127M-12.71 62.64h-127M-12.71 68.99h-127M-12.71 75.34h-127M-12.71 81.69h-127M-12.71 88.04h-127M-12.71 94.39h-127M-12.71 100.74h-127M-12.71 107.09h-127" style="font-variation-settings:normal;fill:none;fill-opacity:1;stroke:#000;stroke-width:.176389;stroke-linecap:butt;stroke-linejoin:miter;stroke-miterlimit:4;stroke-dasharray:none;stroke-dashoffset:0;stroke-opacity:.352087;stop-color:#000" transform="translate(285.76)"/><path d="M-139.71 11.84v97.511l1.743 2.374H-14.57l1.86-2.374V11.84z" style="font-variation-settings:normal;vector-effect:none;fill:none;fill-opacity:1;stroke:#000;stroke-width:.352777;stroke-linecap:butt;stroke-linejoin:miter;stroke-miterlimit:4;stroke-dasharray:none;stroke-dashoffset:0;stroke-opacity:1;-inkscape-stroke:none;stop-color:#000" transform="translate(285.76)"/></svg>