<svg xmlns="http://www.w3.org/2000/svg" width="11in" height="816" viewBox="0 0 279.4 215.9"><path d="M285.76-.398h279.4v215.9h-279.4z" style="font-variation-settings:normal;vector-effect:none;fill:#fff;fill-opacity:1;fill-rule:evenodd;stroke:none;stroke-width:.352776;stroke-linecap:butt;stroke-linejoin:miter;stroke-miterlimit:4;stroke-dasharray:none;stroke-dashoffset:0;stroke-opacity:1;-inkscape-stroke:none;stop-color:#000" transform="translate(-285.76 .398)"/><path d="M874.443 545.615h60v75.475h-60z" style="font-variation-settings:normal;vector-effect:none;fill:#fff;fill-opacity:1;fill-rule:evenodd;stroke:none;stroke-width:.352777;stroke-linecap:butt;stroke-linejoin:miter;stroke-miterlimit:4;stroke-dasharray:none;stroke-dashoffset:0;stroke-opacity:1;-inkscape-stroke:none;stop-color:#000" transform="translate(-859.242 -426.64)"/><path d="M874.443 536.09h60v9.525h-60zm-1.5-1.5v88h63v-88zm1.5 1.5h60v85h-60z" style="vector-effect:none;fill-rule:evenodd;stroke-width:.352777;stop-color:#000" transform="translate(-859.242 -426.64)"/><text xml:space="preserve" x="894.805" y="541.922" style="font-style:normal;font-variant:normal;font-weight:700;font-stretch:normal;font-size:4.23333px;line-height:1.25;font-family:Arial;-inkscape-font-specification:&quot;Arial Bold&quot;;white-space:pre;display:inline;fill:#fff;fill-opacity:1;stroke:none;stroke-width:.352778;stroke-dasharray:none" transform="translate(-859.242 -426.64)"><tspan style="fill:#fff;stroke:none;stroke-width:.352778;stroke-dasharray:none">Inventory</tspan></text><path d="m928.363 537.678-.687 1.172-1.173.687V542.168l1.173.687.687 1.173h2.63l.687-1.173 1.173-.687V539.537l-1.173-.687-.687-1.172h-1.315z" style="font-variation-settings:normal;fill:#fff;fill-opacity:1;stroke:none;stroke-width:.352778;stroke-linecap:butt;stroke-linejoin:miter;stroke-miterlimit:4;stroke-dasharray:none;stroke-dashoffset:0;stroke-opacity:1;stop-color:#000" transform="translate(-859.242 -426.64)"/><path d="M934.443 551.904h-60M934.443 558.192h-60M934.443 564.481h-60M934.443 570.77h-60M934.443 577.058h-60M934.443 583.347h-60M934.443 589.635h-60M934.443 595.924h-60M934.443 602.213h-60M934.443 608.501h-60M934.443 614.79h-60" style="font-variation-settings:normal;vector-effect:none;fill:none;fill-opacity:1;stroke:#000;stroke-width:.352777;stroke-linecap:butt;stroke-linejoin:miter;stroke-miterlimit:4;stroke-dasharray:none;stroke-dashoffset:0;stroke-opacity:1;-inkscape-stroke:none;stop-color:#000" transform="translate(-859.242 -426.634)"/><path d="M881.984 507.538h60v56.425h-60z" style="font-variation-settings:normal;vector-effect:none;fill:#fff;fill-opacity:1;fill-rule:evenodd;stroke:none;stroke-width:.352777;stroke-linecap:butt;stroke-linejoin:miter;stroke-miterlimit:4;stroke-dasharray:none;stroke-dashoffset:0;stroke-opacity:1;-inkscape-stroke:none;stop-color:#000" transform="translate(-803.783 -369.513)"/><path d="M881.984 498.013h60v9.525h-60zm0-9.525h60v9.525h-60zm0-9.525h60v9.525h-60zm-1.5-1.5v88h63v-88zm1.5 1.5h60v85h-60z" style="vector-effect:none;fill-rule:evenodd;stroke-width:.352777;stop-color:#000" transform="translate(-803.783 -369.513)"/><path d="m937.219 480.552-.527.527-.688-.285-.285.688h-.745v.744l-.688.285.285.688-.527.527.527.526-.286.689.69.285v.744h.743l.285.688.689-.285.527.526.527-.526.687.285.286-.688h.744v-.745l.688-.285-.284-.688.527-.526-.527-.527.285-.688-.689-.285v-.744h-.744l-.285-.689-.688.286z" style="font-variation-settings:normal;fill:#fff;fill-opacity:1;stroke:none;stroke-width:.352778;stroke-linecap:butt;stroke-linejoin:miter;stroke-miterlimit:4;stroke-dasharray:none;stroke-dashoffset:0;stroke-opacity:1;stop-color:#000" transform="translate(-803.783 -369.513)"/><path d="m885.434 480.55-1.86 1.86v2.63l1.86 1.86h6.066v.001h39.094l1.86-1.86v-2.63l-1.86-1.86h-6.066z" style="font-variation-settings:normal;vector-effect:none;fill:#fff;fill-opacity:1;stroke:none;stroke-width:.352777;stroke-linecap:butt;stroke-linejoin:miter;stroke-miterlimit:4;stroke-dasharray:none;stroke-dashoffset:0;stroke-opacity:1;-inkscape-stroke:none;stop-color:#000" transform="translate(-803.783 -369.513)"/><path d="m885.434 490.076-1.86 1.86v2.63l1.86 1.86H909.329l1.86-1.86v-2.63l-1.86-1.86H888.46zM914.639 490.076l-1.86 1.86v2.63l1.86 1.86H938.533l1.86-1.86v-2.63l-1.86-1.86h-20.868zM885.433 499.6l-1.86 1.86v2.63l1.86 1.86H909.33l1.86-1.86v-2.63l-1.86-1.86H888.46zM914.639 499.6l-1.86 1.86v2.63l1.86 1.86H938.533l1.86-1.86v-2.63l-1.86-1.86h-20.868z" style="font-variation-settings:normal;fill:#fff;fill-opacity:1;stroke:none;stroke-width:.352778;stroke-linecap:butt;stroke-linejoin:miter;stroke-miterlimit:4;stroke-dasharray:none;stroke-dashoffset:0;stroke-opacity:1;stop-color:#000" transform="translate(-803.783 -369.513)"/><path d="M881.984 507.538h60v56.425h-60z" style="font-variation-settings:normal;vector-effect:none;fill:none;fill-opacity:1;fill-rule:evenodd;stroke:none;stroke-width:.352777;stroke-linecap:butt;stroke-linejoin:miter;stroke-miterlimit:4;stroke-dasharray:none;stroke-dashoffset:0;stroke-opacity:1;-inkscape-stroke:none;stop-color:#000" transform="translate(-803.783 -369.513)"/><path d="M881.984 507.538h60v56.425h-60z" style="font-variation-settings:normal;vector-effect:none;fill:#fff;fill-opacity:1;fill-rule:evenodd;stroke:none;stroke-width:.352777;stroke-linecap:butt;stroke-linejoin:miter;stroke-miterlimit:4;stroke-dasharray:none;stroke-dashoffset:0;stroke-opacity:1;-inkscape-stroke:none;stop-color:#000" transform="translate(-740.784 -369.513)"/><path d="M881.984 498.013h60v9.525h-60zm0-9.525h60v9.525h-60zm0-9.525h60v9.525h-60zm-1.5-1.5v88h63v-88zm1.5 1.5h60v85h-60z" style="vector-effect:none;fill-rule:evenodd;stroke-width:.352777;stop-color:#000" transform="translate(-740.784 -369.513)"/><path d="m937.219 480.552-.527.527-.688-.285-.285.688h-.745v.744l-.688.285.285.688-.527.527.527.526-.286.689.69.285v.744h.743l.285.688.689-.285.527.526.527-.526.687.285.286-.688h.744v-.745l.688-.285-.284-.688.527-.526-.527-.527.285-.688-.689-.285v-.744h-.744l-.285-.689-.688.286z" style="font-variation-settings:normal;fill:#fff;fill-opacity:1;stroke:none;stroke-width:.352778;stroke-linecap:butt;stroke-linejoin:miter;stroke-miterlimit:4;stroke-dasharray:none;stroke-dashoffset:0;stroke-opacity:1;stop-color:#000" transform="translate(-740.784 -369.513)"/><path d="m885.434 480.55-1.86 1.86v2.63l1.86 1.86h6.066v.001h39.094l1.86-1.86v-2.63l-1.86-1.86h-6.066z" style="font-variation-settings:normal;vector-effect:none;fill:#fff;fill-opacity:1;stroke:none;stroke-width:.352777;stroke-linecap:butt;stroke-linejoin:miter;stroke-miterlimit:4;stroke-dasharray:none;stroke-dashoffset:0;stroke-opacity:1;-inkscape-stroke:none;stop-color:#000" transform="translate(-740.784 -369.513)"/><path d="m885.434 490.076-1.86 1.86v2.63l1.86 1.86H909.329l1.86-1.86v-2.63l-1.86-1.86H888.46zM914.639 490.076l-1.86 1.86v2.63l1.86 1.86H938.533l1.86-1.86v-2.63l-1.86-1.86h-20.868zM885.433 499.6l-1.86 1.86v2.63l1.86 1.86H909.33l1.86-1.86v-2.63l-1.86-1.86H888.46zM914.639 499.6l-1.86 1.86v2.63l1.86 1.86H938.533l1.86-1.86v-2.63l-1.86-1.86h-20.868z" style="font-variation-settings:normal;fill:#fff;fill-opacity:1;stroke:none;stroke-width:.352778;stroke-linecap:butt;stroke-linejoin:miter;stroke-miterlimit:4;stroke-dasharray:none;stroke-dashoffset:0;stroke-opacity:1;stop-color:#000" transform="translate(-740.784 -369.513)"/><path d="M881.984 507.538h60v56.425h-60z" style="font-variation-settings:normal;vector-effect:none;fill:none;fill-opacity:1;fill-rule:evenodd;stroke:none;stroke-width:.352777;stroke-linecap:butt;stroke-linejoin:miter;stroke-miterlimit:4;stroke-dasharray:none;stroke-dashoffset:0;stroke-opacity:1;-inkscape-stroke:none;stop-color:#000" transform="translate(-740.784 -369.513)"/><path d="M1069.535 530.209h60v75.475h-60z" style="font-variation-settings:normal;vector-effect:none;fill:#fff;fill-opacity:1;fill-rule:evenodd;stroke:none;stroke-width:.352777;stroke-linecap:butt;stroke-linejoin:miter;stroke-miterlimit:4;stroke-dasharray:none;stroke-dashoffset:0;stroke-opacity:1;-inkscape-stroke:none;stop-color:#000" transform="translate(-865.336 -411.234)"/><path d="M1069.536 520.684h60v9.525h-60zm-1.5-1.5v88h63v-88zm1.5 1.5h60v85h-60z" style="vector-effect:none;fill-rule:evenodd;stroke-width:.352777;stop-color:#000" transform="translate(-865.336 -411.234)"/><text xml:space="preserve" x="1077.127" y="535.146" style="font-style:normal;font-variant:normal;font-weight:700;font-stretch:normal;font-size:4.29903px;line-height:1.25;font-family:Arial;-inkscape-font-specification:&quot;Arial Bold&quot;;white-space:pre;display:inline;fill:#fff;stroke:none;stroke-width:.352778;stroke-dasharray:none" transform="matrix(1.01553 0 0 .9847 -865.336 -411.234)"><tspan style="stroke:none;stroke-width:.352778;stroke-dasharray:none">Skills</tspan></text><text xml:space="preserve" x="1075.132" y="590.728" style="font-style:normal;font-variant:normal;font-weight:400;font-stretch:normal;font-size:3.52778px;line-height:1.25;font-family:Arial;-inkscape-font-specification:Arial;white-space:pre;display:inline;fill:#000;fill-opacity:1;stroke:none;stroke-width:.352778;stroke-dasharray:none" transform="translate(-865.336 -411.234)"><tspan style="font-size:3.52778px;stroke-width:.352778;stroke-dasharray:none">Survival</tspan></text><text xml:space="preserve" x="1102.997" y="579.948" style="font-style:normal;font-variant:normal;font-weight:400;font-stretch:normal;font-size:3.52778px;line-height:1.25;font-family:Arial;-inkscape-font-specification:Arial;white-space:pre;display:inline;fill:#000;fill-opacity:1;stroke:none;stroke-width:.352778;stroke-dasharray:none" transform="translate(-865.336 -411.234)"><tspan style="font-size:3.52778px;stroke-width:.352778;stroke-dasharray:none">Research</tspan></text><text xml:space="preserve" x="1072.913" y="579.618" style="font-style:normal;font-variant:normal;font-weight:400;font-stretch:normal;font-size:3.52778px;line-height:1.25;font-family:Arial;-inkscape-font-specification:Arial;white-space:pre;display:inline;fill:#000;fill-opacity:1;stroke:none;stroke-width:.352778;stroke-dasharray:none" transform="translate(-865.336 -411.234)"><tspan style="font-size:3.52778px;stroke-width:.352778;stroke-dasharray:none">Perception</tspan></text><text xml:space="preserve" x="1101.145" y="569.188" style="font-style:normal;font-variant:normal;font-weight:400;font-stretch:normal;font-size:3.52778px;line-height:1.25;font-family:Arial;-inkscape-font-specification:Arial;white-space:pre;display:inline;fill:#000;fill-opacity:1;stroke:none;stroke-width:.352778;stroke-dasharray:none" transform="translate(-865.336 -411.234)"><tspan style="font-size:3.52778px;stroke-width:.352778;stroke-dasharray:none">Misdirection</tspan></text><text xml:space="preserve" x="1074.244" y="569.188" style="font-style:normal;font-variant:normal;font-weight:400;font-stretch:normal;font-size:3.52778px;line-height:1.25;font-family:Arial;-inkscape-font-specification:Arial;white-space:pre;display:inline;fill:#000;fill-opacity:1;stroke:none;stroke-width:.352778;stroke-dasharray:none" transform="translate(-865.336 -411.234)"><tspan style="font-size:3.52778px;stroke-width:.352778;stroke-dasharray:none">Medicine</tspan></text><text xml:space="preserve" x="1102.827" y="558.429" style="font-style:normal;font-variant:normal;font-weight:400;font-stretch:normal;font-size:3.52778px;line-height:1.25;font-family:Arial;-inkscape-font-specification:Arial;white-space:pre;display:inline;fill:#000;fill-opacity:1;stroke:none;stroke-width:.352778;stroke-dasharray:none" transform="translate(-865.336 -411.234)"><tspan style="font-size:3.52778px;stroke-width:.352778;stroke-dasharray:none">Intimidate</tspan></text><text xml:space="preserve" x="1076.012" y="558.078" style="font-style:normal;font-variant:normal;font-weight:400;font-stretch:normal;font-size:3.52778px;line-height:1.25;font-family:Arial;-inkscape-font-specification:Arial;white-space:pre;display:inline;fill:#000;fill-opacity:1;stroke:none;stroke-width:.352778;stroke-dasharray:none" transform="translate(-865.336 -411.234)"><tspan style="font-size:3.52778px;stroke-width:.352778;stroke-dasharray:none">Insight</tspan></text><text xml:space="preserve" x="1104.318" y="547.669" style="font-style:normal;font-variant:normal;font-weight:400;font-stretch:normal;font-size:3.52778px;line-height:1.25;font-family:Arial;-inkscape-font-specification:Arial;white-space:pre;display:inline;fill:#000;fill-opacity:1;stroke:none;stroke-width:.352778;stroke-dasharray:none" transform="translate(-865.336 -411.234)"><tspan style="font-size:3.52778px;stroke-width:.352778;stroke-dasharray:none">Finesse</tspan></text><text xml:space="preserve" x="1076.09" y="547.69" style="font-style:normal;font-variant:normal;font-weight:400;font-stretch:normal;font-size:3.52778px;line-height:1.25;font-family:Arial;-inkscape-font-specification:Arial;white-space:pre;display:inline;fill:#000;fill-opacity:1;stroke:none;stroke-width:.352778;stroke-dasharray:none" transform="translate(-865.336 -411.234)"><tspan style="font-size:3.52778px;stroke-width:.352778;stroke-dasharray:none">Covert</tspan></text><text xml:space="preserve" x="1103.197" y="536.931" style="font-style:normal;font-variant:normal;font-weight:400;font-stretch:normal;font-size:3.52778px;line-height:1.25;font-family:Arial;-inkscape-font-specification:Arial;white-space:pre;display:inline;fill:#000;fill-opacity:1;stroke:none;stroke-width:.352778;stroke-dasharray:none" transform="translate(-865.336 -411.234)"><tspan style="font-size:3.52778px;stroke-width:.352778;stroke-dasharray:none">Convince</tspan></text><text xml:space="preserve" x="1074.765" y="536.91" style="font-style:normal;font-variant:normal;font-weight:400;font-stretch:normal;font-size:3.52778px;line-height:1.25;font-family:Arial;-inkscape-font-specification:Arial;white-space:pre;display:inline;fill:#000;fill-opacity:1;stroke:none;stroke-width:.352778;stroke-dasharray:none" transform="translate(-865.336 -411.234)"><tspan style="font-size:3.52778px;stroke-width:.352778;stroke-dasharray:none">Athletics</tspan></text><path d="M1092.788 601.54v-2.63l1.86-1.86h2.63l1.86 1.86v2.63l-1.86 1.86h-2.63zM1128.343 601.54v-2.63l-1.86-1.86h-2.63l-1.86 1.86v2.63l1.86 1.86h2.63zM1092.788 590.78v-2.63l1.86-1.86h2.63l1.86 1.86v2.63l-1.86 1.86h-2.63zM1128.343 590.78v-2.63l-1.86-1.86h-2.63l-1.86 1.86v2.63l1.86 1.86h2.63zM1072.588 597.05l-1.86 1.86v2.63l1.86 1.86h17.545l1.86-1.86v-2.63l-1.86-1.86zM1072.588 586.29l-1.86 1.86v2.63l1.86 1.86h17.545l1.86-1.86v-2.63l-1.86-1.86zM1072.588 575.53l-1.86 1.86v2.63l1.86 1.86h17.545l1.86-1.86v-2.63l-1.86-1.86zM1072.588 564.771l-1.86 1.86v2.63l1.86 1.86h17.545l1.86-1.86v-2.63l-1.86-1.86zM1072.588 554.012l-1.86 1.86v2.63l1.86 1.86h17.545l1.86-1.86v-2.63l-1.86-1.86zM1072.588 543.252l-1.86 1.86v2.63l1.86 1.86h17.545l1.86-1.86v-2.63l-1.86-1.86zM1072.588 532.493l-1.86 1.86v2.63l1.86 1.86h17.545l1.86-1.86v-2.63l-1.86-1.86zM1119.338 597.05l1.86 1.86v2.63l-1.86 1.86h-17.545l-1.86-1.86v-2.63l1.86-1.86zM1119.338 586.29l1.86 1.86v2.63l-1.86 1.86h-17.545l-1.86-1.86v-2.63l1.86-1.86zM1119.338 575.53l1.86 1.86v2.63l-1.86 1.86h-17.545l-1.86-1.86v-2.63l1.86-1.86zM1119.338 564.771l1.86 1.86v2.63l-1.86 1.86h-17.545l-1.86-1.86v-2.63l1.86-1.86zM1119.338 554.012l1.86 1.86v2.63l-1.86 1.86h-17.545l-1.86-1.86v-2.63l1.86-1.86zM1119.338 543.252l1.86 1.86v2.63l-1.86 1.86h-17.545l-1.86-1.86v-2.63l1.86-1.86zM1119.338 532.493l1.86 1.86v2.63l-1.86 1.86h-17.545l-1.86-1.86v-2.63l1.86-1.86zM1092.788 580.02v-2.63l1.86-1.86h2.63l1.86 1.86v2.63l-1.86 1.86h-2.63zM1128.343 580.02v-2.63l-1.86-1.86h-2.63l-1.86 1.86v2.63l1.86 1.86h2.63zM1092.788 569.261v-2.63l1.86-1.86h2.63l1.86 1.86v2.63l-1.86 1.86h-2.63zM1128.343 569.261v-2.63l-1.86-1.86h-2.63l-1.86 1.86v2.63l1.86 1.86h2.63zM1092.788 558.502v-2.63l1.86-1.86h2.63l1.86 1.86v2.63l-1.86 1.86h-2.63zM1128.343 558.502v-2.63l-1.86-1.86h-2.63l-1.86 1.86v2.63l1.86 1.86h2.63zM1092.788 547.742v-2.63l1.86-1.86h2.63l1.86 1.86v2.63l-1.86 1.86h-2.63zM1128.343 547.742v-2.63l-1.86-1.86h-2.63l-1.86 1.86v2.63l1.86 1.86h2.63zM1092.788 536.983v-2.63l1.86-1.86h2.63l1.86 1.86v2.63l-1.86 1.86h-2.63zM1128.343 536.983v-2.63l-1.86-1.86h-2.63l-1.86 1.86v2.63l1.86 1.86h2.63z" style="font-variation-settings:normal;fill:none;fill-opacity:1;stroke:#000;stroke-width:.352778;stroke-linecap:butt;stroke-linejoin:miter;stroke-miterlimit:4;stroke-dasharray:none;stroke-dashoffset:0;stroke-opacity:1;stop-color:#000" transform="translate(-865.336 -411.234)"/><path d="M1120.396 479.768h251.993v88h-251.993z" style="font-variation-settings:normal;vector-effect:none;fill:#000;fill-opacity:1;fill-rule:evenodd;stroke:none;stroke-width:.352777;stroke-linecap:butt;stroke-linejoin:miter;stroke-miterlimit:4;stroke-dasharray:1.05833,.352777;stroke-dashoffset:0;stroke-opacity:1;-inkscape-stroke:none;stop-color:#000" transform="translate(-1106.695 -459.817)"/><path d="M1121.983 481.349h248.818v84.836h-248.818z" style="font-variation-settings:normal;vector-effect:none;fill:#fff;fill-opacity:1;fill-rule:evenodd;stroke:none;stroke-width:.352777;stroke-linecap:butt;stroke-linejoin:miter;stroke-miterlimit:4;stroke-dasharray:1.05833,.352777;stroke-dashoffset:0;stroke-opacity:1;-inkscape-stroke:none;stop-color:#000" transform="translate(-1106.695 -459.817)"/><text xml:space="preserve" x="1332.582" y="509.871" style="font-style:normal;font-variant:normal;font-weight:700;font-stretch:normal;font-size:4.23333px;line-height:1.25;font-family:Arial;-inkscape-font-specification:&quot;Arial Bold&quot;;white-space:pre;display:inline;fill:#fff;fill-opacity:1;stroke:none;stroke-width:.352778;stroke-dasharray:none" transform="translate(-1106.695 -459.817)"><tspan style="fill:#fff;stroke-width:.352778;stroke-dasharray:none">Inspiration</tspan></text><path d="m1322.08 511.46-1.302-1.3v-2.63l1.302-1.302h42.617l1.301 1.301v2.63l-1.296 1.297z" style="font-variation-settings:normal;opacity:1;vector-effect:none;fill:#000;fill-opacity:1;stroke:none;stroke-width:.352777;stroke-linecap:butt;stroke-linejoin:miter;stroke-miterlimit:4;stroke-dasharray:none;stroke-dashoffset:0;stroke-opacity:1;-inkscape-stroke:none;stop-color:#000;stop-opacity:1" transform="translate(-1106.695 -459.817)"/><text xml:space="preserve" x="1334.371" y="509.759" style="font-style:normal;font-variant:normal;font-weight:700;font-stretch:normal;font-size:3.52778px;line-height:1.25;font-family:Arial;-inkscape-font-specification:&quot;Arial Bold&quot;;white-space:pre;display:inline;fill:#fff;fill-opacity:1;stroke:none;stroke-width:.352778;stroke-dasharray:none" transform="translate(-1106.695 -459.817)"><tspan style="font-style:normal;font-variant:normal;font-weight:700;font-stretch:normal;font-size:3.52778px;font-family:Arial;-inkscape-font-specification:&quot;Arial Bold&quot;;fill:#fff;stroke-width:.352778;stroke-dasharray:none">Inspiration</tspan></text><path d="m1351.062 517.629-2.358-2.359v-2.098l.991-.992h4.101l2.358 2.359v2.098l-.991.992z" style="font-variation-settings:normal;vector-effect:none;fill:#000;fill-opacity:1;stroke:none;stroke-width:.352777;stroke-linecap:butt;stroke-linejoin:miter;stroke-miterlimit:4;stroke-dasharray:none;stroke-dashoffset:0;stroke-opacity:1;-inkscape-stroke:none;stop-color:#000" transform="translate(-1106.695 -459.817)"/><path d="m1351.433 515.901 1.993-1.993-.826-.825h-2.335l-.825.825zM1353.426 513.908l1.992 1.993-.825.826h-2.335l-.825-.826z" style="font-variation-settings:normal;fill:#fff;fill-opacity:1;stroke:#000;stroke-width:.352778;stroke-linecap:butt;stroke-linejoin:miter;stroke-miterlimit:4;stroke-dasharray:none;stroke-dashoffset:0;stroke-opacity:1;stop-color:#000" transform="translate(-1106.695 -459.817)"/><path d="m1360.103 517.629-2.358-2.359v-2.098l.991-.992h4.1l2.36 2.359v2.098l-.992.992z" style="font-variation-settings:normal;vector-effect:none;fill:#000;fill-opacity:1;stroke:none;stroke-width:.352777;stroke-linecap:butt;stroke-linejoin:miter;stroke-miterlimit:4;stroke-dasharray:none;stroke-dashoffset:0;stroke-opacity:1;-inkscape-stroke:none;stop-color:#000" transform="translate(-1106.695 -459.817)"/><path d="m1360.474 515.901 1.992-1.993-.825-.825h-2.335l-.826.825z" style="font-variation-settings:normal;fill:#fff;fill-opacity:1;stroke:#000;stroke-width:.352778;stroke-linecap:butt;stroke-linejoin:miter;stroke-miterlimit:4;stroke-dasharray:none;stroke-dashoffset:0;stroke-opacity:1;stop-color:#000" transform="translate(-1106.695 -459.817)"/><path d="m1362.466 513.908 1.993 1.993-.825.826h-2.335l-.826-.826z" style="font-variation-settings:normal;fill:#fff;fill-opacity:1;stroke:#000;stroke-width:.352778;stroke-linecap:butt;stroke-linejoin:miter;stroke-miterlimit:4;stroke-dasharray:none;stroke-dashoffset:0;stroke-opacity:1;stop-color:#000" transform="translate(-1106.695 -459.817)"/><path d="m1323.94 517.629-2.358-2.359v-2.098l.991-.992h4.1l2.36 2.359v2.098l-.992.992z" style="font-variation-settings:normal;vector-effect:none;fill:#000;fill-opacity:1;stroke:none;stroke-width:.352777;stroke-linecap:butt;stroke-linejoin:miter;stroke-miterlimit:4;stroke-dasharray:none;stroke-dashoffset:0;stroke-opacity:1;-inkscape-stroke:none;stop-color:#000" transform="translate(-1106.695 -459.817)"/><path d="m1324.31 515.901 1.994-1.993-.826-.825h-2.335l-.825.825zM1326.304 513.908l1.992 1.993-.825.826h-2.335l-.826-.826z" style="font-variation-settings:normal;fill:#fff;fill-opacity:1;stroke:#000;stroke-width:.352778;stroke-linecap:butt;stroke-linejoin:miter;stroke-miterlimit:4;stroke-dasharray:none;stroke-dashoffset:0;stroke-opacity:1;stop-color:#000" transform="translate(-1106.695 -459.817)"/><path d="m1332.98 517.629-2.358-2.359v-2.098l.992-.992h4.1l2.359 2.359v2.098l-.992.992z" style="font-variation-settings:normal;vector-effect:none;fill:#000;fill-opacity:1;stroke:none;stroke-width:.352777;stroke-linecap:butt;stroke-linejoin:miter;stroke-miterlimit:4;stroke-dasharray:none;stroke-dashoffset:0;stroke-opacity:1;-inkscape-stroke:none;stop-color:#000" transform="translate(-1106.695 -459.817)"/><path d="m1333.351 515.901 1.993-1.993-.825-.825h-2.335l-.826.825z" style="font-variation-settings:normal;fill:#fff;fill-opacity:1;stroke:#000;stroke-width:.352778;stroke-linecap:butt;stroke-linejoin:miter;stroke-miterlimit:4;stroke-dasharray:none;stroke-dashoffset:0;stroke-opacity:1;stop-color:#000" transform="translate(-1106.695 -459.817)"/><path d="m1335.344 513.908 1.993 1.993-.826.826h-2.334l-.826-.826z" style="font-variation-settings:normal;fill:#fff;fill-opacity:1;stroke:#000;stroke-width:.352778;stroke-linecap:butt;stroke-linejoin:miter;stroke-miterlimit:4;stroke-dasharray:none;stroke-dashoffset:0;stroke-opacity:1;stop-color:#000" transform="translate(-1106.695 -459.817)"/><path d="m1342.022 517.629-2.359-2.359v-2.098l.992-.992h4.1l2.359 2.359v2.098l-.992.992z" style="font-variation-settings:normal;vector-effect:none;fill:#000;fill-opacity:1;stroke:none;stroke-width:.352777;stroke-linecap:butt;stroke-linejoin:miter;stroke-miterlimit:4;stroke-dasharray:none;stroke-dashoffset:0;stroke-opacity:1;-inkscape-stroke:none;stop-color:#000" transform="translate(-1106.695 -459.817)"/><path d="m1342.392 515.901 1.993-1.993-.826-.825h-2.334l-.826.825z" style="font-variation-settings:normal;fill:#fff;fill-opacity:1;stroke:#000;stroke-width:.352778;stroke-linecap:butt;stroke-linejoin:miter;stroke-miterlimit:4;stroke-dasharray:none;stroke-dashoffset:0;stroke-opacity:1;stop-color:#000" transform="translate(-1106.695 -459.817)"/><path d="m1344.385 513.908 1.993 1.993-.826.825h-2.335l-.825-.825z" style="font-variation-settings:normal;fill:#fff;fill-opacity:1;stroke:#000;stroke-width:.352778;stroke-linecap:butt;stroke-linejoin:miter;stroke-miterlimit:4;stroke-dasharray:none;stroke-dashoffset:0;stroke-opacity:1;stop-color:#000" transform="translate(-1106.695 -459.817)"/><path d="m1319.879 524.84-1.86-1.86v-2.63l1.86-1.86h39.079l1.86 1.86v2.63l-1.86 1.86z" style="font-variation-settings:normal;fill:#000;fill-opacity:1;stroke:none;stroke-width:.352778;stroke-linecap:butt;stroke-linejoin:miter;stroke-miterlimit:4;stroke-dasharray:none;stroke-dashoffset:0;stroke-opacity:1;stop-color:#000" transform="translate(-1106.695 -459.817)"/><path d="M1367.17 518.49h-3.175l-1.587 1.587v3.175l3.175 1.588 3.175-1.588v-3.175z" style="font-variation-settings:normal;vector-effect:none;fill:none;fill-opacity:1;stroke:#000;stroke-width:.352777;stroke-linecap:butt;stroke-linejoin:miter;stroke-miterlimit:4;stroke-dasharray:none;stroke-dashoffset:0;stroke-opacity:1;-inkscape-stroke:none;stop-color:#000" transform="translate(-1106.695 -459.817)"/><text xml:space="preserve" x="1326.487" y="522.735" style="font-style:normal;font-variant:normal;font-weight:700;font-stretch:normal;font-size:4.23333px;line-height:1.25;font-family:Arial;-inkscape-font-specification:&quot;Arial Bold&quot;;white-space:pre;display:inline;fill:#fff;fill-opacity:1;stroke:none;stroke-width:.352778;stroke-dasharray:none" transform="translate(-1106.695 -459.817)"><tspan style="stroke-width:.352778;stroke-dasharray:none">Armour Type</tspan></text><path d="m1319.879 532.78-1.86-1.86v-2.63l1.86-1.86h39.079l1.86 1.86v2.63l-1.86 1.86z" style="font-variation-settings:normal;fill:#000;fill-opacity:1;stroke:none;stroke-width:.352778;stroke-linecap:butt;stroke-linejoin:miter;stroke-miterlimit:4;stroke-dasharray:none;stroke-dashoffset:0;stroke-opacity:1;stop-color:#000" transform="translate(-1106.695 -459.817)"/><text xml:space="preserve" x="1320.237" y="530.675" style="font-style:normal;font-variant:normal;font-weight:700;font-stretch:normal;font-size:4.23334px;line-height:1.25;font-family:Arial;-inkscape-font-specification:&quot;Arial Bold&quot;;white-space:pre;display:inline;fill:#fff;fill-opacity:1;stroke:none;stroke-width:.352778;stroke-dasharray:none" transform="translate(-1106.695 -459.817)"><tspan style="font-style:normal;font-variant:normal;font-weight:700;font-stretch:normal;font-family:Arial;-inkscape-font-specification:&quot;Arial Bold&quot;;fill:#fff;stroke-width:.352778;stroke-dasharray:none">Damage Reduction</tspan></text><path d="m1346.056 548.66-1.86-1.86v-2.63l1.86-1.86h20.867l1.86 1.86v2.63l-1.86 1.86z" style="font-variation-settings:normal;fill:#000;fill-opacity:1;stroke:none;stroke-width:.352778;stroke-linecap:butt;stroke-linejoin:miter;stroke-miterlimit:4;stroke-dasharray:none;stroke-dashoffset:0;stroke-opacity:1;stop-color:#000" transform="translate(-1106.695 -459.817)"/><text xml:space="preserve" x="1330.258" y="555.043" style="font-style:normal;font-variant:normal;font-weight:700;font-stretch:normal;font-size:4.29903px;line-height:1.25;font-family:Arial;-inkscape-font-specification:&quot;Arial Bold&quot;;white-space:pre;display:inline;fill:#fff;stroke:none;stroke-width:.352778;stroke-dasharray:none" transform="matrix(1.01553 0 0 .9847 -1106.695 -459.817)"><tspan style="stroke-width:.352778;stroke-dasharray:none">Vigor</tspan></text><path d="m1287.16 512.578-1.74-1.86v-2.63l1.74-1.86h19.51l1.738 1.86v2.63l-1.739 1.86z" style="font-variation-settings:normal;fill:#000;fill-opacity:1;stroke:none;stroke-width:.352778;stroke-linecap:butt;stroke-linejoin:miter;stroke-miterlimit:4;stroke-dasharray:none;stroke-dashoffset:0;stroke-opacity:1;stop-color:#000" transform="translate(-1106.695 -459.817)"/><text xml:space="preserve" x="1271.563" y="518.83" style="font-style:normal;font-variant:normal;font-weight:700;font-stretch:normal;font-size:4.29903px;line-height:1.25;font-family:Arial;-inkscape-font-specification:&quot;Arial Bold&quot;;white-space:pre;display:inline;fill:#fff;stroke:none;stroke-width:.352778;stroke-dasharray:none" transform="matrix(1.01553 0 0 .9847 -1106.695 -459.817)"><tspan style="stroke-width:.352778;stroke-dasharray:none">Level</tspan></text><path d="m1319.879 548.66-1.86-1.86v-2.63l1.86-1.86h20.867l1.86 1.86v2.63l-1.86 1.86z" style="font-variation-settings:normal;fill:#000;fill-opacity:1;stroke:none;stroke-width:.352778;stroke-linecap:butt;stroke-linejoin:miter;stroke-miterlimit:4;stroke-dasharray:none;stroke-dashoffset:0;stroke-opacity:1;stop-color:#000" transform="translate(-1106.695 -459.817)"/><text xml:space="preserve" x="1303.391" y="555.471" style="font-style:normal;font-variant:normal;font-weight:700;font-stretch:normal;font-size:4.29903px;line-height:1.25;font-family:Arial;-inkscape-font-specification:&quot;Arial Bold&quot;;white-space:pre;display:inline;fill:#fff;stroke:none;stroke-width:.352778;stroke-dasharray:none" transform="matrix(1.01553 0 0 .9847 -1106.695 -459.817)"><tspan style="stroke-width:.352778;stroke-dasharray:none">Health</tspan></text><path d="m1346.056 550.25-1.86 1.86v8.98l1.86 1.86h6.35l6.173-11.774-.927-.926zM1366.913 564.54l1.86-1.86v-8.98l-1.86-1.86h-6.35l-6.173 11.774.926.926zM1319.879 550.25l-1.86 1.86v8.98l1.86 1.86h6.35l6.173-11.774-.927-.926zM1340.736 564.54l1.86-1.86v-8.98l-1.86-1.86h-6.35l-6.173 11.774.926.926z" style="font-variation-settings:normal;fill:none;fill-opacity:1;stroke:#000;stroke-width:.352778;stroke-linecap:butt;stroke-linejoin:miter;stroke-miterlimit:4;stroke-dasharray:none;stroke-dashoffset:0;stroke-opacity:1;stop-color:#000" transform="translate(-1106.695 -459.817)"/><path d="m1319.879 540.72-1.86-1.86v-2.63l1.86-1.86h39.079l1.86 1.86v2.63l-1.86 1.86z" style="font-variation-settings:normal;fill:#000;fill-opacity:1;stroke:none;stroke-width:.352778;stroke-linecap:butt;stroke-linejoin:miter;stroke-miterlimit:4;stroke-dasharray:none;stroke-dashoffset:0;stroke-opacity:1;stop-color:#000" transform="translate(-1106.695 -459.817)"/><text xml:space="preserve" x="1321.995" y="538.668" style="font-style:normal;font-variant:normal;font-weight:700;font-stretch:normal;font-size:4.23334px;line-height:1.25;font-family:Arial;-inkscape-font-specification:&quot;Arial Bold&quot;;white-space:pre;display:inline;fill:#fff;fill-opacity:1;stroke:none;stroke-width:.352778;stroke-dasharray:none" transform="translate(-1106.695 -459.817)"><tspan style="font-style:normal;font-variant:normal;font-weight:700;font-stretch:normal;font-family:Arial;-inkscape-font-specification:&quot;Arial Bold&quot;;fill:#fff;stroke-width:.352778;stroke-dasharray:none">Movement Speed</tspan></text><path fill="none" d="m287.965 159.276-6.133 1.643-4.49-4.49 1.643-6.133 6.134-1.644 4.49 4.49z" style="fill:#fff;fill-opacity:0;stroke:#000;stroke-width:.656592;stroke-dasharray:none" transform="matrix(.55768 -.12941 .14943 .48296 77.67 39.656)"/><path d="M1365.583 532.78c-2.527-1.574-3.2-4.002-3.175-5.5 2.059-1.077 4.169-1.19 6.35 0 .025 1.498-.647 3.926-3.175 5.5z" style="font-variation-settings:normal;fill:none;fill-opacity:1;stroke:#000;stroke-width:.352778;stroke-linecap:butt;stroke-linejoin:miter;stroke-miterlimit:4;stroke-dasharray:none;stroke-dashoffset:0;stroke-opacity:1;stop-color:#000" transform="translate(-1106.695 -459.817)"/><path d="m1313.184 506.228-.93.93h-1.316v1.315l-.93.93.93.93v1.315h1.316l.93.93.93-.93h1.316v-1.315l.93-.93-.93-.93v-1.315h-1.316z" style="font-variation-settings:normal;fill:#fff;fill-opacity:1;stroke:#000;stroke-width:.352778;stroke-linecap:butt;stroke-linejoin:miter;stroke-miterlimit:4;stroke-dasharray:none;stroke-dashoffset:0;stroke-opacity:1;stop-color:#000" transform="translate(-1106.695 -459.817)"/><path d="M1247.86 514.219v48.618l1.818 1.75h64.844l1.817-1.75v-46.816l-1.817-1.802z" style="font-variation-settings:normal;fill:none;fill-opacity:1;stroke:#000;stroke-width:.352778;stroke-linecap:butt;stroke-linejoin:miter;stroke-miterlimit:4;stroke-dasharray:none;stroke-dashoffset:0;stroke-opacity:1;stop-color:#000" transform="translate(-1106.695 -459.817)"/><path d="m1249.72 506.279-1.86 1.86v6.08h35.97v-6.08l-1.86-1.86z" style="font-variation-settings:normal;vector-effect:none;fill:#000;fill-opacity:1;stroke:#000;stroke-width:.352777;stroke-linecap:butt;stroke-linejoin:miter;stroke-miterlimit:4;stroke-dasharray:none;stroke-dashoffset:0;stroke-opacity:1;-inkscape-stroke:none;stop-color:#000" transform="translate(-1106.695 -459.817)"/><text xml:space="preserve" x="1251.094" y="511.221" style="font-style:normal;font-variant:normal;font-weight:700;font-stretch:normal;font-size:3.52778px;line-height:1.25;font-family:Arial;-inkscape-font-specification:&quot;Arial Bold&quot;;white-space:pre;display:inline;fill:#fff;stroke:none;stroke-width:1.00013;stroke-dasharray:none" transform="matrix(1.00016 0 0 .99984 -1106.695 -459.817)"><tspan style="font-size:3.52778px;fill:#fff;stroke-width:1.00013;stroke-dasharray:none">Hello My Name Is</tspan></text><path d="m1125.409 506.243-1.836 1.86v6.065H1244.68v-6.065l-1.835-1.86h-103.999z" style="font-variation-settings:normal;vector-effect:none;fill:#000;fill-opacity:1;stroke:#000;stroke-width:.352777;stroke-linecap:butt;stroke-linejoin:miter;stroke-miterlimit:4;stroke-dasharray:none;stroke-dashoffset:0;stroke-opacity:1;-inkscape-stroke:none;stop-color:#000" transform="translate(-1106.695 -459.817)"/><text xml:space="preserve" x="1175.808" y="511.777" style="font-style:normal;font-variant:normal;font-weight:700;font-stretch:normal;font-size:4.234px;line-height:1.25;font-family:Arial;-inkscape-font-specification:&quot;Arial Bold&quot;;white-space:pre;display:inline;fill:#fff;stroke:none;stroke-width:1.00013;stroke-dasharray:none" transform="matrix(1.00016 0 0 .99984 -1106.695 -459.817)"><tspan style="fill:#fff;stroke-width:1.00013;stroke-dasharray:none">Abilities</tspan></text><path d="M1123.573 514.168v48.615l1.836 1.804h117.436l1.836-1.803v-48.616z" style="font-variation-settings:normal;vector-effect:none;fill:none;fill-opacity:1;stroke:#000;stroke-width:.352776;stroke-linecap:butt;stroke-linejoin:miter;stroke-miterlimit:4;stroke-dasharray:none;stroke-dashoffset:0;stroke-opacity:1;-inkscape-stroke:none;stop-color:#000" transform="translate(-1106.695 -459.817)"/><path d="m1129.315 482.94-1.226 1.226.639.639v2.62l-.64.638 1.227 1.227h23.28l1.226-1.227-.639-.638v-2.62l.64-.64-1.227-1.225h-11.64z" style="font-variation-settings:normal;fill:#000;fill-opacity:1;stroke:none;stroke-width:.352778;stroke-linecap:butt;stroke-linejoin:miter;stroke-miterlimit:4;stroke-dasharray:none;stroke-dashoffset:0;stroke-opacity:1;stop-color:#000" transform="translate(-1106.695 -459.817)"/><text xml:space="preserve" x="1131.39" y="487.184" style="font-style:normal;font-variant:normal;font-weight:700;font-stretch:normal;font-size:4.23333px;line-height:1.25;font-family:Arial;-inkscape-font-specification:&quot;Arial Bold&quot;;white-space:pre;display:inline;fill:#fff;fill-opacity:1;stroke:none;stroke-width:.352778;stroke-dasharray:none" transform="translate(-1106.695 -459.817)"><tspan style="stroke-width:.352778;stroke-dasharray:none">Physique </tspan></text><path d="m1171.49 482.94-1.226 1.226.639.639v2.62l-.64.638 1.227 1.227h23.28l1.226-1.227-.639-.638v-2.62l.64-.64-1.227-1.225h-11.64z" style="font-variation-settings:normal;fill:#000;fill-opacity:1;stroke:none;stroke-width:.352778;stroke-linecap:butt;stroke-linejoin:miter;stroke-miterlimit:4;stroke-dasharray:none;stroke-dashoffset:0;stroke-opacity:1;stop-color:#000" transform="translate(-1106.695 -459.817)"/><text xml:space="preserve" x="1173.063" y="487.212" style="font-style:normal;font-variant:normal;font-weight:700;font-stretch:normal;font-size:4.23333px;line-height:1.25;font-family:Arial;-inkscape-font-specification:&quot;Arial Bold&quot;;white-space:pre;display:inline;fill:#fff;fill-opacity:1;stroke:none;stroke-width:.352778;stroke-dasharray:none" transform="translate(-1106.695 -459.817)"><tspan style="stroke-width:.352778;stroke-dasharray:none">Discipline</tspan></text><path d="m1213.665 482.94-1.226 1.226.639.638v2.62l-.64.64 1.227 1.225h23.28l1.226-1.226-.639-.639v-2.62l.64-.638-1.227-1.227h-11.64z" style="font-variation-settings:normal;fill:#000;fill-opacity:1;stroke:none;stroke-width:.352778;stroke-linecap:butt;stroke-linejoin:miter;stroke-miterlimit:4;stroke-dasharray:none;stroke-dashoffset:0;stroke-opacity:1;stop-color:#000" transform="translate(-1106.695 -459.817)"/><text xml:space="preserve" x="1214.763" y="487.604" style="font-style:normal;font-variant:normal;font-weight:700;font-stretch:normal;font-size:4.23333px;line-height:1.25;font-family:Arial;-inkscape-font-specification:&quot;Arial Bold&quot;;white-space:pre;display:inline;fill:#fff;fill-opacity:1;stroke:none;stroke-width:.352778;stroke-dasharray:none" transform="translate(-1106.695 -459.817)"><tspan style="stroke-width:.352778;stroke-dasharray:none">Resilience</tspan></text><path d="m1233.676 497.044-1.993-1.993-.826.826v2.335l.826.825zM1238.084 497.044l-1.993-1.993-.825.826v2.334l.825.826zM1231.47 503.209v-2.819h-1.168l-1.651 1.651v1.168zM1219.14 503.209v-2.819h1.168l1.65 1.651v1.168zM1231.47 490.88h-2.82v1.167l1.652 1.651h1.167zM1219.14 490.88v2.818h1.168l1.65-1.651v-1.167zM1216.934 497.044l1.993-1.993.825.826v2.335l-.825.825zM1212.525 497.044l1.993-1.993.826.826v2.334l-.826.826zM1214.732 503.209h2.818v-1.168l-1.651-1.65h-1.167zM1214.732 490.88h2.818v1.167l-1.651 1.651h-1.168zM1235.878 503.209h-2.819v-1.168l1.651-1.65h1.168zM1235.878 490.88h-2.819v1.167l1.652 1.651h1.167z" style="font-variation-settings:normal;fill:none;fill-opacity:1;stroke:#000;stroke-width:.352778;stroke-linecap:butt;stroke-linejoin:miter;stroke-miterlimit:4;stroke-dasharray:none;stroke-dashoffset:0;stroke-opacity:1;stop-color:#000" transform="translate(-1106.695 -459.817)"/><path d="m1255.84 482.94-1.226 1.226.639.638v2.62l-.64.64 1.226 1.225h23.28l1.227-1.226-.639-.639v-2.62l.639-.638-1.226-1.227h-11.64z" style="font-variation-settings:normal;fill:#000;fill-opacity:1;stroke:none;stroke-width:.352778;stroke-linecap:butt;stroke-linejoin:miter;stroke-miterlimit:4;stroke-dasharray:none;stroke-dashoffset:0;stroke-opacity:1;stop-color:#000" transform="translate(-1106.695 -459.817)"/><text xml:space="preserve" x="1257.88" y="487.604" style="font-style:normal;font-variant:normal;font-weight:700;font-stretch:normal;font-size:4.23333px;line-height:1.25;font-family:Arial;-inkscape-font-specification:&quot;Arial Bold&quot;;white-space:pre;display:inline;fill:#fff;fill-opacity:1;stroke:none;stroke-width:.352778;stroke-dasharray:none" transform="translate(-1106.695 -459.817)"><tspan style="stroke-width:.352778;stroke-dasharray:none">Brilliance</tspan></text><path d="m1275.85 497.044-1.993-1.993-.825.826v2.335l.826.825zM1280.259 497.044l-1.993-1.993-.825.826v2.334l.825.826zM1273.644 503.209v-2.819h-1.167l-1.651 1.651v1.168zM1261.315 503.209v-2.819h1.168l1.65 1.651v1.168zM1273.644 490.88h-2.818v1.167l1.65 1.651h1.168zM1261.315 490.88v2.818h1.168l1.65-1.651v-1.167zM1259.109 497.044l1.993-1.993.825.826v2.335l-.825.825zM1254.7 497.044l1.993-1.993.826.826v2.334l-.826.826zM1256.907 503.209h2.818v-1.168l-1.651-1.65h-1.168zM1256.907 490.88h2.818v1.167l-1.651 1.651h-1.168zM1278.053 503.209h-2.819v-1.168l1.651-1.65h1.168zM1278.053 490.88h-2.819v1.167l1.651 1.651h1.168z" style="font-variation-settings:normal;fill:none;fill-opacity:1;stroke:#000;stroke-width:.352778;stroke-linecap:butt;stroke-linejoin:miter;stroke-miterlimit:4;stroke-dasharray:none;stroke-dashoffset:0;stroke-opacity:1;stop-color:#000" transform="translate(-1106.695 -459.817)"/><path d="m1298.014 482.94-1.225 1.226.639.638v2.62l-.64.64 1.226 1.225h23.28l1.227-1.226-.639-.639v-2.62l.639-.638-1.226-1.227h-11.64z" style="font-variation-settings:normal;fill:#000;fill-opacity:1;stroke:none;stroke-width:.352778;stroke-linecap:butt;stroke-linejoin:miter;stroke-miterlimit:4;stroke-dasharray:none;stroke-dashoffset:0;stroke-opacity:1;stop-color:#000" transform="translate(-1106.695 -459.817)"/><text xml:space="preserve" x="1298.361" y="487.629" style="font-style:normal;font-variant:normal;font-weight:700;font-stretch:normal;font-size:4.23333px;line-height:1.25;font-family:Arial;-inkscape-font-specification:&quot;Arial Bold&quot;;white-space:pre;display:inline;fill:#fff;fill-opacity:1;stroke:none;stroke-width:.352778;stroke-dasharray:none" transform="translate(-1106.695 -459.817)"><tspan style="stroke-width:.352778;stroke-dasharray:none">Cleverness</tspan></text><path d="m1318.025 497.044-1.993-1.993-.825.826v2.335l.826.825zM1322.434 497.044l-1.993-1.993-.826.826v2.334l.826.826zM1315.82 503.209v-2.819h-1.168l-1.651 1.651v1.168zM1303.49 503.209v-2.819h1.168l1.65 1.651v1.168zM1315.819 490.88h-2.818v1.167l1.65 1.651h1.168zM1303.49 490.88v2.818h1.168l1.65-1.651v-1.167zM1301.284 497.044l1.993-1.993.825.826v2.335l-.825.825zM1296.875 497.044l1.993-1.993.826.826v2.334l-.826.826zM1299.082 503.209h2.818v-1.168l-1.651-1.65h-1.168zM1299.082 490.88h2.818v1.167l-1.651 1.651h-1.168zM1320.228 503.209h-2.819v-1.168l1.651-1.65h1.168zM1320.228 490.88h-2.819v1.167l1.651 1.651h1.168z" style="font-variation-settings:normal;fill:none;fill-opacity:1;stroke:#000;stroke-width:.352778;stroke-linecap:butt;stroke-linejoin:miter;stroke-miterlimit:4;stroke-dasharray:none;stroke-dashoffset:0;stroke-opacity:1;stop-color:#000" transform="translate(-1106.695 -459.817)"/><path d="m1340.19 482.94-1.226 1.226.639.638v2.62l-.64.64 1.227 1.225h23.28l1.226-1.226-.639-.639v-2.62l.64-.638-1.227-1.227h-11.64z" style="font-variation-settings:normal;fill:#000;fill-opacity:1;stroke:none;stroke-width:.352778;stroke-linecap:butt;stroke-linejoin:miter;stroke-miterlimit:4;stroke-dasharray:none;stroke-dashoffset:0;stroke-opacity:1;stop-color:#000" transform="translate(-1106.695 -459.817)"/><text xml:space="preserve" x="1342.346" y="487.604" style="font-style:normal;font-variant:normal;font-weight:700;font-stretch:normal;font-size:4.23333px;line-height:1.25;font-family:Arial;-inkscape-font-specification:&quot;Arial Bold&quot;;white-space:pre;display:inline;fill:#fff;fill-opacity:1;stroke:none;stroke-width:.352778;stroke-dasharray:none" transform="translate(-1106.695 -459.817)"><tspan style="stroke-width:.352778;stroke-dasharray:none">Presence</tspan></text><path d="m1191.5 497.044-1.992-1.993-.826.826v2.335l.826.825zM1195.909 497.044l-1.993-1.993-.825.826v2.334l.825.826zM1189.294 503.209v-2.819h-1.167l-1.651 1.651v1.168zM1176.965 503.209v-2.819h1.168l1.65 1.651v1.168zM1189.294 490.88h-2.818v1.167l1.65 1.651h1.168zM1176.965 490.88v2.818h1.168l1.65-1.65v-1.168zM1174.759 497.044l1.993-1.993.825.826v2.335l-.825.825zM1170.35 497.044l1.994-1.993.825.826v2.334l-.826.826zM1172.557 503.209h2.818v-1.168l-1.651-1.65h-1.167zM1172.557 490.88h2.818v1.167l-1.651 1.651h-1.167zM1193.703 503.209h-2.819v-1.168l1.652-1.65h1.167zM1193.703 490.88h-2.819v1.167l1.652 1.651h1.167z" style="font-variation-settings:normal;fill:none;fill-opacity:1;stroke:#000;stroke-width:.352778;stroke-linecap:butt;stroke-linejoin:miter;stroke-miterlimit:4;stroke-dasharray:none;stroke-dashoffset:0;stroke-opacity:1;stop-color:#000" transform="translate(-1106.695 -459.817)"/><path d="m1181.063 500.97.752-.75h2.63l.752.75 1.86-1.86-.752-.75v-2.63l.751-.753-1.86-1.86-.751.752h-2.63l-.752-.751-1.86 1.86.752.751v2.63l-.752.752zM1223.238 500.97l.752-.75h2.63l.751.75 1.86-1.86-.751-.75v-2.631l.751-.752-1.86-1.86-.751.752h-2.63l-.752-.752-1.86 1.86.752.752v2.63l-.752.752zM1265.413 500.97l.752-.75h2.63l.751.75 1.86-1.86-.751-.75v-2.631l.751-.752-1.86-1.86-.751.752h-2.63l-.752-.752-1.86 1.86.752.752v2.63l-.752.752zM1307.588 500.97l.752-.75h2.63l.751.75 1.86-1.86-.751-.75v-2.631l.751-.752-1.86-1.86-.751.752h-2.63l-.752-.752-1.86 1.86.752.752v2.63l-.752.752z" style="font-variation-settings:normal;vector-effect:none;fill:none;fill-opacity:1;stroke:#000;stroke-width:.352777;stroke-linecap:butt;stroke-linejoin:miter;stroke-miterlimit:4;stroke-dasharray:none;stroke-dashoffset:0;stroke-opacity:1;-inkscape-stroke:none;stop-color:#000" transform="translate(-1106.695 -459.817)"/><path d="m1360.2 497.044-1.993-1.993-.825.826v2.335l.826.825zM1364.609 497.044l-1.993-1.993-.825.826v2.334l.825.826zM1357.994 503.209v-2.819h-1.167l-1.651 1.651v1.168zM1345.665 503.209v-2.819h1.168l1.65 1.651v1.168zM1357.994 490.88h-2.818v1.167l1.65 1.651h1.168zM1345.665 490.88v2.818h1.168l1.65-1.651v-1.167zM1343.459 497.044l1.993-1.993.825.826v2.335l-.825.825zM1339.05 497.044l1.993-1.993.826.826v2.334l-.826.826zM1341.257 503.209h2.818v-1.168l-1.651-1.65h-1.168zM1341.257 490.88h2.818v1.167l-1.651 1.651h-1.168zM1362.403 503.209h-2.819v-1.168l1.651-1.65h1.168zM1362.403 490.88h-2.819v1.167l1.651 1.651h1.168z" style="font-variation-settings:normal;fill:none;fill-opacity:1;stroke:#000;stroke-width:.352778;stroke-linecap:butt;stroke-linejoin:miter;stroke-miterlimit:4;stroke-dasharray:none;stroke-dashoffset:0;stroke-opacity:1;stop-color:#000" transform="translate(-1106.695 -459.817)"/><path d="m1349.763 500.97.752-.75h2.63l.751.75 1.86-1.86-.751-.75v-2.631l.751-.752-1.86-1.86-.751.752h-2.63l-.752-.752-1.86 1.86.752.752v2.63l-.752.752z" style="font-variation-settings:normal;vector-effect:none;fill:none;fill-opacity:1;stroke:#000;stroke-width:.352777;stroke-linecap:butt;stroke-linejoin:miter;stroke-miterlimit:4;stroke-dasharray:none;stroke-dashoffset:0;stroke-opacity:1;-inkscape-stroke:none;stop-color:#000" transform="translate(-1106.695 -459.817)"/><path d="m1149.326 497.044-1.994-1.993-.825.826v2.335l.826.825zM1153.734 497.044l-1.993-1.993-.825.826v2.334l.825.826zM1147.12 503.209v-2.819h-1.168l-1.651 1.651v1.168zM1134.79 503.209v-2.819h1.168l1.65 1.651v1.168zM1147.12 490.88h-2.82v1.167l1.652 1.651h1.167zM1134.79 490.88v2.818h1.168l1.65-1.65v-1.168zM1132.584 497.044l1.993-1.993.825.826v2.335l-.825.825zM1128.175 497.044l1.994-1.993.825.826v2.334l-.826.826zM1130.382 503.209h2.818v-1.168l-1.651-1.65h-1.167zM1130.382 490.88h2.818v1.167l-1.651 1.651h-1.167zM1151.528 503.209h-2.819v-1.168l1.652-1.65h1.167zM1151.528 490.88h-2.819v1.167l1.652 1.651h1.167z" style="font-variation-settings:normal;fill:none;fill-opacity:1;stroke:#000;stroke-width:.352778;stroke-linecap:butt;stroke-linejoin:miter;stroke-miterlimit:4;stroke-dasharray:none;stroke-dashoffset:0;stroke-opacity:1;stop-color:#000" transform="translate(-1106.695 -459.817)"/><path d="m1138.888 500.97.752-.75h2.63l.752.75 1.86-1.86-.752-.75v-2.63l.751-.753-1.86-1.86-.751.752h-2.63l-.752-.751-1.86 1.86.752.751v2.63l-.752.752z" style="font-variation-settings:normal;vector-effect:none;fill:none;fill-opacity:1;stroke:#000;stroke-width:.352777;stroke-linecap:butt;stroke-linejoin:miter;stroke-miterlimit:4;stroke-dasharray:none;stroke-dashoffset:0;stroke-opacity:1;-inkscape-stroke:none;stop-color:#000" transform="translate(-1106.695 -459.817)"/><path d="M299.46 107.552h252M362.46 195.552v-88" style="font-variation-settings:normal;opacity:1;vector-effect:none;fill:none;fill-opacity:1;stroke:#fff;stroke-width:.352777;stroke-linecap:butt;stroke-linejoin:miter;stroke-miterlimit:4;stroke-dasharray:.705554,.352777;stroke-dashoffset:0;stroke-opacity:1;-inkscape-stroke:none;stop-color:#000;stop-opacity:1" transform="translate(-285.76 .398)"/><path d="M425.46 195.552v-88M488.46 195.552v-88" style="font-variation-settings:normal;vector-effect:none;fill:none;fill-opacity:1;stroke:#fff;stroke-width:.352777;stroke-linecap:butt;stroke-linejoin:miter;stroke-miterlimit:4;stroke-dasharray:.705554,.352777;stroke-dashoffset:0;stroke-opacity:1;-inkscape-stroke:none;stop-color:#000" transform="translate(-285.76 .398)"/></svg>