<svg xmlns="http://www.w3.org/2000/svg" xml:space="preserve" width="11in" height="816" viewBox="0 0 279.4 215.9"><defs><path id="a" d="M24 24h336v24H24Z"/></defs><path d="M279.4 0v215.9H0V0Z" style="font-variation-settings:normal;display:inline;fill:#fff;fill-opacity:1;fill-rule:evenodd;stroke:none;stroke-width:.705556;stroke-linecap:butt;stroke-linejoin:miter;stroke-miterlimit:4;stroke-dasharray:none;stroke-dashoffset:0;stroke-opacity:1;stop-color:#000"/><path d="m245.06 6.35-1.226 1.226.639.639v2.62l-.64.639 1.227 1.226h23.28l1.226-1.226-.638-.639v-2.62l.638-.639-1.226-1.226H256.7z" style="font-variation-settings:normal;fill:#000;fill-opacity:1;stroke:#000;stroke-width:.352778;stroke-linecap:butt;stroke-linejoin:miter;stroke-miterlimit:4;stroke-dasharray:none;stroke-dashoffset:0;stroke-opacity:1;stop-color:#000"/><text xml:space="preserve" x="245.879" y="10.623" style="font-style:normal;font-variant:normal;font-weight:700;font-stretch:normal;font-size:4.23333px;line-height:1.25;font-family:Arial;-inkscape-font-specification:&quot;Arial Bold&quot;;white-space:pre;display:inline;fill:#fff;fill-opacity:1;stroke:none;stroke-width:.352778;stroke-dasharray:none"><tspan style="stroke-width:.352778;stroke-dasharray:none">Inspiration</tspan></text><path d="M11.06 6.35 9.834 7.576l.639.639v2.62l-.64.639L11.06 12.7h23.28l1.226-1.226-.638-.639v-2.62l.638-.639L34.34 6.35H22.7Z" style="font-variation-settings:normal;fill:#000;fill-opacity:1;stroke:#000;stroke-width:.352778;stroke-linecap:butt;stroke-linejoin:miter;stroke-miterlimit:4;stroke-dasharray:none;stroke-dashoffset:0;stroke-opacity:1;stop-color:#000"/><text xml:space="preserve" x="13.135" y="10.595" style="font-style:normal;font-variant:normal;font-weight:700;font-stretch:normal;font-size:4.23333px;line-height:1.25;font-family:Arial;-inkscape-font-specification:&quot;Arial Bold&quot;;white-space:pre;display:inline;fill:#fff;fill-opacity:1;stroke:none;stroke-width:.352778;stroke-dasharray:none"><tspan style="stroke-width:.352778;stroke-dasharray:none">Physique </tspan></text><path d="m50.052 6.35-1.226 1.226.639.639v2.62l-.64.639 1.227 1.226h23.28l1.226-1.226-.638-.639v-2.62l.638-.639-1.226-1.226h-11.64Z" style="font-variation-settings:normal;fill:#000;fill-opacity:1;stroke:#000;stroke-width:.352778;stroke-linecap:butt;stroke-linejoin:miter;stroke-miterlimit:4;stroke-dasharray:none;stroke-dashoffset:0;stroke-opacity:1;stop-color:#000"/><text xml:space="preserve" x="51.625" y="10.623" style="font-style:normal;font-variant:normal;font-weight:700;font-stretch:normal;font-size:4.23333px;line-height:1.25;font-family:Arial;-inkscape-font-specification:&quot;Arial Bold&quot;;white-space:pre;display:inline;fill:#fff;fill-opacity:1;stroke:none;stroke-width:.352778;stroke-dasharray:none"><tspan style="stroke-width:.352778;stroke-dasharray:none">Discipline</tspan></text><path d="m89.052 6.35-1.226 1.226.639.639v2.62l-.64.639 1.227 1.226h23.28l1.226-1.226-.638-.639v-2.62l.638-.639-1.226-1.226h-11.64z" style="font-variation-settings:normal;fill:#000;fill-opacity:1;stroke:#000;stroke-width:.352778;stroke-linecap:butt;stroke-linejoin:miter;stroke-miterlimit:4;stroke-dasharray:none;stroke-dashoffset:0;stroke-opacity:1;stop-color:#000"/><text xml:space="preserve" x="90.15" y="11.015" style="font-style:normal;font-variant:normal;font-weight:700;font-stretch:normal;font-size:4.23333px;line-height:1.25;font-family:Arial;-inkscape-font-specification:&quot;Arial Bold&quot;;white-space:pre;display:inline;fill:#fff;fill-opacity:1;stroke:none;stroke-width:.352778;stroke-dasharray:none"><tspan style="stroke-width:.352778;stroke-dasharray:none">Resilience</tspan></text><path d="m109.063 20.455-1.993-1.993-.826.825v2.335l.826.826zM113.471 20.454l-1.993-1.992-.825.825v2.335l.826.825zM106.857 26.62V23.8h-1.168l-1.65 1.652v1.167zM94.527 26.62V23.8h1.168l1.65 1.652v1.167zM106.856 14.29h-2.818v1.168l1.651 1.65h1.168zM94.527 14.29v2.819h1.168l1.65-1.651V14.29zM92.321 20.455l1.993-1.993.826.825v2.335l-.826.826zM87.913 20.454l1.993-1.992.825.825v2.335l-.826.825zM90.119 26.62h2.818v-1.168l-1.65-1.651h-1.168zM90.119 14.29h2.818v1.168l-1.65 1.65h-1.168zM111.265 26.62h-2.818v-1.168l1.65-1.651h1.168zM111.265 14.29h-2.818v1.168l1.65 1.65h1.168z" style="font-variation-settings:normal;fill:none;fill-opacity:1;stroke:#000;stroke-width:.352778;stroke-linecap:butt;stroke-linejoin:miter;stroke-miterlimit:4;stroke-dasharray:none;stroke-dashoffset:0;stroke-opacity:1;stop-color:#000"/><path d="m128.052 6.35-1.226 1.226.639.639v2.62l-.64.639 1.227 1.226h23.28l1.226-1.226-.638-.639v-2.62l.638-.639-1.226-1.226h-11.64z" style="font-variation-settings:normal;fill:#000;fill-opacity:1;stroke:#000;stroke-width:.352778;stroke-linecap:butt;stroke-linejoin:miter;stroke-miterlimit:4;stroke-dasharray:none;stroke-dashoffset:0;stroke-opacity:1;stop-color:#000"/><text xml:space="preserve" x="130.092" y="11.015" style="font-style:normal;font-variant:normal;font-weight:700;font-stretch:normal;font-size:4.23333px;line-height:1.25;font-family:Arial;-inkscape-font-specification:&quot;Arial Bold&quot;;white-space:pre;display:inline;fill:#fff;fill-opacity:1;stroke:none;stroke-width:.352778;stroke-dasharray:none"><tspan style="stroke-width:.352778;stroke-dasharray:none">Brilliance</tspan></text><path d="m148.063 20.455-1.993-1.993-.826.825v2.335l.826.826zM152.471 20.454l-1.993-1.992-.825.825v2.335l.826.825zM145.857 26.62V23.8h-1.168l-1.65 1.652v1.167zM133.527 26.62V23.8h1.168l1.65 1.652v1.167zM145.856 14.29h-2.818v1.168l1.651 1.65h1.168zM133.527 14.29v2.819h1.168l1.65-1.651V14.29zM131.321 20.455l1.993-1.993.826.825v2.335l-.826.826zM126.913 20.454l1.993-1.992.825.825v2.335l-.826.825zM129.119 26.62h2.818v-1.168l-1.65-1.651h-1.168zM129.119 14.29h2.818v1.168l-1.65 1.65h-1.168zM150.265 26.62h-2.818v-1.168l1.65-1.651h1.168zM150.265 14.29h-2.818v1.168l1.65 1.65h1.168z" style="font-variation-settings:normal;fill:none;fill-opacity:1;stroke:#000;stroke-width:.352778;stroke-linecap:butt;stroke-linejoin:miter;stroke-miterlimit:4;stroke-dasharray:none;stroke-dashoffset:0;stroke-opacity:1;stop-color:#000"/><path d="m167.052 6.35-1.226 1.226.639.639v2.62l-.64.639 1.227 1.226h23.28l1.226-1.226-.638-.639v-2.62l.638-.639-1.226-1.226h-11.64z" style="font-variation-settings:normal;fill:#000;fill-opacity:1;stroke:#000;stroke-width:.352778;stroke-linecap:butt;stroke-linejoin:miter;stroke-miterlimit:4;stroke-dasharray:none;stroke-dashoffset:0;stroke-opacity:1;stop-color:#000"/><text xml:space="preserve" x="167.398" y="11.04" style="font-style:normal;font-variant:normal;font-weight:700;font-stretch:normal;font-size:4.23333px;line-height:1.25;font-family:Arial;-inkscape-font-specification:&quot;Arial Bold&quot;;white-space:pre;display:inline;fill:#fff;fill-opacity:1;stroke:none;stroke-width:.352778;stroke-dasharray:none"><tspan style="stroke-width:.352778;stroke-dasharray:none">Cleverness</tspan></text><path d="m187.063 20.455-1.993-1.993-.826.825v2.335l.826.826zM191.471 20.454l-1.993-1.992-.825.825v2.335l.826.825zM184.857 26.62V23.8h-1.168l-1.65 1.652v1.167zM172.527 26.62V23.8h1.168l1.65 1.652v1.167zM184.856 14.29h-2.818v1.168l1.651 1.65h1.168zM172.527 14.29v2.819h1.168l1.65-1.651V14.29zM170.321 20.455l1.993-1.993.826.825v2.335l-.826.826zM165.913 20.454l1.993-1.992.825.825v2.335l-.826.825zM168.119 26.62h2.818v-1.168l-1.65-1.651h-1.168zM168.119 14.29h2.818v1.168l-1.65 1.65h-1.168zM189.265 26.62h-2.818v-1.168l1.65-1.651h1.168zM189.265 14.29h-2.818v1.168l1.65 1.65h1.168z" style="font-variation-settings:normal;fill:none;fill-opacity:1;stroke:#000;stroke-width:.352778;stroke-linecap:butt;stroke-linejoin:miter;stroke-miterlimit:4;stroke-dasharray:none;stroke-dashoffset:0;stroke-opacity:1;stop-color:#000"/><path d="m206.052 6.35-1.226 1.226.639.639v2.62l-.64.639 1.227 1.226h23.28l1.226-1.226-.638-.639v-2.62l.638-.639-1.226-1.226h-11.64z" style="font-variation-settings:normal;fill:#000;fill-opacity:1;stroke:#000;stroke-width:.352778;stroke-linecap:butt;stroke-linejoin:miter;stroke-miterlimit:4;stroke-dasharray:none;stroke-dashoffset:0;stroke-opacity:1;stop-color:#000"/><text xml:space="preserve" x="208.208" y="11.015" style="font-style:normal;font-variant:normal;font-weight:700;font-stretch:normal;font-size:4.23333px;line-height:1.25;font-family:Arial;-inkscape-font-specification:&quot;Arial Bold&quot;;white-space:pre;display:inline;fill:#fff;fill-opacity:1;stroke:none;stroke-width:.352778;stroke-dasharray:none"><tspan style="stroke-width:.352778;stroke-dasharray:none">Presence</tspan></text><path d="m70.063 20.455-1.993-1.993-.826.825v2.335l.826.826zM74.471 20.454l-1.993-1.992-.825.825v2.335l.826.825zM67.857 26.62V23.8h-1.168l-1.65 1.652v1.167zM55.527 26.62V23.8h1.168l1.65 1.652v1.167zM67.856 14.29h-2.818v1.168l1.651 1.65h1.168zM55.527 14.29v2.819h1.168l1.65-1.651V14.29zM53.321 20.455l1.993-1.993.826.825v2.335l-.826.826zM48.913 20.454l1.993-1.992.825.825v2.335l-.826.825zM51.119 26.62h2.818v-1.168l-1.65-1.651h-1.168zM51.119 14.29h2.818v1.168l-1.65 1.65h-1.168zM72.265 26.62h-2.818v-1.168l1.65-1.651h1.168zM72.265 14.29h-2.818v1.168l1.65 1.65h1.168z" style="font-variation-settings:normal;fill:none;fill-opacity:1;stroke:#000;stroke-width:.352778;stroke-linecap:butt;stroke-linejoin:miter;stroke-miterlimit:4;stroke-dasharray:none;stroke-dashoffset:0;stroke-opacity:1;stop-color:#000"/><path d="m59.625 24.381.752-.751h2.63l.752.751 1.86-1.86-.752-.751v-2.63l.752-.752-1.86-1.86-.752.752h-2.63l-.752-.752-1.86 1.86.752.751v2.63l-.752.753zM98.625 24.381l.752-.751h2.63l.752.751 1.86-1.86-.752-.751v-2.63l.752-.752-1.86-1.86-.752.752h-2.63l-.752-.752-1.86 1.86.752.751v2.63l-.752.753zM137.625 24.381l.752-.751h2.63l.752.751 1.86-1.86-.752-.751v-2.63l.752-.752-1.86-1.86-.752.752h-2.63l-.752-.752-1.86 1.86.752.751v2.63l-.752.753zM176.625 24.381l.752-.751h2.63l.752.751 1.86-1.86-.752-.751v-2.63l.752-.752-1.86-1.86-.752.752h-2.63l-.752-.752-1.86 1.86.752.751v2.63l-.752.753z" style="font-variation-settings:normal;vector-effect:none;fill:none;fill-opacity:1;stroke:#000;stroke-width:.352777;stroke-linecap:butt;stroke-linejoin:miter;stroke-miterlimit:4;stroke-dasharray:none;stroke-dashoffset:0;stroke-opacity:1;-inkscape-stroke:none;stop-color:#000"/><path d="m226.063 20.455-1.993-1.993-.826.825v2.335l.826.826zM230.471 20.454l-1.993-1.992-.825.825v2.335l.826.825zM223.857 26.62V23.8h-1.168l-1.65 1.652v1.167zM211.527 26.62V23.8h1.168l1.65 1.652v1.167zM223.856 14.29h-2.818v1.168l1.651 1.65h1.168zM211.527 14.29v2.819h1.168l1.65-1.651V14.29zM209.321 20.455l1.993-1.993.826.825v2.335l-.826.826zM204.913 20.454l1.993-1.992.825.825v2.335l-.826.825zM207.119 26.62h2.818v-1.168l-1.65-1.651h-1.168zM207.119 14.29h2.818v1.168l-1.65 1.65h-1.168zM228.265 26.62h-2.818v-1.168l1.65-1.651h1.168zM228.265 14.29h-2.818v1.168l1.65 1.65h1.168z" style="font-variation-settings:normal;fill:none;fill-opacity:1;stroke:#000;stroke-width:.352778;stroke-linecap:butt;stroke-linejoin:miter;stroke-miterlimit:4;stroke-dasharray:none;stroke-dashoffset:0;stroke-opacity:1;stop-color:#000"/><path d="m215.625 24.381.752-.751h2.63l.752.751 1.86-1.86-.752-.751v-2.63l.752-.752-1.86-1.86-.752.752h-2.63l-.752-.752-1.86 1.86.752.751v2.63l-.752.753z" style="font-variation-settings:normal;vector-effect:none;fill:none;fill-opacity:1;stroke:#000;stroke-width:.352777;stroke-linecap:butt;stroke-linejoin:miter;stroke-miterlimit:4;stroke-dasharray:none;stroke-dashoffset:0;stroke-opacity:1;-inkscape-stroke:none;stop-color:#000"/><path d="m31.07 20.455-1.992-1.993-.826.825v2.335l.826.826zM35.48 20.454l-1.994-1.992-.825.825v2.335l.826.825zM28.865 26.62V23.8h-1.168l-1.65 1.652v1.167zM16.535 26.62V23.8h1.168l1.65 1.652v1.167zM28.864 14.29h-2.818v1.168l1.651 1.65h1.168zM16.535 14.29v2.819h1.168l1.65-1.651V14.29zM14.33 20.455l1.992-1.993.826.825v2.335l-.826.826zM9.92 20.454l1.994-1.992.825.825v2.335l-.826.825zM12.127 26.62h2.818v-1.168l-1.65-1.651h-1.168zM12.127 14.29h2.818v1.168l-1.65 1.65h-1.168zM33.273 26.62h-2.818v-1.168l1.65-1.651h1.168zM33.273 14.29h-2.818v1.168l1.65 1.65h1.168z" style="font-variation-settings:normal;fill:none;fill-opacity:1;stroke:#000;stroke-width:.352778;stroke-linecap:butt;stroke-linejoin:miter;stroke-miterlimit:4;stroke-dasharray:none;stroke-dashoffset:0;stroke-opacity:1;stop-color:#000"/><path d="m20.633 24.381.752-.751h2.63l.752.751 1.86-1.86-.752-.751v-2.63l.752-.752-1.86-1.86-.752.752h-2.63l-.752-.752-1.86 1.86.752.751v2.63l-.752.753z" style="font-variation-settings:normal;vector-effect:none;fill:none;fill-opacity:1;stroke:#000;stroke-width:.352777;stroke-linecap:butt;stroke-linejoin:miter;stroke-miterlimit:4;stroke-dasharray:none;stroke-dashoffset:0;stroke-opacity:1;-inkscape-stroke:none;stop-color:#000"/><path d="m246.292 19.738-2.358-2.358v-2.098l.992-.992h4.1l2.359 2.359v2.098l-.992.991z" style="font-variation-settings:normal;vector-effect:none;fill:#000;fill-opacity:1;stroke:#000;stroke-width:.352777;stroke-linecap:butt;stroke-linejoin:miter;stroke-miterlimit:4;stroke-dasharray:none;stroke-dashoffset:0;stroke-opacity:1;-inkscape-stroke:none;stop-color:#000"/><path d="m246.663 18.01 1.993-1.992-.826-.826h-2.335l-.825.826zM248.656 16.018l1.993 1.993-.826.825h-2.335l-.825-.825z" style="font-variation-settings:normal;fill:#fff;fill-opacity:1;stroke:#000;stroke-width:.352778;stroke-linecap:butt;stroke-linejoin:miter;stroke-miterlimit:4;stroke-dasharray:none;stroke-dashoffset:0;stroke-opacity:1;stop-color:#000"/><path d="m255.333 19.738-2.358-2.358v-2.098l.991-.992h4.1l2.36 2.359v2.098l-.992.991z" style="font-variation-settings:normal;vector-effect:none;fill:#000;fill-opacity:1;stroke:#000;stroke-width:.352777;stroke-linecap:butt;stroke-linejoin:miter;stroke-miterlimit:4;stroke-dasharray:none;stroke-dashoffset:0;stroke-opacity:1;-inkscape-stroke:none;stop-color:#000"/><path d="m255.704 18.01 1.993-1.992-.826-.826h-2.335l-.825.826zM257.697 16.018l1.992 1.993-.825.825h-2.335l-.825-.826z" style="font-variation-settings:normal;fill:#fff;fill-opacity:1;stroke:#000;stroke-width:.352778;stroke-linecap:butt;stroke-linejoin:miter;stroke-miterlimit:4;stroke-dasharray:none;stroke-dashoffset:0;stroke-opacity:1;stop-color:#000"/><path d="m264.374 19.738-2.359-2.358v-2.098l.992-.992h4.1l2.359 2.359v2.098l-.992.991z" style="font-variation-settings:normal;vector-effect:none;fill:#000;fill-opacity:1;stroke:#000;stroke-width:.352777;stroke-linecap:butt;stroke-linejoin:miter;stroke-miterlimit:4;stroke-dasharray:none;stroke-dashoffset:0;stroke-opacity:1;-inkscape-stroke:none;stop-color:#000"/><path d="m264.744 18.01 1.993-1.992-.825-.826h-2.335l-.826.826z" style="font-variation-settings:normal;fill:#fff;fill-opacity:1;stroke:#000;stroke-width:.352778;stroke-linecap:butt;stroke-linejoin:miter;stroke-miterlimit:4;stroke-dasharray:none;stroke-dashoffset:0;stroke-opacity:1;stop-color:#000"/><path d="m266.737 16.018 1.993 1.993-.826.825h-2.334l-.826-.826z" style="font-variation-settings:normal;fill:#fff;fill-opacity:1;stroke:#000;stroke-width:.352778;stroke-linecap:butt;stroke-linejoin:miter;stroke-miterlimit:4;stroke-dasharray:none;stroke-dashoffset:0;stroke-opacity:1;stop-color:#000"/><path d="m246.292 26.777-2.358-2.359V22.32l.992-.992h4.1l2.359 2.359v2.098l-.992.992z" style="font-variation-settings:normal;vector-effect:none;fill:#000;fill-opacity:1;stroke:#000;stroke-width:.352777;stroke-linecap:butt;stroke-linejoin:miter;stroke-miterlimit:4;stroke-dasharray:none;stroke-dashoffset:0;stroke-opacity:1;-inkscape-stroke:none;stop-color:#000"/><path d="m246.663 25.05 1.993-1.994-.826-.825h-2.335l-.825.825z" style="font-variation-settings:normal;fill:#fff;fill-opacity:1;stroke:#000;stroke-width:.352778;stroke-linecap:butt;stroke-linejoin:miter;stroke-miterlimit:4;stroke-dasharray:none;stroke-dashoffset:0;stroke-opacity:1;stop-color:#000"/><path d="m248.656 23.056 1.993 1.993-.826.826h-2.335l-.825-.826z" style="font-variation-settings:normal;fill:#fff;fill-opacity:1;stroke:#000;stroke-width:.352778;stroke-linecap:butt;stroke-linejoin:miter;stroke-miterlimit:4;stroke-dasharray:none;stroke-dashoffset:0;stroke-opacity:1;stop-color:#000"/><path d="m255.333 26.777-2.358-2.359V22.32l.991-.992h4.1l2.36 2.359v2.098l-.992.992z" style="font-variation-settings:normal;vector-effect:none;fill:#000;fill-opacity:1;stroke:#000;stroke-width:.352777;stroke-linecap:butt;stroke-linejoin:miter;stroke-miterlimit:4;stroke-dasharray:none;stroke-dashoffset:0;stroke-opacity:1;-inkscape-stroke:none;stop-color:#000"/><path d="m255.704 25.05 1.993-1.994-.826-.825h-2.335l-.825.825z" style="font-variation-settings:normal;fill:#fff;fill-opacity:1;stroke:#000;stroke-width:.352778;stroke-linecap:butt;stroke-linejoin:miter;stroke-miterlimit:4;stroke-dasharray:none;stroke-dashoffset:0;stroke-opacity:1;stop-color:#000"/><path d="m257.697 23.056 1.992 1.993-.825.826h-2.335l-.825-.826z" style="font-variation-settings:normal;fill:#fff;fill-opacity:1;stroke:#000;stroke-width:.352778;stroke-linecap:butt;stroke-linejoin:miter;stroke-miterlimit:4;stroke-dasharray:none;stroke-dashoffset:0;stroke-opacity:1;stop-color:#000"/><path d="m264.374 26.777-2.359-2.359V22.32l.992-.992h4.1l2.359 2.359v2.098l-.992.992z" style="font-variation-settings:normal;vector-effect:none;fill:#000;fill-opacity:1;stroke:#000;stroke-width:.352777;stroke-linecap:butt;stroke-linejoin:miter;stroke-miterlimit:4;stroke-dasharray:none;stroke-dashoffset:0;stroke-opacity:1;-inkscape-stroke:none;stop-color:#000"/><path d="m264.744 25.05 1.993-1.994-.825-.825h-2.335l-.826.825z" style="font-variation-settings:normal;fill:#fff;fill-opacity:1;stroke:#000;stroke-width:.352778;stroke-linecap:butt;stroke-linejoin:miter;stroke-miterlimit:4;stroke-dasharray:none;stroke-dashoffset:0;stroke-opacity:1;stop-color:#000"/><path d="m266.737 23.056 1.993 1.993-.826.826h-2.334l-.826-.826z" style="font-variation-settings:normal;fill:#fff;fill-opacity:1;stroke:#000;stroke-width:.352778;stroke-linecap:butt;stroke-linejoin:miter;stroke-miterlimit:4;stroke-dasharray:none;stroke-dashoffset:0;stroke-opacity:1;stop-color:#000"/><text xml:space="preserve" style="font-size:16px;line-height:1.25;font-family:Arial;-inkscape-font-specification:Arial;white-space:pre;shape-inside:url(#a);display:inline;stroke-width:1.33335;stroke-dasharray:none" transform="translate(29.557 24.655) scale(.26458)"><tspan x="24" y="38.412"><tspan style="font-weight:700;-inkscape-font-specification:&quot;Arial Bold&quot;;fill:#fff">Abilities</tspan></tspan></text><path d="M128.655 36.503H6.303v-4.49l1.86-1.86h118.632l1.86 1.86z" style="font-variation-settings:normal;vector-effect:none;fill:#000;fill-opacity:1;stroke:#000;stroke-width:.352777;stroke-linecap:butt;stroke-linejoin:miter;stroke-miterlimit:4;stroke-dasharray:none;stroke-dashoffset:0;stroke-opacity:1;-inkscape-stroke:none;stop-color:#000"/><text xml:space="preserve" x="59.349" y="34.818" style="font-style:normal;font-variant:normal;font-weight:700;font-stretch:normal;font-size:4.23333px;line-height:1.25;font-family:Arial;-inkscape-font-specification:&quot;Arial Bold&quot;;white-space:pre;display:inline;fill:#fff;stroke:none;stroke-width:.352778;stroke-dasharray:none"><tspan style="fill:#fff;stroke-width:.352778;stroke-dasharray:none">Abilities</tspan></text><path d="m268.54 77.795-.686 1.173-1.173.687V82.286l1.172.687.688 1.172h2.63l.687-1.172 1.173-.687V79.655l-1.173-.687-.687-1.173h-1.315z" style="font-variation-settings:normal;fill:none;fill-opacity:1;stroke:#000;stroke-width:.352778;stroke-linecap:butt;stroke-linejoin:miter;stroke-miterlimit:4;stroke-dasharray:none;stroke-dashoffset:0;stroke-opacity:1;stop-color:#000"/><path d="m224.137 84.145-1.86-1.86v-2.63l1.86-1.86h39.094l1.86 1.86v2.63l-1.86 1.86z" style="font-variation-settings:normal;vector-effect:none;fill:#000;fill-opacity:1;stroke:#000;stroke-width:.352777;stroke-linecap:butt;stroke-linejoin:miter;stroke-miterlimit:4;stroke-dasharray:none;stroke-dashoffset:0;stroke-opacity:1;-inkscape-stroke:none;stop-color:#000"/><text xml:space="preserve" x="234.046" y="82.04" style="font-style:normal;font-variant:normal;font-weight:700;font-stretch:normal;font-size:4.23333px;line-height:1.25;font-family:Arial;-inkscape-font-specification:&quot;Arial Bold&quot;;white-space:pre;display:inline;fill:#fff;fill-opacity:1;stroke:none;stroke-width:.352778;stroke-dasharray:none"><tspan style="stroke-width:.352778;stroke-dasharray:none">Inventory</tspan></text><path d="m224.137 92.085-1.86-1.86v-2.63l1.86-1.86h20.867l1.86 1.86v2.63l-1.86 1.86zM250.314 92.085l-1.86-1.86v-2.63l1.86-1.86h20.867l1.86 1.86v2.63l-1.86 1.86zM224.137 100.025l-1.86-1.86v-2.63l1.86-1.86h20.868l1.86 1.86v2.63l-1.86 1.86zM250.314 100.025l-1.86-1.86v-2.63l1.86-1.86h20.868l1.86 1.86v2.63l-1.86 1.86zM224.137 107.965l-1.86-1.86v-2.63l1.86-1.86h20.868l1.86 1.86v2.63l-1.86 1.86zM250.314 107.965l-1.86-1.86v-2.63l1.86-1.86h20.868l1.86 1.86v2.63l-1.86 1.86zM224.137 115.905l-1.86-1.86v-2.63l1.86-1.86h20.868l1.86 1.86v2.63l-1.86 1.86zM250.314 115.905l-1.86-1.86v-2.63l1.86-1.86h20.868l1.86 1.86v2.63l-1.86 1.86zM224.137 123.845l-1.86-1.86v-2.63l1.86-1.86h20.868l1.86 1.86v2.63l-1.86 1.86zM250.314 123.845l-1.86-1.86v-2.63l1.86-1.86h20.868l1.86 1.86v2.63l-1.86 1.86zM224.137 131.785l-1.86-1.86v-2.63l1.86-1.86h20.868l1.86 1.86v2.63l-1.86 1.86zM250.314 131.785l-1.86-1.86v-2.63l1.86-1.86h20.868l1.86 1.86v2.63l-1.86 1.86z" style="font-variation-settings:normal;fill:none;fill-opacity:1;stroke:#000;stroke-width:.352778;stroke-linecap:butt;stroke-linejoin:miter;stroke-miterlimit:4;stroke-dasharray:none;stroke-dashoffset:0;stroke-opacity:1;stop-color:#000"/><text xml:space="preserve" x="140.553" y="90.401" style="font-style:normal;font-variant:normal;font-weight:400;font-stretch:normal;font-size:4.23333px;line-height:1.25;font-family:Arial;-inkscape-font-specification:Arial;white-space:pre;display:inline;fill:#000;fill-opacity:1;stroke:none;stroke-width:.352778;stroke-dasharray:none"><tspan style="stroke-width:.352778;stroke-dasharray:none">Athletics</tspan></text><text xml:space="preserve" x="139.626" y="98.366" style="font-style:normal;font-variant:normal;font-weight:400;font-stretch:normal;font-size:4.23333px;line-height:1.25;font-family:Arial;-inkscape-font-specification:Arial;white-space:pre;display:inline;fill:#000;fill-opacity:1;stroke:none;stroke-width:.352778;stroke-dasharray:none"><tspan style="stroke-width:.352778;stroke-dasharray:none">Convince</tspan></text><text xml:space="preserve" x="142.079" y="106.305" style="font-style:normal;font-variant:normal;font-weight:400;font-stretch:normal;font-size:4.23333px;line-height:1.25;font-family:Arial;-inkscape-font-specification:Arial;white-space:pre;display:inline;fill:#000;fill-opacity:1;stroke:none;stroke-width:.352778;stroke-dasharray:none"><tspan style="stroke-width:.352778;stroke-dasharray:none">Covert</tspan></text><text xml:space="preserve" x="140.97" y="114.221" style="font-style:normal;font-variant:normal;font-weight:400;font-stretch:normal;font-size:4.23333px;line-height:1.25;font-family:Arial;-inkscape-font-specification:Arial;white-space:pre;display:inline;fill:#000;fill-opacity:1;stroke:none;stroke-width:.352778;stroke-dasharray:none"><tspan style="stroke-width:.352778;stroke-dasharray:none">Finesse</tspan></text><text xml:space="preserve" x="142.049" y="121.74" style="font-style:normal;font-variant:normal;font-weight:400;font-stretch:normal;font-size:4.23333px;line-height:1.25;font-family:Arial;-inkscape-font-specification:Arial;white-space:pre;display:inline;fill:#000;fill-opacity:1;stroke:none;stroke-width:.352778;stroke-dasharray:none"><tspan style="stroke-width:.352778;stroke-dasharray:none">Insight</tspan></text><text xml:space="preserve" x="139.181" y="130.101" style="font-style:normal;font-variant:normal;font-weight:400;font-stretch:normal;font-size:4.23333px;line-height:1.25;font-family:Arial;-inkscape-font-specification:Arial;white-space:pre;display:inline;fill:#000;fill-opacity:1;stroke:none;stroke-width:.352778;stroke-dasharray:none"><tspan style="stroke-width:.352778;stroke-dasharray:none">Intimidate</tspan></text><text xml:space="preserve" x="185.957" y="90.401" style="font-style:normal;font-variant:normal;font-weight:400;font-stretch:normal;font-size:4.23333px;line-height:1.25;font-family:Arial;-inkscape-font-specification:Arial;white-space:pre;display:inline;fill:#000;fill-opacity:1;stroke:none;stroke-width:.352778;stroke-dasharray:none"><tspan style="stroke-width:.352778;stroke-dasharray:none">Medicine</tspan></text><text xml:space="preserve" x="183.194" y="98.341" style="font-style:normal;font-variant:normal;font-weight:400;font-stretch:normal;font-size:4.23333px;line-height:1.25;font-family:Arial;-inkscape-font-specification:Arial;white-space:pre;display:inline;fill:#000;fill-opacity:1;stroke:none;stroke-width:.352778;stroke-dasharray:none"><tspan style="stroke-width:.352778;stroke-dasharray:none">Misdirection</tspan></text><text xml:space="preserve" x="184.36" y="105.885" style="font-style:normal;font-variant:normal;font-weight:400;font-stretch:normal;font-size:4.23333px;line-height:1.25;font-family:Arial;-inkscape-font-specification:Arial;white-space:pre;display:inline;fill:#000;fill-opacity:1;stroke:none;stroke-width:.352778;stroke-dasharray:none"><tspan style="stroke-width:.352778;stroke-dasharray:none">Perception</tspan></text><text xml:space="preserve" x="185.416" y="114.221" style="font-style:normal;font-variant:normal;font-weight:400;font-stretch:normal;font-size:4.23333px;line-height:1.25;font-family:Arial;-inkscape-font-specification:Arial;white-space:pre;display:inline;fill:#000;fill-opacity:1;stroke:none;stroke-width:.352778;stroke-dasharray:none"><tspan style="stroke-width:.352778;stroke-dasharray:none">Research</tspan></text><text xml:space="preserve" x="187.023" y="122.185" style="font-style:normal;font-variant:normal;font-weight:400;font-stretch:normal;font-size:4.23333px;line-height:1.25;font-family:Arial;-inkscape-font-specification:Arial;white-space:pre;display:inline;fill:#000;fill-opacity:1;stroke:none;stroke-width:.352778;stroke-dasharray:none"><tspan style="stroke-width:.352778;stroke-dasharray:none">Survival</tspan></text><text xml:space="preserve" x="177.647" y="130.125" style="font-style:normal;font-variant:normal;font-weight:400;font-stretch:normal;font-size:4.23333px;line-height:1.25;font-family:Arial;-inkscape-font-specification:Arial;white-space:pre;display:inline;fill:#000;fill-opacity:1;stroke:none;stroke-width:.352778;stroke-dasharray:none"><tspan style="stroke-width:.352778;stroke-dasharray:none">SP:</tspan></text><path d="M214.337 129.926v-2.63l1.86-1.86h2.63l1.86 1.86v2.63l-1.86 1.86h-2.63zM214.337 121.986v-2.63l1.86-1.86h2.63l1.86 1.86v2.63l-1.86 1.86h-2.63zM214.337 114.046v-2.63l1.86-1.86h2.63l1.86 1.86v2.63l-1.86 1.86h-2.63zM214.337 106.106v-2.63l1.86-1.86h2.63l1.86 1.86v2.63l-1.86 1.86h-2.63zM214.337 98.165v-2.63l1.86-1.86h2.63l1.86 1.86v2.63l-1.86 1.86h-2.63zM214.337 90.225v-2.63l1.86-1.86h2.63l1.86 1.86v2.63l-1.86 1.86h-2.63zM168.307 129.926v-2.63l1.86-1.86h2.63l1.86 1.86v2.63l-1.86 1.86h-2.63zM168.307 121.986v-2.63l1.86-1.86h2.63l1.86 1.86v2.63l-1.86 1.86h-2.63zM168.307 114.046v-2.63l1.86-1.86h2.63l1.86 1.86v2.63l-1.86 1.86h-2.63zM168.307 106.105v-2.63l1.86-1.86h2.63l1.86 1.86v2.63l-1.86 1.86h-2.63zM168.307 98.165v-2.63l1.86-1.86h2.63l1.86 1.86v2.63l-1.86 1.86h-2.63zM168.308 90.225v-2.63l1.86-1.86h2.63l1.86 1.86v2.63l-1.86 1.86h-2.63zM178.107 123.845l-1.86-1.86v-2.63l1.86-1.86h32.78l1.86 1.86v2.63l-1.86 1.86zM178.107 115.905l-1.86-1.86v-2.63l1.86-1.86h32.78l1.86 1.86v2.63l-1.86 1.86zM178.107 107.965l-1.86-1.86v-2.63l1.86-1.86h32.78l1.86 1.86v2.63l-1.86 1.86zM178.107 100.025l-1.86-1.86v-2.63l1.86-1.86h32.78l1.86 1.86v2.63l-1.86 1.86zM178.107 92.085l-1.86-1.86v-2.63l1.86-1.86h32.78l1.86 1.86v2.63l-1.86 1.86zM132.077 131.785l-1.86-1.86v-2.63l1.86-1.86h32.78l1.86 1.86v2.63l-1.86 1.86zM132.077 123.845l-1.86-1.86v-2.63l1.86-1.86h32.78l1.86 1.86v2.63l-1.86 1.86zM132.077 115.905l-1.86-1.86v-2.63l1.86-1.86h32.78l1.86 1.86v2.63l-1.86 1.86zM132.077 107.965l-1.86-1.86v-2.63l1.86-1.86h32.78l1.86 1.86v2.63l-1.86 1.86zM132.078 100.025l-1.86-1.86v-2.63l1.86-1.86h32.78l1.86 1.86v2.63l-1.86 1.86zM132.078 92.085l-1.86-1.86v-2.63l1.86-1.86h32.78l1.86 1.86v2.63l-1.86 1.86zM178.107 131.785l-1.86-1.86v-2.63l1.86-1.86h32.78l1.86 1.86v2.63l-1.86 1.86z" style="font-variation-settings:normal;fill:none;fill-opacity:1;stroke:#000;stroke-width:.352778;stroke-linecap:butt;stroke-linejoin:miter;stroke-miterlimit:4;stroke-dasharray:none;stroke-dashoffset:0;stroke-opacity:1;stop-color:#000"/><path d="m132.078 84.148-1.86-1.86v-2.63l1.86-1.86h86.755l1.86 1.86v2.63l-1.86 1.86z" style="font-variation-settings:normal;vector-effect:none;fill:#000;fill-opacity:1;stroke:#000;stroke-width:.352777;stroke-linecap:butt;stroke-linejoin:miter;stroke-miterlimit:4;stroke-dasharray:none;stroke-dashoffset:0;stroke-opacity:1;-inkscape-stroke:none;stop-color:#000"/><text xml:space="preserve" x="167.181" y="83.769" style="font-style:normal;font-variant:normal;font-weight:700;font-stretch:normal;font-size:4.29903px;line-height:1.25;font-family:Arial;-inkscape-font-specification:&quot;Arial Bold&quot;;white-space:pre;display:inline;fill:#fff;stroke:none;stroke-width:.352778;stroke-dasharray:none" transform="scale(1.01553 .9847)"><tspan style="stroke-width:.352778;stroke-dasharray:none">Skills</tspan></text><path d="M130.273 139.725v-4.49l1.86-1.86h66.842l1.86 1.86v4.49z" style="font-variation-settings:normal;vector-effect:none;fill:#000;fill-opacity:1;stroke:#000;stroke-width:.352777;stroke-linecap:butt;stroke-linejoin:miter;stroke-miterlimit:4;stroke-dasharray:none;stroke-dashoffset:0;stroke-opacity:1;-inkscape-stroke:none;stop-color:#000"/><path d="m196.476 133.783-.46.459-.6-.249-.248.6h-.65v.65l-.6.249.249.599-.46.46.46.459-.25.6.601.249v.648h.65l.248.6.6-.248.46.46.459-.46.6.248.249-.6h.65v-.65l.6-.248-.249-.6.46-.459-.46-.458.249-.6-.6-.25v-.649h-.65l-.249-.6-.6.25z" style="font-variation-settings:normal;fill:#fff;fill-opacity:1;stroke:#000;stroke-width:.352778;stroke-linecap:butt;stroke-linejoin:miter;stroke-miterlimit:4;stroke-dasharray:none;stroke-dashoffset:0;stroke-opacity:1;stop-color:#000"/><text xml:space="preserve" x="146.644" y="137.674" style="font-style:normal;font-variant:normal;font-weight:700;font-stretch:normal;font-size:4.23333px;line-height:1.25;font-family:Arial;-inkscape-font-specification:&quot;Arial Bold&quot;;white-space:pre;display:inline;fill:#fff;stroke:none;stroke-width:.352778;stroke-dasharray:none"><tspan style="fill:#fff;stroke:none;stroke-width:.352778;stroke-dasharray:none">Combat Technique</tspan></text><path d="m132.133 146.075-1.86-1.86v-4.49h70.561v4.49l-1.86 1.86zM132.133 154.015l-1.86-1.86v-2.63l1.86-1.86h30.748l1.86 1.86v2.63l-1.86 1.86zM168.191 154.015l-1.86-1.86v-2.63l1.86-1.86h30.748l1.86 1.86v2.63l-1.86 1.86zM132.133 161.955l-1.86-1.86v-2.63l1.86-1.86h30.748l1.86 1.86v2.63l-1.86 1.86zM168.191 161.955l-1.86-1.86v-2.63l1.86-1.86h30.748l1.86 1.86v2.63l-1.86 1.86zM132.133 209.55l-1.86-1.86v-42.285l1.86-1.86h66.842l1.86 1.86v42.285l-1.86 1.86z" style="font-variation-settings:normal;vector-effect:none;fill:none;fill-opacity:1;stroke:#000;stroke-width:.352777;stroke-linecap:butt;stroke-linejoin:miter;stroke-miterlimit:4;stroke-dasharray:none;stroke-dashoffset:0;stroke-opacity:1;-inkscape-stroke:none;stop-color:#000"/><path d="M202.425 139.725v-4.49l1.86-1.86h66.84l1.86 1.86v4.49z" style="font-variation-settings:normal;vector-effect:none;fill:#000;fill-opacity:1;stroke:#000;stroke-width:.352777;stroke-linecap:butt;stroke-linejoin:miter;stroke-miterlimit:4;stroke-dasharray:none;stroke-dashoffset:0;stroke-opacity:1;-inkscape-stroke:none;stop-color:#000"/><path d="m268.627 133.783-.46.459-.6-.249-.248.6h-.65v.65l-.6.249.249.599-.46.46.46.459-.25.6.601.249v.648h.65l.248.6.6-.248.46.46.46-.46.6.248.248-.6h.65v-.65l.6-.248-.249-.6.46-.459-.46-.458.249-.6-.6-.25v-.649h-.65l-.248-.6-.6.25z" style="font-variation-settings:normal;fill:#fff;fill-opacity:1;stroke:#000;stroke-width:.352778;stroke-linecap:butt;stroke-linejoin:miter;stroke-miterlimit:4;stroke-dasharray:none;stroke-dashoffset:0;stroke-opacity:1;stop-color:#000"/><text xml:space="preserve" x="218.795" y="137.674" style="font-style:normal;font-variant:normal;font-weight:700;font-stretch:normal;font-size:4.23333px;line-height:1.25;font-family:Arial;-inkscape-font-specification:&quot;Arial Bold&quot;;white-space:pre;display:inline;fill:#fff;stroke:none;stroke-width:.352778;stroke-dasharray:none"><tspan style="fill:#fff;stroke:none;stroke-width:.352778;stroke-dasharray:none">Combat Technique</tspan></text><path d="m204.284 146.075-1.86-1.86v-4.49h70.562v4.49l-1.86 1.86zM204.284 154.015l-1.86-1.86v-2.63l1.86-1.86h30.748l1.86 1.86v2.63l-1.86 1.86zM240.342 154.015l-1.86-1.86v-2.63l1.86-1.86h30.748l1.86 1.86v2.63l-1.86 1.86zM204.284 161.955l-1.86-1.86v-2.63l1.86-1.86h30.748l1.86 1.86v2.63l-1.86 1.86zM240.342 161.955l-1.86-1.86v-2.63l1.86-1.86h30.748l1.86 1.86v2.63l-1.86 1.86zM204.284 209.55l-1.86-1.86v-42.285l1.86-1.86h66.842l1.86 1.86v42.285l-1.86 1.86zM6.303 36.503v171.184l1.86 1.86h118.632l1.86-1.86V36.503z" style="font-variation-settings:normal;vector-effect:none;fill:none;fill-opacity:1;stroke:#000;stroke-width:.352777;stroke-linecap:butt;stroke-linejoin:miter;stroke-miterlimit:4;stroke-dasharray:none;stroke-dashoffset:0;stroke-opacity:1;-inkscape-stroke:none;stop-color:#000"/><path d="m250.305 36.505-1.86-1.86v-2.63l1.86-1.86h20.867l1.86 1.86v2.63l-1.86 1.86z" style="font-variation-settings:normal;fill:#000;fill-opacity:1;stroke:#000;stroke-width:.352778;stroke-linecap:butt;stroke-linejoin:miter;stroke-miterlimit:4;stroke-dasharray:none;stroke-dashoffset:0;stroke-opacity:1;stop-color:#000"/><text xml:space="preserve" x="251.268" y="34.933" style="font-style:normal;font-variant:normal;font-weight:700;font-stretch:normal;font-size:4.29903px;line-height:1.25;font-family:Arial;-inkscape-font-specification:&quot;Arial Bold&quot;;white-space:pre;display:inline;fill:#fff;stroke:none;stroke-width:.352778;stroke-dasharray:none" transform="scale(1.01553 .9847)"><tspan style="stroke-width:.352778;stroke-dasharray:none">Vigor</tspan></text><path d="m224.128 36.505-1.86-1.86v-2.63l1.86-1.86h20.867l1.86 1.86v2.63l-1.86 1.86z" style="font-variation-settings:normal;fill:#000;fill-opacity:1;stroke:#000;stroke-width:.352778;stroke-linecap:butt;stroke-linejoin:miter;stroke-miterlimit:4;stroke-dasharray:none;stroke-dashoffset:0;stroke-opacity:1;stop-color:#000"/><text xml:space="preserve" x="224.401" y="35.361" style="font-style:normal;font-variant:normal;font-weight:700;font-stretch:normal;font-size:4.29903px;line-height:1.25;font-family:Arial;-inkscape-font-specification:&quot;Arial Bold&quot;;white-space:pre;display:inline;fill:#fff;stroke:none;stroke-width:.352778;stroke-dasharray:none" transform="scale(1.01553 .9847)"><tspan style="stroke-width:.352778;stroke-dasharray:none">Health</tspan></text><path d="m250.305 38.095-1.86 1.86v8.98l1.86 1.86h6.35l6.173-11.774-.926-.926ZM271.162 52.385l1.86-1.86v-8.98l-1.86-1.86h-6.35L258.64 51.46l.926.926zM224.128 38.095l-1.86 1.86v8.98l1.86 1.86h6.35l6.173-11.774-.926-.926zM244.985 52.385l1.86-1.86v-8.98l-1.86-1.86h-6.35l-6.173 11.774.926.926z" style="font-variation-settings:normal;fill:none;fill-opacity:1;stroke:#000;stroke-width:.352778;stroke-linecap:butt;stroke-linejoin:miter;stroke-miterlimit:4;stroke-dasharray:none;stroke-dashoffset:0;stroke-opacity:1;stop-color:#000"/><path d="m224.14 60.325-1.86-1.86v-2.63l1.86-1.86h39.079l1.86 1.86v2.63l-1.86 1.86z" style="font-variation-settings:normal;fill:#000;fill-opacity:1;stroke:#000;stroke-width:.352778;stroke-linecap:butt;stroke-linejoin:miter;stroke-miterlimit:4;stroke-dasharray:none;stroke-dashoffset:0;stroke-opacity:1;stop-color:#000"/><text xml:space="preserve" x="230.749" y="58.22" style="font-style:normal;font-variant:normal;font-weight:700;font-stretch:normal;font-size:4.23333px;line-height:1.25;font-family:Arial;-inkscape-font-specification:&quot;Arial Bold&quot;;white-space:pre;display:inline;fill:#fff;fill-opacity:1;stroke:none;stroke-width:.352778;stroke-dasharray:none"><tspan style="stroke-width:.352778;stroke-dasharray:none">Armour Type</tspan></text><path d="m224.14 68.265-1.86-1.86v-2.63l1.86-1.86h39.079l1.86 1.86v2.63l-1.86 1.86z" style="font-variation-settings:normal;fill:#000;fill-opacity:1;stroke:#000;stroke-width:.352778;stroke-linecap:butt;stroke-linejoin:miter;stroke-miterlimit:4;stroke-dasharray:none;stroke-dashoffset:0;stroke-opacity:1;stop-color:#000"/><text xml:space="preserve" x="224.498" y="66.16" style="font-style:normal;font-variant:normal;font-weight:700;font-stretch:normal;font-size:4.23334px;line-height:1.25;font-family:Arial;-inkscape-font-specification:&quot;Arial Bold&quot;;white-space:pre;display:inline;fill:#fff;fill-opacity:1;stroke:none;stroke-width:.352778;stroke-dasharray:none"><tspan style="font-style:normal;font-variant:normal;font-weight:700;font-stretch:normal;font-family:Arial;-inkscape-font-specification:&quot;Arial Bold&quot;;fill:#fff;stroke-width:.352778;stroke-dasharray:none">Damage Reduction</tspan></text><path d="m224.14 76.205-1.86-1.86v-2.63l1.86-1.86h39.079l1.86 1.86v2.63l-1.86 1.86z" style="font-variation-settings:normal;fill:#000;fill-opacity:1;stroke:#000;stroke-width:.352778;stroke-linecap:butt;stroke-linejoin:miter;stroke-miterlimit:4;stroke-dasharray:none;stroke-dashoffset:0;stroke-opacity:1;stop-color:#000"/><text xml:space="preserve" x="226.256" y="74.154" style="font-style:normal;font-variant:normal;font-weight:700;font-stretch:normal;font-size:4.23334px;line-height:1.25;font-family:Arial;-inkscape-font-specification:&quot;Arial Bold&quot;;white-space:pre;display:inline;fill:#fff;fill-opacity:1;stroke:none;stroke-width:.352778;stroke-dasharray:none"><tspan style="font-style:normal;font-variant:normal;font-weight:700;font-stretch:normal;font-family:Arial;-inkscape-font-specification:&quot;Arial Bold&quot;;fill:#fff;stroke-width:.352778;stroke-dasharray:none">Movement Speed</tspan></text><path fill="none" d="m287.965 159.276-6.133 1.643-4.49-4.49 1.643-6.133 6.134-1.644 4.49 4.49z" style="fill:#fff;fill-opacity:0;stroke:#000;stroke-width:.656592;stroke-dasharray:none" transform="matrix(.55768 -.12941 .14943 .48296 88.626 34.959)"/><path d="M271.431 53.975h-3.175l-1.587 1.588v3.175l3.175 1.587 3.175-1.587v-3.175z" style="font-variation-settings:normal;vector-effect:none;fill:none;fill-opacity:1;stroke:#000;stroke-width:.352777;stroke-linecap:butt;stroke-linejoin:miter;stroke-miterlimit:4;stroke-dasharray:none;stroke-dashoffset:0;stroke-opacity:1;-inkscape-stroke:none;stop-color:#000"/><path d="M269.845 68.265c-2.528-1.574-3.2-4.002-3.175-5.499 2.058-1.077 4.168-1.19 6.35 0 .025 1.497-.648 3.925-3.175 5.5z" style="font-variation-settings:normal;fill:none;fill-opacity:1;stroke:#000;stroke-width:.352778;stroke-linecap:butt;stroke-linejoin:miter;stroke-miterlimit:4;stroke-dasharray:none;stroke-dashoffset:0;stroke-opacity:1;stop-color:#000"/><path d="m190.022 36.502-1.86-1.86v-2.63l1.86-1.86h20.868l1.86 1.86v2.63l-1.86 1.86z" style="font-variation-settings:normal;vector-effect:none;fill:#000;fill-opacity:1;stroke:#000;stroke-width:.352777;stroke-linecap:butt;stroke-linejoin:miter;stroke-miterlimit:4;stroke-dasharray:none;stroke-dashoffset:0;stroke-opacity:1;-inkscape-stroke:none;stop-color:#000"/><text xml:space="preserve" x="195.027" y="34.818" style="font-style:normal;font-variant:normal;font-weight:700;font-stretch:normal;font-size:4.23333px;line-height:1.25;font-family:Arial;-inkscape-font-specification:&quot;Arial Bold&quot;;white-space:pre;display:inline;fill:#fff;fill-opacity:1;stroke:none;stroke-width:.352778;stroke-dasharray:none"><tspan style="stroke-width:.352778;stroke-dasharray:none">Level</tspan></text><path d="m132.075 76.205-1.86-1.86V38.092h88.615l1.86 1.86v34.393l-1.86 1.86z" style="font-variation-settings:normal;vector-effect:none;fill:none;fill-opacity:1;stroke:#000;stroke-width:.352777;stroke-linecap:butt;stroke-linejoin:miter;stroke-miterlimit:4;stroke-dasharray:none;stroke-dashoffset:0;stroke-opacity:1;-inkscape-stroke:none;stop-color:#000"/><path d="M186.552 38.092h-56.337v-6.064l1.86-1.86h52.617l1.86 1.86zm0 0v-1.86l1.86 1.86z" style="font-variation-settings:normal;vector-effect:none;fill:#000;fill-opacity:1;stroke:#000;stroke-width:.352777;stroke-linecap:butt;stroke-linejoin:miter;stroke-miterlimit:4;stroke-dasharray:none;stroke-dashoffset:0;stroke-opacity:1;-inkscape-stroke:none;stop-color:#000"/><text xml:space="preserve" x="140.893" y="35.205" style="font-style:normal;font-variant:normal;font-weight:700;font-stretch:normal;font-size:4.234px;line-height:1.25;font-family:Arial;-inkscape-font-specification:&quot;Arial Bold&quot;;white-space:pre;display:inline;fill:#fff;stroke:none;stroke-width:1.00013;stroke-dasharray:none" transform="scale(1.00016 .99984)"><tspan style="fill:#fff;stroke-width:1.00013;stroke-dasharray:none">Hello My Name Is</tspan></text><path d="m217.515 30.153-.93.93h-1.316v1.315l-.93.93.93.93v1.315h1.316l.93.93.93-.93h1.315v-1.315l.93-.93-.93-.93v-1.316h-1.315z" style="font-variation-settings:normal;fill:none;fill-opacity:1;stroke:#000;stroke-width:.352778;stroke-linecap:butt;stroke-linejoin:miter;stroke-miterlimit:4;stroke-dasharray:none;stroke-dashoffset:0;stroke-opacity:1;stop-color:#000"/></svg>