<svg xmlns="http://www.w3.org/2000/svg" xml:space="preserve" width="1009.655" height="768.843" viewBox="0 0 267.138 203.423"><path d="M273.307-6.303v215.9h-279.4v-215.9Z" style="font-variation-settings:normal;display:inline;fill:#fff;fill-opacity:1;fill-rule:evenodd;stroke:none;stroke-width:.705556;stroke-linecap:butt;stroke-linejoin:miter;stroke-miterlimit:4;stroke-dasharray:none;stroke-dashoffset:0;stroke-opacity:1;stop-color:#000"/><g transform="translate(-574.538 -338.562)"><path d="M684.148 370.002v91.708l1.86 1.86h74.161l1.86-1.86V370h-68.702zm-109.353.018v169.966l1.84 1.823h104.069l1.859-1.842V371.88l-1.86-1.86h-104.05Z" style="font-variation-settings:normal;fill:none;fill-opacity:1;stroke:#000;stroke-width:.352778;stroke-linecap:butt;stroke-linejoin:miter;stroke-miterlimit:4;stroke-dasharray:none;stroke-dashoffset:0;stroke-opacity:1;stop-color:#000"/><path d="m575.926 338.562-1.225 1.226.638.64v2.62l-.639.638 1.226 1.226h23.28l1.227-1.226-.639-.639v-2.62l.639-.639-1.226-1.226h-11.64z" style="font-variation-settings:normal;fill:#000;fill-opacity:1;stroke:none;stroke-width:.352778;stroke-linecap:butt;stroke-linejoin:miter;stroke-miterlimit:4;stroke-dasharray:none;stroke-dashoffset:0;stroke-opacity:1;stop-color:#000"/><text xml:space="preserve" x="578.002" y="342.807" style="font-style:normal;font-variant:normal;font-weight:700;font-stretch:normal;font-size:4.23333px;line-height:1.25;font-family:Arial;-inkscape-font-specification:&quot;Arial Bold&quot;;white-space:pre;display:inline;fill:#fff;fill-opacity:1;stroke:none;stroke-width:.352778;stroke-dasharray:none"><tspan style="stroke-width:.352778;stroke-dasharray:none">Physique </tspan></text><path d="m765.473 465.154-1.86 1.86v6.35l1.86-1.86h74.162l1.86 1.86v-6.35l-1.86-1.86h-66.842z" style="font-variation-settings:normal;vector-effect:none;fill:#000;fill-opacity:1;stroke:#000;stroke-width:.352777;stroke-linecap:butt;stroke-linejoin:miter;stroke-miterlimit:4;stroke-dasharray:none;stroke-dashoffset:0;stroke-opacity:1;-inkscape-stroke:none;stop-color:#000"/><text xml:space="preserve" x="783.644" y="469.453" style="font-style:normal;font-variant:normal;font-weight:700;font-stretch:normal;font-size:4.23333px;line-height:1.25;font-family:Arial;-inkscape-font-specification:&quot;Arial Bold&quot;;white-space:pre;display:inline;fill:#fff;stroke:none;stroke-width:.352778;stroke-dasharray:none"><tspan style="fill:#fff;stroke:none;stroke-width:.352778;stroke-dasharray:none">Combat Technique</tspan></text><path d="M763.614 471.504v68.445l1.86 1.86h74.162l1.86-1.86-.001-68.445zm-79.466 0v68.445l1.86 1.86h74.162l1.86-1.86-.001-68.445z" style="font-variation-settings:normal;vector-effect:none;fill:none;fill-opacity:1;stroke:#000;stroke-width:.352777;stroke-linecap:butt;stroke-linejoin:miter;stroke-miterlimit:4;stroke-dasharray:none;stroke-dashoffset:0;stroke-opacity:1;-inkscape-stroke:none;stop-color:#000"/><path d="m686.007 362.077-1.86 1.86v6.065l26.89-.005-1.855-1.856v-4.204l1.86-1.86zm-1.86 7.925v1.86l1.86-1.86z" style="font-variation-settings:normal;vector-effect:none;fill:#000;fill-opacity:1;stroke:#000;stroke-width:.352777;stroke-linecap:butt;stroke-linejoin:miter;stroke-miterlimit:4;stroke-dasharray:none;stroke-dashoffset:0;stroke-opacity:1;-inkscape-stroke:none;stop-color:#000"/><text xml:space="preserve" x="687.474" y="367.612" style="font-style:normal;font-variant:normal;font-weight:700;font-stretch:normal;font-size:4.234px;line-height:1.25;font-family:Arial;-inkscape-font-specification:&quot;Arial Bold&quot;;white-space:pre;display:inline;fill:#fff;stroke:none;stroke-width:1.00013;stroke-dasharray:none" transform="scale(1.00016 .99984)"><tspan style="fill:#fff;stroke-width:1.00013;stroke-dasharray:none">Character</tspan></text><path d="m651.894 368.446-1.86-1.86v-2.63l1.86-1.86h20.868l1.86 1.86v2.63l-1.86 1.86z" style="font-variation-settings:normal;vector-effect:none;fill:#000;fill-opacity:1;stroke:none;stroke-width:.352777;stroke-linecap:butt;stroke-linejoin:miter;stroke-miterlimit:4;stroke-dasharray:none;stroke-dashoffset:0;stroke-opacity:1;-inkscape-stroke:none;stop-color:#000"/><text xml:space="preserve" x="651.91" y="366.277" style="font-style:normal;font-variant:normal;font-weight:700;font-stretch:normal;font-size:3.88056px;line-height:1.25;font-family:Arial;-inkscape-font-specification:&quot;Arial Bold&quot;;white-space:pre;display:inline;fill:#fff;fill-opacity:1;stroke:none;stroke-width:.352778;stroke-dasharray:none"><tspan style="font-size:3.88056px;stroke-width:.352778;stroke-dasharray:none">Experience</tspan></text><path d="m679.387 362.096-.93.93h-1.316v1.315l-.93.93.93.93v1.315h1.316l.93.93.93-.93h1.315V366.2l.93-.93-.93-.93v-1.315h-1.315z" style="font-variation-settings:normal;fill:none;fill-opacity:1;stroke:#000;stroke-width:.352778;stroke-linecap:butt;stroke-linejoin:miter;stroke-miterlimit:4;stroke-dasharray:none;stroke-dashoffset:0;stroke-opacity:1;stop-color:#000"/><path d="m624.139 338.562-1.226 1.226.639.64v2.62l-.64.638 1.227 1.226h23.28l1.226-1.226-.639-.639v-2.62l.639-.639-1.226-1.226h-11.64z" style="font-variation-settings:normal;fill:#000;fill-opacity:1;stroke:none;stroke-width:.352778;stroke-linecap:butt;stroke-linejoin:miter;stroke-miterlimit:4;stroke-dasharray:none;stroke-dashoffset:0;stroke-opacity:1;stop-color:#000"/><text xml:space="preserve" x="625.712" y="342.835" style="font-style:normal;font-variant:normal;font-weight:700;font-stretch:normal;font-size:4.23333px;line-height:1.25;font-family:Arial;-inkscape-font-specification:&quot;Arial Bold&quot;;white-space:pre;display:inline;fill:#fff;fill-opacity:1;stroke:none;stroke-width:.352778;stroke-dasharray:none"><tspan style="stroke-width:.352778;stroke-dasharray:none">Discipline</tspan></text><path d="m672.35 338.562-1.225 1.226.638.64v2.62l-.639.638 1.226 1.226h23.28l1.227-1.226-.639-.639v-2.62l.639-.639-1.226-1.226h-11.64z" style="font-variation-settings:normal;fill:#000;fill-opacity:1;stroke:none;stroke-width:.352778;stroke-linecap:butt;stroke-linejoin:miter;stroke-miterlimit:4;stroke-dasharray:none;stroke-dashoffset:0;stroke-opacity:1;stop-color:#000"/><text xml:space="preserve" x="673.449" y="343.227" style="font-style:normal;font-variant:normal;font-weight:700;font-stretch:normal;font-size:4.23333px;line-height:1.25;font-family:Arial;-inkscape-font-specification:&quot;Arial Bold&quot;;white-space:pre;display:inline;fill:#fff;fill-opacity:1;stroke:none;stroke-width:.352778;stroke-dasharray:none"><tspan style="stroke-width:.352778;stroke-dasharray:none">Resilience</tspan></text><path d="m720.563 338.562-1.226 1.226.639.64v2.62l-.64.638 1.227 1.226h23.28l1.226-1.226-.639-.639v-2.62l.64-.639-1.227-1.226h-11.64z" style="font-variation-settings:normal;fill:#000;fill-opacity:1;stroke:none;stroke-width:.352778;stroke-linecap:butt;stroke-linejoin:miter;stroke-miterlimit:4;stroke-dasharray:none;stroke-dashoffset:0;stroke-opacity:1;stop-color:#000"/><text xml:space="preserve" x="722.603" y="343.227" style="font-style:normal;font-variant:normal;font-weight:700;font-stretch:normal;font-size:4.23333px;line-height:1.25;font-family:Arial;-inkscape-font-specification:&quot;Arial Bold&quot;;white-space:pre;display:inline;fill:#fff;fill-opacity:1;stroke:none;stroke-width:.352778;stroke-dasharray:none"><tspan style="stroke-width:.352778;stroke-dasharray:none">Brilliance</tspan></text><path d="m768.775 338.562-1.226 1.226.639.64v2.62l-.64.638 1.227 1.226h23.28l1.226-1.226-.639-.639v-2.62l.64-.639-1.227-1.226h-11.64z" style="font-variation-settings:normal;fill:#000;fill-opacity:1;stroke:none;stroke-width:.352778;stroke-linecap:butt;stroke-linejoin:miter;stroke-miterlimit:4;stroke-dasharray:none;stroke-dashoffset:0;stroke-opacity:1;stop-color:#000"/><text xml:space="preserve" x="769.121" y="343.252" style="font-style:normal;font-variant:normal;font-weight:700;font-stretch:normal;font-size:4.23333px;line-height:1.25;font-family:Arial;-inkscape-font-specification:&quot;Arial Bold&quot;;white-space:pre;display:inline;fill:#fff;fill-opacity:1;stroke:none;stroke-width:.352778;stroke-dasharray:none"><tspan style="stroke-width:.352778;stroke-dasharray:none">Cleverness</tspan></text><path d="m816.987 338.562-1.226 1.226.639.64v2.62l-.64.638 1.227 1.226h23.28l1.226-1.226-.638-.639-.001-2.62.64-.639-1.227-1.226h-11.64z" style="font-variation-settings:normal;fill:#000;fill-opacity:1;stroke:none;stroke-width:.352778;stroke-linecap:butt;stroke-linejoin:miter;stroke-miterlimit:4;stroke-dasharray:none;stroke-dashoffset:0;stroke-opacity:1;stop-color:#000"/><path d="m815.848 352.727 1.993-1.992.825.825v2.335l-.826.825zm21.15.001-1.993-1.993-.826.825v2.335l.826.826zm4.408-.001-1.993-1.992-.825.825v2.335l.825.825zm-6.614 6.165v-2.818h-1.168l-1.651 1.65v1.168zm-12.33 0v-2.818h1.168l1.65 1.65v1.168zm12.329-12.329h-2.818v1.168l1.651 1.65h1.167zm-12.329 0v2.819h1.168l1.65-1.651v-1.168zm-2.206 6.165 1.993-1.993.826.825v2.335l-.826.826zm-2.202 6.164h2.818v-1.167l-1.651-1.651h-1.167zm0-12.329h2.818v1.168l-1.651 1.65h-1.167zm21.146 12.329h-2.818v-1.167l1.65-1.651h1.168zm0-12.329h-2.818v1.168l1.65 1.65h1.168z" style="font-variation-settings:normal;fill:none;fill-opacity:1;stroke:#000;stroke-width:.352778;stroke-linecap:butt;stroke-linejoin:miter;stroke-miterlimit:4;stroke-dasharray:none;stroke-dashoffset:0;stroke-opacity:1;stop-color:#000"/><path d="m826.56 356.654.752-.751h2.63l.752.751 1.86-1.86-.752-.751v-2.63l.752-.752-1.86-1.86-.752.752h-2.63l-.752-.752-1.86 1.86.752.752v2.63l-.752.752z" style="font-variation-settings:normal;vector-effect:none;fill:none;fill-opacity:1;stroke:#000;stroke-width:.352777;stroke-linecap:butt;stroke-linejoin:miter;stroke-miterlimit:4;stroke-dasharray:none;stroke-dashoffset:0;stroke-opacity:1;-inkscape-stroke:none;stop-color:#000"/><text xml:space="preserve" x="819.143" y="343.227" style="font-style:normal;font-variant:normal;font-weight:700;font-stretch:normal;font-size:4.23333px;line-height:1.25;font-family:Arial;-inkscape-font-specification:&quot;Arial Bold&quot;;white-space:pre;display:inline;fill:#fff;fill-opacity:1;stroke:none;stroke-width:.352778;stroke-dasharray:none"><tspan style="stroke-width:.352778;stroke-dasharray:none">Presence</tspan></text><path d="m576.654 362.096-1.86 1.86v7.924l1.86-1.86h73.381l-1.86-1.86v-4.205l-1.86-1.86h-65.943z" style="font-variation-settings:normal;vector-effect:none;fill:#000;fill-opacity:1;stroke:#000;stroke-width:.352777;stroke-linecap:butt;stroke-linejoin:miter;stroke-miterlimit:4;stroke-dasharray:none;stroke-dashoffset:0;stroke-opacity:1;-inkscape-stroke:none;stop-color:#000"/><text xml:space="preserve" x="602.425" y="367.548" style="font-style:normal;font-variant:normal;font-weight:700;font-stretch:normal;font-size:4.23333px;line-height:1.25;font-family:Arial;-inkscape-font-specification:&quot;Arial Bold&quot;;white-space:pre;display:inline;fill:#fff;stroke:none;stroke-width:.352778;stroke-dasharray:none"><tspan style="fill:#fff;stroke-width:.352778;stroke-dasharray:none">Abilities</tspan></text><path d="m767.636 352.727 1.993-1.992.825.825v2.335l-.826.825zm21.15.001-1.993-1.993-.826.825v2.335l.826.826zm4.408-.001-1.993-1.992-.825.825v2.335l.825.825zm-6.614 6.165v-2.818h-1.168l-1.651 1.65v1.168zm-12.33 0v-2.818h1.168l1.65 1.65v1.168zm12.33-12.329h-2.82v1.168l1.652 1.65h1.167zm-12.33 0v2.819h1.168l1.65-1.651v-1.168zm-2.206 6.165 1.993-1.993.825.825v2.335l-.825.826zm-2.202 6.164h2.818v-1.167l-1.651-1.651h-1.167zm0-12.329h2.818v1.168l-1.651 1.65h-1.167zm21.146 12.329h-2.819v-1.167l1.652-1.651h1.167zm0-12.329h-2.819v1.168l1.652 1.65h1.167z" style="font-variation-settings:normal;fill:none;fill-opacity:1;stroke:#000;stroke-width:.352778;stroke-linecap:butt;stroke-linejoin:miter;stroke-miterlimit:4;stroke-dasharray:none;stroke-dashoffset:0;stroke-opacity:1;stop-color:#000"/><path d="m778.348 356.654.752-.751h2.63l.752.751 1.86-1.86-.752-.751v-2.63l.752-.752-1.86-1.86-.752.752h-2.63l-.752-.752-1.86 1.86.752.752v2.63l-.752.752z" style="font-variation-settings:normal;vector-effect:none;fill:none;fill-opacity:1;stroke:#000;stroke-width:.352777;stroke-linecap:butt;stroke-linejoin:miter;stroke-miterlimit:4;stroke-dasharray:none;stroke-dashoffset:0;stroke-opacity:1;-inkscape-stroke:none;stop-color:#000"/><path d="m831.652 377.962 1.86 1.86v2.63l-1.855 1.855h-26.444l-1.86-1.86v-2.63l1.855-1.855h25.154z" style="font-variation-settings:normal;fill:#000;fill-opacity:1;stroke:#000;stroke-width:.352778;stroke-linecap:butt;stroke-linejoin:miter;stroke-miterlimit:4;stroke-dasharray:none;stroke-dashoffset:0;stroke-opacity:1;stop-color:#000"/><text xml:space="preserve" x="807.132" y="382.625" style="font-style:normal;font-variant:normal;font-weight:700;font-stretch:normal;font-size:4.23333px;line-height:1.25;font-family:Arial;-inkscape-font-specification:&quot;Arial Bold&quot;;white-space:pre;display:inline;fill:#fff;fill-opacity:1;stroke:none;stroke-width:.352778;stroke-dasharray:none"><tspan style="stroke-width:.352778;stroke-dasharray:none">Momentum</tspan></text><rect width="6.35" height="6.35" x="-841.447" y="-384.312" ry="1.27" style="font-variation-settings:normal;vector-effect:none;fill:#fff;fill-opacity:1;fill-rule:evenodd;stroke:#000;stroke-width:.352777;stroke-linecap:butt;stroke-linejoin:miter;stroke-miterlimit:4;stroke-dasharray:none;stroke-dashoffset:0;stroke-opacity:1;-inkscape-stroke:none;stop-color:#000" transform="scale(-1)"/><path d="m719.424 352.727 1.993-1.992.825.825v2.335l-.826.825zm21.15.001-1.993-1.993-.826.825v2.335l.826.826zm4.408-.001-1.993-1.992-.825.825v2.335l.825.825zm-6.615 6.165v-2.818H737.2l-1.651 1.65v1.168zm-12.329 0v-2.818h1.168l1.65 1.65v1.168zm12.329-12.329h-2.818v1.168l1.65 1.65h1.168zm-12.329 0v2.819h1.168l1.65-1.651v-1.168zm-2.206 6.165 1.993-1.993.825.825v2.335l-.825.826zm-2.202 6.164h2.818v-1.167l-1.651-1.651h-1.167zm0-12.329h2.818v1.168l-1.651 1.65h-1.167zm21.146 12.329h-2.819v-1.167l1.652-1.651h1.167zm0-12.329h-2.819v1.168l1.652 1.65h1.167z" style="font-variation-settings:normal;fill:none;fill-opacity:1;stroke:#000;stroke-width:.352778;stroke-linecap:butt;stroke-linejoin:miter;stroke-miterlimit:4;stroke-dasharray:none;stroke-dashoffset:0;stroke-opacity:1;stop-color:#000"/><path d="m730.136 356.654.752-.751h2.63l.752.751 1.86-1.86-.752-.751v-2.63l.752-.752-1.86-1.86-.752.752h-2.63l-.752-.752-1.86 1.86.752.752v2.63l-.752.752z" style="font-variation-settings:normal;vector-effect:none;fill:none;fill-opacity:1;stroke:#000;stroke-width:.352777;stroke-linecap:butt;stroke-linejoin:miter;stroke-miterlimit:4;stroke-dasharray:none;stroke-dashoffset:0;stroke-opacity:1;-inkscape-stroke:none;stop-color:#000"/><path d="m671.211 352.727 1.993-1.992.826.825v2.335l-.826.825zm21.151.001-1.993-1.993-.826.825v2.335l.826.826zm4.408-.001-1.993-1.992-.825.825v2.335l.825.825zm-6.615 6.165v-2.818h-1.167l-1.651 1.65v1.168zm-12.329 0v-2.818h1.168l1.65 1.65v1.168zm12.329-12.329h-2.818v1.168l1.65 1.65h1.168zm-12.329 0v2.819h1.168l1.65-1.651v-1.168zm-2.206 6.165 1.993-1.993.825.825v2.335l-.825.826zm-2.202 6.164h2.818v-1.167l-1.651-1.651h-1.168zm0-12.329h2.818v1.168l-1.651 1.65h-1.168zm21.146 12.329h-2.819v-1.167l1.652-1.651h1.167zm0-12.329h-2.819v1.168l1.652 1.65h1.167z" style="font-variation-settings:normal;fill:none;fill-opacity:1;stroke:#000;stroke-width:.352778;stroke-linecap:butt;stroke-linejoin:miter;stroke-miterlimit:4;stroke-dasharray:none;stroke-dashoffset:0;stroke-opacity:1;stop-color:#000"/><path d="m681.924 356.654.752-.751h2.63l.751.751 1.86-1.86-.751-.751v-2.63l.751-.752-1.86-1.86-.751.752h-2.63l-.752-.752-1.86 1.86.752.752v2.63l-.752.752z" style="font-variation-settings:normal;vector-effect:none;fill:none;fill-opacity:1;stroke:#000;stroke-width:.352777;stroke-linecap:butt;stroke-linejoin:miter;stroke-miterlimit:4;stroke-dasharray:none;stroke-dashoffset:0;stroke-opacity:1;-inkscape-stroke:none;stop-color:#000"/><path d="m623 352.727 1.992-1.992.826.825v2.335l-.826.825zm21.15.001-1.993-1.993-.826.825v2.335l.826.826zm4.408-.001-1.993-1.992-.825.825v2.335l.825.825zm-6.615 6.165v-2.818h-1.167l-1.651 1.65v1.168zm-12.329 0v-2.818h1.168l1.65 1.65v1.168zm12.329-12.329h-2.818v1.168l1.65 1.65h1.168zm-12.329 0v2.819h1.168l1.65-1.651v-1.168zm-2.206 6.165 1.993-1.993.825.825v2.335l-.825.826zm-2.202 6.164h2.818v-1.167l-1.651-1.651h-1.168zm0-12.329h2.818v1.168l-1.651 1.65h-1.168zm21.146 12.329h-2.819v-1.167l1.652-1.651h1.167zm0-12.329h-2.819v1.168l1.652 1.65h1.167z" style="font-variation-settings:normal;fill:none;fill-opacity:1;stroke:#000;stroke-width:.352778;stroke-linecap:butt;stroke-linejoin:miter;stroke-miterlimit:4;stroke-dasharray:none;stroke-dashoffset:0;stroke-opacity:1;stop-color:#000"/><path d="m633.712 356.654.752-.751h2.63l.751.751 1.86-1.86-.751-.751v-2.63l.751-.752-1.86-1.86-.751.752h-2.63l-.752-.752-1.86 1.86.752.752v2.63l-.752.752z" style="font-variation-settings:normal;vector-effect:none;fill:none;fill-opacity:1;stroke:#000;stroke-width:.352777;stroke-linecap:butt;stroke-linejoin:miter;stroke-miterlimit:4;stroke-dasharray:none;stroke-dashoffset:0;stroke-opacity:1;-inkscape-stroke:none;stop-color:#000"/><path d="m574.787 352.727 1.993-1.992.826.825v2.335l-.826.825zm21.15.001-1.993-1.993-.825.825v2.335l.826.826zm4.409-.001-1.993-1.992-.826.825v2.335l.826.825zm-6.615 6.165v-2.818h-1.167l-1.651 1.65v1.168zm-12.329 0v-2.818h1.168l1.65 1.65v1.168zm12.329-12.329h-2.818v1.168l1.65 1.65h1.168zm-12.329 0v2.819h1.168l1.65-1.651v-1.168zm-2.206 6.165 1.993-1.993.825.825v2.335l-.825.826zm-2.202 6.164h2.818v-1.167l-1.651-1.651h-1.168zm0-12.329h2.818v1.168l-1.651 1.65h-1.168zm21.146 12.329h-2.819v-1.167l1.651-1.651h1.168zm0-12.329h-2.819v1.168l1.651 1.65h1.168z" style="font-variation-settings:normal;fill:none;fill-opacity:1;stroke:#000;stroke-width:.352778;stroke-linecap:butt;stroke-linejoin:miter;stroke-miterlimit:4;stroke-dasharray:none;stroke-dashoffset:0;stroke-opacity:1;stop-color:#000"/><path d="m585.5 356.654.752-.751h2.63l.751.751 1.86-1.86-.751-.751v-2.63l.751-.752-1.86-1.86-.751.752h-2.63l-.752-.752-1.86 1.86.752.752v2.63l-.752.752z" style="font-variation-settings:normal;vector-effect:none;fill:none;fill-opacity:1;stroke:#000;stroke-width:.352777;stroke-linecap:butt;stroke-linejoin:miter;stroke-miterlimit:4;stroke-dasharray:none;stroke-dashoffset:0;stroke-opacity:1;-inkscape-stroke:none;stop-color:#000"/><path d="m805.213 362.062-1.859 1.86v2.63l1.86 1.86h14.534l1.86-1.86v-2.63l-1.86-1.86zm19.84 0-1.86 1.86v2.63l1.86 1.86h14.534l1.86-1.86v-2.63l-1.86-1.86z" style="font-variation-settings:normal;vector-effect:none;fill:#000;fill-opacity:1;stroke:#000;stroke-width:.352777;stroke-linecap:butt;stroke-linejoin:miter;stroke-miterlimit:4;stroke-dasharray:none;stroke-dashoffset:0;stroke-opacity:1;-inkscape-stroke:none;stop-color:#000"/><text xml:space="preserve" x="814.108" y="371.997" style="font-style:normal;font-variant:normal;font-weight:700;font-stretch:normal;font-size:4.29903px;line-height:1.25;font-family:Arial;-inkscape-font-specification:&quot;Arial Bold&quot;;white-space:pre;display:inline;fill:#fff;stroke:none;stroke-width:.352778;stroke-dasharray:none" transform="scale(1.01553 .9847)"><tspan style="stroke-width:.352778;stroke-dasharray:none">Vigor</tspan></text><text xml:space="preserve" x="793.471" y="372.424" style="font-style:normal;font-variant:normal;font-weight:700;font-stretch:normal;font-size:4.29903px;line-height:1.25;font-family:Arial;-inkscape-font-specification:&quot;Arial Bold&quot;;white-space:pre;display:inline;fill:#fff;stroke:none;stroke-width:.352778;stroke-dasharray:none" transform="scale(1.01553 .9847)"><tspan style="stroke-width:.352778;stroke-dasharray:none">Health</tspan></text><path d="m804.736 369.997-1.382.826v3.99l1.382.827h4.719l4.587-5.232-.689-.411zm15.49 6.35 1.382-.827v-3.99l-1.382-.827h-4.718l-4.587 5.232.688.412zm4.401-6.35-1.382.826v3.99l1.382.827h4.719l4.587-5.232-.689-.411zm15.49 6.35 1.382-.827v-3.99l-1.382-.827H835.4l-4.587 5.232.688.412z" style="font-variation-settings:normal;fill:none;fill-opacity:1;stroke:#000;stroke-width:.352778;stroke-linecap:butt;stroke-linejoin:miter;stroke-miterlimit:4;stroke-dasharray:none;stroke-dashoffset:0;stroke-opacity:1;stop-color:#000"/><path d="m805.203 401.752-1.86 1.86v2.63l1.855 1.855h26.444l1.86-1.86v-2.63l-1.855-1.855h-25.154z" style="font-variation-settings:normal;fill:#000;fill-opacity:1;stroke:#000;stroke-width:.352778;stroke-linecap:butt;stroke-linejoin:miter;stroke-miterlimit:4;stroke-dasharray:none;stroke-dashoffset:0;stroke-opacity:1;stop-color:#000"/><text xml:space="preserve" x="807.831" y="406.415" style="font-style:normal;font-variant:normal;font-weight:700;font-stretch:normal;font-size:4.23334px;line-height:1.25;font-family:Arial;-inkscape-font-specification:&quot;Arial Bold&quot;;white-space:pre;display:inline;fill:#fff;fill-opacity:1;stroke:none;stroke-width:.352778;stroke-dasharray:none"><tspan style="font-style:normal;font-variant:normal;font-weight:700;font-stretch:normal;font-family:Arial;-inkscape-font-specification:&quot;Arial Bold&quot;;fill:#fff;stroke-width:.352778;stroke-dasharray:none">Movement</tspan></text><path fill="none" d="m287.965 159.276-6.133 1.643-4.49-4.49 1.643-6.133 6.134-1.644 4.49 4.49z" style="fill:#fff;fill-opacity:0;stroke:#000;stroke-width:.656592;stroke-dasharray:none" transform="matrix(.55768 -.12941 .14943 .48296 657.02 366.845)"/><path d="m805.208 393.822-1.86 1.86v2.63l1.855 1.855h26.444l1.86-1.86v-2.63l-1.855-1.855h-25.154z" style="font-variation-settings:normal;fill:#000;fill-opacity:1;stroke:#000;stroke-width:.352778;stroke-linecap:butt;stroke-linejoin:miter;stroke-miterlimit:4;stroke-dasharray:none;stroke-dashoffset:0;stroke-opacity:1;stop-color:#000"/><text xml:space="preserve" x="815.229" y="398.51" style="font-style:normal;font-variant:normal;font-weight:700;font-stretch:normal;font-size:4.23334px;line-height:1.25;font-family:Arial;-inkscape-font-specification:&quot;Arial Bold&quot;;white-space:pre;display:inline;fill:#fff;fill-opacity:1;stroke:none;stroke-width:.352778;stroke-dasharray:none"><tspan style="font-style:normal;font-variant:normal;font-weight:700;font-stretch:normal;font-family:Arial;-inkscape-font-specification:&quot;Arial Bold&quot;;fill:#fff;stroke-width:.352778;stroke-dasharray:none">DR</tspan></text><path d="M838.238 400.152c-2.528-1.575-3.2-4.003-3.175-5.5 2.058-1.077 4.168-1.19 6.35 0 .025 1.497-.648 3.926-3.175 5.5z" style="font-variation-settings:normal;fill:none;fill-opacity:1;stroke:#000;stroke-width:.352778;stroke-linecap:butt;stroke-linejoin:miter;stroke-miterlimit:4;stroke-dasharray:none;stroke-dashoffset:0;stroke-opacity:1;stop-color:#000"/><path d="m765.536 362.077-1.86 1.86v2.63l1.86 1.86h34.373l1.86-1.86v-2.63l-1.86-1.86z" style="font-variation-settings:normal;vector-effect:none;fill:#000;fill-opacity:1;stroke:none;stroke-width:.352777;stroke-linecap:butt;stroke-linejoin:miter;stroke-miterlimit:4;stroke-dasharray:none;stroke-dashoffset:0;stroke-opacity:1;-inkscape-stroke:none;stop-color:#000"/><path d="m798.208 362.47-.322.321-.394-.228-.228.395-.44-.118-.118.44h-.456v.455l-.44.118.118.44-.394.227.228.395-.322.322.321.322-.227.394.394.228-.117.44.44.117v.456h.456l.117.44.44-.118.228.394.394-.228.322.322.322-.322.395.228.228-.394.44.118.118-.44h.455v-.455l.44-.118-.118-.44.395-.228-.228-.394.322-.322-.322-.322.227-.394-.394-.228.118-.44-.44-.118v-.455h-.456l-.118-.44-.44.118-.227-.395-.395.228z" style="font-variation-settings:normal;fill:#fff;fill-opacity:1;stroke:#000;stroke-width:.352778;stroke-linecap:butt;stroke-linejoin:miter;stroke-miterlimit:4;stroke-dasharray:none;stroke-dashoffset:0;stroke-opacity:1;stop-color:#000"/><text xml:space="preserve" x="765.16" y="372.448" style="font-style:normal;font-variant:normal;font-weight:700;font-stretch:normal;font-size:4.29903px;line-height:1.25;font-family:Arial;-inkscape-font-specification:&quot;Arial Bold&quot;;white-space:pre;display:inline;fill:#fff;stroke:none;stroke-width:.352778;stroke-dasharray:none" transform="scale(1.01553 .9847)"><tspan style="stroke-width:.352778;stroke-dasharray:none">Skills</tspan></text><text xml:space="preserve" x="770.84" y="374.66" style="font-style:normal;font-variant:normal;font-weight:400;font-stretch:normal;font-size:4.23333px;line-height:1.25;font-family:Arial;-inkscape-font-specification:Arial;white-space:pre;display:inline;fill:#000;fill-opacity:1;stroke:none;stroke-width:.352778;stroke-dasharray:none"><tspan style="stroke-width:.352778;stroke-dasharray:none">Athletics</tspan></text><path d="m765.536 369.997-1.86 1.86v2.63l1.855 1.855h26.444l1.859-1.86v-2.63l-1.855-1.855h-25.154z" style="font-variation-settings:normal;fill:none;fill-opacity:1;stroke:#000;stroke-width:.352778;stroke-linecap:butt;stroke-linejoin:miter;stroke-miterlimit:4;stroke-dasharray:none;stroke-dashoffset:0;stroke-opacity:1;stop-color:#000"/><text xml:space="preserve" x="770.553" y="382.614" style="font-style:normal;font-variant:normal;font-weight:400;font-stretch:normal;font-size:4.23333px;line-height:1.25;font-family:Arial;-inkscape-font-specification:Arial;white-space:pre;display:inline;fill:#000;fill-opacity:1;stroke:none;stroke-width:.352778;stroke-dasharray:none"><tspan style="stroke-width:.352778;stroke-dasharray:none">Convince</tspan></text><path d="m765.53 377.927-1.86 1.86v2.63l1.856 1.854h26.443l1.86-1.86v-2.63l-1.855-1.854H766.82z" style="font-variation-settings:normal;fill:none;fill-opacity:1;stroke:#000;stroke-width:.352778;stroke-linecap:butt;stroke-linejoin:miter;stroke-miterlimit:4;stroke-dasharray:none;stroke-dashoffset:0;stroke-opacity:1;stop-color:#000"/><text xml:space="preserve" x="773.065" y="390.544" style="font-style:normal;font-variant:normal;font-weight:400;font-stretch:normal;font-size:4.23333px;line-height:1.25;font-family:Arial;-inkscape-font-specification:Arial;white-space:pre;display:inline;fill:#000;fill-opacity:1;stroke:none;stroke-width:.352778;stroke-dasharray:none"><tspan style="stroke-width:.352778;stroke-dasharray:none">Covert</tspan></text><path d="m765.526 385.856-1.86 1.86v2.63l1.854 1.855h26.444l1.86-1.86v-2.63l-1.855-1.855h-25.154z" style="font-variation-settings:normal;fill:none;fill-opacity:1;stroke:#000;stroke-width:.352778;stroke-linecap:butt;stroke-linejoin:miter;stroke-miterlimit:4;stroke-dasharray:none;stroke-dashoffset:0;stroke-opacity:1;stop-color:#000"/><text xml:space="preserve" x="771.887" y="398.449" style="font-style:normal;font-variant:normal;font-weight:400;font-stretch:normal;font-size:4.23333px;line-height:1.25;font-family:Arial;-inkscape-font-specification:Arial;white-space:pre;display:inline;fill:#000;fill-opacity:1;stroke:none;stroke-width:.352778;stroke-dasharray:none"><tspan style="stroke-width:.352778;stroke-dasharray:none">Finesse</tspan></text><path d="m765.52 393.786-1.86 1.86v2.63l1.855 1.855h26.444l1.86-1.86v-2.63l-1.855-1.855H766.81z" style="font-variation-settings:normal;fill:none;fill-opacity:1;stroke:#000;stroke-width:.352778;stroke-linecap:butt;stroke-linejoin:miter;stroke-miterlimit:4;stroke-dasharray:none;stroke-dashoffset:0;stroke-opacity:1;stop-color:#000"/><text xml:space="preserve" x="772.961" y="405.958" style="font-style:normal;font-variant:normal;font-weight:400;font-stretch:normal;font-size:4.23333px;line-height:1.25;font-family:Arial;-inkscape-font-specification:Arial;white-space:pre;display:inline;fill:#000;fill-opacity:1;stroke:none;stroke-width:.352778;stroke-dasharray:none"><tspan style="stroke-width:.352778;stroke-dasharray:none">Insight</tspan></text><path d="m765.515 401.716-1.86 1.86v2.63l1.855 1.855h26.444l1.86-1.86v-2.63l-1.855-1.855h-25.154z" style="font-variation-settings:normal;fill:none;fill-opacity:1;stroke:#000;stroke-width:.352778;stroke-linecap:butt;stroke-linejoin:miter;stroke-miterlimit:4;stroke-dasharray:none;stroke-dashoffset:0;stroke-opacity:1;stop-color:#000"/><text xml:space="preserve" x="770.088" y="414.308" style="font-style:normal;font-variant:normal;font-weight:400;font-stretch:normal;font-size:4.23333px;line-height:1.25;font-family:Arial;-inkscape-font-specification:Arial;white-space:pre;display:inline;fill:#000;fill-opacity:1;stroke:none;stroke-width:.352778;stroke-dasharray:none"><tspan style="stroke-width:.352778;stroke-dasharray:none">Intimidate</tspan></text><path d="m765.51 409.646-1.86 1.86v2.63l1.855 1.855h26.444l1.86-1.86v-2.63l-1.856-1.855H766.8z" style="font-variation-settings:normal;fill:none;fill-opacity:1;stroke:#000;stroke-width:.352778;stroke-linecap:butt;stroke-linejoin:miter;stroke-miterlimit:4;stroke-dasharray:none;stroke-dashoffset:0;stroke-opacity:1;stop-color:#000"/><text xml:space="preserve" x="770.829" y="422.238" style="font-style:normal;font-variant:normal;font-weight:400;font-stretch:normal;font-size:4.23333px;line-height:1.25;font-family:Arial;-inkscape-font-specification:Arial;white-space:pre;display:inline;fill:#000;fill-opacity:1;stroke:none;stroke-width:.352778;stroke-dasharray:none"><tspan style="stroke-width:.352778;stroke-dasharray:none">Medicine</tspan></text><path d="m765.505 417.576-1.86 1.86v2.63l1.855 1.854h26.444l1.859-1.86v-2.63l-1.855-1.854h-25.154z" style="font-variation-settings:normal;fill:none;fill-opacity:1;stroke:#000;stroke-width:.352778;stroke-linecap:butt;stroke-linejoin:miter;stroke-miterlimit:4;stroke-dasharray:none;stroke-dashoffset:0;stroke-opacity:1;stop-color:#000"/><text xml:space="preserve" x="768.06" y="430.168" style="font-style:normal;font-variant:normal;font-weight:400;font-stretch:normal;font-size:4.23333px;line-height:1.25;font-family:Arial;-inkscape-font-specification:Arial;white-space:pre;display:inline;fill:#000;fill-opacity:1;stroke:none;stroke-width:.352778;stroke-dasharray:none"><tspan style="stroke-width:.352778;stroke-dasharray:none">Misdirection</tspan></text><path d="m765.5 425.505-1.86 1.86v2.63l1.855 1.855h26.443l1.86-1.86v-2.63l-1.855-1.855H766.79z" style="font-variation-settings:normal;fill:none;fill-opacity:1;stroke:#000;stroke-width:.352778;stroke-linecap:butt;stroke-linejoin:miter;stroke-miterlimit:4;stroke-dasharray:none;stroke-dashoffset:0;stroke-opacity:1;stop-color:#000"/><text xml:space="preserve" x="769.221" y="437.702" style="font-style:normal;font-variant:normal;font-weight:400;font-stretch:normal;font-size:4.23333px;line-height:1.25;font-family:Arial;-inkscape-font-specification:Arial;white-space:pre;display:inline;fill:#000;fill-opacity:1;stroke:none;stroke-width:.352778;stroke-dasharray:none"><tspan style="stroke-width:.352778;stroke-dasharray:none">Perception</tspan></text><path d="m765.495 433.435-1.86 1.86v2.63l1.854 1.855h26.444l1.86-1.86v-2.63l-1.855-1.855h-25.154z" style="font-variation-settings:normal;fill:none;fill-opacity:1;stroke:#000;stroke-width:.352778;stroke-linecap:butt;stroke-linejoin:miter;stroke-miterlimit:4;stroke-dasharray:none;stroke-dashoffset:0;stroke-opacity:1;stop-color:#000"/><text xml:space="preserve" x="770.272" y="446.028" style="font-style:normal;font-variant:normal;font-weight:400;font-stretch:normal;font-size:4.23333px;line-height:1.25;font-family:Arial;-inkscape-font-specification:Arial;white-space:pre;display:inline;fill:#000;fill-opacity:1;stroke:none;stroke-width:.352778;stroke-dasharray:none"><tspan style="stroke-width:.352778;stroke-dasharray:none">Research</tspan></text><path d="m765.49 441.365-1.86 1.86v2.63l1.854 1.855h26.444l1.86-1.86v-2.63l-1.855-1.855h-25.154z" style="font-variation-settings:normal;fill:none;fill-opacity:1;stroke:#000;stroke-width:.352778;stroke-linecap:butt;stroke-linejoin:miter;stroke-miterlimit:4;stroke-dasharray:none;stroke-dashoffset:0;stroke-opacity:1;stop-color:#000"/><text xml:space="preserve" x="771.874" y="453.982" style="font-style:normal;font-variant:normal;font-weight:400;font-stretch:normal;font-size:4.23333px;line-height:1.25;font-family:Arial;-inkscape-font-specification:Arial;white-space:pre;display:inline;fill:#000;fill-opacity:1;stroke:none;stroke-width:.352778;stroke-dasharray:none"><tspan style="stroke-width:.352778;stroke-dasharray:none">Survival</tspan></text><path d="m765.484 449.295-1.86 1.86v2.63l1.855 1.855h26.444l1.86-1.86v-2.63l-1.855-1.855h-25.154z" style="font-variation-settings:normal;fill:none;fill-opacity:1;stroke:#000;stroke-width:.352778;stroke-linecap:butt;stroke-linejoin:miter;stroke-miterlimit:4;stroke-dasharray:none;stroke-dashoffset:0;stroke-opacity:1;stop-color:#000"/><text xml:space="preserve" x="765.511" y="461.407" style="font-style:normal;font-variant:normal;font-weight:400;font-stretch:normal;font-size:2.82222px;line-height:1.25;font-family:Arial;-inkscape-font-specification:Arial;white-space:pre;display:inline;fill:#000;fill-opacity:1;stroke:none;stroke-width:.352778;stroke-dasharray:none"><tspan style="font-size:2.82222px;stroke-width:.352778;stroke-dasharray:none">SP:</tspan></text><path d="m765.479 457.224-1.86 1.86v2.63l1.855 1.855h26.444l1.86-1.86v-2.63l-1.856-1.855h-25.154z" style="font-variation-settings:normal;fill:none;fill-opacity:1;stroke:#000;stroke-width:.352778;stroke-linecap:butt;stroke-linejoin:miter;stroke-miterlimit:4;stroke-dasharray:none;stroke-dashoffset:0;stroke-opacity:1;stop-color:#000"/><path d="M839.825 385.862h-3.175l-1.588 1.587v3.175l3.175 1.588 3.175-1.588v-3.175z" style="font-variation-settings:normal;vector-effect:none;fill:none;fill-opacity:1;stroke:#000;stroke-width:.352777;stroke-linecap:butt;stroke-linejoin:miter;stroke-miterlimit:4;stroke-dasharray:none;stroke-dashoffset:0;stroke-opacity:1;-inkscape-stroke:none;stop-color:#000"/><path d="m805.214 385.892-1.86 1.86v2.63l1.854 1.855h26.444l1.86-1.86v-2.63l-1.855-1.855h-25.154z" style="font-variation-settings:normal;fill:#000;fill-opacity:1;stroke:#000;stroke-width:.352778;stroke-linecap:butt;stroke-linejoin:miter;stroke-miterlimit:4;stroke-dasharray:none;stroke-dashoffset:0;stroke-opacity:1;stop-color:#000"/><path d="m686.007 465.154-1.86 1.86v6.35l1.86-1.86 25.03-.005-1.855-1.855v-2.63l1.86-1.86z" style="font-variation-settings:normal;vector-effect:none;fill:#000;fill-opacity:1;stroke:#000;stroke-width:.352777;stroke-linecap:butt;stroke-linejoin:miter;stroke-miterlimit:4;stroke-dasharray:none;stroke-dashoffset:0;stroke-opacity:1;-inkscape-stroke:none;stop-color:#000"/><text xml:space="preserve" x="687.327" y="469.399" style="font-style:normal;font-variant:normal;font-weight:700;font-stretch:normal;font-size:4.23333px;line-height:1.25;font-family:Arial;-inkscape-font-specification:&quot;Arial Bold&quot;;white-space:pre;display:inline;fill:#fff;stroke:none;stroke-width:.352778;stroke-dasharray:none"><tspan style="fill:#fff;stroke:none;stroke-width:.352778;stroke-dasharray:none">Archetype</tspan></text><path d="m711.042 465.154-1.86 1.86v2.63l1.854 1.855h32.839l3.15.005v-.005h11.854l3.15.005v-4.495l-1.855-1.855H712.33zm0-103.077-1.86 1.86v4.204l1.855 1.855h32.839l3.149.005v-.005h11.855l3.15.005v-6.069l-1.856-1.855h-47.843z" style="font-variation-settings:normal;fill:none;fill-opacity:1;stroke:#000;stroke-width:.352778;stroke-linecap:butt;stroke-linejoin:miter;stroke-miterlimit:4;stroke-dasharray:none;stroke-dashoffset:0;stroke-opacity:1;stop-color:#000"/><text xml:space="preserve" x="812.055" y="390.555" style="font-style:normal;font-variant:normal;font-weight:700;font-stretch:normal;font-size:4.23333px;line-height:1.25;font-family:Arial;-inkscape-font-specification:&quot;Arial Bold&quot;;white-space:pre;display:inline;fill:#fff;fill-opacity:1;stroke:none;stroke-width:.352778;stroke-dasharray:none"><tspan style="fill:#fff;stroke-width:.352778;stroke-dasharray:none">Armor</tspan></text><path d="m805.198 409.681-1.86 1.86v6.35l1.86-1.86-.005-.005h34.442l1.86 1.86v-6.35l-1.855-1.855h-27.122z" style="font-variation-settings:normal;vector-effect:none;fill:#000;fill-opacity:1;stroke:#000;stroke-width:.264583;stroke-linecap:butt;stroke-linejoin:miter;stroke-miterlimit:4;stroke-dasharray:none;stroke-dashoffset:0;stroke-opacity:1;-inkscape-stroke:none;stop-color:#000"/><text xml:space="preserve" x="808.795" y="413.926" style="font-style:normal;font-variant:normal;font-weight:700;font-stretch:normal;font-size:4.23333px;line-height:1.25;font-family:Arial;-inkscape-font-specification:&quot;Arial Bold&quot;;white-space:pre;display:inline;fill:#fff;fill-opacity:1;stroke:none;stroke-width:.352778;stroke-dasharray:none"><tspan style="stroke-width:.352778;stroke-dasharray:none">Inventory</tspan></text><path d="m833.496 416.026-30.157.005v45.76l1.922 1.778h34.374l1.86-1.86v-45.683h-6.414z" style="font-variation-settings:normal;vector-effect:none;fill:none;fill-opacity:1;stroke:#000;stroke-width:.264583;stroke-linecap:butt;stroke-linejoin:miter;stroke-miterlimit:4;stroke-dasharray:none;stroke-dashoffset:0;stroke-opacity:1;-inkscape-stroke:none;stop-color:#000"/><path d="m837.09 410.088-.599 1.022-1.023.6v2.293l1.023.6.6 1.022h2.293l.599-1.023 1.023-.599v-2.293l-1.023-.6-.6-1.022h-1.146z" style="font-variation-settings:normal;fill:#fff;fill-opacity:1;stroke:#000;stroke-width:.352778;stroke-linecap:butt;stroke-linejoin:miter;stroke-miterlimit:4;stroke-dasharray:none;stroke-dashoffset:0;stroke-opacity:1;stop-color:#000"/><text xml:space="preserve" x="765.983" y="482.517" style="font-style:normal;font-variant:normal;font-weight:700;font-stretch:normal;font-size:4.23333px;line-height:1.25;font-family:Arial;-inkscape-font-specification:&quot;Arial Bold&quot;;white-space:pre;display:inline;fill:#000;fill-opacity:1;stroke:none;stroke-width:.352778;stroke-dasharray:none"><tspan style="font-style:normal;font-variant:normal;font-weight:700;font-stretch:normal;font-family:Arial;-inkscape-font-specification:&quot;Arial Bold&quot;;stroke-width:.352778;stroke-dasharray:none">Attribute: </tspan></text><text xml:space="preserve" x="809.749" y="482.324" style="font-style:normal;font-variant:normal;font-weight:700;font-stretch:normal;font-size:4.23333px;line-height:1.25;font-family:Arial;-inkscape-font-specification:&quot;Arial Bold&quot;;white-space:pre;display:inline;fill:#000;fill-opacity:1;stroke:none;stroke-width:.352778;stroke-dasharray:none"><tspan style="font-style:normal;font-variant:normal;font-weight:700;font-stretch:normal;font-family:Arial;-inkscape-font-specification:&quot;Arial Bold&quot;;stroke-width:.352778;stroke-dasharray:none">Damage: </tspan></text><path d="M804.929 424.713h34.975m-34.974 7.93h34.972m-34.969 7.929H839.9m-34.962 7.93h34.957m-34.957 7.93h34.957" style="font-variation-settings:normal;vector-effect:none;fill:none;fill-opacity:1;stroke:#000;stroke-width:.264583;stroke-linecap:butt;stroke-linejoin:miter;stroke-miterlimit:4;stroke-dasharray:1.05833,.264583;stroke-dashoffset:0;stroke-opacity:.25;-inkscape-stroke:none;stop-color:#000"/><text xml:space="preserve" x="765.983" y="488.877" style="font-style:normal;font-variant:normal;font-weight:700;font-stretch:normal;font-size:4.23333px;line-height:1.25;font-family:Arial;-inkscape-font-specification:&quot;Arial Bold&quot;;white-space:pre;display:inline;fill:#000;fill-opacity:1;stroke:none;stroke-width:.352778;stroke-dasharray:none"><tspan style="font-style:normal;font-variant:normal;font-weight:700;font-stretch:normal;font-family:Arial;-inkscape-font-specification:&quot;Arial Bold&quot;;stroke-width:.352778;stroke-dasharray:none">Armament &amp; Role: </tspan></text><text xml:space="preserve" x="765.878" y="495.207" style="font-style:normal;font-variant:normal;font-weight:700;font-stretch:normal;font-size:4.23333px;line-height:1.25;font-family:Arial;-inkscape-font-specification:&quot;Arial Bold&quot;;white-space:pre;display:inline;fill:#000;fill-opacity:1;stroke:none;stroke-width:.352778;stroke-dasharray:none"><tspan style="font-style:normal;font-variant:normal;font-weight:700;font-stretch:normal;font-family:Arial;-inkscape-font-specification:&quot;Arial Bold&quot;;stroke-width:.352778;stroke-dasharray:none">Traits:</tspan></text><path d="M685.732 477.85h74.696m-74.426-101.504H760.7m-74.703 6.345h74.697m-74.702 6.345h74.696m-74.701 6.345h74.696m-74.701 6.345h74.696m-74.702 6.345h74.697m-74.702 6.345h74.697m-74.702 6.345h74.697m-74.703 6.345h74.697m-74.701 6.345h74.696m-74.702 6.345h74.697m-74.702 6.345h74.697m-74.702 6.345h74.697m-74.702 6.345h74.697m-74.905 25.363h74.696m-74.701 6.345h74.696m4.759 12.69h74.697" style="font-variation-settings:normal;vector-effect:none;fill:none;fill-opacity:1;stroke:#000;stroke-width:.264583;stroke-linecap:butt;stroke-linejoin:miter;stroke-miterlimit:4;stroke-dasharray:1.05833,.264583;stroke-dashoffset:0;stroke-opacity:.25;-inkscape-stroke:none;stop-color:#000"/><path d="M765.198 477.85H839.9m-74.706 6.349h74.702m-74.701 6.322h74.701" style="font-variation-settings:normal;vector-effect:none;fill:none;fill-opacity:1;stroke:#000;stroke-width:.264581;stroke-linecap:butt;stroke-linejoin:miter;stroke-miterlimit:4;stroke-dasharray:1.05833,.264581;stroke-dashoffset:0;stroke-opacity:.25;-inkscape-stroke:none;stop-color:#000"/><path d="M765.172 509.573h74.697m-74.702 6.345h74.697m-74.702 6.345h74.697m-74.702 6.345h74.697m-74.702 6.345h74.697m-154.133-38.069h74.697m-74.702 6.345h74.697m-74.702 6.344h74.697m-74.702 6.345h74.697m-74.702 6.345h74.697m-74.702 6.345h74.697m-74.702 6.345h74.697" style="font-variation-settings:normal;vector-effect:none;fill:none;fill-opacity:1;stroke:#000;stroke-width:.264583;stroke-linecap:butt;stroke-linejoin:miter;stroke-miterlimit:4;stroke-dasharray:1.05833,.264583;stroke-dashoffset:0;stroke-opacity:.25;-inkscape-stroke:none;stop-color:#000"/><path d="M576.43 376.365H681.1m-104.678 6.345h104.67m-104.677 6.344h104.67M576.407 395.4h104.67M576.4 401.744h104.67m-104.677 6.345h104.67m-104.677 6.345h104.67m-104.678 6.345h104.67m-104.677 6.344h104.67m-104.677 6.345h104.67m-104.677 6.345h104.67m-104.677 6.345h104.67m-104.678 6.345h104.67m-104.677 6.345h104.67m-104.677 6.344h104.67m-104.678 6.345h104.67m-104.677 6.345h104.67m-104.677 6.345h104.67m-104.677 6.345h104.67m-104.677 6.345h104.67m-104.678 6.344h104.67m-104.677 6.345h104.67m-104.677 6.345h104.67m-104.677 6.345h104.67m-104.678 6.344h104.67m-104.677 6.346h104.67" style="font-variation-settings:normal;vector-effect:none;fill:none;fill-opacity:1;stroke:#000;stroke-width:.264582;stroke-linecap:butt;stroke-linejoin:miter;stroke-miterlimit:4;stroke-dasharray:1.05833,.264582;stroke-dashoffset:0;stroke-opacity:.25;-inkscape-stroke:none;stop-color:#000"/><path d="m797.078 373.17-.83.829-.83-.83.83-.83zm2.345 0-.83.829-.828-.83.829-.83zm2.346 0-.83.829-.829-.83.83-.83zm-4.697 7.926-.829.83-.83-.83.83-.829zm2.346 0-.83.83-.829-.83.83-.829zm2.346 0-.83.83-.829-.83.83-.829zm-4.697 7.93-.83.83-.828-.83.829-.83zm2.346 0-.83.83-.829-.83.83-.83zm2.346 0-.83.83-.83-.83.83-.83zm-4.697 7.927-.83.83-.829-.83.83-.829zm2.346 0-.83.83-.829-.83.83-.829zm2.345 0-.829.83-.83-.83.83-.829zm-4.696 7.933-.83.83-.829-.83.83-.83zm2.346 0-.83.83-.83-.83.83-.83zm2.345 0-.83.83-.828-.83.829-.83zm-4.696 7.927-.83.83-.829-.83.83-.83zm2.345 0-.829.83-.83-.83.83-.83zm2.346 0-.83.83-.829-.83.83-.83zm-4.696 7.93-.83.83-.83-.83.83-.83zm2.345 0-.83.83-.828-.83.829-.83zm2.346 0-.83.83-.829-.83.83-.83zm-4.697 7.927-.829.83-.83-.83.83-.83zm2.346 0-.83.83-.829-.83.83-.83zm2.346 0-.83.83-.829-.83.83-.83zm-4.697 7.935-.83.83-.828-.83.829-.83zm2.346 0-.83.83-.829-.83.83-.83zm2.346 0-.83.83-.83-.83.83-.83zm-4.697 7.927-.83.83-.829-.83.83-.83zm2.346 0-.83.83-.829-.83.83-.83zm2.345 0-.829.83-.83-.83.83-.83zm-4.696 7.93-.83.83-.829-.83.83-.83zm2.345 0-.829.83-.83-.83.83-.83zm2.346 0-.83.83-.828-.83.829-.83zm-4.697 7.928-.829.828-.829-.829.83-.83zm2.346 0-.829.828-.83-.829.83-.83zm2.346 0-.83.828-.829-.829.83-.83z" style="font-variation-settings:normal;vector-effect:none;fill:none;fill-opacity:1;stroke:#000;stroke-width:.264583;stroke-linecap:butt;stroke-linejoin:miter;stroke-miterlimit:4;stroke-dasharray:none;stroke-dashoffset:0;stroke-opacity:1;-inkscape-stroke:none;stop-color:#000"/><text xml:space="preserve" x="685.422" y="374.667" style="font-style:normal;font-variant:normal;font-weight:700;font-stretch:normal;font-size:4.23333px;line-height:1.25;font-family:Arial;-inkscape-font-specification:&quot;Arial Bold&quot;;white-space:pre;display:inline;fill:#000;fill-opacity:1;stroke:none;stroke-width:.352778;stroke-dasharray:none"><tspan style="font-style:normal;font-variant:normal;font-weight:700;font-stretch:normal;font-family:Arial;-inkscape-font-specification:&quot;Arial Bold&quot;;stroke-width:.352778;stroke-dasharray:none">Bio: </tspan></text><text xml:space="preserve" x="685.422" y="406.418" style="font-style:normal;font-variant:normal;font-weight:700;font-stretch:normal;font-size:4.23333px;line-height:1.25;font-family:Arial;-inkscape-font-specification:&quot;Arial Bold&quot;;white-space:pre;display:inline;fill:#000;fill-opacity:1;stroke:none;stroke-width:.352778;stroke-dasharray:none"><tspan style="font-style:normal;font-variant:normal;font-weight:700;font-stretch:normal;font-family:Arial;-inkscape-font-specification:&quot;Arial Bold&quot;;stroke-width:.352778;stroke-dasharray:none">Beliefs:</tspan></text><text xml:space="preserve" x="685.507" y="438.142" style="font-style:normal;font-variant:normal;font-weight:700;font-stretch:normal;font-size:4.23333px;line-height:1.25;font-family:Arial;-inkscape-font-specification:&quot;Arial Bold&quot;;white-space:pre;display:inline;fill:#000;fill-opacity:1;stroke:none;stroke-width:.352778;stroke-dasharray:none"><tspan style="font-style:normal;font-variant:normal;font-weight:700;font-stretch:normal;font-family:Arial;-inkscape-font-specification:&quot;Arial Bold&quot;;stroke-width:.352778;stroke-dasharray:none">Goals:</tspan></text><path d="M765.182 496.884h74.702" style="font-variation-settings:normal;vector-effect:none;fill:none;fill-opacity:1;stroke:#000;stroke-width:.264581;stroke-linecap:butt;stroke-linejoin:miter;stroke-miterlimit:4;stroke-dasharray:1.05833,.264581;stroke-dashoffset:0;stroke-opacity:.25;-inkscape-stroke:none;stop-color:#000"/></g></svg>