<svg xmlns="http://www.w3.org/2000/svg" xml:space="preserve" width="1056" height="816" viewBox="0 0 279.4 215.9"><path d="M279.4 0v215.9H0V0Z" style="font-variation-settings:normal;display:inline;fill:#fff;fill-opacity:1;fill-rule:evenodd;stroke:none;stroke-width:.352778;stroke-linecap:butt;stroke-linejoin:miter;stroke-miterlimit:4;stroke-dasharray:none;stroke-dashoffset:0;stroke-opacity:1;stop-color:#000"/><path d="m236.676 23.147-1.86 1.86v2.63l1.86 1.86h14.535l1.86-1.86v-2.63l-1.86-1.86zm19.839 0-1.859 1.86v2.63l1.86 1.86h14.534l1.86-1.86v-2.63l-1.86-1.86z"/><text xml:space="preserve" x="254.267" y="27.818" style="font-style:normal;font-variant:normal;font-weight:700;font-stretch:normal;font-size:4.29903px;line-height:1.25;font-family:Arial;-inkscape-font-specification:&quot;Arial Bold&quot;;white-space:pre;display:inline;fill:#fff;stroke:none;stroke-width:.352778;stroke-dasharray:none" transform="scale(1.01553 .9847)"><tspan style="stroke-width:.352778;stroke-dasharray:none">Vigor</tspan></text><text xml:space="preserve" x="233.631" y="28.245" style="font-style:normal;font-variant:normal;font-weight:700;font-stretch:normal;font-size:4.29903px;line-height:1.25;font-family:Arial;-inkscape-font-specification:&quot;Arial Bold&quot;;white-space:pre;display:inline;fill:#fff;stroke:none;stroke-width:.352778;stroke-dasharray:none" transform="scale(1.01553 .9847)"><tspan style="stroke-width:.352778;stroke-dasharray:none">Health</tspan></text><path d="m196.939 23.162-1.86 1.86v2.63l1.86 1.86h34.373l1.86-1.86v-2.63l-1.86-1.86z"/><text xml:space="preserve" x="205.261" y="28.284" style="font-style:normal;font-variant:normal;font-weight:700;font-stretch:normal;font-size:4.29903px;line-height:1.25;font-family:Arial;-inkscape-font-specification:&quot;Arial Bold&quot;;white-space:pre;display:inline;fill:#fff;stroke:none;stroke-width:.352778;stroke-dasharray:none" transform="scale(1.01553 .9847)"><tspan style="stroke-width:.352778;stroke-dasharray:none">Skills</tspan></text><text xml:space="preserve" x="202.244" y="35.763" style="font-style:normal;font-variant:normal;font-weight:400;font-stretch:normal;font-size:4.23333px;line-height:1.25;font-family:Arial;-inkscape-font-specification:Arial;white-space:pre;display:inline;fill:#000;fill-opacity:1;stroke:none;stroke-width:.352778;stroke-dasharray:none"><tspan style="stroke-width:.352778;stroke-dasharray:none">Athletics</tspan></text><path d="m228.114 33.822-1.42 1.42 1.42 1.418 1.42-1.418zm0 .375 1.045 1.045-1.045 1.045-1.045-1.045zm1.943-2.318-1.42 1.42 1.42 1.418 1.418-1.418zm0 .375 1.045 1.045-1.045 1.045-1.045-1.045zM232 33.822l-1.42 1.42L232 36.66l1.418-1.418zm0 .375 1.045 1.045L232 36.287l-1.044-1.045z"/><text xml:space="preserve" x="201.317" y="43.72" style="font-style:normal;font-variant:normal;font-weight:400;font-stretch:normal;font-size:4.23333px;line-height:1.25;font-family:Arial;-inkscape-font-specification:Arial;white-space:pre;display:inline;fill:#000;fill-opacity:1;stroke:none;stroke-width:.352778;stroke-dasharray:none"><tspan style="stroke-width:.352778;stroke-dasharray:none">Convince</tspan></text><path d="m196.82 38.856-1.963 1.964v2.776l1.959 1.959h26.634l1.964-1.965v-2.775l-1.958-1.96h-25.273zm.148.353h26.341l1.752 1.752v2.484l-1.756 1.756H196.96l-1.75-1.752v-2.484zm31.146 2.547-1.42 1.418 1.42 1.42 1.42-1.42zm0 .373 1.045 1.045-1.045 1.045-1.045-1.045zm1.943-2.316-1.42 1.418 1.42 1.42 1.418-1.42zm0 .373 1.045 1.045-1.045 1.044-1.045-1.044zm1.943 1.57-1.42 1.418 1.42 1.42 1.418-1.42zm0 .373 1.045 1.045L232 44.219l-1.044-1.045z"/><text xml:space="preserve" x="203.834" y="51.653" style="font-style:normal;font-variant:normal;font-weight:400;font-stretch:normal;font-size:4.23333px;line-height:1.25;font-family:Arial;-inkscape-font-specification:Arial;white-space:pre;display:inline;fill:#000;fill-opacity:1;stroke:none;stroke-width:.352778;stroke-dasharray:none"><tspan style="stroke-width:.352778;stroke-dasharray:none">Covert</tspan></text><path d="m196.82 46.79-1.963 1.962v2.775l1.959 1.96h26.634l1.964-1.963v-2.778l-1.958-1.957h-25.273zm.148.35h26.341l1.752 1.753v2.484l-1.756 1.756H196.96l-1.75-1.752v-2.482zm71.109-.347-1.692 1.691v3.358l3.352 1.676 3.351-1.676v-3.358l-1.691-1.691zm.146.354h3.027l1.485 1.484v2.992l-2.998 1.5-2.998-1.5v-2.992zm-31.547-.182-1.86 1.86v2.63l1.855 1.855h26.444l1.86-1.86v-2.63l-1.855-1.855h-25.154z"/><text xml:space="preserve" x="243.518" y="51.628" style="font-style:normal;font-variant:normal;font-weight:700;font-stretch:normal;font-size:4.23333px;line-height:1.25;font-family:Arial;-inkscape-font-specification:&quot;Arial Bold&quot;;white-space:pre;display:inline;fill:#fff;fill-opacity:1;stroke:none;stroke-width:.352778;stroke-dasharray:none"><tspan style="fill:#fff;stroke-width:.352778;stroke-dasharray:none">Armor</tspan></text><path d="m228.114 49.688-1.42 1.418 1.42 1.42 1.42-1.42zm0 .375 1.045 1.044-1.045 1.043-1.045-1.043zm1.943-2.319-1.42 1.42 1.42 1.418 1.418-1.418zm0 .375 1.045 1.043-1.045 1.045-1.045-1.045zM232 49.688l-1.42 1.418 1.42 1.42 1.418-1.42zm0 .375 1.045 1.044L232 52.15l-1.044-1.043zm4.671 4.834-1.86 1.86v2.63l1.855 1.855h26.444l1.86-1.86v-2.63l-1.855-1.855H237.96z"/><text xml:space="preserve" x="246.692" y="59.585" style="font-style:normal;font-variant:normal;font-weight:700;font-stretch:normal;font-size:4.23334px;line-height:1.25;font-family:Arial;-inkscape-font-specification:&quot;Arial Bold&quot;;white-space:pre;display:inline;fill:#fff;fill-opacity:1;stroke:none;stroke-width:.352778;stroke-dasharray:none"><tspan style="font-style:normal;font-variant:normal;font-weight:700;font-stretch:normal;font-family:Arial;-inkscape-font-specification:&quot;Arial Bold&quot;;fill:#fff;stroke-width:.352778;stroke-dasharray:none">DR</tspan></text><text xml:space="preserve" x="202.661" y="59.56" style="font-style:normal;font-variant:normal;font-weight:400;font-stretch:normal;font-size:4.23333px;line-height:1.25;font-family:Arial;-inkscape-font-specification:Arial;white-space:pre;display:inline;fill:#000;fill-opacity:1;stroke:none;stroke-width:.352778;stroke-dasharray:none"><tspan style="stroke-width:.352778;stroke-dasharray:none">Finesse</tspan></text><path d="m196.82 54.72-1.963 1.964v2.777l1.959 1.957h26.634l1.964-1.963V56.68l-1.958-1.96h-25.273zm.146.354h26.343l1.752 1.75v2.485l-1.756 1.757H196.96l-1.75-1.751V56.83zm31.148 2.551-1.42 1.418 1.42 1.42 1.42-1.418zm0 .375 1.045 1.045-1.045 1.043-1.045-1.043zm1.943-2.318-1.42 1.42 1.42 1.418 1.418-1.418zm0 .375 1.045 1.045-1.045 1.043-1.045-1.043zM232 57.625l-1.42 1.418 1.42 1.42 1.418-1.418zm0 .375 1.045 1.045L232 60.088l-1.044-1.043zm4.671 4.83-1.86 1.86v2.63l1.855 1.855h26.444l1.86-1.86v-2.63l-1.855-1.855H237.96z"/><text xml:space="preserve" x="242.31" y="67.492" style="font-style:normal;font-variant:normal;font-weight:700;font-stretch:normal;font-size:4.23334px;line-height:1.25;font-family:Arial;-inkscape-font-specification:&quot;Arial Bold&quot;;white-space:pre;display:inline;fill:#fff;fill-opacity:1;stroke:none;stroke-width:.352778;stroke-dasharray:none"><tspan style="font-style:normal;font-variant:normal;font-weight:700;font-stretch:normal;font-family:Arial;-inkscape-font-specification:&quot;Arial Bold&quot;;fill:#fff;stroke-width:.352778;stroke-dasharray:none">Dashes</tspan></text><path fill="none" d="m272.907 67.618-3.175 1.587-3.175-1.587v-3.175l3.175-1.588 3.175 1.588z" style="fill:#fff;fill-opacity:0;stroke-width:.537286"/><path d="m269.732 62.665-3.365 1.683v3.365l3.365 1.682 3.364-1.683v-3.364zm0 .38 2.985 1.493v2.985l-2.985 1.493-2.986-1.492.001-2.986z" style="stroke-width:.537286"/><text xml:space="preserve" x="203.74" y="67.072" style="font-style:normal;font-variant:normal;font-weight:400;font-stretch:normal;font-size:4.23333px;line-height:1.25;font-family:Arial;-inkscape-font-specification:Arial;white-space:pre;display:inline;fill:#000;fill-opacity:1;stroke:none;stroke-width:.352778;stroke-dasharray:none"><tspan style="stroke-width:.352778;stroke-dasharray:none">Insight</tspan></text><path d="m196.82 62.652-1.963 1.965v2.776l1.959 1.959h26.634l1.964-1.963V64.61l-1.958-1.959h-25.273zm.148.354h26.341l1.752 1.752v2.484l-1.756 1.756H196.96l-1.75-1.752v-2.484zm31.146 2.551-1.42 1.42 1.42 1.418 1.42-1.418zm0 .375 1.045 1.045-1.045 1.045-1.045-1.045zm1.943-2.319-1.42 1.42 1.42 1.418 1.418-1.418zm0 .375 1.045 1.045-1.045 1.045-1.045-1.045zM232 65.557l-1.42 1.42 1.42 1.418 1.418-1.418zm0 .375 1.045 1.045L232 68.022l-1.044-1.045z"/><text xml:space="preserve" x="200.872" y="75.425" style="font-style:normal;font-variant:normal;font-weight:400;font-stretch:normal;font-size:4.23333px;line-height:1.25;font-family:Arial;-inkscape-font-specification:Arial;white-space:pre;display:inline;fill:#000;fill-opacity:1;stroke:none;stroke-width:.352778;stroke-dasharray:none"><tspan style="stroke-width:.352778;stroke-dasharray:none">Intimidate</tspan></text><path d="m196.82 70.586-1.963 1.963v2.775l1.959 1.96h26.634l1.964-1.964v-2.777l-1.958-1.957h-25.273zm.148.352h26.341l1.752 1.752v2.484l-1.756 1.756H196.96l-1.75-1.752v-2.483z"/><path d="M236.391 85.83h34.976m-34.973 7.929h34.97m-34.968 7.93h34.966m-34.962 7.93h34.958m-34.958 7.929h34.958" style="font-variation-settings:normal;vector-effect:none;fill:none;fill-opacity:1;stroke:#000;stroke-width:.264583;stroke-linecap:butt;stroke-linejoin:miter;stroke-miterlimit:4;stroke-dasharray:1.05833,.264583;stroke-dashoffset:0;stroke-opacity:.25;-inkscape-stroke:none;stop-color:#000"/><path d="m228.114 73.49-1.42 1.418 1.42 1.42 1.42-1.42zm0 .373 1.045 1.045-1.045 1.045-1.045-1.045zm1.943-2.316-1.42 1.418 1.42 1.42 1.418-1.42zm0 .373 1.045 1.045-1.045 1.045-1.045-1.045zM232 73.49l-1.42 1.418 1.42 1.42 1.418-1.42zm0 .373 1.045 1.045L232 75.953l-1.044-1.045z"/><text xml:space="preserve" x="201.618" y="83.357" style="font-style:normal;font-variant:normal;font-weight:400;font-stretch:normal;font-size:4.23333px;line-height:1.25;font-family:Arial;-inkscape-font-specification:Arial;white-space:pre;display:inline;fill:#000;fill-opacity:1;stroke:none;stroke-width:.352778;stroke-dasharray:none"><tspan style="stroke-width:.352778;stroke-dasharray:none">Medicine</tspan></text><path d="m196.82 78.518-1.963 1.963v2.777l1.959 1.957h26.634l1.964-1.963v-2.775l-1.958-1.96h-25.273zm.146.353h26.343l1.752 1.75v2.485l-1.756 1.757H196.96l-1.75-1.752v-2.484zm31.148 2.551-1.42 1.418 1.42 1.42 1.42-1.42zm0 .375 1.045 1.045-1.045 1.043-1.045-1.043zm1.943-2.318-1.42 1.42 1.42 1.417 1.418-1.417zm0 .375 1.045 1.043-1.045 1.044-1.045-1.044zM232 81.422l-1.42 1.418 1.42 1.42 1.418-1.42zm0 .375 1.045 1.045L232 83.885l-1.044-1.043z"/><text xml:space="preserve" x="198.855" y="91.29" style="font-style:normal;font-variant:normal;font-weight:400;font-stretch:normal;font-size:4.23333px;line-height:1.25;font-family:Arial;-inkscape-font-specification:Arial;white-space:pre;display:inline;fill:#000;fill-opacity:1;stroke:none;stroke-width:.352778;stroke-dasharray:none"><tspan style="stroke-width:.352778;stroke-dasharray:none">Misdirection</tspan></text><path d="m196.82 86.45-1.963 1.964v2.776l1.959 1.959h26.634l1.964-1.963v-2.778l-1.958-1.959h-25.273zm.148.353h26.341l1.752 1.752v2.484l-1.756 1.756H196.96l-1.75-1.752V88.56zm31.146 2.551-1.42 1.42 1.42 1.417 1.42-1.417zm0 .375 1.045 1.045-1.045 1.044-1.045-1.044zm1.943-2.319-1.42 1.42 1.42 1.418 1.418-1.418zm0 .375 1.045 1.045-1.045 1.045-1.045-1.045zM232 89.354l-1.42 1.42L232 92.19l1.418-1.417zm0 .375 1.045 1.045L232 91.818l-1.044-1.044z"/><text xml:space="preserve" x="200.021" y="98.826" style="font-style:normal;font-variant:normal;font-weight:400;font-stretch:normal;font-size:4.23333px;line-height:1.25;font-family:Arial;-inkscape-font-specification:Arial;white-space:pre;display:inline;fill:#000;fill-opacity:1;stroke:none;stroke-width:.352778;stroke-dasharray:none"><tspan style="stroke-width:.352778;stroke-dasharray:none">Perception</tspan></text><path d="m196.82 94.383-1.963 1.963v2.775l1.959 1.96h26.634l1.964-1.964V96.34l-1.958-1.957h-25.273zm.148.351h26.341l1.752 1.752v2.485l-1.756 1.756H196.96l-1.75-1.752v-2.483zm31.146 2.553-1.42 1.418 1.42 1.42 1.42-1.42zm0 .373 1.045 1.045-1.045 1.045-1.045-1.045zm1.943-2.316-1.42 1.418 1.42 1.42 1.418-1.42zm0 .373 1.045 1.045-1.045 1.045-1.045-1.045zm1.943 1.57-1.42 1.418 1.42 1.42 1.418-1.42zm0 .373 1.045 1.045L232 99.75l-1.044-1.045z"/><text xml:space="preserve" x="201.077" y="107.154" style="font-style:normal;font-variant:normal;font-weight:400;font-stretch:normal;font-size:4.23333px;line-height:1.25;font-family:Arial;-inkscape-font-specification:Arial;white-space:pre;display:inline;fill:#000;fill-opacity:1;stroke:none;stroke-width:.352778;stroke-dasharray:none"><tspan style="stroke-width:.352778;stroke-dasharray:none">Research</tspan></text><path d="m196.82 102.315-1.963 1.962v2.778l1.959 1.957h26.634l1.964-1.963v-2.775l-1.958-1.96h-25.273zm.146.353h26.343l1.752 1.75v2.484l-1.756 1.758H196.96l-1.75-1.752v-2.484zm31.148 2.551-1.42 1.418 1.42 1.42 1.42-1.42zm0 .375 1.045 1.045-1.045 1.043-1.045-1.043zm1.943-2.319-1.42 1.42 1.42 1.418 1.418-1.418zm0 .375 1.045 1.045-1.045 1.043-1.045-1.043zm1.943 1.569-1.42 1.418 1.42 1.42 1.418-1.42zm0 .375 1.045 1.045-1.045 1.043-1.044-1.043z"/><text xml:space="preserve" x="202.684" y="115.111" style="font-style:normal;font-variant:normal;font-weight:400;font-stretch:normal;font-size:4.23333px;line-height:1.25;font-family:Arial;-inkscape-font-specification:Arial;white-space:pre;display:inline;fill:#000;fill-opacity:1;stroke:none;stroke-width:.352778;stroke-dasharray:none"><tspan style="stroke-width:.352778;stroke-dasharray:none">Survival</tspan></text><path d="m196.82 110.246-1.963 1.965v2.775l1.959 1.96h26.634l1.964-1.963v-2.778l-1.958-1.959h-25.273zm.148.354h26.341l1.752 1.752v2.484l-1.756 1.756H196.96l-1.75-1.752v-2.484zm31.146 2.55-1.42 1.42 1.42 1.418 1.42-1.418zm0 .375 1.045 1.045-1.045 1.045-1.045-1.045zm1.943-2.318-1.42 1.42 1.42 1.42 1.418-1.42zm0 .375 1.045 1.045-1.045 1.045-1.045-1.045zM232 113.15l-1.42 1.42 1.42 1.418 1.418-1.418zm0 .375 1.045 1.045-1.045 1.045-1.044-1.045z"/><text xml:space="preserve" x="196.974" y="122.539" style="font-style:normal;font-variant:normal;font-weight:400;font-stretch:normal;font-size:2.82222px;line-height:1.25;font-family:Arial;-inkscape-font-specification:Arial;white-space:pre;display:inline;fill:#000;fill-opacity:1;stroke:none;stroke-width:.352778;stroke-dasharray:none"><tspan style="font-size:2.82222px;stroke-width:.352778;stroke-dasharray:none">SP:</tspan></text><path d="m196.82 118.18-1.963 1.963v2.775l1.959 1.959h26.634l1.964-1.963v-2.777l-1.958-1.957h-25.273zm.146.353h26.343l1.752 1.75v2.485l-1.756 1.756H196.96l-1.75-1.75v-2.485zm31.148 2.551-1.42 1.418 1.42 1.42 1.42-1.42zm0 .373 1.045 1.045-1.045 1.045-1.045-1.045zm1.943-2.317-1.42 1.419 1.42 1.42 1.418-1.42zm0 .374 1.045 1.045-1.045 1.045-1.045-1.045zm1.943 1.57-1.42 1.418 1.42 1.42 1.418-1.42zm0 .373 1.045 1.045-1.045 1.045-1.044-1.045zM248.43 32.5l-7.482 11.715 1.248 1.25h9.07l1.938-1.938-.014-9.09-1.938-1.937zm.145.264h2.568l1.781 1.783.014 8.871-1.781 1.781h-8.852l-1.021-1.021zm-11.953-1.84-1.938 1.937.014 9.092 1.938 1.936h2.822l7.484-11.715-1.25-1.25zm.109.266h8.851l1.022 1.021-7.291 11.414h-2.568l-1.782-1.783-.014-8.871zm31.539 1.31-7.484 11.715 1.25 1.25h9.07l1.937-1.938-.016-9.09-1.937-1.937zm.144.264h2.567l1.783 1.783.014 8.871-1.783 1.781h-8.85l-1.021-1.02zm-11.953-1.84-1.937 1.937.014 9.092 1.937 1.936h2.823l7.482-11.715-1.248-1.25zm.11.266h8.851l1.022 1.021-7.293 11.414h-2.567l-1.78-1.783-.017-8.871zm-59.751-.266-1.963 1.963v2.775l1.959 1.96h26.634l1.964-1.964v-2.777l-1.958-1.957h-25.273zm.146.353h26.343l1.752 1.75v2.485l-1.756 1.758H196.96l-1.75-1.752v-2.485zm72.718 23.463c-1.088.015-2.16.319-3.209.867l-.092.05v.103c-.026 1.553.673 4.042 3.258 5.652l.094.059.094-.059c2.585-1.61 3.284-4.1 3.258-5.652v-.102l-.09-.049c-1.114-.607-2.22-.883-3.309-.869zm0 .346c.988-.013 1.99.264 3.016.8-.01 1.427-.648 3.646-2.971 5.15-2.323-1.504-2.964-3.723-2.97-5.15.968-.488 1.94-.787 2.925-.8M234.68 78.967v44.105l1.938 1.938h34.54l1.938-1.938V78.967h-.265v43.996l-1.784 1.781h-34.32l-1.783-1.781V78.967Zm1.936-8.338-1.936 1.94v6.716l2.047-2.047h34.32l2.047 2.047v-6.722l-1.931-1.934h-27.178zm.11.266h34.327l1.778 1.777v5.975l-1.674-1.672h-34.541l-1.672 1.674v-5.971zm31.751.177-.62 1.057-1.058.621v2.445l1.059.62.619 1.058h2.445l.621-1.058 1.057-.62V72.75l-1.057-.621-.62-1.057H269.7zm.152.264h2.141l.58.986.986.58v2.141l-.986.578-.58.988h-2.14l-.579-.988-.988-.578v-2.14l.988-.58zm-31.958-.574-1.86 1.86v4.485h.001v1.86l1.86-1.86h34.431l1.86 1.86v-6.35l-1.856-1.855h-27.121zm31.882.442h2.293l.6 1.023 1.023.599v2.293l-1.023.6-.6 1.022h-2.293l-.599-1.023-1.023-.599v-2.293l1.023-.6z"/><text xml:space="preserve" x="242.082" y="75.003" style="font-style:normal;font-variant:normal;font-weight:700;font-stretch:normal;font-size:4.23333px;line-height:1.25;font-family:Arial;-inkscape-font-specification:&quot;Arial Bold&quot;;white-space:pre;display:inline;fill:#fff;fill-opacity:1;stroke:none;stroke-width:.352778;stroke-dasharray:none"><tspan style="stroke-width:.352778;stroke-dasharray:none">Inventory</tspan></text><text xml:space="preserve" x="197.54" y="143.808" style="font-style:normal;font-variant:normal;font-weight:400;font-stretch:normal;font-size:4.23333px;line-height:1.25;font-family:Arial;-inkscape-font-specification:Arial;white-space:pre;display:inline;fill:#000;fill-opacity:1;stroke:none;stroke-width:.352778;stroke-dasharray:none"><tspan style="stroke-width:.352778;stroke-dasharray:none">Attribute: </tspan></text><text xml:space="preserve" x="242.099" y="143.615" style="font-style:normal;font-variant:normal;font-weight:400;font-stretch:normal;font-size:4.23333px;line-height:1.25;font-family:Arial;-inkscape-font-specification:Arial;white-space:pre;display:inline;fill:#000;fill-opacity:1;stroke:none;stroke-width:.352778;stroke-dasharray:none"><tspan style="stroke-width:.352778;stroke-dasharray:none">Damage: </tspan></text><text xml:space="preserve" x="197.54" y="150.168" style="font-style:normal;font-variant:normal;font-weight:400;font-stretch:normal;font-size:4.23333px;line-height:1.25;font-family:Arial;-inkscape-font-specification:Arial;white-space:pre;display:inline;fill:#000;fill-opacity:1;stroke:none;stroke-width:.352778;stroke-dasharray:none"><tspan style="stroke-width:.352778;stroke-dasharray:none">Armament: </tspan></text><text xml:space="preserve" x="197.303" y="162.797" style="font-style:normal;font-variant:normal;font-weight:400;font-stretch:normal;font-size:4.23333px;line-height:1.25;font-family:Arial;-inkscape-font-specification:Arial;white-space:pre;display:inline;fill:#000;fill-opacity:1;stroke:none;stroke-width:.352778;stroke-dasharray:none"><tspan style="stroke-width:.352778;stroke-dasharray:none">Traits:</tspan></text><text xml:space="preserve" x="197.303" y="156.437" style="font-style:normal;font-variant:normal;font-weight:400;font-stretch:normal;font-size:4.23333px;line-height:1.25;font-family:Arial;-inkscape-font-specification:Arial;white-space:pre;display:inline;fill:#000;fill-opacity:1;stroke:none;stroke-width:.352778;stroke-dasharray:none"><tspan style="stroke-width:.352778;stroke-dasharray:none">Role:</tspan></text><path d="M194.862 134.655v72.979l1.963 1.963h74.309l1.962-1.963v-72.979h-.353v72.832l-1.756 1.756h-74.016l-1.755-1.756v-72.832zm1.963-8.387-1.963 1.965v6.848l2.11-2.11h74.015l2.11 2.11v-6.85l-1.963-1.963h-66.916zm.146.354h74.016l1.756 1.756v5.851l-1.61-1.611h-74.308l-1.61 1.611v-5.851zm-.073-.177-1.86 1.86v6.35l1.86-1.86h74.162l1.86 1.86v-6.35l-1.86-1.86h-66.842z" style="fill:#000"/><text xml:space="preserve" x="215.069" y="130.744" style="font-style:normal;font-variant:normal;font-weight:700;font-stretch:normal;font-size:4.23333px;line-height:1.25;font-family:Arial;-inkscape-font-specification:&quot;Arial Bold&quot;;white-space:pre;display:inline;fill:#fff;stroke:none;stroke-width:.352778;stroke-dasharray:none"><tspan style="fill:#fff;stroke:none;stroke-width:.352778;stroke-dasharray:none">Combat Technique</tspan></text><path d="m232.961 6.215-1.937 1.938v2.738l1.932 1.934h27.441v-1.938l1.781-1.783h8.872l2.046 2.047V8.147l-1.931-1.932h-36.86z"/><path d="m262.069 8.84-1.938 1.938v9.09l1.938 1.937h9.09l1.937-1.938v-9.09l-1.938-1.937zm.109.264h8.871l1.783 1.783v8.871l-1.783 1.781h-8.871l-1.781-1.78v-8.872z"/><text xml:space="preserve" x="237.195" y="11.01" style="font-style:normal;font-variant:normal;font-weight:700;font-stretch:normal;font-size:4.23333px;line-height:1.25;font-family:Arial;-inkscape-font-specification:&quot;Arial Bold&quot;;white-space:pre;display:inline;fill:#fff;fill-opacity:1;stroke:none;stroke-width:.352778;stroke-dasharray:none"><tspan style="stroke-width:.352778;stroke-dasharray:none">Presence</tspan></text><path d="M8.24 6.215 6.304 8.153v2.738l1.932 1.934h27.176v7.043l1.937 1.937h9.09l1.938-1.937V8.147l-1.932-1.932H9.584zm29.218 2.889h8.87l1.784 1.783v8.871l-1.783 1.781h-8.871l-1.782-1.78v-8.872z"/><text xml:space="preserve" x="12.44" y="10.589" style="font-style:normal;font-variant:normal;font-weight:700;font-stretch:normal;font-size:4.23333px;line-height:1.25;font-family:Arial;-inkscape-font-specification:&quot;Arial Bold&quot;;white-space:pre;display:inline;fill:#fff;fill-opacity:1;stroke:none;stroke-width:.352778;stroke-dasharray:none"><tspan style="stroke-width:.352778;stroke-dasharray:none">Physique</tspan></text><path d="m53.185 6.215-1.938 1.938v2.738l1.932 1.934h27.176v7.043l1.938 1.937h9.09l1.937-1.937V8.147l-1.932-1.932H54.53zm29.217 2.889h8.87l1.784 1.783v8.871l-1.783 1.781h-8.871l-1.781-1.78v-8.872z"/><text xml:space="preserve" x="56.797" y="10.617" style="font-style:normal;font-variant:normal;font-weight:700;font-stretch:normal;font-size:4.23333px;line-height:1.25;font-family:Arial;-inkscape-font-specification:&quot;Arial Bold&quot;;white-space:pre;display:inline;fill:#fff;fill-opacity:1;stroke:none;stroke-width:.352778;stroke-dasharray:none"><tspan style="stroke-width:.352778;stroke-dasharray:none">Discipline</tspan></text><path d="m98.13 6.215-1.938 1.938v2.738l1.932 1.934h27.175v7.043l1.938 1.937h9.09l1.937-1.937V8.147l-1.931-1.932h-36.86zm29.216 2.889h8.87L138 10.887v8.871l-1.783 1.781h-8.87l-1.782-1.78v-8.872z"/><text xml:space="preserve" x="101.266" y="11.01" style="font-style:normal;font-variant:normal;font-weight:700;font-stretch:normal;font-size:4.23333px;line-height:1.25;font-family:Arial;-inkscape-font-specification:&quot;Arial Bold&quot;;white-space:pre;display:inline;fill:#fff;fill-opacity:1;stroke:none;stroke-width:.352778;stroke-dasharray:none"><tspan style="stroke-width:.352778;stroke-dasharray:none">Resilience</tspan></text><path d="m143.073 6.215-1.937 1.938v2.738l1.932 1.934h27.175v7.043l1.938 1.937h9.09l1.937-1.937V8.147l-1.931-1.932h-36.86zm29.217 2.889h8.871l1.783 1.783v8.871l-1.783 1.781h-8.87l-1.782-1.78v-8.872z"/><text xml:space="preserve" x="147.152" y="11.01" style="font-style:normal;font-variant:normal;font-weight:700;font-stretch:normal;font-size:4.23333px;line-height:1.25;font-family:Arial;-inkscape-font-specification:&quot;Arial Bold&quot;;white-space:pre;display:inline;fill:#fff;fill-opacity:1;stroke:none;stroke-width:.352778;stroke-dasharray:none"><tspan style="stroke-width:.352778;stroke-dasharray:none">Brilliance</tspan></text><path d="m188.018 6.215-1.938 1.938v2.738l1.932 1.934h27.176v7.043l1.937 1.937h9.09l1.937-1.937V8.147l-1.931-1.932h-36.859zm29.217 2.889h8.87l1.784 1.783v8.871l-1.783 1.781h-8.871l-1.782-1.78v-8.872z"/><text xml:space="preserve" x="190.468" y="11.101" style="font-style:normal;font-variant:normal;font-weight:700;font-stretch:normal;font-size:4.23333px;line-height:1.25;font-family:Arial;-inkscape-font-specification:&quot;Arial Bold&quot;;white-space:pre;display:inline;fill:#fff;fill-opacity:1;stroke:none;stroke-width:.352778;stroke-dasharray:none"><tspan style="stroke-width:.352778;stroke-dasharray:none">Cleverness</tspan></text><path d="m117.485 126.268-1.963 1.964v6.849l.009 72.553 1.963 1.963h74.308l1.963-1.963-.009-74.652h-.353l.009 74.505-1.756 1.756H117.64l-1.756-1.756-.01-72.76 1.757-1.755h57.795l3.326.01v-.01h11.678l3.326.01v-4.744l-1.96-1.96h-47.915l-.865-.002v-.002zm25.181.358 1.215.006h47.77l1.752 1.75v4.246l-2.973-.01H178.4v.01l-2.973-.01H142.66l-1.751-1.752v-2.482z" style="fill:#000"/><text xml:space="preserve" x="118.929" y="130.69" style="font-style:normal;font-variant:normal;font-weight:700;font-stretch:normal;font-size:4.23333px;line-height:1.25;font-family:Arial;-inkscape-font-specification:&quot;Arial Bold&quot;;white-space:pre;display:inline;fill:#fff;stroke:none;stroke-width:.352778;stroke-dasharray:none"><tspan style="fill:#fff;stroke:none;stroke-width:.352778;stroke-dasharray:none">Archetype</tspan></text><path d="M6.303 33.108v174.526l1.963 1.963h104.196l1.963-1.963V33.108h-.352v174.38l-1.758 1.755H8.413l-1.756-1.756V33.108Zm1.965-9.96L6.303 25.11v8.424l2.11-2.11h103.902l2.11 2.11V25.11l-1.963-1.963H12.059zm.147.35h103.9l1.758 1.759v7.425l-1.611-1.61H8.268l-1.611 1.61v-7.425zm-.074-.175-1.86 1.86v7.925l1.86-1.86h104.048l1.86 1.86v-7.925l-1.86-1.86H12.06z" style="fill:#000"/><text xml:space="preserve" x="52.057" y="28.864" style="font-style:normal;font-variant:normal;font-weight:700;font-stretch:normal;font-size:4.23333px;line-height:1.25;font-family:Arial;-inkscape-font-specification:&quot;Arial Bold&quot;;white-space:pre;display:inline;fill:#fff;stroke:none;stroke-width:.352778;stroke-dasharray:none"><tspan style="fill:#fff;stroke-width:.352778;stroke-dasharray:none">Abilities</tspan></text><path d="m117.487 23.147-1.964 1.963v97.901l1.964 1.963h74.308l1.963-1.964V31.436h-.176.176v-6.321l-1.96-1.957h-47.913l-.867-.004v-.002zm25.18.358 1.216.004h47.772l1.75 1.752v5.821l-2.973-.01H178.4v.01l-2.973-.01h-32.766l-1.752-1.753v-4.058zm-25.034 7.92h41.756l1.664 1.664v2.63l1.86 1.86h28.808l1.683 1.683v83.602l-1.756 1.756h-74.015l-1.756-1.756V33.181Zm72.365.211.811.811h1.147v1.147l.81.81-.81.81v1.147h-1.147l-.81.81-.811-.81h-1.148v-1.146l-.81-.811.81-.81v-1.147h1.147z" style="fill:#000"/><text xml:space="preserve" x="162.929" y="35.403" style="font-style:normal;font-variant:normal;font-weight:700;font-stretch:normal;font-size:3.88056px;line-height:1.25;font-family:Arial;-inkscape-font-specification:&quot;Arial Bold&quot;;white-space:pre;display:inline;fill:#fff;fill-opacity:1;stroke:none;stroke-width:.352778;stroke-dasharray:none"><tspan style="font-size:3.88056px;stroke-width:.352778;stroke-dasharray:none">Experience</tspan></text><text xml:space="preserve" x="116.95" y="36.119" style="font-style:normal;font-variant:normal;font-weight:400;font-stretch:normal;font-size:4.23333px;line-height:1.25;font-family:Arial;-inkscape-font-specification:Arial;white-space:pre;display:inline;fill:#000;fill-opacity:1;stroke:none;stroke-width:.352778;stroke-dasharray:none"><tspan style="stroke-width:.352778;stroke-dasharray:none">Bio: </tspan></text><text xml:space="preserve" x="116.95" y="65.662" style="font-style:normal;font-variant:normal;font-weight:400;font-stretch:normal;font-size:4.23333px;line-height:1.25;font-family:Arial;-inkscape-font-specification:Arial;white-space:pre;display:inline;fill:#000;fill-opacity:1;stroke:none;stroke-width:.352778;stroke-dasharray:none"><tspan style="stroke-width:.352778;stroke-dasharray:none">Beliefs:</tspan></text><text xml:space="preserve" x="116.95" y="95.203" style="font-style:normal;font-variant:normal;font-weight:400;font-stretch:normal;font-size:4.23333px;line-height:1.25;font-family:Arial;-inkscape-font-specification:Arial;white-space:pre;display:inline;fill:#000;fill-opacity:1;stroke:none;stroke-width:.352778;stroke-dasharray:none"><tspan style="stroke-width:.352778;stroke-dasharray:none">Goals:</tspan></text><text xml:space="preserve" x="119.042" y="28.74" style="font-style:normal;font-variant:normal;font-weight:700;font-stretch:normal;font-size:4.234px;line-height:1.25;font-family:Arial;-inkscape-font-specification:&quot;Arial Bold&quot;;white-space:pre;display:inline;fill:#fff;stroke:none;stroke-width:1.00013;stroke-dasharray:none" transform="scale(1.00016 .99984)"><tspan style="fill:#fff;stroke-width:1.00013;stroke-dasharray:none">Character</tspan></text></svg>