<svg xmlns="http://www.w3.org/2000/svg" xml:space="preserve" width="11in" height="816" viewBox="0 0 279.4 215.9"><defs><path id="b" d="M1126.799 579.444h12v23.01h-12z"/><path id="a" d="M24 24h336v24H24Z"/></defs><path d="M279.4 0v215.9H0V0Z" style="font-variation-settings:normal;display:inline;fill:#fff;fill-opacity:1;fill-rule:evenodd;stroke:none;stroke-width:.705556;stroke-linecap:butt;stroke-linejoin:miter;stroke-miterlimit:4;stroke-dasharray:none;stroke-dashoffset:0;stroke-opacity:1;stop-color:#000"/><path d="m98.73 68.23-1.86-1.86v-2.63l1.86-1.86h67.72l1.86 1.86v2.63l-1.86 1.86zM96.855 12.7V8.21l1.86-1.86h172.474l1.86 1.86v4.49z" style="font-variation-settings:normal;vector-effect:none;fill:#000;fill-opacity:1;stroke:#000;stroke-width:.352777;stroke-linecap:butt;stroke-linejoin:miter;stroke-miterlimit:4;stroke-dasharray:none;stroke-dashoffset:0;stroke-opacity:1;-inkscape-stroke:none;stop-color:#000"/><text xml:space="preserve" x="169.166" y="10.595" style="font-style:normal;font-variant:normal;font-weight:700;font-stretch:normal;font-size:4.23333px;line-height:1.25;font-family:Arial;-inkscape-font-specification:&quot;Arial Bold&quot;;white-space:pre;display:inline;fill:#fff;stroke:none;stroke-width:.264583"><tspan style="stroke-width:.264583">Abilities - Major</tspan></text><path d="m11.068 188.92-1.226 1.226.639.639v2.62l-.64.639 1.227 1.226h23.28l1.226-1.226-.638-.639v-2.62l.638-.639-1.226-1.226h-11.64z" style="font-variation-settings:normal;vector-effect:none;fill:#000;fill-opacity:1;stroke:#000;stroke-width:.352777;stroke-linecap:butt;stroke-linejoin:miter;stroke-miterlimit:4;stroke-dasharray:none;stroke-dashoffset:0;stroke-opacity:1;-inkscape-stroke:none;stop-color:#000"/><text xml:space="preserve" x="13.143" y="193.165" style="font-style:normal;font-variant:normal;font-weight:700;font-stretch:normal;font-size:4.23333px;line-height:1.25;font-family:Arial;-inkscape-font-specification:&quot;Arial Bold&quot;;white-space:pre;display:inline;fill:#fff;fill-opacity:1;stroke:none;stroke-width:.705556;stroke-dasharray:none"><tspan style="stroke-width:.705556">Physique </tspan></text><path d="m206.06 188.905-1.226 1.226.639.639v2.62l-.64.639 1.227 1.226h23.28l1.226-1.226-.638-.639v-2.62l.638-.639-1.226-1.226H217.7ZM50.06 188.92l-1.226 1.226.639.639v2.62l-.64.639 1.227 1.226h23.28l1.226-1.226-.638-.639v-2.62l.638-.639-1.226-1.226H61.7z" style="font-variation-settings:normal;vector-effect:none;fill:#000;fill-opacity:1;stroke:#000;stroke-width:.352777;stroke-linecap:butt;stroke-linejoin:miter;stroke-miterlimit:4;stroke-dasharray:none;stroke-dashoffset:0;stroke-opacity:1;-inkscape-stroke:none;stop-color:#000"/><text xml:space="preserve" x="51.633" y="193.193" style="font-style:normal;font-variant:normal;font-weight:700;font-stretch:normal;font-size:4.23333px;line-height:1.25;font-family:Arial;-inkscape-font-specification:&quot;Arial Bold&quot;;white-space:pre;display:inline;fill:#fff;fill-opacity:1;stroke:none;stroke-width:.705556;stroke-dasharray:none"><tspan style="stroke-width:.705556">Discipline</tspan></text><path d="m89.06 188.92-1.226 1.226.639.639v2.62l-.64.639 1.227 1.226h23.28l1.226-1.226-.638-.639v-2.62l.638-.639-1.226-1.226H100.7Z" style="font-variation-settings:normal;vector-effect:none;fill:#000;fill-opacity:1;stroke:#000;stroke-width:.352777;stroke-linecap:butt;stroke-linejoin:miter;stroke-miterlimit:4;stroke-dasharray:none;stroke-dashoffset:0;stroke-opacity:1;-inkscape-stroke:none;stop-color:#000"/><text xml:space="preserve" x="90.158" y="193.585" style="font-style:normal;font-variant:normal;font-weight:700;font-stretch:normal;font-size:4.23333px;line-height:1.25;font-family:Arial;-inkscape-font-specification:&quot;Arial Bold&quot;;white-space:pre;display:inline;fill:#fff;fill-opacity:1;stroke:none;stroke-width:.705556;stroke-dasharray:none"><tspan style="stroke-width:.705556">Resilience</tspan></text><path d="m128.06 188.905-1.226 1.226.639.639v2.62l-.64.639 1.227 1.226h23.28l1.226-1.226-.638-.639v-2.62l.638-.639-1.226-1.226H139.7Z" style="font-variation-settings:normal;vector-effect:none;fill:#000;fill-opacity:1;stroke:#000;stroke-width:.352777;stroke-linecap:butt;stroke-linejoin:miter;stroke-miterlimit:4;stroke-dasharray:none;stroke-dashoffset:0;stroke-opacity:1;-inkscape-stroke:none;stop-color:#000"/><text xml:space="preserve" x="130.1" y="193.57" style="font-style:normal;font-variant:normal;font-weight:700;font-stretch:normal;font-size:4.23333px;line-height:1.25;font-family:Arial;-inkscape-font-specification:&quot;Arial Bold&quot;;white-space:pre;display:inline;fill:#fff;fill-opacity:1;stroke:none;stroke-width:.705556;stroke-dasharray:none"><tspan style="stroke-width:.705556">Brilliance</tspan></text><path d="m167.06 188.905-1.226 1.226.639.639v2.62l-.64.639 1.227 1.226h23.28l1.226-1.226-.638-.639v-2.62l.638-.639-1.226-1.226H178.7Z" style="font-variation-settings:normal;vector-effect:none;fill:#000;fill-opacity:1;stroke:#000;stroke-width:.352777;stroke-linecap:butt;stroke-linejoin:miter;stroke-miterlimit:4;stroke-dasharray:none;stroke-dashoffset:0;stroke-opacity:1;-inkscape-stroke:none;stop-color:#000"/><text xml:space="preserve" x="167.406" y="193.595" style="font-style:normal;font-variant:normal;font-weight:700;font-stretch:normal;font-size:4.23333px;line-height:1.25;font-family:Arial;-inkscape-font-specification:&quot;Arial Bold&quot;;white-space:pre;display:inline;fill:#fff;fill-opacity:1;stroke:none;stroke-width:.705556;stroke-dasharray:none"><tspan style="stroke-width:.705556">Cleverness</tspan></text><text xml:space="preserve" x="208.216" y="193.57" style="font-style:normal;font-variant:normal;font-weight:700;font-stretch:normal;font-size:4.23333px;line-height:1.25;font-family:Arial;-inkscape-font-specification:&quot;Arial Bold&quot;;white-space:pre;display:inline;fill:#fff;fill-opacity:1;stroke:none;stroke-width:.705556;stroke-dasharray:none"><tspan style="stroke-width:.705556">Presence</tspan></text><path d="M222.25 68.23v-4.49l1.859-1.86h47.08l1.86 1.86v4.49z" style="font-variation-settings:normal;vector-effect:none;fill:#000;fill-opacity:1;stroke:#000;stroke-width:.352777;stroke-linecap:butt;stroke-linejoin:miter;stroke-miterlimit:4;stroke-dasharray:none;stroke-dashoffset:0;stroke-opacity:1;-inkscape-stroke:none;stop-color:#000"/><text xml:space="preserve" x="112.521" y="66.178" style="font-style:normal;font-variant:normal;font-weight:700;font-stretch:normal;font-size:4.23333px;line-height:1.25;font-family:Arial;-inkscape-font-specification:&quot;Arial Bold&quot;;white-space:pre;display:inline;fill:#fff;stroke:none;stroke-width:.264583"><tspan style="stroke:none;stroke-width:.264583">Combat Techniques</tspan></text><text xml:space="preserve" x="230.187" y="66.125" style="font-style:normal;font-variant:normal;font-weight:700;font-stretch:normal;font-size:4.23333px;line-height:1.25;font-family:Arial;-inkscape-font-specification:&quot;Arial Bold&quot;;white-space:pre;display:inline;fill:#fff;stroke:none;stroke-width:.264583"><tspan style="stroke-width:.264583">Hello My Name Is</tspan></text><path d="M6.35 12.7V8.21l1.86-1.86h85.195l1.86 1.86v4.49z" style="font-variation-settings:normal;vector-effect:none;fill:#000;fill-opacity:1;stroke:#000;stroke-width:.352777;stroke-linecap:butt;stroke-linejoin:miter;stroke-miterlimit:4;stroke-dasharray:none;stroke-dashoffset:0;stroke-opacity:1;-inkscape-stroke:none;stop-color:#000"/><text xml:space="preserve" style="font-size:16px;line-height:1.25;font-family:Arial;-inkscape-font-specification:Arial;white-space:pre;shape-inside:url(#a);display:inline" transform="translate(28.556 .852) scale(.26458)"><tspan x="24" y="38.412"><tspan style="font-weight:700;-inkscape-font-specification:&quot;Arial Bold&quot;;fill:#fff">Abilities - Minor</tspan></tspan></text><path d="m171.756 90.47-1.86-1.86v-2.63l1.86-1.86h47.08l1.86 1.86v2.63l-1.86 1.86z" style="font-variation-settings:normal;vector-effect:none;fill:#000;fill-opacity:1;stroke:#000;stroke-width:.352777;stroke-linecap:butt;stroke-linejoin:miter;stroke-miterlimit:4;stroke-dasharray:none;stroke-dashoffset:0;stroke-opacity:1;-inkscape-stroke:none;stop-color:#000"/><text xml:space="preserve" x="185.885" y="90.188" style="font-style:normal;font-variant:normal;font-weight:700;font-stretch:normal;font-size:4.29903px;line-height:1.25;font-family:Arial;-inkscape-font-specification:&quot;Arial Bold&quot;;white-space:pre;display:inline;fill:#fff;stroke:none;stroke-width:.264581" transform="scale(1.01553 .9847)"><tspan style="stroke-width:.264581">Skills</tspan></text><text xml:space="preserve" x="183.406" y="96.725" style="font-style:normal;font-variant:normal;font-weight:400;font-stretch:normal;font-size:4.23333px;line-height:1.25;font-family:Arial;-inkscape-font-specification:Arial;white-space:pre;display:inline;fill:#000;fill-opacity:1;stroke:none;stroke-width:.705556;stroke-dasharray:none"><tspan style="stroke-width:.705556">Athletics</tspan></text><text xml:space="preserve" x="182.479" y="104.69" style="font-style:normal;font-variant:normal;font-weight:400;font-stretch:normal;font-size:4.23333px;line-height:1.25;font-family:Arial;-inkscape-font-specification:Arial;white-space:pre;display:inline;fill:#000;fill-opacity:1;stroke:none;stroke-width:.705556;stroke-dasharray:none"><tspan style="stroke-width:.705556">Convince</tspan></text><text xml:space="preserve" x="184.996" y="112.63" style="font-style:normal;font-variant:normal;font-weight:400;font-stretch:normal;font-size:4.23333px;line-height:1.25;font-family:Arial;-inkscape-font-specification:Arial;white-space:pre;display:inline;fill:#000;fill-opacity:1;stroke:none;stroke-width:.705556;stroke-dasharray:none"><tspan style="stroke-width:.705556">Covert</tspan></text><text xml:space="preserve" x="183.823" y="120.545" style="font-style:normal;font-variant:normal;font-weight:400;font-stretch:normal;font-size:4.23333px;line-height:1.25;font-family:Arial;-inkscape-font-specification:Arial;white-space:pre;display:inline;fill:#000;fill-opacity:1;stroke:none;stroke-width:.705556;stroke-dasharray:none"><tspan style="stroke-width:.705556">Finesse</tspan></text><text xml:space="preserve" x="184.902" y="128.065" style="font-style:normal;font-variant:normal;font-weight:400;font-stretch:normal;font-size:4.23333px;line-height:1.25;font-family:Arial;-inkscape-font-specification:Arial;white-space:pre;display:inline;fill:#000;fill-opacity:1;stroke:none;stroke-width:.705556;stroke-dasharray:none"><tspan style="stroke-width:.705556">Insight</tspan></text><text xml:space="preserve" x="182.034" y="136.425" style="font-style:normal;font-variant:normal;font-weight:400;font-stretch:normal;font-size:4.23333px;line-height:1.25;font-family:Arial;-inkscape-font-specification:Arial;white-space:pre;display:inline;fill:#000;fill-opacity:1;stroke:none;stroke-width:.705556;stroke-dasharray:none"><tspan style="stroke-width:.705556">Intimidate</tspan></text><text xml:space="preserve" x="182.78" y="144.365" style="font-style:normal;font-variant:normal;font-weight:400;font-stretch:normal;font-size:4.23333px;line-height:1.25;font-family:Arial;-inkscape-font-specification:Arial;white-space:pre;display:inline;fill:#000;fill-opacity:1;stroke:none;stroke-width:.705556;stroke-dasharray:none"><tspan style="stroke-width:.705556">Medicine</tspan></text><text xml:space="preserve" x="180.017" y="152.305" style="font-style:normal;font-variant:normal;font-weight:400;font-stretch:normal;font-size:4.23333px;line-height:1.25;font-family:Arial;-inkscape-font-specification:Arial;white-space:pre;display:inline;fill:#000;fill-opacity:1;stroke:none;stroke-width:.705556;stroke-dasharray:none"><tspan style="stroke-width:.705556">Misdirection</tspan></text><text xml:space="preserve" x="181.184" y="159.85" style="font-style:normal;font-variant:normal;font-weight:400;font-stretch:normal;font-size:4.23333px;line-height:1.25;font-family:Arial;-inkscape-font-specification:Arial;white-space:pre;display:inline;fill:#000;fill-opacity:1;stroke:none;stroke-width:.705556;stroke-dasharray:none"><tspan style="stroke-width:.705556">Perception</tspan></text><text xml:space="preserve" x="182.239" y="168.185" style="font-style:normal;font-variant:normal;font-weight:400;font-stretch:normal;font-size:4.23333px;line-height:1.25;font-family:Arial;-inkscape-font-specification:Arial;white-space:pre;display:inline;fill:#000;fill-opacity:1;stroke:none;stroke-width:.705556;stroke-dasharray:none"><tspan style="stroke-width:.705556">Research</tspan></text><text xml:space="preserve" x="183.846" y="176.15" style="font-style:normal;font-variant:normal;font-weight:400;font-stretch:normal;font-size:4.23333px;line-height:1.25;font-family:Arial;-inkscape-font-specification:Arial;white-space:pre;display:inline;fill:#000;fill-opacity:1;stroke:none;stroke-width:.705556;stroke-dasharray:none"><tspan style="stroke-width:.705556">Survival</tspan></text><text xml:space="preserve" x="171.296" y="184.09" style="font-style:normal;font-variant:normal;font-weight:400;font-stretch:normal;font-size:4.23333px;line-height:1.25;font-family:Arial;-inkscape-font-specification:Arial;white-space:pre;display:inline;fill:#000;fill-opacity:1;stroke:none;stroke-width:.705556;stroke-dasharray:none"><tspan style="stroke-width:.705556">SP:</tspan></text><path d="m224.135 146.05-1.86-1.86v-2.63l1.86-1.86h20.867l1.86 1.86v2.63l-1.86 1.86z" style="font-variation-settings:normal;vector-effect:none;fill:#000;fill-opacity:1;stroke:#000;stroke-width:.352777;stroke-linecap:butt;stroke-linejoin:miter;stroke-miterlimit:4;stroke-dasharray:none;stroke-dashoffset:0;stroke-opacity:1;-inkscape-stroke:none;stop-color:#000"/><text xml:space="preserve" x="226.897" y="144.365" style="font-style:normal;font-variant:normal;font-weight:700;font-stretch:normal;font-size:4.23333px;line-height:1.25;font-family:Arial;-inkscape-font-specification:&quot;Arial Bold&quot;;white-space:pre;display:inline;fill:#fff;fill-opacity:1;stroke:none;stroke-width:.705556;stroke-dasharray:none"><tspan style="stroke-width:.705556">Armour</tspan></text><path d="m224.135 98.41-1.86-1.86v-2.63l1.86-1.86h39.13l1.86 1.86v2.63l-1.86 1.86z" style="font-variation-settings:normal;vector-effect:none;fill:#000;fill-opacity:1;stroke:#000;stroke-width:.352777;stroke-linecap:butt;stroke-linejoin:miter;stroke-miterlimit:4;stroke-dasharray:none;stroke-dashoffset:0;stroke-opacity:1;-inkscape-stroke:none;stop-color:#000"/><text xml:space="preserve" x="234.063" y="96.305" style="font-style:normal;font-variant:normal;font-weight:700;font-stretch:normal;font-size:4.23333px;line-height:1.25;font-family:Arial;-inkscape-font-specification:&quot;Arial Bold&quot;;white-space:pre;display:inline;fill:#fff;fill-opacity:1;stroke:none;stroke-width:.705556;stroke-dasharray:none"><tspan style="stroke-width:.705556">Inventory</tspan></text><path d="m224.135 153.99-1.86-1.86v-2.63l1.86-1.86h12.917l1.86 1.86v2.63l-1.86 1.86zM224.135 161.93l-1.86-1.86v-2.63l1.86-1.86h12.917l1.86 1.86v2.63l-1.86 1.86z" style="font-variation-settings:normal;vector-effect:none;fill:#000;fill-opacity:1;stroke:#000;stroke-width:.352777;stroke-linecap:butt;stroke-linejoin:miter;stroke-miterlimit:4;stroke-dasharray:none;stroke-dashoffset:0;stroke-opacity:1;-inkscape-stroke:none;stop-color:#000"/><text xml:space="preserve" x="225.641" y="152.33" style="font-style:normal;font-variant:normal;font-weight:700;font-stretch:normal;font-size:4.23333px;line-height:1.25;font-family:Arial;-inkscape-font-specification:&quot;Arial Bold&quot;;white-space:pre;display:inline;fill:#fff;fill-opacity:1;stroke:none;stroke-width:.705556;stroke-dasharray:none"><tspan style="font-style:normal;font-variant:normal;font-weight:700;font-stretch:normal;font-family:Arial;-inkscape-font-specification:&quot;Arial Bold&quot;;fill:#fff;stroke-width:.705556">Gear</tspan></text><path d="m250.302 161.93-1.86-1.86v-2.63l1.86-1.86h12.917l1.86 1.86v2.63l-1.86 1.86z" style="font-variation-settings:normal;vector-effect:none;fill:#000;fill-opacity:1;stroke:#000;stroke-width:.352777;stroke-linecap:butt;stroke-linejoin:miter;stroke-miterlimit:4;stroke-dasharray:none;stroke-dashoffset:0;stroke-opacity:1;-inkscape-stroke:none;stop-color:#000"/><text xml:space="preserve" x="250.466" y="159.878" style="font-style:normal;font-variant:normal;font-weight:700;font-stretch:normal;font-size:4.23334px;line-height:1.25;font-family:Arial;-inkscape-font-specification:&quot;Arial Bold&quot;;white-space:pre;display:inline;fill:#fff;fill-opacity:1;stroke:none;stroke-width:.705555;stroke-dasharray:none"><tspan style="font-style:normal;font-variant:normal;font-weight:700;font-stretch:normal;font-family:Arial;-inkscape-font-specification:&quot;Arial Bold&quot;;fill:#fff;stroke-width:.705555">Speed</tspan></text><text xml:space="preserve" x="225.164" y="160.245" style="font-style:normal;font-variant:normal;font-weight:700;font-stretch:normal;font-size:4.23334px;line-height:1.25;font-family:Arial;-inkscape-font-specification:&quot;Arial Bold&quot;;white-space:pre;display:inline;fill:#fff;fill-opacity:1;stroke:none;stroke-width:.705555;stroke-dasharray:none"><tspan style="font-style:normal;font-variant:normal;font-weight:700;font-stretch:normal;font-family:Arial;-inkscape-font-specification:&quot;Arial Bold&quot;;fill:#fff;stroke-width:.705555">Level</tspan></text><path d="m250.302 153.99-1.86-1.86v-2.63l1.86-1.86h12.917l1.86 1.86v2.63l-1.86 1.86z" style="font-variation-settings:normal;vector-effect:none;fill:#000;fill-opacity:1;stroke:#000;stroke-width:.352777;stroke-linecap:butt;stroke-linejoin:miter;stroke-miterlimit:4;stroke-dasharray:none;stroke-dashoffset:0;stroke-opacity:1;-inkscape-stroke:none;stop-color:#000"/><text xml:space="preserve" x="253.562" y="152.33" style="font-style:normal;font-variant:normal;font-weight:700;font-stretch:normal;font-size:4.23333px;line-height:1.25;font-family:Arial;-inkscape-font-specification:&quot;Arial Bold&quot;;white-space:pre;display:inline;fill:#fff;fill-opacity:1;stroke:none;stroke-width:.705556;stroke-dasharray:none"><tspan style="font-style:normal;font-variant:normal;font-weight:700;font-stretch:normal;font-family:Arial;-inkscape-font-specification:&quot;Arial Bold&quot;;fill:#fff;stroke-width:.705556">DR</tspan></text><path d="m250.302 169.87-1.86-1.86v-2.63l1.86-1.86h20.867l1.86 1.86v2.63l-1.86 1.86zM224.125 169.87l-1.86-1.86v-2.63l1.86-1.86h20.867l1.86 1.86v2.63l-1.86 1.86z" style="font-variation-settings:normal;vector-effect:none;fill:#000;fill-opacity:1;stroke:#000;stroke-width:.352777;stroke-linecap:butt;stroke-linejoin:miter;stroke-miterlimit:4;stroke-dasharray:none;stroke-dashoffset:0;stroke-opacity:1;-inkscape-stroke:none;stop-color:#000"/><text xml:space="preserve" x="251.265" y="170.369" style="font-style:normal;font-variant:normal;font-weight:700;font-stretch:normal;font-size:4.29903px;line-height:1.25;font-family:Arial;-inkscape-font-specification:&quot;Arial Bold&quot;;white-space:pre;display:inline;fill:#fff;stroke:none;stroke-width:.264581" transform="scale(1.01553 .9847)"><tspan style="stroke-width:.264581">Vigor</tspan></text><text xml:space="preserve" x="224.398" y="170.797" style="font-style:normal;font-variant:normal;font-weight:700;font-stretch:normal;font-size:4.29903px;line-height:1.25;font-family:Arial;-inkscape-font-specification:&quot;Arial Bold&quot;;white-space:pre;display:inline;fill:#fff;stroke:none;stroke-width:.264581" transform="scale(1.01553 .9847)"><tspan style="stroke-width:.264581">Health</tspan></text><path d="M28.276 207.229v-3.283l2.32-2.32h3.283l2.321 2.32v3.283l-2.32 2.321h-3.283zM26.634 209.526v-3.162h-1.31l-1.852 1.853v1.31zM21.882 209.527H18.72v-1.31l1.852-1.853h1.31zM36.14 200.022l-.001-3.162h-1.31l-1.852 1.853v1.31zM31.387 200.023h-3.162v-1.31l1.852-1.853h1.31zM12.378 209.527v-3.162h-1.31l-1.852 1.852v1.31zM17.13 209.527h-3.162v-1.31l1.852-1.852h1.31zM26.634 200.023h-3.162v-1.31l1.853-1.853h1.31zM21.882 200.022v-3.162h-1.31l-1.852 1.853v1.31zM26.634 205.046h-3.162v-1.31l1.853-1.852h1.31zM21.882 205.046v-3.162h-1.31l-1.852 1.852v1.31zM17.13 200.294h-3.162v-1.31l1.853-1.853h1.31zM12.378 200.293v-3.162h-1.31l-1.852 1.853v1.31zM17.13 204.775h-3.162v-1.31l1.853-1.852h1.31zM12.378 204.775v-3.163h-1.31l-1.852 1.853v1.31zM67.268 207.229v-3.283l2.32-2.32h3.283l2.321 2.32v3.283l-2.32 2.321h-3.283zM65.626 209.526v-3.162h-1.31l-1.852 1.853v1.31zM60.874 209.527h-3.162v-1.31l1.852-1.853h1.31zM75.131 200.022v-3.162h-1.31l-1.852 1.853v1.31zM70.379 200.023h-3.162v-1.31l1.852-1.853h1.31zM51.37 209.527v-3.162h-1.31l-1.852 1.852v1.31zM56.122 209.527H52.96v-1.31l1.852-1.852h1.31zM65.626 200.023h-3.162v-1.31l1.853-1.853h1.31zM60.874 200.022v-3.162h-1.31l-1.852 1.853v1.31zM65.626 205.046h-3.162v-1.31l1.853-1.852h1.31zM60.874 205.046v-3.162h-1.31l-1.852 1.852v1.31zM56.122 200.294H52.96v-1.31l1.853-1.853h1.31zM51.37 200.293v-3.162h-1.31l-1.852 1.853v1.31zM56.122 204.775H52.96v-1.31l1.853-1.852h1.31zM51.37 204.775v-3.163h-1.31l-1.852 1.853v1.31zM106.268 207.229v-3.283l2.32-2.32h3.283l2.321 2.32v3.283l-2.32 2.321h-3.283zM104.626 209.526v-3.162h-1.31l-1.852 1.853v1.31zM99.874 209.527h-3.162v-1.31l1.852-1.853h1.31zM114.131 200.022v-3.162h-1.31l-1.852 1.853v1.31zM109.379 200.023h-3.162v-1.31l1.852-1.853h1.31zM90.37 209.527v-3.162h-1.31l-1.852 1.852v1.31zM95.122 209.527H91.96v-1.31l1.852-1.852h1.31zM104.626 200.023h-3.162v-1.31l1.853-1.853h1.31zM99.874 200.022v-3.162h-1.31l-1.852 1.853v1.31zM104.626 205.046h-3.162v-1.31l1.853-1.852h1.31zM99.874 205.046v-3.162h-1.31l-1.852 1.852v1.31zM95.122 200.294H91.96v-1.31l1.853-1.853h1.31zM90.37 200.293v-3.162h-1.31l-1.852 1.853v1.31zM95.122 204.775H91.96v-1.31l1.853-1.852h1.31zM90.37 204.775v-3.163h-1.31l-1.852 1.853v1.31zM145.268 207.214v-3.283l2.32-2.32h3.283l2.321 2.32v3.283l-2.32 2.321h-3.283zM143.626 209.511v-3.162h-1.31l-1.852 1.853v1.31zM138.874 209.512h-3.162v-1.31l1.852-1.853h1.31zM153.131 200.007v-3.162h-1.31l-1.852 1.853v1.31zM148.379 200.008h-3.162v-1.31l1.852-1.853h1.31zM129.37 209.512v-3.162h-1.31l-1.852 1.852v1.31zM134.122 209.512h-3.162v-1.31l1.852-1.852h1.31zM143.626 200.008h-3.162v-1.31l1.853-1.853h1.31zM138.874 200.007v-3.162h-1.31l-1.852 1.853v1.31zM143.626 205.031h-3.162v-1.31l1.853-1.852h1.31zM138.874 205.03v-3.161h-1.31l-1.852 1.852v1.31zM134.122 200.279h-3.162v-1.31l1.853-1.853h1.31zM129.37 200.278v-3.162h-1.31l-1.852 1.853v1.31zM134.122 204.76h-3.162v-1.31l1.853-1.852h1.31zM129.37 204.76v-3.163h-1.31l-1.852 1.853v1.31zM184.268 207.214v-3.283l2.32-2.32h3.283l2.321 2.32v3.283l-2.32 2.321h-3.283zM182.626 209.511v-3.162h-1.31l-1.852 1.853v1.31zM177.874 209.512h-3.162v-1.31l1.852-1.853h1.31zM192.131 200.007v-3.162h-1.31l-1.852 1.853v1.31zM187.379 200.008h-3.162v-1.31l1.852-1.853h1.31zM168.37 209.512v-3.162h-1.31l-1.852 1.852v1.31zM173.122 209.512h-3.162v-1.31l1.852-1.852h1.31zM182.626 200.008h-3.162v-1.31l1.853-1.853h1.31zM177.874 200.007v-3.162h-1.31l-1.852 1.853v1.31zM182.626 205.031h-3.162v-1.31l1.853-1.852h1.31zM177.874 205.03v-3.161h-1.31l-1.852 1.852v1.31zM173.122 200.279h-3.162v-1.31l1.853-1.853h1.31zM168.37 200.278v-3.162h-1.31l-1.852 1.853v1.31zM173.122 204.76h-3.162v-1.31l1.853-1.852h1.31zM168.37 204.76v-3.163h-1.31l-1.852 1.853v1.31z" style="font-variation-settings:normal;vector-effect:none;fill:none;fill-opacity:1;stroke:#000;stroke-width:.352777;stroke-linecap:butt;stroke-linejoin:miter;stroke-miterlimit:4;stroke-dasharray:none;stroke-dashoffset:0;stroke-opacity:1;-inkscape-stroke:none;stop-color:#000"/><path d="m245.068 188.925-1.226 1.226.639.64v2.62l-.64.638 1.227 1.226h23.28l1.226-1.226-.638-.639v-2.62l.638-.639-1.226-1.226h-11.64Z" style="font-variation-settings:normal;vector-effect:none;fill:#000;fill-opacity:1;stroke:#000;stroke-width:.352777;stroke-linecap:butt;stroke-linejoin:miter;stroke-miterlimit:4;stroke-dasharray:none;stroke-dashoffset:0;stroke-opacity:1;-inkscape-stroke:none;stop-color:#000"/><text xml:space="preserve" x="245.887" y="193.198" style="font-style:normal;font-variant:normal;font-weight:700;font-stretch:normal;font-size:4.23333px;line-height:1.25;font-family:Arial;-inkscape-font-specification:&quot;Arial Bold&quot;;white-space:pre;display:inline;fill:#fff;fill-opacity:1;stroke:none;stroke-width:.705556;stroke-dasharray:none"><tspan style="stroke-width:.705556">Inspiration</tspan></text><path d="M214.335 183.89v-2.63l1.86-1.86h2.63l1.86 1.86v2.63l-1.86 1.86h-2.63zM214.335 175.95v-2.63l1.86-1.86h2.63l1.86 1.86v2.63l-1.86 1.86h-2.63zM214.335 168.01v-2.63l1.86-1.86h2.63l1.86 1.86v2.63l-1.86 1.86h-2.63zM214.335 160.07v-2.63l1.86-1.86h2.63l1.86 1.86v2.63l-1.86 1.86h-2.63zM214.335 152.13v-2.63l1.86-1.86h2.63l1.86 1.86v2.63l-1.86 1.86h-2.63zM214.335 144.19v-2.63l1.86-1.86h2.63l1.86 1.86v2.63l-1.86 1.86h-2.63zM214.335 136.25v-2.63l1.86-1.86h2.63l1.86 1.86v2.63l-1.86 1.86h-2.63zM214.335 128.31v-2.63l1.86-1.86h2.63l1.86 1.86v2.63l-1.86 1.86h-2.63zM214.335 120.37v-2.63l1.86-1.86h2.63l1.86 1.86v2.63l-1.86 1.86h-2.63zM214.335 112.43v-2.63l1.86-1.86h2.63l1.86 1.86v2.63l-1.86 1.86h-2.63zM214.335 104.49v-2.63l1.86-1.86h2.63l1.86 1.86v2.63l-1.86 1.86h-2.63zM214.335 96.55v-2.63l1.86-1.86h2.63l1.86 1.86v2.63l-1.86 1.86h-2.63zM223.268 207.214v-3.283l2.32-2.32h3.283l2.321 2.32v3.283l-2.32 2.321h-3.283zM221.626 209.511v-3.162h-1.31l-1.852 1.853v1.31zM216.874 209.512h-3.162v-1.31l1.852-1.853h1.31zM231.131 200.007v-3.162h-1.31l-1.852 1.853v1.31zM226.379 200.008h-3.162v-1.31l1.852-1.853h1.31zM207.37 209.512v-3.162h-1.31l-1.852 1.852v1.31zM212.122 209.512h-3.162v-1.31l1.852-1.852h1.31zM221.626 200.008h-3.162v-1.31l1.853-1.853h1.31zM216.874 200.007v-3.162h-1.31l-1.852 1.853v1.31zM221.626 205.031h-3.162v-1.31l1.853-1.852h1.31zM216.874 205.03v-3.161h-1.31l-1.852 1.852v1.31zM212.122 200.279h-3.162v-1.31l1.853-1.853h1.31zM207.37 200.278v-3.162h-1.31l-1.852 1.853v1.31zM212.122 204.76h-3.162v-1.31l1.853-1.852h1.31zM207.37 204.76v-3.163h-1.31l-1.852 1.853v1.31zM266.715 96.55v-2.63l1.86-1.86h2.63l1.86 1.86v2.63l-1.86 1.86h-2.63zM240.502 152.13v-2.63l1.86-1.86h2.63l1.86 1.86v2.63l-1.86 1.86h-2.63zM240.502 160.07v-2.63l1.86-1.86h2.63l1.86 1.86v2.63l-1.86 1.86h-2.63zM266.669 152.13v-2.63l1.86-1.86h2.63l1.86 1.86v2.63l-1.86 1.86h-2.63zM266.669 160.07v-2.63l1.86-1.86h2.63l1.86 1.86v2.63l-1.86 1.86h-2.63zM171.756 185.75l-1.86-1.86v-2.63l1.86-1.86h39.13l1.86 1.86v2.63l-1.86 1.86zM171.756 177.81l-1.86-1.86v-2.63l1.86-1.86h39.13l1.86 1.86v2.63l-1.86 1.86zM171.756 169.87l-1.86-1.86v-2.63l1.86-1.86h39.13l1.86 1.86v2.63l-1.86 1.86zM171.756 161.93l-1.86-1.86v-2.63l1.86-1.86h39.13l1.86 1.86v2.63l-1.86 1.86zM171.756 153.99l-1.86-1.86v-2.63l1.86-1.86h39.13l1.86 1.86v2.63l-1.86 1.86zM171.756 146.05l-1.86-1.86v-2.63l1.86-1.86h39.13l1.86 1.86v2.63l-1.86 1.86zM171.756 138.11l-1.86-1.86v-2.63l1.86-1.86h39.13l1.86 1.86v2.63l-1.86 1.86zM171.756 130.17l-1.86-1.86v-2.63l1.86-1.86h39.13l1.86 1.86v2.63l-1.86 1.86zM171.756 122.23l-1.86-1.86v-2.63l1.86-1.86h39.13l1.86 1.86v2.63l-1.86 1.86zM171.756 114.29l-1.86-1.86v-2.63l1.86-1.86h39.13l1.86 1.86v2.63l-1.86 1.86zM171.756 106.35l-1.86-1.86v-2.63l1.86-1.86h39.13l1.86 1.86v2.63l-1.86 1.86zM171.756 98.41l-1.86-1.86v-2.63l1.86-1.86h39.13l1.86 1.86v2.63l-1.86 1.86zM224.135 106.35l-1.86-1.86v-2.63l1.86-1.86h20.867l1.86 1.86v2.63l-1.86 1.86zM250.312 106.35l-1.86-1.86v-2.63l1.86-1.86h20.867l1.86 1.86v2.63l-1.86 1.86zM224.135 114.29l-1.86-1.86v-2.63l1.86-1.86h20.867l1.86 1.86v2.63l-1.86 1.86zM250.312 114.29l-1.86-1.86v-2.63l1.86-1.86h20.867l1.86 1.86v2.63l-1.86 1.86z" style="font-variation-settings:normal;vector-effect:none;fill:none;fill-opacity:1;stroke:#000;stroke-width:.352777;stroke-linecap:butt;stroke-linejoin:miter;stroke-miterlimit:4;stroke-dasharray:none;stroke-dashoffset:0;stroke-opacity:1;-inkscape-stroke:none;stop-color:#000"/><path d="m171.76 68.23-1.86-1.86v-2.63l1.86-1.86h20.867l1.86 1.86v2.63l-1.86 1.86z" style="font-variation-settings:normal;vector-effect:none;fill:#000;fill-opacity:1;stroke:#000;stroke-width:.352777;stroke-linecap:butt;stroke-linejoin:miter;stroke-miterlimit:4;stroke-dasharray:none;stroke-dashoffset:0;stroke-opacity:1;-inkscape-stroke:none;stop-color:#000"/><text xml:space="preserve" x="172.842" y="66.571" style="font-style:normal;font-variant:normal;font-weight:700;font-stretch:normal;font-size:4.23333px;line-height:1.25;font-family:Arial;-inkscape-font-specification:&quot;Arial Bold&quot;;white-space:pre;fill:#fff;stroke-width:.264583"><tspan style="stroke-width:.264583">Influence</tspan></text><path d="m197.937 68.23-1.86-1.86v-2.63l1.86-1.86h20.867l1.86 1.86v2.63l-1.86 1.86zM224.135 122.23l-1.86-1.86v-2.63l1.86-1.86h20.867l1.86 1.86v2.63l-1.86 1.86zM250.312 122.23l-1.86-1.86v-2.63l1.86-1.86h20.867l1.86 1.86v2.63l-1.86 1.86zM224.135 130.17l-1.86-1.86v-2.63l1.86-1.86h20.867l1.86 1.86v2.63l-1.86 1.86zM250.312 130.17l-1.86-1.86v-2.63l1.86-1.86h20.867l1.86 1.86v2.63l-1.86 1.86zM224.135 138.11l-1.86-1.86v-2.63l1.86-1.86h20.867l1.86 1.86v2.63l-1.86 1.86zM250.312 138.11l-1.86-1.86v-2.63l1.86-1.86h20.867l1.86 1.86v2.63l-1.86 1.86zM250.312 146.05l-1.86-1.86v-2.63l1.86-1.86h20.867l1.86 1.86v2.63l-1.86 1.86zM169.857 70.728l1.836-.908 1.821.9v3.737l-1.82.9-1.837-.908zM175.104 70.72l1.837-.908 1.82.9v3.737l-1.82.9-1.836-.907zM180.352 70.712l1.836-.908 1.822.9v3.737l-1.821.9-1.836-.907zM185.6 70.712l1.836-.908 1.82.9v3.737l-1.82.9-1.836-.907zM190.847 70.705l1.836-.908 1.821.9v3.737l-1.82.9-1.837-.908zM196.094 70.697l1.837-.908 1.821.9v3.737l-1.82.9-1.837-.907zM201.342 70.69l1.836-.909 1.822.9v3.737l-1.821.9-1.836-.907zM206.59 70.69l1.836-.909 1.82.9v3.737l-1.82.9-1.836-.907zM211.837 70.682l1.836-.908 1.822.9v3.737l-1.821.9-1.837-.908zM217.084 70.681l1.836-.908 1.822.9v3.737l-1.821.9-1.836-.907zM169.857 77.855l1.836-.908 1.822.9v3.737l-1.821.9-1.836-.908zM175.105 77.847l1.836-.908 1.821.9v3.737l-1.82.9-1.837-.907zM180.352 77.84l1.837-.908 1.82.9v3.737l-1.82.9-1.836-.908zM185.6 77.84l1.836-.909 1.821.9v3.737l-1.82.9-1.837-.907zM190.847 77.832l1.836-.908 1.822.9v3.737l-1.821.9-1.836-.908zM196.095 77.824l1.836-.908 1.821.9v3.737l-1.82.9-1.837-.907zM201.342 77.817l1.837-.908 1.821.9v3.737l-1.82.9-1.837-.908zM206.59 77.816l1.836-.908 1.821.9v3.737l-1.82.9-1.837-.907zM211.837 77.809l1.837-.908 1.82.9v3.737l-1.82.9-1.836-.908zM217.084 77.809l1.837-.908 1.821.9v3.737l-1.82.9-1.837-.908zM250.307 171.713l-1.86 1.86v8.98l1.86 1.86h6.35l6.173-11.774-.926-.926zM271.164 186.003l1.86-1.86v-8.98l-1.86-1.86h-6.35l-6.173 11.774.926.926zM224.13 171.46l-1.86 1.86v8.98l1.86 1.86h6.35l6.173-11.774-.926-.926zM244.987 185.75l1.86-1.86v-8.98l-1.86-1.86h-6.35l-6.173 11.774.926.926zM224.101 90.47l-1.86-1.86V68.23h50.816v20.38l-1.86 1.86zM96.855 12.7v45.714l1.86 1.86h172.474l1.86-1.86V12.7ZM6.35 12.7v171.19l1.86 1.86h85.18l1.86-1.86V12.7zM162.025 74.31v-2.63l1.86-1.86h2.63l1.86 1.86v2.63l-1.86 1.86h-2.63zM98.794 126.99l-1.86-1.86V95.5l1.86-1.86h67.72l1.86 1.86v29.63l-1.86 1.86zM133.45 90.19v-2.63l1.86-1.86h31.205l1.86 1.86v2.63l-1.86 1.86H135.31zM133.45 82.25v-2.63l1.86-1.86h31.205l1.86 1.86v2.63l-1.86 1.86H135.31zM96.935 90.19v-2.63l1.86-1.86H130l1.86 1.86v2.63L130 92.05H98.795ZM96.935 82.25v-2.63l1.86-1.86H130l1.86 1.86v2.63L130 84.11H98.795ZM98.934 76.17l-1.86-1.86v-2.63l1.86-1.86h59.78l1.86 1.86v2.63l-1.86 1.86zM161.885 133.07v-2.63l1.86-1.86h2.63l1.86 1.86v2.63l-1.86 1.86h-2.63zM98.655 185.75l-1.86-1.86v-29.63l1.86-1.86h67.72l1.86 1.86v29.63l-1.86 1.86zM133.31 148.95v-2.63l1.86-1.86h31.206l1.86 1.86v2.63l-1.86 1.86H135.17zM133.31 141.01v-2.63l1.86-1.86h31.206l1.86 1.86v2.63l-1.86 1.86H135.17zM96.795 148.95v-2.63l1.86-1.86h31.206l1.86 1.86v2.63l-1.86 1.86H98.654ZM96.795 141.01v-2.63l1.86-1.86h31.206l1.86 1.86v2.63l-1.86 1.86H98.654ZM98.795 134.93l-1.86-1.86v-2.63l1.86-1.86h59.78l1.86 1.86v2.63l-1.86 1.86z" style="font-variation-settings:normal;vector-effect:none;fill:none;fill-opacity:1;stroke:#000;stroke-width:.352777;stroke-linecap:butt;stroke-linejoin:miter;stroke-miterlimit:4;stroke-dasharray:none;stroke-dashoffset:0;stroke-opacity:1;-inkscape-stroke:none;stop-color:#000"/><path d="M261.198 207.68v-2.818h-1.167l-1.651 1.65v1.168z" style="font-variation-settings:normal;vector-effect:none;fill:#000;fill-opacity:1;stroke:#000;stroke-width:.352777;stroke-linecap:butt;stroke-linejoin:miter;stroke-miterlimit:4;stroke-dasharray:none;stroke-dashoffset:0;stroke-opacity:1;-inkscape-stroke:none;stop-color:#000"/><path d="m256.708 209.54 1.993-1.993-.826-.825h-2.334l-.826.825zM250.358 203.19l1.993 1.993.826-.826v-2.334l-.826-.826zM256.708 196.84l-1.993 1.993.826.826h2.334l.826-.826z" style="font-variation-settings:normal;vector-effect:none;fill:#000;fill-opacity:1;stroke:#000;stroke-width:.352777;stroke-linecap:butt;stroke-linejoin:miter;stroke-miterlimit:4;stroke-dasharray:none;stroke-dashoffset:0;stroke-opacity:1;-inkscape-stroke:none;stop-color:#000"/><path d="M252.218 198.7v2.818h1.167l1.651-1.65V198.7zM261.198 198.7h-2.818v1.167l1.65 1.651h1.168zM252.218 207.68h2.818v-1.167l-1.65-1.651h-1.168z" style="font-variation-settings:normal;vector-effect:none;fill:#000;fill-opacity:1;stroke:#000;stroke-width:.352777;stroke-linecap:butt;stroke-linejoin:miter;stroke-miterlimit:4;stroke-dasharray:none;stroke-dashoffset:0;stroke-opacity:1;-inkscape-stroke:none;stop-color:#000"/><path d="m263.058 203.19-1.993-1.993-.825.826v2.334l.825.826z" style="font-variation-settings:normal;vector-effect:none;fill:#000;fill-opacity:1;stroke:#000;stroke-width:.352777;stroke-linecap:butt;stroke-linejoin:miter;stroke-miterlimit:4;stroke-dasharray:none;stroke-dashoffset:0;stroke-opacity:1;-inkscape-stroke:none;stop-color:#000"/><path d="M154.92 281.471h8.981v8.98h-8.981z" style="font-variation-settings:normal;vector-effect:none;fill:#000;fill-opacity:1;fill-rule:evenodd;stroke:#000;stroke-width:.352777;stroke-linecap:butt;stroke-linejoin:miter;stroke-miterlimit:4;stroke-dasharray:none;stroke-dashoffset:0;stroke-opacity:1;-inkscape-stroke:none;stop-color:#000" transform="rotate(-22.5)"/><path d="M-93.975 310.435h8.981v8.98h-8.981z" style="font-variation-settings:normal;vector-effect:none;fill:#000;fill-opacity:1;fill-rule:evenodd;stroke:#000;stroke-width:.352777;stroke-linecap:butt;stroke-linejoin:miter;stroke-miterlimit:4;stroke-dasharray:none;stroke-dashoffset:0;stroke-opacity:1;-inkscape-stroke:none;stop-color:#000" transform="rotate(-67.5)"/><path d="M252.746 204.831v-3.282l2.32-2.321h3.283l2.321 2.32v3.283l-2.32 2.321h-3.283z" style="font-variation-settings:normal;vector-effect:none;fill:#fff;fill-opacity:1;stroke:#000;stroke-width:.352777;stroke-linecap:butt;stroke-linejoin:miter;stroke-miterlimit:4;stroke-dasharray:none;stroke-dashoffset:0;stroke-opacity:1;-inkscape-stroke:none;stop-color:#000"/></svg>