<svg xmlns="http://www.w3.org/2000/svg" xml:space="preserve" width="11in" height="816" viewBox="0 0 279.4 215.9"><defs><path id="a" d="M24 24h336v24H24z"/></defs><path d="M0-279.4h215.9V0H0Z" style="font-variation-settings:normal;display:inline;fill:#fff;fill-opacity:1;fill-rule:evenodd;stroke:none;stroke-width:.705556;stroke-linecap:butt;stroke-linejoin:miter;stroke-miterlimit:4;stroke-dasharray:none;stroke-dashoffset:0;stroke-opacity:1;stop-color:#000" transform="rotate(90)"/><path d="M96.855 61.88h71.45v6.35h-71.45z" style="font-variation-settings:normal;vector-effect:none;fill:#000;fill-opacity:1;fill-rule:evenodd;stroke:#000;stroke-width:.352777;stroke-linecap:butt;stroke-linejoin:miter;stroke-miterlimit:4;stroke-dasharray:none;stroke-dashoffset:0;stroke-opacity:1;-inkscape-stroke:none;stop-color:#000"/><text xml:space="preserve" x="112.511" y="66.178" style="font-style:normal;font-variant:normal;font-weight:700;font-stretch:normal;font-size:4.23333px;line-height:1.25;font-family:Arial;-inkscape-font-specification:&quot;Arial Bold&quot;;white-space:pre;display:inline;fill:#fff;stroke:none;stroke-width:.264583"><tspan style="stroke-width:.264583">Combat Techniques</tspan></text><path d="M96.855 6.35H273.05v6.35H96.855Z" style="vector-effect:none;fill:#000;fill-opacity:1;fill-rule:evenodd;stroke:#000;stroke-width:.352778;stroke-linecap:butt;stroke-linejoin:miter;stroke-miterlimit:4;stroke-dasharray:none;stroke-dashoffset:0;stroke-opacity:1;-inkscape-stroke:none;stop-color:#000"/><text xml:space="preserve" x="169.167" y="10.595" style="font-style:normal;font-variant:normal;font-weight:700;font-stretch:normal;font-size:4.23333px;line-height:1.25;font-family:Arial;-inkscape-font-specification:&quot;Arial Bold&quot;;white-space:pre;display:inline;fill:#fff;stroke:none;stroke-width:.264583"><tspan style="stroke-width:.264583">Abilities - Major</tspan></text><path d="M9.208 188.92h27v6.35h-27z" style="font-variation-settings:normal;vector-effect:none;fill:#000;fill-opacity:1;fill-rule:evenodd;stroke:#000;stroke-width:.352778;stroke-linecap:butt;stroke-linejoin:miter;stroke-miterlimit:4;stroke-dasharray:none;stroke-dashoffset:0;stroke-opacity:1;-inkscape-stroke:none;stop-color:#000"/><text xml:space="preserve" x="13.143" y="193.165" style="font-style:normal;font-variant:normal;font-weight:700;font-stretch:normal;font-size:4.23333px;line-height:1.25;font-family:Arial;-inkscape-font-specification:&quot;Arial Bold&quot;;white-space:pre;display:inline;fill:#fff;fill-opacity:1;stroke:none;stroke-width:.705556;stroke-dasharray:none"><tspan style="stroke-width:.705556">Physique </tspan></text><path d="M243.208 188.92h27v6.35h-27z" style="font-variation-settings:normal;vector-effect:none;fill:#000;fill-opacity:1;fill-rule:evenodd;stroke:#000;stroke-width:.352778;stroke-linecap:butt;stroke-linejoin:miter;stroke-miterlimit:4;stroke-dasharray:none;stroke-dashoffset:0;stroke-opacity:1;-inkscape-stroke:none;stop-color:#000"/><text xml:space="preserve" x="245.887" y="193.193" style="font-style:normal;font-variant:normal;font-weight:700;font-stretch:normal;font-size:4.23333px;line-height:1.25;font-family:Arial;-inkscape-font-specification:&quot;Arial Bold&quot;;white-space:pre;display:inline;fill:#fff;fill-opacity:1;stroke:none;stroke-width:.705556;stroke-dasharray:none"><tspan style="stroke-width:.705556">Inspiration</tspan></text><path d="M9.208 196.86h3.175v3.175H9.208ZM13.973 196.86h3.175v3.175h-3.175zM9.208 201.625h3.175v3.175H9.208ZM13.973 201.625h3.175v3.175h-3.175zM18.738 196.86h3.175v3.175h-3.175zM23.503 196.86h3.175v3.175h-3.175zM28.268 196.86h3.175v3.175h-3.175zM33.033 196.86h3.175v3.175h-3.175zM18.738 201.625h3.175v3.175h-3.175zM23.503 201.625h3.175v3.175h-3.175zM28.268 201.625h7.924v7.925h-7.924zM9.208 206.39h3.175v3.175H9.208ZM13.973 206.39h3.175v3.175h-3.175zM18.738 206.39h3.175v3.175h-3.175zM23.503 206.39h3.175v3.175h-3.175z" style="vector-effect:none;fill:none;fill-rule:evenodd;stroke:#000;stroke-width:.352777;stop-color:#000"/><path d="M48.2 188.92h27v6.35h-27z" style="font-variation-settings:normal;vector-effect:none;fill:#000;fill-opacity:1;fill-rule:evenodd;stroke:#000;stroke-width:.352778;stroke-linecap:butt;stroke-linejoin:miter;stroke-miterlimit:4;stroke-dasharray:none;stroke-dashoffset:0;stroke-opacity:1;-inkscape-stroke:none;stop-color:#000"/><text xml:space="preserve" x="51.633" y="193.193" style="font-style:normal;font-variant:normal;font-weight:700;font-stretch:normal;font-size:4.23333px;line-height:1.25;font-family:Arial;-inkscape-font-specification:&quot;Arial Bold&quot;;white-space:pre;display:inline;fill:#fff;fill-opacity:1;stroke:none;stroke-width:.705556;stroke-dasharray:none"><tspan style="stroke-width:.705556">Discipline</tspan></text><path d="M48.2 196.86h3.175v3.175H48.2ZM52.965 196.86h3.175v3.175h-3.175zM48.2 201.625h3.175v3.175H48.2ZM52.965 201.625h3.175v3.175h-3.175ZM57.73 196.86h3.175v3.175H57.73ZM62.495 196.86h3.175v3.175h-3.175zM67.26 196.86h3.175v3.175H67.26ZM72.025 196.86H75.2v3.175h-3.175zM57.73 201.625h3.175v3.175H57.73ZM62.495 201.625h3.175v3.175h-3.175Z" style="fill:none;fill-rule:evenodd;stroke:#000;stroke-width:.352778;stroke-dasharray:none;stop-color:#000"/><path d="M67.26 201.625h7.925v7.925H67.26Z" style="fill:none;fill-rule:evenodd;stroke:#000;stroke-width:.352777;stroke-dasharray:none;stop-color:#000"/><path d="M48.2 206.39h3.175v3.175H48.2ZM52.965 206.39h3.175v3.175h-3.175zM57.73 206.39h3.175v3.175H57.73ZM62.495 206.39h3.175v3.175h-3.175z" style="fill:none;fill-rule:evenodd;stroke:#000;stroke-width:.352778;stroke-dasharray:none;stop-color:#000"/><path d="M87.2 188.92h27v6.35h-27z" style="font-variation-settings:normal;vector-effect:none;fill:#000;fill-opacity:1;fill-rule:evenodd;stroke:#000;stroke-width:.352778;stroke-linecap:butt;stroke-linejoin:miter;stroke-miterlimit:4;stroke-dasharray:none;stroke-dashoffset:0;stroke-opacity:1;-inkscape-stroke:none;stop-color:#000"/><text xml:space="preserve" x="90.158" y="193.585" style="font-style:normal;font-variant:normal;font-weight:700;font-stretch:normal;font-size:4.23333px;line-height:1.25;font-family:Arial;-inkscape-font-specification:&quot;Arial Bold&quot;;white-space:pre;display:inline;fill:#fff;fill-opacity:1;stroke:none;stroke-width:.705556;stroke-dasharray:none"><tspan style="stroke-width:.705556">Resilience</tspan></text><path d="M87.2 196.86h3.175v3.175H87.2ZM91.965 196.86h3.175v3.175h-3.175zM87.2 201.625h3.175v3.175H87.2ZM91.965 201.625h3.175v3.175h-3.175ZM96.73 196.86h3.175v3.175H96.73ZM101.495 196.86h3.175v3.175h-3.175zM106.26 196.86h3.175v3.175h-3.175zM111.025 196.86h3.175v3.175h-3.175zM96.73 201.625h3.175v3.175H96.73ZM101.495 201.625h3.175v3.175h-3.175z" style="fill:none;fill-rule:evenodd;stroke:#000;stroke-width:.352778;stroke-dasharray:none;stop-color:#000"/><path d="M106.26 201.625h7.925v7.925h-7.925z" style="fill:none;fill-rule:evenodd;stroke:#000;stroke-width:.352777;stroke-dasharray:none;stop-color:#000"/><path d="M87.2 206.39h3.175v3.175H87.2ZM91.965 206.39h3.175v3.175h-3.175zM96.73 206.39h3.175v3.175H96.73ZM101.495 206.39h3.175v3.175h-3.175z" style="fill:none;fill-rule:evenodd;stroke:#000;stroke-width:.352778;stroke-dasharray:none;stop-color:#000"/><path d="M126.2 188.905h27v6.35h-27z" style="font-variation-settings:normal;vector-effect:none;fill:#000;fill-opacity:1;fill-rule:evenodd;stroke:#000;stroke-width:.352778;stroke-linecap:butt;stroke-linejoin:miter;stroke-miterlimit:4;stroke-dasharray:none;stroke-dashoffset:0;stroke-opacity:1;-inkscape-stroke:none;stop-color:#000"/><text xml:space="preserve" x="130.1" y="193.57" style="font-style:normal;font-variant:normal;font-weight:700;font-stretch:normal;font-size:4.23333px;line-height:1.25;font-family:Arial;-inkscape-font-specification:&quot;Arial Bold&quot;;white-space:pre;display:inline;fill:#fff;fill-opacity:1;stroke:none;stroke-width:.705556;stroke-dasharray:none"><tspan style="stroke-width:.705556">Brilliance</tspan></text><path d="M126.2 196.845h3.175v3.175H126.2ZM130.965 196.845h3.175v3.175h-3.175zM126.2 201.61h3.175v3.175H126.2ZM130.965 201.61h3.175v3.175h-3.175zM135.73 196.845h3.175v3.175h-3.175zM140.495 196.845h3.175v3.175h-3.175zM145.26 196.845h3.175v3.175h-3.175zM150.025 196.845h3.175v3.175h-3.175zM135.73 201.61h3.175v3.175h-3.175zM140.495 201.61h3.175v3.175h-3.175z" style="fill:none;fill-rule:evenodd;stroke:#000;stroke-width:.352778;stroke-dasharray:none;stop-color:#000"/><path d="M145.26 201.61h7.925v7.925h-7.925z" style="fill:none;fill-rule:evenodd;stroke:#000;stroke-width:.352777;stroke-dasharray:none;stop-color:#000"/><path d="M126.2 206.375h3.175v3.175H126.2ZM130.965 206.375h3.175v3.175h-3.175zM135.73 206.375h3.175v3.175h-3.175zM140.495 206.375h3.175v3.175h-3.175z" style="fill:none;fill-rule:evenodd;stroke:#000;stroke-width:.352778;stroke-dasharray:none;stop-color:#000"/><path d="M165.2 188.905h27v6.35h-27z" style="font-variation-settings:normal;vector-effect:none;fill:#000;fill-opacity:1;fill-rule:evenodd;stroke:#000;stroke-width:.352778;stroke-linecap:butt;stroke-linejoin:miter;stroke-miterlimit:4;stroke-dasharray:none;stroke-dashoffset:0;stroke-opacity:1;-inkscape-stroke:none;stop-color:#000"/><text xml:space="preserve" x="167.406" y="193.595" style="font-style:normal;font-variant:normal;font-weight:700;font-stretch:normal;font-size:4.23333px;line-height:1.25;font-family:Arial;-inkscape-font-specification:&quot;Arial Bold&quot;;white-space:pre;display:inline;fill:#fff;fill-opacity:1;stroke:none;stroke-width:.705556;stroke-dasharray:none"><tspan style="stroke-width:.705556">Cleverness</tspan></text><path d="M165.2 196.845h3.175v3.175H165.2ZM169.965 196.845h3.175v3.175h-3.175zM165.2 201.61h3.175v3.175H165.2ZM169.965 201.61h3.175v3.175h-3.175zM174.73 196.845h3.175v3.175h-3.175zM179.495 196.845h3.175v3.175h-3.175zM184.26 196.845h3.175v3.175h-3.175zM189.025 196.845h3.175v3.175h-3.175zM174.73 201.61h3.175v3.175h-3.175zM179.495 201.61h3.175v3.175h-3.175z" style="fill:none;fill-rule:evenodd;stroke:#000;stroke-width:.352778;stroke-dasharray:none;stop-color:#000"/><path d="M184.26 201.61h7.925v7.925h-7.925z" style="fill:none;fill-rule:evenodd;stroke:#000;stroke-width:.352777;stroke-dasharray:none;stop-color:#000"/><path d="M165.2 206.375h3.175v3.175H165.2ZM169.965 206.375h3.175v3.175h-3.175zM174.73 206.375h3.175v3.175h-3.175zM179.495 206.375h3.175v3.175h-3.175z" style="fill:none;fill-rule:evenodd;stroke:#000;stroke-width:.352778;stroke-dasharray:none;stop-color:#000"/><path d="M204.2 188.905h27v6.35h-27z" style="font-variation-settings:normal;vector-effect:none;fill:#000;fill-opacity:1;fill-rule:evenodd;stroke:#000;stroke-width:.352778;stroke-linecap:butt;stroke-linejoin:miter;stroke-miterlimit:4;stroke-dasharray:none;stroke-dashoffset:0;stroke-opacity:1;-inkscape-stroke:none;stop-color:#000"/><text xml:space="preserve" x="208.216" y="193.57" style="font-style:normal;font-variant:normal;font-weight:700;font-stretch:normal;font-size:4.23333px;line-height:1.25;font-family:Arial;-inkscape-font-specification:&quot;Arial Bold&quot;;white-space:pre;display:inline;fill:#fff;fill-opacity:1;stroke:none;stroke-width:.705556;stroke-dasharray:none"><tspan style="stroke-width:.705556">Presence</tspan></text><path d="M204.2 196.845h3.175v3.175H204.2ZM208.965 196.845h3.175v3.175h-3.175zM204.2 201.61h3.175v3.175H204.2ZM208.965 201.61h3.175v3.175h-3.175zM213.73 196.845h3.175v3.175h-3.175zM218.495 196.845h3.175v3.175h-3.175zM223.26 196.845h3.175v3.175h-3.175zM228.025 196.845h3.175v3.175h-3.175zM213.73 201.61h3.175v3.175h-3.175zM218.495 201.61h3.175v3.175h-3.175z" style="fill:none;fill-rule:evenodd;stroke:#000;stroke-width:.352778;stroke-dasharray:none;stop-color:#000"/><path d="M223.26 201.61h7.925v7.925h-7.925zM252.738 198.448h7.924v7.924h-7.924z" style="fill:none;fill-rule:evenodd;stroke:#000;stroke-width:.352777;stroke-dasharray:none;stop-color:#000"/><path d="M204.2 206.375h3.175v3.175H204.2ZM208.965 206.375h3.175v3.175h-3.175zM213.73 206.375h3.175v3.175h-3.175zM218.495 206.375h3.175v3.175h-3.175z" style="fill:none;fill-rule:evenodd;stroke:#000;stroke-width:.352778;stroke-dasharray:none;stop-color:#000"/><path d="M96.855 12.7H273.05v47.574H96.855ZM161.951 69.82h6.35v6.35h-6.35zM96.855 69.82h63.5v6.35h-63.5zM96.855 77.76h34.925v6.35H96.855ZM133.37 77.76h34.925v6.35H133.37ZM96.855 85.7h34.925v6.35H96.855ZM133.37 85.7h34.925v6.35H133.37ZM96.855 93.64h71.44v33.35h-71.44zM161.951 128.58h6.35v6.35h-6.35zM96.855 128.58h63.5v6.35h-63.5zM96.855 136.52h34.925v6.35H96.855ZM133.37 136.52h34.925v6.35H133.37ZM96.855 144.46h34.925v6.35H96.855ZM133.37 144.46h34.925v6.35H133.37ZM96.855 152.4h71.44v33.35h-71.44zM6.35 12.7h88.9v173.05H6.35ZM169.896 69.83h50.8v12.7h-50.8z" style="font-variation-settings:normal;vector-effect:none;fill:none;fill-opacity:1;fill-rule:evenodd;stroke:#000;stroke-width:.352777;stroke-linecap:butt;stroke-linejoin:miter;stroke-miterlimit:4;stroke-dasharray:none;stroke-dashoffset:0;stroke-opacity:1;-inkscape-stroke:none;stop-color:#000"/><path d="M169.896 61.89h50.8v6.35h-50.8z" style="font-variation-settings:normal;vector-effect:none;fill:#000;fill-opacity:1;fill-rule:evenodd;stroke:#000;stroke-width:.352778;stroke-linecap:butt;stroke-linejoin:miter;stroke-miterlimit:4;stroke-dasharray:none;stroke-dashoffset:0;stroke-opacity:1;-inkscape-stroke:none;stop-color:#000"/><text xml:space="preserve" x="177.833" y="66.134" style="font-style:normal;font-variant:normal;font-weight:700;font-stretch:normal;font-size:4.23333px;line-height:1.25;font-family:Arial;-inkscape-font-specification:&quot;Arial Bold&quot;;white-space:pre;display:inline;fill:#fff;stroke:none;stroke-width:.264583"><tspan style="stroke-width:.264583">Hello My Name Is</tspan></text><path d="m174.859 64.44-.006.006c-.01.01-.02.02-.027.03l-2.71 2.944-.03.033c-.166.166-.402.202-.526.077-.124-.124-.089-.36.078-.526l.032-.03 2.944-2.71a.415.415 0 0 0 .03-.027l.006-.005a.341.341 0 0 0 .103-.28.131.131 0 0 0-.008-.034.29.29 0 0 1-.005-.03c-.049-.294.09-.67.387-.967.295-.295.667-.433.96-.388l-.18.18c-.031.032-.033.082-.004.11.029.03.077.026.108-.005l.254-.23a.46.46 0 0 1 .071.041l-.219.24a.079.079 0 0 0-.005.11c.029.028.077.027.11-.005l.239-.22c.015.023.03.047.041.072l-.23.253c-.03.032-.034.08-.006.109.03.029.079.027.11-.005l.18-.18c.042.267-.069.599-.312.879a1.54 1.54 0 0 1-.075.081c-.307.307-.698.445-.997.382a.16.16 0 0 0-.034-.008.342.342 0 0 0-.28.103z" style="fill:#fff;stroke:#000;stroke-width:.0352778;stroke-dasharray:none"/><path d="m173.192 64.44.006.006.027.03 2.71 2.944.029.033c.167.166.402.202.527.077.124-.124.089-.36-.078-.526l-.033-.03-2.944-2.71a.415.415 0 0 1-.03-.027l-.006-.005a.341.341 0 0 1-.103-.28.131.131 0 0 1 .008-.034.29.29 0 0 0 .005-.03c.05-.294-.09-.67-.387-.967-.294-.295-.667-.433-.96-.388l.18.18c.032.032.034.082.005.11-.03.03-.077.026-.109-.005l-.253-.23a.46.46 0 0 0-.072.041l.22.24c.032.032.033.08.005.11-.029.028-.077.027-.11-.005l-.24-.22a.457.457 0 0 0-.04.072l.23.253c.03.032.033.08.005.109-.029.029-.078.027-.11-.005l-.18-.18c-.041.267.07.599.312.879.024.027.05.055.076.081.307.307.698.445.997.382a.16.16 0 0 1 .034-.008.342.342 0 0 1 .28.103zM214.288 64.89h2.89c.146 0 .263.117.263.262v.35a.088.088 0 0 0 .176 0v-.35a.263.263 0 0 1 .525 0v.7a.088.088 0 0 0 .175 0v-.7c0-.145.118-.263.263-.263h.263a.263.263 0 0 0 0-.525h-.876v-.175a.263.263 0 0 0 0-.526h-2.803a.263.263 0 0 0 0 .526v.175h-.876a.263.263 0 0 0 0 .525zM218.843 67.167h-4.555a.263.263 0 0 0 0 .525h4.555a.263.263 0 0 0 0-.525zM216.566 63.488a.35.35 0 0 0 .123-.677.347.347 0 0 0-.036.152h-.175c0-.06.01-.116.028-.17a.35.35 0 0 0 .06.695zM217.792 66.378a.263.263 0 0 1-.526 0v-.175a.263.263 0 0 1 .526 0z" style="fill:#fff;stroke:#000;stroke-width:.0352778;stroke-dasharray:none"/><path d="M216.69 62.811a.35.35 0 0 1 .314-.199h.175v-.175h-.175a.528.528 0 0 0-.498.356.348.348 0 0 1 .183.018zM219.106 65.327a.263.263 0 0 0-.263-.262h-.263a.088.088 0 0 0-.088.087v.7a.263.263 0 0 1-.525 0v-.7a.088.088 0 0 0-.175 0v.35a.263.263 0 0 1-.526 0v-.35a.088.088 0 0 0-.087-.087h-2.89a.263.263 0 0 0 0 .525h2.802v.175h-2.803a.263.263 0 0 0 0 .526h2.803v.175h-2.803a.263.263 0 0 0 0 .526h4.555a.263.263 0 0 0 0-.526h-.876v-.175h.876a.263.263 0 0 0 0-.526v-.175a.263.263 0 0 0 .262-.263z" style="fill:#fff;stroke:#000;stroke-width:.0352778;stroke-dasharray:none"/><path d="M217.529 66.116a.088.088 0 0 0-.088.087v.175a.088.088 0 0 0 .176 0v-.175a.088.088 0 0 0-.088-.087z" style="fill:#fff;stroke:#000;stroke-width:.0352778;stroke-dasharray:none"/><path d="M6.35 6.35h88.915v6.35H6.35Z" style="font-variation-settings:normal;vector-effect:none;fill:#000;fill-opacity:1;fill-rule:evenodd;stroke:#000;stroke-width:.352778;stroke-linecap:butt;stroke-linejoin:miter;stroke-miterlimit:4;stroke-dasharray:none;stroke-dashoffset:0;stroke-opacity:1;-inkscape-stroke:none;stop-color:#000"/><text xml:space="preserve" style="font-size:16px;line-height:1.25;font-family:Arial;-inkscape-font-specification:Arial;white-space:pre;shape-inside:url(#a);display:inline" transform="translate(28.556 .852) scale(.26458)"><tspan x="24" y="38.412"><tspan style="font-weight:700;-inkscape-font-specification:&quot;Arial Bold&quot;;fill:#fff">Abilities - Minor</tspan></tspan></text><path d="M222.275 92.06h24.587v6.35h-24.587zM248.453 92.06h24.587v6.35h-24.587zM222.275 100h24.587v6.35h-24.587zM248.453 100h24.587v6.35h-24.587zM222.275 107.94h24.587v6.35h-24.587zM248.453 107.94h24.587v6.35h-24.587zM222.275 115.88h24.587v6.35h-24.587zM248.453 115.88h24.587v6.35h-24.587zM222.275 123.82h24.587v6.35h-24.587zM248.453 123.82h24.587v6.35h-24.587zM222.275 131.76h24.587v6.35h-24.587zM248.453 131.76h24.587v6.35h-24.587z" style="font-variation-settings:normal;vector-effect:none;fill:none;fill-opacity:1;fill-rule:evenodd;stroke:#000;stroke-width:.352777;stroke-linecap:butt;stroke-linejoin:miter;stroke-miterlimit:4;stroke-dasharray:none;stroke-dashoffset:0;stroke-opacity:1;-inkscape-stroke:none;stop-color:#000"/><path d="M248.442 155.58h16.637v6.35h-16.637zM222.275 155.58h16.637v6.35h-16.637z" style="font-variation-settings:normal;vector-effect:none;fill:#000;fill-opacity:1;fill-rule:evenodd;stroke:#000;stroke-width:.352777;stroke-linecap:butt;stroke-linejoin:miter;stroke-miterlimit:4;stroke-dasharray:none;stroke-dashoffset:0;stroke-opacity:1;-inkscape-stroke:none;stop-color:#000"/><path d="M169.896 84.12h50.8v6.35h-50.8z" style="font-variation-settings:normal;vector-effect:none;fill:#000;fill-opacity:1;fill-rule:evenodd;stroke:#000;stroke-width:.352778;stroke-linecap:butt;stroke-linejoin:miter;stroke-miterlimit:4;stroke-dasharray:none;stroke-dashoffset:0;stroke-opacity:1;-inkscape-stroke:none;stop-color:#000"/><text xml:space="preserve" x="185.886" y="90.188" style="font-style:normal;font-variant:normal;font-weight:700;font-stretch:normal;font-size:4.29905px;line-height:1.25;font-family:Arial;-inkscape-font-specification:&quot;Arial Bold&quot;;white-space:pre;display:inline;fill:#fff;stroke:none;stroke-width:.264582" transform="scale(1.01553 .9847)"><tspan style="stroke-width:.264582">Skills</tspan></text><text xml:space="preserve" x="183.406" y="96.725" style="font-style:normal;font-variant:normal;font-weight:400;font-stretch:normal;font-size:4.23333px;line-height:1.25;font-family:Arial;-inkscape-font-specification:Arial;white-space:pre;display:inline;fill:#000;fill-opacity:1;stroke:none;stroke-width:.705556;stroke-dasharray:none"><tspan style="stroke-width:.705556">Athletics</tspan></text><path d="M169.896 92.06h42.85v6.35h-42.85z" style="font-variation-settings:normal;vector-effect:none;fill:none;fill-opacity:1;fill-rule:evenodd;stroke:#000;stroke-width:.352777;stroke-linecap:butt;stroke-linejoin:miter;stroke-miterlimit:4;stroke-dasharray:none;stroke-dashoffset:0;stroke-opacity:1;-inkscape-stroke:none;stop-color:#000"/><text xml:space="preserve" x="182.479" y="104.69" style="font-style:normal;font-variant:normal;font-weight:400;font-stretch:normal;font-size:4.23333px;line-height:1.25;font-family:Arial;-inkscape-font-specification:Arial;white-space:pre;display:inline;fill:#000;fill-opacity:1;stroke:none;stroke-width:.705556;stroke-dasharray:none"><tspan style="stroke-width:.705556">Convince</tspan></text><path d="M169.896 100h42.85v6.35h-42.85z" style="font-variation-settings:normal;vector-effect:none;fill:none;fill-opacity:1;fill-rule:evenodd;stroke:#000;stroke-width:.352777;stroke-linecap:butt;stroke-linejoin:miter;stroke-miterlimit:4;stroke-dasharray:none;stroke-dashoffset:0;stroke-opacity:1;-inkscape-stroke:none;stop-color:#000"/><text xml:space="preserve" x="184.996" y="112.63" style="font-style:normal;font-variant:normal;font-weight:400;font-stretch:normal;font-size:4.23333px;line-height:1.25;font-family:Arial;-inkscape-font-specification:Arial;white-space:pre;display:inline;fill:#000;fill-opacity:1;stroke:none;stroke-width:.705556;stroke-dasharray:none"><tspan style="stroke-width:.705556">Covert</tspan></text><path d="M169.896 107.94h42.85v6.35h-42.85z" style="font-variation-settings:normal;vector-effect:none;fill:none;fill-opacity:1;fill-rule:evenodd;stroke:#000;stroke-width:.352777;stroke-linecap:butt;stroke-linejoin:miter;stroke-miterlimit:4;stroke-dasharray:none;stroke-dashoffset:0;stroke-opacity:1;-inkscape-stroke:none;stop-color:#000"/><text xml:space="preserve" x="183.823" y="120.545" style="font-style:normal;font-variant:normal;font-weight:400;font-stretch:normal;font-size:4.23333px;line-height:1.25;font-family:Arial;-inkscape-font-specification:Arial;white-space:pre;display:inline;fill:#000;fill-opacity:1;stroke:none;stroke-width:.705556;stroke-dasharray:none"><tspan style="stroke-width:.705556">Finesse</tspan></text><path d="M169.896 115.88h42.85v6.35h-42.85z" style="font-variation-settings:normal;vector-effect:none;fill:none;fill-opacity:1;fill-rule:evenodd;stroke:#000;stroke-width:.352777;stroke-linecap:butt;stroke-linejoin:miter;stroke-miterlimit:4;stroke-dasharray:none;stroke-dashoffset:0;stroke-opacity:1;-inkscape-stroke:none;stop-color:#000"/><text xml:space="preserve" x="184.902" y="128.065" style="font-style:normal;font-variant:normal;font-weight:400;font-stretch:normal;font-size:4.23333px;line-height:1.25;font-family:Arial;-inkscape-font-specification:Arial;white-space:pre;display:inline;fill:#000;fill-opacity:1;stroke:none;stroke-width:.705556;stroke-dasharray:none"><tspan style="stroke-width:.705556">Insight</tspan></text><path d="M169.896 123.82h42.85v6.35h-42.85z" style="font-variation-settings:normal;vector-effect:none;fill:none;fill-opacity:1;fill-rule:evenodd;stroke:#000;stroke-width:.352777;stroke-linecap:butt;stroke-linejoin:miter;stroke-miterlimit:4;stroke-dasharray:none;stroke-dashoffset:0;stroke-opacity:1;-inkscape-stroke:none;stop-color:#000"/><text xml:space="preserve" x="182.034" y="136.425" style="font-style:normal;font-variant:normal;font-weight:400;font-stretch:normal;font-size:4.23333px;line-height:1.25;font-family:Arial;-inkscape-font-specification:Arial;white-space:pre;display:inline;fill:#000;fill-opacity:1;stroke:none;stroke-width:.705556;stroke-dasharray:none"><tspan style="stroke-width:.705556">Intimidate</tspan></text><path d="M169.896 131.76h42.85v6.35h-42.85z" style="font-variation-settings:normal;vector-effect:none;fill:none;fill-opacity:1;fill-rule:evenodd;stroke:#000;stroke-width:.352777;stroke-linecap:butt;stroke-linejoin:miter;stroke-miterlimit:4;stroke-dasharray:none;stroke-dashoffset:0;stroke-opacity:1;-inkscape-stroke:none;stop-color:#000"/><text xml:space="preserve" x="182.78" y="144.365" style="font-style:normal;font-variant:normal;font-weight:400;font-stretch:normal;font-size:4.23333px;line-height:1.25;font-family:Arial;-inkscape-font-specification:Arial;white-space:pre;display:inline;fill:#000;fill-opacity:1;stroke:none;stroke-width:.705556;stroke-dasharray:none"><tspan style="stroke-width:.705556">Medicine</tspan></text><path d="M169.896 139.7h42.85v6.35h-42.85z" style="font-variation-settings:normal;vector-effect:none;fill:none;fill-opacity:1;fill-rule:evenodd;stroke:#000;stroke-width:.352777;stroke-linecap:butt;stroke-linejoin:miter;stroke-miterlimit:4;stroke-dasharray:none;stroke-dashoffset:0;stroke-opacity:1;-inkscape-stroke:none;stop-color:#000"/><text xml:space="preserve" x="180.017" y="152.305" style="font-style:normal;font-variant:normal;font-weight:400;font-stretch:normal;font-size:4.23333px;line-height:1.25;font-family:Arial;-inkscape-font-specification:Arial;white-space:pre;display:inline;fill:#000;fill-opacity:1;stroke:none;stroke-width:.705556;stroke-dasharray:none"><tspan style="stroke-width:.705556">Misdirection</tspan></text><path d="M169.896 147.64h42.85v6.35h-42.85z" style="font-variation-settings:normal;vector-effect:none;fill:none;fill-opacity:1;fill-rule:evenodd;stroke:#000;stroke-width:.352777;stroke-linecap:butt;stroke-linejoin:miter;stroke-miterlimit:4;stroke-dasharray:none;stroke-dashoffset:0;stroke-opacity:1;-inkscape-stroke:none;stop-color:#000"/><text xml:space="preserve" x="181.184" y="159.85" style="font-style:normal;font-variant:normal;font-weight:400;font-stretch:normal;font-size:4.23333px;line-height:1.25;font-family:Arial;-inkscape-font-specification:Arial;white-space:pre;display:inline;fill:#000;fill-opacity:1;stroke:none;stroke-width:.705556;stroke-dasharray:none"><tspan style="stroke-width:.705556">Perception</tspan></text><path d="M169.896 155.58h42.85v6.35h-42.85z" style="font-variation-settings:normal;vector-effect:none;fill:none;fill-opacity:1;fill-rule:evenodd;stroke:#000;stroke-width:.352777;stroke-linecap:butt;stroke-linejoin:miter;stroke-miterlimit:4;stroke-dasharray:none;stroke-dashoffset:0;stroke-opacity:1;-inkscape-stroke:none;stop-color:#000"/><text xml:space="preserve" x="182.239" y="168.185" style="font-style:normal;font-variant:normal;font-weight:400;font-stretch:normal;font-size:4.23333px;line-height:1.25;font-family:Arial;-inkscape-font-specification:Arial;white-space:pre;display:inline;fill:#000;fill-opacity:1;stroke:none;stroke-width:.705556;stroke-dasharray:none"><tspan style="stroke-width:.705556">Research</tspan></text><path d="M169.896 163.52h42.85v6.35h-42.85z" style="font-variation-settings:normal;vector-effect:none;fill:none;fill-opacity:1;fill-rule:evenodd;stroke:#000;stroke-width:.352777;stroke-linecap:butt;stroke-linejoin:miter;stroke-miterlimit:4;stroke-dasharray:none;stroke-dashoffset:0;stroke-opacity:1;-inkscape-stroke:none;stop-color:#000"/><text xml:space="preserve" x="183.846" y="176.15" style="font-style:normal;font-variant:normal;font-weight:400;font-stretch:normal;font-size:4.23333px;line-height:1.25;font-family:Arial;-inkscape-font-specification:Arial;white-space:pre;display:inline;fill:#000;fill-opacity:1;stroke:none;stroke-width:.705556;stroke-dasharray:none"><tspan style="stroke-width:.705556">Survival</tspan></text><path d="M169.896 179.4h42.85v6.35h-42.85zM214.335 179.4h6.35v6.35h-6.35zM169.896 171.46h42.85v6.35h-42.85zM214.335 92.06h6.35v6.35h-6.35zM214.335 100h6.35v6.35h-6.35zM214.335 107.94h6.35v6.35h-6.35zM214.335 115.88h6.35v6.35h-6.35zM214.335 123.82h6.35v6.35h-6.35zM214.335 131.76h6.35v6.35h-6.35zM214.335 139.7h6.35v6.35h-6.35zM214.335 147.64h6.35v6.35h-6.35zM214.335 155.58h6.35v6.35h-6.35zM214.335 163.52h6.35v6.35h-6.35zM214.335 171.46h6.35v6.35h-6.35z" style="font-variation-settings:normal;vector-effect:none;fill:none;fill-opacity:1;fill-rule:evenodd;stroke:#000;stroke-width:.352777;stroke-linecap:butt;stroke-linejoin:miter;stroke-miterlimit:4;stroke-dasharray:none;stroke-dashoffset:0;stroke-opacity:1;-inkscape-stroke:none;stop-color:#000"/><path d="M222.275 139.7h24.587v6.35h-24.587z" style="font-variation-settings:normal;vector-effect:none;fill:#000;fill-opacity:1;fill-rule:evenodd;stroke:#000;stroke-width:.352778;stroke-linecap:butt;stroke-linejoin:miter;stroke-miterlimit:4;stroke-dasharray:none;stroke-dashoffset:0;stroke-opacity:1;-inkscape-stroke:none;stop-color:#000"/><text xml:space="preserve" x="226.897" y="144.365" style="font-style:normal;font-variant:normal;font-weight:700;font-stretch:normal;font-size:4.23333px;line-height:1.25;font-family:Arial;-inkscape-font-specification:&quot;Arial Bold&quot;;white-space:pre;display:inline;fill:#fff;fill-opacity:1;stroke:none;stroke-width:.705556;stroke-dasharray:none"><tspan style="stroke-width:.705556">Armour</tspan></text><path d="M248.452 139.7h24.587v6.35h-24.587zM266.669 155.58h6.35v6.35h-6.35zM240.502 155.58h6.35v6.35h-6.35z" style="font-variation-settings:normal;vector-effect:none;fill:none;fill-opacity:1;fill-rule:evenodd;stroke:#000;stroke-width:.352777;stroke-linecap:butt;stroke-linejoin:miter;stroke-miterlimit:4;stroke-dasharray:none;stroke-dashoffset:0;stroke-opacity:1;-inkscape-stroke:none;stop-color:#000"/><path d="M248.442 147.64h16.637v6.35h-16.637z" style="font-variation-settings:normal;vector-effect:none;fill:#000;fill-opacity:1;fill-rule:evenodd;stroke:#000;stroke-width:.352777;stroke-linecap:butt;stroke-linejoin:miter;stroke-miterlimit:4;stroke-dasharray:none;stroke-dashoffset:0;stroke-opacity:1;-inkscape-stroke:none;stop-color:#000"/><path d="M240.502 147.64h6.35v6.35h-6.35zM266.669 147.64h6.35v6.35h-6.35zM266.715 84.12h6.35v6.35h-6.35z" style="font-variation-settings:normal;vector-effect:none;fill:none;fill-opacity:1;fill-rule:evenodd;stroke:#000;stroke-width:.352777;stroke-linecap:butt;stroke-linejoin:miter;stroke-miterlimit:4;stroke-dasharray:none;stroke-dashoffset:0;stroke-opacity:1;-inkscape-stroke:none;stop-color:#000"/><path d="M222.275 147.64h16.637v6.35h-16.637z" style="font-variation-settings:normal;vector-effect:none;fill:#000;fill-opacity:1;fill-rule:evenodd;stroke:#000;stroke-width:.352777;stroke-linecap:butt;stroke-linejoin:miter;stroke-miterlimit:4;stroke-dasharray:none;stroke-dashoffset:0;stroke-opacity:1;-inkscape-stroke:none;stop-color:#000"/><path d="M222.275 84.12h42.85v6.35h-42.85z" style="font-variation-settings:normal;vector-effect:none;fill:#000;fill-opacity:1;fill-rule:evenodd;stroke:#000;stroke-width:.352778;stroke-linecap:butt;stroke-linejoin:miter;stroke-miterlimit:4;stroke-dasharray:none;stroke-dashoffset:0;stroke-opacity:1;-inkscape-stroke:none;stop-color:#000"/><text xml:space="preserve" x="234.063" y="88.365" style="font-style:normal;font-variant:normal;font-weight:700;font-stretch:normal;font-size:4.23333px;line-height:1.25;font-family:Arial;-inkscape-font-specification:&quot;Arial Bold&quot;;white-space:pre;display:inline;fill:#fff;fill-opacity:1;stroke:none;stroke-width:.705556;stroke-dasharray:none"><tspan style="stroke-width:.705556">Inventory</tspan></text><text xml:space="preserve" x="225.641" y="152.33" style="font-style:normal;font-variant:normal;font-weight:700;font-stretch:normal;font-size:4.23333px;line-height:1.25;font-family:Arial;-inkscape-font-specification:&quot;Arial Bold&quot;;white-space:pre;display:inline;fill:#fff;fill-opacity:1;stroke:none;stroke-width:.705556;stroke-dasharray:none"><tspan style="font-style:normal;font-variant:normal;font-weight:700;font-stretch:normal;font-family:Arial;-inkscape-font-specification:&quot;Arial Bold&quot;;fill:#fff;stroke-width:.705556">Gear</tspan></text><text xml:space="preserve" x="250.466" y="159.878" style="font-style:normal;font-variant:normal;font-weight:700;font-stretch:normal;font-size:4.23334px;line-height:1.25;font-family:Arial;-inkscape-font-specification:&quot;Arial Bold&quot;;white-space:pre;display:inline;fill:#fff;fill-opacity:1;stroke:none;stroke-width:.705555;stroke-dasharray:none"><tspan style="font-style:normal;font-variant:normal;font-weight:700;font-stretch:normal;font-family:Arial;-inkscape-font-specification:&quot;Arial Bold&quot;;fill:#fff;stroke-width:.705555">Speed</tspan></text><text xml:space="preserve" x="225.164" y="160.245" style="font-style:normal;font-variant:normal;font-weight:700;font-stretch:normal;font-size:4.23334px;line-height:1.25;font-family:Arial;-inkscape-font-specification:&quot;Arial Bold&quot;;white-space:pre;display:inline;fill:#fff;fill-opacity:1;stroke:none;stroke-width:.705555;stroke-dasharray:none"><tspan style="font-style:normal;font-variant:normal;font-weight:700;font-stretch:normal;font-family:Arial;-inkscape-font-specification:&quot;Arial Bold&quot;;fill:#fff;stroke-width:.705555">Level</tspan></text><text xml:space="preserve" x="253.562" y="152.33" style="font-style:normal;font-variant:normal;font-weight:700;font-stretch:normal;font-size:4.23333px;line-height:1.25;font-family:Arial;-inkscape-font-specification:&quot;Arial Bold&quot;;white-space:pre;display:inline;fill:#fff;fill-opacity:1;stroke:none;stroke-width:.705556;stroke-dasharray:none"><tspan style="font-style:normal;font-variant:normal;font-weight:700;font-stretch:normal;font-family:Arial;-inkscape-font-specification:&quot;Arial Bold&quot;;fill:#fff;stroke-width:.705556">DR</tspan></text><path d="M248.463 61.89h24.587v6.35h-24.587z" style="font-variation-settings:normal;vector-effect:none;fill:none;fill-opacity:1;fill-rule:evenodd;stroke:#000;stroke-width:.352777;stroke-linecap:butt;stroke-linejoin:miter;stroke-miterlimit:4;stroke-dasharray:none;stroke-dashoffset:0;stroke-opacity:1;-inkscape-stroke:none;stop-color:#000"/><path d="M222.286 61.89h24.587v6.35h-24.587z" style="font-variation-settings:normal;vector-effect:none;fill:#000;fill-opacity:1;fill-rule:evenodd;stroke:#000;stroke-width:.352778;stroke-linecap:butt;stroke-linejoin:miter;stroke-miterlimit:4;stroke-dasharray:none;stroke-dashoffset:0;stroke-opacity:1;-inkscape-stroke:none;stop-color:#000"/><text xml:space="preserve" x="225.228" y="66.581" style="font-style:normal;font-variant:normal;font-weight:700;font-stretch:normal;font-size:4.23333px;line-height:1.25;font-family:Arial;-inkscape-font-specification:&quot;Arial Bold&quot;;white-space:pre;fill:#fff;stroke-width:.264583"><tspan style="stroke-width:.264583">Influence</tspan></text><text xml:space="preserve" x="170.542" y="181.736" style="font-style:normal;font-variant:normal;font-weight:400;font-stretch:normal;font-size:2.11667px;line-height:1.25;font-family:Arial;-inkscape-font-specification:Arial;white-space:pre;display:inline;fill:#000;fill-opacity:1;stroke:none;stroke-width:.705556;stroke-dasharray:none"><tspan style="font-style:italic;font-variant:normal;font-weight:400;font-stretch:normal;font-size:2.11667px;font-family:Arial;-inkscape-font-specification:&quot;Arial Italic&quot;;stroke-width:.705556">Specialty: </tspan></text><path d="M248.442 163.52h24.587v6.35h-24.587z" style="font-variation-settings:normal;vector-effect:none;fill:#000;fill-opacity:1;fill-rule:evenodd;stroke:#000;stroke-width:.352777;stroke-linecap:butt;stroke-linejoin:miter;stroke-miterlimit:4;stroke-dasharray:none;stroke-dashoffset:0;stroke-opacity:1;-inkscape-stroke:none;stop-color:#000"/><text xml:space="preserve" x="251.266" y="170.37" style="font-style:normal;font-variant:normal;font-weight:700;font-stretch:normal;font-size:4.29905px;line-height:1.25;font-family:Arial;-inkscape-font-specification:&quot;Arial Bold&quot;;white-space:pre;display:inline;fill:#fff;stroke:none;stroke-width:.264582" transform="scale(1.01553 .9847)"><tspan style="stroke-width:.264582">Vigor</tspan></text><path d="m257.956 185.75 7.14-12.7h7.923v12.7zM263.505 171.46l-7.139 12.7h-7.924v-12.7z" style="font-variation-settings:normal;vector-effect:none;fill:none;fill-opacity:1;stroke:#000;stroke-width:.352777;stroke-linecap:butt;stroke-linejoin:miter;stroke-miterlimit:4;stroke-dasharray:none;stroke-dashoffset:0;stroke-opacity:1;-inkscape-stroke:none;stop-color:#000"/><path d="M222.275 163.52h24.587v6.35h-24.587z" style="font-variation-settings:normal;vector-effect:none;fill:#000;fill-opacity:1;fill-rule:evenodd;stroke:#000;stroke-width:.352777;stroke-linecap:butt;stroke-linejoin:miter;stroke-miterlimit:4;stroke-dasharray:none;stroke-dashoffset:0;stroke-opacity:1;-inkscape-stroke:none;stop-color:#000"/><text xml:space="preserve" x="224.399" y="170.798" style="font-style:normal;font-variant:normal;font-weight:700;font-stretch:normal;font-size:4.29905px;line-height:1.25;font-family:Arial;-inkscape-font-specification:&quot;Arial Bold&quot;;white-space:pre;display:inline;fill:#fff;stroke:none;stroke-width:.264582" transform="scale(1.01553 .9847)"><tspan style="stroke-width:.264582">Health</tspan></text><path d="m231.79 185.75 7.138-12.7h7.924v12.7zM237.338 171.46l-7.139 12.7h-7.924v-12.7z" style="font-variation-settings:normal;vector-effect:none;fill:none;fill-opacity:1;stroke:#000;stroke-width:.352777;stroke-linecap:butt;stroke-linejoin:miter;stroke-miterlimit:4;stroke-dasharray:none;stroke-dashoffset:0;stroke-opacity:1;-inkscape-stroke:none;stop-color:#000"/><path d="M224.079 69.83h.914l.914 1.384v2.769l-.914 1.384H223.164l-.914-1.384v-2.769l.914-1.384z" style="font-variation-settings:normal;opacity:1;vector-effect:none;fill:none;fill-opacity:1;stroke:#000;stroke-width:.352777;stroke-linecap:butt;stroke-linejoin:miter;stroke-miterlimit:4;stroke-dasharray:none;stroke-dashoffset:0;stroke-opacity:1;-inkscape-stroke:none;stop-color:#000;stop-opacity:1"/><path d="M229.326 69.83h.915l.914 1.384v2.769l-.914 1.384H228.412l-.915-1.384v-2.769l.915-1.384zM234.574 69.83h.914l.915 1.384v2.769l-.915 1.384h-1.828l-.915-1.384v-2.769l.915-1.384zM239.822 69.83h.914l.914 1.384v2.769l-.914 1.384H238.907l-.914-1.384v-2.769l.914-1.384zM245.07 69.83h.914l.914 1.384v2.769l-.914 1.384H244.155l-.915-1.384v-2.769l.915-1.384zM250.317 69.83h.914l.915 1.384v2.769l-.915 1.384H249.402l-.914-1.384v-2.769l.914-1.384zM255.564 69.83h.915l.914 1.384v2.769l-.914 1.384H254.65l-.914-1.384v-2.769l.914-1.384zM260.812 69.83h.915l.914 1.384v2.769l-.914 1.384H259.898l-.915-1.384v-2.769l.915-1.384zM266.06 69.83h.914l.915 1.384v2.769l-.915 1.384H265.145l-.914-1.384v-2.769l.914-1.384zM271.307 69.83h.915l.914 1.384v2.769l-.914 1.384H270.393l-.914-1.384v-2.769l.914-1.384ZM224.079 76.957h.914l.914 1.385v2.768l-.914 1.384H223.164l-.914-1.384v-2.768l.914-1.385zM229.326 76.957h.915l.914 1.385v2.768l-.914 1.384H228.412l-.915-1.384v-2.768l.915-1.385zM234.574 76.957h.914l.915 1.385v2.768l-.915 1.384h-1.828l-.915-1.384v-2.768l.915-1.385zM239.822 76.957h.914l.914 1.385v2.768l-.914 1.384H238.907l-.914-1.384v-2.768l.914-1.385zM245.07 76.957h.914l.914 1.385v2.768l-.914 1.384H244.155l-.915-1.384v-2.768l.915-1.385zM250.317 76.957h.914l.915 1.385v2.768l-.915 1.384H249.402l-.914-1.384v-2.768l.914-1.385zM255.564 76.957h.915l.914 1.385v2.768l-.914 1.384H254.65l-.914-1.384v-2.768l.914-1.385zM260.812 76.957h.915l.914 1.385v2.768l-.914 1.384H259.898l-.915-1.384v-2.768l.915-1.385zM266.06 76.957h.914l.915 1.385v2.768l-.915 1.384H265.145l-.914-1.384v-2.768l.914-1.385zM271.307 76.957h.915l.914 1.385v2.768l-.914 1.384H270.393l-.914-1.384v-2.768l.914-1.385z" style="font-variation-settings:normal;vector-effect:none;fill:none;fill-opacity:1;stroke:#000;stroke-width:.352777;stroke-linecap:butt;stroke-linejoin:miter;stroke-miterlimit:4;stroke-dasharray:none;stroke-dashoffset:0;stroke-opacity:1;-inkscape-stroke:none;stop-color:#000"/></svg>