<svg xmlns="http://www.w3.org/2000/svg" xml:space="preserve" width="11in" height="816" viewBox="0 0 279.4 215.9"><defs><path id="a" d="M24 24h336v24H24Z"/></defs><path d="M279.4 0v215.9H0V0Z" style="font-variation-settings:normal;display:inline;fill:#fff;fill-opacity:1;fill-rule:evenodd;stroke:none;stroke-width:.705556;stroke-linecap:butt;stroke-linejoin:miter;stroke-miterlimit:4;stroke-dasharray:none;stroke-dashoffset:0;stroke-opacity:1;stop-color:#000"/><path d="m268.642 84.115-.687 1.172-1.173.687v2.631l1.173.687.687 1.173h2.631l.687-1.173 1.172-.687v-2.631l-1.172-.687-.687-1.172h-1.316z" style="font-variation-settings:normal;fill:none;fill-opacity:1;stroke:#000;stroke-width:.352778;stroke-linecap:butt;stroke-linejoin:miter;stroke-miterlimit:4;stroke-dasharray:none;stroke-dashoffset:0;stroke-opacity:1;stop-color:#000"/><path d="m244.904 189.1-1.226 1.227.639.638v2.62l-.64.64 1.227 1.225h23.28l1.226-1.226-.639-.639v-2.62l.64-.638-1.227-1.227h-11.64Z" style="font-variation-settings:normal;fill:#000;fill-opacity:1;stroke:#000;stroke-width:.352778;stroke-linecap:butt;stroke-linejoin:miter;stroke-miterlimit:4;stroke-dasharray:none;stroke-dashoffset:0;stroke-opacity:1;stop-color:#000"/><text xml:space="preserve" x="245.723" y="193.373" style="font-style:normal;font-variant:normal;font-weight:700;font-stretch:normal;font-size:4.23333px;line-height:1.25;font-family:Arial;-inkscape-font-specification:&quot;Arial Bold&quot;;white-space:pre;display:inline;fill:#fff;fill-opacity:1;stroke:none;stroke-width:.352778;stroke-dasharray:none"><tspan style="stroke-width:.352778;stroke-dasharray:none">Inspiration</tspan></text><path d="m10.904 189.1-1.226 1.227.639.638v2.62l-.64.64 1.227 1.225h23.28l1.226-1.226-.639-.639v-2.62l.64-.638-1.227-1.227h-11.64Z" style="font-variation-settings:normal;fill:#000;fill-opacity:1;stroke:#000;stroke-width:.352778;stroke-linecap:butt;stroke-linejoin:miter;stroke-miterlimit:4;stroke-dasharray:none;stroke-dashoffset:0;stroke-opacity:1;stop-color:#000"/><text xml:space="preserve" x="12.979" y="193.345" style="font-style:normal;font-variant:normal;font-weight:700;font-stretch:normal;font-size:4.23333px;line-height:1.25;font-family:Arial;-inkscape-font-specification:&quot;Arial Bold&quot;;white-space:pre;display:inline;fill:#fff;fill-opacity:1;stroke:none;stroke-width:.352778;stroke-dasharray:none"><tspan style="stroke-width:.352778;stroke-dasharray:none">Physique </tspan></text><path d="m49.896 189.1-1.226 1.227.639.638v2.62l-.64.64 1.227 1.225h23.28l1.226-1.226-.639-.639v-2.62l.64-.638-1.227-1.227h-11.64Z" style="font-variation-settings:normal;fill:#000;fill-opacity:1;stroke:#000;stroke-width:.352778;stroke-linecap:butt;stroke-linejoin:miter;stroke-miterlimit:4;stroke-dasharray:none;stroke-dashoffset:0;stroke-opacity:1;stop-color:#000"/><text xml:space="preserve" x="51.469" y="193.373" style="font-style:normal;font-variant:normal;font-weight:700;font-stretch:normal;font-size:4.23333px;line-height:1.25;font-family:Arial;-inkscape-font-specification:&quot;Arial Bold&quot;;white-space:pre;display:inline;fill:#fff;fill-opacity:1;stroke:none;stroke-width:.352778;stroke-dasharray:none"><tspan style="stroke-width:.352778;stroke-dasharray:none">Discipline</tspan></text><path d="m88.896 189.1-1.226 1.227.639.638v2.62l-.64.64 1.227 1.225h23.28l1.226-1.226-.639-.639v-2.62l.64-.638-1.227-1.227h-11.64Z" style="font-variation-settings:normal;fill:#000;fill-opacity:1;stroke:#000;stroke-width:.352778;stroke-linecap:butt;stroke-linejoin:miter;stroke-miterlimit:4;stroke-dasharray:none;stroke-dashoffset:0;stroke-opacity:1;stop-color:#000"/><text xml:space="preserve" x="89.994" y="193.765" style="font-style:normal;font-variant:normal;font-weight:700;font-stretch:normal;font-size:4.23333px;line-height:1.25;font-family:Arial;-inkscape-font-specification:&quot;Arial Bold&quot;;white-space:pre;display:inline;fill:#fff;fill-opacity:1;stroke:none;stroke-width:.352778;stroke-dasharray:none"><tspan style="stroke-width:.352778;stroke-dasharray:none">Resilience</tspan></text><path d="m108.907 203.205-1.993-1.993-.826.826v2.334l.826.826zm4.408 0-1.993-1.993-.825.825v2.335l.825.826zm-6.615 6.165v-2.819h-1.167l-1.651 1.651v1.168zm-12.329 0v-2.819h1.168l1.65 1.651v1.168zm12.329-12.33h-2.818v1.168l1.65 1.65h1.168zm-12.329 0v2.82l1.168-.001 1.65-1.651v-1.168zm-2.206 6.165 1.993-1.993.825.826v2.334l-.825.826zm-4.408 0 1.993-1.993.825.825v2.335l-.826.826zm2.206 6.165h2.818v-1.168l-1.651-1.65h-1.167zm0-12.33h2.818v1.168l-1.651 1.65h-1.167zm21.146 12.33h-2.819v-1.168l1.652-1.65h1.167zm0-12.33h-2.819v1.168l1.652 1.65h1.167z" style="font-variation-settings:normal;fill:none;fill-opacity:1;stroke:#000;stroke-width:.352778;stroke-linecap:butt;stroke-linejoin:miter;stroke-miterlimit:4;stroke-dasharray:none;stroke-dashoffset:0;stroke-opacity:1;stop-color:#000"/><path d="m127.896 189.1-1.226 1.227.639.638v2.62l-.64.64 1.227 1.225h23.28l1.226-1.226-.639-.639v-2.62l.64-.638-1.227-1.227h-11.64Z" style="font-variation-settings:normal;fill:#000;fill-opacity:1;stroke:#000;stroke-width:.352778;stroke-linecap:butt;stroke-linejoin:miter;stroke-miterlimit:4;stroke-dasharray:none;stroke-dashoffset:0;stroke-opacity:1;stop-color:#000"/><text xml:space="preserve" x="129.936" y="193.765" style="font-style:normal;font-variant:normal;font-weight:700;font-stretch:normal;font-size:4.23333px;line-height:1.25;font-family:Arial;-inkscape-font-specification:&quot;Arial Bold&quot;;white-space:pre;display:inline;fill:#fff;fill-opacity:1;stroke:none;stroke-width:.352778;stroke-dasharray:none"><tspan style="stroke-width:.352778;stroke-dasharray:none">Brilliance</tspan></text><path d="m147.907 203.205-1.993-1.993-.826.826v2.334l.826.826zm4.408 0-1.993-1.993-.825.825v2.335l.825.826zm-6.615 6.165v-2.819h-1.167l-1.651 1.651v1.168zm-12.329 0v-2.819h1.168l1.65 1.651v1.168zm12.329-12.33h-2.818v1.168l1.65 1.65h1.168zm-12.329 0v2.82l1.168-.001 1.65-1.651v-1.168zm-2.206 6.165 1.993-1.993.825.826v2.334l-.825.826zm-4.408 0 1.993-1.993.825.825v2.335l-.826.826zm2.206 6.165h2.818v-1.168l-1.651-1.65h-1.167zm0-12.33h2.818v1.168l-1.651 1.65h-1.167zm21.146 12.33h-2.819v-1.168l1.652-1.65h1.167zm0-12.33h-2.819v1.168l1.652 1.65h1.167z" style="font-variation-settings:normal;fill:none;fill-opacity:1;stroke:#000;stroke-width:.352778;stroke-linecap:butt;stroke-linejoin:miter;stroke-miterlimit:4;stroke-dasharray:none;stroke-dashoffset:0;stroke-opacity:1;stop-color:#000"/><path d="m166.896 189.1-1.226 1.227.639.638v2.62l-.64.64 1.227 1.225h23.28l1.226-1.226-.639-.639v-2.62l.64-.638-1.227-1.227h-11.64Z" style="font-variation-settings:normal;fill:#000;fill-opacity:1;stroke:#000;stroke-width:.352778;stroke-linecap:butt;stroke-linejoin:miter;stroke-miterlimit:4;stroke-dasharray:none;stroke-dashoffset:0;stroke-opacity:1;stop-color:#000"/><text xml:space="preserve" x="167.242" y="193.79" style="font-style:normal;font-variant:normal;font-weight:700;font-stretch:normal;font-size:4.23333px;line-height:1.25;font-family:Arial;-inkscape-font-specification:&quot;Arial Bold&quot;;white-space:pre;display:inline;fill:#fff;fill-opacity:1;stroke:none;stroke-width:.352778;stroke-dasharray:none"><tspan style="stroke-width:.352778;stroke-dasharray:none">Cleverness</tspan></text><path d="m186.907 203.205-1.993-1.993-.826.826v2.334l.826.826zm4.408 0-1.993-1.993-.825.825v2.335l.825.826zm-6.615 6.165v-2.819h-1.167l-1.651 1.651v1.168zm-12.329 0v-2.819h1.168l1.65 1.651v1.168zm12.329-12.33h-2.818v1.168l1.65 1.65h1.168zm-12.329 0v2.82l1.168-.001 1.65-1.651v-1.168zm-2.206 6.165 1.993-1.993.825.826v2.334l-.825.826zm-4.409 0 1.994-1.993.825.825v2.335l-.826.826zm2.207 6.165h2.818v-1.168l-1.651-1.65h-1.167zm0-12.33h2.818v1.168l-1.651 1.65h-1.167zm21.146 12.33h-2.819v-1.168l1.652-1.65h1.167zm0-12.33h-2.819v1.168l1.652 1.65h1.167z" style="font-variation-settings:normal;fill:none;fill-opacity:1;stroke:#000;stroke-width:.352778;stroke-linecap:butt;stroke-linejoin:miter;stroke-miterlimit:4;stroke-dasharray:none;stroke-dashoffset:0;stroke-opacity:1;stop-color:#000"/><path d="m205.896 189.1-1.226 1.227.639.638v2.62l-.64.64 1.227 1.225h23.28l1.226-1.226-.639-.639v-2.62l.64-.638-1.227-1.227h-11.64Z" style="font-variation-settings:normal;fill:#000;fill-opacity:1;stroke:#000;stroke-width:.352778;stroke-linecap:butt;stroke-linejoin:miter;stroke-miterlimit:4;stroke-dasharray:none;stroke-dashoffset:0;stroke-opacity:1;stop-color:#000"/><text xml:space="preserve" x="208.052" y="193.765" style="font-style:normal;font-variant:normal;font-weight:700;font-stretch:normal;font-size:4.23333px;line-height:1.25;font-family:Arial;-inkscape-font-specification:&quot;Arial Bold&quot;;white-space:pre;display:inline;fill:#fff;fill-opacity:1;stroke:none;stroke-width:.352778;stroke-dasharray:none"><tspan style="stroke-width:.352778;stroke-dasharray:none">Presence</tspan></text><path d="m224.239 146.045-1.86-1.86v-2.63l1.86-1.86h39.08l1.86 1.86v2.63l-1.86 1.86z" style="font-variation-settings:normal;fill:#000;fill-opacity:1;stroke:#000;stroke-width:.352778;stroke-linecap:butt;stroke-linejoin:miter;stroke-miterlimit:4;stroke-dasharray:none;stroke-dashoffset:0;stroke-opacity:1;stop-color:#000"/><text xml:space="preserve" x="230.848" y="143.939" style="font-style:normal;font-variant:normal;font-weight:700;font-stretch:normal;font-size:4.23333px;line-height:1.25;font-family:Arial;-inkscape-font-specification:&quot;Arial Bold&quot;;white-space:pre;display:inline;fill:#fff;fill-opacity:1;stroke:none;stroke-width:.352778;stroke-dasharray:none"><tspan style="stroke-width:.352778;stroke-dasharray:none">Armour Type</tspan></text><path d="m224.239 90.465-1.86-1.86v-2.63l1.86-1.86h39.093l1.86 1.86v2.63l-1.86 1.86z" style="font-variation-settings:normal;vector-effect:none;fill:#000;fill-opacity:1;stroke:#000;stroke-width:.352777;stroke-linecap:butt;stroke-linejoin:miter;stroke-miterlimit:4;stroke-dasharray:none;stroke-dashoffset:0;stroke-opacity:1;-inkscape-stroke:none;stop-color:#000"/><text xml:space="preserve" x="234.148" y="88.359" style="font-style:normal;font-variant:normal;font-weight:700;font-stretch:normal;font-size:4.23333px;line-height:1.25;font-family:Arial;-inkscape-font-specification:&quot;Arial Bold&quot;;white-space:pre;display:inline;fill:#fff;fill-opacity:1;stroke:none;stroke-width:.352778;stroke-dasharray:none"><tspan style="stroke-width:.352778;stroke-dasharray:none">Inventory</tspan></text><path d="m224.239 153.985-1.86-1.86v-2.63l1.86-1.86h39.08l1.86 1.86v2.63l-1.86 1.86z" style="font-variation-settings:normal;fill:#000;fill-opacity:1;stroke:#000;stroke-width:.352778;stroke-linecap:butt;stroke-linejoin:miter;stroke-miterlimit:4;stroke-dasharray:none;stroke-dashoffset:0;stroke-opacity:1;stop-color:#000"/><text xml:space="preserve" x="224.597" y="151.879" style="font-style:normal;font-variant:normal;font-weight:700;font-stretch:normal;font-size:4.23334px;line-height:1.25;font-family:Arial;-inkscape-font-specification:&quot;Arial Bold&quot;;white-space:pre;display:inline;fill:#fff;fill-opacity:1;stroke:none;stroke-width:.352778;stroke-dasharray:none"><tspan style="font-style:normal;font-variant:normal;font-weight:700;font-stretch:normal;font-family:Arial;-inkscape-font-specification:&quot;Arial Bold&quot;;fill:#fff;stroke-width:.352778;stroke-dasharray:none">Damage Reduction</tspan></text><path d="m250.416 169.865-1.86-1.86v-2.63l1.86-1.86h20.867l1.86 1.86v2.63l-1.86 1.86z" style="font-variation-settings:normal;fill:#000;fill-opacity:1;stroke:#000;stroke-width:.352778;stroke-linecap:butt;stroke-linejoin:miter;stroke-miterlimit:4;stroke-dasharray:none;stroke-dashoffset:0;stroke-opacity:1;stop-color:#000"/><text xml:space="preserve" x="251.377" y="170.364" style="font-style:normal;font-variant:normal;font-weight:700;font-stretch:normal;font-size:4.29903px;line-height:1.25;font-family:Arial;-inkscape-font-specification:&quot;Arial Bold&quot;;white-space:pre;display:inline;fill:#fff;stroke:none;stroke-width:.352778;stroke-dasharray:none" transform="scale(1.01553 .9847)"><tspan style="stroke-width:.352778;stroke-dasharray:none">Vigor</tspan></text><path d="m224.239 169.865-1.86-1.86v-2.63l1.86-1.86h20.867l1.86 1.86v2.63l-1.86 1.86z" style="font-variation-settings:normal;fill:#000;fill-opacity:1;stroke:#000;stroke-width:.352778;stroke-linecap:butt;stroke-linejoin:miter;stroke-miterlimit:4;stroke-dasharray:none;stroke-dashoffset:0;stroke-opacity:1;stop-color:#000"/><text xml:space="preserve" x="224.511" y="170.792" style="font-style:normal;font-variant:normal;font-weight:700;font-stretch:normal;font-size:4.29903px;line-height:1.25;font-family:Arial;-inkscape-font-specification:&quot;Arial Bold&quot;;white-space:pre;display:inline;fill:#fff;stroke:none;stroke-width:.352778;stroke-dasharray:none" transform="scale(1.01553 .9847)"><tspan style="stroke-width:.352778;stroke-dasharray:none">Health</tspan></text><path d="m224.239 98.405-1.86-1.86v-2.63l1.86-1.86h20.867l1.86 1.86v2.63l-1.86 1.86zm26.177 0-1.86-1.86v-2.63l1.86-1.86h20.867l1.86 1.86v2.63l-1.86 1.86zm-26.177 7.94-1.86-1.86v-2.63l1.86-1.86h20.867l1.86 1.86v2.63l-1.86 1.86zm26.177 0-1.86-1.86v-2.63l1.86-1.86h20.867l1.86 1.86v2.63l-1.86 1.86zm-26.177 7.94-1.86-1.86v-2.63l1.86-1.86h20.867l1.86 1.86v2.63l-1.86 1.86zm26.177 0-1.86-1.86v-2.63l1.86-1.86h20.867l1.86 1.86v2.63l-1.86 1.86zm-26.177 7.94-1.86-1.86v-2.63l1.86-1.86h20.867l1.86 1.86v2.63l-1.86 1.86zm26.177 0-1.86-1.86v-2.63l1.86-1.86h20.867l1.86 1.86v2.63l-1.86 1.86zm-26.177 7.94-1.86-1.86v-2.63l1.86-1.86h20.867l1.86 1.86v2.63l-1.86 1.86zm26.177 0-1.86-1.86v-2.63l1.86-1.86h20.867l1.86 1.86v2.63l-1.86 1.86zm-26.177 7.94-1.86-1.86v-2.63l1.86-1.86h20.867l1.86 1.86v2.63l-1.86 1.86zm26.177 0-1.86-1.86v-2.63l1.86-1.86h20.867l1.86 1.86v2.63l-1.86 1.86zm0 33.35-1.86 1.86v8.98l1.86 1.86h6.35l6.173-11.774-.926-.926zm20.857 14.29 1.86-1.86v-8.98l-1.86-1.86h-6.35l-6.173 11.774.926.926zm-47.034-14.29-1.86 1.86v8.98l1.86 1.86h6.35l6.173-11.774-.926-.926zm20.857 14.29 1.86-1.86v-8.98l-1.86-1.86h-6.35l-6.173 11.774.926.926z" style="font-variation-settings:normal;fill:none;fill-opacity:1;stroke:#000;stroke-width:.352778;stroke-linecap:butt;stroke-linejoin:miter;stroke-miterlimit:4;stroke-dasharray:none;stroke-dashoffset:0;stroke-opacity:1;stop-color:#000"/><path d="m224.239 161.925-1.86-1.86v-2.63l1.86-1.86h39.08l1.86 1.86v2.63l-1.86 1.86z" style="font-variation-settings:normal;fill:#000;fill-opacity:1;stroke:#000;stroke-width:.352778;stroke-linecap:butt;stroke-linejoin:miter;stroke-miterlimit:4;stroke-dasharray:none;stroke-dashoffset:0;stroke-opacity:1;stop-color:#000"/><text xml:space="preserve" x="226.355" y="159.873" style="font-style:normal;font-variant:normal;font-weight:700;font-stretch:normal;font-size:4.23334px;line-height:1.25;font-family:Arial;-inkscape-font-specification:&quot;Arial Bold&quot;;white-space:pre;display:inline;fill:#fff;fill-opacity:1;stroke:none;stroke-width:.352778;stroke-dasharray:none"><tspan style="font-style:normal;font-variant:normal;font-weight:700;font-stretch:normal;font-family:Arial;-inkscape-font-specification:&quot;Arial Bold&quot;;fill:#fff;stroke-width:.352778;stroke-dasharray:none">Movement Speed</tspan></text><path fill="none" d="m287.965 159.276-6.133 1.643-4.49-4.49 1.643-6.133 6.134-1.644 4.49 4.49z" style="fill:#fff;fill-opacity:0;stroke:#000;stroke-width:.656592;stroke-dasharray:none" transform="matrix(.55768 -.12941 .14943 .48296 88.726 120.678)"/><text xml:space="preserve" style="font-size:16px;line-height:1.25;font-family:Arial;-inkscape-font-specification:Arial;white-space:pre;shape-inside:url(#a);display:inline;stroke-width:1.33335;stroke-dasharray:none" transform="translate(29.603 .852) scale(.26458)"><tspan x="24" y="38.412"><tspan style="font-weight:700;-inkscape-font-specification:&quot;Arial Bold&quot;;fill:#fff">Abilities</tspan></tspan></text><path d="M128.702 12.7H6.35V8.21l1.86-1.86h118.632l1.86 1.86z" style="font-variation-settings:normal;vector-effect:none;fill:#000;fill-opacity:1;stroke:#000;stroke-width:.352777;stroke-linecap:butt;stroke-linejoin:miter;stroke-miterlimit:4;stroke-dasharray:none;stroke-dashoffset:0;stroke-opacity:1;-inkscape-stroke:none;stop-color:#000"/><text xml:space="preserve" x="59.395" y="11.015" style="font-style:normal;font-variant:normal;font-weight:700;font-stretch:normal;font-size:4.23333px;line-height:1.25;font-family:Arial;-inkscape-font-specification:&quot;Arial Bold&quot;;white-space:pre;display:inline;fill:#fff;stroke:none;stroke-width:.352778;stroke-dasharray:none"><tspan style="fill:#fff;stroke-width:.352778;stroke-dasharray:none">Abilities</tspan></text><text xml:space="preserve" x="140.654" y="96.72" style="font-style:normal;font-variant:normal;font-weight:400;font-stretch:normal;font-size:4.23333px;line-height:1.25;font-family:Arial;-inkscape-font-specification:Arial;white-space:pre;display:inline;fill:#000;fill-opacity:1;stroke:none;stroke-width:.352778;stroke-dasharray:none"><tspan style="stroke-width:.352778;stroke-dasharray:none">Athletics</tspan></text><text xml:space="preserve" x="139.727" y="104.685" style="font-style:normal;font-variant:normal;font-weight:400;font-stretch:normal;font-size:4.23333px;line-height:1.25;font-family:Arial;-inkscape-font-specification:Arial;white-space:pre;display:inline;fill:#000;fill-opacity:1;stroke:none;stroke-width:.352778;stroke-dasharray:none"><tspan style="stroke-width:.352778;stroke-dasharray:none">Convince</tspan></text><text xml:space="preserve" x="142.181" y="112.624" style="font-style:normal;font-variant:normal;font-weight:400;font-stretch:normal;font-size:4.23333px;line-height:1.25;font-family:Arial;-inkscape-font-specification:Arial;white-space:pre;display:inline;fill:#000;fill-opacity:1;stroke:none;stroke-width:.352778;stroke-dasharray:none"><tspan style="stroke-width:.352778;stroke-dasharray:none">Covert</tspan></text><text xml:space="preserve" x="141.072" y="120.54" style="font-style:normal;font-variant:normal;font-weight:400;font-stretch:normal;font-size:4.23333px;line-height:1.25;font-family:Arial;-inkscape-font-specification:Arial;white-space:pre;display:inline;fill:#000;fill-opacity:1;stroke:none;stroke-width:.352778;stroke-dasharray:none"><tspan style="stroke-width:.352778;stroke-dasharray:none">Finesse</tspan></text><text xml:space="preserve" x="142.151" y="128.059" style="font-style:normal;font-variant:normal;font-weight:400;font-stretch:normal;font-size:4.23333px;line-height:1.25;font-family:Arial;-inkscape-font-specification:Arial;white-space:pre;display:inline;fill:#000;fill-opacity:1;stroke:none;stroke-width:.352778;stroke-dasharray:none"><tspan style="stroke-width:.352778;stroke-dasharray:none">Insight</tspan></text><text xml:space="preserve" x="139.283" y="136.42" style="font-style:normal;font-variant:normal;font-weight:400;font-stretch:normal;font-size:4.23333px;line-height:1.25;font-family:Arial;-inkscape-font-specification:Arial;white-space:pre;display:inline;fill:#000;fill-opacity:1;stroke:none;stroke-width:.352778;stroke-dasharray:none"><tspan style="stroke-width:.352778;stroke-dasharray:none">Intimidate</tspan></text><text xml:space="preserve" x="186.059" y="96.72" style="font-style:normal;font-variant:normal;font-weight:400;font-stretch:normal;font-size:4.23333px;line-height:1.25;font-family:Arial;-inkscape-font-specification:Arial;white-space:pre;display:inline;fill:#000;fill-opacity:1;stroke:none;stroke-width:.352778;stroke-dasharray:none"><tspan style="stroke-width:.352778;stroke-dasharray:none">Medicine</tspan></text><text xml:space="preserve" x="183.295" y="104.66" style="font-style:normal;font-variant:normal;font-weight:400;font-stretch:normal;font-size:4.23333px;line-height:1.25;font-family:Arial;-inkscape-font-specification:Arial;white-space:pre;display:inline;fill:#000;fill-opacity:1;stroke:none;stroke-width:.352778;stroke-dasharray:none"><tspan style="stroke-width:.352778;stroke-dasharray:none">Misdirection</tspan></text><text xml:space="preserve" x="184.462" y="112.204" style="font-style:normal;font-variant:normal;font-weight:400;font-stretch:normal;font-size:4.23333px;line-height:1.25;font-family:Arial;-inkscape-font-specification:Arial;white-space:pre;display:inline;fill:#000;fill-opacity:1;stroke:none;stroke-width:.352778;stroke-dasharray:none"><tspan style="stroke-width:.352778;stroke-dasharray:none">Perception</tspan></text><text xml:space="preserve" x="185.517" y="120.54" style="font-style:normal;font-variant:normal;font-weight:400;font-stretch:normal;font-size:4.23333px;line-height:1.25;font-family:Arial;-inkscape-font-specification:Arial;white-space:pre;display:inline;fill:#000;fill-opacity:1;stroke:none;stroke-width:.352778;stroke-dasharray:none"><tspan style="stroke-width:.352778;stroke-dasharray:none">Research</tspan></text><text xml:space="preserve" x="187.124" y="128.505" style="font-style:normal;font-variant:normal;font-weight:400;font-stretch:normal;font-size:4.23333px;line-height:1.25;font-family:Arial;-inkscape-font-specification:Arial;white-space:pre;display:inline;fill:#000;fill-opacity:1;stroke:none;stroke-width:.352778;stroke-dasharray:none"><tspan style="stroke-width:.352778;stroke-dasharray:none">Survival</tspan></text><text xml:space="preserve" x="177.749" y="136.445" style="font-style:normal;font-variant:normal;font-weight:400;font-stretch:normal;font-size:4.23333px;line-height:1.25;font-family:Arial;-inkscape-font-specification:Arial;white-space:pre;display:inline;fill:#000;fill-opacity:1;stroke:none;stroke-width:.352778;stroke-dasharray:none"><tspan style="stroke-width:.352778;stroke-dasharray:none">SP:</tspan></text><path d="M214.439 136.245v-2.63l1.86-1.86h2.63l1.86 1.86v2.63l-1.86 1.86h-2.63zm0-7.94v-2.63l1.86-1.86h2.63l1.86 1.86v2.63l-1.86 1.86h-2.63zm0-7.94v-2.63l1.86-1.86h2.63l1.86 1.86v2.63l-1.86 1.86h-2.63zm0-7.94v-2.63l1.86-1.86h2.63l1.86 1.86v2.63l-1.86 1.86h-2.63zm0-7.94v-2.63l1.86-1.86h2.63l1.86 1.86v2.63l-1.86 1.86h-2.63zm0-7.94v-2.63l1.86-1.86h2.63l1.86 1.86v2.63l-1.86 1.86h-2.63zm-46.029 39.7v-2.63l1.859-1.86h2.63l1.86 1.86v2.63l-1.86 1.86h-2.63zm0-7.94v-2.63l1.859-1.86h2.63l1.86 1.86v2.63l-1.86 1.86h-2.63zm0-7.94v-2.63l1.859-1.86h2.63l1.86 1.86v2.63l-1.86 1.86h-2.63zm0-7.94v-2.63l1.859-1.86h2.63l1.86 1.86v2.63l-1.86 1.86h-2.63zm0-7.94v-2.63l1.859-1.86h2.63l1.86 1.86v2.63l-1.86 1.86h-2.63zm0-7.94v-2.63l1.86-1.86h2.63l1.86 1.86v2.63l-1.86 1.86h-2.63zm9.799 33.62-1.86-1.86v-2.63l1.86-1.86h32.78l1.86 1.86v2.63l-1.86 1.86zm0-7.94-1.86-1.86v-2.63l1.86-1.86h32.78l1.86 1.86v2.63l-1.86 1.86zm0-7.94-1.86-1.86v-2.63l1.86-1.86h32.78l1.86 1.86v2.63l-1.86 1.86zm0-7.94-1.86-1.86v-2.63l1.86-1.86h32.78l1.86 1.86v2.63l-1.86 1.86zm.001-7.94-1.86-1.86v-2.63l1.86-1.86h32.78l1.859 1.86v2.63l-1.86 1.86zm-46.03 39.7-1.86-1.86v-2.63l1.86-1.86h32.78l1.859 1.86v2.63l-1.86 1.86zm0-7.94-1.86-1.86v-2.63l1.86-1.86h32.78l1.859 1.86v2.63l-1.86 1.86zm0-7.94-1.86-1.86v-2.63l1.86-1.86h32.78l1.86 1.86v2.63l-1.86 1.86zm0-7.94-1.86-1.86v-2.63l1.86-1.86h32.78l1.86 1.86v2.63l-1.86 1.86zm0-7.94-1.86-1.86v-2.63l1.86-1.86h32.78l1.86 1.86v2.63l-1.86 1.86zm0-7.94-1.86-1.86v-2.63l1.86-1.86h32.78l1.86 1.86v2.63l-1.86 1.86zm46.029 39.7-1.86-1.86v-2.63l1.86-1.86h32.78l1.86 1.86v2.63l-1.86 1.86z" style="font-variation-settings:normal;fill:none;fill-opacity:1;stroke:#000;stroke-width:.352778;stroke-linecap:butt;stroke-linejoin:miter;stroke-miterlimit:4;stroke-dasharray:none;stroke-dashoffset:0;stroke-opacity:1;stop-color:#000"/><path d="m132.18 90.467-1.86-1.86v-2.63l1.86-1.86h86.754l1.86 1.86v2.63l-1.86 1.86z" style="font-variation-settings:normal;vector-effect:none;fill:#000;fill-opacity:1;stroke:#000;stroke-width:.352777;stroke-linecap:butt;stroke-linejoin:miter;stroke-miterlimit:4;stroke-dasharray:none;stroke-dashoffset:0;stroke-opacity:1;-inkscape-stroke:none;stop-color:#000"/><text xml:space="preserve" x="167.281" y="90.186" style="font-style:normal;font-variant:normal;font-weight:700;font-stretch:normal;font-size:4.29903px;line-height:1.25;font-family:Arial;-inkscape-font-specification:&quot;Arial Bold&quot;;white-space:pre;display:inline;fill:#fff;stroke:none;stroke-width:.352778;stroke-dasharray:none" transform="scale(1.01553 .9847)"><tspan style="stroke-width:.352778;stroke-dasharray:none">Skills</tspan></text><path d="M130.32 12.7V8.21l1.86-1.86h66.841l1.86 1.86v4.49z" style="font-variation-settings:normal;vector-effect:none;fill:#000;fill-opacity:1;stroke:#000;stroke-width:.352777;stroke-linecap:butt;stroke-linejoin:miter;stroke-miterlimit:4;stroke-dasharray:none;stroke-dashoffset:0;stroke-opacity:1;-inkscape-stroke:none;stop-color:#000"/><path d="m196.522 6.757-.46.46-.6-.249-.248.6h-.65v.65l-.6.248.25.6-.46.46.459.458-.249.6.6.25v.648h.65l.248.6.6-.248.46.459.46-.46.6.249.248-.6h.65v-.65l.6-.248-.248-.6.459-.459-.46-.459.25-.6-.601-.249v-.649h-.65l-.248-.6-.6.249z" style="font-variation-settings:normal;fill:#fff;fill-opacity:1;stroke:#000;stroke-width:.352778;stroke-linecap:butt;stroke-linejoin:miter;stroke-miterlimit:4;stroke-dasharray:none;stroke-dashoffset:0;stroke-opacity:1;stop-color:#000"/><text xml:space="preserve" x="146.691" y="10.648" style="font-style:normal;font-variant:normal;font-weight:700;font-stretch:normal;font-size:4.23333px;line-height:1.25;font-family:Arial;-inkscape-font-specification:&quot;Arial Bold&quot;;white-space:pre;display:inline;fill:#fff;stroke:none;stroke-width:.352778;stroke-dasharray:none"><tspan style="fill:#fff;stroke:none;stroke-width:.352778;stroke-dasharray:none">Combat Technique</tspan></text><path d="M271.53 139.695h-3.174l-1.588 1.587v3.175l3.175 1.588 3.175-1.588v-3.175z" style="font-variation-settings:normal;vector-effect:none;fill:none;fill-opacity:1;stroke:#000;stroke-width:.352777;stroke-linecap:butt;stroke-linejoin:miter;stroke-miterlimit:4;stroke-dasharray:none;stroke-dashoffset:0;stroke-opacity:1;-inkscape-stroke:none;stop-color:#000"/><path d="M269.944 153.985c-2.528-1.574-3.2-4.003-3.175-5.5 2.058-1.077 4.168-1.19 6.35 0 .025 1.497-.648 3.926-3.175 5.5z" style="font-variation-settings:normal;fill:none;fill-opacity:1;stroke:#000;stroke-width:.352778;stroke-linecap:butt;stroke-linejoin:miter;stroke-miterlimit:4;stroke-dasharray:none;stroke-dashoffset:0;stroke-opacity:1;stop-color:#000"/><path d="m132.18 19.05-1.86-1.86V12.7h70.561v4.49l-1.86 1.86zm0 7.94-1.86-1.86V22.5l1.86-1.86h30.748l1.86 1.86v2.63l-1.86 1.86zm36.058 0-1.86-1.86V22.5l1.86-1.86h30.748l1.86 1.86v2.63l-1.86 1.86zm-36.058 7.94-1.86-1.86v-2.63l1.86-1.86h30.748l1.86 1.86v2.63l-1.86 1.86zm36.058 0-1.86-1.86v-2.63l1.86-1.86h30.748l1.86 1.86v2.63l-1.86 1.86zM132.18 82.525l-1.86-1.86V38.38l1.86-1.86h66.841l1.86 1.86v42.285l-1.86 1.86z" style="font-variation-settings:normal;vector-effect:none;fill:none;fill-opacity:1;stroke:#000;stroke-width:.352777;stroke-linecap:butt;stroke-linejoin:miter;stroke-miterlimit:4;stroke-dasharray:none;stroke-dashoffset:0;stroke-opacity:1;-inkscape-stroke:none;stop-color:#000"/><path d="M202.471 12.7V8.21l1.86-1.86h66.841l1.86 1.86v4.49z" style="font-variation-settings:normal;vector-effect:none;fill:#000;fill-opacity:1;stroke:#000;stroke-width:.352777;stroke-linecap:butt;stroke-linejoin:miter;stroke-miterlimit:4;stroke-dasharray:none;stroke-dashoffset:0;stroke-opacity:1;-inkscape-stroke:none;stop-color:#000"/><path d="m268.673 6.757-.459.46-.6-.249-.249.6h-.65v.65l-.599.248.249.6-.46.46.459.458-.249.6.6.25v.648h.65l.249.6.6-.248.46.459.459-.46.6.249.248-.6h.65v-.65l.6-.248-.248-.6.46-.459-.46-.459.248-.6-.6-.249v-.649h-.65l-.248-.6-.6.249z" style="font-variation-settings:normal;fill:#fff;fill-opacity:1;stroke:#000;stroke-width:.352778;stroke-linecap:butt;stroke-linejoin:miter;stroke-miterlimit:4;stroke-dasharray:none;stroke-dashoffset:0;stroke-opacity:1;stop-color:#000"/><text xml:space="preserve" x="218.842" y="10.648" style="font-style:normal;font-variant:normal;font-weight:700;font-stretch:normal;font-size:4.23333px;line-height:1.25;font-family:Arial;-inkscape-font-specification:&quot;Arial Bold&quot;;white-space:pre;display:inline;fill:#fff;stroke:none;stroke-width:.352778;stroke-dasharray:none"><tspan style="fill:#fff;stroke:none;stroke-width:.352778;stroke-dasharray:none">Combat Technique</tspan></text><path d="m204.33 19.05-1.859-1.86V12.7h70.561v4.49l-1.86 1.86zm0 7.94-1.859-1.86V22.5l1.86-1.86h30.748l1.86 1.86v2.63l-1.86 1.86zm36.059 0-1.86-1.86V22.5l1.86-1.86h30.748l1.86 1.86v2.63l-1.86 1.86zm-36.059 7.94-1.859-1.86v-2.63l1.86-1.86h30.748l1.86 1.86v2.63l-1.86 1.86zm36.059 0-1.86-1.86v-2.63l1.86-1.86h30.748l1.86 1.86v2.63l-1.86 1.86zM204.33 82.525l-1.859-1.86V38.38l1.86-1.86h66.841l1.86 1.86v42.285l-1.86 1.86zM6.35 12.7v171.185l1.86 1.86h118.632l1.86-1.86V12.7z" style="font-variation-settings:normal;vector-effect:none;fill:none;fill-opacity:1;stroke:#000;stroke-width:.352777;stroke-linecap:butt;stroke-linejoin:miter;stroke-miterlimit:4;stroke-dasharray:none;stroke-dashoffset:0;stroke-opacity:1;-inkscape-stroke:none;stop-color:#000"/><path d="m190.122 146.045-1.86-1.86v-2.63l1.86-1.86h20.867l1.86 1.86v2.63l-1.86 1.86z" style="font-variation-settings:normal;vector-effect:none;fill:#000;fill-opacity:1;stroke:#000;stroke-width:.352777;stroke-linecap:butt;stroke-linejoin:miter;stroke-miterlimit:4;stroke-dasharray:none;stroke-dashoffset:0;stroke-opacity:1;-inkscape-stroke:none;stop-color:#000"/><text xml:space="preserve" x="195.126" y="144.36" style="font-style:normal;font-variant:normal;font-weight:700;font-stretch:normal;font-size:4.23333px;line-height:1.25;font-family:Arial;-inkscape-font-specification:&quot;Arial Bold&quot;;white-space:pre;display:inline;fill:#fff;fill-opacity:1;stroke:none;stroke-width:.352778;stroke-dasharray:none"><tspan style="stroke-width:.352778;stroke-dasharray:none">Level</tspan></text><path d="m132.174 185.747-1.86-1.86v-36.252h88.615l1.86 1.86v34.393l-1.86 1.86z" style="font-variation-settings:normal;vector-effect:none;fill:none;fill-opacity:1;stroke:#000;stroke-width:.352777;stroke-linecap:butt;stroke-linejoin:miter;stroke-miterlimit:4;stroke-dasharray:none;stroke-dashoffset:0;stroke-opacity:1;-inkscape-stroke:none;stop-color:#000"/><path d="M186.652 147.635v-1.86l1.86 1.86z" style="font-variation-settings:normal;vector-effect:none;fill:#000;fill-opacity:1;stroke:#000;stroke-width:.352777;stroke-linecap:butt;stroke-linejoin:miter;stroke-miterlimit:4;stroke-dasharray:none;stroke-dashoffset:0;stroke-opacity:1;-inkscape-stroke:none;stop-color:#000"/><path d="M186.652 147.635h-56.338v-6.065l1.86-1.86h52.618l1.86 1.86z" style="font-variation-settings:normal;vector-effect:none;fill:#000;fill-opacity:1;stroke:#000;stroke-width:.352777;stroke-linecap:butt;stroke-linejoin:miter;stroke-miterlimit:4;stroke-dasharray:none;stroke-dashoffset:0;stroke-opacity:1;-inkscape-stroke:none;stop-color:#000"/><text xml:space="preserve" x="140.993" y="144.765" style="font-style:normal;font-variant:normal;font-weight:700;font-stretch:normal;font-size:4.234px;line-height:1.25;font-family:Arial;-inkscape-font-specification:&quot;Arial Bold&quot;;white-space:pre;display:inline;fill:#fff;stroke:none;stroke-width:1.00013;stroke-dasharray:none" transform="scale(1.00016 .99984)"><tspan style="fill:#fff;stroke-width:1.00013;stroke-dasharray:none">Hello My Name Is</tspan></text><path d="m69.907 203.205-1.993-1.993-.826.826v2.334l.826.826zm4.408 0-1.993-1.993-.825.825v2.335l.825.826zM67.7 209.37v-2.819h-1.167l-1.651 1.651v1.168zm-12.329 0v-2.819h1.168l1.65 1.651v1.168zM67.7 197.04h-2.818v1.168l1.65 1.65H67.7zm-12.329 0v2.82l1.168-.001 1.65-1.651v-1.168zm-2.206 6.165 1.993-1.993.825.826v2.334l-.825.826zm-4.408 0 1.993-1.993.825.825v2.335l-.826.826zm2.206 6.165h2.818v-1.168l-1.651-1.65h-1.167zm0-12.33h2.818v1.168l-1.651 1.65h-1.167zm21.146 12.33H69.29v-1.168l1.652-1.65h1.167zm0-12.33H69.29v1.168l1.652 1.65h1.167z" style="font-variation-settings:normal;fill:none;fill-opacity:1;stroke:#000;stroke-width:.352778;stroke-linecap:butt;stroke-linejoin:miter;stroke-miterlimit:4;stroke-dasharray:none;stroke-dashoffset:0;stroke-opacity:1;stop-color:#000"/><path d="m59.469 207.132.752-.752h2.63l.752.752 1.86-1.86-.752-.752v-2.63l.751-.752-1.86-1.86-.751.752h-2.63l-.752-.752-1.86 1.86.752.752v2.63l-.752.752zm39 0 .752-.752h2.63l.752.752 1.86-1.86-.752-.752v-2.63l.751-.752-1.86-1.86-.751.752h-2.63l-.752-.752-1.86 1.86.752.752v2.63l-.752.752zm39 0 .752-.752h2.63l.752.752 1.86-1.86-.752-.752v-2.63l.751-.752-1.86-1.86-.751.752h-2.63l-.752-.752-1.86 1.86.752.752v2.63l-.752.752zm39 0 .752-.752h2.63l.752.752 1.86-1.86-.752-.752v-2.63l.751-.752-1.86-1.86-.751.752h-2.63l-.752-.752-1.86 1.86.752.752v2.63l-.752.752z" style="font-variation-settings:normal;vector-effect:none;fill:none;fill-opacity:1;stroke:#000;stroke-width:.352777;stroke-linecap:butt;stroke-linejoin:miter;stroke-miterlimit:4;stroke-dasharray:none;stroke-dashoffset:0;stroke-opacity:1;-inkscape-stroke:none;stop-color:#000"/><path d="m225.907 203.205-1.993-1.993-.826.826v2.334l.826.826zm4.408 0-1.993-1.993-.825.825v2.335l.825.826zm-6.615 6.165v-2.819h-1.167l-1.651 1.651v1.168zm-12.329 0v-2.819h1.168l1.65 1.651v1.168zm12.329-12.33h-2.818v1.168l1.65 1.65h1.168zm-12.329 0v2.82l1.168-.001 1.65-1.651v-1.168zm-2.206 6.165 1.993-1.993.825.826v2.334l-.825.826zm-4.409 0 1.994-1.993.825.825v2.335l-.826.826zm2.207 6.165h2.818v-1.168l-1.651-1.65h-1.167zm0-12.33h2.818v1.168l-1.651 1.65h-1.167zm21.146 12.33h-2.819v-1.168l1.652-1.65h1.167zm0-12.33h-2.819v1.168l1.652 1.65h1.167z" style="font-variation-settings:normal;fill:none;fill-opacity:1;stroke:#000;stroke-width:.352778;stroke-linecap:butt;stroke-linejoin:miter;stroke-miterlimit:4;stroke-dasharray:none;stroke-dashoffset:0;stroke-opacity:1;stop-color:#000"/><path d="m215.469 207.132.752-.752h2.63l.752.752 1.86-1.86-.752-.752v-2.63l.751-.752-1.86-1.86-.751.752h-2.63l-.752-.752-1.86 1.86.752.752v2.63l-.752.752z" style="font-variation-settings:normal;vector-effect:none;fill:none;fill-opacity:1;stroke:#000;stroke-width:.352777;stroke-linecap:butt;stroke-linejoin:miter;stroke-miterlimit:4;stroke-dasharray:none;stroke-dashoffset:0;stroke-opacity:1;-inkscape-stroke:none;stop-color:#000"/><path d="m30.915 203.205-1.993-1.993-.826.826v2.334l.826.826zm4.408 0-1.993-1.993-.825.825v2.335l.825.826zm-6.615 6.165v-2.819h-1.167l-1.651 1.651v1.168zm-12.328 0v-2.819h1.167l1.65 1.651v1.168zm12.328-12.33H25.89v1.168l1.65 1.65h1.168zm-12.328 0v2.82l1.167-.001 1.65-1.651v-1.168zm-2.207 6.165 1.993-1.993.825.826v2.334l-.825.826zm-4.409 0 1.994-1.993.825.825v2.335l-.826.826zm2.206 6.165h2.82v-1.168l-1.652-1.65h-1.167zm0-12.33h2.82v1.168l-1.652 1.65h-1.167zm21.147 12.33h-2.819v-1.168l1.652-1.65h1.167zm0-12.33h-2.819v1.168l1.652 1.65h1.167z" style="font-variation-settings:normal;fill:none;fill-opacity:1;stroke:#000;stroke-width:.352778;stroke-linecap:butt;stroke-linejoin:miter;stroke-miterlimit:4;stroke-dasharray:none;stroke-dashoffset:0;stroke-opacity:1;stop-color:#000"/><path d="m20.477 207.132.752-.752h2.63l.752.752 1.86-1.86-.752-.752v-2.63l.751-.752-1.86-1.86-.751.752h-2.63l-.752-.752-1.86 1.86.752.752v2.63l-.752.752z" style="font-variation-settings:normal;vector-effect:none;fill:none;fill-opacity:1;stroke:#000;stroke-width:.352777;stroke-linecap:butt;stroke-linejoin:miter;stroke-miterlimit:4;stroke-dasharray:none;stroke-dashoffset:0;stroke-opacity:1;-inkscape-stroke:none;stop-color:#000"/><path d="m246.136 202.489-2.358-2.359v-2.098l.991-.992h4.1l2.36 2.359v2.098l-.992.992z" style="font-variation-settings:normal;vector-effect:none;fill:#000;fill-opacity:1;stroke:#000;stroke-width:.352777;stroke-linecap:butt;stroke-linejoin:miter;stroke-miterlimit:4;stroke-dasharray:none;stroke-dashoffset:0;stroke-opacity:1;-inkscape-stroke:none;stop-color:#000"/><path d="m246.507 200.761 1.993-1.993-.826-.825h-2.335l-.825.825zm1.993-1.993 1.992 1.993-.825.826h-2.335l-.825-.826z" style="font-variation-settings:normal;fill:#fff;fill-opacity:1;stroke:#000;stroke-width:.352778;stroke-linecap:butt;stroke-linejoin:miter;stroke-miterlimit:4;stroke-dasharray:none;stroke-dashoffset:0;stroke-opacity:1;stop-color:#000"/><path d="m255.177 202.489-2.359-2.359v-2.098l.992-.992h4.1l2.36 2.359v2.098l-.992.992z" style="font-variation-settings:normal;vector-effect:none;fill:#000;fill-opacity:1;stroke:#000;stroke-width:.352777;stroke-linecap:butt;stroke-linejoin:miter;stroke-miterlimit:4;stroke-dasharray:none;stroke-dashoffset:0;stroke-opacity:1;-inkscape-stroke:none;stop-color:#000"/><path d="m255.548 200.761 1.992-1.993-.825-.825h-2.335l-.826.825z" style="font-variation-settings:normal;fill:#fff;fill-opacity:1;stroke:#000;stroke-width:.352778;stroke-linecap:butt;stroke-linejoin:miter;stroke-miterlimit:4;stroke-dasharray:none;stroke-dashoffset:0;stroke-opacity:1;stop-color:#000"/><path d="m257.54 198.768 1.993 1.993-.825.826h-2.335l-.826-.826z" style="font-variation-settings:normal;fill:#fff;fill-opacity:1;stroke:#000;stroke-width:.352778;stroke-linecap:butt;stroke-linejoin:miter;stroke-miterlimit:4;stroke-dasharray:none;stroke-dashoffset:0;stroke-opacity:1;stop-color:#000"/><path d="m264.218 202.489-2.359-2.359v-2.098l.992-.992h4.1l2.359 2.359v2.098l-.992.992z" style="font-variation-settings:normal;vector-effect:none;fill:#000;fill-opacity:1;stroke:#000;stroke-width:.352777;stroke-linecap:butt;stroke-linejoin:miter;stroke-miterlimit:4;stroke-dasharray:none;stroke-dashoffset:0;stroke-opacity:1;-inkscape-stroke:none;stop-color:#000"/><path d="m264.588 200.761 1.993-1.993-.826-.825h-2.334l-.826.825z" style="font-variation-settings:normal;fill:#fff;fill-opacity:1;stroke:#000;stroke-width:.352778;stroke-linecap:butt;stroke-linejoin:miter;stroke-miterlimit:4;stroke-dasharray:none;stroke-dashoffset:0;stroke-opacity:1;stop-color:#000"/><path d="m266.581 198.768 1.993 1.993-.826.826h-2.335l-.825-.826z" style="font-variation-settings:normal;fill:#fff;fill-opacity:1;stroke:#000;stroke-width:.352778;stroke-linecap:butt;stroke-linejoin:miter;stroke-miterlimit:4;stroke-dasharray:none;stroke-dashoffset:0;stroke-opacity:1;stop-color:#000"/><path d="m246.136 209.527-2.358-2.358v-2.099l.991-.991h4.101l2.358 2.358v2.099l-.991.991z" style="font-variation-settings:normal;vector-effect:none;fill:#000;fill-opacity:1;stroke:#000;stroke-width:.352777;stroke-linecap:butt;stroke-linejoin:miter;stroke-miterlimit:4;stroke-dasharray:none;stroke-dashoffset:0;stroke-opacity:1;-inkscape-stroke:none;stop-color:#000"/><path d="m246.507 207.8 1.993-1.994-.826-.825h-2.335l-.825.826z" style="font-variation-settings:normal;fill:#fff;fill-opacity:1;stroke:#000;stroke-width:.352778;stroke-linecap:butt;stroke-linejoin:miter;stroke-miterlimit:4;stroke-dasharray:none;stroke-dashoffset:0;stroke-opacity:1;stop-color:#000"/><path d="m248.5 205.806 1.992 1.994-.825.825h-2.335l-.825-.826z" style="font-variation-settings:normal;fill:#fff;fill-opacity:1;stroke:#000;stroke-width:.352778;stroke-linecap:butt;stroke-linejoin:miter;stroke-miterlimit:4;stroke-dasharray:none;stroke-dashoffset:0;stroke-opacity:1;stop-color:#000"/><path d="m255.177 209.527-2.359-2.358v-2.099l.992-.991h4.1l2.36 2.358v2.098l-.992.992z" style="font-variation-settings:normal;vector-effect:none;fill:#000;fill-opacity:1;stroke:#000;stroke-width:.352777;stroke-linecap:butt;stroke-linejoin:miter;stroke-miterlimit:4;stroke-dasharray:none;stroke-dashoffset:0;stroke-opacity:1;-inkscape-stroke:none;stop-color:#000"/><path d="m255.548 207.8 1.992-1.994-.825-.825h-2.335l-.825.826z" style="font-variation-settings:normal;fill:#fff;fill-opacity:1;stroke:#000;stroke-width:.352778;stroke-linecap:butt;stroke-linejoin:miter;stroke-miterlimit:4;stroke-dasharray:none;stroke-dashoffset:0;stroke-opacity:1;stop-color:#000"/><path d="m257.54 205.806 1.993 1.993-.825.826h-2.335l-.826-.826z" style="font-variation-settings:normal;fill:#fff;fill-opacity:1;stroke:#000;stroke-width:.352778;stroke-linecap:butt;stroke-linejoin:miter;stroke-miterlimit:4;stroke-dasharray:none;stroke-dashoffset:0;stroke-opacity:1;stop-color:#000"/><path d="m264.218 209.527-2.359-2.358v-2.099l.992-.991h4.1l2.359 2.358v2.098l-.992.992z" style="font-variation-settings:normal;vector-effect:none;fill:#000;fill-opacity:1;stroke:#000;stroke-width:.352777;stroke-linecap:butt;stroke-linejoin:miter;stroke-miterlimit:4;stroke-dasharray:none;stroke-dashoffset:0;stroke-opacity:1;-inkscape-stroke:none;stop-color:#000"/><path d="m264.588 207.8 1.993-1.994-.826-.825h-2.334l-.826.826z" style="font-variation-settings:normal;fill:#fff;fill-opacity:1;stroke:#000;stroke-width:.352778;stroke-linecap:butt;stroke-linejoin:miter;stroke-miterlimit:4;stroke-dasharray:none;stroke-dashoffset:0;stroke-opacity:1;stop-color:#000"/><path d="m266.581 205.806 1.993 1.993-.826.826h-2.335l-.825-.826z" style="font-variation-settings:normal;fill:#fff;fill-opacity:1;stroke:#000;stroke-width:.352778;stroke-linecap:butt;stroke-linejoin:miter;stroke-miterlimit:4;stroke-dasharray:none;stroke-dashoffset:0;stroke-opacity:1;stop-color:#000"/><path d="m217.614 139.695-.93.93h-1.316v1.315l-.93.93.93.93v1.315h1.316l.93.93.93-.93h1.316V143.8l.93-.93-.93-.93v-1.315h-1.316z" style="font-variation-settings:normal;fill:none;fill-opacity:1;stroke:#000;stroke-width:.352778;stroke-linecap:butt;stroke-linejoin:miter;stroke-miterlimit:4;stroke-dasharray:none;stroke-dashoffset:0;stroke-opacity:1;stop-color:#000"/></svg>