<svg xmlns="http://www.w3.org/2000/svg" xml:space="preserve" width="1056" height="816" viewBox="0 0 279.4 215.9"><path d="M285.76-.398h279.4v215.9h-279.4z" style="font-variation-settings:normal;vector-effect:none;fill:#fff;fill-opacity:1;fill-rule:evenodd;stroke:none;stroke-width:.352776;stroke-linecap:butt;stroke-linejoin:miter;stroke-miterlimit:4;stroke-dasharray:none;stroke-dashoffset:0;stroke-opacity:1;-inkscape-stroke:none;stop-color:#000" transform="translate(-285.76 .398)"/><path d="M300.961 118.578h60v75.475h-60z" style="font-variation-settings:normal;vector-effect:none;fill:#fff;fill-opacity:1;fill-rule:evenodd;stroke:none;stroke-width:.352777;stroke-linecap:butt;stroke-linejoin:miter;stroke-miterlimit:4;stroke-dasharray:none;stroke-dashoffset:0;stroke-opacity:1;-inkscape-stroke:none;stop-color:#000" transform="translate(-285.76 .398)"/><path d="M300.96 109.053h60v9.525h-60zm-1.5-1.5v88h63v-88zm1.5 1.5h60v85h-60Z" style="vector-effect:none;fill-rule:evenodd;stroke-width:.352777;stop-color:#000" transform="translate(-285.76 .398)"/><text xml:space="preserve" x="321.323" y="114.885" style="font-style:normal;font-variant:normal;font-weight:700;font-stretch:normal;font-size:4.23333px;line-height:1.25;font-family:Arial;-inkscape-font-specification:&quot;Arial Bold&quot;;white-space:pre;display:inline;fill:#fff;fill-opacity:1;stroke:none;stroke-width:.352778;stroke-dasharray:none" transform="translate(-285.76 .398)"><tspan style="fill:#fff;stroke:none;stroke-width:.352778;stroke-dasharray:none">Inventory</tspan></text><path d="m354.88 110.64-.687 1.173-1.173.687v2.63l1.173.687.687 1.173H357.511l.687-1.173 1.172-.687v-2.63l-1.172-.687-.687-1.173h-1.316z" style="font-variation-settings:normal;fill:#fff;fill-opacity:1;stroke:none;stroke-width:.352778;stroke-linecap:butt;stroke-linejoin:miter;stroke-miterlimit:4;stroke-dasharray:none;stroke-dashoffset:0;stroke-opacity:1;stop-color:#000" transform="translate(-285.76 .398)"/><path d="M360.96 124.872h-60M360.96 131.16h-60M360.96 137.45h-60M360.96 143.738h-60M360.96 150.027h-60M360.96 156.315h-60M360.96 162.604h-60M360.96 168.892h-60M360.96 175.181h-60M360.96 181.47h-60M360.96 187.758h-60" style="font-variation-settings:normal;vector-effect:none;fill:none;fill-opacity:1;stroke:#000;stroke-width:.352777;stroke-linecap:butt;stroke-linejoin:miter;stroke-miterlimit:4;stroke-dasharray:none;stroke-dashoffset:0;stroke-opacity:1;-inkscape-stroke:none;stop-color:#000" transform="translate(-285.76 .398)"/><path d="M363.96 137.628h60v56.425h-60z" style="font-variation-settings:normal;vector-effect:none;fill:#fff;fill-opacity:1;fill-rule:evenodd;stroke:none;stroke-width:.352777;stroke-linecap:butt;stroke-linejoin:miter;stroke-miterlimit:4;stroke-dasharray:none;stroke-dashoffset:0;stroke-opacity:1;-inkscape-stroke:none;stop-color:#000" transform="translate(-285.76 .398)"/><path d="M363.96 128.103h60v9.525h-60zm0-9.525h60v9.525h-60zm0-9.525h60v9.525h-60zm-1.5-1.5v88h63v-88zm1.5 1.5h60v85h-60z" style="vector-effect:none;fill-rule:evenodd;stroke-width:.352777;stop-color:#000" transform="translate(-285.76 .398)"/><path d="m419.195 110.641-.526.527-.688-.285-.285.688h-.745v.745l-.688.285.285.687-.528.528.527.526-.285.688.689.286v.743h.744l.285.689.689-.285.526.526.527-.526.688.284.285-.687h.745v-.746l.688-.285-.284-.687.526-.527-.526-.526.285-.689-.69-.285v-.744h-.743l-.285-.689-.689.286z" style="font-variation-settings:normal;fill:#fff;fill-opacity:1;stroke:none;stroke-width:.352778;stroke-linecap:butt;stroke-linejoin:miter;stroke-miterlimit:4;stroke-dasharray:none;stroke-dashoffset:0;stroke-opacity:1;stop-color:#000" transform="translate(-285.76 .398)"/><path d="m367.41 110.64-1.86 1.86v2.63l1.86 1.86h45.161l1.86-1.859v-2.63l-1.86-1.86h-6.067z" style="font-variation-settings:normal;vector-effect:none;fill:#fff;fill-opacity:1;stroke:none;stroke-width:.352777;stroke-linecap:butt;stroke-linejoin:miter;stroke-miterlimit:4;stroke-dasharray:none;stroke-dashoffset:0;stroke-opacity:1;-inkscape-stroke:none;stop-color:#000" transform="translate(-285.76 .398)"/><path d="m367.41 120.165-1.86 1.86v2.63l1.86 1.86h23.895l1.86-1.86v-2.63l-1.86-1.86h-20.867zM396.615 120.165l-1.86 1.86v2.63l1.86 1.86h23.895l1.86-1.86v-2.63l-1.86-1.86H399.643zM367.41 129.69l-1.86 1.86v2.63l1.86 1.86h23.895l1.86-1.86v-2.63l-1.86-1.86H370.438zM396.615 129.69l-1.86 1.86v2.63l1.86 1.86h23.895l1.86-1.86v-2.63l-1.86-1.86H399.643z" style="font-variation-settings:normal;fill:#fff;fill-opacity:1;stroke:none;stroke-width:.352778;stroke-linecap:butt;stroke-linejoin:miter;stroke-miterlimit:4;stroke-dasharray:none;stroke-dashoffset:0;stroke-opacity:1;stop-color:#000" transform="translate(-285.76 .398)"/><path d="M363.96 137.628h60v56.425h-60z" style="font-variation-settings:normal;vector-effect:none;fill:none;fill-opacity:1;fill-rule:evenodd;stroke:none;stroke-width:.352777;stroke-linecap:butt;stroke-linejoin:miter;stroke-miterlimit:4;stroke-dasharray:none;stroke-dashoffset:0;stroke-opacity:1;-inkscape-stroke:none;stop-color:#000" transform="translate(-285.76 .398)"/><path d="M426.96 137.628h60v56.425h-60z" style="font-variation-settings:normal;vector-effect:none;fill:#fff;fill-opacity:1;fill-rule:evenodd;stroke:none;stroke-width:.352777;stroke-linecap:butt;stroke-linejoin:miter;stroke-miterlimit:4;stroke-dasharray:none;stroke-dashoffset:0;stroke-opacity:1;-inkscape-stroke:none;stop-color:#000" transform="translate(-285.76 .398)"/><path d="M426.96 128.103h60v9.525h-60zm0-9.525h60v9.525h-60zm0-9.525h60v9.525h-60zm-1.5-1.5v88h63v-88zm1.5 1.5h60v85h-60z" style="vector-effect:none;fill-rule:evenodd;stroke-width:.352777;stop-color:#000" transform="translate(-285.76 .398)"/><path d="m482.195 110.641-.527.527-.688-.285-.285.688h-.745v.745l-.688.285.285.687-.527.528.527.526-.285.688.688.286v.743h.745l.285.689.688-.285.527.526.527-.526.688.284.285-.687h.745v-.746l.688-.285-.285-.687.527-.527-.527-.526.285-.689-.688-.285v-.744h-.745l-.285-.689-.688.286z" style="font-variation-settings:normal;fill:#fff;fill-opacity:1;stroke:none;stroke-width:.352778;stroke-linecap:butt;stroke-linejoin:miter;stroke-miterlimit:4;stroke-dasharray:none;stroke-dashoffset:0;stroke-opacity:1;stop-color:#000" transform="translate(-285.76 .398)"/><path d="m430.41 110.64-1.86 1.86v2.63l1.86 1.86H475.57l1.86-1.859v-2.63l-1.86-1.86h-6.066z" style="font-variation-settings:normal;vector-effect:none;fill:#fff;fill-opacity:1;stroke:none;stroke-width:.352777;stroke-linecap:butt;stroke-linejoin:miter;stroke-miterlimit:4;stroke-dasharray:none;stroke-dashoffset:0;stroke-opacity:1;-inkscape-stroke:none;stop-color:#000" transform="translate(-285.76 .398)"/><path d="m430.41 120.165-1.86 1.86v2.63l1.86 1.86h23.895l1.86-1.86v-2.63l-1.86-1.86H433.438zM459.615 120.165l-1.86 1.86v2.63l1.86 1.86h23.895l1.86-1.86v-2.63l-1.86-1.86H462.643zM430.41 129.69l-1.86 1.86v2.63l1.86 1.86h23.895l1.86-1.86v-2.63l-1.86-1.86H433.438zM459.615 129.69l-1.86 1.86v2.63l1.86 1.86h23.895l1.86-1.86v-2.63l-1.86-1.86H462.643z" style="font-variation-settings:normal;fill:#fff;fill-opacity:1;stroke:none;stroke-width:.352778;stroke-linecap:butt;stroke-linejoin:miter;stroke-miterlimit:4;stroke-dasharray:none;stroke-dashoffset:0;stroke-opacity:1;stop-color:#000" transform="translate(-285.76 .398)"/><path d="M426.96 137.628h60v56.425h-60z" style="font-variation-settings:normal;vector-effect:none;fill:none;fill-opacity:1;fill-rule:evenodd;stroke:none;stroke-width:.352777;stroke-linecap:butt;stroke-linejoin:miter;stroke-miterlimit:4;stroke-dasharray:none;stroke-dashoffset:0;stroke-opacity:1;-inkscape-stroke:none;stop-color:#000" transform="translate(-285.76 .398)"/><path d="M489.96 118.578h60v75.475h-60z" style="font-variation-settings:normal;vector-effect:none;fill:#fff;fill-opacity:1;fill-rule:evenodd;stroke:none;stroke-width:.352777;stroke-linecap:butt;stroke-linejoin:miter;stroke-miterlimit:4;stroke-dasharray:none;stroke-dashoffset:0;stroke-opacity:1;-inkscape-stroke:none;stop-color:#000" transform="translate(-285.76 .398)"/><path d="M489.96 109.053h60v9.525h-60zm-1.5-1.5v88h63v-88zm1.5 1.5h60v85h-60z" style="vector-effect:none;fill-rule:evenodd;stroke-width:.352777;stop-color:#000" transform="translate(-285.76 .398)"/><text xml:space="preserve" x="506.416" y="117.121" style="font-style:normal;font-variant:normal;font-weight:700;font-stretch:normal;font-size:4.29903px;line-height:1.25;font-family:Arial;-inkscape-font-specification:&quot;Arial Bold&quot;;white-space:pre;display:inline;fill:#fff;stroke:none;stroke-width:.352778;stroke-dasharray:none" transform="matrix(1.01553 0 0 .9847 -285.76 .398)"><tspan style="stroke:none;stroke-width:.352778;stroke-dasharray:none">Skills</tspan></text><text xml:space="preserve" x="495.556" y="179.096" style="font-style:normal;font-variant:normal;font-weight:400;font-stretch:normal;font-size:3.52778px;line-height:1.25;font-family:Arial;-inkscape-font-specification:Arial;white-space:pre;display:inline;fill:#000;fill-opacity:1;stroke:none;stroke-width:.352778;stroke-dasharray:none" transform="translate(-285.76 .398)"><tspan style="font-size:3.52778px;stroke-width:.352778;stroke-dasharray:none">Survival</tspan></text><text xml:space="preserve" x="523.422" y="168.316" style="font-style:normal;font-variant:normal;font-weight:400;font-stretch:normal;font-size:3.52778px;line-height:1.25;font-family:Arial;-inkscape-font-specification:Arial;white-space:pre;display:inline;fill:#000;fill-opacity:1;stroke:none;stroke-width:.352778;stroke-dasharray:none" transform="translate(-285.76 .398)"><tspan style="font-size:3.52778px;stroke-width:.352778;stroke-dasharray:none">Research</tspan></text><text xml:space="preserve" x="493.337" y="167.986" style="font-style:normal;font-variant:normal;font-weight:400;font-stretch:normal;font-size:3.52778px;line-height:1.25;font-family:Arial;-inkscape-font-specification:Arial;white-space:pre;display:inline;fill:#000;fill-opacity:1;stroke:none;stroke-width:.352778;stroke-dasharray:none" transform="translate(-285.76 .398)"><tspan style="font-size:3.52778px;stroke-width:.352778;stroke-dasharray:none">Perception</tspan></text><text xml:space="preserve" x="521.57" y="157.557" style="font-style:normal;font-variant:normal;font-weight:400;font-stretch:normal;font-size:3.52778px;line-height:1.25;font-family:Arial;-inkscape-font-specification:Arial;white-space:pre;display:inline;fill:#000;fill-opacity:1;stroke:none;stroke-width:.352778;stroke-dasharray:none" transform="translate(-285.76 .398)"><tspan style="font-size:3.52778px;stroke-width:.352778;stroke-dasharray:none">Misdirection</tspan></text><text xml:space="preserve" x="494.668" y="157.557" style="font-style:normal;font-variant:normal;font-weight:400;font-stretch:normal;font-size:3.52778px;line-height:1.25;font-family:Arial;-inkscape-font-specification:Arial;white-space:pre;display:inline;fill:#000;fill-opacity:1;stroke:none;stroke-width:.352778;stroke-dasharray:none" transform="translate(-285.76 .398)"><tspan style="font-size:3.52778px;stroke-width:.352778;stroke-dasharray:none">Medicine</tspan></text><text xml:space="preserve" x="523.251" y="146.797" style="font-style:normal;font-variant:normal;font-weight:400;font-stretch:normal;font-size:3.52778px;line-height:1.25;font-family:Arial;-inkscape-font-specification:Arial;white-space:pre;display:inline;fill:#000;fill-opacity:1;stroke:none;stroke-width:.352778;stroke-dasharray:none" transform="translate(-285.76 .398)"><tspan style="font-size:3.52778px;stroke-width:.352778;stroke-dasharray:none">Intimidate</tspan></text><text xml:space="preserve" x="496.436" y="146.447" style="font-style:normal;font-variant:normal;font-weight:400;font-stretch:normal;font-size:3.52778px;line-height:1.25;font-family:Arial;-inkscape-font-specification:Arial;white-space:pre;display:inline;fill:#000;fill-opacity:1;stroke:none;stroke-width:.352778;stroke-dasharray:none" transform="translate(-285.76 .398)"><tspan style="font-size:3.52778px;stroke-width:.352778;stroke-dasharray:none">Insight</tspan></text><text xml:space="preserve" x="524.742" y="136.038" style="font-style:normal;font-variant:normal;font-weight:400;font-stretch:normal;font-size:3.52778px;line-height:1.25;font-family:Arial;-inkscape-font-specification:Arial;white-space:pre;display:inline;fill:#000;fill-opacity:1;stroke:none;stroke-width:.352778;stroke-dasharray:none" transform="translate(-285.76 .398)"><tspan style="font-size:3.52778px;stroke-width:.352778;stroke-dasharray:none">Finesse</tspan></text><text xml:space="preserve" x="496.514" y="136.059" style="font-style:normal;font-variant:normal;font-weight:400;font-stretch:normal;font-size:3.52778px;line-height:1.25;font-family:Arial;-inkscape-font-specification:Arial;white-space:pre;display:inline;fill:#000;fill-opacity:1;stroke:none;stroke-width:.352778;stroke-dasharray:none" transform="translate(-285.76 .398)"><tspan style="font-size:3.52778px;stroke-width:.352778;stroke-dasharray:none">Covert</tspan></text><text xml:space="preserve" x="523.621" y="125.299" style="font-style:normal;font-variant:normal;font-weight:400;font-stretch:normal;font-size:3.52778px;line-height:1.25;font-family:Arial;-inkscape-font-specification:Arial;white-space:pre;display:inline;fill:#000;fill-opacity:1;stroke:none;stroke-width:.352778;stroke-dasharray:none" transform="translate(-285.76 .398)"><tspan style="font-size:3.52778px;stroke-width:.352778;stroke-dasharray:none">Convince</tspan></text><text xml:space="preserve" x="495.189" y="125.279" style="font-style:normal;font-variant:normal;font-weight:400;font-stretch:normal;font-size:3.52778px;line-height:1.25;font-family:Arial;-inkscape-font-specification:Arial;white-space:pre;display:inline;fill:#000;fill-opacity:1;stroke:none;stroke-width:.352778;stroke-dasharray:none" transform="translate(-285.76 .398)"><tspan style="font-size:3.52778px;stroke-width:.352778;stroke-dasharray:none">Athletics</tspan></text><path d="M513.212 189.908v-2.63l1.86-1.86h2.63l1.86 1.86v2.63l-1.86 1.86h-2.63zM548.767 189.908v-2.63l-1.86-1.86h-2.63l-1.86 1.86v2.63l1.86 1.86h2.63zM513.212 179.149v-2.63l1.86-1.86h2.63l1.86 1.86v2.63l-1.86 1.86h-2.63zM548.767 179.149v-2.63l-1.86-1.86h-2.63l-1.86 1.86v2.63l1.86 1.86h2.63zM493.012 185.418l-1.86 1.86v2.63l1.86 1.86h17.545l1.86-1.86v-2.63l-1.86-1.86zM493.012 174.659l-1.86 1.86v2.63l1.86 1.86h17.545l1.86-1.86v-2.63l-1.86-1.86zM493.012 163.9l-1.86 1.86v2.63l1.86 1.86h17.545l1.86-1.86v-2.63l-1.86-1.86zM493.012 153.14l-1.86 1.86v2.63l1.86 1.86h17.545l1.86-1.86V155l-1.86-1.86zM493.012 142.38l-1.86 1.86v2.63l1.86 1.86h17.545l1.86-1.86v-2.63l-1.86-1.86zM493.012 131.621l-1.86 1.86v2.63l1.86 1.86h17.545l1.86-1.86v-2.63l-1.86-1.86zM493.012 120.862l-1.86 1.86v2.63l1.86 1.86h17.545l1.86-1.86v-2.63l-1.86-1.86zM539.762 185.418l1.86 1.86v2.63l-1.86 1.86h-17.545l-1.86-1.86v-2.63l1.86-1.86zM539.762 174.659l1.86 1.86v2.63l-1.86 1.86h-17.545l-1.86-1.86v-2.63l1.86-1.86zM539.762 163.9l1.86 1.86v2.63l-1.86 1.86h-17.545l-1.86-1.86v-2.63l1.86-1.86zM539.762 153.14l1.86 1.86v2.63l-1.86 1.86h-17.545l-1.86-1.86V155l1.86-1.86zM539.762 142.38l1.86 1.86v2.63l-1.86 1.86h-17.545l-1.86-1.86v-2.63l1.86-1.86zM539.762 131.621l1.86 1.86v2.63l-1.86 1.86h-17.545l-1.86-1.86v-2.63l1.86-1.86zM539.762 120.862l1.86 1.86v2.63l-1.86 1.86h-17.545l-1.86-1.86v-2.63l1.86-1.86zM513.212 168.39v-2.63l1.86-1.86h2.63l1.86 1.86v2.63l-1.86 1.86h-2.63zM548.767 168.39v-2.63l-1.86-1.86h-2.63l-1.86 1.86v2.63l1.86 1.86h2.63zM513.212 157.63V155l1.86-1.86h2.63l1.86 1.86v2.63l-1.86 1.86h-2.63zM548.767 157.63V155l-1.86-1.86h-2.63l-1.86 1.86v2.63l1.86 1.86h2.63zM513.212 146.87v-2.63l1.86-1.86h2.63l1.86 1.86v2.63l-1.86 1.86h-2.63zM548.767 146.87v-2.63l-1.86-1.86h-2.63l-1.86 1.86v2.63l1.86 1.86h2.63zM513.212 136.111v-2.63l1.86-1.86h2.63l1.86 1.86v2.63l-1.86 1.86h-2.63zM548.767 136.111v-2.63l-1.86-1.86h-2.63l-1.86 1.86v2.63l1.86 1.86h2.63zM513.212 125.352v-2.63l1.86-1.86h2.63l1.86 1.86v2.63l-1.86 1.86h-2.63zM548.767 125.352v-2.63l-1.86-1.86h-2.63l-1.86 1.86v2.63l1.86 1.86h2.63z" style="font-variation-settings:normal;fill:none;fill-opacity:1;stroke:#000;stroke-width:.352778;stroke-linecap:butt;stroke-linejoin:miter;stroke-miterlimit:4;stroke-dasharray:none;stroke-dashoffset:0;stroke-opacity:1;stop-color:#000" transform="translate(-285.76 .398)"/><path d="M299.46 19.553h251.993v88H299.46z" style="font-variation-settings:normal;vector-effect:none;fill:#000;fill-opacity:1;fill-rule:evenodd;stroke:none;stroke-width:.352777;stroke-linecap:butt;stroke-linejoin:miter;stroke-miterlimit:4;stroke-dasharray:1.05833,.352777;stroke-dashoffset:0;stroke-opacity:1;-inkscape-stroke:none;stop-color:#000" transform="translate(-285.76 .398)"/><path d="M301.048 21.135h248.818v84.836H301.048z" style="font-variation-settings:normal;vector-effect:none;fill:#fff;fill-opacity:1;fill-rule:evenodd;stroke:none;stroke-width:.352777;stroke-linecap:butt;stroke-linejoin:miter;stroke-miterlimit:4;stroke-dasharray:1.05833,.352777;stroke-dashoffset:0;stroke-opacity:1;-inkscape-stroke:none;stop-color:#000" transform="translate(-285.76 .398)"/><text xml:space="preserve" x="511.647" y="49.656" style="font-style:normal;font-variant:normal;font-weight:700;font-stretch:normal;font-size:4.23333px;line-height:1.25;font-family:Arial;-inkscape-font-specification:&quot;Arial Bold&quot;;white-space:pre;display:inline;fill:#fff;fill-opacity:1;stroke:none;stroke-width:.352778;stroke-dasharray:none" transform="translate(-285.76 .398)"><tspan style="fill:#fff;stroke-width:.352778;stroke-dasharray:none">Inspiration</tspan></text><path d="m501.144 51.246-1.3-1.302v-2.63l1.3-1.3h42.618l1.301 1.3v2.63l-1.296 1.297z" style="font-variation-settings:normal;vector-effect:none;fill:#000;fill-opacity:1;stroke:none;stroke-width:.352777;stroke-linecap:butt;stroke-linejoin:miter;stroke-miterlimit:4;stroke-dasharray:none;stroke-dashoffset:0;stroke-opacity:1;-inkscape-stroke:none;stop-color:#000" transform="translate(-285.76 .398)"/><text xml:space="preserve" x="513.436" y="49.544" style="font-style:normal;font-variant:normal;font-weight:700;font-stretch:normal;font-size:3.52778px;line-height:1.25;font-family:Arial;-inkscape-font-specification:&quot;Arial Bold&quot;;white-space:pre;display:inline;fill:#fff;fill-opacity:1;stroke:none;stroke-width:.352778;stroke-dasharray:none" transform="translate(-285.76 .398)"><tspan style="font-style:normal;font-variant:normal;font-weight:700;font-stretch:normal;font-size:3.52778px;font-family:Arial;-inkscape-font-specification:&quot;Arial Bold&quot;;fill:#fff;stroke-width:.352778;stroke-dasharray:none">Inspiration</tspan></text><path d="m530.127 57.414-2.358-2.359v-2.098l.991-.991h4.1l2.36 2.358v2.098l-.992.992z" style="font-variation-settings:normal;vector-effect:none;fill:#000;fill-opacity:1;stroke:none;stroke-width:.352777;stroke-linecap:butt;stroke-linejoin:miter;stroke-miterlimit:4;stroke-dasharray:none;stroke-dashoffset:0;stroke-opacity:1;-inkscape-stroke:none;stop-color:#000" transform="translate(-285.76 .398)"/><path d="m530.498 55.686 1.993-1.993-.826-.825h-2.335l-.825.825z" style="font-variation-settings:normal;fill:#fff;fill-opacity:1;stroke:#000;stroke-width:.352778;stroke-linecap:butt;stroke-linejoin:miter;stroke-miterlimit:4;stroke-dasharray:none;stroke-dashoffset:0;stroke-opacity:1;stop-color:#000" transform="translate(-285.76 .398)"/><path d="m532.49 53.693 1.993 1.993-.825.826h-2.335l-.825-.826z" style="font-variation-settings:normal;fill:#fff;fill-opacity:1;stroke:#000;stroke-width:.352778;stroke-linecap:butt;stroke-linejoin:miter;stroke-miterlimit:4;stroke-dasharray:none;stroke-dashoffset:0;stroke-opacity:1;stop-color:#000" transform="translate(-285.76 .398)"/><path d="m539.168 57.414-2.359-2.359v-2.098l.992-.991h4.1l2.359 2.358v2.098l-.992.992z" style="font-variation-settings:normal;vector-effect:none;fill:#000;fill-opacity:1;stroke:none;stroke-width:.352777;stroke-linecap:butt;stroke-linejoin:miter;stroke-miterlimit:4;stroke-dasharray:none;stroke-dashoffset:0;stroke-opacity:1;-inkscape-stroke:none;stop-color:#000" transform="translate(-285.76 .398)"/><path d="m539.539 55.686 1.992-1.993-.825-.825h-2.335l-.826.825z" style="font-variation-settings:normal;fill:#fff;fill-opacity:1;stroke:#000;stroke-width:.352778;stroke-linecap:butt;stroke-linejoin:miter;stroke-miterlimit:4;stroke-dasharray:none;stroke-dashoffset:0;stroke-opacity:1;stop-color:#000" transform="translate(-285.76 .398)"/><path d="m541.531 53.693 1.993 1.993-.825.826h-2.335l-.826-.826z" style="font-variation-settings:normal;fill:#fff;fill-opacity:1;stroke:#000;stroke-width:.352778;stroke-linecap:butt;stroke-linejoin:miter;stroke-miterlimit:4;stroke-dasharray:none;stroke-dashoffset:0;stroke-opacity:1;stop-color:#000" transform="translate(-285.76 .398)"/><path d="m503.005 57.414-2.358-2.359v-2.098l.991-.991h4.1l2.36 2.358v2.098l-.992.992z" style="font-variation-settings:normal;vector-effect:none;fill:#000;fill-opacity:1;stroke:none;stroke-width:.352777;stroke-linecap:butt;stroke-linejoin:miter;stroke-miterlimit:4;stroke-dasharray:none;stroke-dashoffset:0;stroke-opacity:1;-inkscape-stroke:none;stop-color:#000" transform="translate(-285.76 .398)"/><path d="m503.376 55.686 1.993-1.993-.826-.825h-2.335l-.825.825z" style="font-variation-settings:normal;fill:#fff;fill-opacity:1;stroke:#000;stroke-width:.352778;stroke-linecap:butt;stroke-linejoin:miter;stroke-miterlimit:4;stroke-dasharray:none;stroke-dashoffset:0;stroke-opacity:1;stop-color:#000" transform="translate(-285.76 .398)"/><path d="m505.369 53.693 1.992 1.993-.825.826H504.2l-.826-.826z" style="font-variation-settings:normal;fill:#fff;fill-opacity:1;stroke:#000;stroke-width:.352778;stroke-linecap:butt;stroke-linejoin:miter;stroke-miterlimit:4;stroke-dasharray:none;stroke-dashoffset:0;stroke-opacity:1;stop-color:#000" transform="translate(-285.76 .398)"/><path d="m512.046 57.414-2.359-2.359v-2.098l.992-.991h4.1l2.359 2.358v2.098l-.992.992z" style="font-variation-settings:normal;vector-effect:none;fill:#000;fill-opacity:1;stroke:none;stroke-width:.352777;stroke-linecap:butt;stroke-linejoin:miter;stroke-miterlimit:4;stroke-dasharray:none;stroke-dashoffset:0;stroke-opacity:1;-inkscape-stroke:none;stop-color:#000" transform="translate(-285.76 .398)"/><path d="m512.416 55.686 1.993-1.993-.825-.825h-2.335l-.826.825z" style="font-variation-settings:normal;fill:#fff;fill-opacity:1;stroke:#000;stroke-width:.352778;stroke-linecap:butt;stroke-linejoin:miter;stroke-miterlimit:4;stroke-dasharray:none;stroke-dashoffset:0;stroke-opacity:1;stop-color:#000" transform="translate(-285.76 .398)"/><path d="m514.41 53.693 1.992 1.993-.826.826h-2.334l-.826-.826z" style="font-variation-settings:normal;fill:#fff;fill-opacity:1;stroke:#000;stroke-width:.352778;stroke-linecap:butt;stroke-linejoin:miter;stroke-miterlimit:4;stroke-dasharray:none;stroke-dashoffset:0;stroke-opacity:1;stop-color:#000" transform="translate(-285.76 .398)"/><path d="m521.087 57.414-2.359-2.359v-2.098l.992-.992h4.1l2.359 2.359v2.098l-.992.992z" style="font-variation-settings:normal;vector-effect:none;fill:#000;fill-opacity:1;stroke:none;stroke-width:.352777;stroke-linecap:butt;stroke-linejoin:miter;stroke-miterlimit:4;stroke-dasharray:none;stroke-dashoffset:0;stroke-opacity:1;-inkscape-stroke:none;stop-color:#000" transform="translate(-285.76 .398)"/><path d="m521.457 55.686 1.993-1.993-.826-.825h-2.334l-.826.825z" style="font-variation-settings:normal;fill:#fff;fill-opacity:1;stroke:#000;stroke-width:.352778;stroke-linecap:butt;stroke-linejoin:miter;stroke-miterlimit:4;stroke-dasharray:none;stroke-dashoffset:0;stroke-opacity:1;stop-color:#000" transform="translate(-285.76 .398)"/><path d="m523.45 53.693 1.993 1.993-.826.826h-2.335l-.825-.826z" style="font-variation-settings:normal;fill:#fff;fill-opacity:1;stroke:#000;stroke-width:.352778;stroke-linecap:butt;stroke-linejoin:miter;stroke-miterlimit:4;stroke-dasharray:none;stroke-dashoffset:0;stroke-opacity:1;stop-color:#000" transform="translate(-285.76 .398)"/><path d="m498.944 64.625-1.86-1.86v-2.63l1.86-1.86h39.079l1.86 1.86v2.63l-1.86 1.86z" style="font-variation-settings:normal;fill:#000;fill-opacity:1;stroke:none;stroke-width:.352778;stroke-linecap:butt;stroke-linejoin:miter;stroke-miterlimit:4;stroke-dasharray:none;stroke-dashoffset:0;stroke-opacity:1;stop-color:#000" transform="translate(-285.76 .398)"/><path d="M546.235 58.275h-3.175l-1.587 1.588v3.175l3.175 1.587 3.175-1.587v-3.175z" style="font-variation-settings:normal;vector-effect:none;fill:none;fill-opacity:1;stroke:#000;stroke-width:.352777;stroke-linecap:butt;stroke-linejoin:miter;stroke-miterlimit:4;stroke-dasharray:none;stroke-dashoffset:0;stroke-opacity:1;-inkscape-stroke:none;stop-color:#000" transform="translate(-285.76 .398)"/><text xml:space="preserve" x="505.552" y="62.52" style="font-style:normal;font-variant:normal;font-weight:700;font-stretch:normal;font-size:4.23333px;line-height:1.25;font-family:Arial;-inkscape-font-specification:&quot;Arial Bold&quot;;white-space:pre;display:inline;fill:#fff;fill-opacity:1;stroke:none;stroke-width:.352778;stroke-dasharray:none" transform="translate(-285.76 .398)"><tspan style="stroke-width:.352778;stroke-dasharray:none">Armour Type</tspan></text><path d="m498.944 72.565-1.86-1.86v-2.63l1.86-1.86h39.079l1.86 1.86v2.63l-1.86 1.86z" style="font-variation-settings:normal;fill:#000;fill-opacity:1;stroke:none;stroke-width:.352778;stroke-linecap:butt;stroke-linejoin:miter;stroke-miterlimit:4;stroke-dasharray:none;stroke-dashoffset:0;stroke-opacity:1;stop-color:#000" transform="translate(-285.76 .398)"/><text xml:space="preserve" x="499.302" y="70.46" style="font-style:normal;font-variant:normal;font-weight:700;font-stretch:normal;font-size:4.23334px;line-height:1.25;font-family:Arial;-inkscape-font-specification:&quot;Arial Bold&quot;;white-space:pre;display:inline;fill:#fff;fill-opacity:1;stroke:none;stroke-width:.352778;stroke-dasharray:none" transform="translate(-285.76 .398)"><tspan style="font-style:normal;font-variant:normal;font-weight:700;font-stretch:normal;font-family:Arial;-inkscape-font-specification:&quot;Arial Bold&quot;;fill:#fff;stroke-width:.352778;stroke-dasharray:none">Damage Reduction</tspan></text><path d="m525.12 88.445-1.86-1.86v-2.63l1.86-1.86h20.868l1.86 1.86v2.63l-1.86 1.86z" style="font-variation-settings:normal;fill:#000;fill-opacity:1;stroke:none;stroke-width:.352778;stroke-linecap:butt;stroke-linejoin:miter;stroke-miterlimit:4;stroke-dasharray:none;stroke-dashoffset:0;stroke-opacity:1;stop-color:#000" transform="translate(-285.76 .398)"/><text xml:space="preserve" x="521.88" y="87.68" style="font-style:normal;font-variant:normal;font-weight:700;font-stretch:normal;font-size:4.29903px;line-height:1.25;font-family:Arial;-inkscape-font-specification:&quot;Arial Bold&quot;;white-space:pre;display:inline;fill:#fff;stroke:none;stroke-width:.352778;stroke-dasharray:none" transform="matrix(1.01553 0 0 .9847 -285.76 .398)"><tspan style="stroke-width:.352778;stroke-dasharray:none">Vigor</tspan></text><path d="m466.225 52.363-1.74-1.86v-2.63l1.74-1.86h19.509l1.739 1.86v2.63l-1.739 1.86z" style="font-variation-settings:normal;fill:#000;fill-opacity:1;stroke:none;stroke-width:.352778;stroke-linecap:butt;stroke-linejoin:miter;stroke-miterlimit:4;stroke-dasharray:none;stroke-dashoffset:0;stroke-opacity:1;stop-color:#000" transform="translate(-285.76 .398)"/><text xml:space="preserve" x="463.185" y="51.466" style="font-style:normal;font-variant:normal;font-weight:700;font-stretch:normal;font-size:4.29903px;line-height:1.25;font-family:Arial;-inkscape-font-specification:&quot;Arial Bold&quot;;white-space:pre;display:inline;fill:#fff;stroke:none;stroke-width:.352778;stroke-dasharray:none" transform="matrix(1.01553 0 0 .9847 -285.76 .398)"><tspan style="stroke-width:.352778;stroke-dasharray:none">Level</tspan></text><path d="m498.944 88.445-1.86-1.86v-2.63l1.86-1.86h20.867l1.86 1.86v2.63l-1.86 1.86z" style="font-variation-settings:normal;fill:#000;fill-opacity:1;stroke:none;stroke-width:.352778;stroke-linecap:butt;stroke-linejoin:miter;stroke-miterlimit:4;stroke-dasharray:none;stroke-dashoffset:0;stroke-opacity:1;stop-color:#000" transform="translate(-285.76 .398)"/><text xml:space="preserve" x="495.013" y="88.108" style="font-style:normal;font-variant:normal;font-weight:700;font-stretch:normal;font-size:4.29903px;line-height:1.25;font-family:Arial;-inkscape-font-specification:&quot;Arial Bold&quot;;white-space:pre;display:inline;fill:#fff;stroke:none;stroke-width:.352778;stroke-dasharray:none" transform="matrix(1.01553 0 0 .9847 -285.76 .398)"><tspan style="stroke-width:.352778;stroke-dasharray:none">Health</tspan></text><path d="m525.12 90.035-1.86 1.86v8.98l1.86 1.86h6.35l6.174-11.774-.927-.926zM545.978 104.325l1.86-1.86v-8.98l-1.86-1.86h-6.35l-6.173 11.774.926.926zM498.944 90.035l-1.86 1.86v8.98l1.86 1.86h6.35l6.173-11.774-.927-.926zM519.8 104.325l1.86-1.86v-8.98l-1.86-1.86h-6.35l-6.172 11.774.926.926z" style="font-variation-settings:normal;fill:none;fill-opacity:1;stroke:#000;stroke-width:.352778;stroke-linecap:butt;stroke-linejoin:miter;stroke-miterlimit:4;stroke-dasharray:none;stroke-dashoffset:0;stroke-opacity:1;stop-color:#000" transform="translate(-285.76 .398)"/><path d="m498.944 80.505-1.86-1.86v-2.63l1.86-1.86h39.079l1.86 1.86v2.63l-1.86 1.86z" style="font-variation-settings:normal;fill:#000;fill-opacity:1;stroke:none;stroke-width:.352778;stroke-linecap:butt;stroke-linejoin:miter;stroke-miterlimit:4;stroke-dasharray:none;stroke-dashoffset:0;stroke-opacity:1;stop-color:#000" transform="translate(-285.76 .398)"/><text xml:space="preserve" x="501.06" y="78.453" style="font-style:normal;font-variant:normal;font-weight:700;font-stretch:normal;font-size:4.23334px;line-height:1.25;font-family:Arial;-inkscape-font-specification:&quot;Arial Bold&quot;;white-space:pre;display:inline;fill:#fff;fill-opacity:1;stroke:none;stroke-width:.352778;stroke-dasharray:none" transform="translate(-285.76 .398)"><tspan style="font-style:normal;font-variant:normal;font-weight:700;font-stretch:normal;font-family:Arial;-inkscape-font-specification:&quot;Arial Bold&quot;;fill:#fff;stroke-width:.352778;stroke-dasharray:none">Movement Speed</tspan></text><path fill="none" d="m287.965 159.276-6.133 1.643-4.49-4.49 1.643-6.133 6.134-1.644 4.49 4.49z" style="fill:#fff;fill-opacity:0;stroke:#000;stroke-width:.656592;stroke-dasharray:none" transform="matrix(.55768 -.12941 .14943 .48296 77.67 39.656)"/><path d="M544.648 72.565c-2.527-1.574-3.2-4.002-3.175-5.5 2.058-1.077 4.169-1.19 6.35 0 .025 1.498-.647 3.926-3.175 5.5z" style="font-variation-settings:normal;fill:none;fill-opacity:1;stroke:#000;stroke-width:.352778;stroke-linecap:butt;stroke-linejoin:miter;stroke-miterlimit:4;stroke-dasharray:none;stroke-dashoffset:0;stroke-opacity:1;stop-color:#000" transform="translate(-285.76 .398)"/><path d="m492.249 46.013-.93.93h-1.316v1.315l-.93.93.93.93v1.315h1.316l.93.93.93-.93h1.316v-1.315l.93-.93-.93-.93v-1.315h-1.316z" style="font-variation-settings:normal;fill:#fff;fill-opacity:1;stroke:#000;stroke-width:.352778;stroke-linecap:butt;stroke-linejoin:miter;stroke-miterlimit:4;stroke-dasharray:none;stroke-dashoffset:0;stroke-opacity:1;stop-color:#000" transform="translate(-285.76 .398)"/><path d="M426.926 54.004v48.618l1.817 1.75h64.844l1.817-1.75V55.807l-1.817-1.803z" style="font-variation-settings:normal;fill:none;fill-opacity:1;stroke:#000;stroke-width:.352778;stroke-linecap:butt;stroke-linejoin:miter;stroke-miterlimit:4;stroke-dasharray:none;stroke-dashoffset:0;stroke-opacity:1;stop-color:#000" transform="translate(-285.76 .398)"/><path d="m428.786 46.064-1.86 1.86v6.08h35.97v-6.08l-1.86-1.86z" style="font-variation-settings:normal;vector-effect:none;fill:#000;fill-opacity:1;stroke:#000;stroke-width:.352777;stroke-linecap:butt;stroke-linejoin:miter;stroke-miterlimit:4;stroke-dasharray:none;stroke-dashoffset:0;stroke-opacity:1;-inkscape-stroke:none;stop-color:#000" transform="translate(-285.76 .398)"/><text xml:space="preserve" x="430.288" y="50.933" style="font-style:normal;font-variant:normal;font-weight:700;font-stretch:normal;font-size:3.52778px;line-height:1.25;font-family:Arial;-inkscape-font-specification:&quot;Arial Bold&quot;;white-space:pre;display:inline;fill:#fff;stroke:none;stroke-width:1.00013;stroke-dasharray:none" transform="matrix(1.00016 0 0 .99984 -285.76 .398)"><tspan style="font-size:3.52778px;fill:#fff;stroke-width:1.00013;stroke-dasharray:none">Hello My Name Is</tspan></text><path d="m304.474 46.028-1.836 1.86v6.065H423.745v-6.065l-1.836-1.86H317.911z" style="font-variation-settings:normal;vector-effect:none;fill:#000;fill-opacity:1;stroke:#000;stroke-width:.352777;stroke-linecap:butt;stroke-linejoin:miter;stroke-miterlimit:4;stroke-dasharray:none;stroke-dashoffset:0;stroke-opacity:1;-inkscape-stroke:none;stop-color:#000" transform="translate(-285.76 .398)"/><text xml:space="preserve" x="355.002" y="51.489" style="font-style:normal;font-variant:normal;font-weight:700;font-stretch:normal;font-size:4.234px;line-height:1.25;font-family:Arial;-inkscape-font-specification:&quot;Arial Bold&quot;;white-space:pre;display:inline;fill:#fff;stroke:none;stroke-width:1.00013;stroke-dasharray:none" transform="matrix(1.00016 0 0 .99984 -285.76 .398)"><tspan style="fill:#fff;stroke-width:1.00013;stroke-dasharray:none">Abilities</tspan></text><path d="M302.638 53.953v48.615l1.836 1.804H421.91l1.836-1.803V53.953z" style="font-variation-settings:normal;vector-effect:none;fill:none;fill-opacity:1;stroke:#000;stroke-width:.352776;stroke-linecap:butt;stroke-linejoin:miter;stroke-miterlimit:4;stroke-dasharray:none;stroke-dashoffset:0;stroke-opacity:1;-inkscape-stroke:none;stop-color:#000" transform="translate(-285.76 .398)"/><path d="m308.38 22.725-1.226 1.226.639.639v2.62l-.64.638 1.227 1.227h23.28l1.226-1.227-.639-.638v-2.62l.639-.639-1.226-1.226h-11.64z" style="font-variation-settings:normal;fill:#000;fill-opacity:1;stroke:none;stroke-width:.352778;stroke-linecap:butt;stroke-linejoin:miter;stroke-miterlimit:4;stroke-dasharray:none;stroke-dashoffset:0;stroke-opacity:1;stop-color:#000" transform="translate(-285.76 .398)"/><text xml:space="preserve" x="310.455" y="26.97" style="font-style:normal;font-variant:normal;font-weight:700;font-stretch:normal;font-size:4.23333px;line-height:1.25;font-family:Arial;-inkscape-font-specification:&quot;Arial Bold&quot;;white-space:pre;display:inline;fill:#fff;fill-opacity:1;stroke:none;stroke-width:.352778;stroke-dasharray:none" transform="translate(-285.76 .398)"><tspan style="stroke-width:.352778;stroke-dasharray:none">Physique </tspan></text><path d="m350.555 22.725-1.226 1.226.639.639v2.62l-.64.638 1.227 1.227h23.28l1.226-1.227-.639-.638v-2.62l.639-.639-1.226-1.226h-11.64z" style="font-variation-settings:normal;fill:#000;fill-opacity:1;stroke:none;stroke-width:.352778;stroke-linecap:butt;stroke-linejoin:miter;stroke-miterlimit:4;stroke-dasharray:none;stroke-dashoffset:0;stroke-opacity:1;stop-color:#000" transform="translate(-285.76 .398)"/><text xml:space="preserve" x="352.128" y="26.997" style="font-style:normal;font-variant:normal;font-weight:700;font-stretch:normal;font-size:4.23333px;line-height:1.25;font-family:Arial;-inkscape-font-specification:&quot;Arial Bold&quot;;white-space:pre;display:inline;fill:#fff;fill-opacity:1;stroke:none;stroke-width:.352778;stroke-dasharray:none" transform="translate(-285.76 .398)"><tspan style="stroke-width:.352778;stroke-dasharray:none">Discipline</tspan></text><path d="m392.73 22.725-1.226 1.226.639.639v2.62l-.64.638 1.227 1.227h23.28l1.226-1.227-.639-.638v-2.62l.639-.64-1.226-1.225h-11.64z" style="font-variation-settings:normal;fill:#000;fill-opacity:1;stroke:none;stroke-width:.352778;stroke-linecap:butt;stroke-linejoin:miter;stroke-miterlimit:4;stroke-dasharray:none;stroke-dashoffset:0;stroke-opacity:1;stop-color:#000" transform="translate(-285.76 .398)"/><text xml:space="preserve" x="393.828" y="27.39" style="font-style:normal;font-variant:normal;font-weight:700;font-stretch:normal;font-size:4.23333px;line-height:1.25;font-family:Arial;-inkscape-font-specification:&quot;Arial Bold&quot;;white-space:pre;display:inline;fill:#fff;fill-opacity:1;stroke:none;stroke-width:.352778;stroke-dasharray:none" transform="translate(-285.76 .398)"><tspan style="stroke-width:.352778;stroke-dasharray:none">Resilience</tspan></text><path d="m412.74 36.83-1.993-1.994-.825.826v2.335l.826.825zM417.149 36.829l-1.993-1.993-.826.826v2.335l.826.825zM410.534 42.994v-2.819h-1.167l-1.651 1.651v1.168zM398.205 42.994v-2.819h1.168l1.65 1.651v1.168zM410.534 30.665h-2.818v1.167l1.65 1.651h1.168zM398.205 30.665v2.818h1.168l1.65-1.65v-1.168zM395.999 36.83l1.993-1.994.825.826v2.335l-.825.825zM391.59 36.829l1.993-1.993.826.826v2.335l-.826.825zM393.797 42.994h2.818v-1.168l-1.651-1.65h-1.168zM393.797 30.665h2.818v1.167l-1.651 1.651h-1.168zM414.943 42.994h-2.819v-1.168l1.651-1.65h1.168zM414.943 30.665h-2.819v1.167l1.652 1.651h1.167z" style="font-variation-settings:normal;fill:none;fill-opacity:1;stroke:#000;stroke-width:.352778;stroke-linecap:butt;stroke-linejoin:miter;stroke-miterlimit:4;stroke-dasharray:none;stroke-dashoffset:0;stroke-opacity:1;stop-color:#000" transform="translate(-285.76 .398)"/><path d="m434.904 22.725-1.225 1.226.638.639v2.62l-.639.638 1.226 1.227h23.28l1.227-1.227-.639-.638v-2.62l.639-.64-1.226-1.225h-11.64z" style="font-variation-settings:normal;fill:#000;fill-opacity:1;stroke:none;stroke-width:.352778;stroke-linecap:butt;stroke-linejoin:miter;stroke-miterlimit:4;stroke-dasharray:none;stroke-dashoffset:0;stroke-opacity:1;stop-color:#000" transform="translate(-285.76 .398)"/><text xml:space="preserve" x="436.945" y="27.39" style="font-style:normal;font-variant:normal;font-weight:700;font-stretch:normal;font-size:4.23333px;line-height:1.25;font-family:Arial;-inkscape-font-specification:&quot;Arial Bold&quot;;white-space:pre;display:inline;fill:#fff;fill-opacity:1;stroke:none;stroke-width:.352778;stroke-dasharray:none" transform="translate(-285.76 .398)"><tspan style="stroke-width:.352778;stroke-dasharray:none">Brilliance</tspan></text><path d="m454.915 36.83-1.993-1.994-.825.826v2.335l.826.825zM459.324 36.829l-1.993-1.993-.826.826v2.335l.826.825zM452.71 42.994l-.001-2.819h-1.167l-1.651 1.651v1.168zM440.38 42.994v-2.819h1.168l1.65 1.651v1.168zM452.709 30.665h-2.818v1.167l1.65 1.651h1.168zM440.38 30.665v2.818h1.168l1.65-1.65v-1.168zM438.174 36.83l1.993-1.994.825.826v2.335l-.825.825zM433.765 36.829l1.993-1.993.826.826v2.335l-.826.825zM435.972 42.994h2.818v-1.168l-1.651-1.65h-1.168zM435.972 30.665h2.818v1.167l-1.651 1.651h-1.168zM457.118 42.994h-2.819v-1.168l1.651-1.65h1.168zM457.118 30.665h-2.819v1.167l1.651 1.651h1.168z" style="font-variation-settings:normal;fill:none;fill-opacity:1;stroke:#000;stroke-width:.352778;stroke-linecap:butt;stroke-linejoin:miter;stroke-miterlimit:4;stroke-dasharray:none;stroke-dashoffset:0;stroke-opacity:1;stop-color:#000" transform="translate(-285.76 .398)"/><path d="m477.08 22.725-1.226 1.226.638.639v2.62l-.639.638 1.226 1.227h23.28l1.227-1.227-.639-.638v-2.62l.639-.64-1.226-1.225h-11.64z" style="font-variation-settings:normal;fill:#000;fill-opacity:1;stroke:none;stroke-width:.352778;stroke-linecap:butt;stroke-linejoin:miter;stroke-miterlimit:4;stroke-dasharray:none;stroke-dashoffset:0;stroke-opacity:1;stop-color:#000" transform="translate(-285.76 .398)"/><text xml:space="preserve" x="477.426" y="27.415" style="font-style:normal;font-variant:normal;font-weight:700;font-stretch:normal;font-size:4.23333px;line-height:1.25;font-family:Arial;-inkscape-font-specification:&quot;Arial Bold&quot;;white-space:pre;display:inline;fill:#fff;fill-opacity:1;stroke:none;stroke-width:.352778;stroke-dasharray:none" transform="translate(-285.76 .398)"><tspan style="stroke-width:.352778;stroke-dasharray:none">Cleverness</tspan></text><path d="m497.09 36.83-1.993-1.994-.825.826v2.335l.826.825zM501.499 36.829l-1.993-1.993-.826.826v2.335l.826.825zM494.884 42.994v-2.819h-1.167l-1.651 1.651v1.168zM482.555 42.994v-2.819h1.168l1.65 1.651v1.168zM494.884 30.665h-2.818v1.167l1.65 1.651h1.168zM482.555 30.665v2.818h1.168l1.65-1.65v-1.168zM480.349 36.83l1.993-1.994.825.826v2.335l-.825.825zM475.94 36.829l1.993-1.993.826.826v2.335l-.826.825zM478.147 42.994h2.818v-1.168l-1.651-1.65h-1.168zM478.147 30.665h2.818v1.167l-1.651 1.651h-1.168zM499.293 42.994h-2.819v-1.168l1.651-1.65h1.168zM499.293 30.665h-2.819v1.167l1.651 1.651h1.168z" style="font-variation-settings:normal;fill:none;fill-opacity:1;stroke:#000;stroke-width:.352778;stroke-linecap:butt;stroke-linejoin:miter;stroke-miterlimit:4;stroke-dasharray:none;stroke-dashoffset:0;stroke-opacity:1;stop-color:#000" transform="translate(-285.76 .398)"/><path d="m519.255 22.725-1.226 1.226.639.639v2.62l-.64.638 1.227 1.227h23.28l1.226-1.227-.639-.638v-2.62l.639-.64-1.226-1.225h-11.64z" style="font-variation-settings:normal;fill:#000;fill-opacity:1;stroke:none;stroke-width:.352778;stroke-linecap:butt;stroke-linejoin:miter;stroke-miterlimit:4;stroke-dasharray:none;stroke-dashoffset:0;stroke-opacity:1;stop-color:#000" transform="translate(-285.76 .398)"/><text xml:space="preserve" x="521.411" y="27.39" style="font-style:normal;font-variant:normal;font-weight:700;font-stretch:normal;font-size:4.23333px;line-height:1.25;font-family:Arial;-inkscape-font-specification:&quot;Arial Bold&quot;;white-space:pre;display:inline;fill:#fff;fill-opacity:1;stroke:none;stroke-width:.352778;stroke-dasharray:none" transform="translate(-285.76 .398)"><tspan style="stroke-width:.352778;stroke-dasharray:none">Presence</tspan></text><path d="m370.566 36.83-1.994-1.994-.825.826v2.335l.826.825zM374.974 36.83l-1.993-1.994-.826.826v2.335l.826.825zM368.36 42.994v-2.819h-1.168l-1.651 1.651v1.168zM356.03 42.994v-2.819h1.168l1.65 1.651v1.168zM368.359 30.665h-2.818v1.167l1.65 1.651h1.168zM356.03 30.665v2.818h1.168l1.65-1.65v-1.168zM353.824 36.83l1.993-1.994.825.826v2.335l-.825.825zM349.415 36.83l1.993-1.994.826.826v2.335l-.826.825zM351.622 42.994h2.818v-1.168l-1.651-1.65h-1.168zM351.622 30.665h2.818v1.167l-1.651 1.651h-1.168zM372.768 42.994h-2.819v-1.168l1.652-1.65h1.167zM372.768 30.665h-2.819v1.167l1.652 1.651h1.167z" style="font-variation-settings:normal;fill:none;fill-opacity:1;stroke:#000;stroke-width:.352778;stroke-linecap:butt;stroke-linejoin:miter;stroke-miterlimit:4;stroke-dasharray:none;stroke-dashoffset:0;stroke-opacity:1;stop-color:#000" transform="translate(-285.76 .398)"/><path d="m360.128 40.756.752-.752h2.63l.751.752 1.86-1.86-.751-.752v-2.63l.751-.751-1.86-1.86-.751.751h-2.63l-.752-.751-1.86 1.86.752.751v2.63l-.752.752zM402.303 40.756l.752-.752h2.63l.751.752 1.86-1.86-.751-.752v-2.63l.751-.752-1.86-1.86-.751.752h-2.63l-.752-.751-1.86 1.86.752.751v2.63l-.752.752zM444.478 40.756l.752-.752h2.63l.751.752 1.86-1.86-.751-.752v-2.63l.751-.752-1.86-1.86-.751.752h-2.63l-.752-.751-1.86 1.86.752.751v2.63l-.752.752zM486.653 40.756l.752-.752h2.63l.751.752 1.86-1.86-.751-.752v-2.63l.751-.752-1.86-1.86-.751.752h-2.63l-.752-.751-1.86 1.86.752.751v2.63l-.752.752z" style="font-variation-settings:normal;vector-effect:none;fill:none;fill-opacity:1;stroke:#000;stroke-width:.352777;stroke-linecap:butt;stroke-linejoin:miter;stroke-miterlimit:4;stroke-dasharray:none;stroke-dashoffset:0;stroke-opacity:1;-inkscape-stroke:none;stop-color:#000" transform="translate(-285.76 .398)"/><path d="m539.265 36.83-1.993-1.994-.825.826v2.335l.826.825zM543.674 36.829l-1.993-1.993-.826.826v2.335l.826.825zM537.06 42.994v-2.819h-1.168l-1.651 1.651v1.168zM524.73 42.994v-2.819h1.168l1.65 1.651v1.168zM537.059 30.665h-2.818v1.167l1.65 1.651h1.168zM524.73 30.665v2.818h1.168l1.65-1.65v-1.168zM522.524 36.83l1.993-1.994.825.826v2.335l-.825.825zM518.115 36.829l1.993-1.993.826.826v2.335l-.826.825zM520.322 42.994h2.818v-1.168l-1.651-1.65h-1.168zM520.322 30.665h2.818v1.167l-1.651 1.651h-1.168zM541.468 42.994h-2.819v-1.168l1.651-1.65h1.168zM541.468 30.665h-2.819v1.167l1.651 1.651h1.168z" style="font-variation-settings:normal;fill:none;fill-opacity:1;stroke:#000;stroke-width:.352778;stroke-linecap:butt;stroke-linejoin:miter;stroke-miterlimit:4;stroke-dasharray:none;stroke-dashoffset:0;stroke-opacity:1;stop-color:#000" transform="translate(-285.76 .398)"/><path d="m528.828 40.756.752-.752h2.63l.751.752 1.86-1.86-.751-.752v-2.63l.751-.752-1.86-1.86-.751.752h-2.63l-.752-.751-1.86 1.86.752.751v2.63l-.752.752z" style="font-variation-settings:normal;vector-effect:none;fill:none;fill-opacity:1;stroke:#000;stroke-width:.352777;stroke-linecap:butt;stroke-linejoin:miter;stroke-miterlimit:4;stroke-dasharray:none;stroke-dashoffset:0;stroke-opacity:1;-inkscape-stroke:none;stop-color:#000" transform="translate(-285.76 .398)"/><path d="m328.39 36.83-1.993-1.994-.825.826v2.335l.826.825zM332.799 36.83l-1.993-1.994-.825.826v2.335l.825.825zM326.184 42.994v-2.819h-1.167l-1.651 1.651v1.168zM313.855 42.994v-2.819h1.168l1.65 1.651v1.168zM326.184 30.665h-2.818v1.167l1.65 1.651h1.168zM313.855 30.665v2.818h1.168l1.65-1.65v-1.168zM311.649 36.83l1.993-1.994.825.826v2.335l-.825.825zM307.24 36.83l1.993-1.994.826.826v2.335l-.826.825zM309.447 42.994h2.818v-1.168l-1.651-1.65h-1.168zM309.447 30.665h2.818v1.167l-1.651 1.651h-1.168zM330.593 42.994h-2.819v-1.168l1.652-1.65h1.167zM330.593 30.665h-2.819v1.167l1.652 1.651h1.167z" style="font-variation-settings:normal;fill:none;fill-opacity:1;stroke:#000;stroke-width:.352778;stroke-linecap:butt;stroke-linejoin:miter;stroke-miterlimit:4;stroke-dasharray:none;stroke-dashoffset:0;stroke-opacity:1;stop-color:#000" transform="translate(-285.76 .398)"/><path d="m317.953 40.756.752-.752h2.63l.751.752 1.86-1.86-.751-.752v-2.63l.751-.751-1.86-1.86-.751.751h-2.63l-.752-.751-1.86 1.86.752.751v2.63l-.752.752z" style="font-variation-settings:normal;vector-effect:none;fill:none;fill-opacity:1;stroke:#000;stroke-width:.352777;stroke-linecap:butt;stroke-linejoin:miter;stroke-miterlimit:4;stroke-dasharray:none;stroke-dashoffset:0;stroke-opacity:1;-inkscape-stroke:none;stop-color:#000" transform="translate(-285.76 .398)"/><path d="M299.46 107.552h252M362.46 195.552v-88M425.46 195.552v-88M488.46 195.552v-88" style="font-variation-settings:normal;vector-effect:none;fill:none;fill-opacity:1;stroke:#fff;stroke-width:.352777;stroke-linecap:butt;stroke-linejoin:miter;stroke-miterlimit:4;stroke-dasharray:.705554,.352777;stroke-dashoffset:0;stroke-opacity:1;-inkscape-stroke:none;stop-color:#000" transform="translate(-285.76 .398)"/></svg>