<svg xmlns="http://www.w3.org/2000/svg" xml:space="preserve" width="1056" height="816" viewBox="0 0 279.4 215.9"><g transform="translate(-568.5 -97.34)"><path d="M847.9 97.34v215.9H568.5V97.34Z" style="font-variation-settings:normal;display:inline;fill:#fff;fill-opacity:1;fill-rule:evenodd;stroke:none;stroke-width:.705556;stroke-linecap:butt;stroke-linejoin:miter;stroke-miterlimit:4;stroke-dasharray:none;stroke-dashoffset:0;stroke-opacity:1;stop-color:#000"/><path d="M684.202 135.082v91.709l1.86 1.859h74.162l1.86-1.86v-91.708h-68.702zm-109.352.018v169.967l1.84 1.822h104.069l1.858-1.841V136.96l-1.86-1.86h-104.05Z" style="font-variation-settings:normal;fill:none;fill-opacity:1;stroke:#000;stroke-width:.352778;stroke-linecap:butt;stroke-linejoin:miter;stroke-miterlimit:4;stroke-dasharray:none;stroke-dashoffset:0;stroke-opacity:1;stop-color:#000"/><path d="m575.981 103.643-1.226 1.226.64.639v2.62l-.64.638 1.226 1.227h23.28l1.227-1.227-.639-.638v-2.62l.639-.64-1.227-1.225h-11.64z" style="font-variation-settings:normal;fill:#000;fill-opacity:1;stroke:none;stroke-width:.352778;stroke-linecap:butt;stroke-linejoin:miter;stroke-miterlimit:4;stroke-dasharray:none;stroke-dashoffset:0;stroke-opacity:1;stop-color:#000"/><text xml:space="preserve" x="578.056" y="107.888" style="font-style:normal;font-variant:normal;font-weight:700;font-stretch:normal;font-size:4.23333px;line-height:1.25;font-family:Arial;-inkscape-font-specification:&quot;Arial Bold&quot;;white-space:pre;display:inline;fill:#fff;fill-opacity:1;stroke:none;stroke-width:.352778;stroke-dasharray:none"><tspan style="stroke-width:.352778;stroke-dasharray:none">Physique </tspan></text><path d="m765.528 230.235-1.86 1.86v6.35l1.86-1.86h74.161l1.86 1.86v-6.35l-1.86-1.86h-66.841z" style="font-variation-settings:normal;vector-effect:none;fill:#000;fill-opacity:1;stroke:#000;stroke-width:.352777;stroke-linecap:butt;stroke-linejoin:miter;stroke-miterlimit:4;stroke-dasharray:none;stroke-dashoffset:0;stroke-opacity:1;-inkscape-stroke:none;stop-color:#000"/><text xml:space="preserve" x="783.699" y="234.533" style="font-style:normal;font-variant:normal;font-weight:700;font-stretch:normal;font-size:4.23333px;line-height:1.25;font-family:Arial;-inkscape-font-specification:&quot;Arial Bold&quot;;white-space:pre;display:inline;fill:#fff;stroke:none;stroke-width:.352778;stroke-dasharray:none"><tspan style="fill:#fff;stroke:none;stroke-width:.352778;stroke-dasharray:none">Combat Technique</tspan></text><path d="M763.668 236.585v68.444l1.86 1.86h74.163l1.859-1.86v-68.444zm-79.466 0v68.444l1.86 1.86h74.163l1.859-1.86v-68.444z" style="font-variation-settings:normal;vector-effect:none;fill:none;fill-opacity:1;stroke:#000;stroke-width:.352777;stroke-linecap:butt;stroke-linejoin:miter;stroke-miterlimit:4;stroke-dasharray:none;stroke-dashoffset:0;stroke-opacity:1;-inkscape-stroke:none;stop-color:#000"/><path d="m686.062 127.157-1.86 1.86v6.065l26.89-.005-1.855-1.855v-4.205l1.86-1.86zm-1.86 7.925v1.86l1.86-1.86z" style="font-variation-settings:normal;vector-effect:none;fill:#000;fill-opacity:1;stroke:#000;stroke-width:.352777;stroke-linecap:butt;stroke-linejoin:miter;stroke-miterlimit:4;stroke-dasharray:none;stroke-dashoffset:0;stroke-opacity:1;-inkscape-stroke:none;stop-color:#000"/><text xml:space="preserve" x="687.528" y="132.656" style="font-style:normal;font-variant:normal;font-weight:700;font-stretch:normal;font-size:4.234px;line-height:1.25;font-family:Arial;-inkscape-font-specification:&quot;Arial Bold&quot;;white-space:pre;display:inline;fill:#fff;stroke:none;stroke-width:1.00013;stroke-dasharray:none" transform="scale(1.00016 .99984)"><tspan style="fill:#fff;stroke-width:1.00013;stroke-dasharray:none">Character</tspan></text><path d="m651.95 133.526-1.86-1.86v-2.63l1.86-1.86h20.867l1.86 1.86v2.63l-1.86 1.86z" style="font-variation-settings:normal;vector-effect:none;fill:#000;fill-opacity:1;stroke:none;stroke-width:.352777;stroke-linecap:butt;stroke-linejoin:miter;stroke-miterlimit:4;stroke-dasharray:none;stroke-dashoffset:0;stroke-opacity:1;-inkscape-stroke:none;stop-color:#000"/><text xml:space="preserve" x="651.965" y="131.357" style="font-style:normal;font-variant:normal;font-weight:700;font-stretch:normal;font-size:3.88056px;line-height:1.25;font-family:Arial;-inkscape-font-specification:&quot;Arial Bold&quot;;white-space:pre;display:inline;fill:#fff;fill-opacity:1;stroke:none;stroke-width:.352778;stroke-dasharray:none"><tspan style="font-size:3.88056px;stroke-width:.352778;stroke-dasharray:none">Experience</tspan></text><path d="m679.441 127.176-.93.93h-1.315v1.315l-.93.93.93.93v1.315h1.315l.93.93.93-.93h1.316v-1.315l.93-.93-.93-.93v-1.315h-1.315z" style="font-variation-settings:normal;fill:none;fill-opacity:1;stroke:#000;stroke-width:.352778;stroke-linecap:butt;stroke-linejoin:miter;stroke-miterlimit:4;stroke-dasharray:none;stroke-dashoffset:0;stroke-opacity:1;stop-color:#000"/><path d="m624.193 103.643-1.225 1.226.638.639v2.62l-.639.638 1.226 1.227h23.28l1.227-1.227-.639-.638v-2.62l.639-.64-1.226-1.225h-11.64z" style="font-variation-settings:normal;fill:#000;fill-opacity:1;stroke:none;stroke-width:.352778;stroke-linecap:butt;stroke-linejoin:miter;stroke-miterlimit:4;stroke-dasharray:none;stroke-dashoffset:0;stroke-opacity:1;stop-color:#000"/><text xml:space="preserve" x="625.767" y="107.915" style="font-style:normal;font-variant:normal;font-weight:700;font-stretch:normal;font-size:4.23333px;line-height:1.25;font-family:Arial;-inkscape-font-specification:&quot;Arial Bold&quot;;white-space:pre;display:inline;fill:#fff;fill-opacity:1;stroke:none;stroke-width:.352778;stroke-dasharray:none"><tspan style="stroke-width:.352778;stroke-dasharray:none">Discipline</tspan></text><path d="m672.405 103.643-1.225 1.226.638.639v2.62l-.639.638 1.226 1.227h23.28l1.227-1.227-.639-.638v-2.62l.639-.64-1.226-1.225h-11.64z" style="font-variation-settings:normal;fill:#000;fill-opacity:1;stroke:none;stroke-width:.352778;stroke-linecap:butt;stroke-linejoin:miter;stroke-miterlimit:4;stroke-dasharray:none;stroke-dashoffset:0;stroke-opacity:1;stop-color:#000"/><text xml:space="preserve" x="673.503" y="108.308" style="font-style:normal;font-variant:normal;font-weight:700;font-stretch:normal;font-size:4.23333px;line-height:1.25;font-family:Arial;-inkscape-font-specification:&quot;Arial Bold&quot;;white-space:pre;display:inline;fill:#fff;fill-opacity:1;stroke:none;stroke-width:.352778;stroke-dasharray:none"><tspan style="stroke-width:.352778;stroke-dasharray:none">Resilience</tspan></text><path d="m720.617 103.643-1.225 1.226.638.639v2.62l-.639.638 1.226 1.227h23.28l1.227-1.227-.639-.638v-2.62l.639-.64-1.226-1.225h-11.64z" style="font-variation-settings:normal;fill:#000;fill-opacity:1;stroke:none;stroke-width:.352778;stroke-linecap:butt;stroke-linejoin:miter;stroke-miterlimit:4;stroke-dasharray:none;stroke-dashoffset:0;stroke-opacity:1;stop-color:#000"/><text xml:space="preserve" x="722.658" y="108.308" style="font-style:normal;font-variant:normal;font-weight:700;font-stretch:normal;font-size:4.23333px;line-height:1.25;font-family:Arial;-inkscape-font-specification:&quot;Arial Bold&quot;;white-space:pre;display:inline;fill:#fff;fill-opacity:1;stroke:none;stroke-width:.352778;stroke-dasharray:none"><tspan style="stroke-width:.352778;stroke-dasharray:none">Brilliance</tspan></text><path d="m768.83 103.643-1.226 1.226.638.639v2.62l-.639.638 1.226 1.227h23.28l1.227-1.227-.639-.638v-2.62l.639-.64-1.226-1.225h-11.64z" style="font-variation-settings:normal;fill:#000;fill-opacity:1;stroke:none;stroke-width:.352778;stroke-linecap:butt;stroke-linejoin:miter;stroke-miterlimit:4;stroke-dasharray:none;stroke-dashoffset:0;stroke-opacity:1;stop-color:#000"/><text xml:space="preserve" x="769.176" y="108.333" style="font-style:normal;font-variant:normal;font-weight:700;font-stretch:normal;font-size:4.23333px;line-height:1.25;font-family:Arial;-inkscape-font-specification:&quot;Arial Bold&quot;;white-space:pre;display:inline;fill:#fff;fill-opacity:1;stroke:none;stroke-width:.352778;stroke-dasharray:none"><tspan style="stroke-width:.352778;stroke-dasharray:none">Cleverness</tspan></text><path d="m817.042 103.643-1.226 1.226.639.639v2.62l-.64.638 1.227 1.227h23.28l1.226-1.227-.639-.638v-2.62l.64-.64-1.227-1.225h-11.64z" style="font-variation-settings:normal;fill:#000;fill-opacity:1;stroke:none;stroke-width:.352778;stroke-linecap:butt;stroke-linejoin:miter;stroke-miterlimit:4;stroke-dasharray:none;stroke-dashoffset:0;stroke-opacity:1;stop-color:#000"/><path d="m815.902 117.808 1.993-1.993.826.826v2.334l-.826.826zm21.151 0-1.993-1.993-.826.826v2.335l.826.825zm4.408 0-1.993-1.993-.825.826v2.334l.825.826zm-6.615 6.165v-2.819h-1.167l-1.651 1.651v1.168zm-12.329 0v-2.819h1.168l1.65 1.651v1.168zm12.329-12.329h-2.818v1.167l1.65 1.651h1.168zm-12.329 0v2.818h1.168l1.65-1.65v-1.168zm-2.207 6.164 1.994-1.993.825.826v2.335l-.825.825zm-2.201 6.165h2.818v-1.168l-1.651-1.65h-1.168zm0-12.329h2.818v1.167l-1.651 1.651h-1.168zm21.146 12.329h-2.819v-1.168l1.652-1.65h1.167zm0-12.329h-2.819v1.167l1.652 1.651h1.167z" style="font-variation-settings:normal;fill:none;fill-opacity:1;stroke:#000;stroke-width:.352778;stroke-linecap:butt;stroke-linejoin:miter;stroke-miterlimit:4;stroke-dasharray:none;stroke-dashoffset:0;stroke-opacity:1;stop-color:#000"/><path d="m826.615 121.735.752-.752h2.63l.751.752 1.86-1.86-.751-.752v-2.63l.751-.752-1.86-1.86-.751.752h-2.63l-.752-.751-1.86 1.86.752.751v2.63l-.752.752z" style="font-variation-settings:normal;vector-effect:none;fill:none;fill-opacity:1;stroke:#000;stroke-width:.352777;stroke-linecap:butt;stroke-linejoin:miter;stroke-miterlimit:4;stroke-dasharray:none;stroke-dashoffset:0;stroke-opacity:1;-inkscape-stroke:none;stop-color:#000"/><text xml:space="preserve" x="819.198" y="108.308" style="font-style:normal;font-variant:normal;font-weight:700;font-stretch:normal;font-size:4.23333px;line-height:1.25;font-family:Arial;-inkscape-font-specification:&quot;Arial Bold&quot;;white-space:pre;display:inline;fill:#fff;fill-opacity:1;stroke:none;stroke-width:.352778;stroke-dasharray:none"><tspan style="stroke-width:.352778;stroke-dasharray:none">Presence</tspan></text><path d="m576.71 127.176-1.86 1.86v7.925l1.86-1.86h73.379l-1.86-1.86v-4.205l-1.86-1.86h-65.942z" style="font-variation-settings:normal;vector-effect:none;fill:#000;fill-opacity:1;stroke:#000;stroke-width:.352777;stroke-linecap:butt;stroke-linejoin:miter;stroke-miterlimit:4;stroke-dasharray:none;stroke-dashoffset:0;stroke-opacity:1;-inkscape-stroke:none;stop-color:#000"/><text xml:space="preserve" x="602.479" y="132.629" style="font-style:normal;font-variant:normal;font-weight:700;font-stretch:normal;font-size:4.23333px;line-height:1.25;font-family:Arial;-inkscape-font-specification:&quot;Arial Bold&quot;;white-space:pre;display:inline;fill:#fff;stroke:none;stroke-width:.352778;stroke-dasharray:none"><tspan style="fill:#fff;stroke-width:.352778;stroke-dasharray:none">Abilities</tspan></text><path d="m767.69 117.808 1.993-1.993.826.826v2.334l-.826.826zm21.15 0-1.993-1.993-.825.826v2.335l.826.825zm4.409 0-1.993-1.993-.826.826v2.334l.826.826zm-6.615 6.165v-2.819h-1.167l-1.651 1.651v1.168zm-12.329 0v-2.819h1.168l1.65 1.651v1.168zm12.329-12.329h-2.818v1.167l1.65 1.651h1.168zm-12.329 0v2.818h1.168l1.65-1.65v-1.168zm-2.206 6.164 1.993-1.993.825.826v2.335l-.825.825zm-2.202 6.165h2.818v-1.168l-1.651-1.65h-1.168zm0-12.329h2.818v1.167l-1.651 1.651h-1.168zm21.146 12.329h-2.819v-1.168l1.651-1.65h1.168zm0-12.329h-2.819v1.167l1.651 1.651h1.168z" style="font-variation-settings:normal;fill:none;fill-opacity:1;stroke:#000;stroke-width:.352778;stroke-linecap:butt;stroke-linejoin:miter;stroke-miterlimit:4;stroke-dasharray:none;stroke-dashoffset:0;stroke-opacity:1;stop-color:#000"/><path d="m778.403 121.735.752-.752h2.63l.751.752 1.86-1.86-.751-.752v-2.63l.751-.752-1.86-1.86-.751.752h-2.63l-.752-.751-1.86 1.86.752.751v2.63l-.752.752z" style="font-variation-settings:normal;vector-effect:none;fill:none;fill-opacity:1;stroke:#000;stroke-width:.352777;stroke-linecap:butt;stroke-linejoin:miter;stroke-miterlimit:4;stroke-dasharray:none;stroke-dashoffset:0;stroke-opacity:1;-inkscape-stroke:none;stop-color:#000"/><path d="m831.707 143.043 1.86 1.86v2.63l-1.855 1.855h-26.444l-1.86-1.86v-2.63l1.855-1.855h25.154z" style="font-variation-settings:normal;fill:#000;fill-opacity:1;stroke:#000;stroke-width:.352778;stroke-linecap:butt;stroke-linejoin:miter;stroke-miterlimit:4;stroke-dasharray:none;stroke-dashoffset:0;stroke-opacity:1;stop-color:#000"/><text xml:space="preserve" x="807.187" y="147.706" style="font-style:normal;font-variant:normal;font-weight:700;font-stretch:normal;font-size:4.23333px;line-height:1.25;font-family:Arial;-inkscape-font-specification:&quot;Arial Bold&quot;;white-space:pre;display:inline;fill:#fff;fill-opacity:1;stroke:none;stroke-width:.352778;stroke-dasharray:none"><tspan style="stroke-width:.352778;stroke-dasharray:none">Momentum</tspan></text><rect width="6.35" height="6.35" x="-841.501" y="-149.393" ry="1.27" style="font-variation-settings:normal;vector-effect:none;fill:#fff;fill-opacity:1;fill-rule:evenodd;stroke:#000;stroke-width:.352777;stroke-linecap:butt;stroke-linejoin:miter;stroke-miterlimit:4;stroke-dasharray:none;stroke-dashoffset:0;stroke-opacity:1;-inkscape-stroke:none;stop-color:#000" transform="scale(-1)"/><path d="m719.478 117.808 1.993-1.993.826.826v2.334l-.826.826zm21.15 0-1.993-1.993-.825.826v2.335l.826.825zm4.409 0-1.993-1.993-.826.826v2.334l.826.826zm-6.615 6.165v-2.819h-1.167l-1.651 1.651v1.168zm-12.329 0v-2.819h1.168l1.65 1.651v1.168zm12.329-12.329h-2.818v1.167l1.65 1.651h1.168zm-12.329 0v2.818h1.168l1.65-1.65v-1.168zm-2.206 6.164 1.993-1.993.825.826v2.335l-.825.825zm-2.202 6.165h2.818v-1.168l-1.651-1.65h-1.168zm0-12.329h2.818v1.167l-1.651 1.651h-1.168zm21.145 12.329h-2.818v-1.168l1.651-1.65h1.168zm0-12.329h-2.818v1.167l1.651 1.651h1.168z" style="font-variation-settings:normal;fill:none;fill-opacity:1;stroke:#000;stroke-width:.352778;stroke-linecap:butt;stroke-linejoin:miter;stroke-miterlimit:4;stroke-dasharray:none;stroke-dashoffset:0;stroke-opacity:1;stop-color:#000"/><path d="m730.19 121.735.753-.752h2.63l.751.752 1.86-1.86-.751-.752v-2.63l.751-.752-1.86-1.86-.751.752h-2.63l-.752-.751-1.86 1.86.752.751v2.63l-.752.752z" style="font-variation-settings:normal;vector-effect:none;fill:none;fill-opacity:1;stroke:#000;stroke-width:.352777;stroke-linecap:butt;stroke-linejoin:miter;stroke-miterlimit:4;stroke-dasharray:none;stroke-dashoffset:0;stroke-opacity:1;-inkscape-stroke:none;stop-color:#000"/><path d="m671.266 117.808 1.993-1.993.826.826v2.334l-.826.826zm21.15 0-1.993-1.993-.825.826v2.335l.826.825zm4.409 0-1.993-1.993-.826.826v2.334l.826.826zm-6.615 6.165v-2.819h-1.167l-1.651 1.651v1.168zm-12.33 0 .001-2.819h1.167l1.651 1.651v1.168zm12.33-12.329h-2.819v1.167l1.652 1.651h1.167zm-12.33 0 .001 2.818h1.167l1.651-1.65v-1.168zm-2.205 6.164 1.993-1.993.825.826v2.335l-.826.825zm-2.203 6.165h2.819v-1.168l-1.651-1.65h-1.168zm0-12.329h2.819v1.167l-1.651 1.651h-1.168zm21.147 12.329H691.8v-1.168l1.651-1.65h1.168zm0-12.329H691.8v1.167l1.651 1.651h1.168z" style="font-variation-settings:normal;fill:none;fill-opacity:1;stroke:#000;stroke-width:.352778;stroke-linecap:butt;stroke-linejoin:miter;stroke-miterlimit:4;stroke-dasharray:none;stroke-dashoffset:0;stroke-opacity:1;stop-color:#000"/><path d="m681.979 121.735.751-.752h2.63l.752.752 1.86-1.86-.751-.752v-2.63l.751-.752-1.86-1.86-.751.752h-2.63l-.752-.751-1.86 1.86.752.751v2.63l-.752.752z" style="font-variation-settings:normal;vector-effect:none;fill:none;fill-opacity:1;stroke:#000;stroke-width:.352777;stroke-linecap:butt;stroke-linejoin:miter;stroke-miterlimit:4;stroke-dasharray:none;stroke-dashoffset:0;stroke-opacity:1;-inkscape-stroke:none;stop-color:#000"/><path d="m623.054 117.808 1.993-1.993.826.826v2.334l-.826.826zm21.15 0-1.993-1.993-.825.826v2.335l.826.825zm4.409 0-1.993-1.993-.826.826v2.334l.826.826zm-6.615 6.165v-2.819h-1.167l-1.651 1.651v1.168zm-12.329 0v-2.819h1.167l1.651 1.651v1.168zm12.329-12.329h-2.819v1.167l1.652 1.651h1.167zm-12.329 0v2.818h1.167l1.651-1.65v-1.168zm-2.206 6.164 1.993-1.993.825.826v2.335l-.826.825zm-2.203 6.165h2.819v-1.168l-1.651-1.65h-1.168zm0-12.329h2.819v1.167l-1.651 1.651h-1.168zm21.147 12.329h-2.819v-1.168l1.651-1.65h1.168zm0-12.329h-2.819v1.167l1.651 1.651h1.168z" style="font-variation-settings:normal;fill:none;fill-opacity:1;stroke:#000;stroke-width:.352778;stroke-linecap:butt;stroke-linejoin:miter;stroke-miterlimit:4;stroke-dasharray:none;stroke-dashoffset:0;stroke-opacity:1;stop-color:#000"/><path d="m633.767 121.735.751-.752h2.63l.752.752 1.86-1.86-.751-.752v-2.63l.751-.752-1.86-1.86-.751.752h-2.63l-.752-.751-1.86 1.86.752.751v2.63l-.752.752z" style="font-variation-settings:normal;vector-effect:none;fill:none;fill-opacity:1;stroke:#000;stroke-width:.352777;stroke-linecap:butt;stroke-linejoin:miter;stroke-miterlimit:4;stroke-dasharray:none;stroke-dashoffset:0;stroke-opacity:1;-inkscape-stroke:none;stop-color:#000"/><path d="m574.842 117.808 1.993-1.993.826.826v2.334l-.826.826zm21.15 0L594 115.815l-.825.826v2.335l.825.825zm4.408 0-1.992-1.993-.826.826v2.334l.826.826zm-6.614 6.165v-2.819h-1.168l-1.65 1.651v1.168zm-12.329 0v-2.819h1.167l1.651 1.651v1.168zm12.329-12.329h-2.819v1.167l1.652 1.651h1.167zm-12.329 0v2.818h1.167l1.651-1.65v-1.168zm-2.207 6.164 1.994-1.993.825.826v2.335l-.826.825zm-2.202 6.165h2.819v-1.168l-1.651-1.65h-1.168zm0-12.329h2.819v1.167l-1.651 1.651h-1.168zm21.146 12.329h-2.818v-1.168l1.651-1.65h1.168zm0-12.329h-2.818v1.167l1.651 1.651h1.168z" style="font-variation-settings:normal;fill:none;fill-opacity:1;stroke:#000;stroke-width:.352778;stroke-linecap:butt;stroke-linejoin:miter;stroke-miterlimit:4;stroke-dasharray:none;stroke-dashoffset:0;stroke-opacity:1;stop-color:#000"/><path d="m585.555 121.735.751-.752h2.63l.752.752 1.86-1.86-.752-.752v-2.63l.752-.752-1.86-1.86-.751.752h-2.63l-.752-.751-1.86 1.86.751.751v2.63l-.751.752z" style="font-variation-settings:normal;vector-effect:none;fill:none;fill-opacity:1;stroke:#000;stroke-width:.352777;stroke-linecap:butt;stroke-linejoin:miter;stroke-miterlimit:4;stroke-dasharray:none;stroke-dashoffset:0;stroke-opacity:1;-inkscape-stroke:none;stop-color:#000"/><path d="m805.268 127.142-1.86 1.86v2.63l1.86 1.86h14.535l1.86-1.86v-2.63l-1.86-1.86zm19.839 0-1.859 1.86v2.63l1.86 1.86h14.534l1.86-1.86v-2.63l-1.86-1.86z" style="font-variation-settings:normal;vector-effect:none;fill:#000;fill-opacity:1;stroke:#000;stroke-width:.352777;stroke-linecap:butt;stroke-linejoin:miter;stroke-miterlimit:4;stroke-dasharray:none;stroke-dashoffset:0;stroke-opacity:1;-inkscape-stroke:none;stop-color:#000"/><text xml:space="preserve" x="814.162" y="133.428" style="font-style:normal;font-variant:normal;font-weight:700;font-stretch:normal;font-size:4.29903px;line-height:1.25;font-family:Arial;-inkscape-font-specification:&quot;Arial Bold&quot;;white-space:pre;display:inline;fill:#fff;stroke:none;stroke-width:.352778;stroke-dasharray:none" transform="scale(1.01553 .9847)"><tspan style="stroke-width:.352778;stroke-dasharray:none">Vigor</tspan></text><text xml:space="preserve" x="793.525" y="133.855" style="font-style:normal;font-variant:normal;font-weight:700;font-stretch:normal;font-size:4.29903px;line-height:1.25;font-family:Arial;-inkscape-font-specification:&quot;Arial Bold&quot;;white-space:pre;display:inline;fill:#fff;stroke:none;stroke-width:.352778;stroke-dasharray:none" transform="scale(1.01553 .9847)"><tspan style="stroke-width:.352778;stroke-dasharray:none">Health</tspan></text><path d="m804.791 135.077-1.382.827v3.99l1.382.827h4.718l4.588-5.232-.689-.412zm15.49 6.35 1.382-.826v-3.99l-1.382-.827h-4.718l-4.587 5.232.688.411zm4.401-6.35-1.382.827v3.99l1.382.827h4.718l4.587-5.232-.688-.412zm15.49 6.35 1.382-.826v-3.99l-1.382-.827h-4.719l-4.587 5.232.689.411z" style="font-variation-settings:normal;fill:none;fill-opacity:1;stroke:#000;stroke-width:.352778;stroke-linecap:butt;stroke-linejoin:miter;stroke-miterlimit:4;stroke-dasharray:none;stroke-dashoffset:0;stroke-opacity:1;stop-color:#000"/><path d="m805.258 166.832-1.86 1.86v2.63l1.855 1.855h26.444l1.86-1.86v-2.63l-1.856-1.855h-25.154z" style="font-variation-settings:normal;fill:#000;fill-opacity:1;stroke:#000;stroke-width:.352778;stroke-linecap:butt;stroke-linejoin:miter;stroke-miterlimit:4;stroke-dasharray:none;stroke-dashoffset:0;stroke-opacity:1;stop-color:#000"/><text xml:space="preserve" x="807.886" y="171.495" style="font-style:normal;font-variant:normal;font-weight:700;font-stretch:normal;font-size:4.23334px;line-height:1.25;font-family:Arial;-inkscape-font-specification:&quot;Arial Bold&quot;;white-space:pre;display:inline;fill:#fff;fill-opacity:1;stroke:none;stroke-width:.352778;stroke-dasharray:none"><tspan style="font-style:normal;font-variant:normal;font-weight:700;font-stretch:normal;font-family:Arial;-inkscape-font-specification:&quot;Arial Bold&quot;;fill:#fff;stroke-width:.352778;stroke-dasharray:none">Movement</tspan></text><path fill="none" d="m287.965 159.276-6.133 1.643-4.49-4.49 1.643-6.133 6.134-1.644 4.49 4.49z" style="fill:#fff;fill-opacity:0;stroke:#000;stroke-width:.656592;stroke-dasharray:none" transform="matrix(.55768 -.12941 .14943 .48296 657.074 131.926)"/><path d="m805.263 158.902-1.86 1.86v2.63l1.855 1.855h26.444l1.86-1.86v-2.63l-1.855-1.855h-25.154z" style="font-variation-settings:normal;fill:#000;fill-opacity:1;stroke:#000;stroke-width:.352778;stroke-linecap:butt;stroke-linejoin:miter;stroke-miterlimit:4;stroke-dasharray:none;stroke-dashoffset:0;stroke-opacity:1;stop-color:#000"/><text xml:space="preserve" x="815.284" y="163.59" style="font-style:normal;font-variant:normal;font-weight:700;font-stretch:normal;font-size:4.23334px;line-height:1.25;font-family:Arial;-inkscape-font-specification:&quot;Arial Bold&quot;;white-space:pre;display:inline;fill:#fff;fill-opacity:1;stroke:none;stroke-width:.352778;stroke-dasharray:none"><tspan style="font-style:normal;font-variant:normal;font-weight:700;font-stretch:normal;font-family:Arial;-inkscape-font-specification:&quot;Arial Bold&quot;;fill:#fff;stroke-width:.352778;stroke-dasharray:none">DR</tspan></text><path d="M838.293 165.232c-2.528-1.574-3.2-4.002-3.175-5.5 2.058-1.077 4.168-1.19 6.35 0 .025 1.498-.648 3.926-3.175 5.5z" style="font-variation-settings:normal;fill:none;fill-opacity:1;stroke:#000;stroke-width:.352778;stroke-linecap:butt;stroke-linejoin:miter;stroke-miterlimit:4;stroke-dasharray:none;stroke-dashoffset:0;stroke-opacity:1;stop-color:#000"/><path d="m765.59 127.157-1.859 1.86v2.63l1.86 1.86h34.373l1.86-1.86v-2.63l-1.86-1.86z" style="font-variation-settings:normal;vector-effect:none;fill:#000;fill-opacity:1;stroke:none;stroke-width:.352777;stroke-linecap:butt;stroke-linejoin:miter;stroke-miterlimit:4;stroke-dasharray:none;stroke-dashoffset:0;stroke-opacity:1;-inkscape-stroke:none;stop-color:#000"/><path d="m798.263 127.55-.322.322-.395-.228-.228.394-.44-.118-.117.44h-.456v.455l-.44.118.118.44-.394.228.228.394-.323.323.322.321-.227.394.394.228-.118.44.44.118v.456h.456l.118.44.44-.119.228.395.394-.228.322.322.322-.322.395.228.228-.395.44.118.117-.44h.456v-.455l.44-.118-.118-.44.394-.227-.228-.395.322-.321-.322-.322.228-.395-.394-.227.117-.44-.44-.118v-.456h-.455l-.118-.44-.44.118-.228-.394-.394.228z" style="font-variation-settings:normal;fill:#fff;fill-opacity:1;stroke:#000;stroke-width:.352778;stroke-linecap:butt;stroke-linejoin:miter;stroke-miterlimit:4;stroke-dasharray:none;stroke-dashoffset:0;stroke-opacity:1;stop-color:#000"/><text xml:space="preserve" x="765.214" y="133.879" style="font-style:normal;font-variant:normal;font-weight:700;font-stretch:normal;font-size:4.29903px;line-height:1.25;font-family:Arial;-inkscape-font-specification:&quot;Arial Bold&quot;;white-space:pre;display:inline;fill:#fff;stroke:none;stroke-width:.352778;stroke-dasharray:none" transform="scale(1.01553 .9847)"><tspan style="stroke-width:.352778;stroke-dasharray:none">Skills</tspan></text><text xml:space="preserve" x="770.895" y="139.74" style="font-style:normal;font-variant:normal;font-weight:400;font-stretch:normal;font-size:4.23333px;line-height:1.25;font-family:Arial;-inkscape-font-specification:Arial;white-space:pre;display:inline;fill:#000;fill-opacity:1;stroke:none;stroke-width:.352778;stroke-dasharray:none"><tspan style="stroke-width:.352778;stroke-dasharray:none">Athletics</tspan></text><path d="m765.59 135.077-1.86 1.86v2.63l1.856 1.855h26.443l1.86-1.86v-2.63l-1.855-1.855H766.88z" style="font-variation-settings:normal;fill:none;fill-opacity:1;stroke:#000;stroke-width:.352778;stroke-linecap:butt;stroke-linejoin:miter;stroke-miterlimit:4;stroke-dasharray:none;stroke-dashoffset:0;stroke-opacity:1;stop-color:#000"/><text xml:space="preserve" x="770.608" y="147.695" style="font-style:normal;font-variant:normal;font-weight:400;font-stretch:normal;font-size:4.23333px;line-height:1.25;font-family:Arial;-inkscape-font-specification:Arial;white-space:pre;display:inline;fill:#000;fill-opacity:1;stroke:none;stroke-width:.352778;stroke-dasharray:none"><tspan style="stroke-width:.352778;stroke-dasharray:none">Convince</tspan></text><path d="m765.586 143.007-1.86 1.86v2.63l1.854 1.855h26.444l1.86-1.86v-2.63l-1.855-1.855h-25.154z" style="font-variation-settings:normal;fill:none;fill-opacity:1;stroke:#000;stroke-width:.352778;stroke-linecap:butt;stroke-linejoin:miter;stroke-miterlimit:4;stroke-dasharray:none;stroke-dashoffset:0;stroke-opacity:1;stop-color:#000"/><text xml:space="preserve" x="773.12" y="155.624" style="font-style:normal;font-variant:normal;font-weight:400;font-stretch:normal;font-size:4.23333px;line-height:1.25;font-family:Arial;-inkscape-font-specification:Arial;white-space:pre;display:inline;fill:#000;fill-opacity:1;stroke:none;stroke-width:.352778;stroke-dasharray:none"><tspan style="stroke-width:.352778;stroke-dasharray:none">Covert</tspan></text><path d="m765.58 150.937-1.86 1.86v2.63l1.855 1.855h26.444l1.86-1.86v-2.63l-1.855-1.855H766.87z" style="font-variation-settings:normal;fill:none;fill-opacity:1;stroke:#000;stroke-width:.352778;stroke-linecap:butt;stroke-linejoin:miter;stroke-miterlimit:4;stroke-dasharray:none;stroke-dashoffset:0;stroke-opacity:1;stop-color:#000"/><text xml:space="preserve" x="771.942" y="163.529" style="font-style:normal;font-variant:normal;font-weight:400;font-stretch:normal;font-size:4.23333px;line-height:1.25;font-family:Arial;-inkscape-font-specification:Arial;white-space:pre;display:inline;fill:#000;fill-opacity:1;stroke:none;stroke-width:.352778;stroke-dasharray:none"><tspan style="stroke-width:.352778;stroke-dasharray:none">Finesse</tspan></text><path d="m765.575 158.867-1.86 1.86v2.63l1.855 1.854h26.444l1.86-1.86v-2.63l-1.855-1.854h-25.154z" style="font-variation-settings:normal;fill:none;fill-opacity:1;stroke:#000;stroke-width:.352778;stroke-linecap:butt;stroke-linejoin:miter;stroke-miterlimit:4;stroke-dasharray:none;stroke-dashoffset:0;stroke-opacity:1;stop-color:#000"/><text xml:space="preserve" x="773.016" y="171.039" style="font-style:normal;font-variant:normal;font-weight:400;font-stretch:normal;font-size:4.23333px;line-height:1.25;font-family:Arial;-inkscape-font-specification:Arial;white-space:pre;display:inline;fill:#000;fill-opacity:1;stroke:none;stroke-width:.352778;stroke-dasharray:none"><tspan style="stroke-width:.352778;stroke-dasharray:none">Insight</tspan></text><path d="m765.57 166.796-1.86 1.86v2.63l1.855 1.855h26.444l1.86-1.86v-2.63l-1.856-1.855H766.86z" style="font-variation-settings:normal;fill:none;fill-opacity:1;stroke:#000;stroke-width:.352778;stroke-linecap:butt;stroke-linejoin:miter;stroke-miterlimit:4;stroke-dasharray:none;stroke-dashoffset:0;stroke-opacity:1;stop-color:#000"/><text xml:space="preserve" x="770.142" y="179.389" style="font-style:normal;font-variant:normal;font-weight:400;font-stretch:normal;font-size:4.23333px;line-height:1.25;font-family:Arial;-inkscape-font-specification:Arial;white-space:pre;display:inline;fill:#000;fill-opacity:1;stroke:none;stroke-width:.352778;stroke-dasharray:none"><tspan style="stroke-width:.352778;stroke-dasharray:none">Intimidate</tspan></text><path d="m765.565 174.726-1.86 1.86v2.63l1.855 1.855h26.444l1.859-1.86v-2.63l-1.855-1.855h-25.154z" style="font-variation-settings:normal;fill:none;fill-opacity:1;stroke:#000;stroke-width:.352778;stroke-linecap:butt;stroke-linejoin:miter;stroke-miterlimit:4;stroke-dasharray:none;stroke-dashoffset:0;stroke-opacity:1;stop-color:#000"/><text xml:space="preserve" x="770.883" y="187.319" style="font-style:normal;font-variant:normal;font-weight:400;font-stretch:normal;font-size:4.23333px;line-height:1.25;font-family:Arial;-inkscape-font-specification:Arial;white-space:pre;display:inline;fill:#000;fill-opacity:1;stroke:none;stroke-width:.352778;stroke-dasharray:none"><tspan style="stroke-width:.352778;stroke-dasharray:none">Medicine</tspan></text><path d="m765.56 182.656-1.86 1.86v2.63l1.855 1.855h26.443l1.86-1.86v-2.63l-1.855-1.855H766.85z" style="font-variation-settings:normal;fill:none;fill-opacity:1;stroke:#000;stroke-width:.352778;stroke-linecap:butt;stroke-linejoin:miter;stroke-miterlimit:4;stroke-dasharray:none;stroke-dashoffset:0;stroke-opacity:1;stop-color:#000"/><text xml:space="preserve" x="768.115" y="195.249" style="font-style:normal;font-variant:normal;font-weight:400;font-stretch:normal;font-size:4.23333px;line-height:1.25;font-family:Arial;-inkscape-font-specification:Arial;white-space:pre;display:inline;fill:#000;fill-opacity:1;stroke:none;stroke-width:.352778;stroke-dasharray:none"><tspan style="stroke-width:.352778;stroke-dasharray:none">Misdirection</tspan></text><path d="m765.555 190.586-1.86 1.86v2.63l1.854 1.855h26.444l1.86-1.86v-2.63l-1.855-1.855h-25.154z" style="font-variation-settings:normal;fill:none;fill-opacity:1;stroke:#000;stroke-width:.352778;stroke-linecap:butt;stroke-linejoin:miter;stroke-miterlimit:4;stroke-dasharray:none;stroke-dashoffset:0;stroke-opacity:1;stop-color:#000"/><text xml:space="preserve" x="769.276" y="202.782" style="font-style:normal;font-variant:normal;font-weight:400;font-stretch:normal;font-size:4.23333px;line-height:1.25;font-family:Arial;-inkscape-font-specification:Arial;white-space:pre;display:inline;fill:#000;fill-opacity:1;stroke:none;stroke-width:.352778;stroke-dasharray:none"><tspan style="stroke-width:.352778;stroke-dasharray:none">Perception</tspan></text><path d="m765.55 198.516-1.86 1.86v2.63l1.854 1.854h26.444l1.86-1.86v-2.63l-1.855-1.854h-25.154z" style="font-variation-settings:normal;fill:none;fill-opacity:1;stroke:#000;stroke-width:.352778;stroke-linecap:butt;stroke-linejoin:miter;stroke-miterlimit:4;stroke-dasharray:none;stroke-dashoffset:0;stroke-opacity:1;stop-color:#000"/><text xml:space="preserve" x="770.326" y="211.108" style="font-style:normal;font-variant:normal;font-weight:400;font-stretch:normal;font-size:4.23333px;line-height:1.25;font-family:Arial;-inkscape-font-specification:Arial;white-space:pre;display:inline;fill:#000;fill-opacity:1;stroke:none;stroke-width:.352778;stroke-dasharray:none"><tspan style="stroke-width:.352778;stroke-dasharray:none">Research</tspan></text><path d="m765.544 206.445-1.86 1.86v2.63l1.855 1.855h26.444l1.86-1.86v-2.63l-1.855-1.855h-25.154z" style="font-variation-settings:normal;fill:none;fill-opacity:1;stroke:#000;stroke-width:.352778;stroke-linecap:butt;stroke-linejoin:miter;stroke-miterlimit:4;stroke-dasharray:none;stroke-dashoffset:0;stroke-opacity:1;stop-color:#000"/><text xml:space="preserve" x="771.928" y="219.063" style="font-style:normal;font-variant:normal;font-weight:400;font-stretch:normal;font-size:4.23333px;line-height:1.25;font-family:Arial;-inkscape-font-specification:Arial;white-space:pre;display:inline;fill:#000;fill-opacity:1;stroke:none;stroke-width:.352778;stroke-dasharray:none"><tspan style="stroke-width:.352778;stroke-dasharray:none">Survival</tspan></text><path d="m765.54 214.375-1.86 1.86v2.63l1.854 1.855h26.444l1.86-1.86v-2.63l-1.856-1.855h-25.154z" style="font-variation-settings:normal;fill:none;fill-opacity:1;stroke:#000;stroke-width:.352778;stroke-linecap:butt;stroke-linejoin:miter;stroke-miterlimit:4;stroke-dasharray:none;stroke-dashoffset:0;stroke-opacity:1;stop-color:#000"/><text xml:space="preserve" x="765.566" y="226.487" style="font-style:normal;font-variant:normal;font-weight:400;font-stretch:normal;font-size:2.82222px;line-height:1.25;font-family:Arial;-inkscape-font-specification:Arial;white-space:pre;display:inline;fill:#000;fill-opacity:1;stroke:none;stroke-width:.352778;stroke-dasharray:none"><tspan style="font-size:2.82222px;stroke-width:.352778;stroke-dasharray:none">SP:</tspan></text><path d="m765.534 222.305-1.86 1.86v2.63l1.855 1.855h26.444l1.859-1.86v-2.63l-1.855-1.855h-25.154z" style="font-variation-settings:normal;fill:none;fill-opacity:1;stroke:#000;stroke-width:.352778;stroke-linecap:butt;stroke-linejoin:miter;stroke-miterlimit:4;stroke-dasharray:none;stroke-dashoffset:0;stroke-opacity:1;stop-color:#000"/><path d="M839.88 150.942h-3.176l-1.587 1.588v3.175l3.175 1.587 3.175-1.587v-3.175z" style="font-variation-settings:normal;vector-effect:none;fill:none;fill-opacity:1;stroke:#000;stroke-width:.352777;stroke-linecap:butt;stroke-linejoin:miter;stroke-miterlimit:4;stroke-dasharray:none;stroke-dashoffset:0;stroke-opacity:1;-inkscape-stroke:none;stop-color:#000"/><path d="m805.268 150.973-1.86 1.86v2.63l1.855 1.855h26.444l1.86-1.86v-2.63l-1.855-1.855h-25.154z" style="font-variation-settings:normal;fill:#000;fill-opacity:1;stroke:#000;stroke-width:.352778;stroke-linecap:butt;stroke-linejoin:miter;stroke-miterlimit:4;stroke-dasharray:none;stroke-dashoffset:0;stroke-opacity:1;stop-color:#000"/><path d="m686.062 230.235-1.86 1.86v6.35l1.86-1.86 25.03-.005-1.855-1.855v-2.63l1.86-1.86z" style="font-variation-settings:normal;vector-effect:none;fill:#000;fill-opacity:1;stroke:#000;stroke-width:.352777;stroke-linecap:butt;stroke-linejoin:miter;stroke-miterlimit:4;stroke-dasharray:none;stroke-dashoffset:0;stroke-opacity:1;-inkscape-stroke:none;stop-color:#000"/><text xml:space="preserve" x="687.382" y="234.48" style="font-style:normal;font-variant:normal;font-weight:700;font-stretch:normal;font-size:4.23333px;line-height:1.25;font-family:Arial;-inkscape-font-specification:&quot;Arial Bold&quot;;white-space:pre;display:inline;fill:#fff;stroke:none;stroke-width:.352778;stroke-dasharray:none"><tspan style="fill:#fff;stroke:none;stroke-width:.352778;stroke-dasharray:none">Archetype</tspan></text><path d="m711.096 230.235-1.86 1.86v2.63l1.855 1.855h32.839l3.15.005v-.005h11.854l3.15.005v-4.495l-1.855-1.855h-47.843zm.001-103.078-1.86 1.86v4.205l1.855 1.855h32.839l3.149.005v-.005h11.855l3.149.005v-6.07l-1.855-1.855h-47.843z" style="font-variation-settings:normal;fill:none;fill-opacity:1;stroke:#000;stroke-width:.352778;stroke-linecap:butt;stroke-linejoin:miter;stroke-miterlimit:4;stroke-dasharray:none;stroke-dashoffset:0;stroke-opacity:1;stop-color:#000"/><text xml:space="preserve" x="812.11" y="155.635" style="font-style:normal;font-variant:normal;font-weight:700;font-stretch:normal;font-size:4.23333px;line-height:1.25;font-family:Arial;-inkscape-font-specification:&quot;Arial Bold&quot;;white-space:pre;display:inline;fill:#fff;fill-opacity:1;stroke:none;stroke-width:.352778;stroke-dasharray:none"><tspan style="fill:#fff;stroke-width:.352778;stroke-dasharray:none">Armor</tspan></text><path d="m805.253 174.762-1.86 1.86v6.35l1.86-1.86-.005-.005h34.441l1.86 1.86v-6.35l-1.855-1.855h-27.121z" style="font-variation-settings:normal;vector-effect:none;fill:#000;fill-opacity:1;stroke:#000;stroke-width:.264583;stroke-linecap:butt;stroke-linejoin:miter;stroke-miterlimit:4;stroke-dasharray:none;stroke-dashoffset:0;stroke-opacity:1;-inkscape-stroke:none;stop-color:#000"/><text xml:space="preserve" x="808.85" y="179.006" style="font-style:normal;font-variant:normal;font-weight:700;font-stretch:normal;font-size:4.23333px;line-height:1.25;font-family:Arial;-inkscape-font-specification:&quot;Arial Bold&quot;;white-space:pre;display:inline;fill:#fff;fill-opacity:1;stroke:none;stroke-width:.352778;stroke-dasharray:none"><tspan style="stroke-width:.352778;stroke-dasharray:none">Inventory</tspan></text><path d="m833.551 181.107-30.158.005v45.76l1.923 1.778h34.374l1.86-1.86v-45.683h-6.415z" style="font-variation-settings:normal;vector-effect:none;fill:none;fill-opacity:1;stroke:#000;stroke-width:.264583;stroke-linecap:butt;stroke-linejoin:miter;stroke-miterlimit:4;stroke-dasharray:none;stroke-dashoffset:0;stroke-opacity:1;-inkscape-stroke:none;stop-color:#000"/><path d="m837.145 175.168-.599 1.023-1.023.599v2.294l1.023.599.6 1.022h2.293l.599-1.022 1.023-.6v-2.293l-1.023-.6-.6-1.022h-1.146z" style="font-variation-settings:normal;fill:#fff;fill-opacity:1;stroke:#000;stroke-width:.352778;stroke-linecap:butt;stroke-linejoin:miter;stroke-miterlimit:4;stroke-dasharray:none;stroke-dashoffset:0;stroke-opacity:1;stop-color:#000"/><text xml:space="preserve" x="766.038" y="247.597" style="font-style:normal;font-variant:normal;font-weight:700;font-stretch:normal;font-size:4.23333px;line-height:1.25;font-family:Arial;-inkscape-font-specification:&quot;Arial Bold&quot;;white-space:pre;display:inline;fill:#000;fill-opacity:1;stroke:none;stroke-width:.352778;stroke-dasharray:none"><tspan style="font-style:normal;font-variant:normal;font-weight:700;font-stretch:normal;font-family:Arial;-inkscape-font-specification:&quot;Arial Bold&quot;;stroke-width:.352778;stroke-dasharray:none">Attribute: </tspan></text><text xml:space="preserve" x="809.804" y="247.404" style="font-style:normal;font-variant:normal;font-weight:700;font-stretch:normal;font-size:4.23333px;line-height:1.25;font-family:Arial;-inkscape-font-specification:&quot;Arial Bold&quot;;white-space:pre;display:inline;fill:#000;fill-opacity:1;stroke:none;stroke-width:.352778;stroke-dasharray:none"><tspan style="font-style:normal;font-variant:normal;font-weight:700;font-stretch:normal;font-family:Arial;-inkscape-font-specification:&quot;Arial Bold&quot;;stroke-width:.352778;stroke-dasharray:none">Damage: </tspan></text><text xml:space="preserve" x="685.477" y="139.697" style="font-style:normal;font-variant:normal;font-weight:700;font-stretch:normal;font-size:4.23333px;line-height:1.25;font-family:Arial;-inkscape-font-specification:&quot;Arial Bold&quot;;white-space:pre;display:inline;fill:#000;fill-opacity:1;stroke:none;stroke-width:.352778;stroke-dasharray:none"><tspan style="font-style:normal;font-variant:normal;font-weight:700;font-stretch:normal;font-family:Arial;-inkscape-font-specification:&quot;Arial Bold&quot;;stroke-width:.352778;stroke-dasharray:none">Bio: </tspan></text><text xml:space="preserve" x="685.477" y="170.94" style="font-style:normal;font-variant:normal;font-weight:700;font-stretch:normal;font-size:4.23333px;line-height:1.25;font-family:Arial;-inkscape-font-specification:&quot;Arial Bold&quot;;white-space:pre;display:inline;fill:#000;fill-opacity:1;stroke:none;stroke-width:.352778;stroke-dasharray:none"><tspan style="font-style:normal;font-variant:normal;font-weight:700;font-stretch:normal;font-family:Arial;-inkscape-font-specification:&quot;Arial Bold&quot;;stroke-width:.352778;stroke-dasharray:none">Beliefs:</tspan></text><text xml:space="preserve" x="685.562" y="202.131" style="font-style:normal;font-variant:normal;font-weight:700;font-stretch:normal;font-size:4.23333px;line-height:1.25;font-family:Arial;-inkscape-font-specification:&quot;Arial Bold&quot;;white-space:pre;display:inline;fill:#000;fill-opacity:1;stroke:none;stroke-width:.352778;stroke-dasharray:none"><tspan style="font-style:normal;font-variant:normal;font-weight:700;font-stretch:normal;font-family:Arial;-inkscape-font-specification:&quot;Arial Bold&quot;;stroke-width:.352778;stroke-dasharray:none">Goals:</tspan></text><path d="M804.983 189.793h34.976m-34.973 7.93h34.97m-34.968 7.93h34.966m-34.961 7.93h34.957m-34.957 7.929h34.957" style="font-variation-settings:normal;vector-effect:none;fill:none;fill-opacity:1;stroke:#000;stroke-width:.264583;stroke-linecap:butt;stroke-linejoin:miter;stroke-miterlimit:4;stroke-dasharray:1.05833,.264583;stroke-dashoffset:0;stroke-opacity:.25;-inkscape-stroke:none;stop-color:#000"/><text xml:space="preserve" x="766.038" y="253.958" style="font-style:normal;font-variant:normal;font-weight:700;font-stretch:normal;font-size:4.23333px;line-height:1.25;font-family:Arial;-inkscape-font-specification:&quot;Arial Bold&quot;;white-space:pre;display:inline;fill:#000;fill-opacity:1;stroke:none;stroke-width:.352778;stroke-dasharray:none"><tspan style="font-style:normal;font-variant:normal;font-weight:700;font-stretch:normal;font-family:Arial;-inkscape-font-specification:&quot;Arial Bold&quot;;stroke-width:.352778;stroke-dasharray:none">Armament &amp; Role: </tspan></text><text xml:space="preserve" x="765.933" y="260.287" style="font-style:normal;font-variant:normal;font-weight:700;font-stretch:normal;font-size:4.23333px;line-height:1.25;font-family:Arial;-inkscape-font-specification:&quot;Arial Bold&quot;;white-space:pre;display:inline;fill:#000;fill-opacity:1;stroke:none;stroke-width:.352778;stroke-dasharray:none"><tspan style="font-style:normal;font-variant:normal;font-weight:700;font-stretch:normal;font-family:Arial;-inkscape-font-specification:&quot;Arial Bold&quot;;stroke-width:.352778;stroke-dasharray:none">Traits:</tspan></text><path d="m797.132 138.25-.829.829-.83-.83.83-.829zm2.346 0-.83.829-.829-.83.83-.829zm2.346 0-.83.829-.829-.83.83-.829zm-4.697 7.927-.83.83-.828-.83.829-.83zm2.346 0-.83.83-.829-.83.83-.83zm2.346 0-.83.83-.83-.83.83-.83zm-4.697 7.93-.83.829-.829-.83.83-.829zm2.346 0-.83.829-.829-.83.83-.829zm2.345 0-.829.829-.83-.83.83-.829zm-4.696 7.927-.83.83-.829-.83.83-.83zm2.346 0-.83.83-.83-.83.83-.83zm2.345 0-.83.83-.828-.83.829-.83zm-4.696 7.932-.83.83-.829-.83.83-.829zm2.345 0-.829.83-.83-.83.83-.83zm2.346 0-.83.83-.829-.83.83-.83zm-4.696 7.927-.83.83-.83-.83.83-.829zm2.345 0-.83.83-.828-.83.829-.829zm2.346 0-.83.83-.829-.83.83-.829zm-4.697 7.93-.829.83-.83-.83.83-.83zm2.346 0-.83.83-.829-.83.83-.83zm2.346 0-.83.83-.829-.83.83-.83zm-4.697 7.927-.83.83-.828-.83.829-.829zm2.346 0-.83.83-.829-.83.83-.829zm2.346 0-.83.83-.83-.83.83-.829zm-4.697 7.935-.83.83-.829-.83.83-.829zm2.346 0-.83.83-.829-.83.83-.829zm2.345 0-.829.83-.83-.83.83-.829zm-4.696 7.928-.83.829-.829-.83.83-.829zm2.346 0-.83.829-.83-.83.83-.829zm2.345 0-.83.829-.828-.83.829-.829zm-4.697 7.929-.829.83-.829-.83.83-.829zm2.346 0-.829.83-.83-.83.83-.829zm2.346 0-.83.83-.829-.83.83-.829zm-4.696 7.928-.83.829-.83-.83.83-.829zm2.345 0-.83.829-.828-.83.829-.829zm2.346 0-.83.829-.829-.83.83-.829z" style="font-variation-settings:normal;vector-effect:none;fill:none;fill-opacity:1;stroke:#000;stroke-width:.264583;stroke-linecap:butt;stroke-linejoin:miter;stroke-miterlimit:4;stroke-dasharray:none;stroke-dashoffset:0;stroke-opacity:1;-inkscape-stroke:none;stop-color:#000"/></g></svg>