<svg xmlns="http://www.w3.org/2000/svg" xml:space="preserve" width="11in" height="816" viewBox="0 0 279.4 215.9"><path d="M847.9 97.34v215.9H568.5V97.34z" style="font-variation-settings:normal;display:inline;fill:#fff;fill-opacity:1;fill-rule:evenodd;stroke:none;stroke-width:.352778;stroke-linecap:butt;stroke-linejoin:miter;stroke-miterlimit:4;stroke-dasharray:none;stroke-dashoffset:0;stroke-opacity:1;stop-color:#000" transform="translate(-568.5 -97.34)"/><path d="m576.71 103.69-1.86 1.859v2.63l1.854 1.855h38.094l1.86-1.86v-2.63l-1.855-1.855h-36.804z" style="font-variation-settings:normal;fill:#000;fill-opacity:1;stroke:#000;stroke-width:.352778;stroke-linecap:butt;stroke-linejoin:miter;stroke-miterlimit:4;stroke-dasharray:none;stroke-dashoffset:0;stroke-opacity:1;stop-color:#000" transform="translate(-568.5 -97.34)"/><path d="M684.202 135.082v91.709l1.86 1.859h74.162l1.86-1.86v-91.708h-68.702zm-109.352.018v169.967l1.84 1.822h104.069l1.858-1.841V136.96l-1.86-1.86h-104.05Z" style="font-variation-settings:normal;fill:none;fill-opacity:1;stroke:#000;stroke-width:.352778;stroke-linecap:butt;stroke-linejoin:miter;stroke-miterlimit:4;stroke-dasharray:none;stroke-dashoffset:0;stroke-opacity:1;stop-color:#000" transform="translate(-568.5 -97.34)"/><text xml:space="preserve" x="586.189" y="107.931" style="font-style:normal;font-variant:normal;font-weight:700;font-stretch:normal;font-size:4.23333px;line-height:1.25;font-family:Arial;-inkscape-font-specification:&quot;Arial Bold&quot;;white-space:pre;display:inline;fill:#fff;fill-opacity:1;stroke:none;stroke-width:.352778;stroke-dasharray:none" transform="translate(-568.5 -97.34)"><tspan style="stroke-width:.352778;stroke-dasharray:none">Physique </tspan></text><path d="m765.528 230.235-1.86 1.86v6.35l1.86-1.86h74.161l1.86 1.86v-6.35l-1.86-1.86h-66.841z" style="font-variation-settings:normal;vector-effect:none;fill:#000;fill-opacity:1;stroke:#000;stroke-width:.352777;stroke-linecap:butt;stroke-linejoin:miter;stroke-miterlimit:4;stroke-dasharray:none;stroke-dashoffset:0;stroke-opacity:1;-inkscape-stroke:none;stop-color:#000" transform="translate(-568.5 -97.34)"/><text xml:space="preserve" x="783.699" y="234.533" style="font-style:normal;font-variant:normal;font-weight:700;font-stretch:normal;font-size:4.23333px;line-height:1.25;font-family:Arial;-inkscape-font-specification:&quot;Arial Bold&quot;;white-space:pre;display:inline;fill:#fff;stroke:none;stroke-width:.352778;stroke-dasharray:none" transform="translate(-568.5 -97.34)"><tspan style="fill:#fff;stroke:none;stroke-width:.352778;stroke-dasharray:none">Combat Technique</tspan></text><path d="M763.668 236.585v68.444l1.86 1.86h74.163l1.859-1.86v-68.444zm-79.466 0v68.444l1.86 1.86h74.163l1.859-1.86v-68.444z" style="font-variation-settings:normal;vector-effect:none;fill:none;fill-opacity:1;stroke:#000;stroke-width:.352777;stroke-linecap:butt;stroke-linejoin:miter;stroke-miterlimit:4;stroke-dasharray:none;stroke-dashoffset:0;stroke-opacity:1;-inkscape-stroke:none;stop-color:#000" transform="translate(-568.5 -97.34)"/><path d="m686.062 127.176-1.86 1.86v6.065l26.89-.005-1.855-1.856v-4.204l1.86-1.86zm-1.86 7.925v1.86l1.86-1.86z" style="font-variation-settings:normal;vector-effect:none;fill:#000;fill-opacity:1;stroke:#000;stroke-width:.352777;stroke-linecap:butt;stroke-linejoin:miter;stroke-miterlimit:4;stroke-dasharray:none;stroke-dashoffset:0;stroke-opacity:1;-inkscape-stroke:none;stop-color:#000" transform="translate(-568.5 -97.34)"/><text xml:space="preserve" x="687.528" y="132.656" style="font-style:normal;font-variant:normal;font-weight:700;font-stretch:normal;font-size:4.234px;line-height:1.25;font-family:Arial;-inkscape-font-specification:&quot;Arial Bold&quot;;white-space:pre;display:inline;fill:#fff;stroke:none;stroke-width:1.00013;stroke-dasharray:none" transform="matrix(1.00016 0 0 .99984 -568.5 -97.34)"><tspan style="fill:#fff;stroke-width:1.00013;stroke-dasharray:none">Character</tspan></text><path d="m727.696 135.082 1.86 1.86v2.63l1.86 1.86h28.808l1.86 1.86v-8.21h-32.528z" style="font-variation-settings:normal;vector-effect:none;fill:#000;fill-opacity:1;stroke:#000;stroke-width:.352777;stroke-linecap:butt;stroke-linejoin:miter;stroke-miterlimit:4;stroke-dasharray:none;stroke-dashoffset:0;stroke-opacity:1;-inkscape-stroke:none;stop-color:#000" transform="translate(-568.5 -97.34)"/><text xml:space="preserve" x="731.431" y="139.256" style="font-style:normal;font-variant:normal;font-weight:700;font-stretch:normal;font-size:3.88056px;line-height:1.25;font-family:Arial;-inkscape-font-specification:&quot;Arial Bold&quot;;white-space:pre;display:inline;fill:#fff;fill-opacity:1;stroke:none;stroke-width:.352778;stroke-dasharray:none" transform="translate(-568.5 -97.34)"><tspan style="font-size:3.88056px;stroke-width:.352778;stroke-dasharray:none">Experience</tspan></text><path d="m576.71 127.176-1.86 1.86v7.925l1.86-1.86h104.048l1.86 1.86v-7.925l-1.86-1.86H580.427z" style="font-variation-settings:normal;vector-effect:none;fill:#000;fill-opacity:1;stroke:#000;stroke-width:.352777;stroke-linecap:butt;stroke-linejoin:miter;stroke-miterlimit:4;stroke-dasharray:none;stroke-dashoffset:0;stroke-opacity:1;-inkscape-stroke:none;stop-color:#000" transform="translate(-568.5 -97.34)"/><text xml:space="preserve" x="620.603" y="132.61" style="font-style:normal;font-variant:normal;font-weight:700;font-stretch:normal;font-size:4.23333px;line-height:1.25;font-family:Arial;-inkscape-font-specification:&quot;Arial Bold&quot;;white-space:pre;display:inline;fill:#fff;stroke:none;stroke-width:.352778;stroke-dasharray:none" transform="translate(-568.5 -97.34)"><tspan style="fill:#fff;stroke-width:.352778;stroke-dasharray:none">Abilities</tspan></text><path d="m805.268 127.142-1.86 1.86v2.63l1.86 1.86h14.535l1.86-1.86v-2.63l-1.86-1.86zm19.839 0-1.859 1.86v2.63l1.86 1.86h14.534l1.86-1.86v-2.63l-1.86-1.86z" style="font-variation-settings:normal;vector-effect:none;fill:#000;fill-opacity:1;stroke:#000;stroke-width:.352777;stroke-linecap:butt;stroke-linejoin:miter;stroke-miterlimit:4;stroke-dasharray:none;stroke-dashoffset:0;stroke-opacity:1;-inkscape-stroke:none;stop-color:#000" transform="translate(-568.5 -97.34)"/><text xml:space="preserve" x="814.162" y="133.428" style="font-style:normal;font-variant:normal;font-weight:700;font-stretch:normal;font-size:4.29903px;line-height:1.25;font-family:Arial;-inkscape-font-specification:&quot;Arial Bold&quot;;white-space:pre;display:inline;fill:#fff;stroke:none;stroke-width:.352778;stroke-dasharray:none" transform="matrix(1.01553 0 0 .9847 -568.5 -97.34)"><tspan style="stroke-width:.352778;stroke-dasharray:none">Vigor</tspan></text><text xml:space="preserve" x="793.525" y="133.855" style="font-style:normal;font-variant:normal;font-weight:700;font-stretch:normal;font-size:4.29903px;line-height:1.25;font-family:Arial;-inkscape-font-specification:&quot;Arial Bold&quot;;white-space:pre;display:inline;fill:#fff;stroke:none;stroke-width:.352778;stroke-dasharray:none" transform="matrix(1.01553 0 0 .9847 -568.5 -97.34)"><tspan style="stroke-width:.352778;stroke-dasharray:none">Health</tspan></text><path d="m805.263 166.796-1.86 1.86v2.63l1.855 1.855h26.444l1.86-1.86v-2.63l-1.855-1.855h-25.154z" style="font-variation-settings:normal;fill:#000;fill-opacity:1;stroke:#000;stroke-width:.352778;stroke-linecap:butt;stroke-linejoin:miter;stroke-miterlimit:4;stroke-dasharray:none;stroke-dashoffset:0;stroke-opacity:1;stop-color:#000" transform="translate(-568.5 -97.34)"/><text xml:space="preserve" x="810.901" y="171.459" style="font-style:normal;font-variant:normal;font-weight:700;font-stretch:normal;font-size:4.23334px;line-height:1.25;font-family:Arial;-inkscape-font-specification:&quot;Arial Bold&quot;;white-space:pre;display:inline;fill:#fff;fill-opacity:1;stroke:none;stroke-width:.352778;stroke-dasharray:none" transform="translate(-568.5 -97.34)"><tspan style="font-style:normal;font-variant:normal;font-weight:700;font-stretch:normal;font-family:Arial;-inkscape-font-specification:&quot;Arial Bold&quot;;fill:#fff;stroke-width:.352778;stroke-dasharray:none">Dashes</tspan></text><path fill="none" d="m287.965 159.276-6.133 1.643-4.49-4.49 1.643-6.133 6.134-1.644 4.49 4.49z" style="fill:#fff;fill-opacity:0;stroke:#000;stroke-width:.656592;stroke-dasharray:none" transform="matrix(.55768 -.12941 .14943 .48296 88.575 34.586)"/><path d="m805.263 158.867-1.86 1.86v2.63l1.855 1.854h26.444l1.86-1.86v-2.63l-1.855-1.854h-25.154z" style="font-variation-settings:normal;fill:#000;fill-opacity:1;stroke:#000;stroke-width:.352778;stroke-linecap:butt;stroke-linejoin:miter;stroke-miterlimit:4;stroke-dasharray:none;stroke-dashoffset:0;stroke-opacity:1;stop-color:#000" transform="translate(-568.5 -97.34)"/><text xml:space="preserve" x="815.284" y="163.554" style="font-style:normal;font-variant:normal;font-weight:700;font-stretch:normal;font-size:4.23334px;line-height:1.25;font-family:Arial;-inkscape-font-specification:&quot;Arial Bold&quot;;white-space:pre;display:inline;fill:#fff;fill-opacity:1;stroke:none;stroke-width:.352778;stroke-dasharray:none" transform="translate(-568.5 -97.34)"><tspan style="font-style:normal;font-variant:normal;font-weight:700;font-stretch:normal;font-family:Arial;-inkscape-font-specification:&quot;Arial Bold&quot;;fill:#fff;stroke-width:.352778;stroke-dasharray:none">DR</tspan></text><path d="M838.293 165.232c-2.528-1.574-3.2-4.002-3.175-5.5 2.058-1.076 4.168-1.19 6.35 0 .025 1.498-.648 3.926-3.175 5.5z" style="font-variation-settings:normal;fill:none;fill-opacity:1;stroke:#000;stroke-width:.352778;stroke-linecap:butt;stroke-linejoin:miter;stroke-miterlimit:4;stroke-dasharray:none;stroke-dashoffset:0;stroke-opacity:1;stop-color:#000" transform="translate(-568.5 -97.34)"/><path d="m765.53 127.157-1.859 1.86v2.63l1.86 1.86h34.373l1.86-1.86v-2.63l-1.86-1.86z" style="font-variation-settings:normal;vector-effect:none;fill:#000;fill-opacity:1;stroke:#000;stroke-width:.352777;stroke-linecap:butt;stroke-linejoin:miter;stroke-miterlimit:4;stroke-dasharray:none;stroke-dashoffset:0;stroke-opacity:1;-inkscape-stroke:none;stop-color:#000" transform="translate(-568.5 -97.34)"/><text xml:space="preserve" x="765.155" y="133.895" style="font-style:normal;font-variant:normal;font-weight:700;font-stretch:normal;font-size:4.29903px;line-height:1.25;font-family:Arial;-inkscape-font-specification:&quot;Arial Bold&quot;;white-space:pre;display:inline;fill:#fff;stroke:none;stroke-width:.352778;stroke-dasharray:none" transform="matrix(1.01553 0 0 .9847 -568.5 -97.34)"><tspan style="stroke-width:.352778;stroke-dasharray:none">Skills</tspan></text><text xml:space="preserve" x="770.836" y="139.74" style="font-style:normal;font-variant:normal;font-weight:400;font-stretch:normal;font-size:4.23333px;line-height:1.25;font-family:Arial;-inkscape-font-specification:Arial;white-space:pre;display:inline;fill:#000;fill-opacity:1;stroke:none;stroke-width:.352778;stroke-dasharray:none" transform="translate(-568.5 -97.34)"><tspan style="stroke-width:.352778;stroke-dasharray:none">Athletics</tspan></text><path d="m765.531 135.077-1.86 1.86v2.63l1.855 1.855h26.444l1.86-1.86v-2.63l-1.855-1.855H766.82z" style="font-variation-settings:normal;fill:none;fill-opacity:1;stroke:#000;stroke-width:.352778;stroke-linecap:butt;stroke-linejoin:miter;stroke-miterlimit:4;stroke-dasharray:none;stroke-dashoffset:0;stroke-opacity:1;stop-color:#000" transform="translate(-568.5 -97.34)"/><text xml:space="preserve" x="769.909" y="147.695" style="font-style:normal;font-variant:normal;font-weight:400;font-stretch:normal;font-size:4.23333px;line-height:1.25;font-family:Arial;-inkscape-font-specification:Arial;white-space:pre;display:inline;fill:#000;fill-opacity:1;stroke:none;stroke-width:.352778;stroke-dasharray:none" transform="translate(-568.5 -97.34)"><tspan style="stroke-width:.352778;stroke-dasharray:none">Convince</tspan></text><path d="m765.531 143.007-1.86 1.86v2.63l1.855 1.855h26.444l1.86-1.86v-2.63l-1.855-1.855H766.82z" style="font-variation-settings:normal;fill:none;fill-opacity:1;stroke:#000;stroke-width:.352778;stroke-linecap:butt;stroke-linejoin:miter;stroke-miterlimit:4;stroke-dasharray:none;stroke-dashoffset:0;stroke-opacity:1;stop-color:#000" transform="translate(-568.5 -97.34)"/><text xml:space="preserve" x="772.426" y="155.624" style="font-style:normal;font-variant:normal;font-weight:400;font-stretch:normal;font-size:4.23333px;line-height:1.25;font-family:Arial;-inkscape-font-specification:Arial;white-space:pre;display:inline;fill:#000;fill-opacity:1;stroke:none;stroke-width:.352778;stroke-dasharray:none" transform="translate(-568.5 -97.34)"><tspan style="stroke-width:.352778;stroke-dasharray:none">Covert</tspan></text><path d="m765.531 150.937-1.86 1.86v2.63l1.855 1.855h26.444l1.86-1.86v-2.63l-1.855-1.855H766.82z" style="font-variation-settings:normal;fill:none;fill-opacity:1;stroke:#000;stroke-width:.352778;stroke-linecap:butt;stroke-linejoin:miter;stroke-miterlimit:4;stroke-dasharray:none;stroke-dashoffset:0;stroke-opacity:1;stop-color:#000" transform="translate(-568.5 -97.34)"/><text xml:space="preserve" x="771.253" y="163.529" style="font-style:normal;font-variant:normal;font-weight:400;font-stretch:normal;font-size:4.23333px;line-height:1.25;font-family:Arial;-inkscape-font-specification:Arial;white-space:pre;display:inline;fill:#000;fill-opacity:1;stroke:none;stroke-width:.352778;stroke-dasharray:none" transform="translate(-568.5 -97.34)"><tspan style="stroke-width:.352778;stroke-dasharray:none">Finesse</tspan></text><path d="m765.531 158.867-1.86 1.86v2.63l1.855 1.854h26.444l1.86-1.86v-2.63l-1.855-1.854H766.82z" style="font-variation-settings:normal;fill:none;fill-opacity:1;stroke:#000;stroke-width:.352778;stroke-linecap:butt;stroke-linejoin:miter;stroke-miterlimit:4;stroke-dasharray:none;stroke-dashoffset:0;stroke-opacity:1;stop-color:#000" transform="translate(-568.5 -97.34)"/><text xml:space="preserve" x="772.332" y="171.039" style="font-style:normal;font-variant:normal;font-weight:400;font-stretch:normal;font-size:4.23333px;line-height:1.25;font-family:Arial;-inkscape-font-specification:Arial;white-space:pre;display:inline;fill:#000;fill-opacity:1;stroke:none;stroke-width:.352778;stroke-dasharray:none" transform="translate(-568.5 -97.34)"><tspan style="stroke-width:.352778;stroke-dasharray:none">Insight</tspan></text><path d="m765.531 166.796-1.86 1.86v2.63l1.855 1.855h26.444l1.86-1.86v-2.63l-1.855-1.855H766.82z" style="font-variation-settings:normal;fill:none;fill-opacity:1;stroke:#000;stroke-width:.352778;stroke-linecap:butt;stroke-linejoin:miter;stroke-miterlimit:4;stroke-dasharray:none;stroke-dashoffset:0;stroke-opacity:1;stop-color:#000" transform="translate(-568.5 -97.34)"/><text xml:space="preserve" x="769.464" y="179.389" style="font-style:normal;font-variant:normal;font-weight:400;font-stretch:normal;font-size:4.23333px;line-height:1.25;font-family:Arial;-inkscape-font-specification:Arial;white-space:pre;display:inline;fill:#000;fill-opacity:1;stroke:none;stroke-width:.352778;stroke-dasharray:none" transform="translate(-568.5 -97.34)"><tspan style="stroke-width:.352778;stroke-dasharray:none">Intimidate</tspan></text><path d="m765.531 174.726-1.86 1.86v2.63l1.855 1.855h26.444l1.86-1.86v-2.63l-1.855-1.855H766.82z" style="font-variation-settings:normal;fill:none;fill-opacity:1;stroke:#000;stroke-width:.352778;stroke-linecap:butt;stroke-linejoin:miter;stroke-miterlimit:4;stroke-dasharray:none;stroke-dashoffset:0;stroke-opacity:1;stop-color:#000" transform="translate(-568.5 -97.34)"/><text xml:space="preserve" x="770.21" y="187.319" style="font-style:normal;font-variant:normal;font-weight:400;font-stretch:normal;font-size:4.23333px;line-height:1.25;font-family:Arial;-inkscape-font-specification:Arial;white-space:pre;display:inline;fill:#000;fill-opacity:1;stroke:none;stroke-width:.352778;stroke-dasharray:none" transform="translate(-568.5 -97.34)"><tspan style="stroke-width:.352778;stroke-dasharray:none">Medicine</tspan></text><path d="m765.531 182.656-1.86 1.86v2.63l1.855 1.855h26.444l1.86-1.86v-2.63l-1.855-1.855H766.82z" style="font-variation-settings:normal;fill:none;fill-opacity:1;stroke:#000;stroke-width:.352778;stroke-linecap:butt;stroke-linejoin:miter;stroke-miterlimit:4;stroke-dasharray:none;stroke-dashoffset:0;stroke-opacity:1;stop-color:#000" transform="translate(-568.5 -97.34)"/><text xml:space="preserve" x="767.447" y="195.249" style="font-style:normal;font-variant:normal;font-weight:400;font-stretch:normal;font-size:4.23333px;line-height:1.25;font-family:Arial;-inkscape-font-specification:Arial;white-space:pre;display:inline;fill:#000;fill-opacity:1;stroke:none;stroke-width:.352778;stroke-dasharray:none" transform="translate(-568.5 -97.34)"><tspan style="stroke-width:.352778;stroke-dasharray:none">Misdirection</tspan></text><path d="m765.531 190.586-1.86 1.86v2.63l1.855 1.855h26.444l1.86-1.86v-2.63l-1.855-1.855H766.82z" style="font-variation-settings:normal;fill:none;fill-opacity:1;stroke:#000;stroke-width:.352778;stroke-linecap:butt;stroke-linejoin:miter;stroke-miterlimit:4;stroke-dasharray:none;stroke-dashoffset:0;stroke-opacity:1;stop-color:#000" transform="translate(-568.5 -97.34)"/><text xml:space="preserve" x="768.613" y="202.783" style="font-style:normal;font-variant:normal;font-weight:400;font-stretch:normal;font-size:4.23333px;line-height:1.25;font-family:Arial;-inkscape-font-specification:Arial;white-space:pre;display:inline;fill:#000;fill-opacity:1;stroke:none;stroke-width:.352778;stroke-dasharray:none" transform="translate(-568.5 -97.34)"><tspan style="stroke-width:.352778;stroke-dasharray:none">Perception</tspan></text><path d="m765.531 198.516-1.86 1.86v2.63l1.855 1.854h26.444l1.86-1.86v-2.63l-1.855-1.854H766.82z" style="font-variation-settings:normal;fill:none;fill-opacity:1;stroke:#000;stroke-width:.352778;stroke-linecap:butt;stroke-linejoin:miter;stroke-miterlimit:4;stroke-dasharray:none;stroke-dashoffset:0;stroke-opacity:1;stop-color:#000" transform="translate(-568.5 -97.34)"/><text xml:space="preserve" x="769.669" y="211.108" style="font-style:normal;font-variant:normal;font-weight:400;font-stretch:normal;font-size:4.23333px;line-height:1.25;font-family:Arial;-inkscape-font-specification:Arial;white-space:pre;display:inline;fill:#000;fill-opacity:1;stroke:none;stroke-width:.352778;stroke-dasharray:none" transform="translate(-568.5 -97.34)"><tspan style="stroke-width:.352778;stroke-dasharray:none">Research</tspan></text><path d="m765.531 206.445-1.86 1.86v2.63l1.855 1.855h26.444l1.86-1.86v-2.63l-1.855-1.855H766.82z" style="font-variation-settings:normal;fill:none;fill-opacity:1;stroke:#000;stroke-width:.352778;stroke-linecap:butt;stroke-linejoin:miter;stroke-miterlimit:4;stroke-dasharray:none;stroke-dashoffset:0;stroke-opacity:1;stop-color:#000" transform="translate(-568.5 -97.34)"/><text xml:space="preserve" x="771.276" y="219.063" style="font-style:normal;font-variant:normal;font-weight:400;font-stretch:normal;font-size:4.23333px;line-height:1.25;font-family:Arial;-inkscape-font-specification:Arial;white-space:pre;display:inline;fill:#000;fill-opacity:1;stroke:none;stroke-width:.352778;stroke-dasharray:none" transform="translate(-568.5 -97.34)"><tspan style="stroke-width:.352778;stroke-dasharray:none">Survival</tspan></text><path d="m765.531 214.375-1.86 1.86v2.63l1.855 1.855h26.444l1.86-1.86v-2.63l-1.855-1.855H766.82z" style="font-variation-settings:normal;fill:none;fill-opacity:1;stroke:#000;stroke-width:.352778;stroke-linecap:butt;stroke-linejoin:miter;stroke-miterlimit:4;stroke-dasharray:none;stroke-dashoffset:0;stroke-opacity:1;stop-color:#000" transform="translate(-568.5 -97.34)"/><text xml:space="preserve" x="765.566" y="226.488" style="font-style:normal;font-variant:normal;font-weight:400;font-stretch:normal;font-size:2.82222px;line-height:1.25;font-family:Arial;-inkscape-font-specification:Arial;white-space:pre;display:inline;fill:#000;fill-opacity:1;stroke:none;stroke-width:.352778;stroke-dasharray:none" transform="translate(-568.5 -97.34)"><tspan style="font-size:2.82222px;stroke-width:.352778;stroke-dasharray:none">SP:</tspan></text><path d="m765.531 222.305-1.86 1.86v2.63l1.855 1.855h26.444l1.86-1.86v-2.63l-1.855-1.855H766.82z" style="font-variation-settings:normal;fill:none;fill-opacity:1;stroke:#000;stroke-width:.352778;stroke-linecap:butt;stroke-linejoin:miter;stroke-miterlimit:4;stroke-dasharray:none;stroke-dashoffset:0;stroke-opacity:1;stop-color:#000" transform="translate(-568.5 -97.34)"/><path d="M839.88 150.942h-3.176l-1.587 1.588v3.175l3.175 1.587 3.175-1.587v-3.175z" style="font-variation-settings:normal;vector-effect:none;fill:none;fill-opacity:1;stroke:#000;stroke-width:.352777;stroke-linecap:butt;stroke-linejoin:miter;stroke-miterlimit:4;stroke-dasharray:none;stroke-dashoffset:0;stroke-opacity:1;-inkscape-stroke:none;stop-color:#000" transform="translate(-568.5 -97.34)"/><path d="m805.268 150.937-1.86 1.86v2.63l1.855 1.855h26.444l1.86-1.86v-2.63l-1.855-1.855h-25.154z" style="font-variation-settings:normal;fill:#000;fill-opacity:1;stroke:#000;stroke-width:.352778;stroke-linecap:butt;stroke-linejoin:miter;stroke-miterlimit:4;stroke-dasharray:none;stroke-dashoffset:0;stroke-opacity:1;stop-color:#000" transform="translate(-568.5 -97.34)"/><path d="m686.062 230.235-1.86 1.86v6.35l1.86-1.86 25.03-.005-1.855-1.855v-2.63l1.86-1.86z" style="font-variation-settings:normal;vector-effect:none;fill:#000;fill-opacity:1;stroke:#000;stroke-width:.352777;stroke-linecap:butt;stroke-linejoin:miter;stroke-miterlimit:4;stroke-dasharray:none;stroke-dashoffset:0;stroke-opacity:1;-inkscape-stroke:none;stop-color:#000" transform="translate(-568.5 -97.34)"/><text xml:space="preserve" x="687.382" y="234.48" style="font-style:normal;font-variant:normal;font-weight:700;font-stretch:normal;font-size:4.23333px;line-height:1.25;font-family:Arial;-inkscape-font-specification:&quot;Arial Bold&quot;;white-space:pre;display:inline;fill:#fff;stroke:none;stroke-width:.352778;stroke-dasharray:none" transform="translate(-568.5 -97.34)"><tspan style="fill:#fff;stroke:none;stroke-width:.352778;stroke-dasharray:none">Archetype</tspan></text><path d="m711.096 230.235-1.86 1.86v2.63l1.855 1.855h32.839l3.15.005v-.005h11.854l3.15.005v-4.495l-1.855-1.855h-47.843zm.001-103.078-1.86 1.86v4.205l1.855 1.855h32.839l3.149.005v-.005h11.855l3.149.005v-6.07l-1.855-1.855h-47.843z" style="font-variation-settings:normal;fill:#fff;fill-opacity:1;stroke:#000;stroke-width:.352778;stroke-linecap:butt;stroke-linejoin:miter;stroke-miterlimit:4;stroke-dasharray:none;stroke-dashoffset:0;stroke-opacity:1;stop-color:#000" transform="translate(-568.5 -97.34)"/><path d="m758.5 135.49-.81.81h-1.147v1.146l-.811.811.81.81v1.147h1.148l.81.81.811-.81h1.147v-1.146l.811-.81-.81-.811V136.3h-1.147z" style="font-variation-settings:normal;fill:#fff;fill-opacity:1;stroke:none;stroke-width:.352778;stroke-linecap:butt;stroke-linejoin:miter;stroke-miterlimit:4;stroke-dasharray:none;stroke-dashoffset:0;stroke-opacity:1;stop-color:#000" transform="translate(-568.5 -97.34)"/><text xml:space="preserve" x="812.11" y="155.6" style="font-style:normal;font-variant:normal;font-weight:700;font-stretch:normal;font-size:4.23333px;line-height:1.25;font-family:Arial;-inkscape-font-specification:&quot;Arial Bold&quot;;white-space:pre;display:inline;fill:#fff;fill-opacity:1;stroke:none;stroke-width:.352778;stroke-dasharray:none" transform="translate(-568.5 -97.34)"><tspan style="fill:#fff;stroke-width:.352778;stroke-dasharray:none">Armor</tspan></text><path d="m805.263 174.726-1.86 1.86v4.49h.001v1.86l1.86-1.86-.01-.005h34.441l1.86 1.86v-6.35l-1.855-1.855h-27.122z" style="font-variation-settings:normal;vector-effect:none;fill:#000;fill-opacity:1;stroke:#000;stroke-width:.264583;stroke-linecap:butt;stroke-linejoin:miter;stroke-miterlimit:4;stroke-dasharray:none;stroke-dashoffset:0;stroke-opacity:1;-inkscape-stroke:none;stop-color:#000" transform="translate(-568.5 -97.34)"/><text xml:space="preserve" x="808.84" y="179.007" style="font-style:normal;font-variant:normal;font-weight:700;font-stretch:normal;font-size:4.23333px;line-height:1.25;font-family:Arial;-inkscape-font-specification:&quot;Arial Bold&quot;;white-space:pre;display:inline;fill:#fff;fill-opacity:1;stroke:none;stroke-width:.352778;stroke-dasharray:none" transform="translate(-568.5 -97.34)"><tspan style="stroke-width:.352778;stroke-dasharray:none">Inventory</tspan></text><path d="m833.561 181.107-30.157.005v45.76l1.922 1.778H839.7l1.86-1.86v-45.684h-6.414z" style="font-variation-settings:normal;vector-effect:none;fill:none;fill-opacity:1;stroke:#000;stroke-width:.264583;stroke-linecap:butt;stroke-linejoin:miter;stroke-miterlimit:4;stroke-dasharray:none;stroke-dashoffset:0;stroke-opacity:1;-inkscape-stroke:none;stop-color:#000" transform="translate(-568.5 -97.34)"/><path d="m837.145 175.168-.599 1.023-1.023.599v2.294l1.023.599.6 1.022h2.293l.599-1.022 1.023-.6v-2.293l-1.023-.6-.6-1.022h-1.146z" style="font-variation-settings:normal;fill:#fff;fill-opacity:1;stroke:#000;stroke-width:.352778;stroke-linecap:butt;stroke-linejoin:miter;stroke-miterlimit:4;stroke-dasharray:none;stroke-dashoffset:0;stroke-opacity:1;stop-color:#000" transform="translate(-568.5 -97.34)"/><text xml:space="preserve" x="766.038" y="247.597" style="font-style:normal;font-variant:normal;font-weight:400;font-stretch:normal;font-size:4.23333px;line-height:1.25;font-family:Arial;-inkscape-font-specification:Arial;white-space:pre;display:inline;fill:#000;fill-opacity:1;stroke:none;stroke-width:.352778;stroke-dasharray:none" transform="translate(-568.5 -97.34)"><tspan style="stroke-width:.352778;stroke-dasharray:none">Attribute: </tspan></text><text xml:space="preserve" x="810.597" y="247.404" style="font-style:normal;font-variant:normal;font-weight:400;font-stretch:normal;font-size:4.23333px;line-height:1.25;font-family:Arial;-inkscape-font-specification:Arial;white-space:pre;display:inline;fill:#000;fill-opacity:1;stroke:none;stroke-width:.352778;stroke-dasharray:none" transform="translate(-568.5 -97.34)"><tspan style="stroke-width:.352778;stroke-dasharray:none">Damage: </tspan></text><text xml:space="preserve" x="-196.118" y="-238.005" style="font-style:normal;font-variant:normal;font-weight:400;font-stretch:normal;font-size:4.23333px;line-height:1.25;font-family:Arial;-inkscape-font-specification:Arial;white-space:pre;display:inline;fill:#000;fill-opacity:1;stroke:none;stroke-width:.352778;stroke-dasharray:none" transform="translate(313.071 280.638)"><tspan style="stroke-width:.352778;stroke-dasharray:none">Bio: </tspan></text><text xml:space="preserve" x="-197.388" y="-238.005" style="font-style:normal;font-variant:normal;font-weight:400;font-stretch:normal;font-size:4.23333px;line-height:1.25;font-family:Arial;-inkscape-font-specification:Arial;white-space:pre;display:inline;fill:#000;fill-opacity:1;stroke:none;stroke-width:.352778;stroke-dasharray:none" transform="translate(314.341 310.18)"><tspan style="stroke-width:.352778;stroke-dasharray:none">Beliefs:</tspan></text><text xml:space="preserve" x="-197.388" y="-238.005" style="font-style:normal;font-variant:normal;font-weight:400;font-stretch:normal;font-size:4.23333px;line-height:1.25;font-family:Arial;-inkscape-font-specification:Arial;white-space:pre;display:inline;fill:#000;fill-opacity:1;stroke:none;stroke-width:.352778;stroke-dasharray:none" transform="translate(314.341 339.722)"><tspan style="stroke-width:.352778;stroke-dasharray:none">Goals:</tspan></text><path d="M804.983 189.793h34.976m-34.973 7.93h34.97m-34.968 7.93h34.966m-34.961 7.93h34.957m-34.957 7.93h34.957" style="font-variation-settings:normal;vector-effect:none;fill:none;fill-opacity:1;stroke:#000;stroke-width:.264583;stroke-linecap:butt;stroke-linejoin:miter;stroke-miterlimit:4;stroke-dasharray:1.05833,.264583;stroke-dashoffset:0;stroke-opacity:.25;-inkscape-stroke:none;stop-color:#000" transform="translate(-568.5 -97.34)"/><text xml:space="preserve" x="766.038" y="253.958" style="font-style:normal;font-variant:normal;font-weight:400;font-stretch:normal;font-size:4.23333px;line-height:1.25;font-family:Arial;-inkscape-font-specification:Arial;white-space:pre;display:inline;fill:#000;fill-opacity:1;stroke:none;stroke-width:.352778;stroke-dasharray:none" transform="translate(-568.5 -97.34)"><tspan style="stroke-width:.352778;stroke-dasharray:none">Armament &amp; Role: </tspan></text><text xml:space="preserve" x="765.933" y="260.287" style="font-style:normal;font-variant:normal;font-weight:400;font-stretch:normal;font-size:4.23333px;line-height:1.25;font-family:Arial;-inkscape-font-specification:Arial;white-space:pre;display:inline;fill:#000;fill-opacity:1;stroke:none;stroke-width:.352778;stroke-dasharray:none" transform="translate(-568.5 -97.34)"><tspan style="stroke-width:.352778;stroke-dasharray:none">Traits:</tspan></text><path d="m592.084 125.559 1.335-1.335h4.67l1.334 1.334 3.303-3.302-1.335-1.335v-4.67l1.335-1.335-3.303-3.302-1.334 1.335h-4.67l-1.335-1.335-3.302 3.302 1.334 1.335v4.67l-1.335 1.335z" style="font-variation-settings:normal;vector-effect:none;fill:none;fill-opacity:1;stroke:#000;stroke-width:.352778;stroke-linecap:butt;stroke-linejoin:miter;stroke-miterlimit:4;stroke-dasharray:none;stroke-dashoffset:0;stroke-opacity:1;-inkscape-stroke:none;stop-color:#000" transform="translate(-568.5 -97.34)"/><path d="m621.688 103.657-1.86 1.86v2.63l1.854 1.855h38.094l1.86-1.86v-2.63l-1.855-1.855h-36.804z" style="font-variation-settings:normal;fill:#000;fill-opacity:1;stroke:#000;stroke-width:.352778;stroke-linecap:butt;stroke-linejoin:miter;stroke-miterlimit:4;stroke-dasharray:none;stroke-dashoffset:0;stroke-opacity:1;stop-color:#000" transform="translate(-568.5 -97.34)"/><text xml:space="preserve" x="630.665" y="107.927" style="font-style:normal;font-variant:normal;font-weight:700;font-stretch:normal;font-size:4.23333px;line-height:1.25;font-family:Arial;-inkscape-font-specification:&quot;Arial Bold&quot;;white-space:pre;display:inline;fill:#fff;fill-opacity:1;stroke:none;stroke-width:.352778;stroke-dasharray:none" transform="translate(-568.5 -97.34)"><tspan style="stroke-width:.352778;stroke-dasharray:none">Discipline</tspan></text><path d="m666.666 103.69-1.86 1.859v2.63l1.855 1.855h38.094l1.86-1.86v-2.63l-1.855-1.855h-36.804z" style="font-variation-settings:normal;fill:#000;fill-opacity:1;stroke:#000;stroke-width:.352778;stroke-linecap:butt;stroke-linejoin:miter;stroke-miterlimit:4;stroke-dasharray:none;stroke-dashoffset:0;stroke-opacity:1;stop-color:#000" transform="translate(-568.5 -97.34)"/><text xml:space="preserve" x="675.168" y="108.352" style="font-style:normal;font-variant:normal;font-weight:700;font-stretch:normal;font-size:4.23333px;line-height:1.25;font-family:Arial;-inkscape-font-specification:&quot;Arial Bold&quot;;white-space:pre;display:inline;fill:#fff;fill-opacity:1;stroke:none;stroke-width:.352778;stroke-dasharray:none" transform="translate(-568.5 -97.34)"><tspan style="stroke-width:.352778;stroke-dasharray:none">Resilience</tspan></text><path d="m711.644 103.69-1.86 1.859v2.63l1.855 1.855h38.094l1.86-1.86v-2.63l-1.855-1.855h-36.804z" style="font-variation-settings:normal;fill:#000;fill-opacity:1;stroke:#000;stroke-width:.352778;stroke-linecap:butt;stroke-linejoin:miter;stroke-miterlimit:4;stroke-dasharray:none;stroke-dashoffset:0;stroke-opacity:1;stop-color:#000" transform="translate(-568.5 -97.34)"/><text xml:space="preserve" x="721.089" y="108.352" style="font-style:normal;font-variant:normal;font-weight:700;font-stretch:normal;font-size:4.23333px;line-height:1.25;font-family:Arial;-inkscape-font-specification:&quot;Arial Bold&quot;;white-space:pre;display:inline;fill:#fff;fill-opacity:1;stroke:none;stroke-width:.352778;stroke-dasharray:none" transform="translate(-568.5 -97.34)"><tspan style="stroke-width:.352778;stroke-dasharray:none">Brilliance</tspan></text><path d="m756.622 103.69-1.86 1.859v2.63l1.855 1.855h38.094l1.86-1.86v-2.63l-1.855-1.855h-36.804z" style="font-variation-settings:normal;fill:#000;fill-opacity:1;stroke:#000;stroke-width:.352778;stroke-linecap:butt;stroke-linejoin:miter;stroke-miterlimit:4;stroke-dasharray:none;stroke-dashoffset:0;stroke-opacity:1;stop-color:#000" transform="translate(-568.5 -97.34)"/><text xml:space="preserve" x="764.372" y="108.377" style="font-style:normal;font-variant:normal;font-weight:700;font-stretch:normal;font-size:4.23333px;line-height:1.25;font-family:Arial;-inkscape-font-specification:&quot;Arial Bold&quot;;white-space:pre;display:inline;fill:#fff;fill-opacity:1;stroke:none;stroke-width:.352778;stroke-dasharray:none" transform="translate(-568.5 -97.34)"><tspan style="stroke-width:.352778;stroke-dasharray:none">Cleverness</tspan></text><path d="m801.6 103.69-1.86 1.859v2.63l1.855 1.855h38.094l1.86-1.86v-2.63l-1.855-1.855H802.89z" style="font-variation-settings:normal;fill:#000;fill-opacity:1;stroke:#000;stroke-width:.352778;stroke-linecap:butt;stroke-linejoin:miter;stroke-miterlimit:4;stroke-dasharray:none;stroke-dashoffset:0;stroke-opacity:1;stop-color:#000" transform="translate(-568.5 -97.34)"/><text xml:space="preserve" x="811.161" y="108.352" style="font-style:normal;font-variant:normal;font-weight:700;font-stretch:normal;font-size:4.23333px;line-height:1.25;font-family:Arial;-inkscape-font-specification:&quot;Arial Bold&quot;;white-space:pre;display:inline;fill:#fff;fill-opacity:1;stroke:none;stroke-width:.352778;stroke-dasharray:none" transform="translate(-568.5 -97.34)"><tspan style="stroke-width:.352778;stroke-dasharray:none">Presence</tspan></text><path d="m637.062 125.559 1.335-1.335h4.67l1.335 1.334 3.302-3.302-1.335-1.335v-4.67l1.335-1.335-3.302-3.302-1.335 1.335h-4.67l-1.335-1.335-3.302 3.302 1.334 1.335v4.67l-1.334 1.335zm44.978 0 1.335-1.335h4.67l1.335 1.334 3.302-3.302-1.334-1.335v-4.67l1.334-1.335-3.302-3.302-1.335 1.335h-4.67l-1.335-1.335-3.302 3.302 1.335 1.335v4.67l-1.335 1.335zm44.978 0 1.335-1.335h4.67l1.335 1.334 3.302-3.302-1.334-1.335v-4.67l1.335-1.335-3.303-3.302-1.335 1.335h-4.67l-1.335-1.335-3.302 3.302 1.335 1.335v4.67l-1.335 1.335zm44.979 0 1.334-1.335h4.67l1.335 1.334 3.303-3.302-1.335-1.335v-4.67l1.335-1.335-3.303-3.302-1.334 1.335h-4.67l-1.335-1.335-3.303 3.302 1.335 1.335v4.67l-1.335 1.335zm44.978 0 1.335-1.335h4.67l1.334 1.334 3.303-3.302-1.335-1.335v-4.67l1.335-1.335-3.303-3.302-1.334 1.335h-4.67l-1.335-1.335-3.302 3.302 1.334 1.335v4.67l-1.335 1.335z" style="font-variation-settings:normal;vector-effect:none;fill:none;fill-opacity:1;stroke:#000;stroke-width:.352778;stroke-linecap:butt;stroke-linejoin:miter;stroke-miterlimit:4;stroke-dasharray:none;stroke-dashoffset:0;stroke-opacity:1;-inkscape-stroke:none;stop-color:#000" transform="translate(-568.5 -97.34)"/><path d="m-116.035-232.275-1.232 1.232-1.232-1.232 1.232-1.232zm1.943-1.943-1.232 1.232-1.232-1.232 1.232-1.232zm1.943 1.943-1.232 1.232-1.232-1.232 1.232-1.232z" style="font-variation-settings:normal;vector-effect:none;fill:none;fill-opacity:1;stroke:#000;stroke-width:.264583;stroke-linecap:butt;stroke-linejoin:miter;stroke-miterlimit:4;stroke-dasharray:none;stroke-dashoffset:0;stroke-opacity:1;-inkscape-stroke:none;stop-color:#000" transform="translate(345.473 274.154)"/><path d="m-116.035-232.275-1.232 1.232-1.232-1.232 1.232-1.232zm1.943-1.943-1.232 1.232-1.232-1.232 1.232-1.232zm1.943 1.943-1.232 1.232-1.232-1.232 1.232-1.232z" style="font-variation-settings:normal;vector-effect:none;fill:none;fill-opacity:1;stroke:#000;stroke-width:.264583;stroke-linecap:butt;stroke-linejoin:miter;stroke-miterlimit:4;stroke-dasharray:none;stroke-dashoffset:0;stroke-opacity:1;-inkscape-stroke:none;stop-color:#000" transform="translate(345.473 282.084)"/><path d="m-116.035-232.275-1.232 1.232-1.232-1.232 1.232-1.232zm1.943-1.943-1.232 1.232-1.232-1.232 1.232-1.232zm1.943 1.943-1.232 1.232-1.232-1.232 1.232-1.232z" style="font-variation-settings:normal;vector-effect:none;fill:none;fill-opacity:1;stroke:#000;stroke-width:.264583;stroke-linecap:butt;stroke-linejoin:miter;stroke-miterlimit:4;stroke-dasharray:none;stroke-dashoffset:0;stroke-opacity:1;-inkscape-stroke:none;stop-color:#000" transform="translate(345.473 290.014)"/><path d="m-116.035-232.275-1.232 1.232-1.232-1.232 1.232-1.232zm1.943-1.943-1.232 1.232-1.232-1.232 1.232-1.232zm1.943 1.943-1.232 1.232-1.232-1.232 1.232-1.232z" style="font-variation-settings:normal;vector-effect:none;fill:none;fill-opacity:1;stroke:#000;stroke-width:.264583;stroke-linecap:butt;stroke-linejoin:miter;stroke-miterlimit:4;stroke-dasharray:none;stroke-dashoffset:0;stroke-opacity:1;-inkscape-stroke:none;stop-color:#000" transform="translate(345.473 297.949)"/><path d="m-116.035-232.275-1.232 1.232-1.232-1.232 1.232-1.232zm1.943-1.943-1.232 1.232-1.232-1.232 1.232-1.232zm1.943 1.943-1.232 1.232-1.232-1.232 1.232-1.232z" style="font-variation-settings:normal;vector-effect:none;fill:none;fill-opacity:1;stroke:#000;stroke-width:.264583;stroke-linecap:butt;stroke-linejoin:miter;stroke-miterlimit:4;stroke-dasharray:none;stroke-dashoffset:0;stroke-opacity:1;-inkscape-stroke:none;stop-color:#000" transform="translate(345.473 305.879)"/><path d="m-116.035-232.275-1.232 1.232-1.232-1.232 1.232-1.232zm1.943-1.943-1.232 1.232-1.232-1.232 1.232-1.232zm1.943 1.943-1.232 1.232-1.232-1.232 1.232-1.232z" style="font-variation-settings:normal;vector-effect:none;fill:none;fill-opacity:1;stroke:#000;stroke-width:.264583;stroke-linecap:butt;stroke-linejoin:miter;stroke-miterlimit:4;stroke-dasharray:none;stroke-dashoffset:0;stroke-opacity:1;-inkscape-stroke:none;stop-color:#000" transform="translate(345.473 313.808)"/><path d="m-116.035-232.275-1.232 1.232-1.232-1.232 1.232-1.232zm1.943-1.943-1.232 1.232-1.232-1.232 1.232-1.232zm1.943 1.943-1.232 1.232-1.232-1.232 1.232-1.232z" style="font-variation-settings:normal;vector-effect:none;fill:none;fill-opacity:1;stroke:#000;stroke-width:.264583;stroke-linecap:butt;stroke-linejoin:miter;stroke-miterlimit:4;stroke-dasharray:none;stroke-dashoffset:0;stroke-opacity:1;-inkscape-stroke:none;stop-color:#000" transform="translate(345.473 321.738)"/><path d="m-116.035-232.275-1.232 1.232-1.232-1.232 1.232-1.232zm1.943-1.943-1.232 1.232-1.232-1.232 1.232-1.232zm1.943 1.943-1.232 1.232-1.232-1.232 1.232-1.232z" style="font-variation-settings:normal;vector-effect:none;fill:none;fill-opacity:1;stroke:#000;stroke-width:.264583;stroke-linecap:butt;stroke-linejoin:miter;stroke-miterlimit:4;stroke-dasharray:none;stroke-dashoffset:0;stroke-opacity:1;-inkscape-stroke:none;stop-color:#000" transform="translate(345.473 329.668)"/><path d="m-116.035-232.275-1.232 1.232-1.232-1.232 1.232-1.232zm1.943-1.943-1.232 1.232-1.232-1.232 1.232-1.232zm1.943 1.943-1.232 1.232-1.232-1.232 1.232-1.232z" style="font-variation-settings:normal;vector-effect:none;fill:none;fill-opacity:1;stroke:#000;stroke-width:.264583;stroke-linecap:butt;stroke-linejoin:miter;stroke-miterlimit:4;stroke-dasharray:none;stroke-dashoffset:0;stroke-opacity:1;-inkscape-stroke:none;stop-color:#000" transform="translate(345.473 337.598)"/><path d="m-116.035-232.275-1.232 1.232-1.232-1.232 1.232-1.232zm1.943-1.943-1.232 1.232-1.232-1.232 1.232-1.232zm1.943 1.943-1.232 1.232-1.232-1.232 1.232-1.232z" style="font-variation-settings:normal;vector-effect:none;fill:none;fill-opacity:1;stroke:#000;stroke-width:.264583;stroke-linecap:butt;stroke-linejoin:miter;stroke-miterlimit:4;stroke-dasharray:none;stroke-dashoffset:0;stroke-opacity:1;-inkscape-stroke:none;stop-color:#000" transform="translate(345.473 345.528)"/><path d="m-116.035-232.275-1.232 1.232-1.232-1.232 1.232-1.232zm1.943-1.943-1.232 1.232-1.232-1.232 1.232-1.232zm1.943 1.943-1.232 1.232-1.232-1.232 1.232-1.232z" style="font-variation-settings:normal;vector-effect:none;fill:none;fill-opacity:1;stroke:#000;stroke-width:.264583;stroke-linecap:butt;stroke-linejoin:miter;stroke-miterlimit:4;stroke-dasharray:none;stroke-dashoffset:0;stroke-opacity:1;-inkscape-stroke:none;stop-color:#000" transform="translate(345.473 353.457)"/><path d="m-116.035-232.275-1.232 1.232-1.232-1.232 1.232-1.232zm1.943-1.943-1.232 1.232-1.232-1.232 1.232-1.232zm1.943 1.943-1.232 1.232-1.232-1.232 1.232-1.232z" style="font-variation-settings:normal;vector-effect:none;fill:none;fill-opacity:1;stroke:#000;stroke-width:.264583;stroke-linecap:butt;stroke-linejoin:miter;stroke-miterlimit:4;stroke-dasharray:none;stroke-dashoffset:0;stroke-opacity:1;-inkscape-stroke:none;stop-color:#000" transform="translate(345.473 361.387)"/><path d="m-106.454-172.43 1.135 1.135h8.96l1.86-1.86-.013-8.98-1.86-1.86h-2.694zm5.657-12.006-1.135-1.135h-8.961l-1.86 1.86.014 8.98 1.86 1.86h2.694z" style="font-variation-settings:normal;opacity:1;vector-effect:none;fill:none;fill-opacity:1;stroke:#000;stroke-width:.264583;stroke-linecap:butt;stroke-linejoin:miter;stroke-miterlimit:4;stroke-dasharray:none;stroke-dashoffset:0;stroke-opacity:1;-inkscape-stroke:none;stop-color:#000;stop-opacity:1" transform="translate(347.662 223.308)"/><path d="m-86.612-172.43 1.134 1.135h8.961l1.86-1.86-.014-8.98-1.86-1.86h-2.694zm5.656-12.006-1.135-1.135h-8.96l-1.86 1.86.013 8.98 1.86 1.86h2.695z" style="font-variation-settings:normal;opacity:1;vector-effect:none;fill:none;fill-opacity:1;stroke:#000;stroke-width:.264583;stroke-linecap:butt;stroke-linejoin:miter;stroke-miterlimit:4;stroke-dasharray:none;stroke-dashoffset:0;stroke-opacity:1;-inkscape-stroke:none;stop-color:#000;stop-opacity:1" transform="translate(347.66 223.308)"/><path d="m765.531 135.077-1.86 1.86v2.63l1.855 1.855h26.444l1.86-1.86v-2.63l-1.855-1.855H766.82z" style="font-variation-settings:normal;fill:none;fill-opacity:1;stroke:#000;stroke-width:.352778;stroke-linecap:butt;stroke-linejoin:miter;stroke-miterlimit:4;stroke-dasharray:none;stroke-dashoffset:0;stroke-opacity:1;stop-color:#000" transform="translate(-568.5 -97.34)"/></svg>