<svg xmlns="http://www.w3.org/2000/svg" xml:space="preserve" width="11in" height="816" viewBox="0 0 279.4 215.9"><defs><path id="a" d="M24 24h336v24H24Z"/></defs><path d="M0-279.4h215.9V0H0Z" style="font-variation-settings:normal;opacity:1;vector-effect:none;fill:#fff;fill-opacity:1;fill-rule:evenodd;stroke:none;stroke-width:.352777;stroke-linecap:butt;stroke-linejoin:miter;stroke-miterlimit:4;stroke-dasharray:none;stroke-dashoffset:0;stroke-opacity:1;-inkscape-stroke:none;stop-color:#000;stop-opacity:1" transform="rotate(90)"/><path d="M444.752 6.252v-4.49l1.86-1.86h172.474l1.86 1.86v4.49zM446.627 61.782l-1.86-1.86v-2.63l1.86-1.86h67.72l1.86 1.86v2.63l-1.86 1.86z" style="font-variation-settings:normal;vector-effect:none;fill:#000;fill-opacity:1;stroke:#000;stroke-width:.352777;stroke-linecap:butt;stroke-linejoin:miter;stroke-miterlimit:4;stroke-dasharray:none;stroke-dashoffset:0;stroke-opacity:1;-inkscape-stroke:none;stop-color:#000" transform="translate(-347.905 6.44)"/><text xml:space="preserve" x="517.063" y="4.147" style="font-style:normal;font-variant:normal;font-weight:700;font-stretch:normal;font-size:4.23333px;line-height:1.25;font-family:Arial;-inkscape-font-specification:&quot;Arial Bold&quot;;white-space:pre;display:inline;fill:#fff;stroke:none;stroke-width:.264583" transform="translate(-347.905 6.44)"><tspan style="stroke-width:.264583">Abilities - Major</tspan></text><path d="m358.965 182.472-1.226 1.226.639.639v2.62l-.64.639 1.227 1.226h23.28l1.227-1.226-.64-.639v-2.62l.64-.639-1.227-1.226h-11.64z" style="font-variation-settings:normal;vector-effect:none;fill:#000;fill-opacity:1;stroke:#000;stroke-width:.352777;stroke-linecap:butt;stroke-linejoin:miter;stroke-miterlimit:4;stroke-dasharray:none;stroke-dashoffset:0;stroke-opacity:1;-inkscape-stroke:none;stop-color:#000" transform="translate(-347.905 6.44)"/><text xml:space="preserve" x="361.04" y="186.717" style="font-style:normal;font-variant:normal;font-weight:700;font-stretch:normal;font-size:4.23333px;line-height:1.25;font-family:Arial;-inkscape-font-specification:&quot;Arial Bold&quot;;white-space:pre;display:inline;fill:#fff;fill-opacity:1;stroke:none;stroke-width:.705556;stroke-dasharray:none" transform="translate(-347.905 6.44)"><tspan style="stroke-width:.705556">Physique </tspan></text><path d="m397.957 182.472-1.226 1.226.639.639v2.62l-.64.639 1.227 1.226h23.28l1.227-1.226-.64-.639v-2.62l.64-.639-1.227-1.226h-11.64zM553.957 182.457l-1.226 1.226.639.639v2.62l-.64.639 1.227 1.226h23.28l1.227-1.226-.64-.639v-2.62l.64-.639-1.227-1.226h-11.64z" style="font-variation-settings:normal;vector-effect:none;fill:#000;fill-opacity:1;stroke:#000;stroke-width:.352777;stroke-linecap:butt;stroke-linejoin:miter;stroke-miterlimit:4;stroke-dasharray:none;stroke-dashoffset:0;stroke-opacity:1;-inkscape-stroke:none;stop-color:#000" transform="translate(-347.905 6.44)"/><text xml:space="preserve" x="399.53" y="186.745" style="font-style:normal;font-variant:normal;font-weight:700;font-stretch:normal;font-size:4.23333px;line-height:1.25;font-family:Arial;-inkscape-font-specification:&quot;Arial Bold&quot;;white-space:pre;display:inline;fill:#fff;fill-opacity:1;stroke:none;stroke-width:.705556;stroke-dasharray:none" transform="translate(-347.905 6.44)"><tspan style="stroke-width:.705556">Discipline</tspan></text><path d="m436.957 182.472-1.226 1.226.639.639v2.62l-.64.639 1.227 1.226h23.28l1.227-1.226-.64-.639v-2.62l.64-.639-1.227-1.226h-11.64z" style="font-variation-settings:normal;vector-effect:none;fill:#000;fill-opacity:1;stroke:#000;stroke-width:.352777;stroke-linecap:butt;stroke-linejoin:miter;stroke-miterlimit:4;stroke-dasharray:none;stroke-dashoffset:0;stroke-opacity:1;-inkscape-stroke:none;stop-color:#000" transform="translate(-347.905 6.44)"/><text xml:space="preserve" x="438.055" y="187.137" style="font-style:normal;font-variant:normal;font-weight:700;font-stretch:normal;font-size:4.23333px;line-height:1.25;font-family:Arial;-inkscape-font-specification:&quot;Arial Bold&quot;;white-space:pre;display:inline;fill:#fff;fill-opacity:1;stroke:none;stroke-width:.705556;stroke-dasharray:none" transform="translate(-347.905 6.44)"><tspan style="stroke-width:.705556">Resilience</tspan></text><path d="m475.957 182.457-1.226 1.226.639.639v2.62l-.64.639 1.227 1.226h23.28l1.227-1.226-.64-.639v-2.62l.64-.639-1.227-1.226h-11.64z" style="font-variation-settings:normal;vector-effect:none;fill:#000;fill-opacity:1;stroke:#000;stroke-width:.352777;stroke-linecap:butt;stroke-linejoin:miter;stroke-miterlimit:4;stroke-dasharray:none;stroke-dashoffset:0;stroke-opacity:1;-inkscape-stroke:none;stop-color:#000" transform="translate(-347.905 6.44)"/><text xml:space="preserve" x="477.997" y="187.122" style="font-style:normal;font-variant:normal;font-weight:700;font-stretch:normal;font-size:4.23333px;line-height:1.25;font-family:Arial;-inkscape-font-specification:&quot;Arial Bold&quot;;white-space:pre;display:inline;fill:#fff;fill-opacity:1;stroke:none;stroke-width:.705556;stroke-dasharray:none" transform="translate(-347.905 6.44)"><tspan style="stroke-width:.705556">Brilliance</tspan></text><path d="m514.957 182.457-1.226 1.226.639.639v2.62l-.64.639 1.227 1.226h23.28l1.227-1.226-.64-.639v-2.62l.64-.639-1.227-1.226h-11.64z" style="font-variation-settings:normal;vector-effect:none;fill:#000;fill-opacity:1;stroke:#000;stroke-width:.352777;stroke-linecap:butt;stroke-linejoin:miter;stroke-miterlimit:4;stroke-dasharray:none;stroke-dashoffset:0;stroke-opacity:1;-inkscape-stroke:none;stop-color:#000" transform="translate(-347.905 6.44)"/><text xml:space="preserve" x="515.303" y="187.147" style="font-style:normal;font-variant:normal;font-weight:700;font-stretch:normal;font-size:4.23333px;line-height:1.25;font-family:Arial;-inkscape-font-specification:&quot;Arial Bold&quot;;white-space:pre;display:inline;fill:#fff;fill-opacity:1;stroke:none;stroke-width:.705556;stroke-dasharray:none" transform="translate(-347.905 6.44)"><tspan style="stroke-width:.705556">Cleverness</tspan></text><text xml:space="preserve" x="556.113" y="187.122" style="font-style:normal;font-variant:normal;font-weight:700;font-stretch:normal;font-size:4.23333px;line-height:1.25;font-family:Arial;-inkscape-font-specification:&quot;Arial Bold&quot;;white-space:pre;display:inline;fill:#fff;fill-opacity:1;stroke:none;stroke-width:.705556;stroke-dasharray:none" transform="translate(-347.905 6.44)"><tspan style="stroke-width:.705556">Presence</tspan></text><path d="M570.146 61.782v-4.49l1.86-1.86h47.08l1.86 1.86v4.49z" style="font-variation-settings:normal;vector-effect:none;fill:#000;fill-opacity:1;stroke:#000;stroke-width:.352777;stroke-linecap:butt;stroke-linejoin:miter;stroke-miterlimit:4;stroke-dasharray:none;stroke-dashoffset:0;stroke-opacity:1;-inkscape-stroke:none;stop-color:#000" transform="translate(-347.905 6.44)"/><text xml:space="preserve" x="460.418" y="59.73" style="font-style:normal;font-variant:normal;font-weight:700;font-stretch:normal;font-size:4.23333px;line-height:1.25;font-family:Arial;-inkscape-font-specification:&quot;Arial Bold&quot;;white-space:pre;display:inline;fill:#fff;stroke:none;stroke-width:.264583" transform="translate(-347.905 6.44)"><tspan style="stroke:none;stroke-width:.264583">Combat Techniques</tspan></text><text xml:space="preserve" x="578.084" y="59.677" style="font-style:normal;font-variant:normal;font-weight:700;font-stretch:normal;font-size:4.23333px;line-height:1.25;font-family:Arial;-inkscape-font-specification:&quot;Arial Bold&quot;;white-space:pre;display:inline;fill:#fff;stroke:none;stroke-width:.264583" transform="translate(-347.905 6.44)"><tspan style="stroke-width:.264583">Hello My Name Is</tspan></text><path d="M354.247 6.252v-4.49l1.86-1.86h85.195l1.86 1.86v4.49z" style="font-variation-settings:normal;vector-effect:none;fill:#000;fill-opacity:1;stroke:#000;stroke-width:.352777;stroke-linecap:butt;stroke-linejoin:miter;stroke-miterlimit:4;stroke-dasharray:none;stroke-dashoffset:0;stroke-opacity:1;-inkscape-stroke:none;stop-color:#000" transform="translate(-347.905 6.44)"/><text xml:space="preserve" style="font-size:16px;line-height:1.25;font-family:Arial;-inkscape-font-specification:Arial;white-space:pre;shape-inside:url(#a);display:inline" transform="translate(28.548 .844) scale(.26458)"><tspan x="24" y="38.412"><tspan style="font-weight:700;-inkscape-font-specification:&quot;Arial Bold&quot;;fill:#fff">Abilities - Minor</tspan></tspan></text><path d="m519.653 84.022-1.86-1.86v-2.63l1.86-1.86h47.08l1.86 1.86v2.63l-1.86 1.86z" style="font-variation-settings:normal;vector-effect:none;fill:#000;fill-opacity:1;stroke:#000;stroke-width:.352777;stroke-linecap:butt;stroke-linejoin:miter;stroke-miterlimit:4;stroke-dasharray:none;stroke-dashoffset:0;stroke-opacity:1;-inkscape-stroke:none;stop-color:#000" transform="translate(-347.905 6.44)"/><text xml:space="preserve" x="528.461" y="83.64" style="font-style:normal;font-variant:normal;font-weight:700;font-stretch:normal;font-size:4.29903px;line-height:1.25;font-family:Arial;-inkscape-font-specification:&quot;Arial Bold&quot;;white-space:pre;display:inline;fill:#fff;stroke:none;stroke-width:.264581" transform="matrix(1.01553 0 0 .9847 -347.905 6.44)"><tspan style="stroke-width:.264581">Skills</tspan></text><text xml:space="preserve" x="531.303" y="90.277" style="font-style:normal;font-variant:normal;font-weight:400;font-stretch:normal;font-size:4.23333px;line-height:1.25;font-family:Arial;-inkscape-font-specification:Arial;white-space:pre;display:inline;fill:#000;fill-opacity:1;stroke:none;stroke-width:.705556;stroke-dasharray:none" transform="translate(-347.905 6.44)"><tspan style="stroke-width:.705556">Athletics</tspan></text><text xml:space="preserve" x="530.376" y="98.242" style="font-style:normal;font-variant:normal;font-weight:400;font-stretch:normal;font-size:4.23333px;line-height:1.25;font-family:Arial;-inkscape-font-specification:Arial;white-space:pre;display:inline;fill:#000;fill-opacity:1;stroke:none;stroke-width:.705556;stroke-dasharray:none" transform="translate(-347.905 6.44)"><tspan style="stroke-width:.705556">Convince</tspan></text><text xml:space="preserve" x="532.893" y="106.182" style="font-style:normal;font-variant:normal;font-weight:400;font-stretch:normal;font-size:4.23333px;line-height:1.25;font-family:Arial;-inkscape-font-specification:Arial;white-space:pre;display:inline;fill:#000;fill-opacity:1;stroke:none;stroke-width:.705556;stroke-dasharray:none" transform="translate(-347.905 6.44)"><tspan style="stroke-width:.705556">Covert</tspan></text><text xml:space="preserve" x="531.72" y="114.097" style="font-style:normal;font-variant:normal;font-weight:400;font-stretch:normal;font-size:4.23333px;line-height:1.25;font-family:Arial;-inkscape-font-specification:Arial;white-space:pre;display:inline;fill:#000;fill-opacity:1;stroke:none;stroke-width:.705556;stroke-dasharray:none" transform="translate(-347.905 6.44)"><tspan style="stroke-width:.705556">Finesse</tspan></text><text xml:space="preserve" x="532.799" y="121.617" style="font-style:normal;font-variant:normal;font-weight:400;font-stretch:normal;font-size:4.23333px;line-height:1.25;font-family:Arial;-inkscape-font-specification:Arial;white-space:pre;display:inline;fill:#000;fill-opacity:1;stroke:none;stroke-width:.705556;stroke-dasharray:none" transform="translate(-347.905 6.44)"><tspan style="stroke-width:.705556">Insight</tspan></text><text xml:space="preserve" x="529.931" y="129.977" style="font-style:normal;font-variant:normal;font-weight:400;font-stretch:normal;font-size:4.23333px;line-height:1.25;font-family:Arial;-inkscape-font-specification:Arial;white-space:pre;display:inline;fill:#000;fill-opacity:1;stroke:none;stroke-width:.705556;stroke-dasharray:none" transform="translate(-347.905 6.44)"><tspan style="stroke-width:.705556">Intimidate</tspan></text><text xml:space="preserve" x="530.677" y="137.917" style="font-style:normal;font-variant:normal;font-weight:400;font-stretch:normal;font-size:4.23333px;line-height:1.25;font-family:Arial;-inkscape-font-specification:Arial;white-space:pre;display:inline;fill:#000;fill-opacity:1;stroke:none;stroke-width:.705556;stroke-dasharray:none" transform="translate(-347.905 6.44)"><tspan style="stroke-width:.705556">Medicine</tspan></text><text xml:space="preserve" x="527.914" y="145.857" style="font-style:normal;font-variant:normal;font-weight:400;font-stretch:normal;font-size:4.23333px;line-height:1.25;font-family:Arial;-inkscape-font-specification:Arial;white-space:pre;display:inline;fill:#000;fill-opacity:1;stroke:none;stroke-width:.705556;stroke-dasharray:none" transform="translate(-347.905 6.44)"><tspan style="stroke-width:.705556">Misdirection</tspan></text><text xml:space="preserve" x="529.081" y="153.402" style="font-style:normal;font-variant:normal;font-weight:400;font-stretch:normal;font-size:4.23333px;line-height:1.25;font-family:Arial;-inkscape-font-specification:Arial;white-space:pre;display:inline;fill:#000;fill-opacity:1;stroke:none;stroke-width:.705556;stroke-dasharray:none" transform="translate(-347.905 6.44)"><tspan style="stroke-width:.705556">Perception</tspan></text><text xml:space="preserve" x="530.136" y="161.737" style="font-style:normal;font-variant:normal;font-weight:400;font-stretch:normal;font-size:4.23333px;line-height:1.25;font-family:Arial;-inkscape-font-specification:Arial;white-space:pre;display:inline;fill:#000;fill-opacity:1;stroke:none;stroke-width:.705556;stroke-dasharray:none" transform="translate(-347.905 6.44)"><tspan style="stroke-width:.705556">Research</tspan></text><text xml:space="preserve" x="531.743" y="169.702" style="font-style:normal;font-variant:normal;font-weight:400;font-stretch:normal;font-size:4.23333px;line-height:1.25;font-family:Arial;-inkscape-font-specification:Arial;white-space:pre;display:inline;fill:#000;fill-opacity:1;stroke:none;stroke-width:.705556;stroke-dasharray:none" transform="translate(-347.905 6.44)"><tspan style="stroke-width:.705556">Survival</tspan></text><text xml:space="preserve" x="519.193" y="177.642" style="font-style:normal;font-variant:normal;font-weight:400;font-stretch:normal;font-size:4.23333px;line-height:1.25;font-family:Arial;-inkscape-font-specification:Arial;white-space:pre;display:inline;fill:#000;fill-opacity:1;stroke:none;stroke-width:.705556;stroke-dasharray:none" transform="translate(-347.905 6.44)"><tspan style="stroke-width:.705556">SP:</tspan></text><path d="m572.032 147.542-1.86-1.86v-2.63l1.86-1.86h31.18l1.86 1.86v2.63l-1.86 1.86zM572.032 99.892l-1.86-1.86v-2.63l1.86-1.86h31.18l1.86 1.86v2.63l-1.86 1.86z" style="font-variation-settings:normal;vector-effect:none;fill:#000;fill-opacity:1;stroke:#000;stroke-width:.352777;stroke-linecap:butt;stroke-linejoin:miter;stroke-miterlimit:4;stroke-dasharray:none;stroke-dashoffset:0;stroke-opacity:1;-inkscape-stroke:none;stop-color:#000" transform="translate(-347.905 6.44)"/><text xml:space="preserve" x="575.164" y="145.463" style="font-style:normal;font-variant:normal;font-weight:700;font-stretch:normal;font-size:4.23333px;line-height:1.25;font-family:Arial;-inkscape-font-specification:&quot;Arial Bold&quot;;white-space:pre;display:inline;fill:#fff;fill-opacity:1;stroke:none;stroke-width:.705556;stroke-dasharray:none" transform="translate(-347.905 6.44)"><tspan style="stroke-width:.705556">Armour | DR</tspan></text><text xml:space="preserve" x="571.331" y="97.812" style="font-style:normal;font-variant:normal;font-weight:700;font-stretch:normal;font-size:4.23333px;line-height:1.25;font-family:Arial;-inkscape-font-specification:&quot;Arial Bold&quot;;white-space:pre;display:inline;fill:#fff;fill-opacity:1;stroke:none;stroke-width:.705556;stroke-dasharray:none" transform="translate(-347.905 6.44)"><tspan style="stroke-width:.705556">Inventory | Gear</tspan></text><path d="m598.199 155.482-1.86-1.86v-2.63l1.86-1.86h12.917l1.86 1.86v2.63l-1.86 1.86zM572.032 155.482l-1.86-1.86v-2.63l1.86-1.86h12.917l1.86 1.86v2.63l-1.86 1.86z" style="font-variation-settings:normal;vector-effect:none;fill:#000;fill-opacity:1;stroke:#000;stroke-width:.352777;stroke-linecap:butt;stroke-linejoin:miter;stroke-miterlimit:4;stroke-dasharray:none;stroke-dashoffset:0;stroke-opacity:1;-inkscape-stroke:none;stop-color:#000" transform="translate(-347.905 6.44)"/><text xml:space="preserve" x="598.363" y="153.43" style="font-style:normal;font-variant:normal;font-weight:700;font-stretch:normal;font-size:4.23334px;line-height:1.25;font-family:Arial;-inkscape-font-specification:&quot;Arial Bold&quot;;white-space:pre;display:inline;fill:#fff;fill-opacity:1;stroke:none;stroke-width:.705555;stroke-dasharray:none" transform="translate(-347.905 6.44)"><tspan style="font-style:normal;font-variant:normal;font-weight:700;font-stretch:normal;font-family:Arial;-inkscape-font-specification:&quot;Arial Bold&quot;;fill:#fff;stroke-width:.705555">Speed</tspan></text><text xml:space="preserve" x="573.061" y="153.797" style="font-style:normal;font-variant:normal;font-weight:700;font-stretch:normal;font-size:4.23334px;line-height:1.25;font-family:Arial;-inkscape-font-specification:&quot;Arial Bold&quot;;white-space:pre;display:inline;fill:#fff;fill-opacity:1;stroke:none;stroke-width:.705555;stroke-dasharray:none" transform="translate(-347.905 6.44)"><tspan style="font-style:normal;font-variant:normal;font-weight:700;font-stretch:normal;font-family:Arial;-inkscape-font-specification:&quot;Arial Bold&quot;;fill:#fff;stroke-width:.705555">Level</tspan></text><path d="m572.022 163.422-1.86-1.86v-2.63l1.86-1.86h20.867l1.86 1.86v2.63l-1.86 1.86zM598.199 163.422l-1.86-1.86v-2.63l1.86-1.86h20.867l1.86 1.86v2.63l-1.86 1.86z" style="font-variation-settings:normal;vector-effect:none;fill:#000;fill-opacity:1;stroke:#000;stroke-width:.352777;stroke-linecap:butt;stroke-linejoin:miter;stroke-miterlimit:4;stroke-dasharray:none;stroke-dashoffset:0;stroke-opacity:1;-inkscape-stroke:none;stop-color:#000" transform="translate(-347.905 6.44)"/><text xml:space="preserve" x="593.841" y="163.821" style="font-style:normal;font-variant:normal;font-weight:700;font-stretch:normal;font-size:4.29903px;line-height:1.25;font-family:Arial;-inkscape-font-specification:&quot;Arial Bold&quot;;white-space:pre;display:inline;fill:#fff;stroke:none;stroke-width:.264581" transform="matrix(1.01553 0 0 .9847 -347.905 6.44)"><tspan style="stroke-width:.264581">Vigor</tspan></text><text xml:space="preserve" x="566.974" y="164.249" style="font-style:normal;font-variant:normal;font-weight:700;font-stretch:normal;font-size:4.29903px;line-height:1.25;font-family:Arial;-inkscape-font-specification:&quot;Arial Bold&quot;;white-space:pre;display:inline;fill:#fff;stroke:none;stroke-width:.264581" transform="matrix(1.01553 0 0 .9847 -347.905 6.44)"><tspan style="stroke-width:.264581">Health</tspan></text><path d="m592.965 182.477-1.226 1.227.639.638v2.62l-.64.639 1.227 1.226h23.28l1.227-1.226-.64-.639v-2.62l.64-.638-1.227-1.227h-11.64z" style="font-variation-settings:normal;vector-effect:none;fill:#000;fill-opacity:1;stroke:#000;stroke-width:.352777;stroke-linecap:butt;stroke-linejoin:miter;stroke-miterlimit:4;stroke-dasharray:none;stroke-dashoffset:0;stroke-opacity:1;-inkscape-stroke:none;stop-color:#000" transform="translate(-347.905 6.44)"/><text xml:space="preserve" x="593.784" y="186.75" style="font-style:normal;font-variant:normal;font-weight:700;font-stretch:normal;font-size:4.23333px;line-height:1.25;font-family:Arial;-inkscape-font-specification:&quot;Arial Bold&quot;;white-space:pre;display:inline;fill:#fff;fill-opacity:1;stroke:none;stroke-width:.705556;stroke-dasharray:none" transform="translate(-347.905 6.44)"><tspan style="stroke-width:.705556">Inspiration</tspan></text><path d="m598.21 115.782-1.86-1.86v-2.63l1.86-1.86h20.866l1.86 1.86v2.63l-1.86 1.86zM572.032 115.782l-1.86-1.86v-2.63l1.86-1.86H592.9l1.86 1.86v2.63l-1.86 1.86zM598.21 107.842l-1.86-1.86v-2.63l1.86-1.86h20.866l1.86 1.86v2.63l-1.86 1.86zM572.032 107.842l-1.86-1.86v-2.63l1.86-1.86H592.9l1.86 1.86v2.63l-1.86 1.86zM519.653 91.962l-1.86-1.86v-2.63l1.86-1.86h39.13l1.86 1.86v2.63l-1.86 1.86zM519.653 99.902l-1.86-1.86v-2.63l1.86-1.86h39.13l1.86 1.86v2.63l-1.86 1.86zM519.653 107.842l-1.86-1.86v-2.63l1.86-1.86h39.13l1.86 1.86v2.63l-1.86 1.86zM519.653 115.782l-1.86-1.86v-2.63l1.86-1.86h39.13l1.86 1.86v2.63l-1.86 1.86zM519.653 123.722l-1.86-1.86v-2.63l1.86-1.86h39.13l1.86 1.86v2.63l-1.86 1.86zM519.653 131.662l-1.86-1.86v-2.63l1.86-1.86h39.13l1.86 1.86v2.63l-1.86 1.86zM519.653 139.602l-1.86-1.86v-2.63l1.86-1.86h39.13l1.86 1.86v2.63l-1.86 1.86zM519.653 147.542l-1.86-1.86v-2.63l1.86-1.86h39.13l1.86 1.86v2.63l-1.86 1.86zM519.653 155.482l-1.86-1.86v-2.63l1.86-1.86h39.13l1.86 1.86v2.63l-1.86 1.86zM519.653 163.422l-1.86-1.86v-2.63l1.86-1.86h39.13l1.86 1.86v2.63l-1.86 1.86zM519.653 171.362l-1.86-1.86v-2.63l1.86-1.86h39.13l1.86 1.86v2.63l-1.86 1.86zM519.653 179.302l-1.86-1.86v-2.63l1.86-1.86h39.13l1.86 1.86v2.63l-1.86 1.86zM588.4 153.622v-2.63l1.859-1.86h2.63l1.86 1.86v2.63l-1.86 1.86h-2.63zM606.672 98.042v-2.63l1.86-1.86h2.63l1.86 1.86v2.63l-1.86 1.86h-2.63zM614.612 98.042v-2.63l1.86-1.86h2.63l1.86 1.86v2.63l-1.86 1.86h-2.63zM562.232 90.102v-2.63l1.86-1.86h2.63l1.86 1.86v2.63l-1.86 1.86h-2.63zM562.232 98.042v-2.63l1.86-1.86h2.63l1.86 1.86v2.63l-1.86 1.86h-2.63zM562.232 105.982v-2.63l1.86-1.86h2.63l1.86 1.86v2.63l-1.86 1.86h-2.63zM562.232 113.922v-2.63l1.86-1.86h2.63l1.86 1.86v2.63l-1.86 1.86h-2.63zM562.232 121.862v-2.63l1.86-1.86h2.63l1.86 1.86v2.63l-1.86 1.86h-2.63zM562.232 129.802v-2.63l1.86-1.86h2.63l1.86 1.86v2.63l-1.86 1.86h-2.63zM562.232 137.742v-2.63l1.86-1.86h2.63l1.86 1.86v2.63l-1.86 1.86h-2.63zM562.232 145.682v-2.63l1.86-1.86h2.63l1.86 1.86v2.63l-1.86 1.86h-2.63zM562.232 153.622v-2.63l1.86-1.86h2.63l1.86 1.86v2.63l-1.86 1.86h-2.63zM562.232 161.562v-2.63l1.86-1.86h2.63l1.86 1.86v2.63l-1.86 1.86h-2.63zM562.232 169.502v-2.63l1.86-1.86h2.63l1.86 1.86v2.63l-1.86 1.86h-2.63zM562.232 177.442v-2.63l1.86-1.86h2.63l1.86 1.86v2.63l-1.86 1.86h-2.63z" style="font-variation-settings:normal;vector-effect:none;fill:none;fill-opacity:1;stroke:#000;stroke-width:.352777;stroke-linecap:butt;stroke-linejoin:miter;stroke-miterlimit:4;stroke-dasharray:none;stroke-dashoffset:0;stroke-opacity:1;-inkscape-stroke:none;stop-color:#000" transform="translate(-347.905 6.44)"/><path d="m519.657 61.782-1.86-1.86v-2.63l1.86-1.86h20.867l1.86 1.86v2.63l-1.86 1.86z" style="font-variation-settings:normal;vector-effect:none;fill:#000;fill-opacity:1;stroke:#000;stroke-width:.352777;stroke-linecap:butt;stroke-linejoin:miter;stroke-miterlimit:4;stroke-dasharray:none;stroke-dashoffset:0;stroke-opacity:1;-inkscape-stroke:none;stop-color:#000" transform="translate(-347.905 6.44)"/><text xml:space="preserve" x="520.739" y="60.123" style="font-style:normal;font-variant:normal;font-weight:700;font-stretch:normal;font-size:4.23333px;line-height:1.25;font-family:Arial;-inkscape-font-specification:&quot;Arial Bold&quot;;white-space:pre;fill:#fff;stroke-width:.264583" transform="translate(-347.905 6.44)"><tspan style="stroke-width:.264583">Influence</tspan></text><path d="m564.982 71.36 1.836-.907 1.821.9v3.737l-1.82.9-1.837-.908zM559.734 71.36l1.837-.907 1.82.9v3.737l-1.82.9-1.836-.908zM554.487 71.368l1.836-.908 1.821.9v3.737l-1.82.9-1.837-.907zM549.24 71.369l1.836-.908 1.821.9v3.737l-1.82.9-1.837-.908zM543.992 71.376l1.836-.908 1.821.9v3.737l-1.82.9-1.837-.907zM538.744 71.384l1.837-.908 1.82.9v3.737l-1.82.9-1.836-.908zM533.497 71.391l1.836-.908 1.821.9v3.737l-1.82.9-1.837-.907zM528.25 71.392l1.836-.908 1.821.9v3.737l-1.82.9-1.837-.908zM523.002 71.4l1.836-.909 1.821.9v3.737l-1.82.9-1.837-.907zM517.754 71.407l1.837-.908 1.82.9v3.737l-1.82.9-1.836-.908zM564.981 64.233l1.837-.908 1.82.9v3.737l-1.82.9-1.836-.907zM559.734 64.234l1.836-.908 1.822.9v3.737l-1.821.9-1.836-.908zM554.486 64.241l1.837-.908 1.821.9v3.737l-1.82.9-1.837-.907zM549.24 64.241l1.836-.908 1.82.9v3.737l-1.82.9-1.836-.907zM543.992 64.249l1.836-.908 1.821.9v3.737l-1.82.9-1.837-.907zM538.744 64.257l1.836-.908 1.822.9v3.737l-1.821.9-1.836-.908zM533.496 64.264l1.837-.908 1.82.9v3.737l-1.82.9-1.836-.907zM528.25 64.264l1.835-.908 1.822.9v3.737l-1.821.9-1.836-.907zM523.001 64.272l1.837-.908 1.821.9v3.737l-1.82.9-1.837-.907zM517.754 64.28l1.836-.908 1.821.9v3.737l-1.82.9-1.837-.908zM598.21 139.602l-1.86-1.86v-2.63l1.86-1.86h20.866l1.86 1.86v2.63l-1.86 1.86zM572.032 139.602l-1.86-1.86v-2.63l1.86-1.86H592.9l1.86 1.86v2.63l-1.86 1.86zM598.21 131.662l-1.86-1.86v-2.63l1.86-1.86h20.866l1.86 1.86v2.63l-1.86 1.86zM572.032 131.662l-1.86-1.86v-2.63l1.86-1.86H592.9l1.86 1.86v2.63l-1.86 1.86zM598.21 123.722l-1.86-1.86v-2.63l1.86-1.86h20.866l1.86 1.86v2.63l-1.86 1.86zM572.032 123.722l-1.86-1.86v-2.63l1.86-1.86H592.9l1.86 1.86v2.63l-1.86 1.86zM545.834 61.782l-1.86-1.86v-2.63l1.86-1.86h20.867l1.86 1.86v2.63l-1.86 1.86z" style="font-variation-settings:normal;vector-effect:none;fill:none;fill-opacity:1;stroke:#000;stroke-width:.352777;stroke-linecap:butt;stroke-linejoin:miter;stroke-miterlimit:4;stroke-dasharray:none;stroke-dashoffset:0;stroke-opacity:1;-inkscape-stroke:none;stop-color:#000" transform="translate(-347.905 6.44)"/><path d="m102.858 256.906-1.86 1.86v8.98l1.86 1.86h6.35l6.174-11.774-.927-.926z" style="font-variation-settings:normal;opacity:1;vector-effect:none;fill:none;fill-opacity:1;stroke:#000;stroke-width:.352777;stroke-linecap:butt;stroke-linejoin:miter;stroke-miterlimit:4;stroke-dasharray:none;stroke-dashoffset:0;stroke-opacity:1;-inkscape-stroke:none;stop-color:#000;stop-opacity:1" transform="translate(147.44 -85.2)"/><path d="m123.716 271.196 1.86-1.86v-8.98l-1.86-1.86h-6.35l-6.173 11.774.926.926z" style="font-variation-settings:normal;vector-effect:none;fill:none;fill-opacity:1;stroke:#000;stroke-width:.352777;stroke-linecap:butt;stroke-linejoin:miter;stroke-miterlimit:4;stroke-dasharray:none;stroke-dashoffset:0;stroke-opacity:1;-inkscape-stroke:none;stop-color:#000" transform="translate(147.44 -85.2)"/><path d="m102.858 256.906-1.86 1.86v8.98l1.86 1.86h6.35l6.174-11.774-.927-.926z" style="font-variation-settings:normal;opacity:1;vector-effect:none;fill:none;fill-opacity:1;stroke:#000;stroke-width:.352777;stroke-linecap:butt;stroke-linejoin:miter;stroke-miterlimit:4;stroke-dasharray:none;stroke-dashoffset:0;stroke-opacity:1;-inkscape-stroke:none;stop-color:#000;stop-opacity:1" transform="translate(121.264 -85.454)"/><path d="m123.716 271.196 1.86-1.86v-8.98l-1.86-1.86h-6.35l-6.173 11.774.926.926z" style="font-variation-settings:normal;vector-effect:none;fill:none;fill-opacity:1;stroke:#000;stroke-width:.352777;stroke-linecap:butt;stroke-linejoin:miter;stroke-miterlimit:4;stroke-dasharray:none;stroke-dashoffset:0;stroke-opacity:1;-inkscape-stroke:none;stop-color:#000" transform="translate(121.264 -85.454)"/><path d="M354.247 6.252v171.19l1.86 1.86h85.18l1.86-1.86V6.252ZM444.752 6.252v45.714l1.86 1.86h172.474l1.86-1.86V6.252Z" style="font-variation-settings:normal;vector-effect:none;fill:none;fill-opacity:1;stroke:#000;stroke-width:.352777;stroke-linecap:butt;stroke-linejoin:miter;stroke-miterlimit:4;stroke-dasharray:none;stroke-dashoffset:0;stroke-opacity:1;-inkscape-stroke:none;stop-color:#000" transform="translate(-347.905 6.44)"/><path d="M-191.238 157.374v-2.63l1.86-1.86h2.63l1.86 1.86v2.63l-1.86 1.86h-2.63z" style="font-variation-settings:normal;vector-effect:none;fill:none;fill-opacity:1;stroke:#000;stroke-width:.352777;stroke-linecap:butt;stroke-linejoin:miter;stroke-miterlimit:4;stroke-dasharray:none;stroke-dashoffset:0;stroke-opacity:1;-inkscape-stroke:none;stop-color:#000" transform="translate(353.255 -83.072)"/><path d="M-219.813 173.254v-2.63l1.86-1.86h31.205l1.86 1.86v2.63l-1.86 1.86h-31.205zM-254.468 210.054l-1.86-1.86v-29.63l1.86-1.86h67.72l1.86 1.86v29.63l-1.86 1.86z" style="font-variation-settings:normal;opacity:1;vector-effect:none;fill:none;fill-opacity:1;stroke:#000;stroke-width:.352777;stroke-linecap:butt;stroke-linejoin:miter;stroke-miterlimit:4;stroke-dasharray:none;stroke-dashoffset:0;stroke-opacity:1;-inkscape-stroke:none;stop-color:#000;stop-opacity:1" transform="translate(353.255 -83.072)"/><path d="M-256.328 165.314v-2.63l1.86-1.86h31.205l1.86 1.86v2.63l-1.86 1.86h-31.205zM-256.328 173.254v-2.63l1.86-1.86h31.205l1.86 1.86v2.63l-1.86 1.86h-31.205zM-219.813 165.314v-2.63l1.86-1.86h31.205l1.86 1.86v2.63l-1.86 1.86h-31.205z" style="font-variation-settings:normal;vector-effect:none;fill:none;fill-opacity:1;stroke:#000;stroke-width:.352777;stroke-linecap:butt;stroke-linejoin:miter;stroke-miterlimit:4;stroke-dasharray:none;stroke-dashoffset:0;stroke-opacity:1;-inkscape-stroke:none;stop-color:#000" transform="translate(353.255 -83.072)"/><path d="m-254.329 159.234-1.86-1.86v-2.63l1.86-1.86h59.78l1.86 1.86v2.63l-1.86 1.86z" style="font-variation-settings:normal;opacity:1;vector-effect:none;fill:none;fill-opacity:1;stroke:#000;stroke-width:.352777;stroke-linecap:butt;stroke-linejoin:miter;stroke-miterlimit:4;stroke-dasharray:none;stroke-dashoffset:0;stroke-opacity:1;-inkscape-stroke:none;stop-color:#000;stop-opacity:1" transform="translate(353.255 -83.072)"/><path d="m-254.468 217.994-1.86-1.86v-2.63l1.86-1.86h59.78l1.86 1.86v2.63l-1.86 1.86zM-256.467 224.074v-2.63l1.86-1.86h31.205l1.86 1.86v2.63l-1.86 1.86h-31.205zM-256.467 232.014v-2.63l1.86-1.86h31.205l1.86 1.86v2.63l-1.86 1.86h-31.205zM-219.952 224.074v-2.63l1.86-1.86h31.205l1.86 1.86v2.63l-1.86 1.86h-31.205zM-219.952 232.014v-2.63l1.86-1.86h31.205l1.86 1.86v2.63l-1.86 1.86h-31.205zM-254.607 268.814l-1.86-1.86v-29.63l1.86-1.86h67.72l1.86 1.86v29.63l-1.86 1.86zM-191.377 216.134v-2.63l1.86-1.86h2.63l1.86 1.86v2.63l-1.86 1.86h-2.63z" style="font-variation-settings:normal;vector-effect:none;fill:none;fill-opacity:1;stroke:#000;stroke-width:.352777;stroke-linecap:butt;stroke-linejoin:miter;stroke-miterlimit:4;stroke-dasharray:none;stroke-dashoffset:0;stroke-opacity:1;-inkscape-stroke:none;stop-color:#000" transform="translate(353.255 -83.072)"/><path d="M610.685 202.847v-2.818h-1.167l-1.651 1.651v1.167zM600.643 198.409v-3.283l2.32-2.321h3.283l2.322 2.321v3.283l-2.322 2.32h-3.282z" style="font-variation-settings:normal;vector-effect:none;fill:none;fill-opacity:1;stroke:#000;stroke-width:.352777;stroke-linecap:butt;stroke-linejoin:miter;stroke-miterlimit:4;stroke-dasharray:none;stroke-dashoffset:0;stroke-opacity:1;-inkscape-stroke:none;stop-color:#000" transform="translate(-347.905 6.44)"/><path d="m598.255 196.767 1.993 1.993.826-.825V195.6l-.826-.826zM604.605 203.117l1.993-1.993-.825-.825h-2.335l-.826.825zM604.605 190.417l-1.993 1.993.826.826h2.335l.825-.826z" style="font-variation-settings:normal;vector-effect:none;fill:#000;fill-opacity:1;stroke:#000;stroke-width:.352777;stroke-linecap:butt;stroke-linejoin:miter;stroke-miterlimit:4;stroke-dasharray:none;stroke-dashoffset:0;stroke-opacity:1;-inkscape-stroke:none;stop-color:#000" transform="translate(-347.905 6.44)"/><path d="M598.525 202.848h2.819v-1.168l-1.652-1.65h-1.167zM610.685 190.687h-2.818v1.168l1.65 1.65h1.168zM598.525 190.687v2.819h1.167l1.651-1.652v-1.167z" style="font-variation-settings:normal;vector-effect:none;fill:none;fill-opacity:1;stroke:#000;stroke-width:.352777;stroke-linecap:butt;stroke-linejoin:miter;stroke-miterlimit:4;stroke-dasharray:none;stroke-dashoffset:0;stroke-opacity:1;-inkscape-stroke:none;stop-color:#000" transform="translate(-347.905 6.44)"/><path d="m610.955 196.767-1.993-1.993-.825.826v2.335l.825.825z" style="font-variation-settings:normal;vector-effect:none;fill:#000;fill-opacity:1;stroke:#000;stroke-width:.352777;stroke-linecap:butt;stroke-linejoin:miter;stroke-miterlimit:4;stroke-dasharray:none;stroke-dashoffset:0;stroke-opacity:1;-inkscape-stroke:none;stop-color:#000" transform="translate(-347.905 6.44)"/><path fill="none" d="m287.965 159.276-6.133 1.643-4.49-4.49 1.643-6.133 6.134-1.644 4.49 4.49z" style="fill:#fff;fill-opacity:0;stroke:#000;stroke-width:.656592;stroke-dasharray:none" transform="matrix(.55768 -.12941 .14943 .48296 88.619 120.675)"/><path d="M613.012 142.124c.025 1.497-.648 3.925-3.175 5.499-2.528-1.574-3.2-4.002-3.175-5.5v-.93h6.35z" style="font-variation-settings:normal;vector-effect:none;fill:none;fill-opacity:1;stroke:#000;stroke-width:.352777;stroke-linecap:butt;stroke-linejoin:miter;stroke-miterlimit:4;stroke-dasharray:none;stroke-dashoffset:0;stroke-opacity:1;-inkscape-stroke:none;stop-color:#000" transform="translate(-347.905 6.44)"/><path d="M273.047 148.563c.025 1.497-.647 3.925-3.175 5.499-2.527-1.574-3.2-4.002-3.175-5.5v-.93h6.35z" style="font-variation-settings:normal;vector-effect:none;fill:none;fill-opacity:1;stroke:#000;stroke-width:.352777;stroke-linecap:butt;stroke-linejoin:miter;stroke-miterlimit:4;stroke-dasharray:none;stroke-dashoffset:0;stroke-opacity:1;-inkscape-stroke:none;stop-color:#000"/><path d="M614.612 93.552h6.35v6.35h-6.35zM606.672 93.552h6.35v6.35h-6.35z" style="font-variation-settings:normal;vector-effect:none;fill:none;fill-opacity:1;fill-rule:evenodd;stroke:#000;stroke-width:.352777;stroke-linecap:butt;stroke-linejoin:miter;stroke-miterlimit:4;stroke-dasharray:none;stroke-dashoffset:0;stroke-opacity:1;-inkscape-stroke:none;stop-color:#000" transform="translate(-347.905 6.44)"/><path d="M570.146 61.782v28.315l1.86 1.86h47.096l1.86-1.86V61.782ZM576.17 190.397h-2.818v1.168l1.651 1.65h1.167zM576.17 202.726h-2.818v-1.167l1.651-1.651h1.167zM555.024 190.397h2.818v1.168l-1.65 1.65h-1.168zM555.024 202.726h2.818v-1.167l-1.65-1.651h-1.168zM552.818 196.561l1.993-1.992.825.825v2.335l-.825.825zM557.226 196.562l1.993-1.993.826.825v2.335l-.826.826zM559.433 190.397v2.819h1.167l1.651-1.651v-1.168zM571.762 190.397h-2.819v1.168l1.651 1.65h1.168zM559.433 202.726v-2.818h1.167l1.651 1.65v1.168zM571.762 202.726v-2.818h-1.168l-1.65 1.65v1.168zM578.376 196.561l-1.993-1.992-.825.825v2.335l.826.825zM573.968 196.562l-1.993-1.993-.826.825v2.335l.826.826zM563.956 192.6h3.282l2.322 2.32v3.283l-2.322 2.321h-3.282l-2.321-2.321v-3.283zM537.17 190.397h-2.818v1.168l1.651 1.65h1.167zM537.17 202.726h-2.818v-1.167l1.651-1.651h1.167zM516.024 190.397h2.818v1.168l-1.65 1.65h-1.168zM516.024 202.726h2.818v-1.167l-1.65-1.651h-1.168zM513.818 196.561l1.993-1.992.825.825v2.335l-.825.825zM518.226 196.562l1.993-1.993.826.825v2.335l-.826.826zM520.433 190.397v2.819h1.167l1.651-1.651v-1.168zM532.762 190.397h-2.819v1.168l1.651 1.65h1.168zM520.433 202.726v-2.818h1.167l1.651 1.65v1.168zM532.762 202.726v-2.818h-1.168l-1.65 1.65v1.168zM539.376 196.561l-1.993-1.992-.825.825v2.335l.826.825zM534.968 196.562l-1.993-1.993-.826.825v2.335l.826.826zM524.956 192.6h3.282l2.322 2.32v3.283l-2.322 2.321h-3.282l-2.321-2.321v-3.283zM498.17 190.397h-2.818v1.168l1.651 1.65h1.167zM498.17 202.726h-2.818v-1.167l1.651-1.651h1.167zM477.024 190.397h2.818v1.168l-1.65 1.65h-1.168zM477.024 202.726h2.818v-1.167l-1.65-1.651h-1.168zM474.818 196.561l1.993-1.992.825.825v2.335l-.825.825zM479.226 196.562l1.993-1.993.826.825v2.335l-.826.826zM481.433 190.397v2.819h1.167l1.651-1.651v-1.168zM493.762 190.397h-2.819v1.168l1.651 1.65h1.168zM481.433 202.726v-2.818h1.167l1.651 1.65v1.168zM493.762 202.726v-2.818h-1.168l-1.65 1.65v1.168zM500.376 196.561l-1.993-1.992-.825.825v2.335l.826.825zM495.968 196.562l-1.993-1.993-.826.825v2.335l.826.826zM485.956 192.6h3.282l2.322 2.32v3.283l-2.322 2.321h-3.282l-2.321-2.321v-3.283zM459.17 190.412h-2.818v1.168l1.651 1.65h1.167zM459.17 202.741h-2.818v-1.167l1.651-1.651h1.167zM438.024 190.412h2.818v1.168l-1.65 1.65h-1.168zM438.024 202.741h2.818v-1.167l-1.65-1.651h-1.168zM435.818 196.576l1.993-1.992.825.825v2.335l-.825.825zM440.226 196.577l1.993-1.993.826.825v2.335l-.826.826zM442.433 190.412v2.819h1.167l1.651-1.651v-1.168zM454.762 190.412h-2.819v1.168l1.651 1.65h1.168zM442.433 202.741v-2.818h1.167l1.651 1.65v1.168zM454.762 202.741v-2.818h-1.168l-1.65 1.65v1.168zM461.376 196.576l-1.993-1.992-.825.825v2.335l.826.825zM456.968 196.577l-1.993-1.993-.826.825v2.335l.826.826zM446.956 192.614h3.282l2.322 2.321v3.283l-2.322 2.321h-3.282l-2.321-2.321v-3.283zM420.17 190.412h-2.818v1.168l1.651 1.65h1.167zM420.17 202.741h-2.818v-1.167l1.651-1.651h1.167zM399.024 190.412h2.818v1.168l-1.65 1.65h-1.168zM399.024 202.741h2.818v-1.167l-1.65-1.651h-1.168zM396.818 196.576l1.993-1.992.825.825v2.335l-.825.825zM401.226 196.577l1.993-1.993.826.825v2.335l-.826.826zM403.433 190.412v2.819h1.167l1.651-1.651v-1.168zM415.762 190.412h-2.819v1.168l1.651 1.65h1.168zM403.433 202.741v-2.818h1.167l1.651 1.65v1.168zM415.762 202.741v-2.818h-1.168l-1.65 1.65v1.168zM422.376 196.576l-1.993-1.992-.825.825v2.335l.826.825zM417.968 196.577l-1.993-1.993-.826.825v2.335l.826.826zM407.956 192.614h3.282l2.322 2.321v3.283l-2.322 2.321h-3.282l-2.321-2.321v-3.283zM381.178 190.412h-2.818v1.168l1.651 1.65h1.167zM381.178 202.741h-2.818v-1.167l1.651-1.651h1.167zM360.032 190.412h2.818v1.168l-1.65 1.65h-1.168zM360.032 202.741h2.818v-1.167l-1.65-1.651h-1.168zM357.826 196.576l1.993-1.992.825.825v2.335l-.825.825zM362.234 196.577l1.993-1.993.826.825v2.335l-.826.826zM364.44 190.412v2.819h1.168l1.651-1.651v-1.168zM376.77 190.412h-2.819v1.168l1.651 1.65h1.168zM364.44 202.741v-2.818h1.168l1.651 1.65v1.168zM376.77 202.741v-2.818h-1.168l-1.65 1.65v1.168zM383.384 196.576l-1.993-1.992-.825.825v2.335l.826.825zM378.976 196.577l-1.993-1.993-.826.825v2.335l.826.826zM368.964 192.614h3.282l2.322 2.321v3.283l-2.322 2.321h-3.282l-2.321-2.321v-3.283z" style="font-variation-settings:normal;vector-effect:none;fill:none;fill-opacity:1;stroke:#000;stroke-width:.352777;stroke-linecap:butt;stroke-linejoin:miter;stroke-miterlimit:4;stroke-dasharray:none;stroke-dashoffset:0;stroke-opacity:1;-inkscape-stroke:none;stop-color:#000" transform="translate(-347.905 6.44)"/></svg>