<?xml version="1.0" encoding="UTF-8" standalone="no"?>
<svg
   xml:space="preserve"
   width="11in"
   height="816"
   viewBox="0 0 279.4 215.9"
   version="1.1"
   id="svg49"
   sodipodi:docname="character-sheet-traditional.svg"
   inkscape:version="1.4 (86a8ad7, 2024-10-11)"
   xmlns:inkscape="http://www.inkscape.org/namespaces/inkscape"
   xmlns:sodipodi="http://sodipodi.sourceforge.net/DTD/sodipodi-0.dtd"
   xmlns="http://www.w3.org/2000/svg"
   xmlns:svg="http://www.w3.org/2000/svg"><defs
     id="defs49" /><sodipodi:namedview
     id="namedview49"
     pagecolor="#505050"
     bordercolor="#eeeeee"
     borderopacity="1"
     inkscape:showpageshadow="0"
     inkscape:pageopacity="0"
     inkscape:pagecheckerboard="0"
     inkscape:deskcolor="#505050"
     inkscape:document-units="in"
     inkscape:zoom="0.73743612"
     inkscape:cx="393.2544"
     inkscape:cy="446.81837"
     inkscape:window-width="1920"
     inkscape:window-height="1009"
     inkscape:window-x="-8"
     inkscape:window-y="355"
     inkscape:window-maximized="1"
     inkscape:current-layer="svg49" /><path
     d="M847.9 97.34v215.9H568.5V97.34z"
     style="font-variation-settings:normal;display:inline;fill:#fff;fill-opacity:1;fill-rule:evenodd;stroke:none;stroke-width:.352778;stroke-linecap:butt;stroke-linejoin:miter;stroke-miterlimit:4;stroke-dasharray:none;stroke-dashoffset:0;stroke-opacity:1;stop-color:#000"
     transform="translate(-568.5 -97.34)"
     id="path1"
     inkscape:export-filename="character-sheet-traditional.pdf"
     inkscape:export-xdpi="96"
     inkscape:export-ydpi="96" /><path
     d="m576.71 103.69-1.86 1.859v2.63l1.854 1.855h38.094l1.86-1.86v-2.63l-1.855-1.855h-36.804z"
     style="font-variation-settings:normal;fill:#000;fill-opacity:1;stroke:#000;stroke-width:.352778;stroke-linecap:butt;stroke-linejoin:miter;stroke-miterlimit:4;stroke-dasharray:none;stroke-dashoffset:0;stroke-opacity:1;stop-color:#000"
     transform="translate(-568.5 -97.34)"
     id="path2" /><path
     d="M684.202 135.082v91.709l1.86 1.859h74.162l1.86-1.86v-91.708h-68.702zm-109.352.018v169.967l1.84 1.822h104.069l1.858-1.841V136.96l-1.86-1.86h-104.05Z"
     style="font-variation-settings:normal;fill:none;fill-opacity:1;stroke:#000;stroke-width:.352778;stroke-linecap:butt;stroke-linejoin:miter;stroke-miterlimit:4;stroke-dasharray:none;stroke-dashoffset:0;stroke-opacity:1;stop-color:#000"
     transform="translate(-568.5 -97.34)"
     id="path3" /><text
     xml:space="preserve"
     x="586.189"
     y="107.931"
     style="font-style:normal;font-variant:normal;font-weight:700;font-stretch:normal;font-size:4.23333px;line-height:1.25;font-family:Arial;-inkscape-font-specification:&quot;Arial Bold&quot;;white-space:pre;display:inline;fill:#fff;fill-opacity:1;stroke:none;stroke-width:.352778;stroke-dasharray:none"
     transform="translate(-568.5 -97.34)"
     id="text3"><tspan
       style="stroke-width:.352778;stroke-dasharray:none"
       id="tspan3">Physique </tspan></text><path
     d="m765.528 230.235-1.86 1.86v6.35l1.86-1.86h74.161l1.86 1.86v-6.35l-1.86-1.86h-66.841z"
     style="font-variation-settings:normal;vector-effect:none;fill:#000;fill-opacity:1;stroke:#000;stroke-width:.352777;stroke-linecap:butt;stroke-linejoin:miter;stroke-miterlimit:4;stroke-dasharray:none;stroke-dashoffset:0;stroke-opacity:1;-inkscape-stroke:none;stop-color:#000"
     transform="translate(-568.5 -97.34)"
     id="path4" /><text
     xml:space="preserve"
     x="783.699"
     y="234.533"
     style="font-style:normal;font-variant:normal;font-weight:700;font-stretch:normal;font-size:4.23333px;line-height:1.25;font-family:Arial;-inkscape-font-specification:&quot;Arial Bold&quot;;white-space:pre;display:inline;fill:#fff;stroke:none;stroke-width:.352778;stroke-dasharray:none"
     transform="translate(-568.5 -97.34)"
     id="text4"><tspan
       style="fill:#fff;stroke:none;stroke-width:.352778;stroke-dasharray:none"
       id="tspan4">Combat Technique</tspan></text><path
     d="M763.668 236.585v68.444l1.86 1.86h74.163l1.859-1.86v-68.444zm-79.466 0v68.444l1.86 1.86h74.163l1.859-1.86v-68.444z"
     style="font-variation-settings:normal;vector-effect:none;fill:none;fill-opacity:1;stroke:#000;stroke-width:.352777;stroke-linecap:butt;stroke-linejoin:miter;stroke-miterlimit:4;stroke-dasharray:none;stroke-dashoffset:0;stroke-opacity:1;-inkscape-stroke:none;stop-color:#000"
     transform="translate(-568.5 -97.34)"
     id="path5" /><path
     d="m686.062 127.176-1.86 1.86v6.065l26.89-.005-1.855-1.856v-4.204l1.86-1.86zm-1.86 7.925v1.86l1.86-1.86z"
     style="font-variation-settings:normal;vector-effect:none;fill:#000;fill-opacity:1;stroke:#000;stroke-width:.352777;stroke-linecap:butt;stroke-linejoin:miter;stroke-miterlimit:4;stroke-dasharray:none;stroke-dashoffset:0;stroke-opacity:1;-inkscape-stroke:none;stop-color:#000"
     transform="translate(-568.5 -97.34)"
     id="path6" /><text
     xml:space="preserve"
     x="687.528"
     y="132.656"
     style="font-style:normal;font-variant:normal;font-weight:700;font-stretch:normal;font-size:4.234px;line-height:1.25;font-family:Arial;-inkscape-font-specification:&quot;Arial Bold&quot;;white-space:pre;display:inline;fill:#fff;stroke:none;stroke-width:1.00013;stroke-dasharray:none"
     transform="matrix(1.00016 0 0 .99984 -568.5 -97.34)"
     id="text6"><tspan
       style="fill:#fff;stroke-width:1.00013;stroke-dasharray:none"
       id="tspan6">Character</tspan></text><path
     d="m727.696 135.082 1.86 1.86v2.63l1.86 1.86h28.808l1.86 1.86v-8.21h-32.528z"
     style="font-variation-settings:normal;vector-effect:none;fill:#000;fill-opacity:1;stroke:#000;stroke-width:.352777;stroke-linecap:butt;stroke-linejoin:miter;stroke-miterlimit:4;stroke-dasharray:none;stroke-dashoffset:0;stroke-opacity:1;-inkscape-stroke:none;stop-color:#000"
     transform="translate(-568.5 -97.34)"
     id="path7" /><text
     xml:space="preserve"
     x="731.431"
     y="139.256"
     style="font-style:normal;font-variant:normal;font-weight:700;font-stretch:normal;font-size:3.88056px;line-height:1.25;font-family:Arial;-inkscape-font-specification:&quot;Arial Bold&quot;;white-space:pre;display:inline;fill:#fff;fill-opacity:1;stroke:none;stroke-width:.352778;stroke-dasharray:none"
     transform="translate(-568.5 -97.34)"
     id="text7"><tspan
       style="font-size:3.88056px;stroke-width:.352778;stroke-dasharray:none"
       id="tspan7">Experience</tspan></text><path
     d="m576.71 127.176-1.86 1.86v7.925l1.86-1.86h104.048l1.86 1.86v-7.925l-1.86-1.86H580.427z"
     style="font-variation-settings:normal;vector-effect:none;fill:#000;fill-opacity:1;stroke:#000;stroke-width:.352777;stroke-linecap:butt;stroke-linejoin:miter;stroke-miterlimit:4;stroke-dasharray:none;stroke-dashoffset:0;stroke-opacity:1;-inkscape-stroke:none;stop-color:#000"
     transform="translate(-568.5 -97.34)"
     id="path8" /><text
     xml:space="preserve"
     x="620.603"
     y="132.61"
     style="font-style:normal;font-variant:normal;font-weight:700;font-stretch:normal;font-size:4.23333px;line-height:1.25;font-family:Arial;-inkscape-font-specification:&quot;Arial Bold&quot;;white-space:pre;display:inline;fill:#fff;stroke:none;stroke-width:.352778;stroke-dasharray:none"
     transform="translate(-568.5 -97.34)"
     id="text8"><tspan
       style="fill:#fff;stroke-width:.352778;stroke-dasharray:none"
       id="tspan8">Abilities</tspan></text><path
     d="m805.268 127.142-1.86 1.86v2.63l1.86 1.86h14.535l1.86-1.86v-2.63l-1.86-1.86zm19.839 0-1.859 1.86v2.63l1.86 1.86h14.534l1.86-1.86v-2.63l-1.86-1.86z"
     style="font-variation-settings:normal;vector-effect:none;fill:#000;fill-opacity:1;stroke:#000;stroke-width:.352777;stroke-linecap:butt;stroke-linejoin:miter;stroke-miterlimit:4;stroke-dasharray:none;stroke-dashoffset:0;stroke-opacity:1;-inkscape-stroke:none;stop-color:#000"
     transform="translate(-568.5 -97.34)"
     id="path9" /><text
     xml:space="preserve"
     x="814.162"
     y="133.428"
     style="font-style:normal;font-variant:normal;font-weight:700;font-stretch:normal;font-size:4.29903px;line-height:1.25;font-family:Arial;-inkscape-font-specification:&quot;Arial Bold&quot;;white-space:pre;display:inline;fill:#fff;stroke:none;stroke-width:.352778;stroke-dasharray:none"
     transform="matrix(1.01553 0 0 .9847 -568.5 -97.34)"
     id="text9"><tspan
       style="stroke-width:.352778;stroke-dasharray:none"
       id="tspan9">Vigor</tspan></text><text
     xml:space="preserve"
     x="793.525"
     y="133.855"
     style="font-style:normal;font-variant:normal;font-weight:700;font-stretch:normal;font-size:4.29903px;line-height:1.25;font-family:Arial;-inkscape-font-specification:&quot;Arial Bold&quot;;white-space:pre;display:inline;fill:#fff;stroke:none;stroke-width:.352778;stroke-dasharray:none"
     transform="matrix(1.01553 0 0 .9847 -568.5 -97.34)"
     id="text10"><tspan
       style="stroke-width:.352778;stroke-dasharray:none"
       id="tspan10">Health</tspan></text><path
     d="m805.263 166.796-1.86 1.86v2.63l1.855 1.855h26.444l1.86-1.86v-2.63l-1.855-1.855h-25.154z"
     style="font-variation-settings:normal;fill:#000;fill-opacity:1;stroke:#000;stroke-width:.352778;stroke-linecap:butt;stroke-linejoin:miter;stroke-miterlimit:4;stroke-dasharray:none;stroke-dashoffset:0;stroke-opacity:1;stop-color:#000"
     transform="translate(-568.5 -97.34)"
     id="path10" /><text
     xml:space="preserve"
     x="810.901"
     y="171.459"
     style="font-style:normal;font-variant:normal;font-weight:700;font-stretch:normal;font-size:4.23334px;line-height:1.25;font-family:Arial;-inkscape-font-specification:&quot;Arial Bold&quot;;white-space:pre;display:inline;fill:#fff;fill-opacity:1;stroke:none;stroke-width:.352778;stroke-dasharray:none"
     transform="translate(-568.5 -97.34)"
     id="text11"><tspan
       style="font-style:normal;font-variant:normal;font-weight:700;font-stretch:normal;font-family:Arial;-inkscape-font-specification:&quot;Arial Bold&quot;;fill:#fff;stroke-width:.352778;stroke-dasharray:none"
       id="tspan11">Dashes</tspan></text><path
     fill="none"
     d="m287.965 159.276-6.133 1.643-4.49-4.49 1.643-6.133 6.134-1.644 4.49 4.49z"
     style="fill:#fff;fill-opacity:0;stroke:#000;stroke-width:.656592;stroke-dasharray:none"
     transform="matrix(.55768 -.12941 .14943 .48296 88.575 34.586)"
     id="path11" /><path
     d="m805.263 158.867-1.86 1.86v2.63l1.855 1.854h26.444l1.86-1.86v-2.63l-1.855-1.854h-25.154z"
     style="font-variation-settings:normal;fill:#000;fill-opacity:1;stroke:#000;stroke-width:.352778;stroke-linecap:butt;stroke-linejoin:miter;stroke-miterlimit:4;stroke-dasharray:none;stroke-dashoffset:0;stroke-opacity:1;stop-color:#000"
     transform="translate(-568.5 -97.34)"
     id="path12" /><text
     xml:space="preserve"
     x="815.284"
     y="163.554"
     style="font-style:normal;font-variant:normal;font-weight:700;font-stretch:normal;font-size:4.23334px;line-height:1.25;font-family:Arial;-inkscape-font-specification:&quot;Arial Bold&quot;;white-space:pre;display:inline;fill:#fff;fill-opacity:1;stroke:none;stroke-width:.352778;stroke-dasharray:none"
     transform="translate(-568.5 -97.34)"
     id="text12"><tspan
       style="font-style:normal;font-variant:normal;font-weight:700;font-stretch:normal;font-family:Arial;-inkscape-font-specification:&quot;Arial Bold&quot;;fill:#fff;stroke-width:.352778;stroke-dasharray:none"
       id="tspan12">DR</tspan></text><path
     d="M838.293 165.232c-2.528-1.574-3.2-4.002-3.175-5.5 2.058-1.076 4.168-1.19 6.35 0 .025 1.498-.648 3.926-3.175 5.5z"
     style="font-variation-settings:normal;fill:none;fill-opacity:1;stroke:#000;stroke-width:.352778;stroke-linecap:butt;stroke-linejoin:miter;stroke-miterlimit:4;stroke-dasharray:none;stroke-dashoffset:0;stroke-opacity:1;stop-color:#000"
     transform="translate(-568.5 -97.34)"
     id="path13" /><path
     d="m765.53 127.157-1.859 1.86v2.63l1.86 1.86h34.373l1.86-1.86v-2.63l-1.86-1.86z"
     style="font-variation-settings:normal;vector-effect:none;fill:#000;fill-opacity:1;stroke:#000;stroke-width:.352777;stroke-linecap:butt;stroke-linejoin:miter;stroke-miterlimit:4;stroke-dasharray:none;stroke-dashoffset:0;stroke-opacity:1;-inkscape-stroke:none;stop-color:#000"
     transform="translate(-568.5 -97.34)"
     id="path14" /><text
     xml:space="preserve"
     x="765.155"
     y="133.895"
     style="font-style:normal;font-variant:normal;font-weight:700;font-stretch:normal;font-size:4.29903px;line-height:1.25;font-family:Arial;-inkscape-font-specification:&quot;Arial Bold&quot;;white-space:pre;display:inline;fill:#fff;stroke:none;stroke-width:.352778;stroke-dasharray:none"
     transform="matrix(1.01553 0 0 .9847 -568.5 -97.34)"
     id="text14"><tspan
       style="stroke-width:.352778;stroke-dasharray:none"
       id="tspan14">Skills</tspan></text><text
     xml:space="preserve"
     x="770.836"
     y="139.74"
     style="font-style:normal;font-variant:normal;font-weight:400;font-stretch:normal;font-size:4.23333px;line-height:1.25;font-family:Arial;-inkscape-font-specification:Arial;white-space:pre;display:inline;fill:#000;fill-opacity:1;stroke:none;stroke-width:.352778;stroke-dasharray:none"
     transform="translate(-568.5 -97.34)"
     id="text15"><tspan
       style="stroke-width:.352778;stroke-dasharray:none"
       id="tspan15">Athletics</tspan></text><path
     d="m765.531 135.077-1.86 1.86v2.63l1.855 1.855h26.444l1.86-1.86v-2.63l-1.855-1.855H766.82z"
     style="font-variation-settings:normal;fill:none;fill-opacity:1;stroke:#000;stroke-width:.352778;stroke-linecap:butt;stroke-linejoin:miter;stroke-miterlimit:4;stroke-dasharray:none;stroke-dashoffset:0;stroke-opacity:1;stop-color:#000"
     transform="translate(-568.5 -97.34)"
     id="path15" /><text
     xml:space="preserve"
     x="769.909"
     y="147.695"
     style="font-style:normal;font-variant:normal;font-weight:400;font-stretch:normal;font-size:4.23333px;line-height:1.25;font-family:Arial;-inkscape-font-specification:Arial;white-space:pre;display:inline;fill:#000;fill-opacity:1;stroke:none;stroke-width:.352778;stroke-dasharray:none"
     transform="translate(-568.5 -97.34)"
     id="text16"><tspan
       style="stroke-width:.352778;stroke-dasharray:none"
       id="tspan16">Convince</tspan></text><path
     d="m765.531 143.007-1.86 1.86v2.63l1.855 1.855h26.444l1.86-1.86v-2.63l-1.855-1.855H766.82z"
     style="font-variation-settings:normal;fill:none;fill-opacity:1;stroke:#000;stroke-width:.352778;stroke-linecap:butt;stroke-linejoin:miter;stroke-miterlimit:4;stroke-dasharray:none;stroke-dashoffset:0;stroke-opacity:1;stop-color:#000"
     transform="translate(-568.5 -97.34)"
     id="path16" /><text
     xml:space="preserve"
     x="772.426"
     y="155.624"
     style="font-style:normal;font-variant:normal;font-weight:400;font-stretch:normal;font-size:4.23333px;line-height:1.25;font-family:Arial;-inkscape-font-specification:Arial;white-space:pre;display:inline;fill:#000;fill-opacity:1;stroke:none;stroke-width:.352778;stroke-dasharray:none"
     transform="translate(-568.5 -97.34)"
     id="text17"><tspan
       style="stroke-width:.352778;stroke-dasharray:none"
       id="tspan17">Covert</tspan></text><path
     d="m765.531 150.937-1.86 1.86v2.63l1.855 1.855h26.444l1.86-1.86v-2.63l-1.855-1.855H766.82z"
     style="font-variation-settings:normal;fill:none;fill-opacity:1;stroke:#000;stroke-width:.352778;stroke-linecap:butt;stroke-linejoin:miter;stroke-miterlimit:4;stroke-dasharray:none;stroke-dashoffset:0;stroke-opacity:1;stop-color:#000"
     transform="translate(-568.5 -97.34)"
     id="path17" /><text
     xml:space="preserve"
     x="771.253"
     y="163.529"
     style="font-style:normal;font-variant:normal;font-weight:400;font-stretch:normal;font-size:4.23333px;line-height:1.25;font-family:Arial;-inkscape-font-specification:Arial;white-space:pre;display:inline;fill:#000;fill-opacity:1;stroke:none;stroke-width:.352778;stroke-dasharray:none"
     transform="translate(-568.5 -97.34)"
     id="text18"><tspan
       style="stroke-width:.352778;stroke-dasharray:none"
       id="tspan18">Finesse</tspan></text><path
     d="m765.531 158.867-1.86 1.86v2.63l1.855 1.854h26.444l1.86-1.86v-2.63l-1.855-1.854H766.82z"
     style="font-variation-settings:normal;fill:none;fill-opacity:1;stroke:#000;stroke-width:.352778;stroke-linecap:butt;stroke-linejoin:miter;stroke-miterlimit:4;stroke-dasharray:none;stroke-dashoffset:0;stroke-opacity:1;stop-color:#000"
     transform="translate(-568.5 -97.34)"
     id="path18" /><text
     xml:space="preserve"
     x="772.332"
     y="171.039"
     style="font-style:normal;font-variant:normal;font-weight:400;font-stretch:normal;font-size:4.23333px;line-height:1.25;font-family:Arial;-inkscape-font-specification:Arial;white-space:pre;display:inline;fill:#000;fill-opacity:1;stroke:none;stroke-width:.352778;stroke-dasharray:none"
     transform="translate(-568.5 -97.34)"
     id="text19"><tspan
       style="stroke-width:.352778;stroke-dasharray:none"
       id="tspan19">Insight</tspan></text><path
     d="m765.531 166.796-1.86 1.86v2.63l1.855 1.855h26.444l1.86-1.86v-2.63l-1.855-1.855H766.82z"
     style="font-variation-settings:normal;fill:none;fill-opacity:1;stroke:#000;stroke-width:.352778;stroke-linecap:butt;stroke-linejoin:miter;stroke-miterlimit:4;stroke-dasharray:none;stroke-dashoffset:0;stroke-opacity:1;stop-color:#000"
     transform="translate(-568.5 -97.34)"
     id="path19" /><text
     xml:space="preserve"
     x="769.464"
     y="179.389"
     style="font-style:normal;font-variant:normal;font-weight:400;font-stretch:normal;font-size:4.23333px;line-height:1.25;font-family:Arial;-inkscape-font-specification:Arial;white-space:pre;display:inline;fill:#000;fill-opacity:1;stroke:none;stroke-width:.352778;stroke-dasharray:none"
     transform="translate(-568.5 -97.34)"
     id="text20"><tspan
       style="stroke-width:.352778;stroke-dasharray:none"
       id="tspan20">Intimidate</tspan></text><path
     d="m765.531 174.726-1.86 1.86v2.63l1.855 1.855h26.444l1.86-1.86v-2.63l-1.855-1.855H766.82z"
     style="font-variation-settings:normal;fill:none;fill-opacity:1;stroke:#000;stroke-width:.352778;stroke-linecap:butt;stroke-linejoin:miter;stroke-miterlimit:4;stroke-dasharray:none;stroke-dashoffset:0;stroke-opacity:1;stop-color:#000"
     transform="translate(-568.5 -97.34)"
     id="path20" /><text
     xml:space="preserve"
     x="770.21"
     y="187.319"
     style="font-style:normal;font-variant:normal;font-weight:400;font-stretch:normal;font-size:4.23333px;line-height:1.25;font-family:Arial;-inkscape-font-specification:Arial;white-space:pre;display:inline;fill:#000;fill-opacity:1;stroke:none;stroke-width:.352778;stroke-dasharray:none"
     transform="translate(-568.5 -97.34)"
     id="text21"><tspan
       style="stroke-width:.352778;stroke-dasharray:none"
       id="tspan21">Medicine</tspan></text><path
     d="m765.531 182.656-1.86 1.86v2.63l1.855 1.855h26.444l1.86-1.86v-2.63l-1.855-1.855H766.82z"
     style="font-variation-settings:normal;fill:none;fill-opacity:1;stroke:#000;stroke-width:.352778;stroke-linecap:butt;stroke-linejoin:miter;stroke-miterlimit:4;stroke-dasharray:none;stroke-dashoffset:0;stroke-opacity:1;stop-color:#000"
     transform="translate(-568.5 -97.34)"
     id="path21" /><text
     xml:space="preserve"
     x="767.447"
     y="195.249"
     style="font-style:normal;font-variant:normal;font-weight:400;font-stretch:normal;font-size:4.23333px;line-height:1.25;font-family:Arial;-inkscape-font-specification:Arial;white-space:pre;display:inline;fill:#000;fill-opacity:1;stroke:none;stroke-width:.352778;stroke-dasharray:none"
     transform="translate(-568.5 -97.34)"
     id="text22"><tspan
       style="stroke-width:.352778;stroke-dasharray:none"
       id="tspan22">Misdirection</tspan></text><path
     d="m765.531 190.586-1.86 1.86v2.63l1.855 1.855h26.444l1.86-1.86v-2.63l-1.855-1.855H766.82z"
     style="font-variation-settings:normal;fill:none;fill-opacity:1;stroke:#000;stroke-width:.352778;stroke-linecap:butt;stroke-linejoin:miter;stroke-miterlimit:4;stroke-dasharray:none;stroke-dashoffset:0;stroke-opacity:1;stop-color:#000"
     transform="translate(-568.5 -97.34)"
     id="path22" /><text
     xml:space="preserve"
     x="768.613"
     y="202.783"
     style="font-style:normal;font-variant:normal;font-weight:400;font-stretch:normal;font-size:4.23333px;line-height:1.25;font-family:Arial;-inkscape-font-specification:Arial;white-space:pre;display:inline;fill:#000;fill-opacity:1;stroke:none;stroke-width:.352778;stroke-dasharray:none"
     transform="translate(-568.5 -97.34)"
     id="text23"><tspan
       style="stroke-width:.352778;stroke-dasharray:none"
       id="tspan23">Perception</tspan></text><path
     d="m765.531 198.516-1.86 1.86v2.63l1.855 1.854h26.444l1.86-1.86v-2.63l-1.855-1.854H766.82z"
     style="font-variation-settings:normal;fill:none;fill-opacity:1;stroke:#000;stroke-width:.352778;stroke-linecap:butt;stroke-linejoin:miter;stroke-miterlimit:4;stroke-dasharray:none;stroke-dashoffset:0;stroke-opacity:1;stop-color:#000"
     transform="translate(-568.5 -97.34)"
     id="path23" /><text
     xml:space="preserve"
     x="769.669"
     y="211.108"
     style="font-style:normal;font-variant:normal;font-weight:400;font-stretch:normal;font-size:4.23333px;line-height:1.25;font-family:Arial;-inkscape-font-specification:Arial;white-space:pre;display:inline;fill:#000;fill-opacity:1;stroke:none;stroke-width:.352778;stroke-dasharray:none"
     transform="translate(-568.5 -97.34)"
     id="text24"><tspan
       style="stroke-width:.352778;stroke-dasharray:none"
       id="tspan24">Research</tspan></text><path
     d="m765.531 206.445-1.86 1.86v2.63l1.855 1.855h26.444l1.86-1.86v-2.63l-1.855-1.855H766.82z"
     style="font-variation-settings:normal;fill:none;fill-opacity:1;stroke:#000;stroke-width:.352778;stroke-linecap:butt;stroke-linejoin:miter;stroke-miterlimit:4;stroke-dasharray:none;stroke-dashoffset:0;stroke-opacity:1;stop-color:#000"
     transform="translate(-568.5 -97.34)"
     id="path24" /><text
     xml:space="preserve"
     x="771.276"
     y="219.063"
     style="font-style:normal;font-variant:normal;font-weight:400;font-stretch:normal;font-size:4.23333px;line-height:1.25;font-family:Arial;-inkscape-font-specification:Arial;white-space:pre;display:inline;fill:#000;fill-opacity:1;stroke:none;stroke-width:.352778;stroke-dasharray:none"
     transform="translate(-568.5 -97.34)"
     id="text25"><tspan
       style="stroke-width:.352778;stroke-dasharray:none"
       id="tspan25">Survival</tspan></text><path
     d="m765.531 214.375-1.86 1.86v2.63l1.855 1.855h26.444l1.86-1.86v-2.63l-1.855-1.855H766.82z"
     style="font-variation-settings:normal;fill:none;fill-opacity:1;stroke:#000;stroke-width:.352778;stroke-linecap:butt;stroke-linejoin:miter;stroke-miterlimit:4;stroke-dasharray:none;stroke-dashoffset:0;stroke-opacity:1;stop-color:#000"
     transform="translate(-568.5 -97.34)"
     id="path25" /><text
     xml:space="preserve"
     x="765.566"
     y="226.488"
     style="font-style:normal;font-variant:normal;font-weight:400;font-stretch:normal;font-size:2.82222px;line-height:1.25;font-family:Arial;-inkscape-font-specification:Arial;white-space:pre;display:inline;fill:#000;fill-opacity:1;stroke:none;stroke-width:.352778;stroke-dasharray:none"
     transform="translate(-568.5 -97.34)"
     id="text26"><tspan
       style="font-size:2.82222px;stroke-width:.352778;stroke-dasharray:none"
       id="tspan26">SP:</tspan></text><path
     d="m765.531 222.305-1.86 1.86v2.63l1.855 1.855h26.444l1.86-1.86v-2.63l-1.855-1.855H766.82z"
     style="font-variation-settings:normal;fill:none;fill-opacity:1;stroke:#000;stroke-width:.352778;stroke-linecap:butt;stroke-linejoin:miter;stroke-miterlimit:4;stroke-dasharray:none;stroke-dashoffset:0;stroke-opacity:1;stop-color:#000"
     transform="translate(-568.5 -97.34)"
     id="path26" /><path
     d="M839.88 150.942h-3.176l-1.587 1.588v3.175l3.175 1.587 3.175-1.587v-3.175z"
     style="font-variation-settings:normal;vector-effect:none;fill:none;fill-opacity:1;stroke:#000;stroke-width:.352777;stroke-linecap:butt;stroke-linejoin:miter;stroke-miterlimit:4;stroke-dasharray:none;stroke-dashoffset:0;stroke-opacity:1;-inkscape-stroke:none;stop-color:#000"
     transform="translate(-568.5 -97.34)"
     id="path27" /><path
     d="m805.268 150.937-1.86 1.86v2.63l1.855 1.855h26.444l1.86-1.86v-2.63l-1.855-1.855h-25.154z"
     style="font-variation-settings:normal;fill:#000;fill-opacity:1;stroke:#000;stroke-width:.352778;stroke-linecap:butt;stroke-linejoin:miter;stroke-miterlimit:4;stroke-dasharray:none;stroke-dashoffset:0;stroke-opacity:1;stop-color:#000"
     transform="translate(-568.5 -97.34)"
     id="path28" /><path
     d="m686.062 230.235-1.86 1.86v6.35l1.86-1.86 25.03-.005-1.855-1.855v-2.63l1.86-1.86z"
     style="font-variation-settings:normal;vector-effect:none;fill:#000;fill-opacity:1;stroke:#000;stroke-width:.352777;stroke-linecap:butt;stroke-linejoin:miter;stroke-miterlimit:4;stroke-dasharray:none;stroke-dashoffset:0;stroke-opacity:1;-inkscape-stroke:none;stop-color:#000"
     transform="translate(-568.5 -97.34)"
     id="path29" /><text
     xml:space="preserve"
     x="687.382"
     y="234.48"
     style="font-style:normal;font-variant:normal;font-weight:700;font-stretch:normal;font-size:4.23333px;line-height:1.25;font-family:Arial;-inkscape-font-specification:&quot;Arial Bold&quot;;white-space:pre;display:inline;fill:#fff;stroke:none;stroke-width:.352778;stroke-dasharray:none"
     transform="translate(-568.5 -97.34)"
     id="text29"><tspan
       style="fill:#fff;stroke:none;stroke-width:.352778;stroke-dasharray:none"
       id="tspan29">Archetype</tspan></text><path
     d="m711.096 230.235-1.86 1.86v2.63l1.855 1.855h32.839l3.15.005v-.005h11.854l3.15.005v-4.495l-1.855-1.855h-47.843zm.001-103.078-1.86 1.86v4.205l1.855 1.855h32.839l3.149.005v-.005h11.855l3.149.005v-6.07l-1.855-1.855h-47.843z"
     style="font-variation-settings:normal;fill:#fff;fill-opacity:1;stroke:#000;stroke-width:.352778;stroke-linecap:butt;stroke-linejoin:miter;stroke-miterlimit:4;stroke-dasharray:none;stroke-dashoffset:0;stroke-opacity:1;stop-color:#000"
     transform="translate(-568.5 -97.34)"
     id="path30" /><path
     d="m758.5 135.49-.81.81h-1.147v1.146l-.811.811.81.81v1.147h1.148l.81.81.811-.81h1.147v-1.146l.811-.81-.81-.811V136.3h-1.147z"
     style="font-variation-settings:normal;fill:#fff;fill-opacity:1;stroke:none;stroke-width:.352778;stroke-linecap:butt;stroke-linejoin:miter;stroke-miterlimit:4;stroke-dasharray:none;stroke-dashoffset:0;stroke-opacity:1;stop-color:#000"
     transform="translate(-568.5 -97.34)"
     id="path31" /><text
     xml:space="preserve"
     x="812.11"
     y="155.6"
     style="font-style:normal;font-variant:normal;font-weight:700;font-stretch:normal;font-size:4.23333px;line-height:1.25;font-family:Arial;-inkscape-font-specification:&quot;Arial Bold&quot;;white-space:pre;display:inline;fill:#fff;fill-opacity:1;stroke:none;stroke-width:.352778;stroke-dasharray:none"
     transform="translate(-568.5 -97.34)"
     id="text31"><tspan
       style="fill:#fff;stroke-width:.352778;stroke-dasharray:none"
       id="tspan31">Armor</tspan></text><path
     d="m805.263 174.726-1.86 1.86v4.49h.001v1.86l1.86-1.86-.01-.005h34.441l1.86 1.86v-6.35l-1.855-1.855h-27.122z"
     style="font-variation-settings:normal;vector-effect:none;fill:#000;fill-opacity:1;stroke:#000;stroke-width:.264583;stroke-linecap:butt;stroke-linejoin:miter;stroke-miterlimit:4;stroke-dasharray:none;stroke-dashoffset:0;stroke-opacity:1;-inkscape-stroke:none;stop-color:#000"
     transform="translate(-568.5 -97.34)"
     id="path32" /><text
     xml:space="preserve"
     x="808.84"
     y="179.007"
     style="font-style:normal;font-variant:normal;font-weight:700;font-stretch:normal;font-size:4.23333px;line-height:1.25;font-family:Arial;-inkscape-font-specification:&quot;Arial Bold&quot;;white-space:pre;display:inline;fill:#fff;fill-opacity:1;stroke:none;stroke-width:.352778;stroke-dasharray:none"
     transform="translate(-568.5 -97.34)"
     id="text32"><tspan
       style="stroke-width:.352778;stroke-dasharray:none"
       id="tspan32">Inventory</tspan></text><path
     d="m833.561 181.107-30.157.005v45.76l1.922 1.778H839.7l1.86-1.86v-45.684h-6.414z"
     style="font-variation-settings:normal;vector-effect:none;fill:none;fill-opacity:1;stroke:#000;stroke-width:.264583;stroke-linecap:butt;stroke-linejoin:miter;stroke-miterlimit:4;stroke-dasharray:none;stroke-dashoffset:0;stroke-opacity:1;-inkscape-stroke:none;stop-color:#000"
     transform="translate(-568.5 -97.34)"
     id="path33" /><path
     d="m837.145 175.168-.599 1.023-1.023.599v2.294l1.023.599.6 1.022h2.293l.599-1.022 1.023-.6v-2.293l-1.023-.6-.6-1.022h-1.146z"
     style="font-variation-settings:normal;fill:#fff;fill-opacity:1;stroke:#000;stroke-width:.352778;stroke-linecap:butt;stroke-linejoin:miter;stroke-miterlimit:4;stroke-dasharray:none;stroke-dashoffset:0;stroke-opacity:1;stop-color:#000"
     transform="translate(-568.5 -97.34)"
     id="path34" /><text
     xml:space="preserve"
     x="685.453"
     y="139.972"
     style="font-style:normal;font-variant:normal;font-weight:400;font-stretch:normal;font-size:4.23333px;line-height:1.25;font-family:Arial;-inkscape-font-specification:Arial;white-space:pre;display:inline;fill:#000;fill-opacity:1;stroke:none;stroke-width:.352778;stroke-dasharray:none"
     transform="translate(-568.5 -97.34)"
     id="text34"><tspan
       style="stroke-width:.352778;stroke-dasharray:none"
       id="tspan34">Bio: </tspan></text><text
     xml:space="preserve"
     x="685.452"
     y="169.515"
     style="font-style:normal;font-variant:normal;font-weight:400;font-stretch:normal;font-size:4.23333px;line-height:1.25;font-family:Arial;-inkscape-font-specification:Arial;white-space:pre;display:inline;fill:#000;fill-opacity:1;stroke:none;stroke-width:.352778;stroke-dasharray:none"
     transform="translate(-568.5 -97.34)"
     id="text35"><tspan
       style="stroke-width:.352778;stroke-dasharray:none"
       id="tspan35">Beliefs:</tspan></text><text
     xml:space="preserve"
     x="685.452"
     y="199.056"
     style="font-style:normal;font-variant:normal;font-weight:400;font-stretch:normal;font-size:4.23333px;line-height:1.25;font-family:Arial;-inkscape-font-specification:Arial;white-space:pre;display:inline;fill:#000;fill-opacity:1;stroke:none;stroke-width:.352778;stroke-dasharray:none"
     transform="translate(-568.5 -97.34)"
     id="text36"><tspan
       style="stroke-width:.352778;stroke-dasharray:none"
       id="tspan36">Goals:</tspan></text><path
     d="M804.983 189.793h34.976m-34.973 7.93h34.97m-34.968 7.93h34.966m-34.961 7.93h34.957m-34.957 7.93h34.957"
     style="font-variation-settings:normal;vector-effect:none;fill:none;fill-opacity:1;stroke:#000;stroke-width:.264583;stroke-linecap:butt;stroke-linejoin:miter;stroke-miterlimit:4;stroke-dasharray:1.05833,.264583;stroke-dashoffset:0;stroke-opacity:.25;-inkscape-stroke:none;stop-color:#000"
     transform="translate(-568.5 -97.34)"
     id="path36" /><path
     d="m592.084 125.559 1.335-1.335h4.67l1.334 1.334 3.303-3.302-1.335-1.335v-4.67l1.335-1.335-3.303-3.302-1.334 1.335h-4.67l-1.335-1.335-3.302 3.302 1.334 1.335v4.67l-1.335 1.335z"
     style="font-variation-settings:normal;vector-effect:none;fill:none;fill-opacity:1;stroke:#000;stroke-width:.352778;stroke-linecap:butt;stroke-linejoin:miter;stroke-miterlimit:4;stroke-dasharray:none;stroke-dashoffset:0;stroke-opacity:1;-inkscape-stroke:none;stop-color:#000"
     transform="translate(-568.5 -97.34)"
     id="path37" /><path
     d="m621.688 103.657-1.86 1.86v2.63l1.854 1.855h38.094l1.86-1.86v-2.63l-1.855-1.855h-36.804z"
     style="font-variation-settings:normal;fill:#000;fill-opacity:1;stroke:#000;stroke-width:.352778;stroke-linecap:butt;stroke-linejoin:miter;stroke-miterlimit:4;stroke-dasharray:none;stroke-dashoffset:0;stroke-opacity:1;stop-color:#000"
     transform="translate(-568.5 -97.34)"
     id="path38" /><text
     xml:space="preserve"
     x="630.665"
     y="107.927"
     style="font-style:normal;font-variant:normal;font-weight:700;font-stretch:normal;font-size:4.23333px;line-height:1.25;font-family:Arial;-inkscape-font-specification:&quot;Arial Bold&quot;;white-space:pre;display:inline;fill:#fff;fill-opacity:1;stroke:none;stroke-width:.352778;stroke-dasharray:none"
     transform="translate(-568.5 -97.34)"
     id="text38"><tspan
       style="stroke-width:.352778;stroke-dasharray:none"
       id="tspan38">Discipline</tspan></text><path
     d="m666.666 103.69-1.86 1.859v2.63l1.855 1.855h38.094l1.86-1.86v-2.63l-1.855-1.855h-36.804z"
     style="font-variation-settings:normal;fill:#000;fill-opacity:1;stroke:#000;stroke-width:.352778;stroke-linecap:butt;stroke-linejoin:miter;stroke-miterlimit:4;stroke-dasharray:none;stroke-dashoffset:0;stroke-opacity:1;stop-color:#000"
     transform="translate(-568.5 -97.34)"
     id="path39" /><text
     xml:space="preserve"
     x="675.168"
     y="108.352"
     style="font-style:normal;font-variant:normal;font-weight:700;font-stretch:normal;font-size:4.23333px;line-height:1.25;font-family:Arial;-inkscape-font-specification:&quot;Arial Bold&quot;;white-space:pre;display:inline;fill:#fff;fill-opacity:1;stroke:none;stroke-width:.352778;stroke-dasharray:none"
     transform="translate(-568.5 -97.34)"
     id="text39"><tspan
       style="stroke-width:.352778;stroke-dasharray:none"
       id="tspan39">Resilience</tspan></text><path
     d="m711.644 103.69-1.86 1.859v2.63l1.855 1.855h38.094l1.86-1.86v-2.63l-1.855-1.855h-36.804z"
     style="font-variation-settings:normal;fill:#000;fill-opacity:1;stroke:#000;stroke-width:.352778;stroke-linecap:butt;stroke-linejoin:miter;stroke-miterlimit:4;stroke-dasharray:none;stroke-dashoffset:0;stroke-opacity:1;stop-color:#000"
     transform="translate(-568.5 -97.34)"
     id="path40" /><text
     xml:space="preserve"
     x="721.089"
     y="108.352"
     style="font-style:normal;font-variant:normal;font-weight:700;font-stretch:normal;font-size:4.23333px;line-height:1.25;font-family:Arial;-inkscape-font-specification:&quot;Arial Bold&quot;;white-space:pre;display:inline;fill:#fff;fill-opacity:1;stroke:none;stroke-width:.352778;stroke-dasharray:none"
     transform="translate(-568.5 -97.34)"
     id="text40"><tspan
       style="stroke-width:.352778;stroke-dasharray:none"
       id="tspan40">Brilliance</tspan></text><path
     d="m756.622 103.69-1.86 1.859v2.63l1.855 1.855h38.094l1.86-1.86v-2.63l-1.855-1.855h-36.804z"
     style="font-variation-settings:normal;fill:#000;fill-opacity:1;stroke:#000;stroke-width:.352778;stroke-linecap:butt;stroke-linejoin:miter;stroke-miterlimit:4;stroke-dasharray:none;stroke-dashoffset:0;stroke-opacity:1;stop-color:#000"
     transform="translate(-568.5 -97.34)"
     id="path41" /><text
     xml:space="preserve"
     x="764.372"
     y="108.377"
     style="font-style:normal;font-variant:normal;font-weight:700;font-stretch:normal;font-size:4.23333px;line-height:1.25;font-family:Arial;-inkscape-font-specification:&quot;Arial Bold&quot;;white-space:pre;display:inline;fill:#fff;fill-opacity:1;stroke:none;stroke-width:.352778;stroke-dasharray:none"
     transform="translate(-568.5 -97.34)"
     id="text41"><tspan
       style="stroke-width:.352778;stroke-dasharray:none"
       id="tspan41">Cleverness</tspan></text><path
     d="m801.6 103.69-1.86 1.859v2.63l1.855 1.855h38.094l1.86-1.86v-2.63l-1.855-1.855H802.89z"
     style="font-variation-settings:normal;fill:#000;fill-opacity:1;stroke:#000;stroke-width:.352778;stroke-linecap:butt;stroke-linejoin:miter;stroke-miterlimit:4;stroke-dasharray:none;stroke-dashoffset:0;stroke-opacity:1;stop-color:#000"
     transform="translate(-568.5 -97.34)"
     id="path42" /><text
     xml:space="preserve"
     x="811.161"
     y="108.352"
     style="font-style:normal;font-variant:normal;font-weight:700;font-stretch:normal;font-size:4.23333px;line-height:1.25;font-family:Arial;-inkscape-font-specification:&quot;Arial Bold&quot;;white-space:pre;display:inline;fill:#fff;fill-opacity:1;stroke:none;stroke-width:.352778;stroke-dasharray:none"
     transform="translate(-568.5 -97.34)"
     id="text42"><tspan
       style="stroke-width:.352778;stroke-dasharray:none"
       id="tspan42">Presence</tspan></text><path
     d="m637.062 125.559 1.335-1.335h4.67l1.335 1.334 3.302-3.302-1.335-1.335v-4.67l1.335-1.335-3.302-3.302-1.335 1.335h-4.67l-1.335-1.335-3.302 3.302 1.334 1.335v4.67l-1.334 1.335zm44.978 0 1.335-1.335h4.67l1.335 1.334 3.302-3.302-1.334-1.335v-4.67l1.334-1.335-3.302-3.302-1.335 1.335h-4.67l-1.335-1.335-3.302 3.302 1.335 1.335v4.67l-1.335 1.335zm44.978 0 1.335-1.335h4.67l1.335 1.334 3.302-3.302-1.334-1.335v-4.67l1.335-1.335-3.303-3.302-1.335 1.335h-4.67l-1.335-1.335-3.302 3.302 1.335 1.335v4.67l-1.335 1.335zm44.979 0 1.334-1.335h4.67l1.335 1.334 3.303-3.302-1.335-1.335v-4.67l1.335-1.335-3.303-3.302-1.334 1.335h-4.67l-1.335-1.335-3.303 3.302 1.335 1.335v4.67l-1.335 1.335zm44.978 0 1.335-1.335h4.67l1.334 1.334 3.303-3.302-1.335-1.335v-4.67l1.335-1.335-3.303-3.302-1.334 1.335h-4.67l-1.335-1.335-3.302 3.302 1.334 1.335v4.67l-1.335 1.335z"
     style="font-variation-settings:normal;vector-effect:none;fill:none;fill-opacity:1;stroke:#000;stroke-width:.352778;stroke-linecap:butt;stroke-linejoin:miter;stroke-miterlimit:4;stroke-dasharray:none;stroke-dashoffset:0;stroke-opacity:1;-inkscape-stroke:none;stop-color:#000"
     transform="translate(-568.5 -97.34)"
     id="path43" /><path
     d="m797.938 139.219-1.232 1.232-1.232-1.232 1.232-1.232zm1.942-1.943-1.231 1.231-1.232-1.231 1.232-1.232zm1.944 1.943-1.232 1.232-1.232-1.232 1.232-1.232zm-3.886 7.929-1.232 1.232-1.232-1.232 1.232-1.231zm1.942-1.943-1.231 1.232-1.232-1.232 1.232-1.232zm1.944 1.943-1.232 1.232-1.232-1.232 1.232-1.231zm-3.886 7.93-1.232 1.232-1.232-1.232 1.232-1.232zm1.942-1.943-1.231 1.232-1.232-1.232 1.232-1.232zm1.944 1.943-1.232 1.232-1.232-1.232 1.232-1.232zm-3.886 7.935-1.232 1.232-1.232-1.232 1.232-1.232zm1.942-1.943-1.231 1.232-1.232-1.232 1.232-1.232zm1.944 1.943-1.232 1.232-1.232-1.232 1.232-1.232zm-3.886 7.93-1.232 1.232-1.232-1.232 1.232-1.232zM799.88 169l-1.231 1.232-1.232-1.232 1.232-1.232zm1.944 1.943-1.232 1.232-1.232-1.232 1.232-1.232zm-3.886 7.93-1.232 1.232-1.232-1.232 1.232-1.232zm1.942-1.943-1.231 1.232-1.232-1.232 1.232-1.232zm1.944 1.943-1.232 1.232-1.232-1.232 1.232-1.232zm-3.886 7.93-1.232 1.231-1.232-1.231 1.232-1.232zm1.942-1.943-1.231 1.231-1.232-1.232 1.232-1.231zm1.944 1.943-1.232 1.231-1.232-1.231 1.232-1.232zm-3.886 7.929-1.232 1.232-1.232-1.232 1.232-1.232zm1.942-1.942-1.231 1.231-1.232-1.232 1.232-1.232zm1.944 1.942-1.232 1.232-1.232-1.232 1.232-1.232zm-3.886 7.93-1.232 1.232-1.232-1.232 1.232-1.232zm1.942-1.943-1.231 1.232-1.232-1.232 1.232-1.232zm1.944 1.943-1.232 1.232-1.232-1.232 1.232-1.232zm-3.886 7.93-1.232 1.232-1.232-1.232 1.232-1.232zm1.942-1.943-1.231 1.232-1.232-1.232 1.232-1.232zm1.944 1.943-1.232 1.232-1.232-1.232 1.232-1.232zm-3.886 7.93-1.232 1.232-1.232-1.232 1.232-1.232zm1.942-1.943-1.231 1.231-1.232-1.231 1.232-1.232zm1.944 1.943-1.232 1.232-1.232-1.232 1.232-1.232zm-3.886 7.929-1.232 1.232-1.232-1.232 1.232-1.231zm1.942-1.943-1.231 1.232-1.232-1.232 1.232-1.232zm1.944 1.943-1.232 1.232-1.232-1.232 1.232-1.231zm7.884-78.234 1.134 1.135h8.961l1.86-1.86-.014-8.98-1.86-1.86h-2.694zm5.656-12.005-1.135-1.135h-8.96l-1.86 1.86.013 8.98 1.86 1.86h2.695zm14.183 12.005 1.135 1.135h8.96l1.86-1.86-.013-8.98-1.86-1.86h-2.695zm5.657-12.005-1.135-1.135h-8.961l-1.86 1.86.014 8.98 1.86 1.86h2.694z"
     style="font-variation-settings:normal;vector-effect:none;fill:none;fill-opacity:1;stroke:#000;stroke-width:.264583;stroke-linecap:butt;stroke-linejoin:miter;stroke-miterlimit:4;stroke-dasharray:none;stroke-dashoffset:0;stroke-opacity:1;-inkscape-stroke:none;stop-color:#000"
     transform="translate(-568.5 -97.34)"
     id="path44" /><path
     d="m765.531 135.077-1.86 1.86v2.63l1.855 1.855h26.444l1.86-1.86v-2.63l-1.855-1.855H766.82z"
     style="font-variation-settings:normal;fill:none;fill-opacity:1;stroke:#000;stroke-width:.352778;stroke-linecap:butt;stroke-linejoin:miter;stroke-miterlimit:4;stroke-dasharray:none;stroke-dashoffset:0;stroke-opacity:1;stop-color:#000"
     transform="translate(-568.5 -97.34)"
     id="path45" /><text
     xml:space="preserve"
     x="778.293"
     y="320.968"
     style="font-style:normal;font-variant:normal;font-weight:400;font-stretch:normal;font-size:4.23333px;line-height:1.25;font-family:Arial;-inkscape-font-specification:Arial;white-space:pre;display:inline;fill:#000;fill-opacity:1;stroke:none;stroke-width:.352778;stroke-dasharray:none"
     transform="translate(-580.622 -170.71)"
     id="text45"><tspan
       style="stroke-width:.352778;stroke-dasharray:none"
       id="tspan45">Attribute: </tspan></text><text
     xml:space="preserve"
     x="822.851"
     y="320.775"
     style="font-style:normal;font-variant:normal;font-weight:400;font-stretch:normal;font-size:4.23333px;line-height:1.25;font-family:Arial;-inkscape-font-specification:Arial;white-space:pre;display:inline;fill:#000;fill-opacity:1;stroke:none;stroke-width:.352778;stroke-dasharray:none"
     transform="translate(-580.622 -170.71)"
     id="text46"><tspan
       style="stroke-width:.352778;stroke-dasharray:none"
       id="tspan46">Damage: </tspan></text><text
     xml:space="preserve"
     x="778.293"
     y="327.328"
     style="font-style:normal;font-variant:normal;font-weight:400;font-stretch:normal;font-size:4.23333px;line-height:1.25;font-family:Arial;-inkscape-font-specification:Arial;white-space:pre;display:inline;fill:#000;fill-opacity:1;stroke:none;stroke-width:.352778;stroke-dasharray:none"
     transform="translate(-580.622 -170.71)"
     id="text47"><tspan
       style="stroke-width:.352778;stroke-dasharray:none"
       id="tspan47">Armament: </tspan></text><text
     xml:space="preserve"
     x="778.055"
     y="339.958"
     style="font-style:normal;font-variant:normal;font-weight:400;font-stretch:normal;font-size:4.23333px;line-height:1.25;font-family:Arial;-inkscape-font-specification:Arial;white-space:pre;display:inline;fill:#000;fill-opacity:1;stroke:none;stroke-width:.352778;stroke-dasharray:none"
     transform="translate(-580.622 -170.71)"
     id="text48"><tspan
       style="stroke-width:.352778;stroke-dasharray:none"
       id="tspan48">Traits:</tspan></text><text
     xml:space="preserve"
     x="778.055"
     y="333.597"
     style="font-style:normal;font-variant:normal;font-weight:400;font-stretch:normal;font-size:4.23333px;line-height:1.25;font-family:Arial;-inkscape-font-specification:Arial;white-space:pre;display:inline;fill:#000;fill-opacity:1;stroke:none;stroke-width:.352778;stroke-dasharray:none"
     transform="translate(-580.622 -170.71)"
     id="text49"><tspan
       style="stroke-width:.352778;stroke-dasharray:none"
       id="tspan49">Role:</tspan></text></svg>
