<svg xmlns="http://www.w3.org/2000/svg" xml:space="preserve" width="11in" height="816" viewBox="0 0 279.4 215.9"><defs><path id="a" d="M24 24h336v24H24z"/></defs><path d="M0-279.4h215.9V0H0z" style="font-variation-settings:normal;display:inline;fill:#fff;fill-opacity:1;fill-rule:evenodd;stroke:none;stroke-width:.705556;stroke-linecap:butt;stroke-linejoin:miter;stroke-miterlimit:4;stroke-dasharray:none;stroke-dashoffset:0;stroke-opacity:1;stop-color:#000" transform="rotate(90)"/><text xml:space="preserve" x="200.372" y="198.875" style="font-style:normal;font-variant:normal;font-weight:400;font-stretch:normal;font-size:4.23333px;line-height:1.25;font-family:Arial;-inkscape-font-specification:Arial;stroke-width:.264583"/><path d="M96.855 61.88h71.45v6.35h-71.45z" style="font-variation-settings:normal;vector-effect:none;fill:#000;fill-opacity:1;fill-rule:evenodd;stroke:#000;stroke-width:.352777;stroke-linecap:butt;stroke-linejoin:miter;stroke-miterlimit:4;stroke-dasharray:none;stroke-dashoffset:0;stroke-opacity:1;-inkscape-stroke:none;stop-color:#000"/><text xml:space="preserve" x="112.511" y="66.178" style="font-style:normal;font-variant:normal;font-weight:700;font-stretch:normal;font-size:4.23333px;line-height:1.25;font-family:Arial;-inkscape-font-specification:&quot;Arial Bold&quot;;white-space:pre;display:inline;fill:#fff;stroke:none;stroke-width:.264583"><tspan style="stroke-width:.264583">Combat Techniques</tspan></text><path d="M96.855 6.35H273.05v6.35H96.855z" style="vector-effect:none;fill:#000;fill-opacity:1;fill-rule:evenodd;stroke:#000;stroke-width:.352778;stroke-linecap:butt;stroke-linejoin:miter;stroke-miterlimit:4;stroke-dasharray:none;stroke-dashoffset:0;stroke-opacity:1;-inkscape-stroke:none;stop-color:#000"/><text xml:space="preserve" x="169.167" y="10.595" style="font-style:normal;font-variant:normal;font-weight:700;font-stretch:normal;font-size:4.23333px;line-height:1.25;font-family:Arial;-inkscape-font-specification:&quot;Arial Bold&quot;;white-space:pre;display:inline;fill:#fff;stroke:none;stroke-width:.264583"><tspan style="stroke-width:.264583">Abilities - Major</tspan></text><path d="M9.208 188.92h27v6.35h-27z" style="font-variation-settings:normal;vector-effect:none;fill:#000;fill-opacity:1;fill-rule:evenodd;stroke:#000;stroke-width:.352778;stroke-linecap:butt;stroke-linejoin:miter;stroke-miterlimit:4;stroke-dasharray:none;stroke-dashoffset:0;stroke-opacity:1;-inkscape-stroke:none;stop-color:#000"/><text xml:space="preserve" x="13.143" y="193.165" style="font-style:normal;font-variant:normal;font-weight:700;font-stretch:normal;font-size:4.23333px;line-height:1.25;font-family:Arial;-inkscape-font-specification:&quot;Arial Bold&quot;;white-space:pre;display:inline;fill:#fff;fill-opacity:1;stroke:none;stroke-width:.705556;stroke-dasharray:none"><tspan style="stroke-width:.705556">Physique </tspan></text><path d="M222.275 139.69h24.587v6.35h-24.587zM248.453 139.69h24.587v6.35h-24.587zM222.275 147.63h24.587v6.35h-24.587zM248.453 147.63h24.587v6.35h-24.587zM222.275 155.57h24.587v6.35h-24.587zM248.453 155.57h24.587v6.35h-24.587zM222.275 163.51h24.587v6.35h-24.587zM248.453 163.51h24.587v6.35h-24.587zM222.275 171.45h24.587v6.35h-24.587zM248.453 171.45h24.587v6.35h-24.587zM222.275 179.39h24.587v6.35h-24.587zM248.453 179.39h24.587v6.35h-24.587zM169.896 69.82h50.8v12.7h-50.8z" style="font-variation-settings:normal;vector-effect:none;fill:none;fill-opacity:1;fill-rule:evenodd;stroke:#000;stroke-width:.352777;stroke-linecap:butt;stroke-linejoin:miter;stroke-miterlimit:4;stroke-dasharray:none;stroke-dashoffset:0;stroke-opacity:1;-inkscape-stroke:none;stop-color:#000"/><text xml:space="preserve" x="225.538" y="96.715" style="font-style:normal;font-variant:normal;font-weight:400;font-stretch:normal;font-size:4.23334px;line-height:1.25;font-family:Arial;-inkscape-font-specification:Arial;white-space:pre;display:inline;fill:#000;fill-opacity:1;stroke:none;stroke-width:.705555;stroke-dasharray:none"><tspan style="stroke-width:.705555">Level</tspan></text><path d="M222.286 92.05h16.637v6.35h-16.637z" style="font-variation-settings:normal;vector-effect:none;fill:none;fill-opacity:1;fill-rule:evenodd;stroke:#000;stroke-width:.352777;stroke-linecap:butt;stroke-linejoin:miter;stroke-miterlimit:4;stroke-dasharray:none;stroke-dashoffset:0;stroke-opacity:1;-inkscape-stroke:none;stop-color:#000"/><text xml:space="preserve" x="250.708" y="96.345" style="font-style:normal;font-variant:normal;font-weight:400;font-stretch:normal;font-size:4.23334px;line-height:1.25;font-family:Arial;-inkscape-font-specification:Arial;white-space:pre;display:inline;fill:#000;fill-opacity:1;stroke:none;stroke-width:.705555;stroke-dasharray:none"><tspan style="stroke-width:.705555">Speed</tspan></text><path d="M248.453 92.05h16.637v6.35h-16.637z" style="font-variation-settings:normal;vector-effect:none;fill:none;fill-opacity:1;fill-rule:evenodd;stroke:#000;stroke-width:.352777;stroke-linecap:butt;stroke-linejoin:miter;stroke-miterlimit:4;stroke-dasharray:none;stroke-dashoffset:0;stroke-opacity:1;-inkscape-stroke:none;stop-color:#000"/><path d="M169.896 84.11h50.8v6.35h-50.8z" style="font-variation-settings:normal;vector-effect:none;fill:#000;fill-opacity:1;fill-rule:evenodd;stroke:#000;stroke-width:.352778;stroke-linecap:butt;stroke-linejoin:miter;stroke-miterlimit:4;stroke-dasharray:none;stroke-dashoffset:0;stroke-opacity:1;-inkscape-stroke:none;stop-color:#000"/><text xml:space="preserve" x="185.887" y="90.178" style="font-style:normal;font-variant:normal;font-weight:700;font-stretch:normal;font-size:4.29907px;line-height:1.25;font-family:Arial;-inkscape-font-specification:&quot;Arial Bold&quot;;white-space:pre;display:inline;fill:#fff;stroke:none;stroke-width:.264583" transform="scale(1.01553 .9847)"><tspan style="stroke-width:.264583">Skills</tspan></text><path d="M222.286 61.88h24.587v6.35h-24.587z" style="font-variation-settings:normal;vector-effect:none;fill:#000;fill-opacity:1;fill-rule:evenodd;stroke:#000;stroke-width:.352777;stroke-linecap:butt;stroke-linejoin:miter;stroke-miterlimit:4;stroke-dasharray:none;stroke-dashoffset:0;stroke-opacity:1;-inkscape-stroke:none;stop-color:#000"/><text xml:space="preserve" x="224.41" y="67.578" style="font-style:normal;font-variant:normal;font-weight:700;font-stretch:normal;font-size:4.29907px;line-height:1.25;font-family:Arial;-inkscape-font-specification:&quot;Arial Bold&quot;;white-space:pre;display:inline;fill:#fff;stroke:none;stroke-width:.264583" transform="scale(1.01553 .9847)"><tspan style="stroke-width:.264583">Health</tspan></text><path d="M248.463 61.88h24.587v6.35h-24.587z" style="font-variation-settings:normal;vector-effect:none;fill:#000;fill-opacity:1;fill-rule:evenodd;stroke:#000;stroke-width:.352777;stroke-linecap:butt;stroke-linejoin:miter;stroke-miterlimit:4;stroke-dasharray:none;stroke-dashoffset:0;stroke-opacity:1;-inkscape-stroke:none;stop-color:#000"/><text xml:space="preserve" x="251.288" y="67.151" style="font-style:normal;font-variant:normal;font-weight:700;font-stretch:normal;font-size:4.29907px;line-height:1.25;font-family:Arial;-inkscape-font-specification:&quot;Arial Bold&quot;;white-space:pre;display:inline;fill:#fff;stroke:none;stroke-width:.264583" transform="scale(1.01553 .9847)"><tspan style="stroke-width:.264583">Vigor</tspan></text><text xml:space="preserve" x="183.406" y="96.715" style="font-style:normal;font-variant:normal;font-weight:400;font-stretch:normal;font-size:4.23333px;line-height:1.25;font-family:Arial;-inkscape-font-specification:Arial;white-space:pre;display:inline;fill:#000;fill-opacity:1;stroke:none;stroke-width:.705556;stroke-dasharray:none"><tspan style="stroke-width:.705556">Athletics</tspan></text><path d="M169.896 92.05h42.85v6.35h-42.85z" style="font-variation-settings:normal;vector-effect:none;fill:none;fill-opacity:1;fill-rule:evenodd;stroke:#000;stroke-width:.352777;stroke-linecap:butt;stroke-linejoin:miter;stroke-miterlimit:4;stroke-dasharray:none;stroke-dashoffset:0;stroke-opacity:1;-inkscape-stroke:none;stop-color:#000"/><text xml:space="preserve" x="182.479" y="104.68" style="font-style:normal;font-variant:normal;font-weight:400;font-stretch:normal;font-size:4.23333px;line-height:1.25;font-family:Arial;-inkscape-font-specification:Arial;white-space:pre;display:inline;fill:#000;fill-opacity:1;stroke:none;stroke-width:.705556;stroke-dasharray:none"><tspan style="stroke-width:.705556">Convince</tspan></text><path d="M169.896 99.99h42.85v6.35h-42.85z" style="font-variation-settings:normal;vector-effect:none;fill:none;fill-opacity:1;fill-rule:evenodd;stroke:#000;stroke-width:.352777;stroke-linecap:butt;stroke-linejoin:miter;stroke-miterlimit:4;stroke-dasharray:none;stroke-dashoffset:0;stroke-opacity:1;-inkscape-stroke:none;stop-color:#000"/><text xml:space="preserve" x="184.996" y="112.62" style="font-style:normal;font-variant:normal;font-weight:400;font-stretch:normal;font-size:4.23333px;line-height:1.25;font-family:Arial;-inkscape-font-specification:Arial;white-space:pre;display:inline;fill:#000;fill-opacity:1;stroke:none;stroke-width:.705556;stroke-dasharray:none"><tspan style="stroke-width:.705556">Covert</tspan></text><path d="M169.896 107.93h42.85v6.35h-42.85z" style="font-variation-settings:normal;vector-effect:none;fill:none;fill-opacity:1;fill-rule:evenodd;stroke:#000;stroke-width:.352777;stroke-linecap:butt;stroke-linejoin:miter;stroke-miterlimit:4;stroke-dasharray:none;stroke-dashoffset:0;stroke-opacity:1;-inkscape-stroke:none;stop-color:#000"/><text xml:space="preserve" x="183.823" y="120.535" style="font-style:normal;font-variant:normal;font-weight:400;font-stretch:normal;font-size:4.23333px;line-height:1.25;font-family:Arial;-inkscape-font-specification:Arial;white-space:pre;display:inline;fill:#000;fill-opacity:1;stroke:none;stroke-width:.705556;stroke-dasharray:none"><tspan style="stroke-width:.705556">Finesse</tspan></text><path d="M169.896 115.87h42.85v6.35h-42.85z" style="font-variation-settings:normal;vector-effect:none;fill:none;fill-opacity:1;fill-rule:evenodd;stroke:#000;stroke-width:.352777;stroke-linecap:butt;stroke-linejoin:miter;stroke-miterlimit:4;stroke-dasharray:none;stroke-dashoffset:0;stroke-opacity:1;-inkscape-stroke:none;stop-color:#000"/><text xml:space="preserve" x="184.902" y="128.055" style="font-style:normal;font-variant:normal;font-weight:400;font-stretch:normal;font-size:4.23333px;line-height:1.25;font-family:Arial;-inkscape-font-specification:Arial;white-space:pre;display:inline;fill:#000;fill-opacity:1;stroke:none;stroke-width:.705556;stroke-dasharray:none"><tspan style="stroke-width:.705556">Insight</tspan></text><path d="M169.896 123.81h42.85v6.35h-42.85z" style="font-variation-settings:normal;vector-effect:none;fill:none;fill-opacity:1;fill-rule:evenodd;stroke:#000;stroke-width:.352777;stroke-linecap:butt;stroke-linejoin:miter;stroke-miterlimit:4;stroke-dasharray:none;stroke-dashoffset:0;stroke-opacity:1;-inkscape-stroke:none;stop-color:#000"/><text xml:space="preserve" x="182.034" y="136.415" style="font-style:normal;font-variant:normal;font-weight:400;font-stretch:normal;font-size:4.23333px;line-height:1.25;font-family:Arial;-inkscape-font-specification:Arial;white-space:pre;display:inline;fill:#000;fill-opacity:1;stroke:none;stroke-width:.705556;stroke-dasharray:none"><tspan style="stroke-width:.705556">Intimidate</tspan></text><path d="M169.896 131.75h42.85v6.35h-42.85z" style="font-variation-settings:normal;vector-effect:none;fill:none;fill-opacity:1;fill-rule:evenodd;stroke:#000;stroke-width:.352777;stroke-linecap:butt;stroke-linejoin:miter;stroke-miterlimit:4;stroke-dasharray:none;stroke-dashoffset:0;stroke-opacity:1;-inkscape-stroke:none;stop-color:#000"/><text xml:space="preserve" x="182.78" y="144.355" style="font-style:normal;font-variant:normal;font-weight:400;font-stretch:normal;font-size:4.23333px;line-height:1.25;font-family:Arial;-inkscape-font-specification:Arial;white-space:pre;display:inline;fill:#000;fill-opacity:1;stroke:none;stroke-width:.705556;stroke-dasharray:none"><tspan style="stroke-width:.705556">Medicine</tspan></text><path d="M169.896 139.69h42.85v6.35h-42.85z" style="font-variation-settings:normal;vector-effect:none;fill:none;fill-opacity:1;fill-rule:evenodd;stroke:#000;stroke-width:.352777;stroke-linecap:butt;stroke-linejoin:miter;stroke-miterlimit:4;stroke-dasharray:none;stroke-dashoffset:0;stroke-opacity:1;-inkscape-stroke:none;stop-color:#000"/><text xml:space="preserve" x="180.017" y="152.295" style="font-style:normal;font-variant:normal;font-weight:400;font-stretch:normal;font-size:4.23333px;line-height:1.25;font-family:Arial;-inkscape-font-specification:Arial;white-space:pre;display:inline;fill:#000;fill-opacity:1;stroke:none;stroke-width:.705556;stroke-dasharray:none"><tspan style="stroke-width:.705556">Misdirection</tspan></text><path d="M169.896 147.63h42.85v6.35h-42.85z" style="font-variation-settings:normal;vector-effect:none;fill:none;fill-opacity:1;fill-rule:evenodd;stroke:#000;stroke-width:.352777;stroke-linecap:butt;stroke-linejoin:miter;stroke-miterlimit:4;stroke-dasharray:none;stroke-dashoffset:0;stroke-opacity:1;-inkscape-stroke:none;stop-color:#000"/><text xml:space="preserve" x="181.184" y="159.84" style="font-style:normal;font-variant:normal;font-weight:400;font-stretch:normal;font-size:4.23333px;line-height:1.25;font-family:Arial;-inkscape-font-specification:Arial;white-space:pre;display:inline;fill:#000;fill-opacity:1;stroke:none;stroke-width:.705556;stroke-dasharray:none"><tspan style="stroke-width:.705556">Perception</tspan></text><path d="M169.896 155.57h42.85v6.35h-42.85z" style="font-variation-settings:normal;vector-effect:none;fill:none;fill-opacity:1;fill-rule:evenodd;stroke:#000;stroke-width:.352777;stroke-linecap:butt;stroke-linejoin:miter;stroke-miterlimit:4;stroke-dasharray:none;stroke-dashoffset:0;stroke-opacity:1;-inkscape-stroke:none;stop-color:#000"/><text xml:space="preserve" x="182.239" y="168.175" style="font-style:normal;font-variant:normal;font-weight:400;font-stretch:normal;font-size:4.23333px;line-height:1.25;font-family:Arial;-inkscape-font-specification:Arial;white-space:pre;display:inline;fill:#000;fill-opacity:1;stroke:none;stroke-width:.705556;stroke-dasharray:none"><tspan style="stroke-width:.705556">Research</tspan></text><path d="M169.896 163.51h42.85v6.35h-42.85z" style="font-variation-settings:normal;vector-effect:none;fill:none;fill-opacity:1;fill-rule:evenodd;stroke:#000;stroke-width:.352777;stroke-linecap:butt;stroke-linejoin:miter;stroke-miterlimit:4;stroke-dasharray:none;stroke-dashoffset:0;stroke-opacity:1;-inkscape-stroke:none;stop-color:#000"/><text xml:space="preserve" x="183.846" y="176.14" style="font-style:normal;font-variant:normal;font-weight:400;font-stretch:normal;font-size:4.23333px;line-height:1.25;font-family:Arial;-inkscape-font-specification:Arial;white-space:pre;display:inline;fill:#000;fill-opacity:1;stroke:none;stroke-width:.705556;stroke-dasharray:none"><tspan style="stroke-width:.705556">Survival</tspan></text><path d="M169.896 171.45h42.85v6.35h-42.85zM214.335 92.05h6.35v6.35h-6.35zM214.335 99.99h6.35v6.35h-6.35zM214.335 107.93h6.35v6.35h-6.35zM214.335 115.87h6.35v6.35h-6.35zM214.335 123.81h6.35v6.35h-6.35zM214.335 131.75h6.35v6.35h-6.35zM214.335 139.69h6.35v6.35h-6.35zM214.335 147.63h6.35v6.35h-6.35zM214.335 155.57h6.35v6.35h-6.35zM214.335 163.51h6.35v6.35h-6.35zM214.335 171.45h6.35v6.35h-6.35z" style="font-variation-settings:normal;vector-effect:none;fill:none;fill-opacity:1;fill-rule:evenodd;stroke:#000;stroke-width:.352777;stroke-linecap:butt;stroke-linejoin:miter;stroke-miterlimit:4;stroke-dasharray:none;stroke-dashoffset:0;stroke-opacity:1;-inkscape-stroke:none;stop-color:#000"/><text xml:space="preserve" x="171.238" y="183.478" style="font-style:italic;font-variant:normal;font-weight:400;font-stretch:normal;font-size:3.52777px;line-height:1.25;font-family:Arial;-inkscape-font-specification:&quot;Arial Italic&quot;;white-space:pre;display:inline;fill:#000;fill-opacity:1;stroke:none;stroke-width:.705556;stroke-dasharray:none"><tspan style="stroke-width:.705556">Specialty:</tspan></text><path d="M169.896 179.39h42.85v6.35h-42.85zM214.335 179.39h6.35v6.35h-6.35z" style="font-variation-settings:normal;vector-effect:none;fill:none;fill-opacity:1;fill-rule:evenodd;stroke:#000;stroke-width:.352777;stroke-linecap:butt;stroke-linejoin:miter;stroke-miterlimit:4;stroke-dasharray:none;stroke-dashoffset:0;stroke-opacity:1;-inkscape-stroke:none;stop-color:#000"/><path d="M222.286 84.11h24.587v6.35h-24.587z" style="font-variation-settings:normal;vector-effect:none;fill:#000;fill-opacity:1;fill-rule:evenodd;stroke:#000;stroke-width:.352778;stroke-linecap:butt;stroke-linejoin:miter;stroke-miterlimit:4;stroke-dasharray:none;stroke-dashoffset:0;stroke-opacity:1;-inkscape-stroke:none;stop-color:#000"/><text xml:space="preserve" x="226.908" y="88.775" style="font-style:normal;font-variant:normal;font-weight:700;font-stretch:normal;font-size:4.23333px;line-height:1.25;font-family:Arial;-inkscape-font-specification:&quot;Arial Bold&quot;;white-space:pre;display:inline;fill:#fff;fill-opacity:1;stroke:none;stroke-width:.705556;stroke-dasharray:none"><tspan style="stroke-width:.705556">Armour</tspan></text><path d="M248.463 84.11h24.587v6.35h-24.587zM248.463 107.93h24.587v6.35h-24.587zM266.68 92.05h6.35v6.35h-6.35zM240.513 92.05h6.35v6.35h-6.35z" style="font-variation-settings:normal;vector-effect:none;fill:none;fill-opacity:1;fill-rule:evenodd;stroke:#000;stroke-width:.352777;stroke-linecap:butt;stroke-linejoin:miter;stroke-miterlimit:4;stroke-dasharray:none;stroke-dashoffset:0;stroke-opacity:1;-inkscape-stroke:none;stop-color:#000"/><text xml:space="preserve" x="227.411" y="104.68" style="font-style:normal;font-variant:normal;font-weight:400;font-stretch:normal;font-size:4.23333px;line-height:1.25;font-family:Arial;-inkscape-font-specification:Arial;white-space:pre;display:inline;fill:#000;fill-opacity:1;stroke:none;stroke-width:.705556;stroke-dasharray:none"><tspan style="stroke-width:.705556">DR</tspan></text><path d="M222.286 99.99h16.637v6.35h-16.637z" style="font-variation-settings:normal;vector-effect:none;fill:none;fill-opacity:1;fill-rule:evenodd;stroke:#000;stroke-width:.352777;stroke-linecap:butt;stroke-linejoin:miter;stroke-miterlimit:4;stroke-dasharray:none;stroke-dashoffset:0;stroke-opacity:1;-inkscape-stroke:none;stop-color:#000"/><text xml:space="preserve" x="251.924" y="104.68" style="font-style:normal;font-variant:normal;font-weight:400;font-stretch:normal;font-size:4.23333px;line-height:1.25;font-family:Arial;-inkscape-font-specification:Arial;white-space:pre;display:inline;fill:#000;fill-opacity:1;stroke:none;stroke-width:.705556;stroke-dasharray:none"><tspan style="stroke-width:.705556">Gear</tspan></text><path d="M248.453 99.99h16.637v6.35h-16.637zM266.68 99.99h6.35v6.35h-6.35zM240.513 99.99h6.35v6.35h-6.35zM266.715 131.75h6.35v6.35h-6.35z" style="font-variation-settings:normal;vector-effect:none;fill:none;fill-opacity:1;fill-rule:evenodd;stroke:#000;stroke-width:.352777;stroke-linecap:butt;stroke-linejoin:miter;stroke-miterlimit:4;stroke-dasharray:none;stroke-dashoffset:0;stroke-opacity:1;-inkscape-stroke:none;stop-color:#000"/><path d="M222.275 131.75h42.85v6.35h-42.85z" style="font-variation-settings:normal;vector-effect:none;fill:#000;fill-opacity:1;fill-rule:evenodd;stroke:#000;stroke-width:.352778;stroke-linecap:butt;stroke-linejoin:miter;stroke-miterlimit:4;stroke-dasharray:none;stroke-dashoffset:0;stroke-opacity:1;-inkscape-stroke:none;stop-color:#000"/><text xml:space="preserve" x="234.063" y="135.995" style="font-style:normal;font-variant:normal;font-weight:700;font-stretch:normal;font-size:4.23333px;line-height:1.25;font-family:Arial;-inkscape-font-specification:&quot;Arial Bold&quot;;white-space:pre;display:inline;fill:#fff;fill-opacity:1;stroke:none;stroke-width:.705556;stroke-dasharray:none"><tspan style="stroke-width:.705556">Inventory</tspan></text><path d="M248.463 69.82h24.587v12.7h-24.587z" style="font-variation-settings:normal;vector-effect:none;fill:none;fill-opacity:1;fill-rule:evenodd;stroke:#000;stroke-width:.352777;stroke-linecap:butt;stroke-linejoin:miter;stroke-miterlimit:4;stroke-dasharray:none;stroke-dashoffset:0;stroke-opacity:1;-inkscape-stroke:none;stop-color:#000"/><path d="m263.525 69.82-5.537 12.7" style="font-variation-settings:normal;vector-effect:none;fill:none;fill-opacity:1;stroke:#000;stroke-width:.352777;stroke-linecap:butt;stroke-linejoin:miter;stroke-miterlimit:4;stroke-dasharray:none;stroke-dashoffset:0;stroke-opacity:1;-inkscape-stroke:none;stop-color:#000"/><path d="M222.286 69.82h24.587v12.7h-24.587z" style="font-variation-settings:normal;vector-effect:none;fill:none;fill-opacity:1;fill-rule:evenodd;stroke:#000;stroke-width:.352777;stroke-linecap:butt;stroke-linejoin:miter;stroke-miterlimit:4;stroke-dasharray:none;stroke-dashoffset:0;stroke-opacity:1;-inkscape-stroke:none;stop-color:#000"/><path d="m237.348 69.82-5.537 12.7" style="font-variation-settings:normal;vector-effect:none;fill:none;fill-opacity:1;stroke:#000;stroke-width:.352777;stroke-linecap:butt;stroke-linejoin:miter;stroke-miterlimit:4;stroke-dasharray:none;stroke-dashoffset:0;stroke-opacity:1;-inkscape-stroke:none;stop-color:#000"/><path d="M243.208 188.92h27v6.35h-27z" style="font-variation-settings:normal;vector-effect:none;fill:#000;fill-opacity:1;fill-rule:evenodd;stroke:#000;stroke-width:.352778;stroke-linecap:butt;stroke-linejoin:miter;stroke-miterlimit:4;stroke-dasharray:none;stroke-dashoffset:0;stroke-opacity:1;-inkscape-stroke:none;stop-color:#000"/><text xml:space="preserve" x="245.887" y="193.193" style="font-style:normal;font-variant:normal;font-weight:700;font-stretch:normal;font-size:4.23333px;line-height:1.25;font-family:Arial;-inkscape-font-specification:&quot;Arial Bold&quot;;white-space:pre;display:inline;fill:#fff;fill-opacity:1;stroke:none;stroke-width:.705556;stroke-dasharray:none"><tspan style="stroke-width:.705556">Inspiration</tspan></text><path d="M9.208 196.86h3.175v3.175H9.208ZM13.973 196.86h3.175v3.175h-3.175zM9.208 201.625h3.175v3.175H9.208ZM13.973 201.625h3.175v3.175h-3.175zM18.738 196.86h3.175v3.175h-3.175zM23.503 196.86h3.175v3.175h-3.175zM28.268 196.86h3.175v3.175h-3.175zM33.033 196.86h3.175v3.175h-3.175zM18.738 201.625h3.175v3.175h-3.175zM23.503 201.625h3.175v3.175h-3.175zM28.268 201.625h7.924v7.925h-7.924zM9.208 206.39h3.175v3.175H9.208ZM13.973 206.39h3.175v3.175h-3.175zM18.738 206.39h3.175v3.175h-3.175zM23.503 206.39h3.175v3.175h-3.175z" style="vector-effect:none;fill:none;fill-rule:evenodd;stroke:#000;stroke-width:.352777;stop-color:#000"/><path d="M48.2 188.92h27v6.35h-27z" style="font-variation-settings:normal;vector-effect:none;fill:#000;fill-opacity:1;fill-rule:evenodd;stroke:#000;stroke-width:.352778;stroke-linecap:butt;stroke-linejoin:miter;stroke-miterlimit:4;stroke-dasharray:none;stroke-dashoffset:0;stroke-opacity:1;-inkscape-stroke:none;stop-color:#000"/><text xml:space="preserve" x="51.633" y="193.193" style="font-style:normal;font-variant:normal;font-weight:700;font-stretch:normal;font-size:4.23333px;line-height:1.25;font-family:Arial;-inkscape-font-specification:&quot;Arial Bold&quot;;white-space:pre;display:inline;fill:#fff;fill-opacity:1;stroke:none;stroke-width:.705556;stroke-dasharray:none"><tspan style="stroke-width:.705556">Discipline</tspan></text><path d="M48.2 196.86h3.175v3.175H48.2zM52.965 196.86h3.175v3.175h-3.175zM48.2 201.625h3.175v3.175H48.2zM52.965 201.625h3.175v3.175h-3.175zM57.73 196.86h3.175v3.175H57.73zM62.495 196.86h3.175v3.175h-3.175zM67.26 196.86h3.175v3.175H67.26zM72.025 196.86H75.2v3.175h-3.175zM57.73 201.625h3.175v3.175H57.73zM62.495 201.625h3.175v3.175h-3.175z" style="fill:none;fill-rule:evenodd;stroke:#000;stroke-width:.352778;stroke-dasharray:none;stop-color:#000"/><path d="M67.26 201.625h7.925v7.925H67.26z" style="fill:none;fill-rule:evenodd;stroke:#000;stroke-width:.352777;stroke-dasharray:none;stop-color:#000"/><path d="M48.2 206.39h3.175v3.175H48.2zM52.965 206.39h3.175v3.175h-3.175zM57.73 206.39h3.175v3.175H57.73zM62.495 206.39h3.175v3.175h-3.175z" style="fill:none;fill-rule:evenodd;stroke:#000;stroke-width:.352778;stroke-dasharray:none;stop-color:#000"/><path d="M87.2 188.92h27v6.35h-27z" style="font-variation-settings:normal;vector-effect:none;fill:#000;fill-opacity:1;fill-rule:evenodd;stroke:#000;stroke-width:.352778;stroke-linecap:butt;stroke-linejoin:miter;stroke-miterlimit:4;stroke-dasharray:none;stroke-dashoffset:0;stroke-opacity:1;-inkscape-stroke:none;stop-color:#000"/><text xml:space="preserve" x="90.158" y="193.585" style="font-style:normal;font-variant:normal;font-weight:700;font-stretch:normal;font-size:4.23333px;line-height:1.25;font-family:Arial;-inkscape-font-specification:&quot;Arial Bold&quot;;white-space:pre;display:inline;fill:#fff;fill-opacity:1;stroke:none;stroke-width:.705556;stroke-dasharray:none"><tspan style="stroke-width:.705556">Resilience</tspan></text><path d="M87.2 196.86h3.175v3.175H87.2zM91.965 196.86h3.175v3.175h-3.175ZM87.2 201.625h3.175v3.175H87.2zM91.965 201.625h3.175v3.175h-3.175ZM96.73 196.86h3.175v3.175H96.73zM101.495 196.86h3.175v3.175h-3.175zM106.26 196.86h3.175v3.175h-3.175zM111.025 196.86h3.175v3.175h-3.175zM96.73 201.625h3.175v3.175H96.73zM101.495 201.625h3.175v3.175h-3.175z" style="fill:none;fill-rule:evenodd;stroke:#000;stroke-width:.352778;stroke-dasharray:none;stop-color:#000"/><path d="M106.26 201.625h7.925v7.925h-7.925z" style="fill:none;fill-rule:evenodd;stroke:#000;stroke-width:.352777;stroke-dasharray:none;stop-color:#000"/><path d="M87.2 206.39h3.175v3.175H87.2zM91.965 206.39h3.175v3.175h-3.175ZM96.73 206.39h3.175v3.175H96.73zM101.495 206.39h3.175v3.175h-3.175z" style="fill:none;fill-rule:evenodd;stroke:#000;stroke-width:.352778;stroke-dasharray:none;stop-color:#000"/><path d="M126.2 188.905h27v6.35h-27z" style="font-variation-settings:normal;vector-effect:none;fill:#000;fill-opacity:1;fill-rule:evenodd;stroke:#000;stroke-width:.352778;stroke-linecap:butt;stroke-linejoin:miter;stroke-miterlimit:4;stroke-dasharray:none;stroke-dashoffset:0;stroke-opacity:1;-inkscape-stroke:none;stop-color:#000"/><text xml:space="preserve" x="130.1" y="193.57" style="font-style:normal;font-variant:normal;font-weight:700;font-stretch:normal;font-size:4.23333px;line-height:1.25;font-family:Arial;-inkscape-font-specification:&quot;Arial Bold&quot;;white-space:pre;display:inline;fill:#fff;fill-opacity:1;stroke:none;stroke-width:.705556;stroke-dasharray:none"><tspan style="stroke-width:.705556">Brilliance</tspan></text><path d="M126.2 196.845h3.175v3.175H126.2zM130.965 196.845h3.175v3.175h-3.175zM126.2 201.61h3.175v3.175H126.2zM130.965 201.61h3.175v3.175h-3.175zM135.73 196.845h3.175v3.175h-3.175zM140.495 196.845h3.175v3.175h-3.175zM145.26 196.845h3.175v3.175h-3.175zM150.025 196.845h3.175v3.175h-3.175zM135.73 201.61h3.175v3.175h-3.175zM140.495 201.61h3.175v3.175h-3.175z" style="fill:none;fill-rule:evenodd;stroke:#000;stroke-width:.352778;stroke-dasharray:none;stop-color:#000"/><path d="M145.26 201.61h7.925v7.925h-7.925z" style="fill:none;fill-rule:evenodd;stroke:#000;stroke-width:.352777;stroke-dasharray:none;stop-color:#000"/><path d="M126.2 206.375h3.175v3.175H126.2zM130.965 206.375h3.175v3.175h-3.175zM135.73 206.375h3.175v3.175h-3.175zM140.495 206.375h3.175v3.175h-3.175z" style="fill:none;fill-rule:evenodd;stroke:#000;stroke-width:.352778;stroke-dasharray:none;stop-color:#000"/><path d="M165.2 188.905h27v6.35h-27z" style="font-variation-settings:normal;vector-effect:none;fill:#000;fill-opacity:1;fill-rule:evenodd;stroke:#000;stroke-width:.352778;stroke-linecap:butt;stroke-linejoin:miter;stroke-miterlimit:4;stroke-dasharray:none;stroke-dashoffset:0;stroke-opacity:1;-inkscape-stroke:none;stop-color:#000"/><text xml:space="preserve" x="167.406" y="193.595" style="font-style:normal;font-variant:normal;font-weight:700;font-stretch:normal;font-size:4.23333px;line-height:1.25;font-family:Arial;-inkscape-font-specification:&quot;Arial Bold&quot;;white-space:pre;display:inline;fill:#fff;fill-opacity:1;stroke:none;stroke-width:.705556;stroke-dasharray:none"><tspan style="stroke-width:.705556">Cleverness</tspan></text><path d="M165.2 196.845h3.175v3.175H165.2zM169.965 196.845h3.175v3.175h-3.175zM165.2 201.61h3.175v3.175H165.2zM169.965 201.61h3.175v3.175h-3.175zM174.73 196.845h3.175v3.175h-3.175zM179.495 196.845h3.175v3.175h-3.175zM184.26 196.845h3.175v3.175h-3.175zM189.025 196.845h3.175v3.175h-3.175zM174.73 201.61h3.175v3.175h-3.175zM179.495 201.61h3.175v3.175h-3.175z" style="fill:none;fill-rule:evenodd;stroke:#000;stroke-width:.352778;stroke-dasharray:none;stop-color:#000"/><path d="M184.26 201.61h7.925v7.925h-7.925z" style="fill:none;fill-rule:evenodd;stroke:#000;stroke-width:.352777;stroke-dasharray:none;stop-color:#000"/><path d="M165.2 206.375h3.175v3.175H165.2zM169.965 206.375h3.175v3.175h-3.175zM174.73 206.375h3.175v3.175h-3.175zM179.495 206.375h3.175v3.175h-3.175z" style="fill:none;fill-rule:evenodd;stroke:#000;stroke-width:.352778;stroke-dasharray:none;stop-color:#000"/><path d="M204.2 188.905h27v6.35h-27z" style="font-variation-settings:normal;vector-effect:none;fill:#000;fill-opacity:1;fill-rule:evenodd;stroke:#000;stroke-width:.352778;stroke-linecap:butt;stroke-linejoin:miter;stroke-miterlimit:4;stroke-dasharray:none;stroke-dashoffset:0;stroke-opacity:1;-inkscape-stroke:none;stop-color:#000"/><text xml:space="preserve" x="208.216" y="193.57" style="font-style:normal;font-variant:normal;font-weight:700;font-stretch:normal;font-size:4.23333px;line-height:1.25;font-family:Arial;-inkscape-font-specification:&quot;Arial Bold&quot;;white-space:pre;display:inline;fill:#fff;fill-opacity:1;stroke:none;stroke-width:.705556;stroke-dasharray:none"><tspan style="stroke-width:.705556">Presence</tspan></text><path d="M204.2 196.845h3.175v3.175H204.2zM208.965 196.845h3.175v3.175h-3.175zM204.2 201.61h3.175v3.175H204.2zM208.965 201.61h3.175v3.175h-3.175zM213.73 196.845h3.175v3.175h-3.175zM218.495 196.845h3.175v3.175h-3.175zM223.26 196.845h3.175v3.175h-3.175zM228.025 196.845h3.175v3.175h-3.175zM213.73 201.61h3.175v3.175h-3.175zM218.495 201.61h3.175v3.175h-3.175z" style="fill:none;fill-rule:evenodd;stroke:#000;stroke-width:.352778;stroke-dasharray:none;stop-color:#000"/><path d="M223.26 201.61h7.925v7.925h-7.925zM252.738 198.448h7.924v7.924h-7.924z" style="fill:none;fill-rule:evenodd;stroke:#000;stroke-width:.352777;stroke-dasharray:none;stop-color:#000"/><path d="M204.2 206.375h3.175v3.175H204.2zM208.965 206.375h3.175v3.175h-3.175zM213.73 206.375h3.175v3.175h-3.175zM218.495 206.375h3.175v3.175h-3.175z" style="fill:none;fill-rule:evenodd;stroke:#000;stroke-width:.352778;stroke-dasharray:none;stop-color:#000"/><path d="M96.855 12.7H273.05v47.574H96.855zM161.951 69.82h6.35v6.35h-6.35zM96.855 69.82h63.5v6.35h-63.5zM96.855 77.76h34.925v6.35H96.855zM133.37 77.76h34.925v6.35H133.37zM96.855 85.7h34.925v6.35H96.855zM133.37 85.7h34.925v6.35H133.37zM96.855 93.64h71.44v33.35h-71.44zM161.951 128.58h6.35v6.35h-6.35zM96.855 128.58h63.5v6.35h-63.5zM96.855 136.52h34.925v6.35H96.855zM133.37 136.52h34.925v6.35H133.37zM96.855 144.46h34.925v6.35H96.855zM133.37 144.46h34.925v6.35H133.37zM96.855 152.4h71.44v33.35h-71.44zM6.35 12.7h88.9v173.05H6.35z" style="font-variation-settings:normal;vector-effect:none;fill:none;fill-opacity:1;fill-rule:evenodd;stroke:#000;stroke-width:.352777;stroke-linecap:butt;stroke-linejoin:miter;stroke-miterlimit:4;stroke-dasharray:none;stroke-dashoffset:0;stroke-opacity:1;-inkscape-stroke:none;stop-color:#000"/><path d="m223.19 115.87-.915 1.587v3.175l.915 1.588h1.829l.914-1.588v-3.175l-.914-1.587zM223.19 123.81l-.915 1.587v3.175l.915 1.588h1.829l.914-1.588v-3.175l-.914-1.587zM228.437 115.87l-.914 1.587v3.175l.914 1.588h1.83l.914-1.588v-3.175l-.915-1.587zM228.437 123.81l-.914 1.587v3.175l.914 1.588h1.83l.914-1.588v-3.175l-.915-1.587zM233.685 115.87l-.914 1.587v3.175l.914 1.588h1.829l.914-1.588v-3.175l-.914-1.587zM233.685 123.81l-.914 1.587v3.175l.914 1.588h1.829l.914-1.588v-3.175l-.914-1.587zM238.933 115.87l-.915 1.587v3.175l.915 1.588h1.829l.914-1.588v-3.175l-.914-1.587zM238.933 123.81l-.915 1.587v3.175l.915 1.588h1.829l.914-1.588v-3.175l-.914-1.587zM244.18 115.87l-.914 1.587v3.175l.914 1.588h1.83l.914-1.588v-3.175l-.915-1.587zM244.18 123.81l-.914 1.587v3.175l.914 1.588h1.83l.914-1.588v-3.175l-.915-1.587zM249.428 115.87l-.914 1.587v3.175l.914 1.588h1.829l.914-1.588v-3.175l-.914-1.587zM249.428 123.81l-.914 1.587v3.175l.914 1.588h1.829l.914-1.588v-3.175l-.914-1.587zM254.676 115.87l-.915 1.587v3.175l.915 1.588h1.828l.915-1.588v-3.175l-.915-1.587zM254.676 123.81l-.915 1.587v3.175l.915 1.588h1.828l.915-1.588v-3.175l-.915-1.587zM259.923 115.87l-.914 1.587v3.175l.914 1.588h1.83l.913-1.588v-3.175l-.914-1.587zM259.923 123.81l-.914 1.587v3.175l.914 1.588h1.83l.913-1.588v-3.175l-.914-1.587zM265.17 115.87l-.913 1.587v3.175l.914 1.588H267l.914-1.588v-3.175L267 115.87zM265.17 123.81l-.913 1.587v3.175l.914 1.588H267l.914-1.588v-3.175L267 123.81zM270.419 115.87l-.915 1.587v3.175l.915 1.588h1.828l.915-1.588v-3.175l-.915-1.587zM270.419 123.81l-.915 1.587v3.175l.915 1.588h1.828l.915-1.588v-3.175l-.915-1.587z" style="font-variation-settings:normal;vector-effect:none;fill:none;fill-opacity:1;stroke:#000;stroke-width:.352777;stroke-linecap:butt;stroke-linejoin:miter;stroke-miterlimit:4;stroke-dasharray:none;stroke-dashoffset:0;stroke-opacity:1;-inkscape-stroke:none;stop-color:#000"/><path d="M169.896 61.88h50.8v6.35h-50.8z" style="font-variation-settings:normal;vector-effect:none;fill:#000;fill-opacity:1;fill-rule:evenodd;stroke:#000;stroke-width:.352778;stroke-linecap:butt;stroke-linejoin:miter;stroke-miterlimit:4;stroke-dasharray:none;stroke-dashoffset:0;stroke-opacity:1;-inkscape-stroke:none;stop-color:#000"/><text xml:space="preserve" x="177.833" y="66.124" style="font-style:normal;font-variant:normal;font-weight:700;font-stretch:normal;font-size:4.23333px;line-height:1.25;font-family:Arial;-inkscape-font-specification:&quot;Arial Bold&quot;;white-space:pre;display:inline;fill:#fff;stroke:none;stroke-width:.264583"><tspan style="stroke-width:.264583">Hello My Name Is</tspan></text><path d="m174.859 64.43-.006.006c-.01.01-.02.02-.027.03l-2.71 2.944-.03.033c-.166.166-.402.202-.526.077-.124-.124-.089-.36.078-.526l.032-.03 2.944-2.71a.415.415 0 0 0 .03-.027l.006-.005a.341.341 0 0 0 .103-.28.131.131 0 0 0-.008-.034.29.29 0 0 1-.005-.03c-.049-.294.09-.67.387-.967.295-.295.667-.433.96-.388l-.18.18c-.031.032-.033.082-.004.11.029.03.077.026.108-.005l.254-.23a.46.46 0 0 1 .071.041l-.219.24c-.032.032-.033.08-.005.11.029.028.077.027.11-.005l.239-.22c.015.023.03.047.041.072l-.23.253c-.03.032-.034.08-.006.109.03.029.079.027.11-.005l.18-.18c.042.267-.069.599-.312.879a1.54 1.54 0 0 1-.075.081c-.307.307-.698.445-.997.382a.16.16 0 0 0-.034-.008.342.342 0 0 0-.28.103z" style="fill:#fff;stroke:#000;stroke-width:.0352778;stroke-dasharray:none"/><path d="m173.192 64.43.006.006.027.03 2.71 2.944.029.033c.167.166.402.202.527.077.124-.124.089-.36-.078-.526l-.033-.03-2.944-2.71a.415.415 0 0 1-.03-.027l-.006-.005a.341.341 0 0 1-.103-.28.131.131 0 0 1 .008-.034.29.29 0 0 0 .005-.03c.05-.294-.09-.67-.387-.967-.294-.295-.667-.433-.96-.388l.18.18c.032.032.034.082.005.11-.03.03-.077.026-.109-.005l-.253-.23a.46.46 0 0 0-.072.041l.22.24c.032.032.033.08.005.11-.029.028-.077.027-.11-.005l-.24-.22a.457.457 0 0 0-.04.072l.23.253c.03.032.033.08.005.109-.029.029-.078.027-.11-.005l-.18-.18c-.041.267.07.599.312.879.024.027.05.055.076.081.307.307.698.445.997.382a.16.16 0 0 1 .034-.008.342.342 0 0 1 .28.103zM214.288 64.88h2.89c.146 0 .263.117.263.262v.35a.088.088 0 0 0 .176 0v-.35a.263.263 0 0 1 .525 0v.7a.088.088 0 0 0 .175 0v-.7c0-.145.118-.263.263-.263h.263a.263.263 0 0 0 0-.525h-.876v-.175a.263.263 0 0 0 0-.526h-2.803a.263.263 0 0 0 0 .526v.175h-.876a.263.263 0 0 0 0 .525zM218.843 67.157h-4.555a.263.263 0 0 0 0 .525h4.555a.263.263 0 0 0 0-.525zM216.566 63.478a.35.35 0 0 0 .123-.677.347.347 0 0 0-.036.152h-.175c0-.06.01-.116.028-.17a.35.35 0 0 0 .06.695z" style="fill:#fff;stroke:#000;stroke-width:.0352778;stroke-dasharray:none"/><path d="M219.106 65.317a.263.263 0 0 0-.263-.262h-.263a.088.088 0 0 0-.088.087v.7a.263.263 0 0 1-.525 0v-.7a.088.088 0 0 0-.175 0v.35a.263.263 0 0 1-.526 0v-.35a.088.088 0 0 0-.087-.087h-2.89a.263.263 0 0 0 0 .525h2.802v.175h-2.803a.263.263 0 0 0 0 .526h2.803v.175h-2.803a.263.263 0 0 0 0 .526h4.555a.263.263 0 0 0 0-.526h-.876v-.175h.876a.263.263 0 0 0 0-.526v-.175a.263.263 0 0 0 .262-.263zm-1.314 1.051a.263.263 0 0 1-.526 0v-.175a.263.263 0 0 1 .526 0z" style="fill:#fff;stroke:#000;stroke-width:.0352778;stroke-dasharray:none"/><path d="M217.529 66.106a.088.088 0 0 0-.088.087v.175a.088.088 0 0 0 .176 0v-.175a.088.088 0 0 0-.088-.087zM216.69 62.801a.35.35 0 0 1 .314-.199h.175v-.175h-.175c-.231 0-.427.15-.498.356a.348.348 0 0 1 .183.018z" style="fill:#fff;stroke:#000;stroke-width:.0352778;stroke-dasharray:none"/><path d="M222.286 107.93h24.587v6.35h-24.587z" style="font-variation-settings:normal;vector-effect:none;fill:#000;fill-opacity:1;fill-rule:evenodd;stroke:#000;stroke-width:.352778;stroke-linecap:butt;stroke-linejoin:miter;stroke-miterlimit:4;stroke-dasharray:none;stroke-dashoffset:0;stroke-opacity:1;-inkscape-stroke:none;stop-color:#000"/><text xml:space="preserve" x="225.228" y="112.621" style="font-style:normal;font-variant:normal;font-weight:700;font-stretch:normal;font-size:4.23333px;line-height:1.25;font-family:Arial;-inkscape-font-specification:&quot;Arial Bold&quot;;white-space:pre;fill:#fff;stroke-width:.264583"><tspan style="stroke-width:.264583">Influence</tspan></text><path d="M6.35 6.35h88.915v6.35H6.35z" style="font-variation-settings:normal;vector-effect:none;fill:#000;fill-opacity:1;fill-rule:evenodd;stroke:#000;stroke-width:.352778;stroke-linecap:butt;stroke-linejoin:miter;stroke-miterlimit:4;stroke-dasharray:none;stroke-dashoffset:0;stroke-opacity:1;-inkscape-stroke:none;stop-color:#000"/><text xml:space="preserve" style="font-size:16px;line-height:1.25;font-family:Arial;-inkscape-font-specification:Arial;white-space:pre;shape-inside:url(#a);display:inline" transform="matrix(.26458 0 0 .26458 28.556 .852)"><tspan x="24" y="38.412"><tspan style="font-weight:700;-inkscape-font-specification:&quot;Arial Bold&quot;;fill:#fff">Abilities - Minor</tspan></tspan></text></svg>