<svg xmlns="http://www.w3.org/2000/svg" xml:space="preserve" width="11in" height="816" viewBox="0 0 279.4 215.9"><defs><path id="a" d="M24 24h336v24H24Z"/></defs><g transform="translate(-568.566 -97.34)"><path d="M847.966 97.34v215.9h-279.4V97.34Z" style="font-variation-settings:normal;display:inline;fill:#fff;fill-opacity:1;fill-rule:evenodd;stroke:none;stroke-width:.705556;stroke-linecap:butt;stroke-linejoin:miter;stroke-miterlimit:4;stroke-dasharray:none;stroke-dashoffset:0;stroke-opacity:1;stop-color:#000"/><path d="m616.272 103.643-1.226 1.226.639.639v2.62l-.64.638 1.227 1.227h23.28l1.227-1.227-.64-.638v-2.62l.64-.64-1.227-1.225h-11.64z" style="font-variation-settings:normal;fill:#000;fill-opacity:1;stroke:none;stroke-width:.352778;stroke-linecap:butt;stroke-linejoin:miter;stroke-miterlimit:4;stroke-dasharray:none;stroke-dashoffset:0;stroke-opacity:1;stop-color:#000"/><text xml:space="preserve" x="617.845" y="107.915" style="font-style:normal;font-variant:normal;font-weight:700;font-stretch:normal;font-size:4.23333px;line-height:1.25;font-family:Arial;-inkscape-font-specification:&quot;Arial Bold&quot;;white-space:pre;display:inline;fill:#fff;fill-opacity:1;stroke:none;stroke-width:.352778;stroke-dasharray:none"><tspan style="stroke-width:.352778;stroke-dasharray:none">Discipline</tspan></text><path d="m636.283 117.747-1.993-1.993-.826.826v2.335l.826.825zM640.691 117.747l-1.993-1.993-.825.826v2.335l.826.825zM634.077 123.912v-2.819h-1.168l-1.65 1.651v1.168zM621.747 123.912v-2.819h1.168l1.65 1.651v1.168zM634.077 111.583h-2.819v1.167l1.651 1.651h1.168zM621.747 111.583v2.818h1.168l1.65-1.65v-1.168zM619.541 117.747l1.993-1.993.826.826v2.335l-.826.825zM615.133 117.747l1.993-1.993.825.826v2.335l-.825.825zM617.339 123.912h2.818v-1.168l-1.65-1.65h-1.168zM617.339 111.583h2.818v1.167l-1.65 1.651h-1.168zM638.485 123.912h-2.818v-1.168l1.65-1.65h1.168zM638.485 111.583h-2.818v1.167l1.651 1.651h1.167z" style="font-variation-settings:normal;fill:none;fill-opacity:1;stroke:#000;stroke-width:.352778;stroke-linecap:butt;stroke-linejoin:miter;stroke-miterlimit:4;stroke-dasharray:none;stroke-dashoffset:0;stroke-opacity:1;stop-color:#000"/><path d="m625.845 121.674.752-.752h2.63l.752.752 1.86-1.86-.752-.752v-2.63l.752-.752-1.86-1.86-.752.752h-2.63l-.752-.751-1.86 1.86.752.751v2.63l-.752.752z" style="font-variation-settings:normal;vector-effect:none;fill:none;fill-opacity:1;stroke:#000;stroke-width:.352777;stroke-linecap:butt;stroke-linejoin:miter;stroke-miterlimit:4;stroke-dasharray:none;stroke-dashoffset:0;stroke-opacity:1;-inkscape-stroke:none;stop-color:#000"/><path d="m656.449 103.643-1.226 1.226.639.639v2.62l-.64.638 1.227 1.227h23.28l1.226-1.227-.638-.638-.001-2.62.64-.64-1.227-1.225h-11.64z" style="font-variation-settings:normal;fill:#000;fill-opacity:1;stroke:none;stroke-width:.352778;stroke-linecap:butt;stroke-linejoin:miter;stroke-miterlimit:4;stroke-dasharray:none;stroke-dashoffset:0;stroke-opacity:1;stop-color:#000"/><text xml:space="preserve" x="657.547" y="108.308" style="font-style:normal;font-variant:normal;font-weight:700;font-stretch:normal;font-size:4.23333px;line-height:1.25;font-family:Arial;-inkscape-font-specification:&quot;Arial Bold&quot;;white-space:pre;display:inline;fill:#fff;fill-opacity:1;stroke:none;stroke-width:.352778;stroke-dasharray:none"><tspan style="stroke-width:.352778;stroke-dasharray:none">Resilience</tspan></text><path d="m676.46 117.747-1.993-1.993-.826.826v2.335l.826.825zM680.868 117.747l-1.993-1.993-.825.826v2.335l.825.825zM674.253 123.912v-2.819h-1.167l-1.651 1.651v1.168zM661.924 123.912v-2.819h1.168l1.65 1.651v1.168zM674.253 111.583h-2.818v1.167l1.651 1.651h1.167zM661.924 111.583v2.818h1.168l1.65-1.65v-1.168zM659.718 117.747l1.993-1.993.825.826v2.335l-.825.825zM655.31 117.747l1.993-1.993.825.826v2.335l-.826.825zM657.516 123.912h2.818v-1.168l-1.651-1.65h-1.167zM657.516 111.583h2.818v1.167l-1.651 1.651h-1.167zM678.662 123.912h-2.819v-1.168l1.652-1.65h1.167zM678.662 111.583h-2.818v1.167l1.65 1.651h1.168z" style="font-variation-settings:normal;fill:none;fill-opacity:1;stroke:#000;stroke-width:.352778;stroke-linecap:butt;stroke-linejoin:miter;stroke-miterlimit:4;stroke-dasharray:none;stroke-dashoffset:0;stroke-opacity:1;stop-color:#000"/><path d="m666.022 121.674.752-.752h2.63l.752.752 1.86-1.86-.752-.752v-2.63l.752-.752-1.86-1.86-.752.752h-2.63l-.752-.751-1.86 1.86.752.751v2.63l-.752.752z" style="font-variation-settings:normal;vector-effect:none;fill:none;fill-opacity:1;stroke:#000;stroke-width:.352777;stroke-linecap:butt;stroke-linejoin:miter;stroke-miterlimit:4;stroke-dasharray:none;stroke-dashoffset:0;stroke-opacity:1;-inkscape-stroke:none;stop-color:#000"/><path d="m696.625 103.643-1.225 1.226.638.639v2.62l-.639.638 1.226 1.227h23.28l1.227-1.227-.639-.638v-2.62l.639-.64-1.226-1.225h-11.64z" style="font-variation-settings:normal;fill:#000;fill-opacity:1;stroke:none;stroke-width:.352778;stroke-linecap:butt;stroke-linejoin:miter;stroke-miterlimit:4;stroke-dasharray:none;stroke-dashoffset:0;stroke-opacity:1;stop-color:#000"/><text xml:space="preserve" x="698.666" y="108.308" style="font-style:normal;font-variant:normal;font-weight:700;font-stretch:normal;font-size:4.23333px;line-height:1.25;font-family:Arial;-inkscape-font-specification:&quot;Arial Bold&quot;;white-space:pre;display:inline;fill:#fff;fill-opacity:1;stroke:none;stroke-width:.352778;stroke-dasharray:none"><tspan style="stroke-width:.352778;stroke-dasharray:none">Brilliance</tspan></text><path d="m716.636 117.747-1.993-1.993-.825.826v2.335l.826.825zM721.045 117.747l-1.993-1.993-.826.826v2.335l.826.825zM714.43 123.912v-2.819h-1.167l-1.651 1.651v1.168zM702.1 123.912l.001-2.819h1.168l1.65 1.651v1.168zM714.43 111.583h-2.818v1.167l1.65 1.651h1.168zM702.1 111.583l.001 2.818h1.168l1.65-1.65v-1.168zM699.895 117.747l1.993-1.993.825.826v2.335l-.826.825zM695.486 117.747l1.993-1.993.826.826v2.335l-.826.825zM697.692 123.912h2.819v-1.168l-1.651-1.65h-1.168zM697.692 111.583h2.819v1.167l-1.651 1.651h-1.168zM718.839 123.912h-2.819v-1.168l1.651-1.65h1.168zM718.839 111.583h-2.819v1.167l1.651 1.651h1.168z" style="font-variation-settings:normal;fill:none;fill-opacity:1;stroke:#000;stroke-width:.352778;stroke-linecap:butt;stroke-linejoin:miter;stroke-miterlimit:4;stroke-dasharray:none;stroke-dashoffset:0;stroke-opacity:1;stop-color:#000"/><path d="m706.199 121.674.751-.752h2.63l.752.752 1.86-1.86-.751-.752v-2.63l.751-.752-1.86-1.86-.751.752h-2.63l-.752-.751-1.86 1.86.752.751v2.63l-.752.752z" style="font-variation-settings:normal;vector-effect:none;fill:none;fill-opacity:1;stroke:#000;stroke-width:.352777;stroke-linecap:butt;stroke-linejoin:miter;stroke-miterlimit:4;stroke-dasharray:none;stroke-dashoffset:0;stroke-opacity:1;-inkscape-stroke:none;stop-color:#000"/><path d="m736.802 103.643-1.226 1.226.64.639v2.62l-.64.638 1.226 1.227h23.28l1.227-1.227-.639-.638v-2.62l.639-.64-1.227-1.225h-11.64z" style="font-variation-settings:normal;fill:#000;fill-opacity:1;stroke:none;stroke-width:.352778;stroke-linecap:butt;stroke-linejoin:miter;stroke-miterlimit:4;stroke-dasharray:none;stroke-dashoffset:0;stroke-opacity:1;stop-color:#000"/><text xml:space="preserve" x="737.148" y="108.333" style="font-style:normal;font-variant:normal;font-weight:700;font-stretch:normal;font-size:4.23333px;line-height:1.25;font-family:Arial;-inkscape-font-specification:&quot;Arial Bold&quot;;white-space:pre;display:inline;fill:#fff;fill-opacity:1;stroke:none;stroke-width:.352778;stroke-dasharray:none"><tspan style="stroke-width:.352778;stroke-dasharray:none">Cleverness</tspan></text><path d="m756.813 117.747-1.993-1.993-.825.826v2.335l.825.825zM761.222 117.747l-1.993-1.993-.826.826v2.335l.826.825zM754.607 123.912v-2.819h-1.168l-1.65 1.651v1.168zM742.278 123.912v-2.819h1.167l1.651 1.651v1.168zM754.607 111.583h-2.819v1.167l1.651 1.651h1.168zM742.278 111.583v2.818h1.167l1.651-1.65v-1.168zM740.071 117.747l1.993-1.993.826.826v2.335l-.826.825zM735.663 117.747l1.993-1.993.825.826v2.335l-.825.825zM737.87 123.912h2.818v-1.168l-1.652-1.65h-1.167zM737.87 111.583h2.818v1.167l-1.652 1.651h-1.167zM759.015 123.912h-2.818v-1.168l1.651-1.65h1.168zM759.015 111.583h-2.818v1.167l1.651 1.651h1.168z" style="font-variation-settings:normal;fill:none;fill-opacity:1;stroke:#000;stroke-width:.352778;stroke-linecap:butt;stroke-linejoin:miter;stroke-miterlimit:4;stroke-dasharray:none;stroke-dashoffset:0;stroke-opacity:1;stop-color:#000"/><path d="m746.375 121.674.752-.752h2.63l.752.752 1.86-1.86-.752-.752v-2.63l.752-.752-1.86-1.86-.752.752h-2.63l-.751-.751-1.86 1.86.751.751v2.63l-.751.752z" style="font-variation-settings:normal;vector-effect:none;fill:none;fill-opacity:1;stroke:#000;stroke-width:.352777;stroke-linecap:butt;stroke-linejoin:miter;stroke-miterlimit:4;stroke-dasharray:none;stroke-dashoffset:0;stroke-opacity:1;-inkscape-stroke:none;stop-color:#000"/><path d="m775.84 117.747 1.993-1.993.825.826v2.335l-.826.825z" style="font-variation-settings:normal;fill:none;fill-opacity:1;stroke:#000;stroke-width:.352778;stroke-linecap:butt;stroke-linejoin:miter;stroke-miterlimit:4;stroke-dasharray:none;stroke-dashoffset:0;stroke-opacity:1;stop-color:#000"/><path d="m776.979 103.643-1.226 1.226.639.639v2.62l-.64.638 1.227 1.227h23.28l1.226-1.227-.638-.638v-2.62l.638-.64-1.226-1.225h-11.64Z" style="font-variation-settings:normal;fill:#000;fill-opacity:1;stroke:none;stroke-width:.352778;stroke-linecap:butt;stroke-linejoin:miter;stroke-miterlimit:4;stroke-dasharray:none;stroke-dashoffset:0;stroke-opacity:1;stop-color:#000"/><text xml:space="preserve" x="779.135" y="108.308" style="font-style:normal;font-variant:normal;font-weight:700;font-stretch:normal;font-size:4.23333px;line-height:1.25;font-family:Arial;-inkscape-font-specification:&quot;Arial Bold&quot;;white-space:pre;display:inline;fill:#fff;fill-opacity:1;stroke:none;stroke-width:.352778;stroke-dasharray:none"><tspan style="stroke-width:.352778;stroke-dasharray:none">Presence</tspan></text><path d="m796.99 117.747-1.993-1.993-.826.826v2.335l.826.825zM801.398 117.747l-1.993-1.993-.825.826v2.335l.826.825zM794.784 123.912v-2.819h-1.168l-1.65 1.651v1.168zM782.454 123.912v-2.819h1.168l1.65 1.651v1.168zM794.783 111.583h-2.818v1.167l1.651 1.651h1.168zM782.454 111.583v2.818h1.168l1.65-1.65v-1.168zM780.248 117.747l1.993-1.993.826.826v2.335l-.826.825zM778.046 123.912h2.818v-1.168l-1.65-1.65h-1.168zM778.046 111.583h2.818v1.167l-1.65 1.651h-1.168zM799.192 123.912h-2.818v-1.168l1.65-1.65h1.168zM799.192 111.583h-2.818v1.167l1.65 1.651h1.168z" style="font-variation-settings:normal;fill:none;fill-opacity:1;stroke:#000;stroke-width:.352778;stroke-linecap:butt;stroke-linejoin:miter;stroke-miterlimit:4;stroke-dasharray:none;stroke-dashoffset:0;stroke-opacity:1;stop-color:#000"/><path d="m786.552 121.674.752-.752h2.63l.752.752 1.86-1.86-.752-.752v-2.63l.752-.752-1.86-1.86-.752.752h-2.63l-.752-.751-1.86 1.86.752.751v2.63l-.752.752z" style="font-variation-settings:normal;vector-effect:none;fill:none;fill-opacity:1;stroke:#000;stroke-width:.352777;stroke-linecap:butt;stroke-linejoin:miter;stroke-miterlimit:4;stroke-dasharray:none;stroke-dashoffset:0;stroke-opacity:1;-inkscape-stroke:none;stop-color:#000"/><path d="m576.095 103.643-1.225 1.226.638.639v2.62l-.639.638 1.226 1.227h23.28l1.227-1.227-.639-.638v-2.62l.639-.64-1.226-1.225h-11.64z" style="font-variation-settings:normal;fill:#000;fill-opacity:1;stroke:none;stroke-width:.352778;stroke-linecap:butt;stroke-linejoin:miter;stroke-miterlimit:4;stroke-dasharray:none;stroke-dashoffset:0;stroke-opacity:1;stop-color:#000"/><text xml:space="preserve" x="578.17" y="107.888" style="font-style:normal;font-variant:normal;font-weight:700;font-stretch:normal;font-size:4.23333px;line-height:1.25;font-family:Arial;-inkscape-font-specification:&quot;Arial Bold&quot;;white-space:pre;display:inline;fill:#fff;fill-opacity:1;stroke:none;stroke-width:.352778;stroke-dasharray:none"><tspan style="stroke-width:.352778;stroke-dasharray:none">Physique </tspan></text><path d="m596.106 117.747-1.993-1.993-.825.826v2.335l.825.825zM600.515 117.747l-1.993-1.993-.826.826v2.335l.826.825zM593.9 123.912v-2.819h-1.168l-1.65 1.651v1.168zM581.57 123.912v-2.819h1.168l1.651 1.651v1.168zM593.9 111.583h-2.819v1.167l1.652 1.651h1.167zM581.57 111.583v2.818h1.168l1.651-1.65v-1.168zM579.365 117.747l1.993-1.993.825.826v2.335l-.826.825zM574.956 117.747l1.993-1.993.826.826v2.335l-.826.825zM577.162 123.912h2.819v-1.168l-1.651-1.65h-1.168zM577.162 111.583h2.819v1.167l-1.651 1.651h-1.168zM598.308 123.912h-2.818v-1.168l1.651-1.65h1.168zM598.308 111.583h-2.818v1.167l1.651 1.651h1.168z" style="font-variation-settings:normal;fill:none;fill-opacity:1;stroke:#000;stroke-width:.352778;stroke-linecap:butt;stroke-linejoin:miter;stroke-miterlimit:4;stroke-dasharray:none;stroke-dashoffset:0;stroke-opacity:1;stop-color:#000"/><path d="m585.669 121.674.751-.752h2.63l.752.752 1.86-1.86-.752-.752v-2.63l.752-.752-1.86-1.86-.751.752h-2.63l-.752-.751-1.86 1.86.751.751v2.63l-.751.752z" style="font-variation-settings:normal;vector-effect:none;fill:none;fill-opacity:1;stroke:#000;stroke-width:.352777;stroke-linecap:butt;stroke-linejoin:miter;stroke-miterlimit:4;stroke-dasharray:none;stroke-dashoffset:0;stroke-opacity:1;-inkscape-stroke:none;stop-color:#000"/><path d="m817.156 103.643-1.226 1.226.639.639v2.62l-.64.638 1.227 1.227h23.28l1.226-1.227-.639-.638v-2.62l.64-.64-1.227-1.225h-11.64z" style="font-variation-settings:normal;fill:#000;fill-opacity:1;stroke:none;stroke-width:.352778;stroke-linecap:butt;stroke-linejoin:miter;stroke-miterlimit:4;stroke-dasharray:none;stroke-dashoffset:0;stroke-opacity:1;stop-color:#000"/><text xml:space="preserve" x="817.975" y="107.916" style="font-style:normal;font-variant:normal;font-weight:700;font-stretch:normal;font-size:4.23333px;line-height:1.25;font-family:Arial;-inkscape-font-specification:&quot;Arial Bold&quot;;white-space:pre;display:inline;fill:#fff;fill-opacity:1;stroke:none;stroke-width:.352778;stroke-dasharray:none"><tspan style="stroke-width:.352778;stroke-dasharray:none">Inspiration</tspan></text><path d="m818.388 117.031-2.358-2.358v-2.099l.991-.991h4.1l2.36 2.358v2.098l-.992.992z" style="font-variation-settings:normal;vector-effect:none;fill:#000;fill-opacity:1;stroke:#000;stroke-width:.352777;stroke-linecap:butt;stroke-linejoin:miter;stroke-miterlimit:4;stroke-dasharray:none;stroke-dashoffset:0;stroke-opacity:1;-inkscape-stroke:none;stop-color:#000"/><path d="m818.759 115.303 1.993-1.993-.826-.825h-2.335l-.825.826z" style="font-variation-settings:normal;fill:#fff;fill-opacity:1;stroke:#000;stroke-width:.352778;stroke-linecap:butt;stroke-linejoin:miter;stroke-miterlimit:4;stroke-dasharray:none;stroke-dashoffset:0;stroke-opacity:1;stop-color:#000"/><path d="m820.752 113.31 1.992 1.993-.825.826h-2.335l-.825-.826z" style="font-variation-settings:normal;fill:#fff;fill-opacity:1;stroke:#000;stroke-width:.352778;stroke-linecap:butt;stroke-linejoin:miter;stroke-miterlimit:4;stroke-dasharray:none;stroke-dashoffset:0;stroke-opacity:1;stop-color:#000"/><path d="m827.429 117.031-2.359-2.358v-2.099l.992-.991h4.1l2.359 2.358v2.098l-.992.992z" style="font-variation-settings:normal;vector-effect:none;fill:#000;fill-opacity:1;stroke:#000;stroke-width:.352777;stroke-linecap:butt;stroke-linejoin:miter;stroke-miterlimit:4;stroke-dasharray:none;stroke-dashoffset:0;stroke-opacity:1;-inkscape-stroke:none;stop-color:#000"/><path d="m827.8 115.303 1.992-1.993-.825-.825h-2.335l-.826.826z" style="font-variation-settings:normal;fill:#fff;fill-opacity:1;stroke:#000;stroke-width:.352778;stroke-linecap:butt;stroke-linejoin:miter;stroke-miterlimit:4;stroke-dasharray:none;stroke-dashoffset:0;stroke-opacity:1;stop-color:#000"/><path d="m829.792 113.31 1.993 1.993-.826.826h-2.334l-.826-.826z" style="font-variation-settings:normal;fill:#fff;fill-opacity:1;stroke:#000;stroke-width:.352778;stroke-linecap:butt;stroke-linejoin:miter;stroke-miterlimit:4;stroke-dasharray:none;stroke-dashoffset:0;stroke-opacity:1;stop-color:#000"/><path d="m836.47 117.031-2.359-2.359v-2.098l.992-.991h4.1l2.359 2.358v2.098l-.992.992z" style="font-variation-settings:normal;vector-effect:none;fill:#000;fill-opacity:1;stroke:#000;stroke-width:.352777;stroke-linecap:butt;stroke-linejoin:miter;stroke-miterlimit:4;stroke-dasharray:none;stroke-dashoffset:0;stroke-opacity:1;-inkscape-stroke:none;stop-color:#000"/><path d="m836.84 115.303 1.993-1.993-.826-.825h-2.334l-.826.826z" style="font-variation-settings:normal;fill:#fff;fill-opacity:1;stroke:#000;stroke-width:.352778;stroke-linecap:butt;stroke-linejoin:miter;stroke-miterlimit:4;stroke-dasharray:none;stroke-dashoffset:0;stroke-opacity:1;stop-color:#000"/><path d="m838.833 113.31 1.993 1.993-.826.826h-2.335l-.825-.826z" style="font-variation-settings:normal;fill:#fff;fill-opacity:1;stroke:#000;stroke-width:.352778;stroke-linecap:butt;stroke-linejoin:miter;stroke-miterlimit:4;stroke-dasharray:none;stroke-dashoffset:0;stroke-opacity:1;stop-color:#000"/><path d="m818.388 124.07-2.358-2.36v-2.097l.991-.992h4.1l2.36 2.359v2.098l-.992.991z" style="font-variation-settings:normal;vector-effect:none;fill:#000;fill-opacity:1;stroke:#000;stroke-width:.352777;stroke-linecap:butt;stroke-linejoin:miter;stroke-miterlimit:4;stroke-dasharray:none;stroke-dashoffset:0;stroke-opacity:1;-inkscape-stroke:none;stop-color:#000"/><path d="m818.759 122.342 1.993-1.993-.826-.826h-2.335l-.825.826z" style="font-variation-settings:normal;fill:#fff;fill-opacity:1;stroke:#000;stroke-width:.352778;stroke-linecap:butt;stroke-linejoin:miter;stroke-miterlimit:4;stroke-dasharray:none;stroke-dashoffset:0;stroke-opacity:1;stop-color:#000"/><path d="m820.752 120.349 1.992 1.993-.825.825h-2.335l-.825-.826z" style="font-variation-settings:normal;fill:#fff;fill-opacity:1;stroke:#000;stroke-width:.352778;stroke-linecap:butt;stroke-linejoin:miter;stroke-miterlimit:4;stroke-dasharray:none;stroke-dashoffset:0;stroke-opacity:1;stop-color:#000"/><path d="m827.429 124.07-2.359-2.36v-2.097l.992-.992h4.1l2.36 2.358v2.099l-.993.991z" style="font-variation-settings:normal;vector-effect:none;fill:#000;fill-opacity:1;stroke:#000;stroke-width:.352777;stroke-linecap:butt;stroke-linejoin:miter;stroke-miterlimit:4;stroke-dasharray:none;stroke-dashoffset:0;stroke-opacity:1;-inkscape-stroke:none;stop-color:#000"/><path d="m827.8 122.342 1.992-1.993-.825-.826h-2.335l-.826.826z" style="font-variation-settings:normal;fill:#fff;fill-opacity:1;stroke:#000;stroke-width:.352778;stroke-linecap:butt;stroke-linejoin:miter;stroke-miterlimit:4;stroke-dasharray:none;stroke-dashoffset:0;stroke-opacity:1;stop-color:#000"/><path d="m829.792 120.349 1.993 1.993-.826.825h-2.334l-.826-.826z" style="font-variation-settings:normal;fill:#fff;fill-opacity:1;stroke:#000;stroke-width:.352778;stroke-linecap:butt;stroke-linejoin:miter;stroke-miterlimit:4;stroke-dasharray:none;stroke-dashoffset:0;stroke-opacity:1;stop-color:#000"/><path d="m836.47 124.07-2.359-2.36v-2.097l.992-.992h4.1l2.359 2.358v2.099l-.992.991z" style="font-variation-settings:normal;vector-effect:none;fill:#000;fill-opacity:1;stroke:#000;stroke-width:.352777;stroke-linecap:butt;stroke-linejoin:miter;stroke-miterlimit:4;stroke-dasharray:none;stroke-dashoffset:0;stroke-opacity:1;-inkscape-stroke:none;stop-color:#000"/><path d="m836.84 122.342 1.993-1.993-.826-.826h-2.334l-.826.826z" style="font-variation-settings:normal;fill:#fff;fill-opacity:1;stroke:#000;stroke-width:.352778;stroke-linecap:butt;stroke-linejoin:miter;stroke-miterlimit:4;stroke-dasharray:none;stroke-dashoffset:0;stroke-opacity:1;stop-color:#000"/><path d="m838.833 120.349 1.993 1.993-.826.825h-2.335l-.825-.826z" style="font-variation-settings:normal;fill:#fff;fill-opacity:1;stroke:#000;stroke-width:.352778;stroke-linecap:butt;stroke-linejoin:miter;stroke-miterlimit:4;stroke-dasharray:none;stroke-dashoffset:0;stroke-opacity:1;stop-color:#000"/><text xml:space="preserve" style="font-size:16px;line-height:1.25;font-family:Arial;-inkscape-font-specification:Arial;white-space:pre;shape-inside:url(#a);display:inline;stroke-width:1.33335;stroke-dasharray:none" transform="translate(598.122 121.994) scale(.26458)"><tspan x="24" y="38.412"><tspan style="font-weight:700;-inkscape-font-specification:&quot;Arial Bold&quot;;fill:#fff">Abilities</tspan></tspan></text><path d="M697.22 133.842H574.87v-4.49l1.86-1.86H695.36l1.86 1.86z" style="font-variation-settings:normal;vector-effect:none;fill:#000;fill-opacity:1;stroke:#000;stroke-width:.352777;stroke-linecap:butt;stroke-linejoin:miter;stroke-miterlimit:4;stroke-dasharray:none;stroke-dashoffset:0;stroke-opacity:1;-inkscape-stroke:none;stop-color:#000"/><text xml:space="preserve" x="627.914" y="132.157" style="font-style:normal;font-variant:normal;font-weight:700;font-stretch:normal;font-size:4.23333px;line-height:1.25;font-family:Arial;-inkscape-font-specification:&quot;Arial Bold&quot;;white-space:pre;display:inline;fill:#fff;stroke:none;stroke-width:.352778;stroke-dasharray:none"><tspan style="fill:#fff;stroke-width:.352778;stroke-dasharray:none">Abilities</tspan></text><text xml:space="preserve" x="709.118" y="187.74" style="font-style:normal;font-variant:normal;font-weight:400;font-stretch:normal;font-size:4.23333px;line-height:1.25;font-family:Arial;-inkscape-font-specification:Arial;white-space:pre;display:inline;fill:#000;fill-opacity:1;stroke:none;stroke-width:.352778;stroke-dasharray:none"><tspan style="stroke-width:.352778;stroke-dasharray:none">Athletics</tspan></text><text xml:space="preserve" x="708.191" y="195.705" style="font-style:normal;font-variant:normal;font-weight:400;font-stretch:normal;font-size:4.23333px;line-height:1.25;font-family:Arial;-inkscape-font-specification:Arial;white-space:pre;display:inline;fill:#000;fill-opacity:1;stroke:none;stroke-width:.352778;stroke-dasharray:none"><tspan style="stroke-width:.352778;stroke-dasharray:none">Convince</tspan></text><text xml:space="preserve" x="710.644" y="203.644" style="font-style:normal;font-variant:normal;font-weight:400;font-stretch:normal;font-size:4.23333px;line-height:1.25;font-family:Arial;-inkscape-font-specification:Arial;white-space:pre;display:inline;fill:#000;fill-opacity:1;stroke:none;stroke-width:.352778;stroke-dasharray:none"><tspan style="stroke-width:.352778;stroke-dasharray:none">Covert</tspan></text><text xml:space="preserve" x="709.536" y="211.56" style="font-style:normal;font-variant:normal;font-weight:400;font-stretch:normal;font-size:4.23333px;line-height:1.25;font-family:Arial;-inkscape-font-specification:Arial;white-space:pre;display:inline;fill:#000;fill-opacity:1;stroke:none;stroke-width:.352778;stroke-dasharray:none"><tspan style="stroke-width:.352778;stroke-dasharray:none">Finesse</tspan></text><text xml:space="preserve" x="710.615" y="219.079" style="font-style:normal;font-variant:normal;font-weight:400;font-stretch:normal;font-size:4.23333px;line-height:1.25;font-family:Arial;-inkscape-font-specification:Arial;white-space:pre;display:inline;fill:#000;fill-opacity:1;stroke:none;stroke-width:.352778;stroke-dasharray:none"><tspan style="stroke-width:.352778;stroke-dasharray:none">Insight</tspan></text><text xml:space="preserve" x="707.747" y="227.44" style="font-style:normal;font-variant:normal;font-weight:400;font-stretch:normal;font-size:4.23333px;line-height:1.25;font-family:Arial;-inkscape-font-specification:Arial;white-space:pre;display:inline;fill:#000;fill-opacity:1;stroke:none;stroke-width:.352778;stroke-dasharray:none"><tspan style="stroke-width:.352778;stroke-dasharray:none">Intimidate</tspan></text><text xml:space="preserve" x="754.523" y="187.74" style="font-style:normal;font-variant:normal;font-weight:400;font-stretch:normal;font-size:4.23333px;line-height:1.25;font-family:Arial;-inkscape-font-specification:Arial;white-space:pre;display:inline;fill:#000;fill-opacity:1;stroke:none;stroke-width:.352778;stroke-dasharray:none"><tspan style="stroke-width:.352778;stroke-dasharray:none">Medicine</tspan></text><text xml:space="preserve" x="751.759" y="195.68" style="font-style:normal;font-variant:normal;font-weight:400;font-stretch:normal;font-size:4.23333px;line-height:1.25;font-family:Arial;-inkscape-font-specification:Arial;white-space:pre;display:inline;fill:#000;fill-opacity:1;stroke:none;stroke-width:.352778;stroke-dasharray:none"><tspan style="stroke-width:.352778;stroke-dasharray:none">Misdirection</tspan></text><text xml:space="preserve" x="752.926" y="203.224" style="font-style:normal;font-variant:normal;font-weight:400;font-stretch:normal;font-size:4.23333px;line-height:1.25;font-family:Arial;-inkscape-font-specification:Arial;white-space:pre;display:inline;fill:#000;fill-opacity:1;stroke:none;stroke-width:.352778;stroke-dasharray:none"><tspan style="stroke-width:.352778;stroke-dasharray:none">Perception</tspan></text><text xml:space="preserve" x="753.981" y="211.56" style="font-style:normal;font-variant:normal;font-weight:400;font-stretch:normal;font-size:4.23333px;line-height:1.25;font-family:Arial;-inkscape-font-specification:Arial;white-space:pre;display:inline;fill:#000;fill-opacity:1;stroke:none;stroke-width:.352778;stroke-dasharray:none"><tspan style="stroke-width:.352778;stroke-dasharray:none">Research</tspan></text><text xml:space="preserve" x="755.588" y="219.525" style="font-style:normal;font-variant:normal;font-weight:400;font-stretch:normal;font-size:4.23333px;line-height:1.25;font-family:Arial;-inkscape-font-specification:Arial;white-space:pre;display:inline;fill:#000;fill-opacity:1;stroke:none;stroke-width:.352778;stroke-dasharray:none"><tspan style="stroke-width:.352778;stroke-dasharray:none">Survival</tspan></text><text xml:space="preserve" x="746.213" y="227.465" style="font-style:normal;font-variant:normal;font-weight:400;font-stretch:normal;font-size:4.23333px;line-height:1.25;font-family:Arial;-inkscape-font-specification:Arial;white-space:pre;display:inline;fill:#000;fill-opacity:1;stroke:none;stroke-width:.352778;stroke-dasharray:none"><tspan style="stroke-width:.352778;stroke-dasharray:none">SP:</tspan></text><path d="M782.903 227.265v-2.63l1.86-1.86h2.63l1.86 1.86v2.63l-1.86 1.86h-2.63zM782.903 219.325v-2.63l1.86-1.86h2.63l1.86 1.86v2.63l-1.86 1.86h-2.63zM782.903 211.385v-2.63l1.86-1.86h2.63l1.86 1.86v2.63l-1.86 1.86h-2.63zM782.903 203.445v-2.63l1.86-1.86h2.63l1.86 1.86v2.63l-1.86 1.86h-2.63zM782.903 195.505v-2.63l1.86-1.86h2.63l1.86 1.86v2.63l-1.86 1.86h-2.63zM782.903 187.565v-2.63l1.86-1.86h2.63l1.86 1.86v2.63l-1.86 1.86h-2.63zM736.873 227.265v-2.63l1.86-1.86h2.63l1.86 1.86v2.63l-1.86 1.86h-2.63zM736.873 219.325v-2.63l1.86-1.86h2.63l1.86 1.86v2.63l-1.86 1.86h-2.63zM736.873 211.385v-2.63l1.86-1.86h2.63l1.86 1.86v2.63l-1.86 1.86h-2.63zM736.873 203.445v-2.63l1.86-1.86h2.63l1.86 1.86v2.63l-1.86 1.86h-2.63zM736.873 195.505v-2.63l1.86-1.86h2.63l1.86 1.86v2.63l-1.86 1.86h-2.63zM736.873 187.565v-2.63l1.86-1.86h2.63l1.86 1.86v2.63l-1.86 1.86h-2.63zM746.673 221.185l-1.86-1.86v-2.63l1.86-1.86h32.78l1.86 1.86v2.63l-1.86 1.86zM746.673 213.245l-1.86-1.86v-2.63l1.86-1.86h32.78l1.86 1.86v2.63l-1.86 1.86zM746.673 205.305l-1.86-1.86v-2.63l1.86-1.86h32.78l1.86 1.86v2.63l-1.86 1.86zM746.673 197.364l-1.86-1.86v-2.63l1.86-1.86h32.78l1.86 1.86v2.63l-1.86 1.86zM746.673 189.424l-1.86-1.86v-2.63l1.86-1.86h32.78l1.86 1.86v2.63l-1.86 1.86zM700.643 229.125l-1.86-1.86v-2.63l1.86-1.86h32.78l1.86 1.86v2.63l-1.86 1.86zM700.643 221.185l-1.86-1.86v-2.63l1.86-1.86h32.78l1.86 1.86v2.63l-1.86 1.86zM700.643 213.245l-1.86-1.86v-2.63l1.86-1.86h32.78l1.86 1.86v2.63l-1.86 1.86zM700.643 205.305l-1.86-1.86v-2.63l1.86-1.86h32.78l1.86 1.86v2.63l-1.86 1.86zM700.643 197.365l-1.86-1.86v-2.63l1.86-1.86h32.78l1.86 1.86v2.63l-1.86 1.86zM700.643 189.424l-1.86-1.86v-2.63l1.86-1.86h32.78l1.86 1.86v2.63l-1.86 1.86zM746.673 229.125l-1.86-1.86v-2.63l1.86-1.86h32.78l1.86 1.86v2.63l-1.86 1.86z" style="font-variation-settings:normal;fill:none;fill-opacity:1;stroke:#000;stroke-width:.352778;stroke-linecap:butt;stroke-linejoin:miter;stroke-miterlimit:4;stroke-dasharray:none;stroke-dashoffset:0;stroke-opacity:1;stop-color:#000"/><path d="m700.643 181.487-1.86-1.86v-2.63l1.86-1.86h86.755l1.86 1.86v2.63l-1.86 1.86z" style="font-variation-settings:normal;vector-effect:none;fill:#000;fill-opacity:1;stroke:none;stroke-width:.352777;stroke-linecap:butt;stroke-linejoin:miter;stroke-miterlimit:4;stroke-dasharray:none;stroke-dashoffset:0;stroke-opacity:1;-inkscape-stroke:none;stop-color:#000"/><path d="m786.078 175.545-.322.322-.395-.228-.227.394-.44-.118-.118.44h-.456v.455l-.44.118.118.44-.394.228.228.394-.323.323.322.322-.227.393.394.228-.118.44.44.118v.456h.456l.118.44.44-.118.228.394.394-.228.322.322.322-.322.395.228.228-.394.44.117.117-.44h.456v-.455l.44-.118-.118-.44.394-.227-.227-.394.321-.322-.321-.322.227-.395-.394-.227.117-.44-.44-.118v-.456h-.455l-.118-.44-.44.118-.228-.394-.394.228z" style="font-variation-settings:normal;fill:#fff;fill-opacity:1;stroke:#000;stroke-width:.352778;stroke-linecap:butt;stroke-linejoin:miter;stroke-miterlimit:4;stroke-dasharray:none;stroke-dashoffset:0;stroke-opacity:1;stop-color:#000"/><text xml:space="preserve" x="727.05" y="182.62" style="font-style:normal;font-variant:normal;font-weight:700;font-stretch:normal;font-size:4.29903px;line-height:1.25;font-family:Arial;-inkscape-font-specification:&quot;Arial Bold&quot;;white-space:pre;display:inline;fill:#fff;stroke:none;stroke-width:.352778;stroke-dasharray:none" transform="scale(1.01553 .9847)"><tspan style="stroke-width:.352778;stroke-dasharray:none">Skills</tspan></text><path d="M698.839 237.065v-4.49l1.86-1.86h66.841l1.86 1.86v4.49z" style="font-variation-settings:normal;vector-effect:none;fill:#000;fill-opacity:1;stroke:#000;stroke-width:.352777;stroke-linecap:butt;stroke-linejoin:miter;stroke-miterlimit:4;stroke-dasharray:none;stroke-dashoffset:0;stroke-opacity:1;-inkscape-stroke:none;stop-color:#000"/><path d="m765.041 231.122-.46.46-.6-.25-.248.6h-.65v.65l-.6.249.25.6-.46.46.459.458-.249.6.6.249v.649h.65l.248.6.6-.248.46.458.46-.458.6.248.248-.6h.65v-.65l.6-.249-.248-.599.459-.46-.46-.458.25-.6-.601-.25v-.648h-.65l-.248-.6-.6.248z" style="font-variation-settings:normal;fill:#fff;fill-opacity:1;stroke:#000;stroke-width:.352778;stroke-linecap:butt;stroke-linejoin:miter;stroke-miterlimit:4;stroke-dasharray:none;stroke-dashoffset:0;stroke-opacity:1;stop-color:#000"/><text xml:space="preserve" x="715.21" y="235.013" style="font-style:normal;font-variant:normal;font-weight:700;font-stretch:normal;font-size:4.23333px;line-height:1.25;font-family:Arial;-inkscape-font-specification:&quot;Arial Bold&quot;;white-space:pre;display:inline;fill:#fff;stroke:none;stroke-width:.352778;stroke-dasharray:none"><tspan style="fill:#fff;stroke:none;stroke-width:.352778;stroke-dasharray:none">Combat Technique</tspan></text><path d="m700.699 243.415-1.86-1.86v-4.49H769.4v4.49l-1.86 1.86zM700.699 251.355l-1.86-1.86v-2.63l1.86-1.86h30.748l1.86 1.86v2.63l-1.86 1.86zM736.756 251.355l-1.86-1.86v-2.63l1.86-1.86h30.749l1.86 1.86v2.63l-1.86 1.86zM700.699 259.295l-1.86-1.86v-2.63l1.86-1.86h30.748l1.86 1.86v2.63l-1.86 1.86zM736.756 259.295l-1.86-1.86v-2.63l1.86-1.86h30.749l1.86 1.86v2.63l-1.86 1.86zM700.699 306.89l-1.86-1.86v-42.285l1.86-1.86h66.841l1.86 1.86v42.284l-1.86 1.86z" style="font-variation-settings:normal;vector-effect:none;fill:none;fill-opacity:1;stroke:#000;stroke-width:.352777;stroke-linecap:butt;stroke-linejoin:miter;stroke-miterlimit:4;stroke-dasharray:none;stroke-dashoffset:0;stroke-opacity:1;-inkscape-stroke:none;stop-color:#000"/><path d="M770.99 237.065v-4.49l1.86-1.86h66.841l1.86 1.86v4.49z" style="font-variation-settings:normal;vector-effect:none;fill:#000;fill-opacity:1;stroke:#000;stroke-width:.352777;stroke-linecap:butt;stroke-linejoin:miter;stroke-miterlimit:4;stroke-dasharray:none;stroke-dashoffset:0;stroke-opacity:1;-inkscape-stroke:none;stop-color:#000"/><path d="m837.192 231.122-.459.46-.6-.25-.249.6h-.65v.65l-.6.249.25.6-.46.46.459.458-.249.6.6.249v.649h.65l.248.6.601-.248.46.458.459-.458.6.248.248-.6h.65v-.65l.6-.249-.248-.599.46-.46-.46-.458.248-.6-.6-.25v-.648h-.65l-.248-.6-.6.248z" style="font-variation-settings:normal;fill:#fff;fill-opacity:1;stroke:none;stroke-width:.352778;stroke-linecap:butt;stroke-linejoin:miter;stroke-miterlimit:4;stroke-dasharray:none;stroke-dashoffset:0;stroke-opacity:1;stop-color:#000"/><text xml:space="preserve" x="787.361" y="235.013" style="font-style:normal;font-variant:normal;font-weight:700;font-stretch:normal;font-size:4.23333px;line-height:1.25;font-family:Arial;-inkscape-font-specification:&quot;Arial Bold&quot;;white-space:pre;display:inline;fill:#fff;stroke:none;stroke-width:.352778;stroke-dasharray:none"><tspan style="fill:#fff;stroke:none;stroke-width:.352778;stroke-dasharray:none">Combat Technique</tspan></text><path d="m772.85 243.415-1.86-1.86v-4.49h70.561v4.49l-1.86 1.86zM772.85 251.355l-1.86-1.86v-2.63l1.86-1.86h30.748l1.86 1.86v2.63l-1.86 1.86zM808.908 251.355l-1.86-1.86v-2.63l1.86-1.86h30.748l1.86 1.86v2.63l-1.86 1.86zM772.85 259.295l-1.86-1.86v-2.63l1.86-1.86h30.748l1.86 1.86v2.63l-1.86 1.86zM808.908 259.295l-1.86-1.86v-2.63l1.86-1.86h30.748l1.86 1.86v2.63l-1.86 1.86zM772.85 306.89l-1.86-1.86v-42.285l1.86-1.86h66.841l1.86 1.86v42.284l-1.86 1.86zM574.869 133.842v171.184l1.86 1.86H695.36l1.86-1.86V133.843z" style="font-variation-settings:normal;vector-effect:none;fill:none;fill-opacity:1;stroke:#000;stroke-width:.352777;stroke-linecap:butt;stroke-linejoin:miter;stroke-miterlimit:4;stroke-dasharray:none;stroke-dashoffset:0;stroke-opacity:1;-inkscape-stroke:none;stop-color:#000"/><path d="m837.106 183.075-.687 1.172-1.173.687V187.565l1.173.687.687 1.173h2.63l.687-1.173 1.173-.687V184.934l-1.173-.687-.687-1.172h-1.315z" style="font-variation-settings:normal;fill:none;fill-opacity:1;stroke:#000;stroke-width:.352778;stroke-linecap:butt;stroke-linejoin:miter;stroke-miterlimit:4;stroke-dasharray:none;stroke-dashoffset:0;stroke-opacity:1;stop-color:#000"/><path d="m792.703 189.425-1.86-1.86v-2.63l1.86-1.86h39.093l1.86 1.86v2.63l-1.86 1.86z" style="font-variation-settings:normal;vector-effect:none;fill:#000;fill-opacity:1;stroke:none;stroke-width:.352777;stroke-linecap:butt;stroke-linejoin:miter;stroke-miterlimit:4;stroke-dasharray:none;stroke-dashoffset:0;stroke-opacity:1;-inkscape-stroke:none;stop-color:#000"/><text xml:space="preserve" x="802.612" y="187.319" style="font-style:normal;font-variant:normal;font-weight:700;font-stretch:normal;font-size:4.23333px;line-height:1.25;font-family:Arial;-inkscape-font-specification:&quot;Arial Bold&quot;;white-space:pre;display:inline;fill:#fff;fill-opacity:1;stroke:none;stroke-width:.352778;stroke-dasharray:none"><tspan style="stroke-width:.352778;stroke-dasharray:none">Inventory</tspan></text><path d="m792.703 197.365-1.86-1.86v-2.63l1.86-1.86h20.867l1.86 1.86v2.63l-1.86 1.86zM818.88 197.365l-1.86-1.86v-2.63l1.86-1.86h20.867l1.86 1.86v2.63l-1.86 1.86zM792.703 205.305l-1.86-1.86v-2.63l1.86-1.86h20.867l1.86 1.86v2.63l-1.86 1.86zM818.88 205.305l-1.86-1.86v-2.63l1.86-1.86h20.867l1.86 1.86v2.63l-1.86 1.86zM792.703 213.245l-1.86-1.86v-2.63l1.86-1.86h20.867l1.86 1.86v2.63l-1.86 1.86zM818.88 213.245l-1.86-1.86v-2.63l1.86-1.86h20.867l1.86 1.86v2.63l-1.86 1.86zM792.703 221.185l-1.86-1.86v-2.63l1.86-1.86h20.867l1.86 1.86v2.63l-1.86 1.86zM818.88 221.185l-1.86-1.86v-2.63l1.86-1.86h20.867l1.86 1.86v2.63l-1.86 1.86zM792.703 229.125l-1.86-1.86v-2.63l1.86-1.86h20.867l1.86 1.86v2.63l-1.86 1.86zM818.88 229.125l-1.86-1.86v-2.63l1.86-1.86h20.867l1.86 1.86v2.63l-1.86 1.86z" style="font-variation-settings:normal;fill:none;fill-opacity:1;stroke:#000;stroke-width:.352778;stroke-linecap:butt;stroke-linejoin:miter;stroke-miterlimit:4;stroke-dasharray:none;stroke-dashoffset:0;stroke-opacity:1;stop-color:#000"/><path d="m818.87 141.784-1.86-1.86v-2.63l1.86-1.86h20.867l1.86 1.86v2.63l-1.86 1.86z" style="font-variation-settings:normal;fill:#000;fill-opacity:1;stroke:none;stroke-width:.352778;stroke-linecap:butt;stroke-linejoin:miter;stroke-miterlimit:4;stroke-dasharray:none;stroke-dashoffset:0;stroke-opacity:1;stop-color:#000"/><text xml:space="preserve" x="811.136" y="141.847" style="font-style:normal;font-variant:normal;font-weight:700;font-stretch:normal;font-size:4.29903px;line-height:1.25;font-family:Arial;-inkscape-font-specification:&quot;Arial Bold&quot;;white-space:pre;display:inline;fill:#fff;stroke:none;stroke-width:.352778;stroke-dasharray:none" transform="scale(1.01553 .9847)"><tspan style="stroke-width:.352778;stroke-dasharray:none">Vigor</tspan></text><path d="m792.693 141.784-1.86-1.86v-2.63l1.86-1.86h20.867l1.86 1.86v2.63l-1.86 1.86z" style="font-variation-settings:normal;fill:#000;fill-opacity:1;stroke:none;stroke-width:.352778;stroke-linecap:butt;stroke-linejoin:miter;stroke-miterlimit:4;stroke-dasharray:none;stroke-dashoffset:0;stroke-opacity:1;stop-color:#000"/><text xml:space="preserve" x="784.27" y="142.275" style="font-style:normal;font-variant:normal;font-weight:700;font-stretch:normal;font-size:4.29903px;line-height:1.25;font-family:Arial;-inkscape-font-specification:&quot;Arial Bold&quot;;white-space:pre;display:inline;fill:#fff;stroke:none;stroke-width:.352778;stroke-dasharray:none" transform="scale(1.01553 .9847)"><tspan style="stroke-width:.352778;stroke-dasharray:none">Health</tspan></text><path d="m818.87 143.374-1.86 1.86v8.98l1.86 1.86h6.35l6.173-11.774-.926-.926zM839.728 157.664l1.86-1.86v-8.98l-1.86-1.86h-6.35l-6.174 11.774.927.926zM792.693 143.374l-1.86 1.86v8.98l1.86 1.86h6.35l6.173-11.774-.926-.926zM813.55 157.664l1.86-1.86v-8.98l-1.86-1.86h-6.35l-6.173 11.774.927.926z" style="font-variation-settings:normal;fill:none;fill-opacity:1;stroke:#000;stroke-width:.352778;stroke-linecap:butt;stroke-linejoin:miter;stroke-miterlimit:4;stroke-dasharray:none;stroke-dashoffset:0;stroke-opacity:1;stop-color:#000"/><path d="m792.705 165.604-1.86-1.86v-2.63l1.86-1.86h39.08l1.86 1.86v2.63l-1.86 1.86zM792.693 133.844l-1.86-1.86v-2.63l1.86-1.86h39.08l1.86 1.86v2.63l-1.86 1.86z" style="font-variation-settings:normal;fill:#000;fill-opacity:1;stroke:none;stroke-width:.352778;stroke-linecap:butt;stroke-linejoin:miter;stroke-miterlimit:4;stroke-dasharray:none;stroke-dashoffset:0;stroke-opacity:1;stop-color:#000"/><text xml:space="preserve" x="800.932" y="132.16" style="font-style:normal;font-variant:normal;font-weight:700;font-stretch:normal;font-size:4.23333px;line-height:1.25;font-family:Arial;-inkscape-font-specification:&quot;Arial Bold&quot;;white-space:pre;display:inline;fill:#fff;fill-opacity:1;stroke:none;stroke-width:.352778;stroke-dasharray:none"><tspan style="stroke-width:.352778;stroke-dasharray:none">Momentum</tspan></text><text xml:space="preserve" x="799.314" y="163.499" style="font-style:normal;font-variant:normal;font-weight:700;font-stretch:normal;font-size:4.23333px;line-height:1.25;font-family:Arial;-inkscape-font-specification:&quot;Arial Bold&quot;;white-space:pre;display:inline;fill:#fff;fill-opacity:1;stroke:none;stroke-width:.352778;stroke-dasharray:none"><tspan style="stroke-width:.352778;stroke-dasharray:none">Armour Type</tspan></text><path d="m792.705 173.544-1.86-1.86v-2.63l1.86-1.86h39.08l1.86 1.86v2.63l-1.86 1.86z" style="font-variation-settings:normal;fill:#000;fill-opacity:1;stroke:none;stroke-width:.352778;stroke-linecap:butt;stroke-linejoin:miter;stroke-miterlimit:4;stroke-dasharray:none;stroke-dashoffset:0;stroke-opacity:1;stop-color:#000"/><text xml:space="preserve" x="793.063" y="171.439" style="font-style:normal;font-variant:normal;font-weight:700;font-stretch:normal;font-size:4.23334px;line-height:1.25;font-family:Arial;-inkscape-font-specification:&quot;Arial Bold&quot;;white-space:pre;display:inline;fill:#fff;fill-opacity:1;stroke:none;stroke-width:.352778;stroke-dasharray:none"><tspan style="font-style:normal;font-variant:normal;font-weight:700;font-stretch:normal;font-family:Arial;-inkscape-font-specification:&quot;Arial Bold&quot;;fill:#fff;stroke-width:.352778;stroke-dasharray:none">Damage Reduction</tspan></text><path d="m792.705 181.484-1.86-1.86v-2.63l1.86-1.86h39.08l1.86 1.86v2.63l-1.86 1.86z" style="font-variation-settings:normal;fill:#000;fill-opacity:1;stroke:none;stroke-width:.352778;stroke-linecap:butt;stroke-linejoin:miter;stroke-miterlimit:4;stroke-dasharray:none;stroke-dashoffset:0;stroke-opacity:1;stop-color:#000"/><text xml:space="preserve" x="794.821" y="179.433" style="font-style:normal;font-variant:normal;font-weight:700;font-stretch:normal;font-size:4.23334px;line-height:1.25;font-family:Arial;-inkscape-font-specification:&quot;Arial Bold&quot;;white-space:pre;display:inline;fill:#fff;fill-opacity:1;stroke:none;stroke-width:.352778;stroke-dasharray:none"><tspan style="font-style:normal;font-variant:normal;font-weight:700;font-stretch:normal;font-family:Arial;-inkscape-font-specification:&quot;Arial Bold&quot;;fill:#fff;stroke-width:.352778;stroke-dasharray:none">Movement Speed</tspan></text><path fill="none" d="m287.965 159.276-6.133 1.643-4.49-4.49 1.643-6.133 6.134-1.644 4.49 4.49z" style="fill:#fff;fill-opacity:0;stroke:#000;stroke-width:.656592;stroke-dasharray:none" transform="matrix(.55768 -.12941 .14943 .48296 657.192 140.238)"/><path d="M839.997 159.255h-3.175l-1.588 1.587v3.175l3.175 1.588 3.175-1.588v-3.175z" style="font-variation-settings:normal;vector-effect:none;fill:none;fill-opacity:1;stroke:#000;stroke-width:.352777;stroke-linecap:butt;stroke-linejoin:miter;stroke-miterlimit:4;stroke-dasharray:none;stroke-dashoffset:0;stroke-opacity:1;-inkscape-stroke:none;stop-color:#000"/><path d="M838.41 173.545c-2.528-1.575-3.2-4.003-3.175-5.5 2.058-1.077 4.168-1.19 6.35 0 .025 1.497-.647 3.926-3.175 5.5z" style="font-variation-settings:normal;fill:none;fill-opacity:1;stroke:#000;stroke-width:.352778;stroke-linecap:butt;stroke-linejoin:miter;stroke-miterlimit:4;stroke-dasharray:none;stroke-dashoffset:0;stroke-opacity:1;stop-color:#000"/><path d="m758.588 133.842-1.86-1.86v-2.63l1.86-1.86h20.867l1.86 1.86v2.63l-1.86 1.86z" style="font-variation-settings:normal;vector-effect:none;fill:#000;fill-opacity:1;stroke:none;stroke-width:.352777;stroke-linecap:butt;stroke-linejoin:miter;stroke-miterlimit:4;stroke-dasharray:none;stroke-dashoffset:0;stroke-opacity:1;-inkscape-stroke:none;stop-color:#000"/><text xml:space="preserve" x="758.604" y="131.673" style="font-style:normal;font-variant:normal;font-weight:700;font-stretch:normal;font-size:3.88056px;line-height:1.25;font-family:Arial;-inkscape-font-specification:&quot;Arial Bold&quot;;white-space:pre;display:inline;fill:#fff;fill-opacity:1;stroke:none;stroke-width:.352778;stroke-dasharray:none"><tspan style="font-size:3.88056px;stroke-width:.352778;stroke-dasharray:none">Experience</tspan></text><path d="m700.64 173.544-1.86-1.86v-36.252h88.616l1.86 1.86v34.393l-1.86 1.86z" style="font-variation-settings:normal;vector-effect:none;fill:none;fill-opacity:1;stroke:#000;stroke-width:.352777;stroke-linecap:butt;stroke-linejoin:miter;stroke-miterlimit:4;stroke-dasharray:none;stroke-dashoffset:0;stroke-opacity:1;-inkscape-stroke:none;stop-color:#000"/><path d="m700.64 127.507-1.86 1.86v6.064h58.198l-1.86-1.86v-4.204l-1.86-1.86z" style="font-variation-settings:normal;vector-effect:none;fill:#000;fill-opacity:1;stroke:#000;stroke-width:.352777;stroke-linecap:butt;stroke-linejoin:miter;stroke-miterlimit:4;stroke-dasharray:none;stroke-dashoffset:0;stroke-opacity:1;-inkscape-stroke:none;stop-color:#000"/><text xml:space="preserve" x="709.369" y="132.56" style="font-style:normal;font-variant:normal;font-weight:700;font-stretch:normal;font-size:4.234px;line-height:1.25;font-family:Arial;-inkscape-font-specification:&quot;Arial Bold&quot;;white-space:pre;display:inline;fill:#fff;stroke:none;stroke-width:1.00013;stroke-dasharray:none" transform="scale(1.00016 .99984)"><tspan style="fill:#fff;stroke-width:1.00013;stroke-dasharray:none">Hello My Name Is</tspan></text><path d="m786.08 127.492-.93.93h-1.316v1.315l-.93.93.93.93v1.315h1.316l.93.93.93-.93h1.316v-1.315l.93-.93-.93-.93v-1.315h-1.315z" style="font-variation-settings:normal;fill:none;fill-opacity:1;stroke:#000;stroke-width:.352778;stroke-linecap:butt;stroke-linejoin:miter;stroke-miterlimit:4;stroke-dasharray:none;stroke-dashoffset:0;stroke-opacity:1;stop-color:#000"/><rect width="6.35" height="6.35" x="835.222" y="-133.844" ry="1.27" style="font-variation-settings:normal;opacity:1;vector-effect:none;fill:none;fill-opacity:1;fill-rule:evenodd;stroke:#000;stroke-width:.352777;stroke-linecap:butt;stroke-linejoin:miter;stroke-miterlimit:4;stroke-dasharray:none;stroke-dashoffset:0;stroke-opacity:1;-inkscape-stroke:none;stop-color:#000;stop-opacity:1" transform="scale(1 -1)"/></g></svg>