<svg xmlns="http://www.w3.org/2000/svg" xml:space="preserve" width="1056" height="816" viewBox="0 0 279.4 215.9"><defs><path id="b" d="M-520.568 23.817h472.529V48h-472.529z"/><path id="c" d="M-520.568 23.817h472.529V48h-472.529z"/><marker id="a" markerHeight="9.086" markerWidth="15.249" orient="auto" preserveAspectRatio="xMidYMid" refX="-10" refY="0" style="overflow:visible" viewBox="0 0 15.249 9.086"><path d="M6.363-2.524c-.68-.82-1.904-.791-2.82-.439L-2.204-.808c-1.672-.915-3.324-.653-3.324-1.099 0-.348.32-.271.272-1.178-.046-.87-.955-1.514-1.813-1.457-.86-.005-1.75.653-1.758 1.561-.064.915.706 1.764 1.615 1.824 1.066.158 2.953-.487 3.838 1.1-.66 1.216-1.83 1.22-2.888 1.159-.878-.051-1.933.2-2.352 1.064-.405.828-.008 2.005.922 2.259.938.344 2.226-.091 2.45-1.17.171-.831-.418-1.222-.192-1.524.171-.228 1.254-.096 3.183-.962l6.225 2.194c.787.22 1.748.212 2.445-.561L-.036-.038zm-12.816-1.33c.907.505.833 1.878-.109 2.144-.852.296-1.94-.532-1.668-1.455.159-.757 1.157-1.036 1.777-.69zm.04 5.612c.945.349.785 1.949-.177 2.164-.637.221-1.55-.098-1.614-.849-.124-.913.95-1.739 1.79-1.315z" style="fill:context-stroke;stroke-width:.7"/></marker></defs><path d="M-571.52 0h279.4v215.9h-279.4z" style="font-variation-settings:normal;vector-effect:none;fill:#fff;fill-opacity:1;fill-rule:evenodd;stroke:none;stroke-width:.352778;stroke-linecap:butt;stroke-linejoin:miter;stroke-miterlimit:4;stroke-dasharray:none;stroke-dashoffset:0;stroke-opacity:1;-inkscape-stroke:none;stop-color:#000" transform="translate(571.52)"/><path d="M-431.82 6.35v203.2" style="font-variation-settings:normal;vector-effect:none;fill:none;fill-opacity:1;stroke:#000;stroke-width:.352777;stroke-linecap:butt;stroke-linejoin:miter;stroke-miterlimit:4;stroke-dasharray:2.82222,.352777;stroke-dashoffset:0;stroke-opacity:1;-inkscape-stroke:none;marker-start:url(#a);stop-color:#000" transform="translate(571.52)"/><path d="m-563.357 6.303-1.86 1.86v4.49H-438.124v-4.49l-1.86-1.86H-556.914z" style="font-variation-settings:normal;vector-effect:none;fill:#000;fill-opacity:1;stroke:#000;stroke-width:.352777;stroke-linecap:butt;stroke-linejoin:miter;stroke-miterlimit:4;stroke-dasharray:none;stroke-dashoffset:0;stroke-opacity:1;-inkscape-stroke:none;stop-color:#000" transform="translate(571.52)"/><text xml:space="preserve" style="font-style:normal;font-variant:normal;font-weight:700;font-stretch:normal;font-size:16px;line-height:1.25;font-family:Arial;-inkscape-font-specification:&quot;Arial Bold&quot;;white-space:pre;shape-inside:url(#b);display:inline;fill:#fff" transform="matrix(.26458 0 0 .26458 191.71 .46)"><tspan x="-520.568" y="38.228">Sturdy Pancake</tspan></text><path d="M-565.217 12.653v195.083l1.86 1.86H-439.984l1.86-1.86V12.654Z" style="font-variation-settings:normal;vector-effect:none;fill:none;fill-opacity:1;stroke:#000;stroke-width:.352777;stroke-linecap:butt;stroke-linejoin:miter;stroke-miterlimit:4;stroke-dasharray:none;stroke-dashoffset:0;stroke-opacity:1;-inkscape-stroke:none;stop-color:#000" transform="translate(571.52)"/><path d="M-565.217 19.003h127.093M-565.217 26.147h127.093M-565.217 33.29h127.093M-565.217 40.435h127.093M-565.217 47.578h127.093M-565.217 54.722h127.093M-565.217 61.866h127.093M-565.217 69.01h127.093M-565.217 76.153h127.093M-565.217 83.297h127.093M-565.217 90.441h127.093M-565.217 97.585h127.093M-565.217 104.728h127.093M-565.217 111.872h127.093M-565.217 119.016h127.093M-565.217 126.16h127.093M-565.217 133.303h127.093M-565.217 140.447h127.093M-565.217 147.591h127.093M-565.217 154.735h127.093M-565.217 161.878h127.093M-565.217 169.022h127.093M-565.217 176.166h127.093M-565.217 183.31h127.093M-565.217 190.453h127.093M-565.216 197.597h127.092M-565.217 203.947h127.094" style="font-variation-settings:normal;fill:none;fill-opacity:1;stroke:#000;stroke-width:.176388;stroke-linecap:butt;stroke-linejoin:miter;stroke-miterlimit:4;stroke-dasharray:none;stroke-dashoffset:0;stroke-opacity:.346642;stop-color:#000" transform="translate(571.52)"/><path d="m-423.657 6.304-1.86 1.86v4.49H-298.424v-4.49l-1.86-1.86H-417.214z" style="font-variation-settings:normal;vector-effect:none;fill:#000;fill-opacity:1;stroke:#000;stroke-width:.352777;stroke-linecap:butt;stroke-linejoin:miter;stroke-miterlimit:4;stroke-dasharray:none;stroke-dashoffset:0;stroke-opacity:1;-inkscape-stroke:none;stop-color:#000" transform="translate(571.52)"/><text xml:space="preserve" style="font-style:normal;font-variant:normal;font-weight:700;font-stretch:normal;font-size:16px;line-height:1.25;font-family:Arial;-inkscape-font-specification:&quot;Arial Bold&quot;;white-space:pre;shape-inside:url(#c);display:inline;fill:#fff" transform="matrix(.26458 0 0 .26458 331.41 .46)"><tspan x="-520.568" y="38.228">Sturdy Pancake</tspan></text><path d="M-425.517 12.654v195.083l1.86 1.86H-300.284l1.86-1.86V12.654Z" style="font-variation-settings:normal;vector-effect:none;fill:none;fill-opacity:1;stroke:#000;stroke-width:.352777;stroke-linecap:butt;stroke-linejoin:miter;stroke-miterlimit:4;stroke-dasharray:none;stroke-dashoffset:0;stroke-opacity:1;-inkscape-stroke:none;stop-color:#000" transform="translate(571.52)"/><path d="M-425.517 19.004h127.093M-425.517 26.147h127.093M-425.517 33.291h127.093M-425.517 40.435h127.093M-425.517 47.579h127.093M-425.517 54.722h127.093M-425.517 61.866h127.093M-425.517 69.01h127.093M-425.517 76.154h127.093M-425.517 83.297h127.093M-425.517 90.441h127.093M-425.517 97.585h127.093M-425.517 104.729h127.093M-425.517 111.872h127.093M-425.517 119.016h127.093M-425.517 126.16h127.093M-425.517 133.304h127.093M-425.517 140.447h127.093M-425.517 147.591h127.093M-425.517 154.735h127.093M-425.517 161.879h127.093M-425.517 169.022h127.093M-425.517 176.166h127.093M-425.517 183.31h127.093M-425.517 190.454h127.093M-425.517 197.597h127.093M-425.517 203.947h127.093" style="font-variation-settings:normal;fill:none;fill-opacity:1;stroke:#000;stroke-width:.176388;stroke-linecap:butt;stroke-linejoin:miter;stroke-miterlimit:4;stroke-dasharray:none;stroke-dashoffset:0;stroke-opacity:.346642;stop-color:#000" transform="translate(571.52)"/></svg>