<?xml version="1.0" encoding="UTF-8" standalone="no"?>
<svg
   xml:space="preserve"
   width="1056.001"
   height="816"
   viewBox="0 0 279.4 215.9"
   version="1.1"
   id="svg34061"
   sodipodi:docname="opponent-cards.svg"
   inkscape:export-filename="opponent-cards.pdf"
   inkscape:export-xdpi="96"
   inkscape:export-ydpi="96"
   inkscape:version="1.2.2 (732a01da63, 2022-12-09)"
   xmlns:inkscape="http://www.inkscape.org/namespaces/inkscape"
   xmlns:sodipodi="http://sodipodi.sourceforge.net/DTD/sodipodi-0.dtd"
   xmlns="http://www.w3.org/2000/svg"
   xmlns:svg="http://www.w3.org/2000/svg"><defs
     id="defs34065" /><sodipodi:namedview
     id="namedview34063"
     pagecolor="#505050"
     bordercolor="#eeeeee"
     borderopacity="1"
     inkscape:showpageshadow="0"
     inkscape:pageopacity="0"
     inkscape:pagecheckerboard="0"
     inkscape:deskcolor="#505050"
     showgrid="false"
     inkscape:zoom="0.81802549"
     inkscape:cx="493.26091"
     inkscape:cy="374.07147"
     inkscape:window-width="1920"
     inkscape:window-height="1009"
     inkscape:window-x="1912"
     inkscape:window-y="-8"
     inkscape:window-maximized="1"
     inkscape:current-layer="svg34061" /><path
     d="M1009.259 422.585h279.4v215.9h-279.4z"
     style="font-variation-settings:normal;vector-effect:none;fill:#fff;fill-opacity:1;fill-rule:evenodd;stroke:none;stroke-width:.352777;stroke-linecap:butt;stroke-linejoin:miter;stroke-miterlimit:4;stroke-dasharray:none;stroke-dashoffset:0;stroke-opacity:1;-inkscape-stroke:none;stop-color:#000"
     transform="translate(-1009.26 -422.585)"
     id="path33929" /><path
     d="M1449.968 512.341h1.6v54.624h-1.6zm0 53.024v1.6h-59.8v-1.6zm-61.4-53.024h1.6v54.624h-1.6zm0-33.375h63v33.375h-63z"
     style="vector-effect:none;fill-rule:evenodd;stroke:#000;stroke-width:.352777;stop-color:#000"
     transform="translate(-1374.868 -459.015)"
     id="path33931" /><path
     d="M1388.569 478.966h63v88h-63z"
     style="font-variation-settings:normal;vector-effect:none;fill:none;fill-opacity:1;fill-rule:evenodd;stroke:#000;stroke-width:.352777;stroke-linecap:butt;stroke-linejoin:miter;stroke-miterlimit:4;stroke-dasharray:none;stroke-dashoffset:0;stroke-opacity:1;-inkscape-stroke:none;stop-color:#000"
     transform="translate(-1374.868 -459.015)"
     id="path33933" /><path
     d="m1392.595 486.906-1.86-1.86v-2.63l1.86-1.86h29.975l1.86 1.86v2.63l-1.86 1.86zM1392.02 502.786l-1.86-1.86v-2.63l1.86-1.86h25.389l1.86 1.86v2.63l-1.86 1.86zM1422.718 502.786l-1.86-1.86v-2.63l1.86-1.86h25.389l1.86 1.86v2.63l-1.86 1.86z"
     style="font-variation-settings:normal;vector-effect:none;fill:#fff;fill-opacity:1;stroke:none;stroke-width:.352777;stroke-linecap:butt;stroke-linejoin:miter;stroke-miterlimit:4;stroke-dasharray:none;stroke-dashoffset:0;stroke-opacity:1;-inkscape-stroke:none;stop-color:#000"
     transform="translate(-1374.868 -459.015)"
     id="path33935" /><path
     d="M1441.9 485.046v-2.63l1.86-1.86h2.63l1.86 1.86v2.63l-1.86 1.86h-2.63zM1426.02 485.046v-2.63l1.86-1.86h2.63l1.86 1.86v2.63l-1.86 1.86h-2.63zM1433.96 485.046v-2.63l1.86-1.86h2.63l1.86 1.86v2.63l-1.86 1.86h-2.63zM1434.459 494.846l.93-.93v-4.49l-.93-.93h-3.175l-3.087 5.887.463.463zM1423.895 488.496l-.93.93v4.49l.93.93h3.175l3.087-5.887-.463-.463zM1448.472 494.846l.93-.93v-4.49l-.93-.93h-3.175l-3.086 5.887.463.463zM1437.909 488.496l-.93.93v4.49l.93.93h3.175l3.086-5.887-.463-.463z"
     style="font-variation-settings:normal;fill:#fff;fill-opacity:1;stroke:#fff;stroke-width:.352778;stroke-linecap:butt;stroke-linejoin:miter;stroke-miterlimit:4;stroke-dasharray:none;stroke-dashoffset:0;stroke-opacity:1;stop-color:#000"
     transform="translate(-1374.868 -459.015)"
     id="path33937" /><path
     d="M1411.379 488.496h-3.175l-1.588 1.587v3.175l3.175 1.588 3.175-1.588v-3.175z"
     style="font-variation-settings:normal;vector-effect:none;fill:#fff;fill-opacity:1;stroke:#fff;stroke-width:.352777;stroke-linecap:butt;stroke-linejoin:miter;stroke-miterlimit:4;stroke-dasharray:none;stroke-dashoffset:0;stroke-opacity:1;-inkscape-stroke:none;stop-color:#000"
     transform="translate(-1374.868 -459.015)"
     id="path33939" /><path
     d="M1401.85 494.846c-2.527-1.574-3.2-4.003-3.175-5.5 2.058-1.077 4.169-1.19 6.35 0 .025 1.497-.647 3.926-3.175 5.5z"
     style="font-variation-settings:normal;fill:#fff;fill-opacity:1;stroke:#fff;stroke-width:.352778;stroke-linecap:butt;stroke-linejoin:miter;stroke-miterlimit:4;stroke-dasharray:none;stroke-dashoffset:0;stroke-opacity:1;stop-color:#000"
     transform="translate(-1374.868 -459.015)"
     id="path33941" /><path
     d="M1390.735 493.258v-3.175l3.175-1.587 3.175 1.587v3.175l-3.175 1.588zM1416.8 494.846l-2.244-2.75v-2.445l.943-1.155h3.9l2.244 2.748v2.446l-.943 1.156z"
     style="font-variation-settings:normal;vector-effect:none;fill:#fff;fill-opacity:1;stroke:#fff;stroke-width:.352777;stroke-linecap:butt;stroke-linejoin:miter;stroke-miterlimit:4;stroke-dasharray:none;stroke-dashoffset:0;stroke-opacity:1;-inkscape-stroke:none;stop-color:#000"
     transform="translate(-1374.868 -459.015)"
     id="path33943" /><path
     d="M1393.6 508.866v-2.63l1.859-1.86h2.63l1.86 1.86v2.63l-1.86 1.86h-2.63zM1401.54 508.866v-2.63l1.859-1.86h2.63l1.86 1.86v2.63l-1.86 1.86h-2.63zM1409.48 508.866v-2.63l1.859-1.86h2.63l1.86 1.86v2.63l-1.86 1.86h-2.63zM1424.298 508.866v-2.63l1.86-1.86h2.63l1.86 1.86v2.63l-1.86 1.86h-2.63zM1432.238 508.866v-2.63l1.86-1.86h2.63l1.86 1.86v2.63l-1.86 1.86h-2.63zM1440.178 508.866v-2.63l1.86-1.86h2.63l1.86 1.86v2.63l-1.86 1.86h-2.63z"
     style="font-variation-settings:normal;fill:#fff;fill-opacity:1;stroke:#fff;stroke-width:.352778;stroke-linecap:butt;stroke-linejoin:miter;stroke-miterlimit:4;stroke-dasharray:none;stroke-dashoffset:0;stroke-opacity:1;stop-color:#000"
     transform="translate(-1374.868 -459.015)"
     id="path33945" /><path
     d="M1449.968 512.341h1.6v54.624h-1.6zm0 53.024v1.6h-59.8v-1.6zm-61.4-53.024h1.6v54.624h-1.6zm0-33.375h63v33.375h-63z"
     style="vector-effect:none;fill-rule:evenodd;stroke:#000;stroke-width:.352777;stop-color:#000"
     transform="translate(-1374.868 -371.016)"
     id="path33947" /><path
     d="M1388.569 478.966h63v88h-63z"
     style="font-variation-settings:normal;vector-effect:none;fill:none;fill-opacity:1;fill-rule:evenodd;stroke:#000;stroke-width:.352777;stroke-linecap:butt;stroke-linejoin:miter;stroke-miterlimit:4;stroke-dasharray:none;stroke-dashoffset:0;stroke-opacity:1;-inkscape-stroke:none;stop-color:#000"
     transform="translate(-1374.868 -371.016)"
     id="path33949" /><path
     d="m1392.595 486.906-1.86-1.86v-2.63l1.86-1.86h29.975l1.86 1.86v2.63l-1.86 1.86zM1392.02 502.786l-1.86-1.86v-2.63l1.86-1.86h25.389l1.86 1.86v2.63l-1.86 1.86zM1422.718 502.786l-1.86-1.86v-2.63l1.86-1.86h25.389l1.86 1.86v2.63l-1.86 1.86z"
     style="font-variation-settings:normal;vector-effect:none;fill:#fff;fill-opacity:1;stroke:none;stroke-width:.352777;stroke-linecap:butt;stroke-linejoin:miter;stroke-miterlimit:4;stroke-dasharray:none;stroke-dashoffset:0;stroke-opacity:1;-inkscape-stroke:none;stop-color:#000"
     transform="translate(-1374.868 -371.016)"
     id="path33951" /><path
     d="M1441.9 485.046v-2.63l1.86-1.86h2.63l1.86 1.86v2.63l-1.86 1.86h-2.63zM1426.02 485.046v-2.63l1.86-1.86h2.63l1.86 1.86v2.63l-1.86 1.86h-2.63zM1433.96 485.046v-2.63l1.86-1.86h2.63l1.86 1.86v2.63l-1.86 1.86h-2.63zM1434.459 494.846l.93-.93v-4.49l-.93-.93h-3.175l-3.087 5.887.463.463zM1423.895 488.496l-.93.93v4.49l.93.93h3.175l3.087-5.887-.463-.463zM1448.472 494.846l.93-.93v-4.49l-.93-.93h-3.175l-3.086 5.887.463.463zM1437.909 488.496l-.93.93v4.49l.93.93h3.175l3.086-5.887-.463-.463z"
     style="font-variation-settings:normal;fill:#fff;fill-opacity:1;stroke:#fff;stroke-width:.352778;stroke-linecap:butt;stroke-linejoin:miter;stroke-miterlimit:4;stroke-dasharray:none;stroke-dashoffset:0;stroke-opacity:1;stop-color:#000"
     transform="translate(-1374.868 -371.016)"
     id="path33953" /><path
     d="M1411.379 488.496h-3.175l-1.588 1.587v3.175l3.175 1.588 3.175-1.588v-3.175z"
     style="font-variation-settings:normal;vector-effect:none;fill:#fff;fill-opacity:1;stroke:#fff;stroke-width:.352777;stroke-linecap:butt;stroke-linejoin:miter;stroke-miterlimit:4;stroke-dasharray:none;stroke-dashoffset:0;stroke-opacity:1;-inkscape-stroke:none;stop-color:#000"
     transform="translate(-1374.868 -371.016)"
     id="path33955" /><path
     d="M1401.85 494.846c-2.527-1.574-3.2-4.003-3.175-5.5 2.058-1.077 4.169-1.19 6.35 0 .025 1.497-.647 3.926-3.175 5.5z"
     style="font-variation-settings:normal;fill:#fff;fill-opacity:1;stroke:#fff;stroke-width:.352778;stroke-linecap:butt;stroke-linejoin:miter;stroke-miterlimit:4;stroke-dasharray:none;stroke-dashoffset:0;stroke-opacity:1;stop-color:#000"
     transform="translate(-1374.868 -371.016)"
     id="path33957" /><path
     d="M1390.735 493.258v-3.175l3.175-1.587 3.175 1.587v3.175l-3.175 1.588zM1416.8 494.846l-2.244-2.75v-2.445l.943-1.155h3.9l2.244 2.748v2.446l-.943 1.156z"
     style="font-variation-settings:normal;vector-effect:none;fill:#fff;fill-opacity:1;stroke:#fff;stroke-width:.352777;stroke-linecap:butt;stroke-linejoin:miter;stroke-miterlimit:4;stroke-dasharray:none;stroke-dashoffset:0;stroke-opacity:1;-inkscape-stroke:none;stop-color:#000"
     transform="translate(-1374.868 -371.016)"
     id="path33959" /><path
     d="M1393.6 508.866v-2.63l1.859-1.86h2.63l1.86 1.86v2.63l-1.86 1.86h-2.63zM1401.54 508.866v-2.63l1.859-1.86h2.63l1.86 1.86v2.63l-1.86 1.86h-2.63zM1409.48 508.866v-2.63l1.859-1.86h2.63l1.86 1.86v2.63l-1.86 1.86h-2.63zM1424.298 508.866v-2.63l1.86-1.86h2.63l1.86 1.86v2.63l-1.86 1.86h-2.63zM1432.238 508.866v-2.63l1.86-1.86h2.63l1.86 1.86v2.63l-1.86 1.86h-2.63zM1440.178 508.866v-2.63l1.86-1.86h2.63l1.86 1.86v2.63l-1.86 1.86h-2.63z"
     style="font-variation-settings:normal;fill:#fff;fill-opacity:1;stroke:#fff;stroke-width:.352778;stroke-linecap:butt;stroke-linejoin:miter;stroke-miterlimit:4;stroke-dasharray:none;stroke-dashoffset:0;stroke-opacity:1;stop-color:#000"
     transform="translate(-1374.868 -371.016)"
     id="path33961" /><path
     d="M1449.968 512.341h1.6v54.624h-1.6zm0 53.024v1.6h-59.8v-1.6zm-61.4-53.024h1.6v54.624h-1.6zm0-33.375h63v33.375h-63z"
     style="vector-effect:none;fill-rule:evenodd;stroke:#000;stroke-width:.352777;stop-color:#000"
     transform="translate(-1311.868 -459.015)"
     id="path33963" /><path
     d="M1388.569 478.966h63v88h-63z"
     style="font-variation-settings:normal;vector-effect:none;fill:none;fill-opacity:1;fill-rule:evenodd;stroke:#000;stroke-width:.352777;stroke-linecap:butt;stroke-linejoin:miter;stroke-miterlimit:4;stroke-dasharray:none;stroke-dashoffset:0;stroke-opacity:1;-inkscape-stroke:none;stop-color:#000"
     transform="translate(-1311.868 -459.015)"
     id="path33965" /><path
     d="m1392.595 486.906-1.86-1.86v-2.63l1.86-1.86h29.975l1.86 1.86v2.63l-1.86 1.86zM1392.02 502.786l-1.86-1.86v-2.63l1.86-1.86h25.389l1.86 1.86v2.63l-1.86 1.86zM1422.718 502.786l-1.86-1.86v-2.63l1.86-1.86h25.389l1.86 1.86v2.63l-1.86 1.86z"
     style="font-variation-settings:normal;vector-effect:none;fill:#fff;fill-opacity:1;stroke:none;stroke-width:.352777;stroke-linecap:butt;stroke-linejoin:miter;stroke-miterlimit:4;stroke-dasharray:none;stroke-dashoffset:0;stroke-opacity:1;-inkscape-stroke:none;stop-color:#000"
     transform="translate(-1311.868 -459.015)"
     id="path33967" /><path
     d="M1441.9 485.046v-2.63l1.86-1.86h2.63l1.86 1.86v2.63l-1.86 1.86h-2.63zM1426.02 485.046v-2.63l1.86-1.86h2.63l1.86 1.86v2.63l-1.86 1.86h-2.63zM1433.96 485.046v-2.63l1.86-1.86h2.63l1.86 1.86v2.63l-1.86 1.86h-2.63zM1434.459 494.846l.93-.93v-4.49l-.93-.93h-3.175l-3.087 5.887.463.463zM1423.895 488.496l-.93.93v4.49l.93.93h3.175l3.087-5.887-.463-.463zM1448.472 494.846l.93-.93v-4.49l-.93-.93h-3.175l-3.086 5.887.463.463zM1437.909 488.496l-.93.93v4.49l.93.93h3.175l3.086-5.887-.463-.463z"
     style="font-variation-settings:normal;fill:#fff;fill-opacity:1;stroke:#fff;stroke-width:.352778;stroke-linecap:butt;stroke-linejoin:miter;stroke-miterlimit:4;stroke-dasharray:none;stroke-dashoffset:0;stroke-opacity:1;stop-color:#000"
     transform="translate(-1311.868 -459.015)"
     id="path33969" /><path
     d="M1411.379 488.496h-3.175l-1.588 1.587v3.175l3.175 1.588 3.175-1.588v-3.175z"
     style="font-variation-settings:normal;vector-effect:none;fill:#fff;fill-opacity:1;stroke:#fff;stroke-width:.352777;stroke-linecap:butt;stroke-linejoin:miter;stroke-miterlimit:4;stroke-dasharray:none;stroke-dashoffset:0;stroke-opacity:1;-inkscape-stroke:none;stop-color:#000"
     transform="translate(-1311.868 -459.015)"
     id="path33971" /><path
     d="M1401.85 494.846c-2.527-1.574-3.2-4.003-3.175-5.5 2.058-1.077 4.169-1.19 6.35 0 .025 1.497-.647 3.926-3.175 5.5z"
     style="font-variation-settings:normal;fill:#fff;fill-opacity:1;stroke:#fff;stroke-width:.352778;stroke-linecap:butt;stroke-linejoin:miter;stroke-miterlimit:4;stroke-dasharray:none;stroke-dashoffset:0;stroke-opacity:1;stop-color:#000"
     transform="translate(-1311.868 -459.015)"
     id="path33973" /><path
     d="M1390.735 493.258v-3.175l3.175-1.587 3.175 1.587v3.175l-3.175 1.588zM1416.8 494.846l-2.244-2.75v-2.445l.943-1.155h3.9l2.244 2.748v2.446l-.943 1.156z"
     style="font-variation-settings:normal;vector-effect:none;fill:#fff;fill-opacity:1;stroke:#fff;stroke-width:.352777;stroke-linecap:butt;stroke-linejoin:miter;stroke-miterlimit:4;stroke-dasharray:none;stroke-dashoffset:0;stroke-opacity:1;-inkscape-stroke:none;stop-color:#000"
     transform="translate(-1311.868 -459.015)"
     id="path33975" /><path
     d="M1393.6 508.866v-2.63l1.859-1.86h2.63l1.86 1.86v2.63l-1.86 1.86h-2.63zM1401.54 508.866v-2.63l1.859-1.86h2.63l1.86 1.86v2.63l-1.86 1.86h-2.63zM1409.48 508.866v-2.63l1.859-1.86h2.63l1.86 1.86v2.63l-1.86 1.86h-2.63zM1424.298 508.866v-2.63l1.86-1.86h2.63l1.86 1.86v2.63l-1.86 1.86h-2.63zM1432.238 508.866v-2.63l1.86-1.86h2.63l1.86 1.86v2.63l-1.86 1.86h-2.63zM1440.178 508.866v-2.63l1.86-1.86h2.63l1.86 1.86v2.63l-1.86 1.86h-2.63z"
     style="font-variation-settings:normal;fill:#fff;fill-opacity:1;stroke:#fff;stroke-width:.352778;stroke-linecap:butt;stroke-linejoin:miter;stroke-miterlimit:4;stroke-dasharray:none;stroke-dashoffset:0;stroke-opacity:1;stop-color:#000"
     transform="translate(-1311.868 -459.015)"
     id="path33977" /><path
     d="M1449.968 512.341h1.6v54.624h-1.6zm0 53.024v1.6h-59.8v-1.6zm-61.4-53.024h1.6v54.624h-1.6zm0-33.375h63v33.375h-63z"
     style="vector-effect:none;fill-rule:evenodd;stroke:#000;stroke-width:.352777;stop-color:#000"
     transform="translate(-1311.868 -371.016)"
     id="path33979" /><path
     d="M1388.569 478.966h63v88h-63z"
     style="font-variation-settings:normal;vector-effect:none;fill:none;fill-opacity:1;fill-rule:evenodd;stroke:#000;stroke-width:.352777;stroke-linecap:butt;stroke-linejoin:miter;stroke-miterlimit:4;stroke-dasharray:none;stroke-dashoffset:0;stroke-opacity:1;-inkscape-stroke:none;stop-color:#000"
     transform="translate(-1311.868 -371.016)"
     id="path33981" /><path
     d="m1392.595 486.906-1.86-1.86v-2.63l1.86-1.86h29.975l1.86 1.86v2.63l-1.86 1.86zM1392.02 502.786l-1.86-1.86v-2.63l1.86-1.86h25.389l1.86 1.86v2.63l-1.86 1.86zM1422.718 502.786l-1.86-1.86v-2.63l1.86-1.86h25.389l1.86 1.86v2.63l-1.86 1.86z"
     style="font-variation-settings:normal;vector-effect:none;fill:#fff;fill-opacity:1;stroke:none;stroke-width:.352777;stroke-linecap:butt;stroke-linejoin:miter;stroke-miterlimit:4;stroke-dasharray:none;stroke-dashoffset:0;stroke-opacity:1;-inkscape-stroke:none;stop-color:#000"
     transform="translate(-1311.868 -371.016)"
     id="path33983" /><path
     d="M1441.9 485.046v-2.63l1.86-1.86h2.63l1.86 1.86v2.63l-1.86 1.86h-2.63zM1426.02 485.046v-2.63l1.86-1.86h2.63l1.86 1.86v2.63l-1.86 1.86h-2.63zM1433.96 485.046v-2.63l1.86-1.86h2.63l1.86 1.86v2.63l-1.86 1.86h-2.63zM1434.459 494.846l.93-.93v-4.49l-.93-.93h-3.175l-3.087 5.887.463.463zM1423.895 488.496l-.93.93v4.49l.93.93h3.175l3.087-5.887-.463-.463zM1448.472 494.846l.93-.93v-4.49l-.93-.93h-3.175l-3.086 5.887.463.463zM1437.909 488.496l-.93.93v4.49l.93.93h3.175l3.086-5.887-.463-.463z"
     style="font-variation-settings:normal;fill:#fff;fill-opacity:1;stroke:#fff;stroke-width:.352778;stroke-linecap:butt;stroke-linejoin:miter;stroke-miterlimit:4;stroke-dasharray:none;stroke-dashoffset:0;stroke-opacity:1;stop-color:#000"
     transform="translate(-1311.868 -371.016)"
     id="path33985" /><path
     d="M1411.379 488.496h-3.175l-1.588 1.587v3.175l3.175 1.588 3.175-1.588v-3.175z"
     style="font-variation-settings:normal;vector-effect:none;fill:#fff;fill-opacity:1;stroke:#fff;stroke-width:.352777;stroke-linecap:butt;stroke-linejoin:miter;stroke-miterlimit:4;stroke-dasharray:none;stroke-dashoffset:0;stroke-opacity:1;-inkscape-stroke:none;stop-color:#000"
     transform="translate(-1311.868 -371.016)"
     id="path33987" /><path
     d="M1401.85 494.846c-2.527-1.574-3.2-4.003-3.175-5.5 2.058-1.077 4.169-1.19 6.35 0 .025 1.497-.647 3.926-3.175 5.5z"
     style="font-variation-settings:normal;fill:#fff;fill-opacity:1;stroke:#fff;stroke-width:.352778;stroke-linecap:butt;stroke-linejoin:miter;stroke-miterlimit:4;stroke-dasharray:none;stroke-dashoffset:0;stroke-opacity:1;stop-color:#000"
     transform="translate(-1311.868 -371.016)"
     id="path33989" /><path
     d="M1390.735 493.258v-3.175l3.175-1.587 3.175 1.587v3.175l-3.175 1.588zM1416.8 494.846l-2.244-2.75v-2.445l.943-1.155h3.9l2.244 2.748v2.446l-.943 1.156z"
     style="font-variation-settings:normal;vector-effect:none;fill:#fff;fill-opacity:1;stroke:#fff;stroke-width:.352777;stroke-linecap:butt;stroke-linejoin:miter;stroke-miterlimit:4;stroke-dasharray:none;stroke-dashoffset:0;stroke-opacity:1;-inkscape-stroke:none;stop-color:#000"
     transform="translate(-1311.868 -371.016)"
     id="path33991" /><path
     d="M1393.6 508.866v-2.63l1.859-1.86h2.63l1.86 1.86v2.63l-1.86 1.86h-2.63zM1401.54 508.866v-2.63l1.859-1.86h2.63l1.86 1.86v2.63l-1.86 1.86h-2.63zM1409.48 508.866v-2.63l1.859-1.86h2.63l1.86 1.86v2.63l-1.86 1.86h-2.63zM1424.298 508.866v-2.63l1.86-1.86h2.63l1.86 1.86v2.63l-1.86 1.86h-2.63zM1432.238 508.866v-2.63l1.86-1.86h2.63l1.86 1.86v2.63l-1.86 1.86h-2.63zM1440.178 508.866v-2.63l1.86-1.86h2.63l1.86 1.86v2.63l-1.86 1.86h-2.63z"
     style="font-variation-settings:normal;fill:#fff;fill-opacity:1;stroke:#fff;stroke-width:.352778;stroke-linecap:butt;stroke-linejoin:miter;stroke-miterlimit:4;stroke-dasharray:none;stroke-dashoffset:0;stroke-opacity:1;stop-color:#000"
     transform="translate(-1311.868 -371.016)"
     id="path33993" /><path
     d="M1449.968 512.341h1.6v54.624h-1.6zm0 53.024v1.6h-59.8v-1.6zm-61.4-53.024h1.6v54.624h-1.6zm0-33.375h63v33.375h-63z"
     style="vector-effect:none;fill-rule:evenodd;stroke:#000;stroke-width:.352777;stop-color:#000"
     transform="translate(-1248.868 -459.015)"
     id="path33995" /><path
     d="M1388.569 478.966h63v88h-63z"
     style="font-variation-settings:normal;vector-effect:none;fill:none;fill-opacity:1;fill-rule:evenodd;stroke:#000;stroke-width:.352777;stroke-linecap:butt;stroke-linejoin:miter;stroke-miterlimit:4;stroke-dasharray:none;stroke-dashoffset:0;stroke-opacity:1;-inkscape-stroke:none;stop-color:#000"
     transform="translate(-1248.868 -459.015)"
     id="path33997" /><path
     d="m1392.595 486.906-1.86-1.86v-2.63l1.86-1.86h29.975l1.86 1.86v2.63l-1.86 1.86zM1392.02 502.786l-1.86-1.86v-2.63l1.86-1.86h25.389l1.86 1.86v2.63l-1.86 1.86zM1422.718 502.786l-1.86-1.86v-2.63l1.86-1.86h25.389l1.86 1.86v2.63l-1.86 1.86z"
     style="font-variation-settings:normal;vector-effect:none;fill:#fff;fill-opacity:1;stroke:none;stroke-width:.352777;stroke-linecap:butt;stroke-linejoin:miter;stroke-miterlimit:4;stroke-dasharray:none;stroke-dashoffset:0;stroke-opacity:1;-inkscape-stroke:none;stop-color:#000"
     transform="translate(-1248.868 -459.015)"
     id="path33999" /><path
     d="M1441.9 485.046v-2.63l1.86-1.86h2.63l1.86 1.86v2.63l-1.86 1.86h-2.63zM1426.02 485.046v-2.63l1.86-1.86h2.63l1.86 1.86v2.63l-1.86 1.86h-2.63zM1433.96 485.046v-2.63l1.86-1.86h2.63l1.86 1.86v2.63l-1.86 1.86h-2.63zM1434.459 494.846l.93-.93v-4.49l-.93-.93h-3.175l-3.087 5.887.463.463zM1423.895 488.496l-.93.93v4.49l.93.93h3.175l3.087-5.887-.463-.463zM1448.472 494.846l.93-.93v-4.49l-.93-.93h-3.175l-3.086 5.887.463.463zM1437.909 488.496l-.93.93v4.49l.93.93h3.175l3.086-5.887-.463-.463z"
     style="font-variation-settings:normal;fill:#fff;fill-opacity:1;stroke:#fff;stroke-width:.352778;stroke-linecap:butt;stroke-linejoin:miter;stroke-miterlimit:4;stroke-dasharray:none;stroke-dashoffset:0;stroke-opacity:1;stop-color:#000"
     transform="translate(-1248.868 -459.015)"
     id="path34001" /><path
     d="M1411.379 488.496h-3.175l-1.588 1.587v3.175l3.175 1.588 3.175-1.588v-3.175z"
     style="font-variation-settings:normal;vector-effect:none;fill:#fff;fill-opacity:1;stroke:#fff;stroke-width:.352777;stroke-linecap:butt;stroke-linejoin:miter;stroke-miterlimit:4;stroke-dasharray:none;stroke-dashoffset:0;stroke-opacity:1;-inkscape-stroke:none;stop-color:#000"
     transform="translate(-1248.868 -459.015)"
     id="path34003" /><path
     d="M1401.85 494.846c-2.527-1.574-3.2-4.003-3.175-5.5 2.058-1.077 4.169-1.19 6.35 0 .025 1.497-.647 3.926-3.175 5.5z"
     style="font-variation-settings:normal;fill:#fff;fill-opacity:1;stroke:#fff;stroke-width:.352778;stroke-linecap:butt;stroke-linejoin:miter;stroke-miterlimit:4;stroke-dasharray:none;stroke-dashoffset:0;stroke-opacity:1;stop-color:#000"
     transform="translate(-1248.868 -459.015)"
     id="path34005" /><path
     d="M1390.735 493.258v-3.175l3.175-1.587 3.175 1.587v3.175l-3.175 1.588zM1416.8 494.846l-2.244-2.75v-2.445l.943-1.155h3.9l2.244 2.748v2.446l-.943 1.156z"
     style="font-variation-settings:normal;vector-effect:none;fill:#fff;fill-opacity:1;stroke:#fff;stroke-width:.352777;stroke-linecap:butt;stroke-linejoin:miter;stroke-miterlimit:4;stroke-dasharray:none;stroke-dashoffset:0;stroke-opacity:1;-inkscape-stroke:none;stop-color:#000"
     transform="translate(-1248.868 -459.015)"
     id="path34007" /><path
     d="M1393.6 508.866v-2.63l1.859-1.86h2.63l1.86 1.86v2.63l-1.86 1.86h-2.63zM1401.54 508.866v-2.63l1.859-1.86h2.63l1.86 1.86v2.63l-1.86 1.86h-2.63zM1409.48 508.866v-2.63l1.859-1.86h2.63l1.86 1.86v2.63l-1.86 1.86h-2.63zM1424.298 508.866v-2.63l1.86-1.86h2.63l1.86 1.86v2.63l-1.86 1.86h-2.63zM1432.238 508.866v-2.63l1.86-1.86h2.63l1.86 1.86v2.63l-1.86 1.86h-2.63zM1440.178 508.866v-2.63l1.86-1.86h2.63l1.86 1.86v2.63l-1.86 1.86h-2.63z"
     style="font-variation-settings:normal;fill:#fff;fill-opacity:1;stroke:#fff;stroke-width:.352778;stroke-linecap:butt;stroke-linejoin:miter;stroke-miterlimit:4;stroke-dasharray:none;stroke-dashoffset:0;stroke-opacity:1;stop-color:#000"
     transform="translate(-1248.868 -459.015)"
     id="path34009" /><path
     d="M1449.968 512.341h1.6v54.624h-1.6zm0 53.024v1.6h-59.8v-1.6zm-61.4-53.024h1.6v54.624h-1.6zm0-33.375h63v33.375h-63z"
     style="vector-effect:none;fill-rule:evenodd;stroke:#000;stroke-width:.352777;stop-color:#000"
     transform="translate(-1248.868 -371.016)"
     id="path34011" /><path
     d="M1388.569 478.966h63v88h-63z"
     style="font-variation-settings:normal;vector-effect:none;fill:none;fill-opacity:1;fill-rule:evenodd;stroke:#000;stroke-width:.352777;stroke-linecap:butt;stroke-linejoin:miter;stroke-miterlimit:4;stroke-dasharray:none;stroke-dashoffset:0;stroke-opacity:1;-inkscape-stroke:none;stop-color:#000"
     transform="translate(-1248.868 -371.016)"
     id="path34013" /><path
     d="m1392.595 486.906-1.86-1.86v-2.63l1.86-1.86h29.975l1.86 1.86v2.63l-1.86 1.86zM1392.02 502.786l-1.86-1.86v-2.63l1.86-1.86h25.389l1.86 1.86v2.63l-1.86 1.86zM1422.718 502.786l-1.86-1.86v-2.63l1.86-1.86h25.389l1.86 1.86v2.63l-1.86 1.86z"
     style="font-variation-settings:normal;vector-effect:none;fill:#fff;fill-opacity:1;stroke:none;stroke-width:.352777;stroke-linecap:butt;stroke-linejoin:miter;stroke-miterlimit:4;stroke-dasharray:none;stroke-dashoffset:0;stroke-opacity:1;-inkscape-stroke:none;stop-color:#000"
     transform="translate(-1248.868 -371.016)"
     id="path34015" /><path
     d="M1441.9 485.046v-2.63l1.86-1.86h2.63l1.86 1.86v2.63l-1.86 1.86h-2.63zM1426.02 485.046v-2.63l1.86-1.86h2.63l1.86 1.86v2.63l-1.86 1.86h-2.63zM1433.96 485.046v-2.63l1.86-1.86h2.63l1.86 1.86v2.63l-1.86 1.86h-2.63zM1434.459 494.846l.93-.93v-4.49l-.93-.93h-3.175l-3.087 5.887.463.463zM1423.895 488.496l-.93.93v4.49l.93.93h3.175l3.087-5.887-.463-.463zM1448.472 494.846l.93-.93v-4.49l-.93-.93h-3.175l-3.086 5.887.463.463zM1437.909 488.496l-.93.93v4.49l.93.93h3.175l3.086-5.887-.463-.463z"
     style="font-variation-settings:normal;fill:#fff;fill-opacity:1;stroke:#fff;stroke-width:.352778;stroke-linecap:butt;stroke-linejoin:miter;stroke-miterlimit:4;stroke-dasharray:none;stroke-dashoffset:0;stroke-opacity:1;stop-color:#000"
     transform="translate(-1248.868 -371.016)"
     id="path34017" /><path
     d="M1411.379 488.496h-3.175l-1.588 1.587v3.175l3.175 1.588 3.175-1.588v-3.175z"
     style="font-variation-settings:normal;vector-effect:none;fill:#fff;fill-opacity:1;stroke:#fff;stroke-width:.352777;stroke-linecap:butt;stroke-linejoin:miter;stroke-miterlimit:4;stroke-dasharray:none;stroke-dashoffset:0;stroke-opacity:1;-inkscape-stroke:none;stop-color:#000"
     transform="translate(-1248.868 -371.016)"
     id="path34019" /><path
     d="M1401.85 494.846c-2.527-1.574-3.2-4.003-3.175-5.5 2.058-1.077 4.169-1.19 6.35 0 .025 1.497-.647 3.926-3.175 5.5z"
     style="font-variation-settings:normal;fill:#fff;fill-opacity:1;stroke:#fff;stroke-width:.352778;stroke-linecap:butt;stroke-linejoin:miter;stroke-miterlimit:4;stroke-dasharray:none;stroke-dashoffset:0;stroke-opacity:1;stop-color:#000"
     transform="translate(-1248.868 -371.016)"
     id="path34021" /><path
     d="M1390.735 493.258v-3.175l3.175-1.587 3.175 1.587v3.175l-3.175 1.588zM1416.8 494.846l-2.244-2.75v-2.445l.943-1.155h3.9l2.244 2.748v2.446l-.943 1.156z"
     style="font-variation-settings:normal;vector-effect:none;fill:#fff;fill-opacity:1;stroke:#fff;stroke-width:.352777;stroke-linecap:butt;stroke-linejoin:miter;stroke-miterlimit:4;stroke-dasharray:none;stroke-dashoffset:0;stroke-opacity:1;-inkscape-stroke:none;stop-color:#000"
     transform="translate(-1248.868 -371.016)"
     id="path34023" /><path
     d="M1393.6 508.866v-2.63l1.859-1.86h2.63l1.86 1.86v2.63l-1.86 1.86h-2.63zM1401.54 508.866v-2.63l1.859-1.86h2.63l1.86 1.86v2.63l-1.86 1.86h-2.63zM1409.48 508.866v-2.63l1.859-1.86h2.63l1.86 1.86v2.63l-1.86 1.86h-2.63zM1424.298 508.866v-2.63l1.86-1.86h2.63l1.86 1.86v2.63l-1.86 1.86h-2.63zM1432.238 508.866v-2.63l1.86-1.86h2.63l1.86 1.86v2.63l-1.86 1.86h-2.63zM1440.178 508.866v-2.63l1.86-1.86h2.63l1.86 1.86v2.63l-1.86 1.86h-2.63z"
     style="font-variation-settings:normal;fill:#fff;fill-opacity:1;stroke:#fff;stroke-width:.352778;stroke-linecap:butt;stroke-linejoin:miter;stroke-miterlimit:4;stroke-dasharray:none;stroke-dashoffset:0;stroke-opacity:1;stop-color:#000"
     transform="translate(-1248.868 -371.016)"
     id="path34025" /><path
     d="M1449.968 512.341h1.6v54.624h-1.6zm0 53.024v1.6h-59.8v-1.6zm-61.4-53.024h1.6v54.624h-1.6zm0-33.375h63v33.375h-63z"
     style="vector-effect:none;fill-rule:evenodd;stroke:#000;stroke-width:.352777;stop-color:#000"
     transform="translate(-1185.869 -459.015)"
     id="path34027" /><path
     d="M1388.569 478.966h63v88h-63z"
     style="font-variation-settings:normal;vector-effect:none;fill:none;fill-opacity:1;fill-rule:evenodd;stroke:#000;stroke-width:.352777;stroke-linecap:butt;stroke-linejoin:miter;stroke-miterlimit:4;stroke-dasharray:none;stroke-dashoffset:0;stroke-opacity:1;-inkscape-stroke:none;stop-color:#000"
     transform="translate(-1185.869 -459.015)"
     id="path34029" /><path
     d="m1392.595 486.906-1.86-1.86v-2.63l1.86-1.86h29.975l1.86 1.86v2.63l-1.86 1.86zM1392.02 502.786l-1.86-1.86v-2.63l1.86-1.86h25.389l1.86 1.86v2.63l-1.86 1.86zM1422.718 502.786l-1.86-1.86v-2.63l1.86-1.86h25.389l1.86 1.86v2.63l-1.86 1.86z"
     style="font-variation-settings:normal;vector-effect:none;fill:#fff;fill-opacity:1;stroke:none;stroke-width:.352777;stroke-linecap:butt;stroke-linejoin:miter;stroke-miterlimit:4;stroke-dasharray:none;stroke-dashoffset:0;stroke-opacity:1;-inkscape-stroke:none;stop-color:#000"
     transform="translate(-1185.869 -459.015)"
     id="path34031" /><path
     d="M1441.9 485.046v-2.63l1.86-1.86h2.63l1.86 1.86v2.63l-1.86 1.86h-2.63zM1426.02 485.046v-2.63l1.86-1.86h2.63l1.86 1.86v2.63l-1.86 1.86h-2.63zM1433.96 485.046v-2.63l1.86-1.86h2.63l1.86 1.86v2.63l-1.86 1.86h-2.63zM1434.459 494.846l.93-.93v-4.49l-.93-.93h-3.175l-3.087 5.887.463.463zM1423.895 488.496l-.93.93v4.49l.93.93h3.175l3.087-5.887-.463-.463zM1448.472 494.846l.93-.93v-4.49l-.93-.93h-3.175l-3.086 5.887.463.463zM1437.909 488.496l-.93.93v4.49l.93.93h3.175l3.086-5.887-.463-.463z"
     style="font-variation-settings:normal;fill:#fff;fill-opacity:1;stroke:#fff;stroke-width:.352778;stroke-linecap:butt;stroke-linejoin:miter;stroke-miterlimit:4;stroke-dasharray:none;stroke-dashoffset:0;stroke-opacity:1;stop-color:#000"
     transform="translate(-1185.869 -459.015)"
     id="path34033" /><path
     d="M1411.379 488.496h-3.175l-1.588 1.587v3.175l3.175 1.588 3.175-1.588v-3.175z"
     style="font-variation-settings:normal;vector-effect:none;fill:#fff;fill-opacity:1;stroke:#fff;stroke-width:.352777;stroke-linecap:butt;stroke-linejoin:miter;stroke-miterlimit:4;stroke-dasharray:none;stroke-dashoffset:0;stroke-opacity:1;-inkscape-stroke:none;stop-color:#000"
     transform="translate(-1185.869 -459.015)"
     id="path34035" /><path
     d="M1401.85 494.846c-2.527-1.574-3.2-4.003-3.175-5.5 2.058-1.077 4.169-1.19 6.35 0 .025 1.497-.647 3.926-3.175 5.5z"
     style="font-variation-settings:normal;fill:#fff;fill-opacity:1;stroke:#fff;stroke-width:.352778;stroke-linecap:butt;stroke-linejoin:miter;stroke-miterlimit:4;stroke-dasharray:none;stroke-dashoffset:0;stroke-opacity:1;stop-color:#000"
     transform="translate(-1185.869 -459.015)"
     id="path34037" /><path
     d="M1390.735 493.258v-3.175l3.175-1.587 3.175 1.587v3.175l-3.175 1.588zM1416.8 494.846l-2.244-2.75v-2.445l.943-1.155h3.9l2.244 2.748v2.446l-.943 1.156z"
     style="font-variation-settings:normal;vector-effect:none;fill:#fff;fill-opacity:1;stroke:#fff;stroke-width:.352777;stroke-linecap:butt;stroke-linejoin:miter;stroke-miterlimit:4;stroke-dasharray:none;stroke-dashoffset:0;stroke-opacity:1;-inkscape-stroke:none;stop-color:#000"
     transform="translate(-1185.869 -459.015)"
     id="path34039" /><path
     d="M1393.6 508.866v-2.63l1.859-1.86h2.63l1.86 1.86v2.63l-1.86 1.86h-2.63zM1401.54 508.866v-2.63l1.859-1.86h2.63l1.86 1.86v2.63l-1.86 1.86h-2.63zM1409.48 508.866v-2.63l1.859-1.86h2.63l1.86 1.86v2.63l-1.86 1.86h-2.63zM1424.298 508.866v-2.63l1.86-1.86h2.63l1.86 1.86v2.63l-1.86 1.86h-2.63zM1432.238 508.866v-2.63l1.86-1.86h2.63l1.86 1.86v2.63l-1.86 1.86h-2.63zM1440.178 508.866v-2.63l1.86-1.86h2.63l1.86 1.86v2.63l-1.86 1.86h-2.63z"
     style="font-variation-settings:normal;fill:#fff;fill-opacity:1;stroke:#fff;stroke-width:.352778;stroke-linecap:butt;stroke-linejoin:miter;stroke-miterlimit:4;stroke-dasharray:none;stroke-dashoffset:0;stroke-opacity:1;stop-color:#000"
     transform="translate(-1185.869 -459.015)"
     id="path34041" /><path
     d="M1449.968 512.341h1.6v54.624h-1.6zm0 53.024v1.6h-59.8v-1.6zm-61.4-53.024h1.6v54.624h-1.6zm0-33.375h63v33.375h-63z"
     style="vector-effect:none;fill-rule:evenodd;stroke:#000;stroke-width:.352777;stop-color:#000"
     transform="translate(-1185.869 -371.016)"
     id="path34043" /><path
     d="M1388.569 478.966h63v88h-63z"
     style="font-variation-settings:normal;vector-effect:none;fill:none;fill-opacity:1;fill-rule:evenodd;stroke:#000;stroke-width:.352777;stroke-linecap:butt;stroke-linejoin:miter;stroke-miterlimit:4;stroke-dasharray:none;stroke-dashoffset:0;stroke-opacity:1;-inkscape-stroke:none;stop-color:#000"
     transform="translate(-1185.869 -371.016)"
     id="path34045" /><path
     d="m1392.595 486.906-1.86-1.86v-2.63l1.86-1.86h29.975l1.86 1.86v2.63l-1.86 1.86zM1392.02 502.786l-1.86-1.86v-2.63l1.86-1.86h25.389l1.86 1.86v2.63l-1.86 1.86zM1422.718 502.786l-1.86-1.86v-2.63l1.86-1.86h25.389l1.86 1.86v2.63l-1.86 1.86z"
     style="font-variation-settings:normal;vector-effect:none;fill:#fff;fill-opacity:1;stroke:none;stroke-width:.352777;stroke-linecap:butt;stroke-linejoin:miter;stroke-miterlimit:4;stroke-dasharray:none;stroke-dashoffset:0;stroke-opacity:1;-inkscape-stroke:none;stop-color:#000"
     transform="translate(-1185.869 -371.016)"
     id="path34047" /><path
     d="M1441.9 485.046v-2.63l1.86-1.86h2.63l1.86 1.86v2.63l-1.86 1.86h-2.63zM1426.02 485.046v-2.63l1.86-1.86h2.63l1.86 1.86v2.63l-1.86 1.86h-2.63zM1433.96 485.046v-2.63l1.86-1.86h2.63l1.86 1.86v2.63l-1.86 1.86h-2.63zM1434.459 494.846l.93-.93v-4.49l-.93-.93h-3.175l-3.087 5.887.463.463zM1423.895 488.496l-.93.93v4.49l.93.93h3.175l3.087-5.887-.463-.463zM1448.472 494.846l.93-.93v-4.49l-.93-.93h-3.175l-3.086 5.887.463.463zM1437.909 488.496l-.93.93v4.49l.93.93h3.175l3.086-5.887-.463-.463z"
     style="font-variation-settings:normal;fill:#fff;fill-opacity:1;stroke:#fff;stroke-width:.352778;stroke-linecap:butt;stroke-linejoin:miter;stroke-miterlimit:4;stroke-dasharray:none;stroke-dashoffset:0;stroke-opacity:1;stop-color:#000"
     transform="translate(-1185.869 -371.016)"
     id="path34049" /><path
     d="M1411.379 488.496h-3.175l-1.588 1.587v3.175l3.175 1.588 3.175-1.588v-3.175z"
     style="font-variation-settings:normal;vector-effect:none;fill:#fff;fill-opacity:1;stroke:#fff;stroke-width:.352777;stroke-linecap:butt;stroke-linejoin:miter;stroke-miterlimit:4;stroke-dasharray:none;stroke-dashoffset:0;stroke-opacity:1;-inkscape-stroke:none;stop-color:#000"
     transform="translate(-1185.869 -371.016)"
     id="path34051" /><path
     d="M1401.85 494.846c-2.527-1.574-3.2-4.003-3.175-5.5 2.058-1.077 4.169-1.19 6.35 0 .025 1.497-.647 3.926-3.175 5.5z"
     style="font-variation-settings:normal;fill:#fff;fill-opacity:1;stroke:#fff;stroke-width:.352778;stroke-linecap:butt;stroke-linejoin:miter;stroke-miterlimit:4;stroke-dasharray:none;stroke-dashoffset:0;stroke-opacity:1;stop-color:#000"
     transform="translate(-1185.869 -371.016)"
     id="path34053" /><path
     d="M1390.735 493.258v-3.175l3.175-1.587 3.175 1.587v3.175l-3.175 1.588zM1416.8 494.846l-2.244-2.75v-2.445l.943-1.155h3.9l2.244 2.748v2.446l-.943 1.156z"
     style="font-variation-settings:normal;vector-effect:none;fill:#fff;fill-opacity:1;stroke:#fff;stroke-width:.352777;stroke-linecap:butt;stroke-linejoin:miter;stroke-miterlimit:4;stroke-dasharray:none;stroke-dashoffset:0;stroke-opacity:1;-inkscape-stroke:none;stop-color:#000"
     transform="translate(-1185.869 -371.016)"
     id="path34055" /><path
     d="M1393.6 508.866v-2.63l1.859-1.86h2.63l1.86 1.86v2.63l-1.86 1.86h-2.63zM1401.54 508.866v-2.63l1.859-1.86h2.63l1.86 1.86v2.63l-1.86 1.86h-2.63zM1409.48 508.866v-2.63l1.859-1.86h2.63l1.86 1.86v2.63l-1.86 1.86h-2.63zM1424.298 508.866v-2.63l1.86-1.86h2.63l1.86 1.86v2.63l-1.86 1.86h-2.63zM1432.238 508.866v-2.63l1.86-1.86h2.63l1.86 1.86v2.63l-1.86 1.86h-2.63zM1440.178 508.866v-2.63l1.86-1.86h2.63l1.86 1.86v2.63l-1.86 1.86h-2.63z"
     style="font-variation-settings:normal;fill:#fff;fill-opacity:1;stroke:#fff;stroke-width:.352778;stroke-linecap:butt;stroke-linejoin:miter;stroke-miterlimit:4;stroke-dasharray:none;stroke-dashoffset:0;stroke-opacity:1;stop-color:#000"
     transform="translate(-1185.869 -371.016)"
     id="path34057" /><path
     d="M1022.96 530.535h251.999M1085.96 442.535v176M1148.96 442.535v176M1211.959 442.535v176"
     style="font-variation-settings:normal;vector-effect:none;fill:none;fill-opacity:1;stroke:#fff;stroke-width:.352777;stroke-linecap:butt;stroke-linejoin:miter;stroke-miterlimit:4;stroke-dasharray:.705554,.352777;stroke-dashoffset:0;stroke-opacity:1;-inkscape-stroke:none;stop-color:#000"
     transform="translate(-1009.26 -422.585)"
     id="path34059" /></svg>
