<svg xmlns="http://www.w3.org/2000/svg" xml:space="preserve" width="1056.001" height="816" viewBox="0 0 279.4 215.9"><defs><path id="H" d="M-2915.514 1244.725h233.952v154.56h-233.952z"/><path id="G" d="M-3299.514 1244.725h161.952v154.56h-161.952z"/><path id="F" d="M-3131.514 1244.725h209.952v154.56h-209.952z"/><path id="E" d="M-2675.472 1244.773h310.944v154.464h-310.944z"/><path id="u" d="M-3756.151 1102.38h239.709v42.426h-239.709z"/><path id="p" d="M-3302.538 1081.071h941.076v26.768h-941.076z"/><path id="e" d="M-528.038 635.232h26.185v24h-26.185z"/><path id="h" d="M-528.038 635.232h26.185v24h-26.185z"/><path id="k" d="M-528.038 635.232h34.683v18.74h-34.683z"/><path id="d" d="M-528.038 635.232h43.99v18.942h-43.99z"/><path id="c" d="M-528.038 635.232h43.99v18.942h-43.99z"/><path id="b" d="M-528.038 648h94.064v20.517h-94.064z"/><path id="g" d="M-528.038 648h79.188v16.274h-79.188z"/><path id="j" d="M-528.038 648h91.206v16.274h-91.206z"/><path id="m" d="M-528.038 648h114.383v15.702h-114.383z"/><path id="o" d="M-528.038 648h114.383v15.702h-114.383z"/><path id="f" d="M216.435 36.631h574.65v19.296h-574.65z"/><path id="a" d="M88.755 36.631h127.68v19.296H88.755Z"/><path id="i" d="M88.755 36.631h550.963v18.231H88.755Z"/><path id="l" d="M88.755 36.631h550.963v18.231H88.755Z"/><path id="n" d="M88.755 36.631h550.963v18.231H88.755Z"/><path id="A" d="M-3756.151 1102.38h239.709v42.426h-239.709z"/><path id="B" d="M-3756.151 1102.38h239.709v42.426h-239.709z"/><path id="C" d="M-3756.151 1102.38h239.709v42.426h-239.709z"/><path id="D" d="M-3756.151 1102.38h239.709v42.426h-239.709z"/><path id="r" d="M-3302.538 1081.071h941.076v26.768h-941.076z"/><path id="q" d="M-3302.538 1081.071h941.076v26.768h-941.076z"/><path id="v" d="M-3756.151 1102.38h239.709v42.426h-239.709z"/><path id="w" d="M-3756.151 1102.38h239.709v42.426h-239.709z"/><path id="x" d="M-3756.151 1102.38h239.709v42.426h-239.709z"/><path id="y" d="M-3756.151 1102.38h239.709v42.426h-239.709z"/><path id="z" d="M-3756.151 1102.38h265.872v26.87h-265.872z"/><path id="s" d="M-3302.538 1081.071h941.076v26.768h-941.076z"/><path id="t" d="M-3302.538 1081.071h941.076v26.768h-941.076z"/></defs><path d="M1145.028-.334h279.4v215.9h-279.4z" style="font-variation-settings:normal;vector-effect:none;fill:#fff;fill-opacity:1;fill-rule:evenodd;stroke:none;stroke-width:.352777;stroke-linecap:butt;stroke-linejoin:miter;stroke-miterlimit:4;stroke-dasharray:none;stroke-dashoffset:0;stroke-opacity:1;-inkscape-stroke:none;stop-color:#000" transform="translate(-1145.028 .334)"/><path d="M1158.728 19.616v88h252v-88Z" style="font-variation-settings:normal;vector-effect:none;fill:#000;fill-opacity:1;fill-rule:evenodd;stroke:none;stroke-width:.352777;stroke-linecap:butt;stroke-linejoin:miter;stroke-miterlimit:4;stroke-dasharray:none;stroke-dashoffset:0;stroke-opacity:1;-inkscape-stroke:none;stop-color:#000" transform="translate(-1145.028 .334)"/><path d="M1160.231 28.198h248.993v77.918h-248.993z" style="font-variation-settings:normal;vector-effect:none;fill:#fff;fill-opacity:1;fill-rule:evenodd;stroke:none;stroke-width:.352777;stroke-linecap:butt;stroke-linejoin:miter;stroke-miterlimit:4;stroke-dasharray:none;stroke-dashoffset:0;stroke-opacity:1;-inkscape-stroke:none;stop-color:#000" transform="translate(-1145.028 .334)"/><text xml:space="preserve" style="font-style:normal;font-variant:normal;font-weight:400;font-stretch:normal;font-size:13.3333px;line-height:1.25;font-family:Arial;-inkscape-font-specification:Arial;white-space:pre;shape-inside:url(#a);display:inline" transform="translate(53.937 27.529) scale(.26458)"><tspan x="88.756" y="48.641">Attack Misses</tspan></text><text xml:space="preserve" style="font-size:13.3333px;line-height:1.25;font-family:Arial;-inkscape-font-specification:Arial;white-space:pre;shape-inside:url(#b);display:inline" transform="matrix(.26458 0 0 .26458 173.14 -141.662)"><tspan x="-528.039" y="660.01">Major Failure</tspan></text><text xml:space="preserve" style="font-size:13.3333px;line-height:1.25;font-family:Arial;-inkscape-font-specification:Arial;white-space:pre;shape-inside:url(#c);display:inline" transform="matrix(.26458 0 0 .26458 158.178 -109.6)"><tspan x="-528.039" y="647.242">15+</tspan></text><text xml:space="preserve" style="font-size:13.3333px;line-height:1.25;font-family:Arial;-inkscape-font-specification:Arial;white-space:pre;shape-inside:url(#d);display:inline" transform="matrix(.26458 0 0 .26458 156.646 -116.66)"><tspan x="-528.039" y="647.242">12-14</tspan></text><text xml:space="preserve" style="font-size:13.3333px;line-height:1.25;font-family:Arial;-inkscape-font-specification:Arial;white-space:pre;shape-inside:url(#e);display:inline" transform="matrix(.26458 0 0 .26458 159.242 -137.913)"><tspan x="-528.039" y="647.242">&lt;4</tspan></text><text xml:space="preserve" style="font-style:normal;font-variant:normal;font-weight:400;font-stretch:normal;font-size:13.3333px;line-height:1.25;font-family:Arial;-inkscape-font-specification:Arial;white-space:pre;shape-inside:url(#f);display:inline" transform="translate(8.098 20.138) scale(.26458)"><tspan x="216.436" y="48.641">Attack Misses, Complications</tspan></text><text xml:space="preserve" style="font-size:13.3333px;line-height:1.25;font-family:Arial;-inkscape-font-specification:Arial;white-space:pre;shape-inside:url(#g);display:inline" transform="matrix(.26458 0 0 .26458 173.14 -134.23)"><tspan x="-528.039" y="660.01">Minor Failure</tspan></text><text xml:space="preserve" style="font-size:13.3333px;line-height:1.25;font-family:Arial;-inkscape-font-specification:Arial;white-space:pre;shape-inside:url(#h);display:inline" transform="matrix(.26458 0 0 .26458 158.772 -130.83)"><tspan x="-528.039" y="647.242">4-7</tspan></text><text xml:space="preserve" style="font-style:normal;font-variant:normal;font-weight:400;font-stretch:normal;font-size:13.3333px;line-height:1.25;font-family:Arial;-inkscape-font-specification:Arial;white-space:pre;shape-inside:url(#i);display:inline" transform="translate(54.411 34.26) scale(.26458)"><tspan x="88.756" y="48.641">Roll Damage </tspan></text><text xml:space="preserve" style="font-size:13.3333px;line-height:1.25;font-family:Arial;-inkscape-font-specification:Arial;white-space:pre;shape-inside:url(#j);display:inline" transform="matrix(.26458 0 0 .26458 171.86 -127.127)"><tspan x="-528.039" y="660.01">Minor Success</tspan></text><text xml:space="preserve" style="font-size:13.3333px;line-height:1.25;font-family:Arial;-inkscape-font-specification:Arial;white-space:pre;shape-inside:url(#k);display:inline" transform="matrix(.26458 0 0 .26458 158.117 -123.765)"><tspan x="-528.039" y="647.242">8-11</tspan></text><text xml:space="preserve" style="font-style:normal;font-variant:normal;font-weight:400;font-stretch:normal;font-size:13.3333px;line-height:1.25;font-family:Arial;-inkscape-font-specification:Arial;white-space:pre;shape-inside:url(#l);display:inline" transform="translate(38.363 41.364) scale(.26458)"><tspan x="88.756" y="48.641">Roll Damage, gain 1 Attack Effect </tspan></text><text xml:space="preserve" style="font-size:13.3333px;line-height:1.25;font-family:Arial;-inkscape-font-specification:Arial;white-space:pre;shape-inside:url(#m);display:inline" transform="matrix(.26458 0 0 .26458 168.818 -120.044)"><tspan x="-528.039" y="660.01">Moderate Success</tspan></text><text xml:space="preserve" style="font-style:normal;font-variant:normal;font-weight:400;font-stretch:normal;font-size:13.3333px;line-height:1.25;font-family:Arial;-inkscape-font-specification:Arial;white-space:pre;shape-inside:url(#n);display:inline" transform="translate(37.55 48.447) scale(.26458)"><tspan x="88.756" y="48.641">Roll Damage, gain 2 Attack Effects</tspan></text><text xml:space="preserve" style="font-size:13.3333px;line-height:1.25;font-family:Arial;-inkscape-font-specification:Arial;white-space:pre;shape-inside:url(#o);display:inline" transform="matrix(.26458 0 0 .26458 171.86 -113.311)"><tspan x="-528.039" y="660.01">Major Success</tspan></text><text xml:space="preserve" style="font-style:normal;font-variant:normal;font-weight:700;font-stretch:normal;font-size:16px;line-height:1.25;font-family:Arial;-inkscape-font-specification:&quot;Arial Bold&quot;;white-space:pre;shape-inside:url(#p);display:inline;fill:#fff" transform="matrix(.26458 0 0 .26458 1009.905 -263.34)"><tspan x="-3302.539" y="1095.482">Skill Checks</tspan></text><text xml:space="preserve" style="font-style:normal;font-variant:normal;font-weight:700;font-stretch:normal;font-size:16px;line-height:1.25;font-family:Arial;-inkscape-font-specification:&quot;Arial Bold&quot;;white-space:pre;shape-inside:url(#q);display:inline;fill:#fff" transform="matrix(.26458 0 0 .26458 1081.997 -263.34)"><tspan x="-3302.539" y="1095.482">Death Checks</tspan></text><text xml:space="preserve" style="font-style:normal;font-variant:normal;font-weight:700;font-stretch:normal;font-size:16px;line-height:1.25;font-family:Arial;-inkscape-font-specification:&quot;Arial Bold&quot;;white-space:pre;shape-inside:url(#r);display:inline;fill:#fff" transform="matrix(.26458 0 0 .26458 947.54 -263.34)"><tspan x="-3302.539" y="1095.482">Attack Checks</tspan></text><text xml:space="preserve" style="font-style:normal;font-variant:normal;font-weight:700;font-stretch:normal;font-size:16px;line-height:1.25;font-family:Arial;-inkscape-font-specification:&quot;Arial Bold&quot;;white-space:pre;shape-inside:url(#s);display:inline;fill:#fff" transform="matrix(.26458 0 0 .26458 891.343 -263.365)"><tspan x="-3302.539" y="1095.482">Roll</tspan></text><text xml:space="preserve" style="font-style:normal;font-variant:normal;font-weight:700;font-stretch:normal;font-size:16px;line-height:1.25;font-family:Arial;-inkscape-font-specification:&quot;Arial Bold&quot;;white-space:pre;shape-inside:url(#t);display:inline;fill:#fff" transform="matrix(.26458 0 0 .26458 910.977 -263.365)"><tspan x="-3302.539" y="1095.482">Result</tspan></text><text xml:space="preserve" style="font-size:13.3333px;line-height:1.25;font-family:Arial;-inkscape-font-specification:Arial;white-space:pre;shape-inside:url(#u);display:inline" transform="matrix(.26458 0 0 .26458 1127.392 -261.841)"><tspan x="-3756.15" y="1114.389">Fail, Complications</tspan></text><text xml:space="preserve" style="font-size:13.3333px;line-height:1.25;font-family:Arial;-inkscape-font-specification:Arial;white-space:pre;shape-inside:url(#v);display:inline" transform="matrix(.26458 0 0 .26458 1204.282 -261.512)"><tspan x="-3756.15" y="1114.389">Character Dies</tspan></text><text xml:space="preserve" style="font-size:13.3333px;line-height:1.25;font-family:Arial;-inkscape-font-specification:Arial;white-space:pre;shape-inside:url(#w);display:inline" transform="matrix(.26458 0 0 .26458 1200.488 -254.43)"><tspan x="-3756.15" y="1114.389">-1 on Death Checks</tspan></text><text xml:space="preserve" style="font-size:13.3333px;line-height:1.25;font-family:Arial;-inkscape-font-specification:Arial;white-space:pre;shape-inside:url(#x);display:inline" transform="matrix(.26458 0 0 .26458 1208.72 -247.347)"><tspan x="-3756.15" y="1114.389">No Effect</tspan></text><text xml:space="preserve" style="font-size:13.3333px;line-height:1.25;font-family:Arial;-inkscape-font-specification:Arial;white-space:pre;shape-inside:url(#y);display:inline" transform="matrix(.26458 0 0 .26458 1200.003 -240.265)"><tspan x="-3756.15" y="1114.389">+1 on Death Checks</tspan></text><text xml:space="preserve" style="font-size:13.3333px;line-height:1.25;font-family:Arial;-inkscape-font-specification:Arial;white-space:pre;shape-inside:url(#z);display:inline" transform="matrix(.26458 0 0 .26458 1182.758 -233.533)"><tspan x="-3756.15" y="1114.389">Lose Dying, Gain 1 Health, Gain Wounded</tspan></text><text xml:space="preserve" style="font-size:13.3333px;line-height:1.25;font-family:Arial;-inkscape-font-specification:Arial;white-space:pre;shape-inside:url(#A);display:inline" transform="matrix(.26458 0 0 .26458 1113.144 -254.759)"><tspan x="-3756.15" y="1114.389">Succeed or Fail, Minor Complications</tspan></text><text xml:space="preserve" style="font-size:13.3333px;line-height:1.25;font-family:Arial;-inkscape-font-specification:Arial;white-space:pre;shape-inside:url(#B);display:inline" transform="matrix(.26458 0 0 .26458 1118.534 -247.677)"><tspan x="-3756.15" y="1114.389">Succeed, Minor Complications</tspan></text><text xml:space="preserve" style="font-size:13.3333px;line-height:1.25;font-family:Arial;-inkscape-font-specification:Arial;white-space:pre;shape-inside:url(#C);display:inline" transform="matrix(.26458 0 0 .26458 1135.552 -240.493)"><tspan x="-3756.15" y="1114.389">Succeed</tspan></text><text xml:space="preserve" style="font-size:13.3333px;line-height:1.25;font-family:Arial;-inkscape-font-specification:Arial;white-space:pre;shape-inside:url(#D);display:inline" transform="matrix(.26458 0 0 .26458 1128.14 -233.411)"><tspan x="-3756.15" y="1114.389">Succeed, Benefits</tspan></text><text xml:space="preserve" x="152.669" style="font-size:13.3333px;line-height:1.25;font-family:Arial;-inkscape-font-specification:Arial;text-align:center;white-space:pre;shape-inside:url(#E);display:inline" transform="matrix(.26458 0 0 .26458 888.99 -264.421)"><tspan x="-2665.612" y="1256.784"><tspan style="font-style:italic;font-weight:700;-inkscape-font-specification:&quot;Arial Bold Italic&quot;">Dying - </tspan>The Character can not make any Checks </tspan><tspan x="-2672.659" y="1273.45">besides Death Checks, perform any Normal Actions </tspan><tspan x="-2657.474" y="1290.117">or Reactions, or gain Health. All Attack Checks </tspan><tspan x="-2610.247" y="1306.783">against them gain a +1 Bonus.
</tspan><tspan x="-2612.243" y="1323.45"><tspan style="font-style:italic;font-weight:700;-inkscape-font-specification:&quot;Arial Bold Italic&quot;">Stabilizing a Dying Character</tspan>
</tspan><tspan x="-2661.92" y="1340.117">A Character can attempt to assist in stabilizing a </tspan><tspan x="-2660.81" y="1356.783">Character with the Dying Condition by making a </tspan><tspan x="-2670.875" y="1373.45">relevant Skill Check. The Dying Character gains +3 </tspan><tspan x="-2598.932" y="1390.117">on their next Death Check.</tspan></text><text xml:space="preserve" x="104.905" style="font-size:13.3333px;line-height:1.25;font-family:Arial;-inkscape-font-specification:Arial;text-align:center;white-space:pre;shape-inside:url(#F);display:inline" transform="matrix(.26458 0 0 .26458 889.035 -264.408)"><tspan x="-3131.369" y="1256.735"><tspan style="font-style:italic;font-weight:700;-inkscape-font-specification:&quot;Arial Bold Italic&quot;">Attack! (AW) [NA] {SP}  - </tspan>Make an </tspan><tspan x="-3110.275" y="1273.401">Attack Check with a Combat </tspan><tspan x="-3113.631" y="1290.068">Technique, Resolve using the </tspan><tspan x="-3127.322" y="1306.735">Attack Check Results table. Strain </tspan><tspan x="-3115.483" y="1323.401">an Attribute determined by the </tspan><tspan x="-3118.331" y="1340.068">Combat Technique being used. </tspan><tspan x="-3114.002" y="1356.734">Each additional Attack! Action </tspan><tspan x="-3115.115" y="1373.401">during that round increase the </tspan><tspan x="-3091.762" y="1390.068">Strain amount by one.</tspan></text><text xml:space="preserve" x="79.993" style="font-size:13.3333px;line-height:1.25;font-family:Arial;-inkscape-font-specification:Arial;text-align:center;white-space:pre;shape-inside:url(#G);display:inline" transform="matrix(.26458 0 0 .26458 889.034 -264.408)"><tspan x="-3289.69" y="1256.735"><tspan style="font-style:italic;font-weight:700;-inkscape-font-specification:&quot;Arial Bold Italic&quot;">All Checks</tspan> are done by </tspan><tspan x="-3297.112" y="1273.401">rolling <tspan style="font-style:italic;font-weight:700;-inkscape-font-specification:&quot;Arial Bold Italic&quot;">2d8</tspan> and adding any </tspan><tspan x="-3273.004" y="1290.068">relevant modifiers.
</tspan><tspan x="-3298.456" y="1306.735"><tspan style="font-style:italic;font-weight:700;-inkscape-font-specification:&quot;Arial Bold Italic&quot;">Exert - </tspan>put in extra effort to </tspan><tspan x="-3283.766" y="1323.401">increase the chance a </tspan><tspan x="-3288.57" y="1340.068">Check succeeds. Strain </tspan><tspan x="-3291.178" y="1356.734">the Attribute used for the </tspan><tspan x="-3280.794" y="1373.401">Check and Roll <tspan style="font-style:italic;font-weight:700;-inkscape-font-specification:&quot;Arial Bold Italic&quot;">2d10</tspan> </tspan><tspan x="-3266.715" y="1390.068">(instead of 2d8).</tspan></text><text xml:space="preserve" x="116.341" style="font-size:13.3333px;line-height:1.25;font-family:Arial;-inkscape-font-specification:Arial;text-align:center;white-space:pre;shape-inside:url(#H);display:inline" transform="matrix(.26458 0 0 .26458 888.985 -264.408)"><tspan x="-2904.524" y="1256.735"><tspan style="font-style:italic;font-weight:700;-inkscape-font-specification:&quot;Arial Bold Italic&quot;">Skill Checks </tspan>are used to determine </tspan><tspan x="-2914.898" y="1273.401">the outcome of many actions where the </tspan><tspan x="-2908.089" y="1290.068">result is uncertain. The Game Master </tspan><tspan x="-2911.552" y="1306.735">will determine which Skill and Attribute </tspan><tspan x="-2887.112" y="1323.401">should be used for the Check.
</tspan><tspan x="-2914.876" y="1340.068"><tspan style="font-style:italic;font-weight:700;-inkscape-font-specification:&quot;Arial Bold Italic&quot;">Simplified Skill Checks</tspan> - Not resolved </tspan><tspan x="-2907.353" y="1356.734">normally, the source of the Simplified </tspan><tspan x="-2910.058" y="1373.401">Skill Check will specify how to resolve </tspan><tspan x="-2830.407" y="1390.068">the Check.</tspan></text><path d="M1204.681 28.198v77.918M1172.931 28.198V63.61M1261.831 28.198v77.918M1325.331 28.198v77.918M1409.224 63.61h-248.993M1160.231 56.528h248.993M1409.224 49.445h-248.993M1160.231 42.363h248.993M1409.224 35.28h-248.993" style="font-variation-settings:normal;vector-effect:none;fill:none;fill-opacity:1;stroke:#000;stroke-width:.352777;stroke-linecap:butt;stroke-linejoin:miter;stroke-miterlimit:4;stroke-dasharray:none;stroke-dashoffset:0;stroke-opacity:1;-inkscape-stroke:none;stop-color:#000" transform="translate(-1145.028 .334)"/><path d="M1160.228 109.116h60v85h-60z" style="font-variation-settings:normal;vector-effect:none;fill:#fff;fill-opacity:1;fill-rule:evenodd;stroke:none;stroke-width:.352777;stroke-linecap:butt;stroke-linejoin:miter;stroke-miterlimit:4;stroke-dasharray:none;stroke-dashoffset:0;stroke-opacity:1;-inkscape-stroke:none;stop-color:#000" transform="translate(-1145.028 .334)"/><path d="M1160.228 184.59h60v9.526h-60zm0-75.474v19.05h60v-19.05zm-1.5-1.5v88h63v-88zm1.5 1.5h60v85h-60z" style="vector-effect:none;fill-rule:evenodd;stroke:none;stroke-width:.352777;stop-color:#000" transform="translate(-1145.028 .334)"/><path d="m1189.553 120.199-1.588 1.587 1.315.273-1.315 1.315 1.315 1.315-1.315.272 1.588 1.588h22.493l1.587-1.588-1.315-.272 1.315-1.315-1.315-1.315 1.315-.273-1.587-1.587zM1171.27 117.053l-1.86-1.86v-2.63l1.86-1.86h37.916l1.86 1.86v2.63l-1.86 1.86z" style="font-variation-settings:normal;vector-effect:none;fill:#fff;fill-opacity:1;stroke:none;stroke-width:.352777;stroke-linecap:butt;stroke-linejoin:miter;stroke-miterlimit:4;stroke-dasharray:none;stroke-dashoffset:0;stroke-opacity:1;-inkscape-stroke:none;stop-color:#000" transform="translate(-1145.028 .334)"/><path d="M1160.228 128.166h60v56.425h-60z" style="font-variation-settings:normal;vector-effect:none;fill:none;fill-opacity:1;fill-rule:evenodd;stroke:none;stroke-width:.352777;stroke-linecap:butt;stroke-linejoin:miter;stroke-miterlimit:4;stroke-dasharray:none;stroke-dashoffset:0;stroke-opacity:1;-inkscape-stroke:none;stop-color:#000" transform="translate(-1145.028 .334)"/><path d="M1170 120.258a3.183 3.183 0 0 0-3.176 3.175c-.027 1.925 1.645 3.202 3.175 3.175h2.63c1.53.027 3.202-1.25 3.175-3.175a3.184 3.184 0 0 0-3.175-3.175zM1177.395 120.199v6.35h8.98v-6.35h-5.805z" style="font-variation-settings:normal;fill:#fff;fill-opacity:1;stroke:none;stroke-width:.352778;stroke-linecap:butt;stroke-linejoin:miter;stroke-miterlimit:4;stroke-dasharray:none;stroke-dashoffset:0;stroke-opacity:1;stop-color:#000" transform="translate(-1145.028 .334)"/><path d="m1179.553 192.528-1.86-1.86v-2.63l1.86-1.86h21.35l1.86 1.86v2.63l-1.86 1.86z" style="font-variation-settings:normal;vector-effect:none;fill:#fff;fill-opacity:1;stroke:none;stroke-width:.352777;stroke-linecap:butt;stroke-linejoin:miter;stroke-miterlimit:4;stroke-dasharray:none;stroke-dashoffset:0;stroke-opacity:1;-inkscape-stroke:none;stop-color:#000" transform="translate(-1145.028 .334)"/><path d="M1223.228 109.116h60v85h-60z" style="font-variation-settings:normal;vector-effect:none;fill:#fff;fill-opacity:1;fill-rule:evenodd;stroke:none;stroke-width:.352777;stroke-linecap:butt;stroke-linejoin:miter;stroke-miterlimit:4;stroke-dasharray:none;stroke-dashoffset:0;stroke-opacity:1;-inkscape-stroke:none;stop-color:#000" transform="translate(-1145.028 .334)"/><path d="M1223.228 184.59h60v9.526h-60zm0-75.474v19.05h60v-19.05zm-1.5-1.5v88h63v-88zm1.5 1.5h60v85h-60z" style="vector-effect:none;fill-rule:evenodd;stroke:none;stroke-width:.352777;stop-color:#000" transform="translate(-1145.028 .334)"/><path d="m1252.552 120.199-1.587 1.587 1.315.273-1.315 1.315 1.315 1.315-1.315.272 1.587 1.588h22.494l1.587-1.588-1.315-.272 1.315-1.315-1.315-1.315 1.315-.273-1.587-1.587zM1234.27 117.053l-1.86-1.86v-2.63l1.86-1.86h37.916l1.86 1.86v2.63l-1.86 1.86z" style="font-variation-settings:normal;vector-effect:none;fill:#fff;fill-opacity:1;stroke:none;stroke-width:.352777;stroke-linecap:butt;stroke-linejoin:miter;stroke-miterlimit:4;stroke-dasharray:none;stroke-dashoffset:0;stroke-opacity:1;-inkscape-stroke:none;stop-color:#000" transform="translate(-1145.028 .334)"/><path d="M1223.228 128.166h60v56.425h-60z" style="font-variation-settings:normal;vector-effect:none;fill:none;fill-opacity:1;fill-rule:evenodd;stroke:none;stroke-width:.352777;stroke-linecap:butt;stroke-linejoin:miter;stroke-miterlimit:4;stroke-dasharray:none;stroke-dashoffset:0;stroke-opacity:1;-inkscape-stroke:none;stop-color:#000" transform="translate(-1145.028 .334)"/><path d="M1232.999 120.258a3.183 3.183 0 0 0-3.175 3.175c-.027 1.925 1.645 3.202 3.175 3.175h2.63c1.53.027 3.201-1.25 3.175-3.175a3.183 3.183 0 0 0-3.175-3.175zM1240.395 120.199v6.35h8.98v-6.35h-5.805z" style="font-variation-settings:normal;fill:#fff;fill-opacity:1;stroke:none;stroke-width:.352778;stroke-linecap:butt;stroke-linejoin:miter;stroke-miterlimit:4;stroke-dasharray:none;stroke-dashoffset:0;stroke-opacity:1;stop-color:#000" transform="translate(-1145.028 .334)"/><path d="m1242.553 192.528-1.86-1.86v-2.63l1.86-1.86h21.35l1.86 1.86v2.63l-1.86 1.86z" style="font-variation-settings:normal;vector-effect:none;fill:#fff;fill-opacity:1;stroke:none;stroke-width:.352777;stroke-linecap:butt;stroke-linejoin:miter;stroke-miterlimit:4;stroke-dasharray:none;stroke-dashoffset:0;stroke-opacity:1;-inkscape-stroke:none;stop-color:#000" transform="translate(-1145.028 .334)"/><path d="M1286.228 109.116h60v85h-60z" style="font-variation-settings:normal;vector-effect:none;fill:#fff;fill-opacity:1;fill-rule:evenodd;stroke:none;stroke-width:.352777;stroke-linecap:butt;stroke-linejoin:miter;stroke-miterlimit:4;stroke-dasharray:none;stroke-dashoffset:0;stroke-opacity:1;-inkscape-stroke:none;stop-color:#000" transform="translate(-1145.028 .334)"/><path d="M1286.228 184.59h60v9.526h-60zm0-75.474v19.05h60v-19.05zm-1.5-1.5v88h63v-88zm1.5 1.5h60v85h-60z" style="vector-effect:none;fill-rule:evenodd;stroke:none;stroke-width:.352777;stop-color:#000" transform="translate(-1145.028 .334)"/><path d="m1315.552 120.199-1.587 1.587 1.315.273-1.315 1.315 1.315 1.315-1.315.272 1.587 1.588h22.493l1.588-1.588-1.315-.272 1.315-1.315-1.315-1.315 1.315-.273-1.588-1.587zM1297.27 117.053l-1.86-1.86v-2.63l1.86-1.86h37.916l1.86 1.86v2.63l-1.86 1.86z" style="font-variation-settings:normal;vector-effect:none;fill:#fff;fill-opacity:1;stroke:none;stroke-width:.352777;stroke-linecap:butt;stroke-linejoin:miter;stroke-miterlimit:4;stroke-dasharray:none;stroke-dashoffset:0;stroke-opacity:1;-inkscape-stroke:none;stop-color:#000" transform="translate(-1145.028 .334)"/><path d="M1286.228 128.166h60v56.425h-60z" style="font-variation-settings:normal;vector-effect:none;fill:none;fill-opacity:1;fill-rule:evenodd;stroke:none;stroke-width:.352777;stroke-linecap:butt;stroke-linejoin:miter;stroke-miterlimit:4;stroke-dasharray:none;stroke-dashoffset:0;stroke-opacity:1;-inkscape-stroke:none;stop-color:#000" transform="translate(-1145.028 .334)"/><path d="M1295.999 120.258a3.183 3.183 0 0 0-3.175 3.175c-.027 1.925 1.645 3.202 3.175 3.175h2.63c1.53.027 3.201-1.25 3.175-3.175a3.183 3.183 0 0 0-3.175-3.175zM1303.394 120.199v6.35h8.981v-6.35h-5.805z" style="font-variation-settings:normal;fill:#fff;fill-opacity:1;stroke:none;stroke-width:.352778;stroke-linecap:butt;stroke-linejoin:miter;stroke-miterlimit:4;stroke-dasharray:none;stroke-dashoffset:0;stroke-opacity:1;stop-color:#000" transform="translate(-1145.028 .334)"/><path d="m1305.553 192.528-1.86-1.86v-2.63l1.86-1.86h21.35l1.86 1.86v2.63l-1.86 1.86z" style="font-variation-settings:normal;vector-effect:none;fill:#fff;fill-opacity:1;stroke:none;stroke-width:.352777;stroke-linecap:butt;stroke-linejoin:miter;stroke-miterlimit:4;stroke-dasharray:none;stroke-dashoffset:0;stroke-opacity:1;-inkscape-stroke:none;stop-color:#000" transform="translate(-1145.028 .334)"/><path d="M1349.228 109.116h60v85h-60z" style="font-variation-settings:normal;vector-effect:none;fill:#fff;fill-opacity:1;fill-rule:evenodd;stroke:none;stroke-width:.352777;stroke-linecap:butt;stroke-linejoin:miter;stroke-miterlimit:4;stroke-dasharray:none;stroke-dashoffset:0;stroke-opacity:1;-inkscape-stroke:none;stop-color:#000" transform="translate(-1145.028 .334)"/><path d="M1349.228 184.59h60v9.526h-60zm0-75.474v19.05h60v-19.05zm-1.5-1.5v88h63v-88zm1.5 1.5h60v85h-60z" style="vector-effect:none;fill-rule:evenodd;stroke:none;stroke-width:.352777;stop-color:#000" transform="translate(-1145.028 .334)"/><path d="m1378.552 120.199-1.587 1.587 1.315.273-1.316 1.315 1.316 1.315-1.316.272 1.588 1.588h22.493l1.588-1.588-1.315-.272 1.315-1.315-1.315-1.315 1.315-.273-1.588-1.587zM1360.27 117.053l-1.86-1.86v-2.63l1.86-1.86h37.915l1.86 1.86v2.63l-1.86 1.86z" style="font-variation-settings:normal;vector-effect:none;fill:#fff;fill-opacity:1;stroke:none;stroke-width:.352777;stroke-linecap:butt;stroke-linejoin:miter;stroke-miterlimit:4;stroke-dasharray:none;stroke-dashoffset:0;stroke-opacity:1;-inkscape-stroke:none;stop-color:#000" transform="translate(-1145.028 .334)"/><path d="M1349.228 128.166h60v56.425h-60z" style="font-variation-settings:normal;vector-effect:none;fill:none;fill-opacity:1;fill-rule:evenodd;stroke:none;stroke-width:.352777;stroke-linecap:butt;stroke-linejoin:miter;stroke-miterlimit:4;stroke-dasharray:none;stroke-dashoffset:0;stroke-opacity:1;-inkscape-stroke:none;stop-color:#000" transform="translate(-1145.028 .334)"/><path d="M1358.999 120.258a3.183 3.183 0 0 0-3.175 3.175c-.027 1.925 1.645 3.202 3.175 3.175h2.63c1.53.027 3.201-1.25 3.174-3.175a3.183 3.183 0 0 0-3.175-3.175zM1366.394 120.199v6.35h8.98v-6.35h-5.805z" style="font-variation-settings:normal;fill:#fff;fill-opacity:1;stroke:none;stroke-width:.352778;stroke-linecap:butt;stroke-linejoin:miter;stroke-miterlimit:4;stroke-dasharray:none;stroke-dashoffset:0;stroke-opacity:1;stop-color:#000" transform="translate(-1145.028 .334)"/><path d="m1368.553 192.528-1.86-1.86v-2.63l1.86-1.86h21.35l1.86 1.86v2.63l-1.86 1.86z" style="font-variation-settings:normal;vector-effect:none;fill:#fff;fill-opacity:1;stroke:none;stroke-width:.352777;stroke-linecap:butt;stroke-linejoin:miter;stroke-miterlimit:4;stroke-dasharray:none;stroke-dashoffset:0;stroke-opacity:1;-inkscape-stroke:none;stop-color:#000" transform="translate(-1145.028 .334)"/><path d="M1158.728 107.616h252M1347.727 195.616v-88M1284.728 195.616v-88M1221.728 195.616v-88" style="font-variation-settings:normal;vector-effect:none;fill:none;fill-opacity:1;stroke:#fff;stroke-width:.352777;stroke-linecap:butt;stroke-linejoin:miter;stroke-miterlimit:4;stroke-dasharray:.705554,.352777;stroke-dashoffset:0;stroke-opacity:1;-inkscape-stroke:none;stop-color:#000" transform="translate(-1145.028 .334)"/></svg>